# RT-2PM2 Topol-M, erzeugtes Rumpfprofil - 22,5 Bloecke hoch, 1,9 dick, drei Stufen.
# Kein Fremdmodell: als Rotationskoerper aus dem Laengsschnitt gebaut, siehe missile.py.
mtllib missile_default.mtl
o Missile
usemtl default
v 0.950000 0.000000 0.000000
v 0.903504 0.000000 -0.293566
v 0.768566 0.000000 -0.558396
v 0.558396 0.000000 -0.768566
v 0.293566 0.000000 -0.903504
v 0.000000 0.000000 -0.950000
v -0.293566 0.000000 -0.903504
v -0.558396 0.000000 -0.768566
v -0.768566 0.000000 -0.558396
v -0.903504 0.000000 -0.293566
v -0.950000 0.000000 -0.000000
v -0.903504 0.000000 0.293566
v -0.768566 0.000000 0.558396
v -0.558396 0.000000 0.768566
v -0.293566 0.000000 0.903504
v -0.000000 0.000000 0.950000
v 0.293566 0.000000 0.903504
v 0.558396 0.000000 0.768566
v 0.768566 0.000000 0.558396
v 0.903504 0.000000 0.293566
v 0.950000 0.200000 0.000000
v 0.903504 0.200000 -0.293566
v 0.768566 0.200000 -0.558396
v 0.558396 0.200000 -0.768566
v 0.293566 0.200000 -0.903504
v 0.000000 0.200000 -0.950000
v -0.293566 0.200000 -0.903504
v -0.558396 0.200000 -0.768566
v -0.768566 0.200000 -0.558396
v -0.903504 0.200000 -0.293566
v -0.950000 0.200000 -0.000000
v -0.903504 0.200000 0.293566
v -0.768566 0.200000 0.558396
v -0.558396 0.200000 0.768566
v -0.293566 0.200000 0.903504
v -0.000000 0.200000 0.950000
v 0.293566 0.200000 0.903504
v 0.558396 0.200000 0.768566
v 0.768566 0.200000 0.558396
v 0.903504 0.200000 0.293566
v 0.950000 8.000000 0.000000
v 0.903504 8.000000 -0.293566
v 0.768566 8.000000 -0.558396
v 0.558396 8.000000 -0.768566
v 0.293566 8.000000 -0.903504
v 0.000000 8.000000 -0.950000
v -0.293566 8.000000 -0.903504
v -0.558396 8.000000 -0.768566
v -0.768566 8.000000 -0.558396
v -0.903504 8.000000 -0.293566
v -0.950000 8.000000 -0.000000
v -0.903504 8.000000 0.293566
v -0.768566 8.000000 0.558396
v -0.558396 8.000000 0.768566
v -0.293566 8.000000 0.903504
v -0.000000 8.000000 0.950000
v 0.293566 8.000000 0.903504
v 0.558396 8.000000 0.768566
v 0.768566 8.000000 0.558396
v 0.903504 8.000000 0.293566
v 0.900000 8.200000 0.000000
v 0.855951 8.200000 -0.278115
v 0.728115 8.200000 -0.529007
v 0.529007 8.200000 -0.728115
v 0.278115 8.200000 -0.855951
v 0.000000 8.200000 -0.900000
v -0.278115 8.200000 -0.855951
v -0.529007 8.200000 -0.728115
v -0.728115 8.200000 -0.529007
v -0.855951 8.200000 -0.278115
v -0.900000 8.200000 -0.000000
v -0.855951 8.200000 0.278115
v -0.728115 8.200000 0.529007
v -0.529007 8.200000 0.728115
v -0.278115 8.200000 0.855951
v -0.000000 8.200000 0.900000
v 0.278115 8.200000 0.855951
v 0.529007 8.200000 0.728115
v 0.728115 8.200000 0.529007
v 0.855951 8.200000 0.278115
v 0.900000 14.500000 0.000000
v 0.855951 14.500000 -0.278115
v 0.728115 14.500000 -0.529007
v 0.529007 14.500000 -0.728115
v 0.278115 14.500000 -0.855951
v 0.000000 14.500000 -0.900000
v -0.278115 14.500000 -0.855951
v -0.529007 14.500000 -0.728115
v -0.728115 14.500000 -0.529007
v -0.855951 14.500000 -0.278115
v -0.900000 14.500000 -0.000000
v -0.855951 14.500000 0.278115
v -0.728115 14.500000 0.529007
v -0.529007 14.500000 0.728115
v -0.278115 14.500000 0.855951
v -0.000000 14.500000 0.900000
v 0.278115 14.500000 0.855951
v 0.529007 14.500000 0.728115
v 0.728115 14.500000 0.529007
v 0.855951 14.500000 0.278115
v 0.820000 14.700000 0.000000
v 0.779866 14.700000 -0.253394
v 0.663394 14.700000 -0.481984
v 0.481984 14.700000 -0.663394
v 0.253394 14.700000 -0.779866
v 0.000000 14.700000 -0.820000
v -0.253394 14.700000 -0.779866
v -0.481984 14.700000 -0.663394
v -0.663394 14.700000 -0.481984
v -0.779866 14.700000 -0.253394
v -0.820000 14.700000 -0.000000
v -0.779866 14.700000 0.253394
v -0.663394 14.700000 0.481984
v -0.481984 14.700000 0.663394
v -0.253394 14.700000 0.779866
v -0.000000 14.700000 0.820000
v 0.253394 14.700000 0.779866
v 0.481984 14.700000 0.663394
v 0.663394 14.700000 0.481984
v 0.779866 14.700000 0.253394
v 0.820000 18.600000 0.000000
v 0.779866 18.600000 -0.253394
v 0.663394 18.600000 -0.481984
v 0.481984 18.600000 -0.663394
v 0.253394 18.600000 -0.779866
v 0.000000 18.600000 -0.820000
v -0.253394 18.600000 -0.779866
v -0.481984 18.600000 -0.663394
v -0.663394 18.600000 -0.481984
v -0.779866 18.600000 -0.253394
v -0.820000 18.600000 -0.000000
v -0.779866 18.600000 0.253394
v -0.663394 18.600000 0.481984
v -0.481984 18.600000 0.663394
v -0.253394 18.600000 0.779866
v -0.000000 18.600000 0.820000
v 0.253394 18.600000 0.779866
v 0.481984 18.600000 0.663394
v 0.663394 18.600000 0.481984
v 0.779866 18.600000 0.253394
v 0.780000 19.000000 0.000000
v 0.741824 19.000000 -0.241033
v 0.631033 19.000000 -0.458472
v 0.458472 19.000000 -0.631033
v 0.241033 19.000000 -0.741824
v 0.000000 19.000000 -0.780000
v -0.241033 19.000000 -0.741824
v -0.458472 19.000000 -0.631033
v -0.631033 19.000000 -0.458472
v -0.741824 19.000000 -0.241033
v -0.780000 19.000000 -0.000000
v -0.741824 19.000000 0.241033
v -0.631033 19.000000 0.458472
v -0.458472 19.000000 0.631033
v -0.241033 19.000000 0.741824
v -0.000000 19.000000 0.780000
v 0.241033 19.000000 0.741824
v 0.458472 19.000000 0.631033
v 0.631033 19.000000 0.458472
v 0.741824 19.000000 0.241033
v 0.620000 20.400000 0.000000
v 0.589655 20.400000 -0.191591
v 0.501591 20.400000 -0.364427
v 0.364427 20.400000 -0.501591
v 0.191591 20.400000 -0.589655
v 0.000000 20.400000 -0.620000
v -0.191591 20.400000 -0.589655
v -0.364427 20.400000 -0.501591
v -0.501591 20.400000 -0.364427
v -0.589655 20.400000 -0.191591
v -0.620000 20.400000 -0.000000
v -0.589655 20.400000 0.191591
v -0.501591 20.400000 0.364427
v -0.364427 20.400000 0.501591
v -0.191591 20.400000 0.589655
v -0.000000 20.400000 0.620000
v 0.191591 20.400000 0.589655
v 0.364427 20.400000 0.501591
v 0.501591 20.400000 0.364427
v 0.589655 20.400000 0.191591
v 0.360000 21.400000 0.000000
v 0.342380 21.400000 -0.111246
v 0.291246 21.400000 -0.211603
v 0.211603 21.400000 -0.291246
v 0.111246 21.400000 -0.342380
v 0.000000 21.400000 -0.360000
v -0.111246 21.400000 -0.342380
v -0.211603 21.400000 -0.291246
v -0.291246 21.400000 -0.211603
v -0.342380 21.400000 -0.111246
v -0.360000 21.400000 -0.000000
v -0.342380 21.400000 0.111246
v -0.291246 21.400000 0.211603
v -0.211603 21.400000 0.291246
v -0.111246 21.400000 0.342380
v -0.000000 21.400000 0.360000
v 0.111246 21.400000 0.342380
v 0.211603 21.400000 0.291246
v 0.291246 21.400000 0.211603
v 0.342380 21.400000 0.111246
v 0.000000 22.500000 0.000000
vn 0.7392 -0.6735 -0.0000
vn 0.7030 -0.6735 -0.2284
vn 0.5980 -0.6735 -0.4345
vn 0.4345 -0.6735 -0.5980
vn 0.2284 -0.6735 -0.7030
vn -0.0000 -0.6735 -0.7392
vn -0.2284 -0.6735 -0.7030
vn -0.4345 -0.6735 -0.5980
vn -0.5980 -0.6735 -0.4345
vn -0.7030 -0.6735 -0.2284
vn -0.7392 -0.6735 -0.0000
vn -0.7030 -0.6735 0.2284
vn -0.5980 -0.6735 0.4345
vn -0.4345 -0.6735 0.5980
vn -0.2284 -0.6735 0.7030
vn -0.0000 -0.6735 0.7392
vn 0.2284 -0.6735 0.7030
vn 0.4345 -0.6735 0.5980
vn 0.5980 -0.6735 0.4345
vn 0.7030 -0.6735 0.2284
vn 1.0000 -0.0000 -0.0000
vn 0.9511 -0.0000 -0.3090
vn 0.8090 -0.0000 -0.5878
vn 0.5878 -0.0000 -0.8090
vn 0.3090 -0.0000 -0.9511
vn -0.0000 -0.0000 -1.0000
vn -0.3090 -0.0000 -0.9511
vn -0.5878 -0.0000 -0.8090
vn -0.8090 -0.0000 -0.5878
vn -0.9511 -0.0000 -0.3090
vn -1.0000 -0.0000 -0.0000
vn -0.9511 -0.0000 0.3090
vn -0.8090 -0.0000 0.5878
vn -0.5878 -0.0000 0.8090
vn -0.3090 -0.0000 0.9511
vn -0.0000 -0.0000 1.0000
vn 0.3090 -0.0000 0.9511
vn 0.5878 -0.0000 0.8090
vn 0.8090 -0.0000 0.5878
vn 0.9511 -0.0000 0.3090
vn 0.9927 0.1207 -0.0000
vn 0.9441 0.1207 -0.3068
vn 0.8031 0.1207 -0.5835
vn 0.5835 0.1207 -0.8031
vn 0.3068 0.1207 -0.9441
vn -0.0000 0.1207 -0.9927
vn -0.3068 0.1207 -0.9441
vn -0.5835 0.1207 -0.8031
vn -0.8031 0.1207 -0.5835
vn -0.9441 0.1207 -0.3068
vn -0.9927 0.1207 -0.0000
vn -0.9441 0.1207 0.3068
vn -0.8031 0.1207 0.5835
vn -0.5835 0.1207 0.8031
vn -0.3068 0.1207 0.9441
vn -0.0000 0.1207 0.9927
vn 0.3068 0.1207 0.9441
vn 0.5835 0.1207 0.8031
vn 0.8031 0.1207 0.5835
vn 0.9441 0.1207 0.3068
vn 0.9923 0.1237 -0.0000
vn 0.9438 0.1237 -0.3066
vn 0.8028 0.1237 -0.5833
vn 0.5833 0.1237 -0.8028
vn 0.3066 0.1237 -0.9438
vn -0.0000 0.1237 -0.9923
vn -0.3066 0.1237 -0.9438
vn -0.5833 0.1237 -0.8028
vn -0.8028 0.1237 -0.5833
vn -0.9438 0.1237 -0.3066
vn -0.9923 0.1237 -0.0000
vn -0.9438 0.1237 0.3066
vn -0.8028 0.1237 0.5833
vn -0.5833 0.1237 0.8028
vn -0.3066 0.1237 0.9438
vn -0.0000 0.1237 0.9923
vn 0.3066 0.1237 0.9438
vn 0.5833 0.1237 0.8028
vn 0.8028 0.1237 0.5833
vn 0.9438 0.1237 0.3066
vn 0.9826 0.1857 -0.0000
vn 0.9345 0.1857 -0.3036
vn 0.7949 0.1857 -0.5776
vn 0.5776 0.1857 -0.7949
vn 0.3036 0.1857 -0.9345
vn -0.0000 0.1857 -0.9826
vn -0.3036 0.1857 -0.9345
vn -0.5776 0.1857 -0.7949
vn -0.7949 0.1857 -0.5776
vn -0.9345 0.1857 -0.3036
vn -0.9826 0.1857 -0.0000
vn -0.9345 0.1857 0.3036
vn -0.7949 0.1857 0.5776
vn -0.5776 0.1857 0.7949
vn -0.3036 0.1857 0.9345
vn -0.0000 0.1857 0.9826
vn 0.3036 0.1857 0.9345
vn 0.5776 0.1857 0.7949
vn 0.7949 0.1857 0.5776
vn 0.9345 0.1857 0.3036
vn 0.9813 0.1927 -0.0000
vn 0.9332 0.1927 -0.3032
vn 0.7939 0.1927 -0.5768
vn 0.5768 0.1927 -0.7939
vn 0.3032 0.1927 -0.9332
vn -0.0000 0.1927 -0.9813
vn -0.3032 0.1927 -0.9332
vn -0.5768 0.1927 -0.7939
vn -0.7939 0.1927 -0.5768
vn -0.9332 0.1927 -0.3032
vn -0.9813 0.1927 -0.0000
vn -0.9332 0.1927 0.3032
vn -0.7939 0.1927 0.5768
vn -0.5768 0.1927 0.7939
vn -0.3032 0.1927 0.9332
vn -0.0000 0.1927 0.9813
vn 0.3032 0.1927 0.9332
vn 0.5768 0.1927 0.7939
vn 0.7939 0.1927 0.5768
vn 0.9332 0.1927 0.3032
vn 0.9988 0.0496 -0.0000
vn 0.9499 0.0496 -0.3086
vn 0.8080 0.0496 -0.5871
vn 0.5871 0.0496 -0.8080
vn 0.3086 0.0496 -0.9499
vn -0.0000 0.0496 -0.9988
vn -0.3086 0.0496 -0.9499
vn -0.5871 0.0496 -0.8080
vn -0.8080 0.0496 -0.5871
vn -0.9499 0.0496 -0.3086
vn -0.9988 0.0496 -0.0000
vn -0.9499 0.0496 0.3086
vn -0.8080 0.0496 0.5871
vn -0.5871 0.0496 0.8080
vn -0.3086 0.0496 0.9499
vn -0.0000 0.0496 0.9988
vn 0.3086 0.0496 0.9499
vn 0.5871 0.0496 0.8080
vn 0.8080 0.0496 0.5871
vn 0.9499 0.0496 0.3086
vn 0.9943 0.1065 -0.0000
vn 0.9457 0.1065 -0.3073
vn 0.8044 0.1065 -0.5844
vn 0.5844 0.1065 -0.8044
vn 0.3073 0.1065 -0.9457
vn -0.0000 0.1065 -0.9943
vn -0.3073 0.1065 -0.9457
vn -0.5844 0.1065 -0.8044
vn -0.8044 0.1065 -0.5844
vn -0.9457 0.1065 -0.3073
vn -0.9943 0.1065 -0.0000
vn -0.9457 0.1065 0.3073
vn -0.8044 0.1065 0.5844
vn -0.5844 0.1065 0.8044
vn -0.3073 0.1065 0.9457
vn -0.0000 0.1065 0.9943
vn 0.3073 0.1065 0.9457
vn 0.5844 0.1065 0.8044
vn 0.8044 0.1065 0.5844
vn 0.9457 0.1065 0.3073
vn 0.9833 0.1818 -0.0000
vn 0.9352 0.1818 -0.3039
vn 0.7955 0.1818 -0.5780
vn 0.5780 0.1818 -0.7955
vn 0.3039 0.1818 -0.9352
vn -0.0000 0.1818 -0.9833
vn -0.3039 0.1818 -0.9352
vn -0.5780 0.1818 -0.7955
vn -0.7955 0.1818 -0.5780
vn -0.9352 0.1818 -0.3039
vn -0.9833 0.1818 -0.0000
vn -0.9352 0.1818 0.3039
vn -0.7955 0.1818 0.5780
vn -0.5780 0.1818 0.7955
vn -0.3039 0.1818 0.9352
vn -0.0000 0.1818 0.9833
vn 0.3039 0.1818 0.9352
vn 0.5780 0.1818 0.7955
vn 0.7955 0.1818 0.5780
vn 0.9352 0.1818 0.3039
vn 0.9598 0.2806 -0.0000
vn 0.9128 0.2806 -0.2966
vn 0.7765 0.2806 -0.5642
vn 0.5642 0.2806 -0.7765
vn 0.2966 0.2806 -0.9128
vn -0.0000 0.2806 -0.9598
vn -0.2966 0.2806 -0.9128
vn -0.5642 0.2806 -0.7765
vn -0.7765 0.2806 -0.5642
vn -0.9128 0.2806 -0.2966
vn -0.9598 0.2806 -0.0000
vn -0.9128 0.2806 0.2966
vn -0.7765 0.2806 0.5642
vn -0.5642 0.2806 0.7765
vn -0.2966 0.2806 0.9128
vn -0.0000 0.2806 0.9598
vn 0.2966 0.2806 0.9128
vn 0.5642 0.2806 0.7765
vn 0.7765 0.2806 0.5642
vn 0.9128 0.2806 0.2966
vn -0.0000 1.0000 -0.0000
vt 0.066071 0.996185
vt 0.076759 0.988499
vt 0.076759 0.997297
vt 0.179053 0.997297
vt 0.189741 0.987386
vt 0.189741 0.996185
vt 0.166488 0.997882
vt 0.179053 0.988499
vt 0.153277 0.997882
vt 0.166488 0.989084
vt 0.140712 0.997297
vt 0.153277 0.989084
vt 0.130024 0.996185
vt 0.140712 0.988499
vt 0.243006 0.997297
vt 0.253694 0.987386
vt 0.253694 0.996185
vt 0.230441 0.997882
vt 0.243006 0.988499
vt 0.217230 0.997882
vt 0.230441 0.989084
vt 0.204665 0.997297
vt 0.217230 0.989084
vt 0.193977 0.996185
vt 0.204665 0.988499
vt 0.051147 0.997297
vt 0.061835 0.987387
vt 0.061835 0.996185
vt 0.038582 0.997882
vt 0.051147 0.988499
vt 0.025371 0.997882
vt 0.038582 0.989084
vt 0.012806 0.997297
vt 0.025371 0.989084
vt 0.002118 0.996185
vt 0.012806 0.988499
vt 0.115100 0.997297
vt 0.125788 0.987386
vt 0.125788 0.996185
vt 0.102535 0.997882
vt 0.115100 0.988499
vt 0.089324 0.997882
vt 0.102535 0.989084
vt 0.089324 0.989084
vt 0.066071 0.987386
vt 0.076759 0.645372
vt 0.189741 0.644260
vt 0.179053 0.645372
vt 0.166488 0.645957
vt 0.153277 0.645957
vt 0.130024 0.987386
vt 0.140712 0.645372
vt 0.253694 0.644260
vt 0.243006 0.645372
vt 0.230441 0.645957
vt 0.217230 0.645957
vt 0.193977 0.987386
vt 0.204665 0.645372
vt 0.061835 0.644260
vt 0.051147 0.645373
vt 0.038582 0.645957
vt 0.025371 0.645957
vt 0.002118 0.987387
vt 0.012806 0.645373
vt 0.125788 0.644260
vt 0.115100 0.645372
vt 0.102535 0.645957
vt 0.089324 0.645957
vt 0.066071 0.644260
vt 0.077768 0.636291
vt 0.178044 0.636291
vt 0.188170 0.635237
vt 0.166141 0.636845
vt 0.153625 0.636845
vt 0.130024 0.644260
vt 0.141721 0.636291
vt 0.241997 0.636291
vt 0.252123 0.635237
vt 0.230094 0.636845
vt 0.217578 0.636845
vt 0.193977 0.644260
vt 0.205674 0.636291
vt 0.050138 0.636291
vt 0.060264 0.635237
vt 0.038235 0.636845
vt 0.025718 0.636845
vt 0.002118 0.644260
vt 0.013815 0.636291
vt 0.114091 0.636291
vt 0.124217 0.635237
vt 0.102188 0.636845
vt 0.089671 0.636845
vt 0.067642 0.635237
vt 0.077768 0.359150
vt 0.188170 0.358096
vt 0.178044 0.359150
vt 0.166141 0.359704
vt 0.153625 0.359704
vt 0.131595 0.635237
vt 0.141721 0.359150
vt 0.252123 0.358096
vt 0.241997 0.359150
vt 0.230094 0.359704
vt 0.217578 0.359704
vt 0.195548 0.635237
vt 0.205674 0.359150
vt 0.060264 0.358096
vt 0.050138 0.359150
vt 0.038235 0.359704
vt 0.025718 0.359704
vt 0.003689 0.635237
vt 0.013815 0.359150
vt 0.124217 0.358096
vt 0.114091 0.359150
vt 0.102188 0.359704
vt 0.089671 0.359704
vt 0.067642 0.358096
vt 0.079382 0.349898
vt 0.185655 0.348937
vt 0.176430 0.349898
vt 0.154181 0.350403
vt 0.165584 0.350403
vt 0.131595 0.358096
vt 0.143335 0.349898
vt 0.249609 0.348937
vt 0.240383 0.349898
vt 0.218134 0.350403
vt 0.229537 0.350403
vt 0.195548 0.358096
vt 0.207288 0.349898
vt 0.057749 0.348937
vt 0.048524 0.349898
vt 0.026275 0.350403
vt 0.037678 0.350403
vt 0.003689 0.358096
vt 0.015429 0.349898
vt 0.121702 0.348937
vt 0.112477 0.349898
vt 0.090228 0.350403
vt 0.101631 0.350403
vt 0.070157 0.348937
vt 0.079382 0.178334
vt 0.185655 0.177374
vt 0.176430 0.178334
vt 0.165584 0.178839
vt 0.154181 0.178839
vt 0.134110 0.348937
vt 0.143335 0.178334
vt 0.249609 0.177374
vt 0.240383 0.178334
vt 0.229537 0.178839
vt 0.218134 0.178839
vt 0.198063 0.348937
vt 0.207288 0.178334
vt 0.057749 0.177374
vt 0.048524 0.178334
vt 0.037678 0.178839
vt 0.026275 0.178839
vt 0.006204 0.348937
vt 0.015429 0.178334
vt 0.121702 0.177374
vt 0.112477 0.178334
vt 0.101631 0.178839
vt 0.090228 0.178839
vt 0.070157 0.177374
vt 0.080190 0.160511
vt 0.184398 0.159598
vt 0.175623 0.160511
vt 0.165306 0.160991
vt 0.154459 0.160991
vt 0.134110 0.177374
vt 0.144143 0.160511
vt 0.248351 0.159598
vt 0.239576 0.160511
vt 0.229259 0.160991
vt 0.218412 0.160991
vt 0.198063 0.177374
vt 0.208096 0.160511
vt 0.056492 0.159598
vt 0.047717 0.160511
vt 0.037400 0.160991
vt 0.026553 0.160991
vt 0.006204 0.177374
vt 0.016236 0.160511
vt 0.120445 0.159598
vt 0.111670 0.160511
vt 0.101353 0.160991
vt 0.090506 0.160991
vt 0.071414 0.159598
vt 0.083418 0.098016
vt 0.172394 0.098016
vt 0.179369 0.097290
vt 0.164194 0.098398
vt 0.155571 0.098398
vt 0.135367 0.159598
vt 0.147371 0.098016
vt 0.236347 0.098016
vt 0.243322 0.097290
vt 0.228147 0.098398
vt 0.219525 0.098398
vt 0.199320 0.159598
vt 0.211324 0.098016
vt 0.044488 0.098016
vt 0.051463 0.097290
vt 0.036288 0.098398
vt 0.027665 0.098398
vt 0.007461 0.159598
vt 0.019465 0.098016
vt 0.108441 0.098016
vt 0.115416 0.097290
vt 0.100241 0.098398
vt 0.091618 0.098398
vt 0.076443 0.097290
vt 0.088665 0.052550
vt 0.171198 0.052129
vt 0.167147 0.052550
vt 0.162386 0.052772
vt 0.157379 0.052772
vt 0.140396 0.097290
vt 0.152618 0.052550
vt 0.235151 0.052129
vt 0.231100 0.052550
vt 0.226339 0.052772
vt 0.221332 0.052772
vt 0.204349 0.097290
vt 0.216571 0.052550
vt 0.043291 0.052129
vt 0.039241 0.052550
vt 0.034480 0.052772
vt 0.029473 0.052772
vt 0.012490 0.097290
vt 0.024712 0.052550
vt 0.107244 0.052129
vt 0.103194 0.052550
vt 0.098433 0.052772
vt 0.093426 0.052772
vt 0.084615 0.052129
vt 0.095930 0.002118
vt 0.159883 0.002118
vt 0.148568 0.052129
vt 0.223836 0.002118
vt 0.212521 0.052129
vt 0.031977 0.002118
vt 0.020662 0.052129
vt 0.329496 0.073683
vt 0.257930 0.037219
vt 0.293031 0.002118
vt 0.306242 0.002118
vt 0.318807 0.006200
vt 0.329496 0.013966
vt 0.337261 0.024654
vt 0.341344 0.037219
vt 0.341344 0.050430
vt 0.337261 0.062995
vt 0.318807 0.081449
vt 0.306242 0.085531
vt 0.293031 0.085531
vt 0.280466 0.081449
vt 0.269778 0.073683
vt 0.262012 0.062995
vt 0.257930 0.050430
vt 0.262012 0.024654
vt 0.269778 0.013966
vt 0.280466 0.006200
f 2/1/2 21/2/21 1/3/1
f 3/4/3 22/5/22 2/6/2
f 4/7/4 23/8/23 3/4/3
f 5/9/5 24/10/24 4/7/4
f 6/11/6 25/12/25 5/9/5
f 7/13/7 26/14/26 6/11/6
f 8/15/8 27/16/27 7/17/7
f 9/18/9 28/19/28 8/15/8
f 10/20/10 29/21/29 9/18/9
f 11/22/11 30/23/30 10/20/10
f 12/24/12 31/25/31 11/22/11
f 13/26/13 32/27/32 12/28/12
f 14/29/14 33/30/33 13/26/13
f 15/31/15 34/32/34 14/29/14
f 16/33/16 35/34/35 15/31/15
f 17/35/17 36/36/36 16/33/16
f 18/37/18 37/38/37 17/39/17
f 19/40/19 38/41/38 18/37/18
f 20/42/20 39/43/39 19/40/19
f 1/3/1 40/44/40 20/42/20
f 22/45/22 41/46/41 21/2/21
f 23/8/23 42/47/42 22/5/22
f 24/10/24 43/48/43 23/8/23
f 25/12/25 44/49/44 24/10/24
f 26/14/26 45/50/45 25/12/25
f 27/51/27 46/52/46 26/14/26
f 28/19/28 47/53/47 27/16/27
f 29/21/29 48/54/48 28/19/28
f 30/23/30 49/55/49 29/21/29
f 31/25/31 50/56/50 30/23/30
f 32/57/32 51/58/51 31/25/31
f 33/30/33 52/59/52 32/27/32
f 34/32/34 53/60/53 33/30/33
f 35/34/35 54/61/54 34/32/34
f 36/36/36 55/62/55 35/34/35
f 37/63/37 56/64/56 36/36/36
f 38/41/38 57/65/57 37/38/37
f 39/43/39 58/66/58 38/41/38
f 40/44/40 59/67/59 39/43/39
f 21/2/21 60/68/60 40/44/40
f 42/69/42 61/70/61 41/46/41
f 42/47/42 63/71/63 62/72/62
f 44/49/44 63/71/63 43/48/43
f 45/50/45 64/73/64 44/49/44
f 46/52/46 65/74/65 45/50/45
f 47/75/47 66/76/66 46/52/46
f 47/53/47 68/77/68 67/78/67
f 49/55/49 68/77/68 48/54/48
f 50/56/50 69/79/69 49/55/49
f 51/58/51 70/80/70 50/56/50
f 52/81/52 71/82/71 51/58/51
f 52/59/52 73/83/73 72/84/72
f 54/61/54 73/83/73 53/60/53
f 55/62/55 74/85/74 54/61/54
f 56/64/56 75/86/75 55/62/55
f 57/87/57 76/88/76 56/64/56
f 57/65/57 78/89/78 77/90/77
f 59/67/59 78/89/78 58/66/58
f 60/68/60 79/91/79 59/67/59
f 41/46/41 80/92/80 60/68/60
f 62/93/62 81/94/81 61/70/61
f 63/71/63 82/95/82 62/72/62
f 64/73/64 83/96/83 63/71/63
f 65/74/65 84/97/84 64/73/64
f 66/76/66 85/98/85 65/74/65
f 67/99/67 86/100/86 66/76/66
f 68/77/68 87/101/87 67/78/67
f 69/79/69 88/102/88 68/77/68
f 70/80/70 89/103/89 69/79/69
f 71/82/71 90/104/90 70/80/70
f 72/105/72 91/106/91 71/82/71
f 73/83/73 92/107/92 72/84/72
f 74/85/74 93/108/93 73/83/73
f 75/86/75 94/109/94 74/85/74
f 76/88/76 95/110/95 75/86/75
f 77/111/77 96/112/96 76/88/76
f 78/89/78 97/113/97 77/90/77
f 79/91/79 98/114/98 78/89/78
f 80/92/80 99/115/99 79/91/79
f 61/70/61 100/116/100 80/92/80
f 82/117/82 101/118/101 81/94/81
f 83/96/83 102/119/102 82/95/82
f 84/97/84 103/120/103 83/96/83
f 84/97/84 105/121/105 104/122/104
f 86/100/86 105/121/105 85/98/85
f 87/123/87 106/124/106 86/100/86
f 88/102/88 107/125/107 87/101/87
f 89/103/89 108/126/108 88/102/88
f 89/103/89 110/127/110 109/128/109
f 91/106/91 110/127/110 90/104/90
f 92/129/92 111/130/111 91/106/91
f 93/108/93 112/131/112 92/107/92
f 94/109/94 113/132/113 93/108/93
f 94/109/94 115/133/115 114/134/114
f 96/112/96 115/133/115 95/110/95
f 97/135/97 116/136/116 96/112/96
f 98/114/98 117/137/117 97/113/97
f 99/115/99 118/138/118 98/114/98
f 99/115/99 120/139/120 119/140/119
f 81/94/81 120/139/120 100/116/100
f 102/141/102 121/142/121 101/118/101
f 103/120/103 122/143/122 102/119/102
f 104/122/104 123/144/123 103/120/103
f 105/121/105 124/145/124 104/122/104
f 106/124/106 125/146/125 105/121/105
f 107/147/107 126/148/126 106/124/106
f 108/126/108 127/149/127 107/125/107
f 109/128/109 128/150/128 108/126/108
f 110/127/110 129/151/129 109/128/109
f 111/130/111 130/152/130 110/127/110
f 112/153/112 131/154/131 111/130/111
f 113/132/113 132/155/132 112/131/112
f 114/134/114 133/156/133 113/132/113
f 115/133/115 134/157/134 114/134/114
f 116/136/116 135/158/135 115/133/115
f 117/159/117 136/160/136 116/136/116
f 118/138/118 137/161/137 117/137/117
f 119/140/119 138/162/138 118/138/118
f 120/139/120 139/163/139 119/140/119
f 101/118/101 140/164/140 120/139/120
f 122/165/122 141/166/141 121/142/121
f 123/144/123 142/167/142 122/143/122
f 124/145/124 143/168/143 123/144/123
f 125/146/125 144/169/144 124/145/124
f 126/148/126 145/170/145 125/146/125
f 127/171/127 146/172/146 126/148/126
f 128/150/128 147/173/147 127/149/127
f 129/151/129 148/174/148 128/150/128
f 130/152/130 149/175/149 129/151/129
f 131/154/131 150/176/150 130/152/130
f 132/177/132 151/178/151 131/154/131
f 133/156/133 152/179/152 132/155/132
f 134/157/134 153/180/153 133/156/133
f 135/158/135 154/181/154 134/157/134
f 136/160/136 155/182/155 135/158/135
f 137/183/137 156/184/156 136/160/136
f 138/162/138 157/185/157 137/161/137
f 139/163/139 158/186/158 138/162/138
f 140/164/140 159/187/159 139/163/139
f 121/142/121 160/188/160 140/164/140
f 142/189/142 161/190/161 141/166/141
f 142/167/142 163/191/163 162/192/162
f 144/169/144 163/191/163 143/168/143
f 145/170/145 164/193/164 144/169/144
f 146/172/146 165/194/165 145/170/145
f 147/195/147 166/196/166 146/172/146
f 147/173/147 168/197/168 167/198/167
f 149/175/149 168/197/168 148/174/148
f 150/176/150 169/199/169 149/175/149
f 151/178/151 170/200/170 150/176/150
f 152/201/152 171/202/171 151/178/151
f 152/179/152 173/203/173 172/204/172
f 154/181/154 173/203/173 153/180/153
f 155/182/155 174/205/174 154/181/154
f 156/184/156 175/206/175 155/182/155
f 157/207/157 176/208/176 156/184/156
f 157/185/157 178/209/178 177/210/177
f 159/187/159 178/209/178 158/186/158
f 160/188/160 179/211/179 159/187/159
f 141/166/141 180/212/180 160/188/160
f 162/213/162 181/214/181 161/190/161
f 163/191/163 182/215/182 162/192/162
f 164/193/164 183/216/183 163/191/163
f 165/194/165 184/217/184 164/193/164
f 166/196/166 185/218/185 165/194/165
f 167/219/167 186/220/186 166/196/166
f 168/197/168 187/221/187 167/198/167
f 169/199/169 188/222/188 168/197/168
f 170/200/170 189/223/189 169/199/169
f 171/202/171 190/224/190 170/200/170
f 172/225/172 191/226/191 171/202/171
f 173/203/173 192/227/192 172/204/172
f 174/205/174 193/228/193 173/203/173
f 175/206/175 194/229/194 174/205/174
f 176/208/176 195/230/195 175/206/175
f 177/231/177 196/232/196 176/208/176
f 178/209/178 197/233/197 177/210/177
f 179/211/179 198/234/198 178/209/178
f 180/212/180 199/235/199 179/211/179
f 161/190/161 200/236/200 180/212/180
f 181/214/181 182/237/182 201/238/201
f 182/215/182 183/216/183 201/239/201
f 183/216/183 184/217/184 201/239/201
f 184/217/184 185/218/185 201/239/201
f 185/218/185 186/220/186 201/239/201
f 186/220/186 187/240/187 201/239/201
f 187/221/187 188/222/188 201/241/201
f 188/222/188 189/223/189 201/241/201
f 189/223/189 190/224/190 201/241/201
f 190/224/190 191/226/191 201/241/201
f 191/226/191 192/242/192 201/241/201
f 192/227/192 193/228/193 201/243/201
f 193/228/193 194/229/194 201/243/201
f 194/229/194 195/230/195 201/243/201
f 195/230/195 196/232/196 201/243/201
f 196/232/196 197/244/197 201/243/201
f 197/233/197 198/234/198 201/238/201
f 198/234/198 199/235/199 201/238/201
f 199/235/199 200/236/200 201/238/201
f 200/236/200 181/214/181 201/238/201
f 13/245/13 5/246/5 1/247/1
f 2/1/2 22/45/22 21/2/21
f 3/4/3 23/8/23 22/5/22
f 4/7/4 24/10/24 23/8/23
f 5/9/5 25/12/25 24/10/24
f 6/11/6 26/14/26 25/12/25
f 7/13/7 27/51/27 26/14/26
f 8/15/8 28/19/28 27/16/27
f 9/18/9 29/21/29 28/19/28
f 10/20/10 30/23/30 29/21/29
f 11/22/11 31/25/31 30/23/30
f 12/24/12 32/57/32 31/25/31
f 13/26/13 33/30/33 32/27/32
f 14/29/14 34/32/34 33/30/33
f 15/31/15 35/34/35 34/32/34
f 16/33/16 36/36/36 35/34/35
f 17/35/17 37/63/37 36/36/36
f 18/37/18 38/41/38 37/38/37
f 19/40/19 39/43/39 38/41/38
f 20/42/20 40/44/40 39/43/39
f 1/3/1 21/2/21 40/44/40
f 22/45/22 42/69/42 41/46/41
f 23/8/23 43/48/43 42/47/42
f 24/10/24 44/49/44 43/48/43
f 25/12/25 45/50/45 44/49/44
f 26/14/26 46/52/46 45/50/45
f 27/51/27 47/75/47 46/52/46
f 28/19/28 48/54/48 47/53/47
f 29/21/29 49/55/49 48/54/48
f 30/23/30 50/56/50 49/55/49
f 31/25/31 51/58/51 50/56/50
f 32/57/32 52/81/52 51/58/51
f 33/30/33 53/60/53 52/59/52
f 34/32/34 54/61/54 53/60/53
f 35/34/35 55/62/55 54/61/54
f 36/36/36 56/64/56 55/62/55
f 37/63/37 57/87/57 56/64/56
f 38/41/38 58/66/58 57/65/57
f 39/43/39 59/67/59 58/66/58
f 40/44/40 60/68/60 59/67/59
f 21/2/21 41/46/41 60/68/60
f 42/69/42 62/93/62 61/70/61
f 42/47/42 43/48/43 63/71/63
f 44/49/44 64/73/64 63/71/63
f 45/50/45 65/74/65 64/73/64
f 46/52/46 66/76/66 65/74/65
f 47/75/47 67/99/67 66/76/66
f 47/53/47 48/54/48 68/77/68
f 49/55/49 69/79/69 68/77/68
f 50/56/50 70/80/70 69/79/69
f 51/58/51 71/82/71 70/80/70
f 52/81/52 72/105/72 71/82/71
f 52/59/52 53/60/53 73/83/73
f 54/61/54 74/85/74 73/83/73
f 55/62/55 75/86/75 74/85/74
f 56/64/56 76/88/76 75/86/75
f 57/87/57 77/111/77 76/88/76
f 57/65/57 58/66/58 78/89/78
f 59/67/59 79/91/79 78/89/78
f 60/68/60 80/92/80 79/91/79
f 41/46/41 61/70/61 80/92/80
f 62/93/62 82/117/82 81/94/81
f 63/71/63 83/96/83 82/95/82
f 64/73/64 84/97/84 83/96/83
f 65/74/65 85/98/85 84/97/84
f 66/76/66 86/100/86 85/98/85
f 67/99/67 87/123/87 86/100/86
f 68/77/68 88/102/88 87/101/87
f 69/79/69 89/103/89 88/102/88
f 70/80/70 90/104/90 89/103/89
f 71/82/71 91/106/91 90/104/90
f 72/105/72 92/129/92 91/106/91
f 73/83/73 93/108/93 92/107/92
f 74/85/74 94/109/94 93/108/93
f 75/86/75 95/110/95 94/109/94
f 76/88/76 96/112/96 95/110/95
f 77/111/77 97/135/97 96/112/96
f 78/89/78 98/114/98 97/113/97
f 79/91/79 99/115/99 98/114/98
f 80/92/80 100/116/100 99/115/99
f 61/70/61 81/94/81 100/116/100
f 82/117/82 102/141/102 101/118/101
f 83/96/83 103/120/103 102/119/102
f 84/97/84 104/122/104 103/120/103
f 84/97/84 85/98/85 105/121/105
f 86/100/86 106/124/106 105/121/105
f 87/123/87 107/147/107 106/124/106
f 88/102/88 108/126/108 107/125/107
f 89/103/89 109/128/109 108/126/108
f 89/103/89 90/104/90 110/127/110
f 91/106/91 111/130/111 110/127/110
f 92/129/92 112/153/112 111/130/111
f 93/108/93 113/132/113 112/131/112
f 94/109/94 114/134/114 113/132/113
f 94/109/94 95/110/95 115/133/115
f 96/112/96 116/136/116 115/133/115
f 97/135/97 117/159/117 116/136/116
f 98/114/98 118/138/118 117/137/117
f 99/115/99 119/140/119 118/138/118
f 99/115/99 100/116/100 120/139/120
f 81/94/81 101/118/101 120/139/120
f 102/141/102 122/165/122 121/142/121
f 103/120/103 123/144/123 122/143/122
f 104/122/104 124/145/124 123/144/123
f 105/121/105 125/146/125 124/145/124
f 106/124/106 126/148/126 125/146/125
f 107/147/107 127/171/127 126/148/126
f 108/126/108 128/150/128 127/149/127
f 109/128/109 129/151/129 128/150/128
f 110/127/110 130/152/130 129/151/129
f 111/130/111 131/154/131 130/152/130
f 112/153/112 132/177/132 131/154/131
f 113/132/113 133/156/133 132/155/132
f 114/134/114 134/157/134 133/156/133
f 115/133/115 135/158/135 134/157/134
f 116/136/116 136/160/136 135/158/135
f 117/159/117 137/183/137 136/160/136
f 118/138/118 138/162/138 137/161/137
f 119/140/119 139/163/139 138/162/138
f 120/139/120 140/164/140 139/163/139
f 101/118/101 121/142/121 140/164/140
f 122/165/122 142/189/142 141/166/141
f 123/144/123 143/168/143 142/167/142
f 124/145/124 144/169/144 143/168/143
f 125/146/125 145/170/145 144/169/144
f 126/148/126 146/172/146 145/170/145
f 127/171/127 147/195/147 146/172/146
f 128/150/128 148/174/148 147/173/147
f 129/151/129 149/175/149 148/174/148
f 130/152/130 150/176/150 149/175/149
f 131/154/131 151/178/151 150/176/150
f 132/177/132 152/201/152 151/178/151
f 133/156/133 153/180/153 152/179/152
f 134/157/134 154/181/154 153/180/153
f 135/158/135 155/182/155 154/181/154
f 136/160/136 156/184/156 155/182/155
f 137/183/137 157/207/157 156/184/156
f 138/162/138 158/186/158 157/185/157
f 139/163/139 159/187/159 158/186/158
f 140/164/140 160/188/160 159/187/159
f 121/142/121 141/166/141 160/188/160
f 142/189/142 162/213/162 161/190/161
f 142/167/142 143/168/143 163/191/163
f 144/169/144 164/193/164 163/191/163
f 145/170/145 165/194/165 164/193/164
f 146/172/146 166/196/166 165/194/165
f 147/195/147 167/219/167 166/196/166
f 147/173/147 148/174/148 168/197/168
f 149/175/149 169/199/169 168/197/168
f 150/176/150 170/200/170 169/199/169
f 151/178/151 171/202/171 170/200/170
f 152/201/152 172/225/172 171/202/171
f 152/179/152 153/180/153 173/203/173
f 154/181/154 174/205/174 173/203/173
f 155/182/155 175/206/175 174/205/174
f 156/184/156 176/208/176 175/206/175
f 157/207/157 177/231/177 176/208/176
f 157/185/157 158/186/158 178/209/178
f 159/187/159 179/211/179 178/209/178
f 160/188/160 180/212/180 179/211/179
f 141/166/141 161/190/161 180/212/180
f 162/213/162 182/237/182 181/214/181
f 163/191/163 183/216/183 182/215/182
f 164/193/164 184/217/184 183/216/183
f 165/194/165 185/218/185 184/217/184
f 166/196/166 186/220/186 185/218/185
f 167/219/167 187/240/187 186/220/186
f 168/197/168 188/222/188 187/221/187
f 169/199/169 189/223/189 188/222/188
f 170/200/170 190/224/190 189/223/189
f 171/202/171 191/226/191 190/224/190
f 172/225/172 192/242/192 191/226/191
f 173/203/173 193/228/193 192/227/192
f 174/205/174 194/229/194 193/228/193
f 175/206/175 195/230/195 194/229/194
f 176/208/176 196/232/196 195/230/195
f 177/231/177 197/244/197 196/232/196
f 178/209/178 198/234/198 197/233/197
f 179/211/179 199/235/199 198/234/198
f 180/212/180 200/236/200 199/235/199
f 161/190/161 181/214/181 200/236/200
f 1/247/1 20/248/20 19/249/19
f 19/249/19 18/250/18 17/251/17
f 17/251/17 16/252/16 15/253/15
f 15/253/15 14/254/14 13/245/13
f 13/245/13 12/255/12 11/256/11
f 11/256/11 10/257/10 9/258/9
f 9/258/9 8/259/8 7/260/7
f 7/260/7 6/261/6 5/246/5
f 5/246/5 4/262/4 3/263/3
f 3/263/3 2/264/2 1/247/1
f 1/247/1 19/249/19 17/251/17
f 17/251/17 15/253/15 13/245/13
f 13/245/13 11/256/11 9/258/9
f 9/258/9 7/260/7 5/246/5
f 5/246/5 3/263/3 1/247/1
f 1/247/1 17/251/17 13/245/13
f 13/245/13 9/258/9 5/246/5
