# 9M723 Iskander - aus ISKANDER.stl (Shapr3D) herausgeschnittene Rakete des TEL.
# 1 Einheit = 1 Block: 6,35 hoch, Rumpf 1,0 dick, Leitwerk 2,7 Spannweite - also
# maszstabsgetreu zum Vorbild (7,3 m lang, 0,92 m Durchmesser).
mtllib missile_default.mtl
o Missile
usemtl default
v 0.291000 0.239700 0.262400
v 0.242200 0.183500 0.307200
v 0.356300 0.184500 0.185100
v 0.092100 3.181400 0.344100
v 0.111400 3.068100 0.351700
v 0.261700 3.068000 0.268900
v 0.182200 3.922000 0.237900
v 0.150700 -0.141400 -0.190100
v 0.150700 0.181900 -0.190100
v 0.150700 0.181900 0.490200
v 0.452400 3.027700 -0.191800
v 0.427400 2.977600 -0.254500
v 0.379900 3.045400 -0.314700
v -0.037300 5.906700 -0.178000
v 0.005300 6.166500 -0.087400
v 0.065600 5.910300 -0.157200
v -0.486300 0.400900 0.440100
v -0.496900 0.401900 0.436000
v -0.487500 0.096700 0.440800
v -0.289600 0.189200 -0.379200
v -0.287100 2.278500 -0.351300
v -0.151800 2.314000 -0.427600
v 0.467100 0.411400 -0.522300
v 0.464400 0.407200 -0.529100
v 0.459700 0.402200 -0.536200
v 0.097300 5.657500 -0.197100
v -0.384600 2.933700 -0.297000
v -0.470500 2.935500 -0.042600
v -0.443200 2.947200 -0.222800
v 0.470800 0.398700 0.415500
v 0.468900 0.403200 0.429600
v 0.471600 0.098000 0.420100
v 0.377200 2.308400 0.140400
v 0.297700 2.274300 0.261900
v 0.108100 1.756300 0.740800
v 0.069900 -0.012000 0.773200
v 0.191200 -0.012000 0.651900
v -0.131900 1.760500 0.733000
v -0.132100 1.762200 0.822000
v -0.132100 1.785500 0.732200
v -0.233000 5.618800 0.029400
v -0.227200 5.597100 -0.064200
v -0.320700 3.956000 -0.079600
v -0.410500 3.068100 -0.030500
v -0.385100 3.068000 -0.160800
v -0.378900 3.064900 -0.309500
v 0.110400 2.041100 0.905700
v -0.132100 2.087400 0.857900
v -0.132100 1.935100 0.951800
v 0.098200 2.020500 0.665000
v 0.097800 2.070600 0.764900
v 0.098100 1.918200 0.631200
v 0.108200 1.988200 0.644800
v 0.110500 1.896300 0.637000
v 0.110700 2.059600 0.720000
v 0.185500 5.757100 0.071900
v 0.136800 6.016900 0.002200
v 0.113800 5.913200 0.124300
v 0.331600 0.311200 -0.161700
v 0.066100 0.311200 0.299400
v -0.362800 0.311200 0.007200
v 0.058400 1.779200 0.860100
v 0.017300 1.765100 0.826900
v 0.110400 1.770100 0.841600
v -0.500700 0.402700 -0.529900
v -0.498900 0.405800 -0.529500
v -0.496100 0.402600 -0.533700
v -0.343100 0.187000 -0.172100
v -0.346500 0.311200 -0.161800
v -0.364400 0.186000 -0.024600
v -0.132100 1.943300 0.924800
v -0.115900 2.024700 0.888900
v -0.115900 1.887000 0.922300
v 0.465100 0.401100 -0.532300
v 0.469000 0.403600 -0.524400
v 0.464900 0.093900 -0.534500
v -0.326100 0.874900 -0.334500
v -0.315200 0.900200 -0.345500
v -0.504300 0.402500 -0.525300
v -0.315800 2.945500 -0.393800
v -0.381300 2.976300 -0.352900
v 0.462700 0.405000 -0.532300
v 0.462700 0.405100 -0.532300
v 0.463200 0.405300 -0.531700
v -0.496300 0.404700 0.435100
v -0.497800 0.405200 0.433200
v -0.497300 0.405000 0.433800
v -0.014300 3.054500 -0.507400
v -0.071700 3.024600 -0.521700
v -0.148900 3.062200 -0.479300
v 0.387000 3.068000 -0.023400
v 0.373100 3.068000 0.086100
v 0.413100 3.066700 0.118900
v -0.166200 5.767600 0.134600
v -0.176700 5.914400 0.058000
v -0.115900 1.787000 0.827500
v -0.132100 1.801600 0.863900
v -0.091800 1.756400 0.773100
v 0.043100 2.316700 -0.448600
v 0.159300 2.330200 -0.414100
v 0.232600 0.189500 -0.411200
v -0.204400 2.928700 0.355200
v -0.096700 2.937300 0.414600
v -0.241200 2.951500 0.380100
v -0.465700 3.063600 0.046700
v -0.464300 3.055500 -0.165600
v -0.069800 3.897400 -0.333500
v -0.178800 3.980900 -0.283000
v -0.031300 5.589800 -0.228500
v 0.208200 3.068100 -0.355200
v 0.108000 3.063000 -0.481800
v 0.134000 3.068000 -0.392800
v 0.110400 1.913100 0.947700
v 0.075000 2.929800 -0.420300
v 0.457100 0.404600 0.437300
v 0.454500 0.097200 0.439000
v 0.464800 0.402100 0.434000
v 0.291800 3.999800 0.069200
v 0.218000 5.504500 -0.010400
v -0.198500 5.512900 0.127200
v -0.319600 3.929800 0.063500
v 0.069900 3.221200 0.773200
v -0.091800 3.221200 0.773200
v -0.128100 2.097000 0.742700
v 0.297800 3.064300 0.303100
v 0.383100 3.040000 0.247300
v -0.384600 3.033100 0.279000
v -0.445000 2.986200 0.192600
v -0.382200 2.964300 0.276200
v -1.344600 0.796200 0.490200
v -0.607700 0.796700 0.490200
v -0.607700 -0.012000 0.490200
v 0.095700 5.656200 0.190800
v 0.144100 5.587900 0.161300
v 0.238000 2.958300 -0.446000
v 0.137000 2.935000 -0.467000
v 0.140300 2.975300 -0.499000
v -0.328900 0.185200 0.111600
v -0.434700 0.185700 0.048400
v 0.301900 3.971700 -0.063300
v 0.470700 0.100300 0.415500
v -0.144100 2.929800 -0.403600
v -0.108100 2.933900 -0.477400
v -0.011100 6.349400 0.006200
v -0.099300 6.049100 0.103300
v -0.021400 6.232200 0.061300
v 0.108600 3.050200 0.425700
v 0.234300 3.047100 0.374200
v 0.092800 3.066000 0.409900
v 0.376600 3.068000 -0.116500
v 0.399400 3.065500 -0.237100
v 0.098100 1.962700 0.638500
v 0.277000 0.875500 -0.361100
v -0.313000 0.872800 0.264300
v -0.500300 0.412100 0.424600
v -0.506700 0.095000 -0.524200
v -0.504500 0.398400 -0.513100
v 0.462900 0.404600 -0.532500
v 0.462700 0.404900 -0.532300
v -0.475500 2.966000 -0.174100
v -0.496000 2.972600 -0.080400
v -0.116100 2.079800 0.758600
v -0.116000 1.785100 0.735000
v -0.404000 2.311600 0.128000
v -0.409300 2.929800 0.049100
v -0.434600 2.297900 -0.041100
v 0.601500 1.281200 0.490200
v 1.155400 1.281200 0.490200
v 1.016900 1.159900 0.490200
v 0.410200 2.325300 -0.015300
v 0.360300 2.929800 -0.188300
v 0.388000 2.929800 0.025600
v -0.487700 3.022700 -0.147400
v 0.195800 5.740500 -0.039700
v -0.061800 5.544600 0.218800
v -0.137500 5.534700 0.186500
v -0.126200 3.927200 0.281600
v 0.447600 0.398200 -0.536800
v 0.292600 0.241100 -0.355100
v -0.132100 1.810400 0.905300
v -0.137700 2.968400 0.434100
v -0.037100 2.970900 0.450400
v -0.113300 3.029200 0.442400
v -0.500800 0.095200 0.431500
v -0.501200 0.095200 0.431200
v -0.505000 0.097800 0.420800
v -0.193200 3.058900 0.395900
v -0.090100 3.061000 0.423800
v -0.132100 2.052700 0.858400
v -0.304000 2.929800 -0.304300
v 0.443900 3.021400 0.144500
v 0.401500 2.968800 0.222100
v 0.443700 2.966900 0.133900
v -0.348600 2.935500 0.269100
v -0.275800 2.974400 0.376000
v -0.078000 5.812400 0.185300
v -0.013600 6.081500 0.124600
v 0.140900 5.709700 -0.154300
v 0.280200 3.068200 -0.283700
v 0.143500 5.429500 -0.174500
v 0.258900 0.183900 0.189400
v -0.203600 2.974000 -0.483400
v -0.120600 2.969700 -0.509500
v 0.468400 0.406300 -0.511800
v -0.084600 6.191800 0.027400
v 0.336700 3.068000 -0.220500
v -0.500300 0.095200 0.432400
v -0.499600 0.095000 0.433500
v -0.499800 0.401400 0.433000
v 0.011100 3.029700 0.452000
v -0.213100 -0.012000 0.490200
v -0.172600 0.181900 0.490200
v -0.172600 -0.141400 0.490200
v 0.129100 3.893300 -0.305100
v 0.062000 5.441200 -0.220600
v -0.115900 2.045200 0.684300
v -0.115900 2.045200 0.684300
v -0.129700 2.030100 0.664400
v -0.227300 3.024300 -0.473400
v 0.194000 5.612400 -0.093600
v 0.179300 2.965700 0.411000
v 0.139600 3.023300 0.430000
v 0.068100 2.973100 0.445800
v 0.133300 5.903800 -0.102900
v 0.460900 0.409200 0.433000
v 0.285200 0.857300 0.270000
v 0.070300 0.183200 0.298500
v 0.063600 0.182800 0.381700
v -0.249700 0.311200 -0.312900
v -0.035600 0.311200 -0.407200
v 0.186500 0.311200 -0.342600
v -0.425000 0.187600 -0.203800
v -0.216100 0.188600 -0.343300
v -0.481400 0.408300 -0.534900
v -0.483800 0.099600 -0.536300
v 0.294900 0.876500 -0.344300
v -0.213100 3.221200 0.490200
v 0.191200 3.221200 0.490200
v 0.092100 3.180700 0.490200
v -0.046700 1.765300 0.829500
v -0.082000 1.781400 0.863300
v 0.047700 0.190000 -0.477700
v 0.191200 -0.012000 0.490200
v 0.191200 3.221200 0.651900
v 0.340200 2.951000 0.282000
v 0.320400 2.970800 0.322900
v 0.272000 2.933100 0.318700
v -0.302800 0.880700 -0.357500
v -0.386100 2.333600 -0.223700
v -0.139000 6.030700 -0.055800
v -0.212900 5.786700 -0.025800
v -0.117500 6.124700 -0.016200
v -0.310700 3.058700 0.320600
v -0.408100 3.065800 0.190700
v 0.200000 0.311200 0.234600
v -0.315900 3.068000 -0.281300
v -0.239300 3.068000 -0.348600
v 0.315700 0.311200 0.095400
v 0.451400 0.098300 -0.537500
v 0.451500 0.098300 -0.537500
v 0.110400 1.821600 0.910800
v 0.106200 1.858300 0.897500
v 0.303100 0.854700 0.252000
v -0.493800 0.408900 -0.532300
v 0.471600 0.097200 0.422100
v -0.131800 2.073600 0.742800
v 0.290400 2.929800 0.254700
v -0.329700 0.873100 0.246800
v 0.066200 3.028200 -0.516200
v 0.011600 2.968400 -0.521200
v 0.245900 3.958900 0.167700
v 0.092100 3.059500 0.490200
v 0.446300 0.406200 0.436500
v -0.321000 2.265700 -0.322300
v -0.497600 0.405400 0.433200
v -0.039500 3.068000 -0.419300
v 0.085000 3.068200 -0.406400
v 0.197800 5.497600 0.094400
v -0.246400 2.945200 -0.441700
v -1.096300 1.281200 0.490200
v -0.607700 1.281200 0.490200
v -1.021300 1.159900 0.490200
v 0.463700 0.406400 0.432400
v -0.443300 3.040500 0.177500
v -0.500300 0.095000 0.432400
v -0.500700 0.095200 0.432100
v 0.457700 3.044200 0.067100
v 0.476500 3.030500 -0.045500
v 0.456400 3.058500 -0.079100
v -0.221100 3.068000 0.315000
v -0.438100 2.977300 -0.270700
v -0.435300 3.028500 -0.276000
v -0.213100 3.221200 0.651900
v 0.106100 2.097200 0.741100
v -0.192400 5.704000 -0.120800
v -0.296100 2.985400 -0.432700
v -0.330000 2.248700 0.251200
v -0.349400 0.183200 0.226200
v -0.486400 3.024500 0.080900
v -0.491700 2.981300 0.057400
v -0.495700 3.037500 -0.029300
v 0.267600 2.297100 -0.347200
v 0.076300 2.929800 0.368500
v 0.044200 2.934600 0.419500
v -0.500800 0.404400 -0.529000
v -0.502400 0.403500 0.428000
v -0.324600 0.244700 0.250600
v -0.499500 0.405400 -0.529200
v 0.267000 3.062500 -0.402200
v -0.091800 -0.012000 0.773200
v -0.497900 0.095100 0.434600
v -0.500800 0.095200 0.431600
v -0.495000 0.095000 0.437600
v -0.126700 1.912900 0.622900
v -0.116000 1.815700 0.675400
v -0.500800 0.095100 0.431600
v -0.495800 0.095000 0.437100
v 0.447700 0.100200 -0.536800
v 0.297600 2.936200 -0.370000
v -0.499500 0.094900 0.433500
v -0.499500 0.095000 0.433600
v -0.499500 0.095000 0.433500
v -0.332900 0.853500 0.243200
v -0.332900 0.853500 0.243100
v -0.503300 0.406700 0.416200
v -0.332900 0.853600 0.243100
v -0.497600 0.094800 0.435700
v -0.496800 0.094800 0.436400
v -0.496500 0.095000 0.436500
v -0.496600 0.094900 0.436500
v -0.333100 0.850600 0.242900
v -0.355100 3.068000 -0.221900
v -0.286200 4.009600 -0.164100
v -0.498500 0.407000 0.431000
v -0.346800 2.413600 0.210700
v -0.496400 0.094800 0.436800
v -0.314300 0.246300 -0.355100
v -0.607700 1.157700 0.490200
v -0.217900 0.183600 0.240400
v -0.132100 2.047300 0.685700
v -0.091800 3.059500 0.490200
v 0.249500 2.929800 -0.330900
v 0.272600 2.985500 -0.434200
v 0.364300 2.963800 -0.342400
v -0.090200 3.180600 0.360200
v -0.115900 2.045100 0.684300
v 0.316700 3.031700 0.325700
v 0.241500 3.008500 0.386300
v 0.105000 1.790400 0.816500
v 0.102000 1.790800 0.737300
v -0.091800 3.180700 0.490200
v 0.247200 0.188200 -0.300800
v 0.392600 2.931900 -0.229300
v 0.463500 0.403800 -0.532400
v 0.462800 0.404900 -0.532300
v -0.395600 2.929800 -0.139900
v -0.004400 2.301400 0.391800
v -0.189000 0.183100 0.356400
v 0.426100 0.186200 -0.011700
v 0.373100 2.336300 -0.203100
v 0.275200 3.928800 -0.160300
v -0.382600 3.068000 0.126800
v -0.051700 6.222700 -0.050000
v -0.117900 5.934400 -0.133400
v 0.471300 0.095300 0.426600
v -0.464300 2.954200 0.115500
v -0.303200 2.264600 0.280000
v 0.034900 5.505300 0.221400
v 0.463600 0.405700 -0.530900
v 0.463500 0.405400 -0.531300
v 0.466600 2.975700 -0.133000
v -0.128400 2.314900 0.376200
v 0.143600 2.296300 0.364000
v -0.115700 1.991400 0.637200
v 0.024800 6.284800 0.003900
v 0.088700 6.105900 0.056800
v -0.338200 3.029300 -0.398100
v 0.105000 1.837600 0.664700
v -0.269100 3.058000 -0.424100
v -0.372300 3.046400 -0.348700
v 0.006500 0.189100 -0.404200
v -0.144200 0.189900 -0.463500
v 0.082900 6.085300 -0.076400
v 0.601500 1.157700 0.490200
v -0.240700 3.990800 0.200100
v 0.345600 0.186100 -0.058000
v 0.008800 5.768700 0.205100
v 0.046400 6.042400 0.125100
v 0.601500 -0.012000 0.490200
v 0.601500 0.796700 0.490200
v 1.340400 0.796200 0.490200
v -0.137700 5.581100 -0.191200
v -0.247600 3.986200 -0.223600
v 0.474100 2.965500 -0.023300
v 0.359400 0.188400 -0.283100
v 0.307100 2.266300 -0.314900
v -0.146200 0.311200 0.281800
v -0.289500 0.311200 0.170900
v -0.274900 3.024100 0.377700
v -0.222500 2.929800 0.320900
v -0.430200 2.927700 0.080800
v 0.471600 2.993800 0.056400
v 0.361400 3.019300 -0.351900
v 0.047600 1.856700 0.929600
v 0.070800 1.806700 0.894500
v -0.119100 3.068000 0.360300
v -0.172600 0.181900 -0.190100
v -0.172600 -0.141400 -0.190100
v -0.091800 0.183200 0.295400
v 0.471600 0.098000 0.420000
v 0.395900 2.933400 0.158000
v 0.433300 2.933000 0.047000
v -0.215500 2.409900 0.330100
v -0.319300 3.068000 0.229900
v -0.038600 1.877100 0.937500
v -0.092400 1.818800 0.906900
v -0.132300 1.830100 0.659500
v 0.110400 2.099900 0.802400
v -0.115800 2.045100 0.684400
v 0.342400 3.068000 0.161900
v 0.011000 2.936600 -0.491100
v 0.011300 1.103700 1.484000
v 0.465000 0.405700 0.431500
v 0.464900 0.405700 0.431500
v 0.465300 0.405300 0.431400
v 0.098100 1.962500 0.638400
v 0.098100 1.965400 0.639600
v 0.107100 2.054100 0.842000
v 0.103400 1.967500 0.910300
v 0.026600 6.232500 -0.043500
v 0.454600 2.944700 -0.085100
v 0.423300 3.050300 0.159300
v 0.468900 0.101600 -0.512400
v -0.178000 3.068000 -0.387200
v 0.285500 3.030200 -0.422100
v 0.178300 3.036100 -0.483200
v 0.452200 0.097900 -0.537700
v 0.454300 0.097100 -0.537700
v 0.463600 0.405600 -0.530900
v 0.462800 0.404800 -0.532200
v 0.464900 0.405600 0.431600
v 0.471500 0.098300 0.419400
v 0.150700 -0.141400 0.490200
v -0.213100 -0.012000 0.651900
vn 0.7217 -0.0560 0.6899
vn 0.4128 -0.6718 0.6151
vn 0.6436 -0.6692 0.3713
vn 0.5334 0.3432 0.7731
vn 0.5542 0.6792 0.4812
vn 0.4222 0.7592 0.4953
vn 0.3569 0.0520 0.9327
vn 0.5774 -0.5773 -0.5774
vn 0.5774 0.5774 -0.5773
vn 0.3012 0.3012 -0.9047
vn 0.8948 0.3322 -0.2982
vn 0.8547 -0.2951 -0.4270
vn 0.6812 0.5581 -0.4739
vn -0.1239 0.2420 -0.9623
vn 0.1359 0.3900 -0.9108
vn 0.4053 0.2520 -0.8788
vn 0.1680 0.1380 0.9761
vn -0.5501 0.1900 0.8132
vn 0.3127 -0.6851 0.6579
vn -0.4717 -0.6688 -0.5746
vn -0.6121 0.0510 -0.7891
vn -0.3092 0.0287 -0.9506
vn 0.8587 0.4018 -0.3179
vn 0.3180 0.7421 -0.5901
vn 0.3229 0.2460 -0.9139
vn 0.4239 0.1139 -0.8985
vn -0.4054 -0.8686 -0.2848
vn -0.5290 -0.8486 0.0011
vn -0.6256 -0.7333 -0.2663
vn 0.9416 0.0950 -0.3230
vn 0.8741 0.2440 0.4200
vn 0.7291 -0.6060 -0.3180
vn 0.9223 0.0150 0.3861
vn 0.7088 0.0088 0.7054
vn 0.9747 -0.2199 -0.0410
vn 0.2269 0.8038 0.5499
vn 0.5499 0.8038 0.2269
vn -0.8246 -0.1331 0.5498
vn -0.6639 -0.7159 0.2161
vn -0.3700 0.5931 0.7151
vn -0.9799 0.0940 0.1761
vn -0.9632 0.0750 -0.2581
vn -0.9931 0.0667 -0.0963
vn -0.6725 0.7399 -0.0170
vn -0.6594 0.7213 -0.2121
vn -0.4111 0.8752 -0.2550
vn 0.6880 0.4440 0.5740
vn -0.6273 0.6729 0.3921
vn -0.6350 0.0768 0.7687
vn 0.4121 -0.6372 0.6513
vn 0.3670 -0.9288 -0.0520
vn 0.4860 0.0071 0.8740
vn -0.5019 -0.3589 0.7869
vn -0.6217 0.2798 0.7316
vn 0.3091 -0.3881 0.8682
vn 0.9232 0.1583 0.3503
vn 0.9531 0.3026 0.0118
vn 0.6850 0.2432 0.6868
vn -0.7452 -0.6191 0.2479
vn -0.1660 -0.6519 -0.7399
vn 0.7409 -0.6619 -0.1140
vn 0.5038 -0.8576 0.1030
vn 0.1459 -0.9687 -0.2009
vn 0.7219 -0.6507 0.2356
vn -0.6821 0.1980 -0.7039
vn -0.5521 0.8221 -0.1390
vn -0.4031 0.1590 -0.9012
vn 0.6021 -0.7630 0.2350
vn 0.7073 -0.6630 0.2453
vn 0.6595 -0.7510 -0.0327
vn -0.9252 -0.0700 -0.3731
vn -0.4579 -0.5119 -0.7268
vn -0.3362 0.3188 -0.8862
vn 0.7521 0.1530 -0.6411
vn 0.9530 0.1620 -0.2560
vn 0.4482 -0.8082 -0.3821
vn -0.9301 0.1530 -0.3339
vn -0.7050 0.1080 -0.7010
vn -0.9221 0.2330 -0.3090
vn -0.4300 -0.7360 -0.5228
vn -0.7390 -0.2750 -0.6150
vn 0.9638 0.2649 -0.0300
vn 0.8025 0.5384 0.2573
vn 0.3989 0.6549 -0.6419
vn -0.5180 0.4040 0.7540
vn -0.7722 0.4591 -0.4392
vn -0.8331 -0.0570 0.5501
vn 0.0030 0.7431 -0.6691
vn -0.1289 0.2538 -0.9586
vn -0.1689 0.8247 -0.5398
vn 0.6779 0.7352 0.0008
vn 0.6337 0.7558 0.1649
vn 0.3231 0.9402 0.1080
vn -0.7531 0.1521 0.6401
vn -0.9158 0.2577 0.3079
vn -0.4880 0.8530 -0.1850
vn -0.9318 0.2731 -0.2390
vn -0.2079 -0.7766 0.5947
vn 0.0890 0.0239 -0.9957
vn 0.4170 0.0340 -0.9083
vn 0.3939 -0.6559 -0.6439
vn -0.3950 -0.6580 0.6411
vn -0.0901 -0.8542 0.5121
vn -0.3469 -0.6818 0.6440
vn -0.4971 0.8631 0.0890
vn -0.5906 0.7869 -0.1791
vn -0.4629 0.0799 -0.8828
vn -0.0242 0.0663 -0.9975
vn -0.0781 0.1072 -0.9912
vn 0.3959 0.7309 -0.5559
vn 0.1211 0.8682 -0.4812
vn 0.2510 0.7341 -0.6310
vn 0.6992 -0.0073 0.7149
vn 0.1370 -0.7249 -0.6751
vn 0.2140 0.2060 0.9549
vn -0.1880 -0.7079 0.6808
vn 0.5798 0.1710 0.7967
vn 0.9771 0.0640 0.2030
vn 0.9978 0.0654 -0.0046
vn -0.8287 0.0649 0.5559
vn -0.9752 0.0671 0.2110
vn 0.2919 0.6251 0.7239
vn -0.2918 0.6251 0.7239
vn -0.4431 0.3571 0.8223
vn 0.3038 0.8938 0.3299
vn 0.7161 0.4767 0.5099
vn -0.7029 0.3687 0.6083
vn -0.8671 -0.1889 0.4610
vn -0.6892 -0.4271 0.5853
vn 0.2100 0.0940 -0.9732
vn 0.5770 0.5780 -0.5770
vn 0.3030 0.3079 -0.9019
vn 0.4750 0.1191 0.8719
vn 0.7128 0.0805 0.6967
vn 0.4200 -0.5500 -0.7219
vn 0.1529 -0.8736 -0.4620
vn 0.2881 -0.2995 -0.9095
vn 0.5788 -0.7558 -0.3062
vn -0.7390 -0.6571 0.1488
vn 0.9280 0.0689 -0.3661
vn 0.4949 -0.6219 -0.6069
vn -0.2268 -0.7160 -0.6602
vn -0.0922 -0.8968 -0.4327
vn -0.0073 0.9994 0.0333
vn -0.6137 0.3248 0.7196
vn -0.1210 0.4250 0.8971
vn 0.1961 0.6093 0.7683
vn 0.3800 0.6420 0.6659
vn 0.7479 0.4390 0.4979
vn 0.6511 0.7432 -0.1540
vn 0.4180 0.8873 -0.1950
vn 0.8623 -0.2241 0.4542
vn 0.6048 0.1286 -0.7859
vn -0.6014 0.1170 0.7903
vn -0.8418 0.4119 0.3489
vn -0.6641 -0.7471 -0.0280
vn -0.9191 0.0788 0.3862
vn 0.6158 0.5119 -0.5989
vn 0.2930 0.4111 -0.8632
vn -0.8739 -0.4120 -0.2580
vn -0.9465 -0.3138 -0.0750
vn -0.4921 -0.8703 -0.0210
vn -0.6649 0.7300 0.1580
vn -0.9314 0.0227 0.3633
vn -0.7048 -0.6838 -0.1889
vn -0.9991 0.0157 -0.0388
vn -0.5773 0.5774 -0.5774
vn 0.3270 0.7098 -0.6239
vn -0.2370 -0.5320 -0.8129
vn 0.9998 0.0171 0.0073
vn 0.6232 -0.7390 -0.2558
vn 0.6800 -0.7280 0.0871
vn -0.9502 0.2192 -0.2214
vn 0.9713 0.1608 -0.1753
vn -0.2109 0.0701 0.9750
vn -0.5597 0.0700 0.8257
vn -0.3968 0.0582 0.9160
vn -0.3658 0.0870 -0.9266
vn 0.7085 -0.0387 -0.7047
vn -0.6290 -0.5109 0.5859
vn -0.2730 -0.3629 0.8909
vn -0.0530 -0.3539 0.9338
vn -0.2150 0.2791 0.9359
vn -0.1431 -0.9095 -0.3902
vn -0.5164 -0.8246 0.2312
vn -0.6519 -0.6819 -0.3319
vn -0.2369 0.8063 0.5420
vn -0.7051 0.2900 0.6471
vn -0.9142 -0.3591 -0.1880
vn -0.4961 -0.7161 -0.4911
vn 0.9119 0.1840 0.3669
vn 0.7841 -0.3757 0.4940
vn 0.8458 -0.4300 0.3159
vn -0.3441 -0.8829 0.3195
vn -0.5370 -0.3089 0.7850
vn -0.3469 0.1959 0.9172
vn -0.0518 0.3462 0.9367
vn 0.7259 0.1556 -0.6700
vn 0.5030 0.7241 -0.4719
vn 0.4899 0.0579 -0.8698
vn -0.4580 -0.7867 -0.4140
vn -0.3541 -0.3138 -0.8810
vn -0.2181 -0.3639 -0.9055
vn 0.9201 0.1099 0.3760
vn -0.8428 0.4158 0.3418
vn 0.2931 0.4111 -0.8632
vn 0.6159 0.5119 -0.5989
vn 0.5473 0.7667 -0.3357
vn -0.6100 -0.6720 0.4200
vn -0.4359 -0.6309 0.6419
vn -0.7974 0.1511 0.5843
vn 0.0400 0.3570 0.9332
vn -0.3012 0.3012 -0.9047
vn -0.3013 0.3013 -0.9047
vn -0.3030 -0.2861 -0.9090
vn 0.5508 0.0790 -0.8309
vn 0.3481 0.0610 -0.9355
vn -0.3258 0.0522 0.9440
vn -0.1224 0.7259 -0.6768
vn 0.2857 -0.2602 0.9223
vn -0.4160 0.2868 -0.8630
vn 0.9096 0.0832 -0.4071
vn 0.3450 -0.4790 0.8072
vn 0.3121 0.2111 0.9263
vn 0.1610 -0.3111 0.9366
vn 0.8003 0.2519 -0.5441
vn 0.5147 0.4438 0.7336
vn 0.6333 0.1110 0.7659
vn -0.1607 -0.7721 -0.6148
vn 0.1110 -0.6600 0.7431
vn 0.5130 -0.6540 0.5560
vn 0.0590 -0.6351 0.7701
vn -0.3948 -0.6477 0.6517
vn -0.7201 -0.6442 -0.2579
vn 0.3441 -0.7902 0.5072
vn 0.2760 0.1530 -0.9489
vn 0.2701 -0.6952 -0.6662
vn 0.7526 0.1240 -0.6467
vn -0.5774 0.5773 -0.5773
vn 0.5774 0.5774 -0.5774
vn 0.3021 0.3030 -0.9038
vn -0.1830 -0.9793 -0.0870
vn -0.7896 -0.4974 -0.3593
vn 0.1020 -0.6534 -0.7501
vn 0.7171 0.6310 0.2961
vn 0.5487 -0.6996 0.4577
vn 0.6352 -0.3374 0.6948
vn 0.2651 -0.8872 0.3776
vn -0.4540 0.1630 -0.8760
vn -0.8983 0.0299 -0.4383
vn -0.8666 0.3089 -0.3918
vn -0.9735 0.1946 -0.1201
vn -0.9171 0.3719 -0.1433
vn -0.3451 0.8373 0.4241
vn -0.3720 0.9008 0.2238
vn -0.4254 -0.6485 -0.6312
vn -0.4960 0.7521 -0.4340
vn -0.4061 0.7282 -0.5521
vn -0.7211 -0.6320 -0.2840
vn 0.2261 0.5912 -0.7742
vn 0.2280 0.5789 -0.7829
vn 0.6897 -0.4367 0.5776
vn 0.9945 0.0530 -0.0900
vn 0.7971 0.1240 0.5910
vn -0.4301 0.4041 -0.8073
vn 0.6572 -0.7032 -0.2711
vn -0.6131 -0.5680 0.5491
vn 0.5043 -0.7295 0.4621
vn -0.7791 0.1360 0.6120
vn 0.1520 0.2900 -0.9449
vn 0.0448 -0.3698 -0.9280
vn 0.7806 0.0610 0.6221
vn 0.2871 -0.2980 -0.9104
vn -0.3810 0.1190 0.9169
vn -0.7359 0.1214 -0.6661
vn -0.7722 0.4592 -0.4391
vn -0.9292 -0.0331 0.3681
vn -0.0371 0.7341 -0.6780
vn 0.1250 0.7271 -0.6751
vn 0.9162 0.0621 0.3960
vn -0.3591 -0.7381 -0.5711
vn -0.3270 0.7098 -0.6239
vn 0.5774 0.5773 -0.5774
vn 0.2370 -0.5320 -0.8129
vn 0.6070 0.4350 0.6650
vn -0.8008 0.4638 0.3789
vn -0.3152 0.9191 -0.2364
vn -0.6100 -0.6720 0.4199
vn 0.7713 -0.2653 0.5785
vn 0.8060 0.5710 0.1560
vn 0.9547 0.2971 -0.0148
vn 0.5861 0.8073 -0.0692
vn -0.4342 0.6052 0.6672
vn -0.8388 -0.2749 -0.4699
vn -0.8106 0.3668 -0.4564
vn -0.7172 0.6309 0.2961
vn 0.8453 0.3377 0.4140
vn -0.8132 0.1500 -0.5623
vn -0.5611 -0.1970 -0.8039
vn -0.7963 0.0250 0.6043
vn -0.5903 -0.6733 0.4452
vn -0.9270 0.2840 0.2450
vn -0.9523 -0.2651 0.1510
vn -0.9023 0.4311 -0.0020
vn 0.6409 0.0650 -0.7649
vn 0.1698 -0.7057 0.6878
vn 0.0630 -0.8631 0.5011
vn -0.6320 0.5720 -0.5230
vn -0.9243 0.1811 0.3361
vn -0.6551 -0.0460 0.7541
vn -0.0590 -0.5452 -0.8362
vn 0.2790 0.8869 -0.3681
vn -0.2280 0.8041 0.5491
vn -0.6992 -0.2791 0.6582
vn -0.7449 -0.6289 0.2230
vn -0.5163 -0.8246 0.2312
vn -0.1660 -0.8367 0.5218
vn 0.0730 0.1602 0.9844
vn -0.6762 0.5722 0.4641
vn -0.1430 -0.9096 -0.3902
vn -0.4111 -0.7130 0.5680
vn -0.7448 -0.6289 0.2229
vn -0.6402 -0.6582 0.3961
vn -0.3190 -0.7480 0.5820
vn -0.5950 -0.6260 -0.5040
vn 0.3061 -0.8884 -0.3421
vn -0.0990 -0.6961 -0.7111
vn -0.6634 0.6503 0.3702
vn -0.6169 0.5649 0.5480
vn -0.8718 -0.2729 -0.4069
vn -0.7188 0.1259 0.6838
vn -0.9460 0.1280 -0.2980
vn -0.2790 0.0230 -0.9600
vn -0.6169 0.5650 0.5479
vn -0.4821 -0.7122 0.5102
vn -0.6633 0.6504 0.3701
vn -0.1220 -0.9256 0.3583
vn -0.4812 -0.7604 0.4362
vn 0.6322 -0.5582 -0.5373
vn -0.9918 0.0440 0.1200
vn -0.5890 0.7350 -0.3360
vn -0.8678 0.0688 -0.4920
vn -0.6530 0.4810 0.5850
vn -0.7837 0.0572 0.6185
vn -0.4813 -0.7603 0.4362
vn -0.3380 -0.8940 0.2940
vn -0.3381 -0.8940 0.2940
vn -0.7557 -0.0459 -0.6533
vn 0.5760 -0.5790 -0.5770
vn 0.3899 -0.7539 -0.5288
vn 0.6802 -0.6212 0.3891
vn -0.2940 -0.2931 -0.9098
vn 0.4601 -0.6927 -0.5554
vn 0.5777 -0.1690 -0.7986
vn 0.6881 -0.4627 -0.5589
vn -0.4340 0.3840 0.8150
vn -0.5390 0.1881 0.8210
vn -0.2850 -0.8250 -0.4879
vn 0.6380 0.3481 0.6868
vn 0.5119 0.0487 0.8577
vn 0.9918 0.1130 -0.0590
vn 0.9357 0.0689 0.3459
vn -0.3000 0.2960 -0.9069
vn -0.4302 -0.8011 0.4161
vn 0.3978 -0.8999 -0.1788
vn 0.6572 0.3811 -0.6502
vn 0.4853 0.6494 -0.5854
vn -0.6857 -0.6996 -0.2012
vn 0.0248 0.0150 0.9996
vn -0.2849 -0.6528 0.7020
vn 0.7628 -0.6458 0.0328
vn 0.9189 0.0359 -0.3928
vn 0.9227 0.0762 -0.3779
vn -0.6105 0.7585 0.2278
vn -0.5441 0.4509 -0.7075
vn -0.6136 0.2668 -0.7432
vn 0.5549 -0.8058 0.2069
vn -0.7473 -0.6072 0.2701
vn -0.7187 0.1259 0.6838
vn -0.7964 0.0250 0.6042
vn -0.6336 0.0450 0.7723
vn 0.1669 0.0620 0.9840
vn 0.4641 0.5651 -0.6821
vn 0.6262 0.4562 -0.6322
vn 0.9281 -0.3081 -0.2091
vn -0.2962 0.0112 0.9550
vn 0.3767 0.0101 0.9263
vn -0.4729 -0.4689 0.7459
vn 0.8821 0.4710 0.0020
vn 0.7940 0.3730 0.4800
vn -0.6344 0.3158 -0.7056
vn -0.0439 0.7824 0.6212
vn -0.3230 0.8060 -0.4960
vn -0.6370 0.5491 -0.5410
vn -0.0558 -0.7799 0.6235
vn -0.2227 -0.6507 -0.7259
vn 0.7249 0.3590 -0.5879
vn -0.5760 -0.5790 -0.5770
vn -0.7532 0.0570 0.6553
vn -0.6157 -0.7880 -0.0052
vn 0.1198 0.1709 0.9780
vn 0.4091 0.3168 0.8557
vn -0.5329 -0.5370 -0.6539
vn -0.3040 0.3090 -0.9011
vn -0.5770 0.5780 -0.5770
vn -0.2100 0.0940 -0.9732
vn -0.5390 0.0950 -0.8369
vn -0.4371 0.0729 -0.8965
vn 0.9105 -0.4126 0.0272
vn 0.6649 -0.6499 -0.3681
vn 0.7550 0.1059 -0.6471
vn 0.2711 -0.6582 -0.7023
vn 0.5840 -0.6661 -0.4640
vn -0.5129 0.2795 0.8117
vn -0.5380 -0.7430 0.3980
vn -0.6750 -0.7350 0.0640
vn 0.9796 -0.0858 0.1819
vn 0.7409 0.1650 -0.6510
vn 0.3159 -0.0080 0.9488
vn 0.6511 -0.5260 0.5471
vn -0.4948 0.6400 0.5878
vn -0.5774 -0.5773 -0.5774
vn 0.1238 -0.7527 -0.6466
vn -0.9556 0.2309 0.1830
vn 0.3825 -0.9048 0.1872
vn 0.4500 -0.8889 0.0857
vn -0.5530 0.0252 0.8328
vn -0.5059 0.7450 0.4349
vn -0.1340 0.0630 0.9890
vn -0.5269 -0.3729 0.7638
vn 0.5259 0.4529 0.7199
vn 0.6649 0.7311 0.1529
vn 0.5466 0.7427 0.3869
vn 0.5761 0.7465 0.3331
vn 0.0229 -0.8802 -0.4741
vn 0.1489 0.1780 -0.9727
vn -0.4079 -0.9028 -0.1360
vn 0.6521 -0.7140 0.2550
vn 0.5490 0.2140 0.8080
vn 0.6251 -0.1541 0.7652
vn 0.8623 -0.2241 0.4541
vn -1.0000 0.0003 -0.0000
vn 0.6251 -0.1540 0.7652
vn 0.9825 -0.1591 -0.0970
vn 0.9828 -0.0510 -0.1777
vn 0.5978 0.4449 -0.6668
vn 0.6194 -0.7801 -0.0881
vn 0.6560 0.6788 0.3300
vn 0.6136 -0.6605 0.4327
vn -0.2620 0.7461 -0.6121
vn 0.5770 0.3480 -0.7389
vn 0.3739 0.4041 -0.8348
vn 0.2279 0.5789 -0.7829
vn -0.3761 -0.7702 -0.5151
vn -0.1371 -0.7463 -0.6513
vn 0.8025 0.5383 0.2572
vn -0.0000 -0.0000 -0.0000
vn 0.2929 0.4112 -0.8632
vn 0.6321 0.2020 -0.7481
vn 0.4853 0.6495 -0.5854
vn 0.2932 0.4111 -0.8632
vn 0.5138 -0.2559 -0.8188
vn 0.1319 -0.9895 -0.0599
vn 0.6070 0.4349 0.6651
vn 0.4710 0.8209 0.3230
vn 0.5548 -0.8058 0.2070
vn 0.3029 -0.2839 -0.9098
vn -0.5490 0.8041 0.2280
vt 0.570734 0.018122
vt 0.564063 0.010550
vt 0.579692 0.010991
vt 0.735567 0.025377
vt 0.738090 0.010310
vt 0.758368 0.010510
vt 0.748005 0.123994
vt 0.731932 0.824833
vt 0.693269 0.806382
vt 0.731932 0.724811
vt 0.758173 0.892559
vt 0.764944 0.900750
vt 0.755900 0.909355
vt 0.442702 0.070524
vt 0.450068 0.035549
vt 0.456354 0.070543
vt 0.934762 0.499306
vt 0.933374 0.499135
vt 0.943674 0.459912
vt 0.038653 0.375077
vt 0.033597 0.098177
vt 0.051594 0.093875
vt 0.665865 0.965495
vt 0.665973 0.966442
vt 0.665865 0.967544
vt 0.458843 0.104591
vt 0.115837 0.516110
vt 0.133111 0.484916
vt 0.125303 0.507808
vt 0.937801 0.259852
vt 0.935850 0.260050
vt 0.945867 0.220821
vt 0.565639 0.760312
vt 0.559269 0.479084
vt 0.574976 0.482836
vt 0.720483 0.704192
vt 0.714733 0.469345
vt 0.731314 0.469645
vt 0.514037 0.945685
vt 0.502258 0.945124
vt 0.514259 0.942385
vt 0.342616 0.109354
vt 0.354797 0.112769
vt 0.345467 0.330751
vt 0.298436 0.548867
vt 0.306968 0.564291
vt 0.313835 0.582811
vt 0.826183 0.940405
vt 0.794076 0.946143
vt 0.794068 0.925649
vt 0.196794 0.679139
vt 0.183457 0.685649
vt 0.201451 0.665631
vt 0.410425 0.937242
vt 0.408661 0.925205
vt 0.420976 0.946020
vt 0.610963 0.368193
vt 0.618913 0.403408
vt 0.603449 0.389209
vt 0.011033 0.756716
vt 0.041088 0.692782
vt 0.101043 0.726746
vt 0.492769 0.863824
vt 0.498214 0.868196
vt 0.485856 0.866347
vt 0.010329 0.348875
vt 0.010559 0.348456
vt 0.010946 0.348914
vt 0.238898 0.912859
vt 0.222399 0.911605
vt 0.238682 0.893401
vt 0.222070 0.969338
vt 0.224245 0.958910
vt 0.224245 0.976811
vt 0.929429 0.871424
vt 0.930416 0.870916
vt 0.937320 0.911359
vt 0.919676 0.013350
vt 0.921855 0.010310
vt 0.929823 0.082406
vt 0.104592 0.527119
vt 0.114228 0.523330
vt 0.030954 0.988457
vt 0.030942 0.988452
vt 0.030954 0.988368
vt 0.159520 0.347418
vt 0.159785 0.347371
vt 0.159701 0.347391
vt 0.463552 0.873861
vt 0.459537 0.866209
vt 0.465057 0.855963
vt 0.398888 0.515468
vt 0.392660 0.502202
vt 0.396376 0.496423
vt 0.329253 0.088190
vt 0.340560 0.069438
vt 0.199683 0.948714
vt 0.197606 0.961372
vt 0.197448 0.943935
vt 0.518042 0.868679
vt 0.518113 0.880499
vt 0.512729 0.875223
vt 0.077497 0.093206
vt 0.092833 0.090764
vt 0.108033 0.373960
vt 0.107793 0.426614
vt 0.095170 0.416290
vt 0.113272 0.424234
vt 0.288323 0.541346
vt 0.297197 0.568075
vt 0.424614 0.337574
vt 0.410691 0.325279
vt 0.441349 0.112980
vt 0.389856 0.564670
vt 0.382385 0.584725
vt 0.382019 0.572443
vt 0.826320 0.923290
vt 0.080118 0.011667
vt 0.952944 0.715012
vt 0.944021 0.675181
vt 0.953888 0.714479
vt 0.621150 0.134628
vt 0.638447 0.010939
vt 0.623202 0.334920
vt 0.328612 0.122271
vt 0.326326 0.333249
vt 0.621765 0.785117
vt 0.600311 0.784455
vt 0.600311 0.635216
vt 0.333136 0.448785
vt 0.374294 0.477844
vt 0.387422 0.481318
vt 0.134275 0.692782
vt 0.127722 0.704922
vt 0.125216 0.693352
vt 0.285879 0.615496
vt 0.383732 0.615496
vt 0.383571 0.722584
vt 0.736847 0.354387
vt 0.743383 0.345396
vt 0.451045 0.907123
vt 0.447903 0.893702
vt 0.452914 0.894249
vt 0.115238 0.609957
vt 0.109835 0.592063
vt 0.124193 0.599915
vt 0.638832 0.131553
vt 0.668677 0.904836
vt 0.645031 0.887933
vt 0.668677 0.865321
vt 0.052866 0.521285
vt 0.081878 0.524316
vt 0.075436 0.533101
vt 0.723455 0.446969
vt 0.711340 0.406834
vt 0.721861 0.431252
vt 0.345428 0.470010
vt 0.363420 0.471380
vt 0.344030 0.472714
vt 0.401378 0.527653
vt 0.409192 0.541948
vt 0.976632 0.694519
vt 0.975342 0.698787
vt 0.975224 0.691190
vt 0.964294 0.527530
vt 0.964294 0.459416
vt 0.965695 0.525818
vt 0.181410 0.283505
vt 0.160959 0.346497
vt 0.919676 0.121825
vt 0.928121 0.082546
vt 0.923215 0.742395
vt 0.923198 0.742348
vt 0.923204 0.742323
vt 0.126163 0.753832
vt 0.121662 0.736467
vt 0.126426 0.741585
vt 0.413266 0.941213
vt 0.719331 0.949006
vt 0.703798 0.959563
vt 0.693269 0.921920
vt 0.486230 0.879740
vt 0.202813 0.094420
vt 0.214414 0.012797
vt 0.225459 0.096765
vt 0.948752 0.364643
vt 0.948752 0.438195
vt 0.932689 0.419791
vt 0.538781 0.477227
vt 0.515403 0.396795
vt 0.543933 0.396906
vt 0.133414 0.750223
vt 0.625806 0.366523
vt 0.752970 0.899062
vt 0.715821 0.339515
vt 0.705900 0.338306
vt 0.706896 0.124610
vt 0.914650 0.782658
vt 0.922729 0.742652
vt 0.923401 0.742908
vt 0.886090 0.842782
vt 0.908809 0.820041
vt 0.907880 0.903778
vt 0.491445 0.938435
vt 0.485856 0.921773
vt 0.489469 0.920792
vt 0.907817 0.376974
vt 0.907267 0.390254
vt 0.899706 0.380013
vt 0.057928 0.928992
vt 0.057994 0.928988
vt 0.059274 0.929714
vt 0.895838 0.369509
vt 0.895369 0.383078
vt 0.450141 0.948420
vt 0.448076 0.961648
vt 0.447903 0.944384
vt 0.029610 0.011524
vt 0.051002 0.012086
vt 0.757055 0.847990
vt 0.763225 0.837666
vt 0.764329 0.849111
vt 0.124603 0.441293
vt 0.117775 0.425591
vt 0.713825 0.375169
vt 0.722634 0.411060
vt 0.464947 0.097556
vt 0.465236 0.449120
vt 0.463369 0.134831
vt 0.018564 0.585775
vt 0.033077 0.568996
vt 0.031461 0.584712
vt 0.453421 0.848562
vt 0.452464 0.859611
vt 0.907214 0.358856
vt 0.910174 0.363494
vt 0.931977 0.870221
vt 0.930468 0.869832
vt 0.334934 0.050403
vt 0.345914 0.031880
vt 0.400586 0.542417
vt 0.324263 0.925244
vt 0.324415 0.925225
vt 0.324347 0.965752
vt 0.899339 0.396484
vt 0.778987 0.438497
vt 0.784365 0.412816
vt 0.784365 0.455627
vt 0.436051 0.675957
vt 0.432251 0.785939
vt 0.432251 0.469979
vt 0.850387 0.989690
vt 0.460217 0.845484
vt 0.633715 0.349881
vt 0.907268 0.419140
vt 0.899783 0.413640
vt 0.906683 0.404227
vt 0.465236 0.071320
vt 0.953585 0.715511
vt 0.944021 0.778915
vt 0.199742 0.960989
vt 0.055923 0.569282
vt 0.056389 0.558208
vt 0.089599 0.770348
vt 0.062311 0.785177
vt 0.032218 0.779064
vt 0.124193 0.633429
vt 0.107127 0.657387
vt 0.097192 0.652995
vt 0.012885 0.348132
vt 0.013358 0.389023
vt 0.056191 0.908247
vt 0.055785 0.823920
vt 0.079777 0.846248
vt 0.778987 0.010354
vt 0.832674 0.010310
vt 0.819514 0.015684
vt 0.944261 0.187546
vt 0.944261 0.198057
vt 0.943810 0.193581
vt 0.083594 0.375050
vt 0.853293 0.438797
vt 0.874749 0.010310
vt 0.874749 0.438741
vt 0.455754 0.449360
vt 0.450936 0.339191
vt 0.035005 0.423220
vt 0.038634 0.418345
vt 0.044722 0.420049
vt 0.035097 0.283344
vt 0.249301 0.091653
vt 0.260336 0.011906
vt 0.265260 0.097896
vt 0.356175 0.054372
vt 0.350999 0.087300
vt 0.351454 0.041432
vt 0.296729 0.500409
vt 0.308495 0.486109
vt 0.289710 0.520817
vt 0.024086 0.702826
vt 0.320632 0.576693
vt 0.333057 0.582073
vt 0.010310 0.722517
vt 0.913022 0.781736
vt 0.921046 0.742832
vt 0.913035 0.781739
vt 0.159401 0.664427
vt 0.164450 0.652352
vt 0.166175 0.657269
vt 0.396030 0.552704
vt 0.199761 0.923315
vt 0.197448 0.922911
vt 0.199761 0.858051
vt 0.011233 0.348060
vt 0.945631 0.220660
vt 0.514170 0.904256
vt 0.498765 0.906582
vt 0.498990 0.901997
vt 0.665995 0.966813
vt 0.573812 0.395917
vt 0.183872 0.283681
vt 0.459859 0.884518
vt 0.451974 0.877178
vt 0.753500 0.834802
vt 0.761707 0.824771
vt 0.030943 0.967748
vt 0.030942 0.967105
vt 0.030964 0.967120
vt 0.600311 0.345669
vt 0.600311 0.010438
vt 0.608558 0.129077
vt 0.645031 0.925490
vt 0.661091 0.925455
vt 0.660287 0.936108
vt 0.951591 0.715523
vt 0.020103 0.089876
vt 0.029081 0.099673
vt 0.365680 0.983305
vt 0.365691 0.983269
vt 0.365691 0.983876
vt 0.349833 0.594876
vt 0.361184 0.582862
vt 0.376384 0.576159
vt 0.609448 0.333606
vt 0.094388 0.531726
vt 0.076433 0.537589
vt 0.555033 0.905177
vt 0.555086 0.970057
vt 0.538978 0.915136
vt 0.953873 0.715071
vt 0.975090 0.685304
vt 0.976632 0.682335
vt 0.134982 0.706732
vt 0.969423 0.364630
vt 0.969423 0.364656
vt 0.969371 0.364657
vt 0.754586 0.858292
vt 0.757189 0.873042
vt 0.753499 0.877757
vt 0.320373 0.478392
vt 0.308248 0.497503
vt 0.929677 0.870541
vt 0.129324 0.776630
vt 0.128474 0.766252
vt 0.135297 0.766764
vt 0.445948 0.449243
vt 0.112092 0.282518
vt 0.115775 0.366409
vt 0.951492 0.010310
vt 0.952194 0.013376
vt 0.951492 0.163297
vt 0.933371 0.499519
vt 0.638326 0.785977
vt 0.631389 0.636206
vt 0.101099 0.414715
vt 0.362796 0.098601
vt 0.450714 0.833499
vt 0.455302 0.824798
vt 0.455578 0.836231
vt 0.185740 0.101739
vt 0.185544 0.375184
vt 0.132755 0.719968
vt 0.138301 0.724185
vt 0.127076 0.723267
vt 0.134807 0.734606
vt 0.320431 0.118254
vt 0.222070 0.889268
vt 0.107186 0.094191
vt 0.071453 0.418199
vt 0.040785 0.427973
vt 0.076875 0.412299
vt 0.912596 0.653869
vt 0.912596 0.459416
vt 0.912751 0.462734
vt 0.930401 0.082479
vt 0.930341 0.082233
vt 0.160511 0.347656
vt 0.160943 0.388127
vt 0.159822 0.347898
vt 0.921519 0.166707
vt 0.919676 0.142445
vt 0.930335 0.142514
vt 0.055785 0.962010
vt 0.055785 0.929177
vt 0.010480 0.348508
vt 0.159528 0.388415
vt 0.399220 0.568188
vt 0.409959 0.552464
vt 0.260632 0.410364
vt 0.260619 0.644280
vt 0.254954 0.644383
vt 0.620955 0.970736
vt 0.620956 0.971160
vt 0.620954 0.971216
vt 0.620954 0.970313
vt 0.100397 0.944749
vt 0.104872 0.930863
vt 0.111840 0.925333
vt 0.972827 0.071550
vt 0.972894 0.112064
vt 0.972814 0.071550
vt 0.906737 0.978175
vt 0.906723 0.978176
vt 0.906723 0.977345
vt 0.010310 0.966599
vt 0.010323 0.966598
vt 0.010323 0.968336
vt 0.408688 0.967625
vt 0.408698 0.967691
vt 0.408661 0.967748
vt 0.972894 0.071551
vt 0.408692 0.966761
vt 0.408661 0.967194
vt 0.645031 0.965495
vt 0.645246 0.966551
vt 0.645031 0.967639
vt 0.886104 0.978205
vt 0.886090 0.978193
vt 0.886104 0.977345
vt 0.057919 0.928982
vt 0.886090 0.803365
vt 0.025013 0.509418
vt 0.043677 0.525911
vt 0.031068 0.520763
vt 0.929429 0.985178
vt 0.929443 0.985165
vt 0.929443 0.985666
vt 0.506492 0.989098
vt 0.506501 0.989107
vt 0.506492 0.989117
vt 0.972827 0.132683
vt 0.972814 0.173364
vt 0.972814 0.132683
vt 0.184342 0.286315
vt 0.184355 0.286315
vt 0.162088 0.347255
vt 0.826505 0.535605
vt 0.826493 0.535591
vt 0.809493 0.476247
vt 0.184356 0.286302
vt 0.260747 0.966562
vt 0.260681 0.967463
vt 0.260599 0.967220
vt 0.260747 0.968226
vt 0.985516 0.195948
vt 0.985503 0.195949
vt 0.985503 0.195437
vt 0.010310 0.348642
vt 0.814797 0.966926
vt 0.814846 0.966762
vt 0.814846 0.967774
vt 0.984483 0.925975
vt 0.984478 0.926370
vt 0.984468 0.926360
vt 0.985936 0.845998
vt 0.985961 0.845609
vt 0.985950 0.846010
vt 0.575833 0.905182
vt 0.575705 0.945708
vt 0.575820 0.905182
vt 0.386320 0.983823
vt 0.386310 0.983832
vt 0.386310 0.983269
vt 0.985948 0.845596
vt 0.985936 0.845596
vt 0.100397 0.981732
vt 0.100397 0.981047
vt 0.100405 0.981169
vt 0.184378 0.286701
vt 0.365563 0.449306
vt 0.358018 0.449391
vt 0.356768 0.323811
vt 0.408661 0.966640
vt 0.987659 0.326267
vt 0.987652 0.326021
vt 0.987659 0.325955
vt 0.324263 0.986601
vt 0.324307 0.986371
vt 0.324307 0.986655
vt 0.160086 0.347144
vt 0.970573 0.586778
vt 0.970521 0.627427
vt 0.970521 0.586779
vt 0.191545 0.080168
vt 0.324367 0.863825
vt 0.324263 0.904598
vt 0.324263 0.863827
vt 0.324406 0.863851
vt 0.972870 0.010314
vt 0.972814 0.050931
vt 0.972830 0.010340
vt 0.985960 0.845554
vt 0.972814 0.010310
vt 0.942765 0.459481
vt 0.942663 0.459459
vt 0.010310 0.389573
vt 0.963849 0.938364
vt 0.960633 0.937192
vt 0.963849 0.904672
vt 0.943674 0.566159
vt 0.538732 0.970057
vt 0.094451 0.575534
vt 0.111966 0.576754
vt 0.858027 0.913074
vt 0.865471 0.909294
vt 0.850387 0.931246
vt 0.930335 0.166927
vt 0.033381 0.280676
vt 0.103138 0.010310
vt 0.454712 0.911746
vt 0.452618 0.923765
vt 0.619710 0.949683
vt 0.600311 0.949694
vt 0.602451 0.925498
vt 0.209841 0.376043
vt 0.287717 0.552064
vt 0.693271 0.957014
vt 0.693269 0.957001
vt 0.506708 0.867778
vt 0.518113 0.857581
vt 0.897891 0.437527
vt 0.896208 0.426360
vt 0.901349 0.427374
vt 0.177042 0.648391
vt 0.187566 0.648575
vt 0.619710 0.925273
vt 0.176791 0.909431
vt 0.174914 0.934650
vt 0.159401 0.928386
vt 0.015936 0.488776
vt 0.665938 0.988163
vt 0.665938 0.988373
vt 0.665876 0.988211
vt 0.623998 0.010456
vt 0.173718 0.645620
vt 0.239340 0.012826
vt 0.540061 0.010310
vt 0.531598 0.291583
vt 0.506631 0.010516
vt 0.350175 0.449352
vt 0.539897 0.760814
vt 0.513661 0.475560
vt 0.450133 0.963756
vt 0.450062 0.971358
vt 0.650841 0.011549
vt 0.652076 0.126651
vt 0.312092 0.447416
vt 0.633530 0.389051
vt 0.442864 0.027352
vt 0.432164 0.065862
vt 0.929429 0.933111
vt 0.930372 0.931979
vt 0.933128 0.964546
vt 0.123576 0.715411
vt 0.010310 0.928521
vt 0.026341 0.928620
vt 0.010525 0.937306
vt 0.408661 0.889661
vt 0.408661 0.615496
vt 0.409959 0.704069
vt 0.964883 0.195437
vt 0.964883 0.198057
vt 0.964881 0.198044
vt 0.809493 0.719666
vt 0.031980 0.283945
vt 0.181722 0.099289
vt 0.017056 0.504222
vt 0.010954 0.491236
vt 0.055877 0.982629
vt 0.055877 0.983220
vt 0.055785 0.982661
vt 0.728644 0.334274
vt 0.987660 0.305282
vt 0.987652 0.305336
vt 0.987652 0.305021
vt 0.896282 0.409470
vt 0.490733 0.102394
vt 0.489069 0.019048
vt 0.622838 0.806597
vt 0.624412 0.886745
vt 0.600311 0.863795
vt 0.764850 0.884411
vt 0.492368 0.287129
vt 0.515204 0.293466
vt 0.551352 0.290931
vt 0.969423 0.405307
vt 0.104361 0.954675
vt 0.105123 0.515146
vt 0.946400 0.221258
vt 0.617660 0.439865
vt 0.611386 0.415317
vt 0.088357 0.410192
vt 0.137009 0.782057
vt 0.975575 0.674489
vt 0.332407 0.592785
vt 0.316325 0.587419
vt 0.067974 0.662201
vt 0.088269 0.669308
vt 0.629195 0.413382
vt 0.905957 0.438195
vt 0.911077 0.431891
vt 0.570110 0.100099
vt 0.572205 0.288246
vt 0.932398 0.364630
vt 0.285879 0.444198
vt 0.308061 0.323325
vt 0.160501 0.895363
vt 0.176828 0.875500
vt 0.725264 0.369296
vt 0.730593 0.405858
vt 0.324263 0.925217
vt 0.672650 0.614597
vt 0.600311 0.535634
vt 0.672650 0.469345
vt 0.645031 0.944876
vt 0.427144 0.113028
vt 0.401549 0.323510
vt 0.420676 0.095694
vt 0.765651 0.869772
vt 0.503529 0.760107
vt 0.494887 0.668402
vt 0.498493 0.484329
vt 0.113165 0.629637
vt 0.134770 0.958734
vt 0.136707 0.925333
vt 0.136707 0.957448
vt 0.069369 0.692782
vt 0.303259 0.882685
vt 0.285879 0.873338
vt 0.302012 0.863825
vt 0.900619 0.358833
vt 0.730841 0.861542
vt 0.730841 0.883005
vt 0.714737 0.899116
vt 0.176793 0.010310
vt 0.210389 0.013291
vt 0.761437 0.859368
vt 0.819514 0.031733
vt 0.058094 0.375435
vt 0.641450 0.363573
vt 0.949574 0.621202
vt 0.933473 0.644795
vt 0.933371 0.615569
vt 0.766726 0.912688
vt 0.763586 0.925490
vt 0.759406 0.914254
vt 0.159401 0.955270
vt 0.162178 0.962351
vt 0.159401 0.975731
vt 0.493606 0.752585
vt 0.485856 0.758934
vt 0.818188 0.915714
vt 0.821521 0.909233
vt 0.826679 0.911252
vt 0.664825 0.012483
vt 0.673480 0.013366
vt 0.694099 0.010457
vt 0.707460 0.010310
vt 0.345048 0.833523
vt 0.387961 0.743233
vt 0.387961 0.833553
vt 0.452685 0.133189
vt 0.449074 0.010310
vt 0.375350 0.854172
vt 0.375350 0.914826
vt 0.345048 0.884583
vt 0.090027 0.560288
vt 0.303644 0.910848
vt 0.286499 0.889999
vt 0.945880 0.220823
vt 0.024720 0.438097
vt 0.017194 0.451709
vt 0.018023 0.440105
vt 0.059139 0.410192
vt 0.375857 0.474087
vt 0.929478 0.870778
vt 0.503108 0.375297
vt 0.503852 0.306243
vt 0.693820 0.704192
vt 0.693269 0.469409
vt 0.299320 0.512255
vt 0.486898 0.307126
vt 0.794542 0.909233
vt 0.806669 0.918204
vt 0.799785 0.910433
vt 0.485869 0.968479
vt 0.485856 0.968478
vt 0.485869 0.966304
vt 0.506501 0.968477
vt 0.506488 0.968479
vt 0.506501 0.966304
vt 0.865471 0.947497
vt 0.855613 0.941971
vt 0.574059 0.671000
vt 0.461801 0.830667
vt 0.056817 0.928867
vt 0.894224 0.956589
vt 0.886090 0.956091
vt 0.901409 0.924398
vt 0.967033 0.340106
vt 0.967019 0.340103
vt 0.967033 0.305021
vt 0.345061 0.970111
vt 0.345048 0.970124
vt 0.345061 0.935445
vt 0.967030 0.340119
vt 0.238945 0.875138
vt 0.222526 0.867154
vt 0.239979 0.857452
vt 0.752971 0.804121
vt 0.752971 0.467588
vt 0.758368 0.678881
vt 0.769214 0.860513
vt 0.764726 0.829978
vt 0.886090 0.578237
vt 0.891977 0.459416
vt 0.891977 0.782746
vt 0.260599 0.937446
vt 0.263824 0.857452
vt 0.263824 0.945942
vt 0.174588 0.078981
vt 0.368007 0.592909
vt 0.058884 0.535972
vt 0.059565 0.532057
vt 0.159401 0.347794
vt 0.711305 0.025255
vt 0.693269 0.845467
vt 0.465236 0.839923
vt 0.949901 0.591415
vt 0.010310 0.612241
vt 0.021223 0.617978
vt 0.138680 0.775767
vt 0.809493 0.740285
vt 0.826679 0.888462
vt 0.809493 0.888613
vt 0.123429 0.769392
vt 0.100745 0.749290
vt 0.129262 0.441162
vt 0.739533 0.388696
vt 0.495953 0.781434
vt 0.114438 0.282171
vt 0.138781 0.345061
vt 0.349290 0.010310
vt 0.356120 0.027911
vt 0.026341 0.945833
vt 0.011107 0.945978
vt 0.223408 0.931135
vt 0.120995 0.495847
vt 0.021122 0.484188
vt 0.032202 0.505454
vt 0.600311 0.904654
vt 0.138093 0.752317
vt 0.496888 0.939756
vt 0.243179 0.375931
vt 0.286690 0.911519
vt 0.665865 0.988195
vt 0.345048 0.743203
vt 0.911779 0.401263
vt 0.954026 0.714945
vt 0.954013 0.714948
vt 0.954054 0.714885
vt 0.942592 0.459416
vt 0.127279 0.471480
vt 0.976738 0.729609
vt 0.976738 0.742914
vt 0.975090 0.735609
vt 0.025638 0.429586
vt 0.285879 0.523817
vt 0.986316 0.501911
vt 0.986314 0.501882
vt 0.986316 0.501497
vt 0.975223 0.691164
vt 0.895952 0.354209
vt 0.899423 0.344634
vt 0.960633 0.803365
vt 0.965316 0.883617
vt 0.960633 0.884053
vt 0.485856 0.010962
vt 0.865471 0.888675
vt 0.853293 0.698529
vt 0.865471 0.459417
vt 0.186528 0.689132
vt 0.189366 0.684137
vt 0.196039 0.837431
vt 0.197105 0.654846
vt 0.173207 0.683278
vt 0.164309 0.671746
vt 0.365563 0.067347
vt 0.693269 0.899131
vt 0.986314 0.480877
vt 0.986314 0.480463
vt 0.986327 0.480877
vt 0.130755 0.467836
vt 0.178367 0.689370
vt 0.164759 0.681442
vt 0.459786 0.046707
vt 0.453309 0.026526
vt 0.200408 0.671517
vt 0.795094 0.031753
vt 0.035166 0.889757
vt 0.010310 0.907902
vt 0.010310 0.867016
vt 0.714737 0.845452
vt 0.011313 0.468460
vt 0.911779 0.382576
vt 0.768585 0.877967
vt 0.077443 0.568874
vt 0.614100 0.010310
vt 0.396064 0.490838
vt 0.404194 0.501058
vt 0.624243 0.433189
vt 0.617151 0.448726
vt 0.297936 0.445960
vt 0.102160 0.904714
vt 0.100397 0.823108
vt 0.125059 0.846577
vt 0.933128 0.932326
vt 0.020543 0.647916
vt 0.035516 0.649698
vt 0.132459 0.956847
vt 0.940014 0.803365
vt 0.159784 0.347343
vt 0.159401 0.863323
vt 0.923270 0.742514
vt 0.575749 0.946234
vt 0.576128 0.945807
vt 0.332099 0.470578
vt 0.940014 0.909793
vt 0.542581 0.375050
vt 0.187128 0.643946
vt 0.450090 0.842777
vt 0.422964 0.448323
vt 0.342378 0.584451
vt 0.322702 0.592200
vt 0.460732 0.913515
vt 0.461065 0.899372
vt 0.465236 0.911085
vt 0.975090 0.763533
vt 0.975124 0.764228
vt 0.975090 0.764398
vt 0.915231 0.243267
vt 0.895369 0.324014
vt 0.895369 0.220289
vt 0.243497 0.836707
vt 0.222070 0.836833
vt 0.222070 0.409160
vt 0.464748 0.890079
vt 0.285879 0.936727
vt 0.571451 0.375297
vt 0.736483 0.414478
vt 0.962544 0.972096
vt 0.960633 0.961128
vt 0.962544 0.958983
vt 0.439464 0.449018
vt 0.420976 0.910280
vt 0.661060 0.778703
vt 0.661060 0.781569
vt 0.658946 0.779174
vt 0.022591 0.455583
vt 0.136383 0.957855
vt 0.076496 0.982629
vt 0.076501 0.983136
vt 0.076496 0.983247
vt 0.600311 0.970832
vt 0.600335 0.970313
vt 0.600335 0.971209
vt 0.970558 0.648662
vt 0.970521 0.648941
vt 0.970521 0.648046
vt 0.913114 0.781812
vt 0.409959 0.519638
vt 0.136117 0.958122
vt 0.514259 0.901118
vt 0.200421 0.671491
vt 0.030964 0.966598
vt 0.814806 0.988403
vt 0.814797 0.988468
vt 0.814797 0.988393
vt 0.794068 0.966762
vt 0.794178 0.967148
vt 0.794068 0.967720
vt 0.714036 0.980195
vt 0.713911 0.980479
vt 0.714032 0.980182
vt 0.985936 0.824464
vt 0.985948 0.824929
vt 0.985936 0.824935
vt 0.984468 0.905215
vt 0.984468 0.904672
vt 0.984489 0.905200
vt 0.693292 0.980269
vt 0.693269 0.980952
vt 0.693269 0.980182
vt 0.010322 0.988986
vt 0.010310 0.988962
vt 0.010322 0.988956
vt 0.645050 0.988258
vt 0.645065 0.988270
vt 0.645065 0.988410
vt 0.260599 0.988848
vt 0.260617 0.988845
vt 0.260617 0.988890
vt 0.645031 0.988303
vt 0.575711 0.988509
vt 0.575705 0.988497
vt 0.575711 0.988438
vt 0.408661 0.988367
vt 0.408668 0.988380
vt 0.408661 0.988428
vt 0.988391 0.282750
vt 0.988405 0.282737
vt 0.988405 0.282875
vt 0.408685 0.988386
vt 0.313253 0.570787
vt 0.034501 0.805796
vt 0.794068 0.988339
vt 0.794080 0.988392
vt 0.794068 0.988457
vt 0.713992 0.980235
vt 0.986327 0.522530
vt 0.986327 0.522919
vt 0.986314 0.522860
vt 0.713942 0.980260
vt 0.986314 0.459417
vt 0.986345 0.459733
vt 0.986314 0.459843
vt 0.983167 0.980908
vt 0.983163 0.980265
vt 0.983167 0.980253
vt 0.714036 0.980830
vt 0.985948 0.867082
vt 0.985936 0.866642
vt 0.985948 0.866629
vt 0.988410 0.261984
vt 0.988410 0.262118
vt 0.988391 0.262115
vt 0.988391 0.241313
vt 0.988417 0.241162
vt 0.988417 0.241365
vt 0.988391 0.220289
vt 0.988397 0.220483
vt 0.988391 0.220543
vt 0.132459 0.979354
vt 0.132483 0.979564
vt 0.132459 0.980148
vt 0.485856 0.989112
vt 0.485856 0.989099
vt 0.485869 0.989112
vt 0.954471 0.714515
vt 0.285879 0.743203
vt 0.324429 0.761717
vt 0.285879 0.843205
vt 0.930873 0.081667
vt 0.946203 0.674489
vt 0.575705 0.967818
vt 0.575705 0.966854
vt 0.575721 0.967738
vt 0.850403 0.968117
vt 0.850403 0.969071
vt 0.850387 0.968979
vt 0.969376 0.426860
vt 0.969371 0.426872
vt 0.969371 0.425927
vt 0.929703 0.932659
vt 0.929747 0.932591
vt 0.945950 0.220880
vt 0.929937 0.932388
vt 0.396403 0.446246
vt 0.386182 0.445045
vt 0.175580 0.858051
vt 0.448026 0.861170
vt 0.908112 0.956726
vt 0.827296 0.455592
vt 0.827296 0.412780
vt 0.832674 0.438452
vt 0.035188 0.367343
vt 0.371120 0.483650
vt 0.295535 0.527859
vt 0.853293 0.010366
vt 0.752970 0.846295
vt 0.795094 0.015704
vt 0.243497 0.409035
vt 0.038018 0.664273
vt 0.660208 0.943732
vt 0.199659 0.968992
vt 0.385685 0.493878
vt 0.908540 0.345151
vt 0.949901 0.652745
vt 0.505374 0.375046
vt 0.303129 0.928727
vt 0.348751 0.479316
vt 0.465236 0.469979
vt 0.465236 0.804179
vt 0.456671 0.682102
vt 0.239979 0.934895
vt 0.491178 0.859249
vt 0.485954 0.857119
vt 0.089546 0.705886
vt 0.100423 0.981131
vt 0.923190 0.187546
vt 0.923190 0.196316
vt 0.919676 0.191441
vt 0.854516 0.734265
vt 0.983163 0.959634
vt 0.983163 0.958983
vt 0.983189 0.959631
vt 0.411790 0.917145
vt 0.495891 0.395917
vt 0.757710 0.924047
vt 0.062885 0.672162
vt 0.319283 0.487623
vt 0.201451 0.409035
vt 0.770558 0.897367
vt 0.108723 0.958851
vt 0.572556 0.099798
vt 0.261686 0.099961
vt 0.260871 0.283986
vt 0.702314 0.369382
vt 0.287659 0.967669
vt 0.285879 0.972798
vt 0.285879 0.957347
vt 0.368709 0.935445
vt 0.368709 0.962650
vt 0.365680 0.950248
vt 0.946400 0.325114
vt 0.752971 0.969566
vt 0.752971 0.946109
vt 0.755314 0.964431
vt 0.124243 0.760051
vt 0.913364 0.781975
vt 0.447903 0.971539
vt 0.138680 0.704584
vt 0.912596 0.781378
vt 0.912596 0.674489
vt 0.262380 0.367008
vt 0.265260 0.374291
vt 0.130746 0.502212
vt 0.967772 0.284402
vt 0.967019 0.221389
vt 0.967772 0.220289
vt 0.933725 0.586778
vt 0.459876 0.923482
vt 0.111840 0.960428
vt 0.895369 0.010310
vt 0.899057 0.048261
vt 0.895369 0.199670
vt 0.493988 0.479923
vt 0.576128 0.905177
vt 0.658946 0.635692
vt 0.671638 0.635216
vt 0.671638 0.758084
vt 0.289170 0.508572
vt 0.788873 0.790674
vt 0.778987 0.790517
vt 0.788873 0.476247
vt 0.538732 0.781434
vt 0.563482 0.801171
vt 0.538732 0.821684
vt 0.222129 0.955515
vt 0.954010 0.714935
vt 0.985936 0.803823
vt 0.985967 0.803365
vt 0.985967 0.803845
vt 0.109345 0.431526
vt 0.136127 0.464111
vt 0.855300 0.915483
vt 0.391404 0.581928
vt 0.575819 0.905181
vt 0.197448 0.971156
vt 0.945104 0.220289
vt 0.984468 0.925834
vt 0.646626 0.806597
vt 0.112455 0.097841
vt 0.402467 0.569817
vt 0.079777 0.805796
vt 0.964294 0.551862
vt 0.969735 0.548149
vt 0.969735 0.565169
vt 0.753596 0.824740
vt 0.705335 0.919750
vt 0.710257 0.920535
vt 0.720183 0.930256
vt 0.125059 0.805796
vt 0.404568 0.447053
vt 0.561320 0.884557
vt 0.886090 0.925005
vt 0.575534 0.752381
vt 0.975272 0.719406
vt 0.010310 0.459920
f 1/1/1 2/2/2 3/3/3
f 4/4/4 5/5/5 6/6/6
f 4/4/4 6/6/6 7/7/7
f 8/8/8 9/9/9 10/10/10
f 11/11/11 12/12/12 13/13/13
f 14/14/14 15/15/15 16/16/16
f 17/17/17 18/18/18 19/19/19
f 20/20/20 21/21/21 22/22/22
f 23/23/23 24/24/24 25/25/25
f 14/14/14 16/16/16 26/26/26
f 27/27/27 28/28/28 29/29/29
f 30/30/30 31/31/31 32/32/32
f 3/33/3 33/34/33 34/35/34
f 35/36/35 36/37/36 37/38/37
f 38/39/38 39/40/39 40/41/40
f 41/42/41 42/43/42 43/44/43
f 44/45/44 45/46/45 46/47/46
f 47/48/47 48/49/48 49/50/49
f 50/51/50 51/52/51 52/53/52
f 53/54/53 54/55/54 55/56/55
f 56/57/56 57/58/57 58/59/58
f 59/60/59 60/61/60 61/62/61
f 62/63/62 63/64/63 64/65/64
f 65/66/65 66/67/66 67/68/67
f 68/69/68 69/70/69 70/71/70
f 71/72/71 72/73/72 73/74/73
f 74/75/74 75/76/75 76/77/76
f 77/78/77 78/79/78 79/80/79
f 80/81/80 27/27/27 81/82/81
f 82/83/82 83/84/83 84/85/84
f 85/86/85 86/87/86 87/88/87
f 88/89/88 89/90/89 90/91/90
f 91/92/91 92/93/92 93/94/93
f 94/95/94 95/96/95 41/42/41
f 96/97/96 40/98/40 97/99/97
f 39/100/39 38/101/38 98/102/98
f 99/103/99 100/104/100 101/105/101
f 102/106/102 103/107/103 104/108/104
f 105/109/105 46/47/46 106/110/106
f 107/111/107 108/112/108 109/113/109
f 110/114/110 111/115/111 112/116/112
f 47/48/47 49/50/49 113/117/113
f 114/118/114 100/104/100 99/103/99
f 115/119/115 116/120/116 117/121/117
f 118/122/118 91/123/91 119/124/119
f 120/125/120 41/42/41 121/126/121
f 122/127/122 123/128/123 124/129/124
f 44/130/44 41/42/41 43/44/43
f 93/94/93 125/131/125 126/132/126
f 127/133/127 128/134/128 129/135/129
f 130/136/130 131/137/131 132/138/132
f 133/139/133 7/7/7 134/140/134
f 135/141/135 136/142/136 137/143/137
f 70/144/70 138/145/138 139/146/139
f 119/124/119 91/123/91 140/147/140
f 141/148/141 1/149/1 30/150/30
f 114/151/114 142/152/142 143/153/143
f 144/154/144 145/155/145 146/156/146
f 147/157/147 148/158/148 149/159/149
f 150/160/150 91/92/91 151/161/151
f 53/162/53 50/163/50 152/164/152
f 25/165/25 153/166/153 23/167/23
f 85/86/85 154/168/154 155/169/155
f 156/170/156 157/171/157 79/80/79
f 158/172/158 159/173/159 83/174/83
f 160/175/160 28/176/28 161/177/161
f 53/54/53 55/56/55 50/178/50
f 72/179/72 162/180/162 163/181/163
f 39/100/39 98/102/98 35/182/35
f 164/183/164 165/184/165 166/185/166
f 167/186/167 168/187/168 169/188/169
f 170/189/170 171/190/171 172/191/172
f 173/192/173 160/175/160 161/177/161
f 56/57/56 174/193/174 57/58/57
f 13/13/13 151/194/151 11/11/11
f 175/195/175 176/196/176 177/197/177
f 76/198/76 25/199/25 74/200/74
f 178/201/178 179/202/179 153/203/153
f 180/204/180 49/205/49 71/206/71
f 181/207/181 182/208/182 183/209/183
f 184/210/184 185/211/185 186/212/186
f 187/213/187 183/209/183 188/214/188
f 189/215/189 162/216/162 72/217/72
f 21/21/21 190/218/190 142/219/142
f 191/220/191 192/221/192 193/222/193
f 194/223/194 104/108/104 195/224/195
f 196/225/196 197/226/197 145/155/145
f 198/227/198 199/228/199 200/229/200
f 3/230/3 2/231/2 201/232/201
f 202/233/202 89/90/89 203/234/203
f 181/207/181 195/235/195 104/236/104
f 109/113/109 14/14/14 26/26/26
f 204/237/204 75/76/75 23/238/23
f 46/47/46 105/109/105 44/45/44
f 145/239/145 205/240/205 95/96/95
f 159/173/206 158/172/207 25/199/25
f 150/160/150 151/161/151 206/241/208
f 207/242/209 208/243/210 209/244/211
f 210/245/212 183/209/183 182/208/182
f 211/246/213 212/247/214 213/248/215
f 214/249/216 112/250/112 215/251/217
f 216/252/218 217/252/219 218/252/220
f 219/253/221 89/90/89 202/233/202
f 119/124/119 220/254/222 174/193/174
f 145/239/145 95/96/95 94/95/94
f 221/255/223 222/256/224 223/257/225
f 224/258/226 198/227/198 16/16/16
f 115/119/115 225/259/227 226/260/228
f 163/261/163 40/98/40 96/97/96
f 227/262/229 2/231/2 228/263/230
f 229/264/231 230/265/232 231/266/233
f 232/267/234 20/268/20 233/269/235
f 234/270/236 235/271/237 67/68/67
f 236/272/238 179/273/179 204/274/204
f 237/275/239 238/276/240 239/277/241
f 180/278/180 240/279/242 241/280/243
f 101/105/101 242/281/244 99/103/99
f 243/282/10 244/283/245 37/284/37
f 200/229/200 110/285/110 214/286/216
f 245/287/246 246/288/247 247/289/248
f 21/21/21 20/20/20 248/290/249
f 249/291/250 190/292/190 21/293/21
f 250/294/251 251/295/252 252/296/253
f 253/297/254 187/298/187 254/299/255
f 60/61/60 59/60/59 255/300/256
f 46/47/46 256/301/257 257/302/258
f 104/108/104 194/223/194 102/106/102
f 258/303/259 255/300/256 59/60/59
f 259/304/260 178/305/178 260/306/261
f 113/307/113 261/308/262 262/309/263
f 110/114/110 199/310/199 151/161/151
f 263/311/264 226/312/228 225/313/227
f 67/68/67 264/314/265 234/270/236
f 31/31/31 265/315/266 32/32/32
f 39/100/39 35/182/35 63/64/63
f 266/316/267 189/317/189 48/318/48
f 25/25/25 24/24/24 84/319/84
f 267/320/268 34/35/34 33/34/33
f 154/168/154 268/321/269 155/169/155
f 89/90/89 269/322/270 270/323/271
f 126/324/126 246/325/247 192/221/192
f 25/326/25 83/327/83 159/328/206
f 134/329/134 6/330/6 271/331/272
f 61/62/61 229/264/231 59/60/59
f 239/332/241 272/333/273 149/334/149
f 273/335/274 116/120/116 115/119/115
f 249/336/250 21/21/21 274/337/275
f 86/338/276 275/339/277 209/340/211
f 90/341/90 276/342/278 277/343/279
f 119/124/119 278/344/280 118/122/118
f 143/153/143 279/345/281 203/346/203
f 280/347/282 281/348/283 282/349/284
f 117/121/117 283/350/285 225/259/227
f 53/162/53 52/351/52 54/352/54
f 284/353/286 128/134/128 127/133/127
f 41/42/41 44/130/44 121/126/121
f 285/354/287 207/355/288 286/356/289
f 287/357/290 288/358/291 289/359/292
f 254/299/255 188/360/188 290/361/293
f 182/208/182 223/257/225 210/245/212
f 75/76/75 74/75/74 24/362/24
f 81/363/81 291/364/294 292/365/295
f 110/285/110 112/366/112 214/286/216
f 101/105/101 153/367/153 179/368/179
f 266/369/267 124/370/124 293/371/296
f 17/17/17 85/372/85 18/18/18
f 244/373/245 122/127/122 294/374/297
f 104/108/104 103/107/103 181/375/181
f 251/295/252 250/294/251 295/376/298
f 291/364/294 160/175/160 173/192/173
f 80/377/80 81/378/81 296/379/299
f 297/380/300 164/183/164 298/381/301
f 299/382/302 284/353/286 105/383/105
f 161/177/161 300/384/303 301/385/304
f 176/386/176 94/95/94 120/125/120
f 70/71/70 69/70/69 61/387/61
f 101/105/101 100/104/100 302/388/305
f 303/389/306 267/390/268 304/391/307
f 293/392/296 38/393/38 40/394/40
f 188/214/188 183/209/183 210/245/212
f 156/170/156 79/80/79 65/395/65
f 305/396/308 65/395/65 79/80/79
f 306/397/309 186/398/186 209/399/211
f 188/400/188 149/401/149 272/402/273
f 307/403/310 19/404/19 186/212/186
f 65/66/65 308/405/311 66/67/66
f 186/398/186 185/406/185 209/399/211
f 309/407/312 151/161/151 13/408/13
f 310/409/313 98/410/98 38/411/38
f 311/412/314 312/413/315 185/414/316
f 313/415/317 311/412/314 185/414/316
f 314/416/318 315/417/319 163/418/163
f 312/419/315 209/420/211 184/421/320
f 316/422/321 312/423/322 313/424/317
f 312/425/322 316/426/321 19/427/19
f 207/428/288 286/429/323 312/430/315
f 286/431/323 209/420/211 312/419/315
f 317/432/324 207/428/288 312/430/315
f 312/430/315 311/433/314 317/432/324
f 19/434/19 313/435/317 312/436/322
f 184/437/184 316/438/321 313/439/317
f 316/440/321 184/210/184 19/404/19
f 178/201/178 318/441/325 179/202/179
f 319/442/326 136/443/136 135/444/135
f 320/445/327 208/446/210 317/447/324
f 321/448/328 322/449/329 208/450/210
f 322/451/329 209/452/211 208/453/210
f 323/454/330 324/455/331 325/456/332
f 326/457/333 323/458/330 325/459/332
f 326/460/333 325/456/332 268/321/269
f 79/461/79 66/462/66 305/463/308
f 79/461/79 264/464/265 66/462/66
f 322/465/334 320/466/327 317/467/324
f 305/468/308 308/405/311 65/66/65
f 308/469/311 305/470/308 264/471/265
f 305/463/308 66/462/66 264/464/265
f 327/472/335 208/473/210 320/474/327
f 321/475/336 328/476/337 320/477/327
f 321/478/328 209/479/211 322/480/329
f 321/481/336 320/482/327 329/483/338
f 330/484/339 328/476/337 321/475/336
f 329/485/338 330/484/339 321/475/336
f 322/486/334 317/487/324 329/488/338
f 325/456/332 324/455/331 331/489/340
f 256/490/257 332/491/341 333/492/342
f 311/433/314 313/493/317 317/432/324
f 334/494/343 275/495/277 87/496/87
f 86/497/86 334/498/343 87/499/87
f 85/86/85 155/169/155 334/500/343
f 184/501/320 209/502/211 185/503/185
f 164/183/164 297/380/300 335/504/344
f 328/505/337 18/506/18 327/507/335
f 18/506/18 328/505/337 329/508/345
f 336/509/346 18/510/18 329/511/345
f 328/476/337 330/484/339 336/512/347
f 336/509/347 329/511/345 328/513/337
f 313/514/317 18/18/18 317/515/324
f 18/18/18 313/514/317 19/19/19
f 235/271/237 156/516/156 67/68/67
f 156/517/156 235/518/237 337/519/348
f 154/520/154 85/372/85 17/17/17
f 281/348/283 338/521/349 282/349/284
f 138/145/138 339/522/350 298/523/301
f 340/524/351 266/525/267 314/526/318
f 272/402/273 341/527/352 188/400/188
f 248/290/249 234/270/236 264/314/265
f 264/314/265 78/528/78 248/290/249
f 114/118/114 342/529/353 302/388/305
f 343/530/354 344/531/355 135/141/135
f 239/532/241 4/533/4 345/534/356
f 137/143/137 136/142/136 270/323/271
f 139/535/139 164/183/164 166/185/166
f 106/110/106 301/536/304 105/109/105
f 162/180/162 216/537/357 346/538/358
f 240/539/242 180/540/180 39/100/39
f 149/159/149 188/360/188 147/157/147
f 347/541/359 148/542/148 348/543/360
f 262/309/263 349/544/361 350/545/362
f 351/546/363 239/532/241 345/534/356
f 306/397/309 209/399/211 334/500/343
f 59/547/59 231/548/233 352/549/364
f 353/550/365 136/443/136 319/442/326
f 84/551/84 354/552/366 355/553/367
f 92/554/92 91/123/91 118/122/118
f 261/308/262 64/555/64 262/309/263
f 356/556/368 166/185/166 165/184/165
f 111/115/111 151/161/151 309/407/312
f 228/557/230 357/558/369 358/559/370
f 45/560/45 44/130/44 43/44/43
f 359/561/371 360/562/372 170/189/170
f 266/563/267 340/564/351 162/216/162
f 140/147/140 150/565/150 361/566/373
f 362/567/374 120/125/120 121/126/121
f 325/456/332 306/397/309 155/169/155
f 174/193/174 220/254/222 224/568/226
f 363/569/375 14/14/14 364/570/376
f 141/571/141 365/572/377 1/573/1
f 128/134/128 300/384/303 366/574/378
f 33/34/33 172/191/172 267/320/268
f 341/575/352 351/576/363 188/577/188
f 297/578/300 298/579/301 331/580/340
f 268/581/269 324/582/379 326/583/333
f 297/380/380 326/460/333 324/455/379
f 323/458/330 326/457/333 297/584/380
f 77/585/77 274/337/275 78/528/78
f 367/586/381 335/504/344 297/380/300
f 344/587/355 12/588/12 353/550/365
f 308/589/311 67/590/67 66/591/66
f 133/139/133 368/592/382 4/4/4
f 369/593/383 370/594/384 24/595/24
f 189/215/189 266/563/267 162/216/162
f 148/542/148 147/596/147 222/256/224
f 154/597/154 307/598/310 358/559/370
f 331/599/340 307/600/310 325/601/332
f 288/358/291 371/602/385 11/11/11
f 367/603/381 358/559/370 372/604/386
f 228/557/230 2/2/2 373/605/387
f 56/57/56 119/124/119 174/193/174
f 191/220/191 126/324/126 192/221/192
f 209/606/211 286/356/323 207/355/209
f 222/256/224 348/543/360 148/542/148
f 374/607/388 314/416/318 163/418/163
f 190/608/190 27/27/27 142/152/142
f 141/609/141 30/30/30 32/32/32
f 57/58/57 375/610/389 376/611/390
f 103/107/103 304/391/307 182/612/182
f 348/543/360 222/256/224 221/255/223
f 292/365/295 377/613/391 81/363/81
f 54/352/54 52/351/52 378/614/392
f 114/118/114 302/388/305 100/104/100
f 324/455/331 323/454/330 297/380/380
f 379/615/393 380/616/394 46/47/46
f 381/617/395 233/269/235 382/618/396
f 383/619/397 375/610/389 57/58/57
f 246/620/247 221/255/223 247/621/248
f 2/2/2 226/622/228 34/623/34
f 200/229/200 26/26/26 198/227/198
f 384/624/398 167/186/167 169/188/169
f 290/625/293 176/386/176 385/626/399
f 21/21/21 248/290/249 78/528/78
f 220/254/222 140/147/140 361/566/373
f 33/34/33 170/189/170 172/191/172
f 386/627/400 258/628/259 59/547/59
f 15/15/15 14/14/14 363/569/375
f 387/629/401 388/630/402 197/226/197
f 56/57/56 278/344/280 119/124/119
f 207/242/209 285/631/403 208/243/210
f 34/623/34 373/605/387 2/2/2
f 389/632/404 390/633/405 391/634/406
f 4/635/4 239/332/241 149/334/149
f 392/636/407 393/637/408 295/638/298
f 199/310/199 206/241/208 151/161/151
f 358/559/370 357/558/369 372/604/386
f 288/358/291 394/639/409 371/602/385
f 395/640/410 236/641/238 396/642/411
f 68/643/68 70/144/70 232/267/234
f 76/644/76 179/645/179 318/646/325
f 60/61/60 397/647/412 61/62/61
f 397/648/412 339/649/350 398/650/413
f 148/158/148 125/131/125 149/159/149
f 198/227/198 26/26/26 16/16/16
f 399/651/414 183/209/183 187/213/187
f 123/652/123 122/653/122 244/654/245
f 400/655/415 401/656/416 335/504/344
f 402/657/417 288/358/291 287/357/290
f 212/247/214 211/246/213 272/658/273
f 382/659/396 99/103/99 242/281/244
f 35/182/35 64/65/64 63/64/63
f 198/660/198 220/254/222 361/566/373
f 381/661/395 231/662/233 230/663/232
f 344/664/355 343/665/354 403/666/418
f 71/667/71 73/668/73 97/669/97
f 179/670/179 395/640/410 101/671/101
f 404/672/419 405/673/420 261/674/262
f 232/267/234 233/269/235 68/643/68
f 361/566/373 206/675/208 199/676/199
f 290/677/293 406/678/421 177/197/177
f 304/391/307 102/106/102 303/389/306
f 407/679/167 10/680/10 9/681/9
f 28/176/28 366/574/378 300/384/303
f 200/229/200 215/682/217 26/26/26
f 363/569/375 144/683/144 15/15/15
f 247/289/248 304/391/307 267/390/268
f 9/684/9 408/685/422 407/686/167
f 368/592/382 387/629/401 175/195/175
f 228/263/230 358/687/370 227/262/229
f 196/225/196 175/195/175 387/629/401
f 60/688/60 409/689/423 397/648/412
f 265/315/266 410/690/424 32/32/32
f 411/691/425 412/692/426 193/693/193
f 247/289/248 221/694/223 304/391/307
f 125/131/125 148/158/148 347/695/359
f 24/362/24 74/75/74 369/696/383
f 372/604/386 400/697/415 413/698/427
f 98/699/98 310/700/313 36/37/36
f 254/299/255 290/361/293 414/701/428
f 359/561/371 170/189/170 33/34/33
f 396/642/411 360/562/372 395/640/410
f 335/702/344 413/698/427 400/697/415
f 387/629/401 368/592/382 133/139/133
f 49/50/49 180/703/180 415/704/429
f 180/703/180 416/705/430 415/704/429
f 346/706/358 216/707/357 340/708/351
f 217/709/219 346/710/358 340/711/351
f 40/712/40 417/713/431 266/525/267
f 251/295/252 295/376/298 42/43/42
f 3/33/3 34/35/34 263/714/264
f 226/260/228 273/335/274 115/119/115
f 296/379/299 81/378/81 377/715/391
f 184/210/184 313/716/317 185/211/316
f 418/717/432 294/718/297 48/719/48
f 346/720/358 419/721/433 163/722/163
f 419/723/433 216/724/218 163/725/163
f 419/721/433 346/720/358 217/726/219
f 216/252/218 419/252/433 217/252/219
f 138/727/138 398/728/413 339/729/350
f 45/730/45 42/731/42 333/732/342
f 108/112/108 392/636/407 109/113/109
f 394/639/409 193/222/193 412/733/426
f 192/221/192 246/325/247 245/734/246
f 271/735/272 420/736/434 278/737/280
f 307/738/310 331/739/340 298/740/301
f 189/317/189 71/206/71 48/318/48
f 205/240/205 252/296/253 95/96/95
f 413/741/427 335/504/344 367/586/381
f 88/742/88 90/341/90 111/115/111
f 270/743/271 421/744/435 143/153/143
f 12/12/12 403/666/418 13/13/13
f 85/86/85 87/88/87 18/745/18
f 406/678/421 345/746/356 177/197/177
f 122/127/122 124/129/124 294/374/297
f 98/699/98 36/37/36 35/36/35
f 237/747/239 123/652/123 244/654/245
f 219/253/221 379/748/393 90/91/90
f 381/661/395 230/663/232 233/749/235
f 359/750/371 201/232/201 386/751/400
f 377/613/391 292/365/295 380/752/394
f 197/226/197 196/225/196 387/629/401
f 352/549/364 386/627/400 59/547/59
f 124/753/124 123/754/123 293/755/296
f 291/364/294 81/363/81 27/756/27
f 61/62/61 69/757/69 229/264/231
f 129/758/129 194/223/194 195/224/195
f 64/555/64 349/544/361 262/309/263
f 175/195/175 345/746/356 368/592/382
f 134/140/134 58/759/58 133/139/133
f 21/21/21 142/219/142 22/22/22
f 63/64/63 422/760/436 240/539/242
f 153/367/153 236/761/238 23/762/23
f 57/58/57 376/611/390 58/59/58
f 144/763/144 363/764/375 252/296/253
f 345/765/356 406/766/421 188/577/188
f 69/70/69 68/69/68 229/767/231
f 190/608/190 356/768/368 27/27/27
f 353/550/365 171/769/171 342/770/353
f 335/504/344 165/184/165 164/183/164
f 249/291/250 356/556/368 190/292/190
f 307/600/310 186/771/186 325/601/332
f 173/192/173 301/385/304 106/772/106
f 261/674/262 113/117/113 404/672/419
f 20/20/20 22/22/22 382/659/396
f 39/40/39 97/773/97 40/41/40
f 166/185/166 232/774/234 139/535/139
f 60/688/60 227/775/229 409/689/423
f 170/189/170 360/562/372 171/190/171
f 215/682/217 109/113/109 26/26/26
f 42/43/42 41/42/41 251/295/252
f 353/550/365 319/442/326 344/587/355
f 355/553/367 82/776/82 84/551/84
f 407/679/167 212/777/214 10/680/10
f 221/255/223 223/257/225 304/778/307
f 417/713/431 314/526/318 266/525/267
f 155/169/155 268/321/269 325/456/332
f 402/657/417 193/222/193 394/639/409
f 423/779/437 424/780/438 425/781/439
f 317/515/324 18/18/18 336/782/346
f 2/231/2 227/262/229 201/232/201
f 356/768/368 165/783/165 28/28/28
f 210/245/212 222/256/224 147/596/147
f 49/205/49 48/318/48 71/206/71
f 28/28/28 27/27/27 356/768/368
f 188/360/188 254/299/255 187/298/187
f 51/784/51 50/785/50 55/786/55
f 270/323/271 203/234/203 89/90/89
f 193/693/193 192/787/192 411/691/425
f 254/299/255 105/109/105 284/788/286
f 426/789/440 152/790/441 427/791/442
f 252/296/253 363/764/375 250/294/251
f 152/164/152 426/792/443 53/162/53
f 339/649/350 397/648/412 409/689/423
f 399/651/414 253/793/254 127/794/127
f 372/795/386 102/796/102 400/797/415
f 307/598/310 298/798/301 358/559/370
f 244/799/245 350/800/362 37/801/37
f 294/802/297 55/803/55 244/804/245
f 350/545/362 378/805/392 52/53/52
f 372/604/386 413/698/427 367/603/381
f 67/68/67 156/516/156 65/66/65
f 136/443/136 342/770/353 114/151/114
f 428/806/444 429/807/445 51/52/51
f 364/808/376 250/294/251 363/764/375
f 244/654/245 238/809/240 237/747/239
f 382/659/396 22/22/22 99/103/99
f 322/810/334 329/811/338 320/812/327
f 129/135/129 128/134/128 366/574/378
f 102/106/102 194/223/194 401/813/416
f 418/814/432 47/815/47 428/806/444
f 383/816/397 15/15/15 430/817/446
f 52/53/52 152/818/152 50/51/50
f 272/658/273 239/277/241 238/276/240
f 341/819/352 272/658/273 211/246/213
f 337/820/348 235/821/237 234/822/236
f 97/773/97 180/204/180 71/206/71
f 237/747/239 293/823/296 123/652/123
f 411/691/425 192/787/192 245/287/246
f 228/557/230 373/605/387 357/558/369
f 412/692/426 353/550/365 431/824/447
f 182/208/182 181/207/181 103/825/103
f 173/192/173 292/365/295 291/364/294
f 12/12/12 371/602/385 431/826/447
f 358/687/370 409/827/423 227/262/229
f 6/330/6 420/828/434 271/331/272
f 93/94/93 432/829/448 287/830/290
f 430/831/446 144/832/144 375/610/389
f 113/117/113 415/704/429 404/672/419
f 362/567/374 414/833/428 385/626/399
f 226/834/228 1/835/1 273/836/274
f 94/95/94 41/42/41 120/125/120
f 153/367/153 302/388/305 236/761/238
f 284/353/286 299/382/302 128/134/128
f 6/6/6 134/140/134 7/7/7
f 429/807/445 262/309/263 350/545/362
f 1/573/1 365/572/377 116/837/116
f 395/838/410 386/751/400 352/839/364
f 179/645/179 76/644/76 433/840/449
f 236/841/238 204/237/204 23/238/23
f 334/500/343 209/399/211 275/842/277
f 386/627/400 201/843/201 258/628/259
f 158/172/207 354/844/366 25/199/25
f 63/64/63 240/539/242 39/100/39
f 176/196/176 290/677/293 177/197/177
f 395/838/410 359/750/371 386/751/400
f 392/636/407 295/638/298 364/570/376
f 86/845/276 209/479/211 18/846/18
f 351/576/363 345/765/356 188/577/188
f 147/157/147 188/360/188 210/847/212
f 204/237/204 433/848/449 75/76/75
f 372/604/386 357/558/369 303/849/306
f 35/850/35 350/545/362 349/544/361
f 24/362/24 23/238/23 75/76/75
f 430/817/446 15/15/15 144/683/144
f 295/376/298 250/294/251 364/808/376
f 166/185/166 249/291/250 232/774/234
f 121/126/121 44/130/44 362/567/374
f 80/377/80 202/233/202 279/851/281
f 358/687/370 339/522/350 409/827/423
f 296/379/299 202/233/202 80/377/80
f 109/113/109 276/852/278 107/111/107
f 434/853/450 276/342/278 90/341/90
f 333/492/342 295/376/298 256/490/257
f 90/341/90 46/47/46 257/302/258
f 142/219/142 99/103/99 22/22/22
f 377/854/391 380/616/394 379/615/393
f 435/855/451 436/856/452 309/857/312
f 317/858/324 208/859/210 285/860/403
f 307/861/310 154/862/154 19/863/19
f 293/864/296 237/865/239 211/866/213
f 112/116/112 111/115/111 277/343/279
f 183/209/183 399/651/414 195/235/195
f 64/555/64 35/850/35 349/544/361
f 111/867/111 436/856/452 269/322/270
f 60/688/60 201/868/201 227/775/229
f 174/193/174 224/568/226 57/58/57
f 303/849/306 373/605/387 267/869/268
f 377/715/391 219/253/221 296/379/299
f 95/96/95 251/295/252 41/42/41
f 143/153/143 27/27/27 279/345/281
f 93/94/93 151/161/151 91/92/91
f 58/759/58 376/870/390 388/630/402
f 16/16/16 15/15/15 383/816/397
f 346/538/358 163/181/163 162/180/162
f 314/871/318 417/872/431 315/873/319
f 215/682/217 112/366/112 277/874/279
f 222/256/224 210/245/212 223/257/225
f 350/875/362 55/56/55 54/55/54
f 340/876/351 218/877/220 217/878/219
f 61/387/61 138/727/138 70/71/70
f 412/692/426 411/691/425 172/879/172
f 318/646/325 260/880/453 76/644/76
f 318/881/325 259/882/260 437/883/454
f 260/884/453 318/885/325 438/886/455
f 437/887/454 438/888/455 318/889/325
f 259/304/260 260/306/261 437/890/454
f 437/890/454 260/306/261 178/305/178
f 299/382/302 300/384/303 128/134/128
f 93/94/93 289/891/292 151/161/151
f 76/644/76 260/880/453 438/892/455
f 87/88/87 275/842/277 18/745/18
f 48/318/48 124/893/124 266/316/267
f 74/200/74 25/199/25 354/844/366
f 117/121/117 225/259/227 115/119/115
f 52/53/52 426/894/443 152/818/152
f 83/327/456 24/895/457 159/328/458
f 184/896/320 185/897/316 312/898/315
f 225/899/227 283/900/285 31/901/31
f 439/902/459 354/903/366 369/904/383
f 24/905/457 355/906/460 159/907/458
f 355/908/460 24/909/457 83/910/456
f 83/911/83 25/912/25 84/913/84
f 83/914/456 159/915/458 355/916/460
f 159/917/461 440/918/462 354/919/366
f 440/920/462 159/921/461 158/922/158
f 354/919/366 158/923/207 159/917/461
f 83/924/83 82/925/82 158/926/158
f 82/927/82 355/928/367 158/929/158
f 440/930/462 355/931/367 354/932/366
f 355/928/367 440/933/462 158/929/158
f 46/47/46 332/934/341 256/301/257
f 234/822/236 248/935/249 337/820/348
f 439/936/459 370/937/384 84/938/84
f 370/939/384 369/904/383 354/903/366
f 24/940/24 370/941/384 439/942/459
f 354/903/366 84/943/84 370/939/384
f 24/944/24 439/945/459 84/946/84
f 74/947/74 439/948/459 369/949/383
f 439/902/459 74/950/74 354/903/366
f 117/951/117 441/952/463 423/953/437
f 423/779/437 283/350/285 117/121/117
f 283/954/464 424/955/438 441/956/463
f 424/957/438 283/958/464 425/959/439
f 283/960/464 441/961/463 425/962/439
f 283/963/285 423/964/437 31/965/31
f 371/602/385 394/639/409 431/826/447
f 424/966/438 423/967/437 441/968/463
f 423/779/437 425/781/439 31/969/31
f 292/365/295 173/192/173 106/772/106
f 213/970/215 212/971/214 407/972/167
f 388/630/402 387/629/401 58/759/58
f 78/79/78 264/973/265 79/80/79
f 433/848/449 76/77/76 75/76/75
f 365/974/377 31/969/31 117/121/117
f 442/975/465 365/976/466 410/977/424
f 365/978/466 442/979/465 32/980/32
f 32/981/32 410/982/424 365/983/466
f 141/571/141 442/984/465 410/985/424
f 442/986/465 141/609/141 32/32/32
f 365/572/377 141/571/141 265/987/266
f 141/571/141 410/985/424 265/987/266
f 246/620/247 348/543/360 221/255/223
f 257/988/258 256/989/257 393/637/408
f 224/568/226 220/254/222 198/660/198
f 255/990/256 258/628/259 201/843/201
f 299/382/302 301/385/304 300/384/303
f 143/991/143 203/234/203 270/323/271
f 428/806/444 47/815/47 429/807/445
f 383/619/397 57/58/57 224/568/226
f 353/550/365 412/692/426 171/769/171
f 367/586/381 297/380/300 268/321/269
f 58/59/58 134/329/134 56/57/56
f 418/717/432 48/719/48 47/992/47
f 443/993/467 10/994/10 243/995/10
f 337/996/348 248/290/249 20/20/20
f 145/239/145 144/763/144 205/240/205
f 149/159/149 125/131/125 6/997/6
f 297/380/300 324/455/379 268/321/269
f 105/109/105 254/299/255 362/998/374
f 243/282/10 238/999/240 244/283/245
f 341/819/352 211/246/213 237/275/239
f 31/969/31 425/781/439 117/121/117
f 126/324/126 191/220/191 432/1000/448
f 351/1001/363 341/819/352 237/275/239
f 392/636/407 364/570/376 14/14/14
f 80/81/80 279/345/281 27/27/27
f 293/864/296 211/866/213 444/1002/468
f 348/543/360 246/620/247 347/541/359
f 144/763/144 252/296/253 205/240/205
f 345/746/356 175/195/175 177/197/177
f 193/222/193 402/657/417 191/220/191
f 278/344/280 420/828/434 118/122/118
f 257/302/258 434/853/450 90/341/90
f 268/321/269 154/168/154 367/586/381
f 101/1003/101 395/838/410 352/839/364
f 411/691/425 247/289/248 267/390/268
f 149/334/149 5/1004/5 4/635/4
f 40/98/40 163/261/163 315/1005/319
f 126/132/126 432/829/448 93/94/93
f 297/380/300 331/489/340 324/455/331
f 125/131/125 93/94/93 420/1006/434
f 220/254/222 119/124/119 140/147/140
f 46/47/46 90/341/90 379/615/393
f 399/651/414 187/213/187 253/793/254
f 399/651/414 127/794/127 129/1007/129
f 381/661/395 352/1008/364 231/662/233
f 303/849/306 102/1009/102 372/604/386
f 136/443/136 353/550/365 342/770/353
f 60/688/60 255/1010/256 201/868/201
f 5/1011/5 149/159/149 6/997/6
f 392/1012/407 257/1013/258 393/1014/408
f 267/869/268 373/605/387 34/623/34
f 14/14/14 109/113/109 392/636/407
f 229/767/231 68/69/68 233/1015/235
f 135/444/135 344/587/355 319/442/326
f 144/154/144 388/630/402 376/870/390
f 143/153/143 421/744/435 136/443/136
f 176/196/176 175/195/175 196/225/196
f 405/1016/420 62/63/62 261/1017/262
f 397/647/412 398/1018/413 61/62/61
f 444/1002/468 310/409/313 38/411/38
f 252/296/253 251/295/252 95/96/95
f 289/359/292 288/358/291 11/11/11
f 336/1019/346 329/488/338 317/487/324
f 420/828/434 92/554/92 118/122/118
f 92/93/92 420/1006/434 93/94/93
f 180/1020/180 241/1021/243 416/1022/430
f 244/799/245 55/1023/55 350/800/362
f 294/802/297 418/814/432 55/803/55
f 182/208/182 304/778/307 223/257/225
f 28/176/28 300/384/303 161/177/161
f 207/1024/288 317/1025/324 285/1026/403
f 402/657/417 394/639/409 288/358/291
f 144/154/144 146/156/146 197/226/197
f 54/55/54 378/1027/392 350/875/362
f 47/815/47 113/307/113 429/807/445
f 375/610/389 144/832/144 376/611/390
f 411/691/425 267/390/268 172/879/172
f 199/676/199 198/660/198 361/566/373
f 360/562/372 342/1028/353 171/190/171
f 13/13/13 403/666/418 435/1029/451
f 242/1030/244 101/1003/101 381/617/395
f 197/226/197 146/156/146 145/155/145
f 188/360/188 406/1031/421 290/361/293
f 35/850/35 37/1032/37 350/545/362
f 431/826/447 353/1033/365 12/12/12
f 278/344/280 56/57/56 134/329/134
f 218/1034/220 374/607/388 163/418/163
f 181/207/181 183/209/183 195/235/195
f 34/623/34 226/622/228 263/1035/264
f 437/890/454 178/305/178 25/199/25
f 232/774/234 274/1036/275 77/1037/77
f 111/115/111 90/341/90 277/343/279
f 138/727/138 61/387/61 398/728/413
f 145/155/145 94/1038/94 196/225/196
f 374/1039/388 218/1040/220 314/1041/318
f 279/851/281 202/233/202 203/234/203
f 219/253/221 377/715/391 379/748/393
f 101/105/101 302/388/305 153/367/153
f 435/855/451 343/530/354 436/856/452
f 278/344/280 134/329/134 271/331/272
f 106/1042/106 380/1043/394 292/1044/295
f 30/30/30 263/1045/264 31/31/31
f 179/670/179 236/641/238 395/640/410
f 380/1046/394 106/1047/106 46/1048/46
f 138/145/138 298/523/301 139/146/139
f 12/12/12 344/664/355 403/666/418
f 88/89/88 111/867/111 269/322/270
f 215/682/217 277/874/279 109/113/109
f 306/397/309 334/500/343 155/169/155
f 142/219/142 114/118/114 99/103/99
f 335/504/344 401/656/416 165/184/165
f 29/1049/29 160/175/160 291/364/294
f 25/199/25 438/1050/455 437/890/454
f 165/783/165 401/813/416 28/28/28
f 383/816/397 224/258/226 16/16/16
f 89/90/89 88/89/88 269/322/270
f 176/386/176 120/125/120 385/626/399
f 162/216/162 340/564/351 216/1051/357
f 19/19/19 154/520/154 17/17/17
f 262/309/263 429/807/445 113/307/113
f 412/692/426 172/879/172 171/769/171
f 284/353/286 127/133/127 254/1052/255
f 393/637/408 256/989/257 295/638/298
f 85/86/85 334/500/343 86/87/86
f 259/304/260 318/1053/325 178/305/178
f 151/161/151 111/115/111 110/114/110
f 153/1054/153 25/199/25 178/305/178
f 176/196/176 196/225/196 94/1038/94
f 272/658/273 238/276/240 10/994/10
f 337/1055/348 20/1056/20 232/774/234
f 136/443/136 421/744/435 270/743/271
f 298/381/301 164/183/164 139/535/139
f 29/29/29 28/28/28 160/1057/160
f 359/561/371 395/640/410 360/562/372
f 102/106/102 304/391/307 103/107/103
f 333/492/342 332/491/341 45/560/45
f 139/146/139 232/267/234 70/144/70
f 336/512/347 330/484/339 329/485/338
f 11/11/11 151/194/151 289/359/292
f 263/1058/264 225/1059/227 31/1060/31
f 293/864/296 444/1002/468 38/411/38
f 233/749/235 230/663/232 229/1061/231
f 435/855/451 403/1062/418 343/530/354
f 39/40/39 180/204/180 97/773/97
f 51/52/51 429/807/445 52/53/52
f 301/385/304 299/382/302 105/383/105
f 333/492/342 42/43/42 295/376/298
f 163/418/163 216/1063/218 218/1034/220
f 40/1064/40 266/1065/267 293/1066/296
f 360/562/372 302/1067/305 342/1028/353
f 327/1068/335 18/846/18 209/479/211
f 367/603/381 154/597/154 358/559/370
f 161/177/161 301/385/304 173/192/173
f 150/565/150 206/675/208 361/566/373
f 42/43/42 45/560/45 43/44/43
f 362/998/374 44/45/44 105/109/105
f 414/1069/428 290/1070/293 385/1071/399
f 89/90/89 219/253/221 90/91/90
f 253/297/254 254/299/255 127/1072/127
f 199/1073/199 110/1074/110 200/1075/200
f 274/337/275 21/21/21 78/528/78
f 27/27/27 143/153/143 142/152/142
f 156/1076/156 337/1077/348 157/1078/157
f 72/73/72 71/72/71 189/1079/189
f 157/171/157 77/78/77 79/80/79
f 358/687/370 298/523/301 339/522/350
f 387/629/401 133/139/133 58/759/58
f 77/1037/77 337/1055/348 232/774/234
f 113/117/113 49/50/49 415/704/429
f 137/143/137 343/530/354 135/141/135
f 381/617/395 101/1003/101 352/839/364
f 425/781/439 441/1080/463 117/121/117
f 254/299/255 414/701/428 362/998/374
f 269/322/270 436/856/452 137/143/137
f 86/1081/276 18/1082/18 275/1083/277
f 400/1084/415 102/106/102 401/813/416
f 120/125/120 362/567/374 385/626/399
f 25/199/25 76/198/76 438/1050/455
f 10/994/10 212/247/214 272/658/273
f 366/1085/378 28/28/28 401/813/416
f 340/524/351 314/526/318 218/1086/220
f 309/407/312 436/1087/452 111/115/111
f 327/1068/335 321/478/328 208/1088/210
f 315/1005/319 417/1089/431 40/98/40
f 31/31/31 365/1090/377 265/315/266
f 327/1068/335 209/479/211 321/478/328
f 357/558/369 373/605/387 303/849/306
f 237/275/239 239/277/241 351/1001/363
f 426/792/443 52/351/52 53/162/53
f 382/618/396 242/1030/244 381/617/395
f 436/856/452 343/530/354 137/143/137
f 186/212/186 19/404/19 184/210/184
f 359/561/371 33/34/33 3/33/3
f 327/472/335 320/474/327 328/1091/337
f 1/149/1 263/1092/264 30/150/30
f 232/774/234 249/291/250 274/1036/275
f 1/1/1 226/622/228 2/2/2
f 302/388/305 396/1093/411 236/761/238
f 257/988/258 392/636/407 108/112/108
f 428/806/444 55/803/55 418/814/432
f 371/602/385 12/12/12 11/11/11
f 13/408/13 435/1094/451 309/407/312
f 202/233/202 296/379/299 219/253/221
f 133/139/133 4/4/4 7/7/7
f 350/545/362 52/53/52 429/807/445
f 359/750/371 3/230/3 201/232/201
f 179/273/179 433/1095/449 204/274/204
f 368/592/382 345/746/356 4/4/4
f 269/322/270 137/143/137 270/323/271
f 360/562/372 396/642/411 302/1067/305
f 195/1096/195 399/1097/414 129/1098/129
f 347/1099/359 246/325/247 126/324/126
f 277/874/279 276/852/278 109/113/109
f 186/398/186 306/397/309 325/456/332
f 96/1100/96 97/1101/97 73/1102/73
f 1/835/1 116/1103/116 273/836/274
f 276/852/278 434/1104/450 107/111/107
f 337/1077/348 77/1105/77 157/1078/157
f 191/220/191 287/357/290 432/1000/448
f 20/268/20 382/618/396 233/269/235
f 308/405/311 264/314/265 67/68/67
f 96/1100/96 73/1102/73 163/181/163
f 73/1102/73 72/179/72 163/181/163
f 294/718/297 124/1106/124 48/719/48
f 194/223/194 129/758/129 366/1085/378
f 215/682/217 200/229/200 214/286/216
f 401/813/416 194/223/194 366/1085/378
f 247/289/248 411/691/425 245/287/246
f 356/556/368 249/291/250 166/185/166
f 117/121/117 116/120/116 365/974/377
f 383/619/397 430/831/446 375/610/389
f 64/65/64 261/1017/262 62/63/62
f 107/111/107 434/1104/450 108/112/108
f 6/997/6 125/131/125 420/1006/434
f 231/266/233 59/60/59 229/264/231
f 3/33/3 263/714/264 1/1107/1
f 143/153/143 136/443/136 114/151/114
f 238/276/240 243/995/10 10/994/10
f 46/47/46 45/46/45 332/934/341
f 388/630/402 144/154/144 197/226/197
f 287/357/290 191/220/191 402/657/417
f 289/891/292 93/94/93 287/830/290
f 51/784/51 55/786/55 428/1108/444
f 291/364/294 27/756/27 29/1049/29
f 91/123/91 150/565/150 140/147/140
f 126/132/126 125/131/125 347/695/359
f 108/112/108 434/1104/450 257/988/258
f 412/692/426 431/824/447 394/1109/409
