mtllib cage_lamp_off_east.mtl
o CageLamp
v 0.062500 0.687500 0.312500
v 0.062500 0.687500 0.687500
v 0.062500 0.312500 0.687500
v 0.062500 0.312500 0.312500
v 0.000000 0.312500 0.687500
v 0.000000 0.687500 0.687500
v 0.000000 0.687500 0.312500
v 0.000000 0.312500 0.312500
v 0.062500 0.375000 0.750000
v 0.062500 0.625000 0.750000
v 0.000000 0.625000 0.750000
v 0.000000 0.375000 0.750000
v 0.000000 0.625000 0.250000
v 0.062500 0.625000 0.250000
v 0.062500 0.375000 0.250000
v 0.000000 0.375000 0.250000
v 0.187500 0.625000 0.312500
v 0.187500 0.625000 0.687500
v 0.187500 0.375000 0.687500
v 0.187500 0.375000 0.312500
v 0.062500 0.625000 0.687500
v 0.062500 0.625000 0.312500
v 0.062500 0.375000 0.687500
v 0.062500 0.375000 0.312500
v 0.203125 0.359375 0.703125
v 0.203125 0.640625 0.703125
v 0.203125 0.640625 0.296875
v 0.203125 0.359375 0.296875
v 0.062500 0.640625 0.703125
v 0.062500 0.640625 0.296875
v 0.062500 0.359375 0.703125
v 0.062500 0.359375 0.296875
v 0.203125 0.640625 0.296875
v 0.203125 0.640625 0.703125
v 0.203125 0.359375 0.703125
v 0.203125 0.359375 0.296875
v 0.062500 0.640625 0.703125
v 0.062500 0.640625 0.296875
v 0.062500 0.359375 0.703125
v 0.062500 0.359375 0.296875
vt 0.500000 0.937500
vt 0.125000 0.937500
vt 0.125000 0.562500
vt 0.500000 0.562500
vt 0.125000 1.000000
vt 0.500000 1.000000
vt 0.125000 0.500000
vt 0.500000 0.500000
vt 0.062500 0.625000
vt 0.062500 0.875000
vt 0.000000 0.875000
vt 0.000000 0.625000
vt 0.625000 0.875000
vt 0.562500 0.875000
vt 0.562500 0.625000
vt 0.625000 0.625000
vt 0.562500 0.937500
vt 0.562500 1.000000
vt 0.562500 0.500000
vt 0.562500 0.562500
vt 0.062500 1.000000
vt 0.062500 0.937500
vt 0.062500 0.562500
vt 0.062500 0.500000
vt 0.750000 1.000000
vt 0.750000 0.625000
vt 1.000000 0.625000
vt 1.000000 1.000000
vt 0.625000 1.000000
vt 0.750000 0.500000
vt 1.000000 0.500000
vt 0.125000 0.062500
vt 0.125000 0.375000
vt 0.562500 0.375000
vt 0.562500 0.062500
vt 0.000000 0.375000
vt 0.000000 0.062500
vn 1.000000 -0.000000 0.000000
vn -1.000000 0.000000 0.000000
vn 0.000000 1.000000 -0.000000
vn 0.000000 -1.000000 0.000000
vn 0.000000 0.000000 1.000000
vn -0.000000 0.000000 -1.000000
vn 0.000000 0.707100 -0.707100
vn -0.000000 -0.707100 -0.707100
vn 0.000000 0.707100 0.707100
vn 0.000000 -0.707100 0.707100
usemtl lamp
s off
f 1/1/1 2/2/1 3/3/1
f 1/1/1 3/3/1 4/4/1
f 5/4/2 6/1/2 7/2/2
f 5/4/2 7/2/2 8/3/2
f 6/5/3 2/2/3 1/1/3
f 6/5/3 1/1/3 7/6/3
f 4/4/4 3/3/4 5/7/4
f 4/4/4 5/7/4 8/8/4
f 9/9/5 10/10/5 11/11/5
f 9/9/5 11/11/5 12/12/5
f 13/13/6 14/14/6 15/15/6
f 13/13/6 15/15/6 16/16/6
f 14/17/7 13/18/7 7/6/7
f 14/17/7 7/6/7 1/1/7
f 15/15/1 14/14/1 1/1/1
f 15/15/1 1/1/1 4/4/1
f 16/19/8 15/20/8 4/4/8
f 16/19/8 4/4/8 8/8/8
f 13/10/2 16/9/2 8/3/2
f 13/10/2 8/3/2 7/2/2
f 10/10/1 9/9/1 3/3/1
f 10/10/1 3/3/1 2/2/1
f 11/21/9 10/22/9 2/2/9
f 11/21/9 2/2/9 6/5/9
f 12/15/2 11/14/2 6/1/2
f 12/15/2 6/1/2 5/4/2
f 9/23/10 12/24/10 5/7/10
f 9/23/10 5/7/10 3/3/10
f 17/25/1 18/26/1 19/27/1
f 17/25/1 19/27/1 20/28/1
f 21/16/3 18/26/3 17/25/3
f 21/16/3 17/25/3 22/29/3
f 20/26/4 19/25/4 23/29/4
f 20/26/4 23/29/4 24/16/4
f 19/27/5 18/26/5 21/30/5
f 19/27/5 21/30/5 23/31/5
f 22/31/6 17/27/6 20/26/6
f 22/31/6 20/26/6 24/30/6
f 25/32/2 26/33/2 27/34/2
f 25/32/2 27/34/2 28/35/2
f 27/34/4 26/33/4 29/7/4
f 27/34/4 29/7/4 30/19/4
f 31/19/3 25/34/3 28/33/3
f 31/19/3 28/33/3 32/7/3
f 29/36/6 26/33/6 25/32/6
f 29/36/6 25/32/6 31/37/6
f 28/33/5 27/32/5 30/37/5
f 28/33/5 30/37/5 32/36/5
f 33/34/1 34/33/1 35/32/1
f 33/34/1 35/32/1 36/35/1
f 37/7/3 34/33/3 33/34/3
f 37/7/3 33/34/3 38/19/3
f 36/33/4 35/34/4 39/19/4
f 36/33/4 39/19/4 40/7/4
f 35/32/5 34/33/5 37/36/5
f 35/32/5 37/36/5 39/37/5
f 38/37/6 33/32/6 36/33/6
f 38/37/6 36/33/6 40/36/6
