mtllib flood_lamp_south.mtl
o FloodLamp
v 0.687500 0.625000 0.125000
v 0.312500 0.625000 0.125000
v 0.312500 0.375000 0.125000
v 0.687500 0.375000 0.125000
v 0.187500 0.750000 0.250000
v 0.187500 0.750000 0.312500
v 0.812500 0.750000 0.312500
v 0.812500 0.750000 0.250000
v 0.812500 0.250000 0.312500
v 0.187500 0.250000 0.312500
v 0.187500 0.250000 0.250000
v 0.812500 0.250000 0.250000
v 0.250000 0.656250 0.062500
v 0.250000 0.343750 0.062500
v 0.750000 0.656250 0.062500
v 0.750000 0.343750 0.062500
v 0.375000 0.562500 0.000000
v 0.375000 0.437500 0.000000
v 0.625000 0.562500 -0.000000
v 0.625000 0.437500 -0.000000
v 0.250000 0.687500 0.312500
v 0.750000 0.687500 0.312500
v 0.250000 0.312500 0.312500
v 0.750000 0.312500 0.312500
v 0.750000 0.531250 0.250000
v 0.250000 0.531250 0.250000
v 0.250000 0.468750 0.250000
v 0.750000 0.468750 0.250000
v 0.250000 0.593750 0.125000
v 0.250000 0.593750 0.187500
v 0.750000 0.593750 0.187500
v 0.750000 0.593750 0.125000
v 0.750000 0.406250 0.187500
v 0.250000 0.406250 0.187500
v 0.250000 0.406250 0.125000
v 0.750000 0.406250 0.125000
v 0.187500 0.437500 0.250000
v 0.187500 0.562500 0.250000
v 0.187500 0.562500 0.000000
v 0.187500 0.437500 0.000000
v 0.812500 0.562500 -0.000000
v 0.812500 0.562500 0.250000
v 0.812500 0.437500 0.250000
v 0.812500 0.437500 -0.000000
v 0.187500 0.562500 0.000000
v 0.187500 0.562500 0.250000
v 0.187500 0.437500 0.250000
v 0.187500 0.437500 0.000000
v 0.812500 0.437500 0.250000
v 0.812500 0.562500 0.250000
v 0.812500 0.562500 -0.000000
v 0.812500 0.437500 -0.000000
vt 0.187500 0.187500
vt 0.187500 0.312500
vt 0.437500 0.312500
vt 0.437500 0.187500
vt 0.000000 0.500000
vt 0.000000 0.453125
vt 0.625000 0.453125
vt 0.625000 0.500000
vt 0.625000 0.046875
vt 0.000000 0.046875
vt 0.000000 0.000000
vt 0.625000 0.000000
vt 0.046875 0.000000
vt 0.046875 0.500000
vt 0.578125 0.500000
vt 0.578125 0.000000
vt 0.812500 0.093750
vt 0.812500 0.406250
vt 0.562500 0.687500
vt 0.062500 0.687500
vt 0.937500 0.187500
vt 0.937500 0.312500
vt 0.437500 0.812500
vt 0.187500 0.812500
vt 0.062500 0.453125
vt 0.562500 0.453125
vt 0.046875 0.062500
vt 0.046875 0.437500
vt 0.562500 0.046875
vt 0.062500 0.046875
vt 0.578125 0.437500
vt 0.578125 0.062500
vt 0.125000 0.312500
vt 0.500000 0.312500
vt 0.562500 0.500000
vt 0.062500 0.500000
vt 0.187500 0.125000
vt 0.187500 0.375000
vt 0.000000 0.437500
vt 0.000000 0.062500
vt 0.500000 0.187500
vt 0.125000 0.187500
vt 0.062500 0.000000
vt 0.562500 0.000000
vt 0.437500 0.375000
vt 0.437500 0.125000
vt 0.625000 0.062500
vt 0.625000 0.437500
vt 1.000000 0.750000
vt 0.750000 0.750000
vt 0.750000 0.687500
vt 1.000000 0.687500
vt 0.750000 0.875000
vt 0.750000 0.812500
vt 1.000000 0.812500
vt 1.000000 0.875000
vt 1.000000 0.625000
vt 0.750000 0.625000
vt 0.750000 0.562500
vt 1.000000 0.562500
vt 1.000000 0.890625
vt 1.000000 0.984375
vt 0.750000 0.984375
vt 0.750000 0.890625
vt 0.250000 0.984375
vt 0.000000 0.984375
vt 0.000000 0.890625
vt 0.250000 0.890625
vt 0.625000 1.000000
vt 0.375000 1.000000
vt 0.375000 0.875000
vt 0.625000 0.875000
vn 0.000000 -0.000000 1.000000
vn 0.000000 1.000000 0.000000
vn -0.000000 -1.000000 0.000000
vn -1.000000 0.000000 0.000000
vn 1.000000 0.000000 -0.000000
vn -0.948700 0.000000 -0.316200
vn -0.000000 0.894400 -0.447200
vn 0.948700 0.000000 -0.316200
vn -0.000000 -0.894400 -0.447200
vn -0.447200 0.000000 -0.894400
vn -0.000000 0.554700 -0.832100
vn 0.447200 0.000000 -0.894400
vn -0.000000 -0.554700 -0.832100
vn 0.000000 -0.948700 0.316200
vn 0.948700 -0.000000 0.316200
vn 0.000000 0.948700 0.316200
vn -0.948700 0.000000 0.316200
vn 0.000000 0.707100 0.707100
vn 0.000000 -0.707100 0.707100
vn -0.000000 0.000000 -1.000000
usemtl lamp
s off
f 1/1/1 2/2/1 3/3/1
f 1/1/1 3/3/1 4/4/1
f 5/5/2 6/6/2 7/7/2
f 5/5/2 7/7/2 8/8/2
f 9/9/3 10/10/3 11/11/3
f 9/9/3 11/11/3 12/12/3
f 10/13/4 6/14/4 5/5/4
f 10/13/4 5/5/4 11/11/4
f 8/8/5 7/15/5 9/16/5
f 8/8/5 9/16/5 12/12/5
f 13/17/6 14/18/6 11/8/6
f 13/17/6 11/8/6 5/12/6
f 15/19/7 13/20/7 5/5/7
f 15/19/7 5/5/7 8/8/7
f 16/17/8 15/18/8 8/8/8
f 16/17/8 8/8/8 12/12/8
f 14/19/9 16/20/9 12/5/9
f 14/19/9 12/5/9 11/8/9
f 17/21/10 18/22/10 14/18/10
f 17/21/10 14/18/10 13/17/10
f 19/23/11 17/24/11 13/20/11
f 19/23/11 13/20/11 15/19/11
f 20/21/12 19/22/12 15/18/12
f 20/21/12 15/18/12 16/17/12
f 18/23/13 20/24/13 16/20/13
f 18/23/13 16/20/13 14/19/13
f 21/25/1 22/26/1 7/8/1
f 21/25/1 7/8/1 6/5/1
f 23/27/1 21/28/1 6/5/1
f 23/27/1 6/5/1 10/11/1
f 24/29/1 23/30/1 10/11/1
f 24/29/1 10/11/1 9/12/1
f 22/31/1 24/32/1 9/12/1
f 22/31/1 9/12/1 7/8/1
f 2/33/14 1/34/14 22/35/14
f 2/33/14 22/35/14 21/36/14
f 3/37/15 2/38/15 21/39/15
f 3/37/15 21/39/15 23/40/15
f 4/41/16 3/42/16 23/43/16
f 4/41/16 23/43/16 24/44/16
f 1/45/17 4/46/17 24/47/17
f 1/45/17 24/47/17 22/48/17
f 25/49/1 26/50/1 27/51/1
f 25/49/1 27/51/1 28/52/1
f 29/53/2 30/54/2 31/55/2
f 29/53/2 31/55/2 32/56/2
f 33/57/3 34/58/3 35/59/3
f 33/57/3 35/59/3 36/60/3
f 31/55/18 30/54/18 26/50/18
f 31/55/18 26/50/18 25/49/18
f 34/58/19 33/57/19 28/52/19
f 34/58/19 28/52/19 27/51/19
f 37/61/4 38/62/4 39/63/4
f 37/61/4 39/63/4 40/64/4
f 41/65/5 42/66/5 43/67/5
f 41/65/5 43/67/5 44/68/5
f 45/63/5 46/62/5 47/61/5
f 45/63/5 47/61/5 48/64/5
f 49/67/4 50/66/4 51/65/4
f 49/67/4 51/65/4 52/68/4
f 17/69/20 19/70/20 20/71/20
f 17/69/20 20/71/20 18/72/20
