mtllib fluorescent_lamp_south_single.mtl
o FluoroSingle
v 0.125000 0.187500 0.125000
v 0.312500 0.187500 0.125000
v 0.312500 0.812500 0.125000
v 0.125000 0.812500 0.125000
v 0.125000 0.812500 0.062500
v 0.125000 0.187500 0.062500
v 0.875000 0.812500 0.062500
v 0.875000 0.812500 0.125000
v 0.875000 0.187500 0.125000
v 0.875000 0.187500 0.062500
v 0.125000 0.750000 0.000000
v 0.125000 0.250000 0.000000
v 0.875000 0.250000 -0.000000
v 0.875000 0.750000 -0.000000
v 0.687500 0.812500 0.125000
v 0.687500 0.187500 0.125000
v 0.312500 0.187500 0.062500
v 0.687500 0.187500 0.062500
v 0.312500 0.250000 0.000000
v 0.687500 0.250000 -0.000000
v 0.687500 0.812500 0.062500
v 0.687500 0.750000 -0.000000
v 0.312500 0.812500 0.062500
v 0.312500 0.750000 0.000000
vt 0.000000 0.000000
vt 0.187500 0.000000
vt 0.187500 0.625000
vt 0.000000 0.625000
vt 0.187500 0.750000
vt 0.812500 0.750000
vt 0.812500 0.812500
vt 0.187500 0.812500
vt 0.750000 0.875000
vt 0.250000 0.875000
vt 1.000000 0.625000
vt 0.812500 0.625000
vt 0.812500 0.000000
vt 1.000000 0.000000
vt 0.687500 0.687500
vt 0.312500 0.687500
vt 0.312500 0.625000
vt 0.687500 0.625000
vt 0.687500 0.750000
vt 0.312500 0.750000
vt 1.000000 0.687500
vt 0.812500 0.687500
vt 1.000000 0.750000
vt 0.187500 0.687500
vt 0.000000 0.687500
vt 0.000000 0.750000
vt 0.312500 0.000000
vt 0.687500 0.000000
vt 0.750000 0.812500
vt 0.250000 0.812500
vn 0.000000 -0.000000 1.000000
vn -1.000000 0.000000 0.000000
vn 1.000000 0.000000 -0.000000
vn -0.000000 -1.000000 0.000000
vn -0.000000 -0.707100 -0.707100
vn 0.000000 1.000000 0.000000
vn -0.000000 0.707100 -0.707100
vn -0.000000 0.000000 -1.000000
usemtl lamp
s off
f 1/1/1 2/2/1 3/3/1
f 1/1/1 3/3/1 4/4/1
f 1/5/2 4/6/2 5/7/2
f 1/5/2 5/7/2 6/8/2
f 7/8/3 8/5/3 9/6/3
f 7/8/3 9/6/3 10/7/3
f 11/9/2 12/10/2 6/8/2
f 11/9/2 6/8/2 5/7/2
f 13/9/3 14/10/3 7/8/3
f 13/9/3 7/8/3 10/7/3
f 8/11/1 15/12/1 16/13/1
f 8/11/1 16/13/1 9/14/1
f 17/15/4 18/16/4 16/17/4
f 17/15/4 16/17/4 2/18/4
f 19/19/5 20/20/5 18/16/5
f 19/19/5 18/16/5 17/15/5
f 7/21/6 21/22/6 15/12/6
f 7/21/6 15/12/6 8/11/6
f 14/23/7 22/6/7 21/22/7
f 14/23/7 21/22/7 7/21/7
f 21/15/6 23/16/6 3/17/6
f 21/15/6 3/17/6 15/18/6
f 22/19/7 24/20/7 23/16/7
f 22/19/7 23/16/7 21/15/7
f 4/4/6 3/3/6 23/24/6
f 4/4/6 23/24/6 5/25/6
f 5/25/7 23/24/7 24/5/7
f 5/25/7 24/5/7 11/26/7
f 2/27/1 16/28/1 15/18/1
f 2/27/1 15/18/1 3/17/1
f 6/21/4 17/22/4 2/12/4
f 6/21/4 2/12/4 1/11/4
f 12/23/5 19/6/5 17/22/5
f 12/23/5 17/22/5 6/21/5
f 9/4/4 16/3/4 18/24/4
f 9/4/4 18/24/4 10/25/4
f 10/25/5 18/24/5 20/5/5
f 10/25/5 20/5/5 13/26/5
f 11/29/8 14/9/8 13/10/8
f 11/29/8 13/10/8 12/30/8
