# ported from Hbm-s-Nuclear-Tech-GIT (1.7.10), facing baked for the NORTH reference
mtllib charger.mtl
usemtl default
v -0.023437 0.50145 0.266762
v -0.016573 0.517861 0.269068
v 0 0.524659 0.270024
v 0.016573 0.517861 0.269068
v 0.023438 0.50145 0.266762
v 0.016573 0.485038 0.264455
v 0 0.47824 0.2635
v -0.016573 0.485038 0.264455
v 0 0.28125 0.40625
v 0.044194 0.28125 0.387944
v 0.0625 0.28125 0.34375
v 0.044194 0.28125 0.299556
v 0 0.28125 0.28125
v 0 0.28125 0.375
v 0.022097 0.28125 0.365847
v 0.03125 0.28125 0.34375
v 0.022097 0.28125 0.321653
v 0 0.28125 0.3125
v 0.044194 0.53125 0.387944
v 0 0.53125 0.40625
v 0.0625 0.53125 0.34375
v 0.044194 0.53125 0.299556
v 0 0.53125 0.28125
v 0.022097 0.53125 0.365847
v 0 0.53125 0.375
v 0.03125 0.53125 0.34375
v 0.022097 0.53125 0.321653
v 0 0.53125 0.3125
v 0 0.28125 0.40625
v 0.044194 0.28125 0.387944
v 0.0625 0.28125 0.34375
v 0.044194 0.28125 0.299556
v 0 0.28125 0.28125
v 0 0.28125 0.375
v 0.022097 0.28125 0.365847
v 0.03125 0.28125 0.34375
v 0.022097 0.28125 0.321653
v 0 0.28125 0.3125
v 0.044194 0.53125 0.387944
v 0 0.53125 0.40625
v 0.0625 0.53125 0.34375
v 0.044194 0.53125 0.299556
v 0 0.53125 0.28125
v 0.022097 0.53125 0.365847
v 0 0.53125 0.375
v 0.03125 0.53125 0.34375
v 0.022097 0.53125 0.321653
v 0 0.53125 0.3125
v -0.0625 0.28125 0.34375
v -0.044194 0.28125 0.387944
v 0 0.28125 0.40625
v 0 0.28125 0.28125
v -0.044194 0.28125 0.299556
v -0.03125 0.28125 0.34375
v -0.022097 0.28125 0.365847
v 0 0.28125 0.375
v 0 0.28125 0.3125
v -0.022097 0.28125 0.321653
v -0.044194 0.53125 0.387944
v -0.0625 0.53125 0.34375
v 0 0.53125 0.40625
v -0.044194 0.53125 0.299556
v 0 0.53125 0.28125
v -0.022097 0.53125 0.365847
v -0.03125 0.53125 0.34375
v 0 0.53125 0.375
v -0.022097 0.53125 0.321653
v 0 0.53125 0.3125
v -0.03125 0.28125 0.34375
v -0.022097 0.28125 0.365847
v 0 0.28125 0.375
v 0 0.28125 0.3125
v -0.022097 0.28125 0.321653
v -0.022097 0.53125 0.365847
v -0.03125 0.53125 0.34375
v 0 0.53125 0.375
v -0.022097 0.53125 0.321653
v 0 0.53125 0.3125
v -0.0625 0.28125 0.34375
v -0.044194 0.28125 0.387944
v 0 0.28125 0.40625
v 0 0.28125 0.28125
v -0.044194 0.28125 0.299556
v -0.044194 0.53125 0.387944
v -0.0625 0.53125 0.34375
v 0 0.53125 0.40625
v -0.044194 0.53125 0.299556
v 0 0.53125 0.28125
v -0.0625 0.28125 0.34375
v -0.044194 0.28125 0.387944
v 0 0.28125 0.40625
v 0.044194 0.28125 0.387944
v 0.0625 0.28125 0.34375
v 0.044194 0.28125 0.299556
v 0 0.28125 0.28125
v -0.044194 0.28125 0.299556
v -0.0625 0.25 0.34375
v -0.044194 0.25 0.387944
v 0 0.25 0.40625
v 0.044194 0.25 0.387944
v 0.0625 0.25 0.34375
v 0.044194 0.25 0.299556
v 0 0.25 0.28125
v -0.044194 0.25 0.299556
v -0.03125 0.28125 0.34375
v -0.022097 0.28125 0.365847
v 0 0.28125 0.375
v 0.022097 0.28125 0.365847
v 0.03125 0.28125 0.34375
v 0.022097 0.28125 0.321653
v 0 0.28125 0.3125
v -0.022097 0.28125 0.321653
v -0.03125 0.65625 0.34375
v -0.022097 0.65625 0.365847
v 0 0.65625 0.375
v 0.022097 0.65625 0.365847
v 0.03125 0.65625 0.34375
v 0.022097 0.65625 0.321653
v 0 0.65625 0.3125
v -0.022097 0.65625 0.321653
v -0.0625 0.25 0.34375
v -0.044194 0.25 0.387944
v 0 0.25 0.40625
v 0.044194 0.25 0.387944
v 0.0625 0.25 0.34375
v 0.044194 0.25 0.299556
v 0 0.25 0.28125
v -0.044194 0.25 0.299556
v -0.0625 0.28125 0.34375
v -0.044194 0.28125 0.387944
v 0 0.28125 0.40625
v 0.044194 0.28125 0.387944
v 0.0625 0.28125 0.34375
v 0.044194 0.28125 0.299556
v 0 0.28125 0.28125
v -0.044194 0.28125 0.299556
v -0.03125 0.28125 0.34375
v -0.022097 0.28125 0.365847
v 0 0.28125 0.375
v 0.022097 0.28125 0.365847
v 0.03125 0.28125 0.34375
v 0.022097 0.28125 0.321653
v 0 0.28125 0.3125
v -0.022097 0.28125 0.321653
v -0.1875 0.46875 0.375
v 0.1875 0.46875 0.375
v 0.1875 0.53125 0.375
v -0.1875 0.53125 0.375
v 0.1875 0.75 0.5
v 0.1875 0.25 0.5
v -0.1875 0.75 0.5
v -0.1875 0.25 0.5
v -0.1875 0.75 0.4375
v 0.1875 0.75 0.4375
v 0.1875 0.25 0.4375
v -0.1875 0.25 0.4375
v -0.1875 0.40625 0.4375
v 0.1875 0.40625 0.4375
v 0.1875 0.59375 0.4375
v -0.1875 0.59375 0.4375
v 0.125 0.71875 0.4375
v 0.125 0.28125 0.4375
v -0.125 0.71875 0.4375
v -0.125 0.28125 0.4375
v -0.125 0.71875 0.375
v 0.125 0.71875 0.375
v 0.125 0.28125 0.3125
v -0.125 0.28125 0.3125
v -0.088388 0.28125 0.268306
v -0.088388 0.71875 0.330806
v 0 0.28125 0.25
v 0 0.71875 0.3125
v 0.088388 0.28125 0.268306
v 0.088388 0.71875 0.330806
v -0.125 0.625 0.4375
v -0.125 0.625 0.375
v -0.15625 0.625 0.4375
v -0.15625 0.625 0.40625
v -0.125 0.65625 0.375
v -0.15625 0.65625 0.4375
v -0.15625 0.65625 0.40625
v -0.125 0.65625 0.4375
v -0.125 0.34375 0.4375
v -0.125 0.34375 0.375
v -0.15625 0.34375 0.4375
v -0.15625 0.34375 0.40625
v -0.125 0.375 0.375
v -0.15625 0.375 0.4375
v -0.15625 0.375 0.40625
v -0.125 0.375 0.4375
v 0.125 0.625 0.4375
v 0.125 0.625 0.375
v 0.15625 0.625 0.4375
v 0.15625 0.625 0.40625
v 0.125 0.65625 0.375
v 0.15625 0.65625 0.4375
v 0.15625 0.65625 0.40625
v 0.125 0.65625 0.4375
v 0.125 0.34375 0.4375
v 0.125 0.34375 0.375
v 0.15625 0.34375 0.4375
v 0.15625 0.34375 0.40625
v 0.125 0.375 0.375
v 0.15625 0.375 0.4375
v 0.15625 0.375 0.40625
v 0.125 0.375 0.4375
v -0.046875 0.497101 0.297708
v -0.033146 0.529924 0.302321
v 0 0.543519 0.304231
v 0.033146 0.529924 0.302321
v 0.046875 0.497101 0.297708
v 0.033146 0.464278 0.293095
v 0 0.450682 0.291184
v -0.033146 0.464278 0.293095
v -0.046875 0.50145 0.266762
v -0.033146 0.534273 0.271375
v 0 0.547869 0.273285
v 0.033146 0.534273 0.271375
v 0.046875 0.50145 0.266762
v 0.033146 0.468627 0.262149
v 0 0.455031 0.260238
v -0.033146 0.468627 0.262149
v 0.125 0.28125 0.4375
v -0.125 0.28125 0.4375
v 0.125 0.28125 0.3125
v -0.125 0.28125 0.3125
v -0.088388 0.28125 0.268306
v 0 0.28125 0.25
v 0.088388 0.28125 0.268306
v 0.125 0.71875 0.4375
v -0.125 0.71875 0.4375
v -0.125 0.71875 0.375
v 0.125 0.71875 0.375
v -0.088388 0.71875 0.330806
v 0 0.71875 0.3125
v 0.088388 0.71875 0.330806
v -0.1875 0.46875 0.375
v 0.1875 0.46875 0.375
v 0.1875 0.53125 0.375
v -0.1875 0.53125 0.375
v -0.1875 0.40625 0.4375
v 0.1875 0.40625 0.4375
v 0.1875 0.59375 0.4375
v -0.1875 0.59375 0.4375
v -0.046875 0.50145 0.266762
v -0.033146 0.534273 0.271375
v 0 0.547869 0.273285
v 0.033146 0.534273 0.271375
v 0.046875 0.50145 0.266762
v 0.033146 0.468627 0.262149
v 0 0.455031 0.260238
v -0.033146 0.468627 0.262149
v -0.023437 0.50145 0.266762
v -0.016573 0.517861 0.269068
v 0 0.524659 0.270024
v 0.016573 0.517861 0.269068
v 0.023438 0.50145 0.266762
v 0.016573 0.485038 0.264455
v 0 0.47824 0.2635
v -0.016573 0.485038 0.264455
vt 0.486486 0.026316
vt 0.513514 -0.000000
vt 0.540541 0.026316
vt 0.378378 -0.000000
vt 0.432432 0.026316
vt 0.378378 0.026316
vt 0.540541 -0.000000
vt 0.594595 0.026316
vt 0.459459 -0.000000
vt 0.486486 0.236842
vt 0.513514 0.263158
vt 0.486486 0.263158
vt 0.432432 0.236842
vt 0.378378 0.263158
vt 0.378378 0.236842
vt 0.594595 0.236842
vt 0.540541 0.263158
vt 0.540541 0.236842
vt 0.459459 0.263158
vt 0.432432 0.263158
vt 0.621622 0.026316
vt 0.351351 0.236842
vt 0.351351 0.026316
vt 0.486486 -0.000000
vt 0.405405 -0.000000
vt 0.567568 -0.000000
vt 0.432432 -0.000000
vt 0.405405 0.263158
vt 0.567568 0.263158
vt 0.621622 0.236842
vt 0.378378 0.473684
vt 0.405405 0.263158
vt 0.405405 0.473684
vt 0.486486 0.026316
vt 0.432432 0.236842
vt 0.432432 0.026316
vt 0.432432 0.473684
vt 0.459459 0.263158
vt 0.459459 0.473684
vt 0.540541 0.026316
vt 0.486486 0.236842
vt 0.486486 0.473684
vt 0.513514 0.263158
vt 0.513514 0.473684
vt 0.594595 0.026316
vt 0.540541 0.236842
vt 0.378378 0.236842
vt 0.378378 0.026316
vt 0.540541 0.473684
vt 0.567568 0.263158
vt 0.567568 0.473684
vt 0.378378 0.263158
vt 0.432432 0.263158
vt 0.486486 0.263158
vt 0.594595 0.236842
vt 0.540541 0.263158
vt 0.486486 0.026316
vt 0.513514 -0.000000
vt 0.540541 0.026316
vt 0.432432 -0.000000
vt 0.432432 0.026316
vt 0.567568 0.000000
vt 0.594595 0.026316
vt 0.378378 0.026316
vt 0.405405 -0.000000
vt 0.486486 0.236842
vt 0.513514 0.263158
vt 0.486486 0.263158
vt 0.432432 0.263158
vt 0.432432 0.236842
vt 0.540541 0.236842
vt 0.567568 0.263158
vt 0.540541 0.263158
vt 0.378378 0.236842
vt 0.405405 0.263158
vt 0.378378 0.263158
vt 0.351351 0.236842
vt 0.351351 0.026316
vt 0.621622 0.026316
vt 0.594595 0.236842
vt 0.486486 -0.000000
vt 0.459459 -0.000000
vt 0.540541 0.000000
vt 0.378378 -0.000000
vt 0.459459 0.263158
vt 0.621622 0.236842
vt 0.594595 0.026316
vt 0.540541 0.236842
vt 0.540541 0.026316
vt 0.486486 0.236842
vt 0.486486 0.026316
vt 0.432432 0.236842
vt 0.432432 0.026316
vt 0.378378 0.236842
vt 0.378378 0.026316
vt 0.378378 0.473684
vt 0.405405 0.263158
vt 0.405405 0.473684
vt 0.432432 0.473684
vt 0.459459 0.263158
vt 0.459459 0.473684
vt 0.486486 0.473684
vt 0.513514 0.263158
vt 0.513514 0.473684
vt 0.540541 0.473684
vt 0.567568 0.263158
vt 0.567568 0.473684
vt 0.594595 0.236842
vt 0.378378 0.263158
vt 0.432432 0.263158
vt 0.486486 0.263158
vt 0.540541 0.263158
vt 0.151586 0.089245
vt 0.136010 0.052632
vt 0.242368 0.052632
vt 0.189189 0.131579
vt 0.216216 0.157895
vt 0.189189 0.157895
vt 0.162162 0.131579
vt 0.135135 0.157895
vt 0.135135 0.131579
vt 0.297297 0.131579
vt 0.324324 0.157895
vt 0.297297 0.157895
vt 0.270270 0.157895
vt 0.270270 0.131579
vt 0.243243 0.131579
vt 0.216216 0.131579
vt 0.162162 0.157895
vt 0.324324 0.131579
vt 0.351351 0.157895
vt 0.243243 0.157895
vt 0.151586 0.016018
vt 0.189189 0.000852
vt 0.226792 0.016018
vt 0.226792 0.089245
vt 0.189189 0.104411
vt 0.351351 0.131579
vt 0.135135 0.105263
vt 0.162162 0.131579
vt 0.135135 0.131579
vt 0.297297 0.105263
vt 0.324324 0.131579
vt 0.297297 0.131579
vt 0.270270 0.105263
vt 0.270270 0.131579
vt 0.216216 0.105263
vt 0.243243 0.131579
vt 0.216216 0.131579
vt 0.162162 0.105263
vt 0.189189 0.131579
vt 0.324324 0.105263
vt 0.351351 0.131579
vt 0.243243 0.105263
vt 0.189189 0.105263
vt 0.162162 0.157895
vt 0.135135 0.473684
vt 0.135135 0.157895
vt 0.324324 0.157895
vt 0.297297 0.473684
vt 0.297297 0.157895
vt 0.270270 0.473684
vt 0.270270 0.157895
vt 0.243243 0.157895
vt 0.216216 0.473684
vt 0.216216 0.157895
vt 0.189189 0.157895
vt 0.162162 0.473684
vt 0.351351 0.157895
vt 0.324324 0.473684
vt 0.243243 0.473684
vt 0.189189 0.473684
vt 0.351351 0.105263
vt 0.351351 0.473684
vt 0.027027 0.263158
vt 0.054054 0.289474
vt 0.027027 0.289474
vt 0.540541 0.947368
vt 0.864865 0.526316
vt 0.864865 0.947368
vt 0.432432 0.526316
vt 0.108108 0.657895
vt 0.108108 0.526316
vt 0.108108 0.815789
vt 0.432432 0.947368
vt 0.108108 0.947368
vt 0.432432 0.710526
vt 0.486486 0.815789
vt 0.432432 0.763158
vt 0.432432 0.473684
vt 0.108108 0.473684
vt 0.108108 1.000000
vt 0.432432 1.000000
vt 0.027027 0.447368
vt 0.054054 0.421053
vt 0.054054 0.447368
vt 0.027027 0.421053
vt 0.054054 0.394737
vt 0.054054 0.815789
vt 0.108108 0.710526
vt 0.108108 0.763158
vt 0.486486 0.657895
vt 0.486486 0.526316
vt 0.540541 0.526316
vt 0.000000 0.526316
vt 0.054054 0.657895
vt 0.891892 0.447368
vt 0.918919 0.473684
vt 0.918919 0.526316
vt 0.054054 0.263158
vt 0.081081 0.289474
vt 0.054054 0.315789
vt 0.108108 0.289474
vt 0.081081 0.315789
vt 0.108108 0.263158
vt 0.081081 0.263158
vt 0.135135 0.263158
vt 0.054054 0.263158
vt 0.081081 0.289474
vt 0.054054 0.315789
vt 0.108108 0.289474
vt 0.081081 0.315789
vt 0.108108 0.263158
vt 0.081081 0.263158
vt 0.135135 0.263158
vt 0.135135 0.263158
vt 0.108108 0.289474
vt 0.108108 0.263158
vt 0.108108 0.315789
vt 0.081081 0.289474
vt 0.081081 0.263158
vt 0.054054 0.263158
vt 0.054054 0.315789
vt 0.135135 0.263158
vt 0.108108 0.289474
vt 0.108108 0.263158
vt 0.108108 0.315789
vt 0.081081 0.289474
vt 0.081081 0.263158
vt 0.054054 0.263158
vt 0.054054 0.315789
vt 0.918919 0.184211
vt 0.891892 0.210526
vt 0.810811 0.236842
vt 0.027027 0.315789
vt 0.054054 0.342105
vt 0.027027 0.342105
vt 0.027027 0.394737
vt 0.054054 0.368421
vt 0.027027 0.473684
vt 0.054054 0.473684
vt 0.054054 0.315789
vt 0.027027 0.368421
vt 0.054054 0.263158
vt 0.432432 0.657895
vt 0.432432 0.815789
vt 0.486486 0.947368
vt 0.054054 0.947368
vt 0.000000 0.947368
vt 0.054054 0.526316
vt 0.702703 0.526316
vt 0.810811 0.421053
vt 0.702703 0.473684
vt 0.729730 0.447368
vt 0.108108 0.315789
vt 0.135135 0.315789
vt 0.108108 0.315789
vt 0.135135 0.315789
vt 0.135135 0.315789
vt 0.081081 0.315789
vt 0.135135 0.315789
vt 0.081081 0.315789
vt 0.729730 0.210526
vt 0.702703 0.184211
vt 0.702703 0.078947
vt 0.918919 0.078947
vt 0.621622 0.236842
vt 0.675676 0.421053
vt 0.621622 0.421053
vt 1.000000 0.236842
vt 0.945946 0.421053
vt 0.891892 0.236842
vt 0.864865 0.236842
vt 0.810811 0.421053
vt 0.810811 0.236842
vt 0.756757 0.236842
vt 0.864865 0.421053
vt 0.729730 0.236842
vt 0.756757 0.421053
vt 0.729730 0.421053
vt 0.000000 0.447368
vt 0.027027 0.473684
vt 0.000000 0.473684
vt 0.000000 0.315789
vt 0.027027 0.289474
vt 0.027027 0.315789
vt 0.000000 0.368421
vt 0.027027 0.342105
vt 0.027027 0.368421
vt 0.000000 0.394737
vt 0.027027 0.421053
vt 0.000000 0.421053
vt 0.027027 0.447368
vt 0.000000 0.289474
vt 0.027027 0.263158
vt 0.000000 0.342105
vt 0.027027 0.394737
vt 0.108108 0.710526
vt 0.432432 0.763158
vt 0.108108 0.763158
vt 0.108108 0.657895
vt 0.432432 0.710526
vt 0.432432 0.815789
vt 1.000000 0.421053
vt 0.891892 0.421053
vt 0.000000 0.263158
vt 0.432432 0.657895
vt 0.108108 0.815789
vn 0 0.1392 -0.9903
vn 0 -1 0
vn 0 1 0
vn -1 0 0
vn -0.3827 0 -0.9239
vn -0.7071 0 -0.7071
vn 1 0 0
vn 0.7071 0 0.7071
vn 0.7071 0 -0.7071
vn -0.7071 0 0.7071
vn 0.3827 0 -0.9239
vn 0.3827 0 0.9239
vn -0.3827 0 0.9239
vn 0 -1 0
vn 0 1 0
vn 1 0 0
vn -0.3827 0 0.9239
vn -0.7071 0 0.7071
vn -1 0 0
vn -0.7071 0 -0.7071
vn -0.3827 0 -0.9239
vn 0.3827 0 0.9239
vn 0.7071 0 0.7071
vn 0.7071 0 -0.7071
vn 0.3827 0 -0.9239
vn 0 -1 0
vn 0 1 0
vn 0 0 1
vn 0.7071 0 0.7071
vn -1 0 0
vn -0.7071 0 0.7071
vn -0.7071 0 -0.7071
vn 0.7071 0 -0.7071
vn 0 0 -1
vn 1 0 0
vn 0 0.1392 -0.9903
vn 0 0 1
vn 0 0 -1
vn -1 0 0
vn 0 -1 0
vn 0 1 0
vn 1 0 0
vn -0.7071 0 -0.7071
vn 0.7071 0 -0.7071
vn 0.9493 0.0444 -0.3111
vn -0.9493 0.0444 -0.3111
vn -0.9295 0.0522 -0.3651
vn -0.4989 0.1225 -0.8579
vn 0 0.1414 -0.9899
vn 0.4989 0.1225 -0.8579
vn -0.5253 0.1203 -0.8424
vn 0.9295 0.0522 -0.3651
vn 0.5253 0.1203 -0.8424
vn -0.7071 -0.7002 -0.0984
vn 0 -0.9903 -0.1392
vn 0.7071 -0.7002 -0.0984
vn 0 0.9903 0.1392
vn 0.7071 0.7002 0.0984
vn -0.7071 0.7002 0.0984
vn 0 -0.3827 -0.9239
vn 0 0.3827 -0.9239
vn 0 -0.7071 -0.7071
vn 0 0.7071 -0.7071
o Base
f 251/175/36 258/176/36 250/177/36
f 151/178/37 150/179/37 149/180/37
f 156/181/38 158/182/38 155/183/38
f 159/184/38 153/185/38 154/186/38
f 145/187/39 160/188/39 148/189/39
f 152/190/40 155/183/40 150/191/40
f 149/192/41 153/185/41 151/193/41
f 252/194/36 253/195/36 260/196/36
f 245/197/36 254/198/36 253/195/36
f 159/199/42 146/200/42 147/201/42
f 157/202/39 156/203/39 152/204/39
f 150/205/42 158/206/42 159/199/42
f 234/207/41 232/208/41 231/209/41
f 175/210/40 178/211/40 176/212/40
f 181/213/43 176/214/43 178/211/43
f 180/215/39 178/211/39 177/216/39
f 182/217/41 181/213/41 180/215/41
f 183/218/40 186/219/40 184/220/40
f 189/221/43 184/222/43 186/219/43
f 188/223/39 186/219/39 185/224/39
f 190/225/41 189/221/41 188/223/41
f 191/226/40 194/227/40 193/228/40
f 192/229/44 197/230/44 194/227/44
f 194/227/42 196/231/42 193/228/42
f 198/232/41 197/230/41 195/233/41
f 199/234/40 202/235/40 201/236/40
f 200/237/44 205/238/44 202/235/44
f 202/235/42 204/239/42 201/236/42
f 206/240/41 205/238/41 203/241/41
f 226/242/40 227/243/40 228/244/40
f 249/245/36 256/246/36 248/247/36
f 246/248/36 255/249/36 254/198/36
f 251/250/36 260/196/36 259/251/36
f 250/177/36 257/252/36 249/245/36
f 248/247/36 255/249/36 247/253/36
f 251/175/36 259/254/36 258/176/36
f 151/178/37 152/204/37 150/179/37
f 156/181/38 157/255/38 158/182/38
f 159/184/38 160/256/38 153/185/38
f 145/187/39 157/202/39 160/188/39
f 152/190/40 156/181/40 155/183/40
f 149/192/41 154/186/41 153/185/41
f 252/194/36 245/197/36 253/195/36
f 245/197/36 246/248/36 254/198/36
f 159/199/42 158/206/42 146/200/42
f 152/204/39 151/178/39 160/188/39
f 151/178/39 153/257/39 160/188/39
f 160/188/39 157/202/39 152/204/39
f 154/258/42 149/259/42 159/199/42
f 149/259/42 150/205/42 159/199/42
f 150/205/42 155/260/42 158/206/42
f 231/209/41 230/261/41 235/262/41
f 230/261/41 233/263/41 236/264/41
f 235/262/41 230/261/41 236/264/41
f 235/262/41 234/207/41 231/209/41
f 175/210/40 177/216/40 178/211/40
f 181/213/43 179/265/43 176/214/43
f 180/215/39 181/213/39 178/211/39
f 182/217/41 179/266/41 181/213/41
f 183/218/40 185/224/40 186/219/40
f 189/221/43 187/267/43 184/222/43
f 188/223/39 189/221/39 186/219/39
f 190/225/41 187/268/41 189/221/41
f 191/226/40 192/269/40 194/227/40
f 192/229/44 195/270/44 197/230/44
f 194/227/42 197/230/42 196/231/42
f 198/232/41 196/231/41 197/230/41
f 199/234/40 200/271/40 202/235/40
f 200/237/44 203/272/44 205/238/44
f 202/235/42 205/238/42 204/239/42
f 206/240/41 204/239/41 205/238/41
f 229/273/40 225/274/40 228/244/40
f 225/274/40 223/275/40 228/244/40
f 223/275/40 224/276/40 228/244/40
f 224/276/40 226/242/40 228/244/40
f 249/245/36 257/252/36 256/246/36
f 246/248/36 247/253/36 255/249/36
f 251/250/36 252/194/36 260/196/36
f 250/177/36 258/176/36 257/252/36
f 248/247/36 256/246/36 255/249/36
f 162/277/42 166/278/45 161/279/42
f 164/280/39 165/281/46 168/282/47
f 169/283/48 172/284/49 171/285/49
f 172/284/49 173/286/50 171/285/49
f 168/282/47 170/287/51 169/283/48
f 167/288/52 174/289/53 166/290/45
f 214/291/54 221/292/55 213/293/55
f 211/294/42 220/295/56 219/296/42
f 209/297/57 218/298/58 217/299/57
f 208/300/59 215/301/39 207/302/39
f 214/291/54 215/301/39 222/303/54
f 212/304/56 221/305/55 220/295/56
f 211/294/42 218/298/58 210/306/58
f 209/297/57 216/307/59 208/300/59
f 238/308/60 240/309/61 239/310/61
f 242/311/62 237/312/60 238/308/60
f 244/313/63 239/310/61 240/309/61
f 162/277/42 167/288/52 166/278/45
f 164/280/39 163/314/39 165/281/46
f 169/283/48 170/287/51 172/284/49
f 172/284/49 174/289/53 173/286/50
f 168/282/47 165/315/46 170/287/51
f 167/288/52 173/286/50 174/289/53
f 214/291/54 222/303/54 221/292/55
f 211/294/42 212/304/56 220/295/56
f 209/297/57 210/306/58 218/298/58
f 208/300/59 216/307/59 215/301/39
f 214/291/54 207/302/39 215/301/39
f 212/304/56 213/316/55 221/305/55
f 211/294/42 219/296/42 218/298/58
f 209/297/57 217/299/57 216/307/59
f 238/308/60 237/312/60 240/309/61
f 242/311/62 241/317/62 237/312/60
f 244/313/63 243/318/63 239/310/61
