mtllib crt.mtl
v 0.937500 0.875000 0.125000
v 0.937500 0.125000 0.875000
v 0.937500 0.125000 0.125000
v 0.937500 0.875000 0.875000
v 1.000000 0.000000 0.000000
v 0.500000 1.000000 0.000000
v 1.000000 1.000000 0.000000
v 1.000000 0.125000 0.875000
v 0.937500 0.875000 0.875000
v 1.000000 0.875000 0.875000
v 1.000000 0.125000 0.125000
v 1.000000 0.000000 1.000000
v 1.000000 1.000000 1.000000
v 1.000000 0.875000 0.125000
v 0.937500 0.875000 0.125000
v 0.937500 0.125000 0.125000
v 0.937500 0.125000 0.875000
v 0.500000 0.000000 0.000000
v 0.500000 0.000000 1.000000
v 0.500000 1.000000 1.000000
v 0.000000 0.250000 0.750000
v 0.000000 0.750000 0.250000
v 0.000000 0.250000 0.250000
v 0.000000 0.750000 0.750000
vt 0.437500 0.437500
vt 0.062500 0.062500
vt 0.437500 0.062500
vt 0.062500 0.437500
vt 1.000000 0.000000
vt 0.500000 0.250000
vt 0.500000 0.000000
vt 0.031250 0.062500
vt 0.062500 0.437500
vt 0.031250 0.437500
vt 0.500000 0.500000
vt 0.437500 0.062500
vt 0.500000 0.000000
vt 0.062500 0.062500
vt 0.000000 0.000000
vt 0.062500 0.437500
vt 0.000000 0.500000
vt 0.437500 0.437500
vt 0.062500 0.468750
vt 0.437500 0.437500
vt 0.437500 0.468750
vt 0.468750 0.437500
vt 0.437500 0.062500
vt 0.468750 0.062500
vt 0.437500 0.031250
vt 0.062500 0.062500
vt 0.062500 0.031250
vt 1.000000 0.000000
vt 0.500000 0.250000
vt 1.000000 0.000000
vt 0.500000 0.250000
vt 0.500000 -0.000000
vt 1.000000 -0.000000
vt 0.500000 0.250000
vt 0.500000 0.000000
vt 0.625000 0.750000
vt 0.875000 0.500000
vt 0.875000 0.750000
vt 1.000000 0.250000
vt 0.625000 0.500000
vt 1.000000 0.250000
vt 0.625000 0.500000
vt 1.000000 0.250000
vt 0.625000 0.500000
vt 1.000000 0.250000
vt 0.625000 0.500000
vt 0.875000 0.500000
vt 0.875000 0.500000
vt 0.875000 0.500000
vn 1.000000 0.000000 0.000000
vn 0.000000 0.000000 -1.000000
vn 1.000000 0.000000 0.000000
vn 0.000000 -1.000000 0.000000
vn 0.000000 0.000000 1.000000
vn 0.000000 1.000000 0.000000
vn -1.000000 0.000000 0.000000
vn -0.447200 0.000000 -0.894400
vn -0.447200 -0.894400 0.000000
vn -0.447200 0.000000 0.894400
vn -0.447200 0.894400 0.000000
o Screen
usemtl screen
s off
f 1/1/1 2/2/1 3/3/1
f 1/1/1 4/4/1 2/2/1
o Monitor
usemtl texture
s off
f 5/5/2 6/6/2 7/7/2
f 8/8/2 9/9/2 10/10/2
f 7/11/3 11/12/3 5/13/3
f 5/13/3 8/14/3 12/15/3
f 12/15/3 10/16/3 13/17/3
f 13/17/3 14/18/3 7/11/3
f 10/19/4 15/20/4 14/21/4
f 14/22/5 16/23/5 11/24/5
f 11/25/6 17/26/6 8/27/6
f 12/28/4 18/29/4 5/13/4
f 13/30/5 19/31/5 12/32/5
f 7/33/6 20/34/6 13/35/6
f 21/36/7 22/37/7 23/38/7
f 18/39/8 22/40/8 6/6/8
f 19/41/9 23/42/9 18/29/9
f 20/43/10 21/44/10 19/31/10
f 6/45/11 24/46/11 20/34/11
f 5/5/2 18/39/2 6/6/2
f 8/8/2 17/26/2 9/9/2
f 7/11/3 14/18/3 11/12/3
f 5/13/3 11/12/3 8/14/3
f 12/15/3 8/14/3 10/16/3
f 13/17/3 10/16/3 14/18/3
f 10/19/4 9/9/4 15/20/4
f 14/22/5 15/20/5 16/23/5
f 11/25/6 16/23/6 17/26/6
f 12/28/4 19/41/4 18/29/4
f 13/30/5 20/43/5 19/31/5
f 7/33/6 6/45/6 20/34/6
f 21/36/7 24/46/7 22/37/7
f 18/39/8 23/47/8 22/40/8
f 19/41/9 21/48/9 23/42/9
f 20/43/10 24/49/10 21/44/10
f 6/45/11 22/37/11 24/46/11
