mtllib deco_computer.mtl
v 0.187500 0.812500 0.562500
v 0.125000 0.312500 0.562500
v 0.187500 0.375000 0.562500
v 0.187500 0.812500 0.500000
v 0.812500 0.375000 0.562500
v 0.187500 0.375000 0.500000
v 0.875000 0.312500 0.562500
v 0.250000 0.750000 0.562500
v 0.250000 0.437500 0.562500
v 0.812500 0.375000 0.500000
v 0.750000 0.437500 0.562500
v 0.812500 0.812500 0.500000
v 0.750000 0.750000 0.562500
v 0.812500 0.812500 0.562500
v 0.875000 0.875000 0.562500
v 0.125000 0.875000 0.562500
v 0.875000 0.875000 0.187500
v 0.875000 0.312500 0.187500
v 0.125000 0.875000 0.187500
v 0.125000 0.312500 0.187500
v 0.187500 0.812500 0.187500
v 0.812500 0.812500 0.187500
v 0.187500 0.312500 0.187500
v 0.187500 0.750000 0.000000
v 0.187500 0.312500 0.000000
v 0.812500 0.312500 0.000000
v 0.812500 0.312500 0.187500
v 0.812500 0.750000 0.000000
v 0.875000 0.000000 0.687500
v 0.125000 0.000000 1.000000
v 0.125000 0.000000 0.687500
v 0.125000 0.062500 1.000000
v 0.875000 0.062500 1.000000
v 0.875000 0.000000 1.000000
v 0.125000 0.125000 0.687500
v 0.875000 0.125000 0.687500
v 0.875000 0.000000 0.000000
v 0.125000 0.000000 0.625000
v 0.125000 0.000000 0.000000
v 0.125000 0.187500 0.625000
v 0.875000 0.187500 0.625000
v 0.875000 0.000000 0.625000
v 0.875000 0.187500 0.000000
v 0.125000 0.187500 0.000000
v 0.500000 0.312500 0.187500
v 0.608253 0.250000 0.250000
v 0.500000 0.250000 0.187500
v 0.391747 0.312500 0.250000
v 0.391747 0.250000 0.250000
v 0.391747 0.312500 0.375000
v 0.391747 0.250000 0.375000
v 0.500000 0.312500 0.437500
v 0.500000 0.250000 0.437500
v 0.608253 0.312500 0.375000
v 0.608253 0.250000 0.375000
v 0.608253 0.312500 0.250000
v 0.250000 0.250000 0.500000
v 0.187500 0.187500 0.062500
v 0.187500 0.187500 0.562500
v 0.750000 0.250000 0.500000
v 0.812500 0.187500 0.562500
v 0.750000 0.250000 0.125000
v 0.812500 0.187500 0.062500
v 0.250000 0.250000 0.125000
vt 0.106061 0.893939
vt 0.090909 0.772727
vt 0.106061 0.787879
vt 0.378788 0.787879
vt 0.393939 0.893939
vt 0.378788 0.893939
vt 0.545455 0.757576
vt 0.363636 0.772727
vt 0.363636 0.757576
vt 0.272727 0.772727
vt 0.257576 0.787879
vt 0.121212 0.878788
vt 0.121212 0.803030
vt 0.242424 0.803030
vt 0.257576 0.893939
vt 0.242424 0.878788
vt 0.530303 0.893939
vt 0.515152 0.787879
vt 0.530303 0.787879
vt 0.545455 0.909091
vt 0.363636 0.924242
vt 0.363636 0.909091
vt 0.272727 0.909091
vt 0.090909 0.909091
vt 0.090909 1.000000
vt 0.272727 1.000000
vt 0.000000 0.772727
vt 0.545455 0.772727
vt 0.803030 0.848485
vt 0.757576 0.954545
vt 0.757576 0.848485
vt 0.606061 1.000000
vt 0.757576 1.000000
vt 0.606061 0.848485
vt 0.560606 0.848485
vt 0.606061 0.954545
vt 0.560606 0.969697
vt 0.757576 0.803030
vt 0.606061 0.803030
vt 0.378788 0.772727
vt 0.272727 0.681818
vt 0.090909 0.681818
vt 0.621212 0.560606
vt 0.439394 0.636364
vt 0.439394 0.560606
vt 0.439394 0.651515
vt 0.363636 0.636364
vt 0.621212 0.651515
vt 0.621212 0.636364
vt 0.696970 0.636364
vt 0.439394 0.727273
vt 0.621212 0.727273
vt 0.878788 0.666667
vt 0.878788 0.636364
vt 0.348485 0.318182
vt 0.166667 0.469697
vt 0.166667 0.318182
vt 0.166667 0.515152
vt 0.015152 0.469697
vt 0.348485 0.515152
vt 0.348485 0.469697
vt 0.500000 0.515152
vt 0.500000 0.469697
vt 0.166667 0.666667
vt 0.348485 0.666667
vt 0.681818 0.515152
vt 0.681818 0.469697
vt 0.439394 1.000000
vt 0.409091 0.984848
vt 0.439394 0.984848
vt 0.469697 1.000000
vt 0.469697 0.984848
vt 0.318182 1.000000
vt 0.287879 0.984848
vt 0.318182 0.984848
vt 0.348485 1.000000
vt 0.348485 0.984848
vt 0.378788 1.000000
vt 0.378788 0.984848
vt 0.409091 1.000000
vt 0.015152 0.560606
vt -0.000000 0.666667
vt 0.000000 0.545455
vt 0.136364 0.560606
vt 0.151515 0.545455
vt 0.136364 0.651515
vt 0.151515 0.666667
vt 0.015152 0.651515
vt 0.393939 0.787879
vt 0.515152 0.893939
vt 0.545455 0.924242
vt 0.000000 0.909091
vt 0.530303 0.772727
vt 0.803030 0.969697
vt 0.363636 0.666667
vt 0.696970 0.666667
vt 0.015152 0.515152
vt 0.287879 1.000000
vn -0.000000 -0.000000 1.000000
vn 1.000000 -0.000000 -0.000000
vn -0.000000 1.000000 -0.000000
vn -0.300200 0.300200 0.905400
vn -0.408200 -0.408200 0.816500
vn -0.300200 -0.300200 0.905400
vn 0.408200 -0.408200 0.816500
vn 0.300200 -0.300200 0.905400
vn 0.408200 0.408200 0.816500
vn 0.300200 0.300200 0.905400
vn -0.408200 0.408200 0.816500
vn -1.000000 -0.000000 -0.000000
vn -0.000000 -1.000000 -0.000000
vn -0.000000 -0.000000 -1.000000
vn -0.000000 0.948700 -0.316200
vn -0.000000 0.980600 0.196100
vn 0.866000 -0.000000 -0.500000
vn -0.866000 -0.000000 -0.500000
vn -0.866000 -0.000000 0.500000
vn 0.866000 -0.000000 0.500000
vn -0.707100 0.707100 -0.000000
vn -0.000000 0.707100 0.707100
vn 0.707100 0.707100 -0.000000
vn -0.000000 0.707100 -0.707100
o Cube.003
usemtl texture
s off
f 1/1/1 2/2/1 3/3/1
f 3/4/2 4/5/2 1/6/2
f 5/7/3 6/8/3 3/9/3
f 3/3/1 7/10/1 5/11/1
f 8/12/4 6/3/5 9/13/6
f 9/13/6 10/11/7 11/14/8
f 11/14/8 8/12/4 9/13/6
f 11/14/8 12/15/9 13/16/10
f 13/16/10 4/1/11 8/12/4
f 14/17/12 10/18/12 5/19/12
f 1/20/13 12/21/13 14/22/13
f 5/11/1 15/23/1 14/15/1
f 14/15/1 16/24/1 1/1/1
f 17/22/2 7/10/2 18/8/2
f 19/25/3 15/23/3 17/26/3
f 16/24/12 20/27/12 2/2/12
f 21/17/14 20/28/14 19/20/14
f 21/17/14 17/22/14 22/6/14
f 23/29/12 24/30/12 25/31/12
f 22/32/15 24/30/15 21/33/15
f 24/30/14 26/34/14 25/31/14
f 27/35/2 28/36/2 22/37/2
f 23/38/13 26/34/13 27/39/13
f 22/6/14 18/8/14 27/40/14
f 18/41/13 2/2/13 20/42/13
f 29/43/13 30/44/13 31/45/13
f 32/46/12 31/47/12 30/44/12
f 33/48/1 30/44/1 34/49/1
f 29/50/2 33/48/2 34/49/2
f 35/51/16 33/48/16 36/52/16
f 35/53/14 29/50/14 31/54/14
f 37/55/13 38/56/13 39/57/13
f 40/58/12 39/59/12 38/56/12
f 41/60/1 38/56/1 42/61/1
f 43/62/2 42/61/2 37/63/2
f 44/64/3 41/60/3 43/65/3
f 44/66/14 37/63/14 39/67/14
f 45/68/14 46/69/17 47/70/14
f 48/71/18 47/70/14 49/72/18
f 50/73/19 49/74/18 51/75/19
f 52/76/1 51/75/19 53/77/1
f 54/78/20 53/77/1 55/79/20
f 56/80/17 55/79/20 46/69/17
f 57/81/21 58/82/21 59/83/21
f 60/84/22 59/83/22 61/85/22
f 62/86/23 61/85/23 63/87/23
f 64/88/3 60/84/3 62/86/3
f 64/88/24 63/87/24 58/82/24
f 1/1/1 16/24/1 2/2/1
f 3/4/2 6/89/2 4/5/2
f 5/7/3 10/28/3 6/8/3
f 3/3/1 2/2/1 7/10/1
f 8/12/4 4/1/11 6/3/5
f 9/13/6 6/3/5 10/11/7
f 11/14/8 13/16/10 8/12/4
f 11/14/8 10/11/7 12/15/9
f 13/16/10 12/15/9 4/1/11
f 14/17/12 12/90/12 10/18/12
f 1/20/13 4/91/13 12/21/13
f 5/11/1 7/10/1 15/23/1
f 14/15/1 15/23/1 16/24/1
f 17/22/2 15/23/2 7/10/2
f 19/25/3 16/24/3 15/23/3
f 16/24/12 19/92/12 20/27/12
f 21/17/14 23/93/14 20/28/14
f 21/17/14 19/20/14 17/22/14
f 23/29/12 21/94/12 24/30/12
f 22/32/15 28/36/15 24/30/15
f 24/30/14 28/36/14 26/34/14
f 27/35/2 26/34/2 28/36/2
f 23/38/13 25/31/13 26/34/13
f 22/6/14 17/22/14 18/8/14
f 18/41/13 7/10/13 2/2/13
f 29/43/13 34/49/13 30/44/13
f 32/46/12 35/95/12 31/47/12
f 33/48/1 32/46/1 30/44/1
f 29/50/2 36/96/2 33/48/2
f 35/51/16 32/46/16 33/48/16
f 35/53/14 36/96/14 29/50/14
f 37/55/13 42/61/13 38/56/13
f 40/58/12 44/97/12 39/59/12
f 41/60/1 40/58/1 38/56/1
f 43/62/2 41/60/2 42/61/2
f 44/64/3 40/58/3 41/60/3
f 44/66/14 43/62/14 37/63/14
f 45/68/14 56/80/17 46/69/17
f 48/71/18 45/68/14 47/70/14
f 50/73/19 48/98/18 49/74/18
f 52/76/1 50/73/19 51/75/19
f 54/78/20 52/76/1 53/77/1
f 56/80/17 54/78/20 55/79/20
f 57/81/21 64/88/21 58/82/21
f 60/84/22 57/81/22 59/83/22
f 62/86/23 60/84/23 61/85/23
f 64/88/3 57/81/3 60/84/3
f 64/88/24 62/86/24 63/87/24
