mtllib hex_tank.mtl
v 0.200000 0.675000 -0.012500
v 0.200000 0.375000 -0.012500
v 0.200000 0.375000 0.387500
v 0.800000 0.675000 -0.012500
v 0.800000 0.375000 -0.012500
v 0.800000 0.675000 0.387500
v 0.800000 0.375000 0.387500
v 0.200000 0.675000 0.387500
v 0.200000 1.625000 -0.012500
v 0.200000 1.325000 -0.012500
v 0.200000 1.325000 0.387500
v 0.800000 1.625000 -0.012500
v 0.800000 1.325000 -0.012500
v 0.800000 1.625000 0.387500
v 0.800000 1.325000 0.387500
v 0.200000 1.625000 0.387500
v 0.500000 1.050000 0.000000
v 0.853553 1.050000 0.146447
v 0.853553 0.950000 0.146447
v 1.000000 1.050000 0.500000
v 1.000000 0.950000 0.500000
v 0.853553 1.050000 0.853553
v 0.853553 0.950000 0.853553
v 0.500000 1.050000 1.000000
v 0.500000 0.950000 1.000000
v 0.146447 1.050000 0.853553
v 0.146447 0.950000 0.853553
v 0.000000 1.050000 0.500000
v 0.000000 0.950000 0.500000
v 0.146447 1.050000 0.146447
v 0.500000 0.950000 0.000000
v 0.146447 0.950000 0.146447
v 0.500000 2.000000 0.000000
v 0.853553 2.000000 0.146447
v 0.853553 1.900000 0.146447
v 1.000000 2.000000 0.500000
v 1.000000 1.900000 0.500000
v 0.853553 2.000000 0.853553
v 0.853553 1.900000 0.853553
v 0.500000 2.000000 1.000000
v 0.500000 1.900000 1.000000
v 0.146447 2.000000 0.853553
v 0.146447 1.900000 0.853553
v 0.000000 2.000000 0.500000
v 0.000000 1.900000 0.500000
v 0.146447 2.000000 0.146447
v 0.500000 1.900000 0.000000
v 0.146447 1.900000 0.146447
v 0.500000 0.100000 0.000000
v 0.853553 0.100000 0.146447
v 0.853553 0.000000 0.146447
v 1.000000 0.100000 0.500000
v 1.000000 0.000000 0.500000
v 0.853553 0.100000 0.853553
v 0.853553 0.000000 0.853553
v 0.500000 0.100000 1.000000
v 0.500000 0.000000 1.000000
v 0.146447 0.100000 0.853553
v 0.146447 0.000000 0.853553
v 0.000000 0.100000 0.500000
v 0.000000 0.000000 0.500000
v 0.146447 0.100000 0.146447
v 0.500000 0.000000 0.000000
v 0.146447 0.000000 0.146447
v 0.500000 2.000000 0.050000
v 0.818198 2.000000 0.181802
v 0.818198 -0.000000 0.181802
v 0.950000 2.000000 0.500000
v 0.950000 -0.000000 0.500000
v 0.818198 2.000000 0.818198
v 0.818198 -0.000000 0.818198
v 0.500000 2.000000 0.950000
v 0.500000 -0.000000 0.950000
v 0.181802 2.000000 0.818198
v 0.181802 -0.000000 0.818198
v 0.050000 2.000000 0.500000
v 0.050000 -0.000000 0.500000
v 0.181802 2.000000 0.181802
v 0.500000 -0.000000 0.050000
v 0.181802 -0.000000 0.181802
vt 0.573389 0.583191
vt 0.573389 0.526305
vt 0.649238 0.526305
vt 0.459616 0.583191
vt 0.459616 0.526305
vt 0.383768 0.583191
vt 0.383768 0.526305
vt 0.459616 0.450456
vt 0.573389 0.659040
vt 0.219889 0.585508
vt 0.219889 0.528621
vt 0.295738 0.528621
vt 0.106116 0.585508
vt 0.106116 0.528621
vt 0.030267 0.585508
vt 0.030267 0.528621
vt 0.106116 0.452773
vt 0.219889 0.661356
vt 0.761905 0.195544
vt 0.789674 0.128502
vt 0.807193 0.135759
vt 0.761905 0.061461
vt 0.779424 0.054204
vt 0.694864 0.033691
vt 0.702120 0.016173
vt 0.627822 0.061461
vt 0.620566 0.043942
vt 0.600053 0.128502
vt 0.582534 0.121246
vt 0.627822 0.195544
vt 0.610303 0.202800
vt 0.694864 0.223313
vt 0.769162 0.213062
vt 0.687607 0.240832
vt 0.176581 0.909081
vt 0.042499 0.909081
vt 0.042499 0.774998
vt 0.380979 0.898926
vt 0.448020 0.871156
vt 0.455277 0.888675
vt 0.475790 0.804115
vt 0.493308 0.811372
vt 0.448020 0.737074
vt 0.465539 0.729817
vt 0.380979 0.709304
vt 0.388235 0.691785
vt 0.313937 0.737074
vt 0.306681 0.719555
vt 0.286168 0.804115
vt 0.268649 0.796859
vt 0.313937 0.871156
vt 0.373722 0.916445
vt 0.296419 0.878413
vt 0.957501 0.856722
vt 0.823418 0.856722
vt 0.823418 0.722640
vt 0.799923 0.509953
vt 0.866965 0.482183
vt 0.874221 0.499702
vt 0.894734 0.415142
vt 0.912253 0.422399
vt 0.866965 0.348101
vt 0.884484 0.340844
vt 0.799923 0.320331
vt 0.807180 0.302812
vt 0.732882 0.348101
vt 0.725626 0.330582
vt 0.705113 0.415142
vt 0.687594 0.407885
vt 0.732882 0.482183
vt 0.792667 0.527472
vt 0.715363 0.489440
vt 0.738421 0.856722
vt 0.604338 0.856722
vt 0.604338 0.722640
vt 0.283181 0.401190
vt 0.217872 0.401190
vt 0.217872 0.021946
vt 0.152563 0.401190
vt 0.152563 0.021946
vt 0.087255 0.401190
vt 0.087255 0.021946
vt 0.021946 0.401190
vt 0.021946 0.021946
vt 0.544415 0.401190
vt 0.479106 0.401190
vt 0.479106 0.021946
vt 0.413798 0.401190
vt 0.413798 0.021946
vt 0.348489 0.401190
vt 0.283181 0.021946
vt 0.348489 0.021946
vt 0.649238 0.583191
vt 0.573389 0.450456
vt 0.459616 0.659040
vt 0.295738 0.585508
vt 0.219889 0.452773
vt 0.106116 0.661356
vt 0.779424 0.202800
vt 0.807193 0.121246
vt 0.769162 0.043942
vt 0.687607 0.016173
vt 0.610304 0.054204
vt 0.582534 0.135759
vt 0.702120 0.240832
vt 0.620566 0.213062
vt 0.109540 0.747229
vt 0.176582 0.774998
vt 0.204351 0.842039
vt 0.109540 0.936850
vt 0.014729 0.842039
vt 0.388235 0.916445
vt 0.465539 0.878413
vt 0.493308 0.796859
vt 0.455277 0.719555
vt 0.373722 0.691785
vt 0.296419 0.729817
vt 0.306681 0.888675
vt 0.268649 0.811372
vt 0.890460 0.694870
vt 0.957501 0.722640
vt 0.985271 0.789681
vt 0.890460 0.884492
vt 0.795649 0.789681
vt 0.807180 0.527472
vt 0.884484 0.489440
vt 0.912253 0.407886
vt 0.874221 0.330582
vt 0.792667 0.302812
vt 0.715363 0.340844
vt 0.725626 0.499702
vt 0.687594 0.422398
vt 0.671380 0.694870
vt 0.738421 0.722640
vt 0.766190 0.789681
vt 0.671380 0.884492
vt 0.576569 0.789681
vt 0.544415 0.021946
vn -1.000000 0.000000 0.000000
vn 0.000000 0.000000 -1.000000
vn 1.000000 0.000000 0.000000
vn 0.000000 -1.000000 0.000000
vn 0.000000 1.000000 0.000000
vn 0.382700 0.000000 -0.923900
vn 0.923900 0.000000 -0.382700
vn 0.923900 0.000000 0.382700
vn 0.382700 0.000000 0.923900
vn -0.382700 0.000000 0.923900
vn -0.923900 0.000000 0.382700
vn -0.382700 0.000000 -0.923900
vn -0.923900 0.000000 -0.382700
o Cylinder.001
usemtl texture
s off
f 1/1/1 2/2/1 3/3/1
f 4/4/2 5/5/2 2/2/2
f 6/6/3 7/7/3 5/5/3
f 2/2/4 5/5/4 7/8/4
f 4/4/5 1/1/5 8/9/5
f 9/10/1 10/11/1 11/12/1
f 12/13/2 13/14/2 10/11/2
f 14/15/3 15/16/3 13/14/3
f 10/11/4 13/14/4 15/17/4
f 12/13/5 9/10/5 16/18/5
f 17/19/6 18/20/6 19/21/6
f 18/20/7 20/22/7 21/23/7
f 20/22/8 22/24/8 23/25/8
f 22/24/9 24/26/9 25/27/9
f 24/26/10 26/28/10 27/29/10
f 26/28/11 28/30/11 29/31/11
f 28/30/5 22/24/5 20/22/5
f 30/32/12 17/19/12 31/33/12
f 28/30/13 30/32/13 32/34/13
f 23/35/4 27/36/4 32/37/4
f 33/38/6 34/39/6 35/40/6
f 34/39/7 36/41/7 37/42/7
f 36/41/8 38/43/8 39/44/8
f 38/43/9 40/45/9 41/46/9
f 40/45/10 42/47/10 43/48/10
f 42/47/11 44/49/11 45/50/11
f 44/49/5 40/45/5 33/38/5
f 46/51/12 33/38/12 47/52/12
f 44/49/13 46/51/13 48/53/13
f 39/54/4 43/55/4 48/56/4
f 49/57/6 50/58/6 51/59/6
f 50/58/7 52/60/7 53/61/7
f 52/60/8 54/62/8 55/63/8
f 54/62/9 56/64/9 57/65/9
f 56/64/10 58/66/10 59/67/10
f 58/66/11 60/68/11 61/69/11
f 60/68/5 54/62/5 52/60/5
f 62/70/12 49/57/12 63/71/12
f 60/68/13 62/70/13 64/72/13
f 55/73/4 59/74/4 64/75/4
f 65/76/6 66/77/6 67/78/6
f 66/77/7 68/79/7 69/80/7
f 68/79/8 70/81/8 71/82/8
f 70/81/9 72/83/9 73/84/9
f 72/85/10 74/86/10 75/87/10
f 74/86/11 76/88/11 77/89/11
f 78/90/12 65/76/12 79/91/12
f 76/88/13 78/90/13 80/92/13
f 8/93/1 1/1/1 3/3/1
f 1/1/2 4/4/2 2/2/2
f 4/4/3 6/6/3 5/5/3
f 3/94/4 2/2/4 7/8/4
f 6/95/5 4/4/5 8/9/5
f 16/96/1 9/10/1 11/12/1
f 9/10/2 12/13/2 10/11/2
f 12/13/3 14/15/3 13/14/3
f 11/97/4 10/11/4 15/17/4
f 14/98/5 12/13/5 16/18/5
f 31/99/6 17/19/6 19/21/6
f 19/100/7 18/20/7 21/23/7
f 21/101/8 20/22/8 23/25/8
f 23/102/9 22/24/9 25/27/9
f 25/103/10 24/26/10 27/29/10
f 27/104/11 26/28/11 29/31/11
f 20/22/5 18/20/5 17/19/5
f 17/19/5 30/32/5 20/22/5
f 28/30/5 26/28/5 24/26/5
f 24/26/5 22/24/5 28/30/5
f 20/22/5 30/32/5 28/30/5
f 32/105/12 30/32/12 31/33/12
f 29/106/13 28/30/13 32/34/13
f 32/37/4 31/107/4 19/108/4
f 19/108/4 21/109/4 32/37/4
f 23/35/4 25/110/4 27/36/4
f 27/36/4 29/111/4 32/37/4
f 32/37/4 21/109/4 23/35/4
f 47/112/6 33/38/6 35/40/6
f 35/113/7 34/39/7 37/42/7
f 37/114/8 36/41/8 39/44/8
f 39/115/9 38/43/9 41/46/9
f 41/116/10 40/45/10 43/48/10
f 43/117/11 42/47/11 45/50/11
f 36/41/5 34/39/5 33/38/5
f 33/38/5 46/51/5 44/49/5
f 44/49/5 42/47/5 40/45/5
f 40/45/5 38/43/5 36/41/5
f 36/41/5 33/38/5 40/45/5
f 48/118/12 46/51/12 47/52/12
f 45/119/13 44/49/13 48/53/13
f 48/56/4 47/120/4 35/121/4
f 35/121/4 37/122/4 48/56/4
f 39/54/4 41/123/4 43/55/4
f 43/55/4 45/124/4 48/56/4
f 48/56/4 37/122/4 39/54/4
f 63/125/6 49/57/6 51/59/6
f 51/126/7 50/58/7 53/61/7
f 53/127/8 52/60/8 55/63/8
f 55/128/9 54/62/9 57/65/9
f 57/129/10 56/64/10 59/67/10
f 59/130/11 58/66/11 61/69/11
f 52/60/5 50/58/5 49/57/5
f 49/57/5 62/70/5 52/60/5
f 60/68/5 58/66/5 56/64/5
f 56/64/5 54/62/5 60/68/5
f 52/60/5 62/70/5 60/68/5
f 64/131/12 62/70/12 63/71/12
f 61/132/13 60/68/13 64/72/13
f 64/75/4 63/133/4 51/134/4
f 51/134/4 53/135/4 64/75/4
f 55/73/4 57/136/4 59/74/4
f 59/74/4 61/137/4 64/75/4
f 64/75/4 53/135/4 55/73/4
f 79/91/6 65/76/6 67/78/6
f 67/78/7 66/77/7 69/80/7
f 69/80/8 68/79/8 71/82/8
f 71/82/9 70/81/9 73/84/9
f 73/138/10 72/85/10 75/87/10
f 75/87/11 74/86/11 77/89/11
f 80/92/12 78/90/12 79/91/12
f 77/89/13 76/88/13 80/92/13
