mtllib pole_top.mtl
v 0.125000 0.500000 0.125000
v 0.125000 0.000000 0.125000
v 0.125000 0.000000 0.875000
v 0.875000 0.500000 0.125000
v 0.875000 0.000000 0.125000
v 0.875000 0.500000 0.875000
v 0.875000 0.000000 0.875000
v 0.125000 0.500000 0.875000
v 0.000000 0.250000 0.250000
v 0.000000 1.250000 0.250000
v 0.000000 1.250000 0.000000
v 0.250000 0.250000 0.000000
v 0.250000 1.250000 0.000000
v 0.250000 1.250000 0.250000
v 0.000000 0.250000 0.000000
v 0.250000 0.250000 0.250000
v 0.625000 0.625000 0.625000
v 0.625000 0.500000 0.625000
v 0.625000 0.500000 0.375000
v 0.375000 0.625000 0.375000
v 0.375000 0.500000 0.375000
v 0.375000 0.500000 0.625000
v 0.375000 0.625000 0.625000
v 0.625000 0.625000 0.375000
v 0.000000 0.250000 1.000000
v 0.000000 1.250000 1.000000
v 0.000000 1.250000 0.750000
v 0.250000 0.250000 0.750000
v 0.250000 1.250000 0.750000
v 0.250000 1.250000 1.000000
v 0.000000 0.250000 0.750000
v 0.250000 0.250000 1.000000
v 0.750000 0.250000 0.250000
v 0.750000 1.250000 0.250000
v 0.750000 1.250000 0.000000
v 1.000000 0.250000 0.000000
v 1.000000 1.250000 0.000000
v 1.000000 1.250000 0.250000
v 0.750000 0.250000 0.000000
v 1.000000 0.250000 0.250000
v 0.750000 0.250000 1.000000
v 0.750000 1.250000 1.000000
v 0.750000 1.250000 0.750000
v 1.000000 0.250000 0.750000
v 1.000000 1.250000 0.750000
v 1.000000 1.250000 1.000000
v 0.750000 0.250000 0.750000
v 1.000000 0.250000 1.000000
vt 0.600000 0.000000
vt 0.600000 0.400000
vt -0.000000 0.400000
vt 0.000122 0.000122
vt 0.600000 1.000000
vt 0.000000 1.000000
vt 0.800000 0.000000
vt 0.800000 0.800000
vt 0.600000 0.800000
vt 0.600000 0.600000
vt 0.800000 0.100000
vt 0.999906 0.000094
vt 1.000000 0.000000
vt 0.800000 0.600000
vt 1.000000 0.300000
vt 0.800000 0.300000
vt -0.000000 -0.000000
vt 0.000100 0.999900
vt 1.000000 0.100000
vn -1.000000 0.000000 0.000000
vn 0.000000 0.000000 -1.000000
vn 1.000000 0.000000 0.000000
vn 0.000000 0.000000 1.000000
vn 0.000000 -1.000000 0.000000
vn 0.000000 1.000000 0.000000
o Cube_Cube.001
usemtl texture
s off
f 1/1/1 2/2/1 3/3/1
f 4/1/2 5/2/2 2/3/2
f 6/3/3 7/4/3 5/1/3
f 8/3/4 3/4/4 7/1/4
f 2/3/5 5/2/5 7/5/5
f 4/5/6 1/6/6 8/3/6
f 9/7/1 10/8/1 11/9/1
f 12/7/3 13/8/3 14/9/3
f 15/7/2 11/8/2 13/9/2
f 16/7/4 14/8/4 10/9/4
f 13/8/6 11/9/6 10/10/6
f 17/11/3 18/7/3 19/12/3
f 20/11/1 21/7/1 22/13/1
f 23/11/4 22/7/4 18/12/4
f 24/11/2 19/7/2 21/13/2
f 9/10/5 15/14/5 12/8/5
f 24/15/6 20/16/6 23/11/6
f 25/7/1 26/8/1 27/9/1
f 28/7/3 29/8/3 30/9/3
f 31/7/2 27/8/2 29/9/2
f 32/7/4 30/8/4 26/9/4
f 29/8/6 27/9/6 26/10/6
f 25/10/5 31/14/5 28/8/5
f 33/7/1 34/8/1 35/9/1
f 36/7/3 37/8/3 38/9/3
f 39/7/2 35/8/2 37/9/2
f 40/7/4 38/8/4 34/9/4
f 37/8/6 35/9/6 34/10/6
f 33/10/5 39/14/5 36/8/5
f 41/7/1 42/8/1 43/9/1
f 44/7/3 45/8/3 46/9/3
f 47/7/2 43/8/2 45/9/2
f 48/7/4 46/8/4 42/9/4
f 45/8/6 43/9/6 42/10/6
f 41/10/5 47/14/5 44/8/5
f 8/17/1 1/1/1 3/3/1
f 1/17/2 4/1/2 2/3/2
f 4/2/3 6/3/3 5/1/3
f 6/2/4 8/3/4 7/1/4
f 3/18/5 2/3/5 7/5/5
f 6/2/6 4/5/6 8/3/6
f 15/1/1 9/7/1 11/9/1
f 16/1/3 12/7/3 14/9/3
f 12/1/2 15/7/2 13/9/2
f 9/1/4 16/7/4 10/9/4
f 14/14/6 13/8/6 10/10/6
f 24/19/3 17/11/3 19/12/3
f 23/19/1 20/11/1 22/13/1
f 17/19/4 23/11/4 18/12/4
f 20/19/2 24/11/2 21/13/2
f 16/9/5 9/10/5 12/8/5
f 17/19/6 24/15/6 23/11/6
f 31/1/1 25/7/1 27/9/1
f 32/1/3 28/7/3 30/9/3
f 28/1/2 31/7/2 29/9/2
f 25/1/4 32/7/4 26/9/4
f 30/14/6 29/8/6 26/10/6
f 32/9/5 25/10/5 28/8/5
f 39/1/1 33/7/1 35/9/1
f 40/1/3 36/7/3 38/9/3
f 36/1/2 39/7/2 37/9/2
f 33/1/4 40/7/4 34/9/4
f 38/14/6 37/8/6 34/10/6
f 40/9/5 33/10/5 36/8/5
f 47/1/1 41/7/1 43/9/1
f 48/1/3 44/7/3 46/9/3
f 44/1/2 47/7/2 45/9/2
f 41/1/4 48/7/4 42/9/4
f 46/14/6 45/8/6 42/10/6
f 48/9/5 41/10/5 44/8/5
