mtllib scaffold_upright_x.mtl
v 0.875000 1.000000 0.125000
v 0.875000 1.000000 0.250000
v 1.000000 1.000000 0.250000
v 1.000000 0.000000 0.250000
v 0.875000 0.000000 0.250000
v 0.875000 0.000000 0.125000
v 1.000000 1.000000 0.125000
v 1.000000 0.000000 0.125000
v 0.000000 0.000000 0.250000
v 0.125000 0.000000 0.250000
v 0.125000 1.000000 0.250000
v 0.000000 0.000000 0.125000
v 0.000000 1.000000 0.250000
v 0.125000 0.000000 0.125000
v 0.125000 1.000000 0.125000
v 0.000000 1.000000 0.125000
v 0.125000 1.000000 0.750000
v 0.125000 1.000000 0.875000
v 0.125000 0.000000 0.875000
v 0.000000 1.000000 0.875000
v 0.000000 1.000000 0.750000
v 0.000000 0.000000 0.750000
v 0.125000 0.000000 0.750000
v 0.000000 0.000000 0.875000
v 1.000000 1.000000 0.875000
v 0.875000 1.000000 0.875000
v 0.875000 0.000000 0.875000
v 1.000000 0.000000 0.750000
v 1.000000 1.000000 0.750000
v 0.875000 0.000000 0.750000
v 0.875000 1.000000 0.750000
v 1.000000 0.000000 0.875000
v 0.500000 0.437500 0.250000
v 0.500000 0.437500 0.125000
v 0.875000 0.062500 0.125000
v 0.125000 0.062500 0.125000
v 0.437500 0.500000 0.250000
v 0.437500 0.500000 0.125000
v 0.125000 0.187500 0.125000
v 0.125000 0.812500 0.125000
v 0.500000 0.562500 0.250000
v 0.500000 0.562500 0.125000
v 0.125000 0.937500 0.125000
v 0.875000 0.937500 0.125000
v 0.562500 0.500000 0.250000
v 0.562500 0.500000 0.125000
v 0.875000 0.812500 0.125000
v 0.875000 0.187500 0.125000
v 0.875000 0.062500 0.250000
v 0.875000 0.187500 0.250000
v 0.875000 0.812500 0.250000
v 0.125000 0.937500 0.250000
v 0.125000 0.812500 0.250000
v 0.125000 0.187500 0.250000
v 0.500000 0.437500 0.875000
v 0.500000 0.437500 0.750000
v 0.875000 0.062500 0.750000
v 0.125000 0.062500 0.750000
v 0.437500 0.500000 0.875000
v 0.437500 0.500000 0.750000
v 0.125000 0.187500 0.750000
v 0.125000 0.812500 0.750000
v 0.500000 0.562500 0.875000
v 0.500000 0.562500 0.750000
v 0.125000 0.937500 0.750000
v 0.875000 0.937500 0.750000
v 0.562500 0.500000 0.875000
v 0.562500 0.500000 0.750000
v 0.875000 0.812500 0.750000
v 0.875000 0.187500 0.750000
v 0.875000 0.062500 0.875000
v 0.875000 0.187500 0.875000
v 0.875000 0.812500 0.875000
v 0.125000 0.937500 0.875000
v 0.125000 0.812500 0.875000
v 0.125000 0.187500 0.875000
v 0.125000 0.437500 0.500000
v 0.000000 0.437500 0.500000
v 0.000000 0.062500 0.250000
v 0.000000 0.062500 0.750000
v 0.125000 0.500000 0.541667
v 0.000000 0.500000 0.541667
v 0.000000 0.187500 0.750000
v 0.000000 0.812500 0.750000
v 0.125000 0.562500 0.500000
v 0.000000 0.562500 0.500000
v 0.000000 0.937500 0.750000
v 0.000000 0.937500 0.250000
v 0.125000 0.500000 0.458333
v 0.000000 0.500000 0.458333
v 0.000000 0.812500 0.250000
v 0.000000 0.187500 0.250000
v 0.125000 0.062500 0.250000
v 1.000000 0.437500 0.500000
v 0.875000 0.437500 0.500000
v 1.000000 0.500000 0.541667
v 0.875000 0.500000 0.541667
v 1.000000 0.562500 0.500000
v 0.875000 0.562500 0.500000
v 0.875000 0.937500 0.250000
v 1.000000 0.500000 0.458333
v 0.875000 0.500000 0.458333
v 1.000000 0.062500 0.250000
v 1.000000 0.187500 0.250000
v 1.000000 0.812500 0.250000
v 1.000000 0.937500 0.750000
v 1.000000 0.812500 0.750000
v 1.000000 0.187500 0.750000
v 0.125000 0.062500 0.875000
v 0.875000 0.937500 0.875000
v 1.000000 0.062500 0.750000
v 1.000000 0.937500 0.250000
vt 0.875000 0.250000
vt 0.875000 0.125000
vt 1.000000 0.125000
vt 0.125000 0.000000
vt 0.125000 1.000000
vt 0.000000 1.000000
vt 1.000000 0.000000
vt 1.000000 1.000000
vt 0.875000 1.000000
vt 0.125027 0.000035
vt 0.000035 0.999965
vt 1.000000 0.250000
vt 0.875000 0.000000
vt 0.000000 0.000000
vt 0.000000 0.250000
vt 0.000000 0.125000
vt 0.125000 0.125000
vt 0.125000 0.250000
vt 0.125000 0.875000
vt -0.000000 0.875000
vt 0.000000 0.750000
vt 0.125000 0.750000
vt 1.000000 0.750000
vt 1.000000 0.875000
vt 0.875000 0.875000
vt 0.875000 0.750000
vt 0.500000 0.250000
vt 0.500000 0.125000
vt 0.437500 0.750000
vt 0.437500 0.875000
vt 0.437500 0.125000
vt 0.437500 0.250000
vt 0.500000 0.750000
vt 0.500000 0.875000
vt 0.562500 0.250000
vt 0.562500 0.125000
vt 0.562500 0.875000
vt 0.562500 0.750000
vt 0.500000 0.562500
vt 0.562500 0.500000
vt 0.875000 0.812500
vt 0.500000 0.437500
vt 0.875000 0.062500
vt 0.875000 0.187500
vt 0.125000 0.937500
vt 0.125000 0.812500
vt 0.437500 0.500000
vt 0.125000 0.187500
vt 0.125000 0.500000
vt 0.000000 0.500000
vt 0.000000 0.541667
vt 0.125000 0.541667
vt 0.000000 0.458333
vt 0.125000 0.458333
vt 0.125000 0.250000
vt 0.000000 0.250000
vt 0.541667 0.500000
vt 0.750000 0.812500
vt 0.750000 0.062500
vt 0.750000 0.187500
vt 0.250000 0.937500
vt 0.250000 0.812500
vt 0.458333 0.500000
vt 0.250000 0.187500
vt 1.000000 0.500000
vt 0.875000 0.500000
vt 0.875000 0.541667
vt 1.000000 0.541667
vt 1.000000 0.458333
vt 0.875000 0.458333
vt 0.000035 0.000035
vt 0.875000 0.937500
vt 0.125000 0.062500
vt 0.750000 0.937500
vt 0.250000 0.062500
vn 0.000000 1.000000 0.000000
vn 0.000000 -0.000000 1.000000
vn -1.000000 0.000000 0.000000
vn -0.000000 0.000000 -1.000000
vn 1.000000 0.000000 -0.000000
vn 0.000000 -1.000000 -0.000000
vn -0.707100 -0.707100 0.000000
vn 0.707100 -0.707100 -0.000000
vn -0.707100 0.707100 0.000000
vn 0.707100 0.707100 -0.000000
vn -0.991200 -0.000000 0.132200
vn -0.039300 -0.000000 0.999200
vn 0.991200 -0.000000 0.132200
vn 0.039300 -0.000000 0.999200
vn 0.039300 0.000000 -0.999200
vn 0.991200 0.000000 -0.132200
vn -0.991200 0.000000 -0.132200
vn -0.039300 0.000000 -0.999200
vn 0.000000 -0.554700 0.832100
vn -0.000000 -0.554700 -0.832100
vn 0.000000 0.554700 0.832100
vn -0.000000 0.554700 -0.832100
o Cube_Cube.001
usemtl texture
s off
f 1/1/1 2/2/1 3/3/1
f 4/4/2 3/5/2 2/6/2
f 5/7/3 2/8/3 1/9/3
f 6/10/4 1/5/4 7/11/4
f 8/7/5 7/8/5 3/9/5
f 4/12/6 5/1/6 6/2/6
f 9/13/2 10/7/2 11/8/2
f 12/14/3 9/4/3 13/5/3
f 10/14/5 14/4/5 15/5/5
f 15/9/4 14/13/4 12/7/4
f 9/15/6 12/16/6 14/17/6
f 15/18/1 16/15/1 13/16/1
f 17/8/5 18/9/5 19/13/5
f 19/10/2 18/5/2 20/11/2
f 20/8/3 21/9/3 22/13/3
f 21/5/4 17/6/4 23/14/4
f 19/19/6 24/20/6 22/21/6
f 21/20/1 20/21/1 18/22/1
f 25/8/2 26/9/2 27/13/2
f 28/4/5 29/5/5 25/6/5
f 30/7/4 31/8/4 29/9/4
f 27/4/3 26/5/3 31/6/3
f 25/23/1 29/24/1 31/25/1
f 30/26/6 28/23/6 32/24/6
f 33/27/7 34/28/7 35/2/7
f 36/17/8 34/28/8 33/27/8
f 37/29/9 38/30/9 39/19/9
f 40/17/7 38/31/7 37/32/7
f 41/33/10 42/34/10 43/19/10
f 44/25/9 42/34/9 41/33/9
f 45/35/8 46/36/8 47/2/8
f 48/25/10 46/37/10 45/38/10
f 42/39/4 38/40/4 40/41/4
f 34/42/4 36/43/4 39/44/4
f 42/39/4 44/45/4 47/46/4
f 34/42/4 46/47/4 48/48/4
f 33/42/2 49/43/11 50/44/12
f 41/39/2 45/40/2 51/41/12
f 41/39/2 52/45/13 53/46/14
f 38/40/4 42/39/4 46/47/4
f 33/42/2 37/47/2 54/48/14
f 41/39/2 37/47/2 33/42/2
f 55/34/7 56/33/7 57/26/7
f 58/22/8 56/33/8 55/34/8
f 59/31/9 60/32/9 61/18/9
f 62/22/7 60/29/7 59/30/7
f 63/28/10 64/27/10 65/18/10
f 66/1/9 64/27/9 63/28/9
f 67/37/8 68/38/8 69/26/8
f 70/1/10 68/35/10 67/36/10
f 64/39/4 60/40/4 62/41/15
f 56/42/4 58/43/16 61/44/15
f 64/39/4 66/45/17 69/46/18
f 56/42/4 68/47/4 70/48/18
f 55/42/2 71/43/2 72/44/2
f 63/39/2 67/40/2 73/41/2
f 63/39/2 74/45/2 75/46/2
f 60/40/4 64/39/4 68/47/4
f 55/42/2 59/47/2 76/48/2
f 63/39/2 59/47/2 55/42/2
f 77/49/19 78/50/19 79/15/19
f 80/21/20 78/50/20 77/49/20
f 81/51/21 82/52/21 83/22/21
f 84/21/19 82/51/19 81/52/19
f 85/49/22 86/50/22 87/15/22
f 88/21/21 86/50/21 85/49/21
f 89/53/20 90/54/20 91/55/20
f 92/56/22 90/53/22 89/54/22
f 86/39/3 82/57/3 84/58/3
f 78/42/3 80/59/3 83/60/3
f 86/39/3 88/61/3 91/62/3
f 78/42/3 90/63/3 92/64/3
f 77/42/5 93/59/13 54/60/14
f 85/39/5 89/57/5 53/58/14
f 85/39/5 65/61/16 62/62/15
f 82/57/3 86/39/3 90/63/3
f 77/42/5 81/63/5 61/64/15
f 89/57/5 85/39/5 81/63/5
f 94/65/19 95/66/19 49/1/19
f 57/26/20 95/66/20 94/65/20
f 96/67/21 97/68/21 70/23/21
f 69/26/19 97/67/19 96/68/19
f 98/65/22 99/66/22 66/1/22
f 100/26/21 99/66/21 98/65/21
f 101/1/20 102/12/20 51/69/20
f 50/70/22 102/1/22 101/12/22
f 99/39/3 97/57/3 69/58/18
f 95/42/3 57/59/17 70/60/18
f 99/39/3 100/61/11 51/62/12
f 95/42/3 102/63/3 50/64/12
f 94/42/5 103/59/5 104/60/5
f 98/39/5 101/57/5 105/58/5
f 98/39/5 106/61/5 107/62/5
f 97/57/3 99/39/3 102/63/3
f 94/42/5 96/63/5 108/64/5
f 101/57/5 98/39/5 96/63/5
f 7/12/1 1/1/1 3/3/1
f 5/14/2 4/4/2 2/6/2
f 6/13/3 5/7/3 1/9/3
f 8/71/4 6/10/4 7/11/4
f 4/13/5 8/7/5 3/9/5
f 8/3/6 4/12/6 6/2/6
f 13/9/2 9/13/2 11/8/2
f 16/6/3 12/14/3 13/5/3
f 11/6/5 10/14/5 15/5/5
f 16/8/4 15/9/4 12/7/4
f 10/18/6 9/15/6 14/17/6
f 11/17/1 15/18/1 13/16/1
f 23/7/5 17/8/5 19/13/5
f 24/71/2 19/10/2 20/11/2
f 24/7/3 20/8/3 22/13/3
f 22/4/4 21/5/4 23/14/4
f 23/22/6 19/19/6 22/21/6
f 17/19/1 21/20/1 18/22/1
f 32/7/2 25/8/2 27/13/2
f 32/14/5 28/4/5 25/6/5
f 28/13/4 30/7/4 29/9/4
f 30/14/3 27/4/3 31/6/3
f 26/26/1 25/23/1 31/25/1
f 27/25/6 30/26/6 32/24/6
f 49/1/7 33/27/7 35/2/7
f 93/18/8 36/17/8 33/27/8
f 54/22/9 37/29/9 39/19/9
f 53/18/7 40/17/7 37/32/7
f 52/22/10 41/33/10 43/19/10
f 100/26/9 44/25/9 41/33/9
f 51/1/8 45/35/8 47/2/8
f 50/26/10 48/25/10 45/38/10
f 43/72/4 42/39/4 40/41/4
f 38/40/4 34/42/4 39/44/4
f 46/47/4 42/39/4 47/46/4
f 35/73/4 34/42/4 48/48/4
f 45/40/2 33/42/2 50/44/12
f 100/72/11 41/39/2 51/41/12
f 37/47/2 41/39/2 53/46/14
f 34/42/4 38/40/4 46/47/4
f 93/73/13 33/42/2 54/48/14
f 45/40/2 41/39/2 33/42/2
f 71/25/7 55/34/7 57/26/7
f 109/19/8 58/22/8 55/34/8
f 76/17/9 59/31/9 61/18/9
f 75/19/7 62/22/7 59/30/7
f 74/17/10 63/28/10 65/18/10
f 110/2/9 66/1/9 63/28/9
f 73/25/8 67/37/8 69/26/8
f 72/2/10 70/1/10 67/36/10
f 65/72/16 64/39/4 62/41/15
f 60/40/4 56/42/4 61/44/15
f 68/47/4 64/39/4 69/46/18
f 57/73/17 56/42/4 70/48/18
f 67/40/2 55/42/2 72/44/2
f 110/72/2 63/39/2 73/41/2
f 59/47/2 63/39/2 75/46/2
f 56/42/4 60/40/4 68/47/4
f 109/73/2 55/42/2 76/48/2
f 67/40/2 63/39/2 55/42/2
f 93/18/19 77/49/19 79/15/19
f 58/22/20 80/21/20 77/49/20
f 61/21/21 81/51/21 83/22/21
f 62/22/19 84/21/19 81/52/19
f 65/18/22 85/49/22 87/15/22
f 52/22/21 88/21/21 85/49/21
f 53/56/20 89/53/20 91/55/20
f 54/55/22 92/56/22 89/54/22
f 87/74/3 86/39/3 84/58/3
f 82/57/3 78/42/3 83/60/3
f 90/63/3 86/39/3 91/62/3
f 79/75/3 78/42/3 92/64/3
f 89/57/5 77/42/5 54/60/14
f 52/74/13 85/39/5 53/58/14
f 81/63/5 85/39/5 62/62/15
f 78/42/3 82/57/3 90/63/3
f 58/75/16 77/42/5 61/64/15
f 77/42/5 89/57/5 81/63/5
f 103/12/19 94/65/19 49/1/19
f 111/23/20 57/26/20 94/65/20
f 108/26/21 96/67/21 70/23/21
f 107/23/19 69/26/19 96/68/19
f 106/12/22 98/65/22 66/1/22
f 112/23/21 100/26/21 98/65/21
f 105/70/20 101/1/20 51/69/20
f 104/69/22 50/70/22 101/12/22
f 66/74/17 99/39/3 69/58/18
f 97/57/3 95/42/3 70/60/18
f 102/63/3 99/39/3 51/62/12
f 49/75/11 95/42/3 50/64/12
f 101/57/5 94/42/5 104/60/5
f 112/74/5 98/39/5 105/58/5
f 96/63/5 98/39/5 107/62/5
f 95/42/3 97/57/3 102/63/3
f 111/75/5 94/42/5 108/64/5
f 94/42/5 101/57/5 96/63/5
