mtllib skeleton_holder.mtl
v 0.130272 0.834613 0.884826
v 0.460142 0.185094 0.667028
v 0.492494 0.185094 0.787769
v 0.097920 0.834613 0.764085
v 0.564706 0.247594 0.639010
v 0.202484 0.897113 0.736067
v 0.597059 0.247594 0.759751
v 0.234837 0.897113 0.856808
v 0.865620 0.000000 0.241255
v 0.108824 0.000000 0.314629
v 0.833268 0.000000 0.120515
v 0.833268 0.125000 0.120515
v 0.108824 0.125000 0.314629
v 0.865620 0.125000 0.241255
v 0.141176 0.125000 0.435370
v 0.008419 1.016218 0.767475
v 0.250538 1.425794 0.244383
v -0.035159 1.016218 0.269378
v 0.372859 0.729430 0.233681
v 0.658556 1.139006 0.208686
v 0.416437 0.729430 0.731779
v 0.702134 1.139006 0.706783
v 0.008419 1.016218 0.767475
v 0.250538 1.425794 0.244383
v 0.294116 1.425794 0.742480
v 0.372859 0.729430 0.233681
v -0.035159 1.016218 0.269378
v 0.416437 0.729430 0.731779
v 0.658556 1.139006 0.208686
v 0.702134 1.139006 0.706783
v 0.249524 0.114105 0.250000
v 0.314891 0.861251 0.750000
v 0.249524 0.114105 0.750000
v 0.000476 0.135894 0.250000
v 0.314891 0.861251 0.250000
v 0.000476 0.135894 0.750000
v 0.065842 0.883040 0.250000
v 0.065842 0.883040 0.750000
v 0.314891 0.861251 0.750000
v 0.249524 0.114105 0.250000
v 0.249524 0.114105 0.750000
v 0.314891 0.861251 0.250000
v 0.000476 0.135894 0.250000
v 0.065842 0.883040 0.250000
v 0.000476 0.135894 0.750000
v 0.065842 0.883040 0.750000
v 0.108824 0.000000 0.685371
v 0.865620 -0.000000 0.758745
v 0.833268 -0.000000 0.879485
v 0.141176 0.000000 0.564630
v 0.865620 0.125000 0.758745
v 0.141176 0.125000 0.564630
v 0.833268 0.125000 0.879485
v 0.108824 0.125000 0.685371
v 0.097920 0.834613 0.235915
v 0.492494 0.185094 0.212231
v 0.460142 0.185094 0.332972
v 0.234837 0.897113 0.143192
v 0.597059 0.247594 0.240249
v 0.564706 0.247594 0.360990
v 0.202484 0.897113 0.263933
v 0.130272 0.834613 0.115174
v 0.141176 0.000000 0.435370
v 0.294116 1.425794 0.742480
vt 0.125000 0.437500
vt 0.093750 0.062500
vt 0.125000 0.062500
vt 0.093750 0.437500
vt 0.062500 0.062500
vt 0.062500 0.437500
vt 0.031250 0.062500
vt -0.000000 0.437500
vt 0.000000 0.062500
vt 0.062500 0.500000
vt 0.093750 0.437500
vt 0.093750 0.500000
vt 0.062500 0.500000
vt 0.031250 0.437500
vt 0.125000 0.062500
vt 0.093750 0.437500
vt 0.093750 0.062500
vt 0.062500 0.062500
vt 0.062500 0.437500
vt 0.031250 0.062500
vt 0.031250 0.437500
vt 0.000000 0.062500
vt 0.062500 0.437500
vt 0.093750 0.500000
vt 0.062500 0.500000
vt 0.062500 0.500000
vt 0.500000 0.500000
vt 0.375000 0.750000
vt 0.375000 0.500000
vt 0.250000 0.500000
vt 0.250000 0.750000
vt 0.125000 0.500000
vt 0.125000 0.750000
vt -0.000000 0.500000
vt 0.250000 0.750000
vt 0.375000 1.000000
vt 0.250000 1.000000
vt 0.250000 1.000000
vt 0.500000 0.500000
vt 0.375000 0.750000
vt 0.500000 0.750000
vt 0.250000 0.500000
vt 0.375000 0.500000
vt 0.125000 0.500000
vt 0.250000 0.750000
vt -0.000000 0.500000
vt 0.125000 0.750000
vt 0.375000 1.000000
vt 0.250000 0.750000
vt 0.250000 1.000000
vt 0.250000 1.000000
vt 0.312500 0.000000
vt 0.437500 0.375000
vt 0.437500 0.000000
vt 0.500000 0.000000
vt 0.437500 0.375000
vt 0.437500 0.000000
vt 0.625000 0.000000
vt 0.500000 0.375000
vt 0.312500 0.000000
vt 0.250000 0.375000
vt 0.250000 0.000000
vt 0.437500 0.500000
vt 0.562500 0.375000
vt 0.562500 0.500000
vt 0.437500 0.500000
vt 0.312500 0.375000
vt 0.437500 0.375000
vt 0.312500 0.000000
vt 0.437500 0.000000
vt 0.437500 0.375000
vt 0.500000 0.000000
vt 0.437500 0.000000
vt 0.500000 0.375000
vt 0.625000 0.000000
vt 0.250000 0.375000
vt 0.312500 0.000000
vt 0.250000 0.000000
vt 0.562500 0.375000
vt 0.437500 0.500000
vt 0.562500 0.500000
vt 0.437500 0.500000
vt 0.312500 0.375000
vt 0.312500 0.500000
vt 0.125000 0.437500
vt 0.093750 0.062500
vt 0.125000 0.062500
vt 0.093750 0.437500
vt 0.062500 0.062500
vt 0.062500 0.437500
vt 0.031250 0.062500
vt -0.000000 0.437500
vt 0.000000 0.062500
vt 0.062500 0.500000
vt 0.093750 0.437500
vt 0.093750 0.500000
vt 0.062500 0.500000
vt 0.031250 0.437500
vt 0.125000 0.437500
vt 0.093750 0.062500
vt 0.125000 0.062500
vt 0.062500 0.437500
vt 0.062500 0.062500
vt 0.031250 0.062500
vt 0.031250 0.437500
vt 0.000000 0.062500
vt 0.062500 0.500000
vt 0.093750 0.437500
vt 0.093750 0.500000
vt 0.062500 0.500000
vt 0.062500 0.437500
vt 0.031250 0.500000
vt 0.125000 0.437500
vt -0.000000 0.437500
vt 0.093750 0.437500
vt 0.031250 0.500000
vt 0.500000 0.750000
vt -0.000000 0.750000
vt 0.375000 0.750000
vt 0.125000 1.000000
vt -0.000000 0.750000
vt 0.375000 0.750000
vt 0.125000 1.000000
vt 0.312500 0.375000
vt 0.625000 0.375000
vt 0.437500 0.375000
vt 0.312500 0.500000
vt 0.312500 0.375000
vt 0.625000 0.375000
vt 0.437500 0.375000
vt 0.062500 0.437500
vt 0.031250 0.500000
vt 0.093750 0.437500
vt -0.000000 0.437500
vt 0.062500 0.437500
vt 0.031250 0.500000
vn -0.836500 -0.500000 0.224100
vn -0.258800 -0.000000 -0.965900
vn 0.836500 0.500000 -0.224100
vn 0.258800 0.000000 0.965900
vn 0.483000 -0.866000 -0.129400
vn -0.483000 0.866000 0.129400
vn -0.000000 -1.000000 0.000000
vn 0.000000 1.000000 -0.000000
vn 0.965900 0.000000 -0.258800
vn -0.965900 0.000000 0.258800
vn -0.816000 0.573600 0.071400
vn -0.087200 -0.000000 -0.996200
vn 0.816000 -0.573600 -0.071400
vn 0.087200 0.000000 0.996200
vn -0.571400 -0.819200 0.050000
vn 0.571400 0.819200 -0.050000
vn 0.996200 -0.087200 0.000000
vn 0.000000 -0.000000 -1.000000
vn -0.996200 0.087200 0.000000
vn -0.000000 0.000000 1.000000
vn -0.087200 -0.996200 0.000000
vn 0.087200 0.996200 0.000000
vn 0.258800 0.000000 -0.965900
vn -0.258800 0.000000 0.965900
vn 0.965900 0.000000 0.258800
vn -0.965900 0.000000 -0.258800
vn -0.836500 -0.500000 -0.224100
vn 0.836500 0.500000 0.224100
vn 0.483000 -0.866000 0.129400
vn -0.483000 0.866000 -0.129400
o Holder1
usemtl texture
s off
f 1/1/1 2/2/1 3/3/1
f 4/4/2 5/5/2 2/2/2
f 6/6/3 7/7/3 5/5/3
f 7/7/4 1/8/4 3/9/4
f 2/10/5 7/11/5 3/12/5
f 4/13/6 8/14/6 6/6/6
f 9/15/7 10/16/7 11/17/7
f 10/16/2 12/18/2 11/17/2
f 13/19/8 14/20/8 12/18/8
f 15/21/4 9/22/4 14/20/4
f 12/23/9 9/24/9 11/25/9
f 10/26/10 15/21/10 13/19/10
f 16/27/11 17/28/11 18/29/11
f 17/28/12 19/30/12 18/29/12
f 20/31/13 21/32/13 19/30/13
f 22/33/14 16/34/14 21/32/14
f 19/35/15 16/36/15 18/37/15
f 17/38/16 22/33/16 20/31/16
f 23/39/13 24/40/13 25/41/13
f 26/42/14 24/40/14 27/43/14
f 28/44/11 29/45/11 26/42/11
f 23/46/12 30/47/12 28/44/12
f 23/48/16 26/49/16 27/50/16
f 30/47/15 24/51/15 29/45/15
f 31/52/17 32/53/17 33/54/17
f 34/55/18 35/56/18 31/57/18
f 36/58/19 37/59/19 34/55/19
f 33/60/20 38/61/20 36/62/20
f 33/63/21 34/64/21 31/65/21
f 37/66/22 32/67/22 35/56/22
f 39/68/19 40/69/19 41/70/19
f 42/71/20 43/72/20 40/73/20
f 44/74/17 45/75/17 43/72/17
f 46/76/18 41/77/18 45/78/18
f 43/79/22 41/80/22 40/81/22
f 44/82/21 39/83/21 46/84/21
f 47/85/7 48/86/7 49/87/7
f 50/88/23 51/89/23 48/86/23
f 52/90/8 53/91/8 51/89/8
f 53/91/24 47/92/24 49/93/24
f 48/94/25 53/95/25 49/96/25
f 50/97/26 54/98/26 52/90/26
f 55/99/27 56/100/27 57/101/27
f 56/100/23 58/102/23 59/103/23
f 58/102/28 60/104/28 59/103/28
f 61/105/24 57/106/24 60/104/24
f 56/107/29 60/108/29 57/109/29
f 62/110/30 61/105/30 58/102/30
f 1/1/1 4/4/1 2/2/1
f 4/4/2 6/6/2 5/5/2
f 6/6/3 8/14/3 7/7/3
f 7/7/4 8/14/4 1/8/4
f 2/10/5 5/111/5 7/11/5
f 4/13/6 1/112/6 8/14/6
f 9/15/7 63/113/7 10/16/7
f 10/16/2 13/19/2 12/18/2
f 13/19/8 15/21/8 14/20/8
f 15/21/4 63/114/4 9/22/4
f 12/23/9 14/115/9 9/24/9
f 10/26/10 63/116/10 15/21/10
f 16/27/11 64/117/11 17/28/11
f 17/28/12 20/31/12 19/30/12
f 20/31/13 22/33/13 21/32/13
f 22/33/14 64/118/14 16/34/14
f 19/35/15 21/119/15 16/36/15
f 17/38/16 64/120/16 22/33/16
f 23/39/13 27/43/13 24/40/13
f 26/42/14 29/45/14 24/40/14
f 28/44/11 30/47/11 29/45/11
f 23/46/12 25/121/12 30/47/12
f 23/48/16 28/122/16 26/49/16
f 30/47/15 25/123/15 24/51/15
f 31/52/17 35/124/17 32/53/17
f 34/55/18 37/59/18 35/56/18
f 36/58/19 38/125/19 37/59/19
f 33/60/20 32/67/20 38/61/20
f 33/63/21 36/126/21 34/64/21
f 37/66/22 38/127/22 32/67/22
f 39/68/19 42/128/19 40/69/19
f 42/71/20 44/74/20 43/72/20
f 44/74/17 46/129/17 45/75/17
f 46/76/18 39/83/18 41/77/18
f 43/79/22 45/130/22 41/80/22
f 44/82/21 42/71/21 39/83/21
f 47/85/7 50/88/7 48/86/7
f 50/88/23 52/90/23 51/89/23
f 52/90/8 54/98/8 53/91/8
f 53/91/24 54/98/24 47/92/24
f 48/94/25 51/131/25 53/95/25
f 50/97/26 47/132/26 54/98/26
f 55/99/27 62/133/27 56/100/27
f 56/100/23 62/133/23 58/102/23
f 58/102/28 61/105/28 60/104/28
f 61/105/24 55/134/24 57/106/24
f 56/107/29 59/135/29 60/108/29
f 62/110/30 55/136/30 61/105/30
