mtllib spikes.mtl
v 0.687500 0.000000 0.437500
v 0.562500 0.000000 0.312500
v 0.687500 0.000000 0.312500
v 0.562500 0.000000 0.437500
v 0.625000 1.000000 0.375000
v 0.937500 0.000000 0.437500
v 0.812500 0.000000 0.312500
v 0.937500 0.000000 0.312500
v 0.812500 0.000000 0.437500
v 0.875000 1.000000 0.375000
v 0.687500 0.000000 0.187500
v 0.562500 0.000000 0.062500
v 0.687500 0.000000 0.062500
v 0.562500 0.000000 0.187500
v 0.625000 1.000000 0.125000
v 0.937500 0.000000 0.187500
v 0.812500 0.000000 0.062500
v 0.937500 0.000000 0.062500
v 0.812500 0.000000 0.187500
v 0.875000 1.000000 0.125000
v 0.187500 0.000000 0.437500
v 0.062500 0.000000 0.312500
v 0.187500 0.000000 0.312500
v 0.062500 0.000000 0.437500
v 0.125000 1.000000 0.375000
v 0.437500 0.000000 0.437500
v 0.312500 0.000000 0.312500
v 0.437500 0.000000 0.312500
v 0.312500 0.000000 0.437500
v 0.375000 1.000000 0.375000
v 0.187500 0.000000 0.187500
v 0.062500 0.000000 0.062500
v 0.187500 0.000000 0.062500
v 0.062500 0.000000 0.187500
v 0.125000 1.000000 0.125000
v 0.437500 0.000000 0.187500
v 0.312500 0.000000 0.062500
v 0.437500 0.000000 0.062500
v 0.312500 0.000000 0.187500
v 0.375000 1.000000 0.125000
v 0.687500 0.000000 0.937500
v 0.562500 0.000000 0.812500
v 0.687500 0.000000 0.812500
v 0.562500 0.000000 0.937500
v 0.625000 1.000000 0.875000
v 0.937500 0.000000 0.937500
v 0.812500 0.000000 0.812500
v 0.937500 0.000000 0.812500
v 0.812500 0.000000 0.937500
v 0.875000 1.000000 0.875000
v 0.687500 0.000000 0.687500
v 0.562500 0.000000 0.562500
v 0.687500 0.000000 0.562500
v 0.562500 0.000000 0.687500
v 0.625000 1.000000 0.625000
v 0.937500 0.000000 0.687500
v 0.812500 0.000000 0.562500
v 0.937500 0.000000 0.562500
v 0.812500 0.000000 0.687500
v 0.875000 1.000000 0.625000
v 0.187500 0.000000 0.937500
v 0.062500 0.000000 0.812500
v 0.187500 0.000000 0.812500
v 0.062500 0.000000 0.937500
v 0.125000 1.000000 0.875000
v 0.437500 0.000000 0.937500
v 0.312500 0.000000 0.812500
v 0.437500 0.000000 0.812500
v 0.312500 0.000000 0.937500
v 0.375000 1.000000 0.875000
v 0.187500 0.000000 0.687500
v 0.062500 0.000000 0.562500
v 0.187500 0.000000 0.562500
v 0.062500 0.000000 0.687500
v 0.125000 1.000000 0.625000
v 0.437500 0.000000 0.687500
v 0.312500 0.000000 0.562500
v 0.437500 0.000000 0.562500
v 0.312500 0.000000 0.687500
v 0.375000 1.000000 0.625000
vt 0.562500 0.687500
vt 0.687500 0.562500
vt 0.687500 0.687500
vt 0.312500 0.000000
vt 0.437500 0.000000
vt 0.375000 1.000000
vt 0.312500 0.000000
vt 0.437500 0.000000
vt 0.562500 0.000000
vt 0.687500 0.000000
vt 0.625000 1.000000
vt 0.562500 0.000000
vt 0.687500 0.000000
vt 0.562500 0.937500
vt 0.687500 0.812500
vt 0.687500 0.937500
vt 0.312500 0.000000
vt 0.437500 0.000000
vt 0.375000 1.000000
vt 0.062500 -0.000000
vt 0.187500 -0.000000
vt 0.125000 1.000000
vt 0.562500 0.000000
vt 0.687500 0.000000
vt 0.625000 1.000000
vt 0.812500 0.000000
vt 0.937500 0.000000
vt 0.875000 1.000000
vt 0.812500 0.687500
vt 0.937500 0.562500
vt 0.937500 0.687500
vt 0.062500 -0.000000
vt 0.187500 -0.000000
vt 0.125000 1.000000
vt 0.312500 0.000000
vt 0.437500 0.000000
vt 0.375000 1.000000
vt 0.812500 0.000000
vt 0.937500 0.000000
vt 0.875000 1.000000
vt 0.562500 0.000000
vt 0.687500 0.000000
vt 0.625000 1.000000
vt 0.812500 0.937500
vt 0.937500 0.812500
vt 0.937500 0.937500
vt 0.062500 -0.000000
vt 0.187500 -0.000000
vt 0.125000 1.000000
vt 0.062500 -0.000000
vt 0.187500 -0.000000
vt 0.812500 0.000000
vt 0.937500 0.000000
vt 0.875000 1.000000
vt 0.812500 0.000000
vt 0.937500 0.000000
vt 0.562500 0.187500
vt 0.687500 0.062500
vt 0.687500 0.187500
vt 0.312500 0.000000
vt 0.437500 0.000000
vt 0.375000 1.000000
vt 0.812500 0.000000
vt 0.937500 0.000000
vt 0.875000 1.000000
vt 0.562500 0.000000
vt 0.687500 0.000000
vt 0.625000 1.000000
vt 0.062500 -0.000000
vt 0.187500 -0.000000
vt 0.125000 1.000000
vt 0.562500 0.437500
vt 0.687500 0.312500
vt 0.687500 0.437500
vt 0.312500 0.000000
vt 0.437500 0.000000
vt 0.375000 1.000000
vt 0.562500 0.000000
vt 0.687500 0.000000
vt 0.625000 1.000000
vt 0.562500 0.000000
vt 0.687500 0.000000
vt 0.312500 0.000000
vt 0.437500 0.000000
vt 0.812500 0.187500
vt 0.937500 0.062500
vt 0.937500 0.187500
vt 0.062500 -0.000000
vt 0.187500 -0.000000
vt 0.125000 1.000000
vt 0.812500 0.000000
vt 0.937500 0.000000
vt 0.875000 1.000000
vt 0.812500 0.000000
vt 0.937500 0.000000
vt 0.062500 -0.000000
vt 0.187500 -0.000000
vt 0.812500 0.437500
vt 0.937500 0.312500
vt 0.937500 0.437500
vt 0.062500 -0.000000
vt 0.187500 -0.000000
vt 0.125000 1.000000
vt 0.562500 0.000000
vt 0.687500 0.000000
vt 0.625000 1.000000
vt 0.812500 0.000000
vt 0.937500 0.000000
vt 0.875000 1.000000
vt 0.312500 0.000000
vt 0.437500 0.000000
vt 0.375000 1.000000
vt 0.062500 0.687500
vt 0.187500 0.562500
vt 0.187500 0.687500
vt 0.812500 0.000000
vt 0.937500 0.000000
vt 0.875000 1.000000
vt 0.312500 0.000000
vt 0.437500 0.000000
vt 0.375000 1.000000
vt 0.062500 -0.000000
vt 0.187500 -0.000000
vt 0.125000 1.000000
vt 0.562500 0.000000
vt 0.687500 0.000000
vt 0.625000 1.000000
vt 0.062500 0.937500
vt 0.187500 0.812500
vt 0.187500 0.937500
vt 0.812500 0.000000
vt 0.937500 0.000000
vt 0.875000 1.000000
vt 0.062500 -0.000000
vt 0.187500 -0.000000
vt 0.125000 1.000000
vt 0.062500 -0.000000
vt 0.187500 -0.000000
vt 0.812500 0.000000
vt 0.937500 0.000000
vt 0.312500 0.687500
vt 0.437500 0.562500
vt 0.437500 0.687500
vt 0.562500 0.000000
vt 0.687500 0.000000
vt 0.625000 1.000000
vt 0.312500 0.000000
vt 0.437500 0.000000
vt 0.375000 1.000000
vt 0.312500 0.000000
vt 0.437500 0.000000
vt 0.562500 0.000000
vt 0.687500 0.000000
vt 0.312500 0.937500
vt 0.437500 0.812500
vt 0.437500 0.937500
vt 0.562500 0.000000
vt 0.687500 0.000000
vt 0.625000 1.000000
vt 0.062500 -0.000000
vt 0.187500 -0.000000
vt 0.125000 1.000000
vt 0.312500 0.000000
vt 0.437500 0.000000
vt 0.375000 1.000000
vt 0.812500 0.000000
vt 0.937500 0.000000
vt 0.875000 1.000000
vt 0.062500 0.187500
vt 0.187500 0.062500
vt 0.187500 0.187500
vt 0.812500 0.000000
vt 0.937500 0.000000
vt 0.875000 1.000000
vt 0.812500 0.000000
vt 0.937500 0.000000
vt 0.062500 -0.000000
vt 0.187500 -0.000000
vt 0.125000 1.000000
vt 0.062500 -0.000000
vt 0.187500 -0.000000
vt 0.062500 0.437500
vt 0.187500 0.312500
vt 0.187500 0.437500
vt 0.812500 0.000000
vt 0.937500 0.000000
vt 0.875000 1.000000
vt 0.562500 0.000000
vt 0.687500 0.000000
vt 0.625000 1.000000
vt 0.062500 -0.000000
vt 0.187500 -0.000000
vt 0.125000 1.000000
vt 0.312500 0.000000
vt 0.437500 0.000000
vt 0.375000 1.000000
vt 0.312500 0.187500
vt 0.437500 0.062500
vt 0.437500 0.187500
vt 0.562500 0.000000
vt 0.687500 0.000000
vt 0.625000 1.000000
vt 0.812500 0.000000
vt 0.937500 0.000000
vt 0.875000 1.000000
vt 0.312500 0.000000
vt 0.437500 0.000000
vt 0.375000 1.000000
vt 0.062500 -0.000000
vt 0.187500 -0.000000
vt 0.125000 1.000000
vt 0.312500 0.437500
vt 0.437500 0.312500
vt 0.437500 0.437500
vt 0.562500 0.000000
vt 0.687500 0.000000
vt 0.625000 1.000000
vt 0.562500 0.000000
vt 0.687500 0.000000
vt 0.312500 0.000000
vt 0.437500 0.000000
vt 0.375000 1.000000
vt 0.312500 0.000000
vt 0.437500 0.000000
vt 0.562500 0.562500
vt 0.562500 0.812500
vt 0.812500 0.562500
vt 0.812500 0.812500
vt 0.562500 0.062500
vt 0.562500 0.312500
vt 0.812500 0.062500
vt 0.812500 0.312500
vt 0.062500 0.562500
vt 0.062500 0.812500
vt 0.312500 0.562500
vt 0.312500 0.812500
vt 0.062500 0.062500
vt 0.062500 0.312500
vt 0.312500 0.062500
vt 0.312500 0.312500
vn 0.000000 -1.000000 0.000000
vn -0.998100 0.062400 0.000000
vn 0.000000 0.062400 -0.998100
vn 0.998100 0.062400 0.000000
vn 0.000000 0.062400 0.998100
o Cube_Cube.001
usemtl texture
s off
f 1/1/1 2/2/1 3/3/1
f 2/4/2 4/5/2 5/6/2
f 3/7/3 2/8/3 5/6/3
f 1/9/4 3/10/4 5/11/4
f 4/12/5 1/13/5 5/11/5
f 6/14/1 7/15/1 8/16/1
f 7/17/2 9/18/2 10/19/2
f 8/20/3 7/21/3 10/22/3
f 6/23/4 8/24/4 10/25/4
f 9/26/5 6/27/5 10/28/5
f 11/29/1 12/30/1 13/31/1
f 12/32/2 14/33/2 15/34/2
f 13/35/3 12/36/3 15/37/3
f 11/38/4 13/39/4 15/40/4
f 14/41/5 11/42/5 15/43/5
f 16/44/1 17/45/1 18/46/1
f 17/47/2 19/48/2 20/49/2
f 18/50/3 17/51/3 20/49/3
f 16/52/4 18/53/4 20/54/4
f 19/55/5 16/56/5 20/54/5
f 21/57/1 22/58/1 23/59/1
f 22/60/2 24/61/2 25/62/2
f 23/63/3 22/64/3 25/65/3
f 21/66/4 23/67/4 25/68/4
f 24/69/5 21/70/5 25/71/5
f 26/72/1 27/73/1 28/74/1
f 27/75/2 29/76/2 30/77/2
f 28/78/3 27/79/3 30/80/3
f 26/81/4 28/82/4 30/80/4
f 29/83/5 26/84/5 30/77/5
f 31/85/1 32/86/1 33/87/1
f 32/88/2 34/89/2 35/90/2
f 33/91/3 32/92/3 35/93/3
f 31/94/4 33/95/4 35/93/4
f 34/96/5 31/97/5 35/90/5
f 36/98/1 37/99/1 38/100/1
f 37/101/2 39/102/2 40/103/2
f 38/104/3 37/105/3 40/106/3
f 36/107/4 38/108/4 40/109/4
f 39/110/5 36/111/5 40/112/5
f 41/113/1 42/114/1 43/115/1
f 42/116/2 44/117/2 45/118/2
f 43/119/3 42/120/3 45/121/3
f 41/122/4 43/123/4 45/124/4
f 44/125/5 41/126/5 45/127/5
f 46/128/1 47/129/1 48/130/1
f 47/131/2 49/132/2 50/133/2
f 48/134/3 47/135/3 50/136/3
f 46/137/4 48/138/4 50/136/4
f 49/139/5 46/140/5 50/133/5
f 51/141/1 52/142/1 53/143/1
f 52/144/2 54/145/2 55/146/2
f 53/147/3 52/148/3 55/149/3
f 51/150/4 53/151/4 55/149/4
f 54/152/5 51/153/5 55/146/5
f 56/154/1 57/155/1 58/156/1
f 57/157/2 59/158/2 60/159/2
f 58/160/3 57/161/3 60/162/3
f 56/163/4 58/164/4 60/165/4
f 59/166/5 56/167/5 60/168/5
f 61/169/1 62/170/1 63/171/1
f 62/172/2 64/173/2 65/174/2
f 63/175/3 62/176/3 65/174/3
f 61/177/4 63/178/4 65/179/4
f 64/180/5 61/181/5 65/179/5
f 66/182/1 67/183/1 68/184/1
f 67/185/2 69/186/2 70/187/2
f 68/188/3 67/189/3 70/190/3
f 66/191/4 68/192/4 70/193/4
f 69/194/5 66/195/5 70/196/5
f 71/197/1 72/198/1 73/199/1
f 72/200/2 74/201/2 75/202/2
f 73/203/3 72/204/3 75/205/3
f 71/206/4 73/207/4 75/208/4
f 74/209/5 71/210/5 75/211/5
f 76/212/1 77/213/1 78/214/1
f 77/215/2 79/216/2 80/217/2
f 78/218/3 77/219/3 80/217/3
f 76/220/4 78/221/4 80/222/4
f 79/223/5 76/224/5 80/222/5
f 1/1/1 4/225/1 2/2/1
f 6/14/1 9/226/1 7/15/1
f 11/29/1 14/227/1 12/30/1
f 16/44/1 19/228/1 17/45/1
f 21/57/1 24/229/1 22/58/1
f 26/72/1 29/230/1 27/73/1
f 31/85/1 34/231/1 32/86/1
f 36/98/1 39/232/1 37/99/1
f 41/113/1 44/233/1 42/114/1
f 46/128/1 49/234/1 47/129/1
f 51/141/1 54/235/1 52/142/1
f 56/154/1 59/236/1 57/155/1
f 61/169/1 64/237/1 62/170/1
f 66/182/1 69/238/1 67/183/1
f 71/197/1 74/239/1 72/198/1
f 76/212/1 79/240/1 77/213/1
