mtllib steel_beam.mtl
v 0.437500 1.000000 0.437500
v 0.437500 0.000000 0.437500
v 0.437500 0.000000 0.562500
v 0.562500 1.000000 0.437500
v 0.562500 0.000000 0.437500
v 0.562500 1.000000 0.562500
v 0.562500 0.000000 0.562500
v 0.437500 1.000000 0.562500
vt 0.000035 0.999965
vt 0.000035 0.000035
vt 0.125027 0.000035
vt 0.250000 0.000000
vt 0.250000 0.125000
vt 0.125000 0.125000
vt 0.125027 0.999965
vn -1.000000 0.000000 0.000000
vn 0.000000 0.000000 -1.000000
vn 1.000000 0.000000 0.000000
vn 0.000000 0.000000 1.000000
vn 0.000000 -1.000000 0.000000
vn 0.000000 1.000000 0.000000
o Cube_Cube.001
usemtl texture
s off
f 1/1/1 2/2/1 3/3/1
f 4/1/2 5/2/2 2/3/2
f 6/1/3 7/2/3 5/3/3
f 8/1/4 3/2/4 7/3/4
f 2/4/5 5/5/5 7/6/5
f 4/4/6 1/5/6 8/6/6
f 8/7/1 1/1/1 3/3/1
f 1/7/2 4/1/2 2/3/2
f 4/7/3 6/1/3 5/3/3
f 6/7/4 8/1/4 7/3/4
f 3/3/5 2/4/5 7/6/5
f 6/3/6 4/4/6 8/6/6
