mtllib steel_poles.mtl
v 0.468750 0.875000 0.187500
v 0.156250 0.062500 0.812500
v 0.156250 0.125000 0.812500
v 0.218750 0.125000 0.812500
v 0.218750 0.062500 0.812500
v 0.531250 0.875000 0.187500
v 0.843750 0.125000 0.812500
v 0.843750 0.062500 0.812500
v 0.531250 0.875000 0.187500
v 0.468750 0.875000 0.187500
v 0.781250 0.062500 0.812500
v 0.781250 0.125000 0.812500
v 0.531250 0.937500 0.187500
v 0.468750 0.937500 0.187500
v 0.437500 0.000000 0.250000
v 0.437500 1.000000 0.250000
v 0.437500 1.000000 0.125000
v 0.562500 1.000000 0.125000
v 0.562500 0.000000 0.125000
v 0.562500 0.000000 0.250000
v 0.562500 1.000000 0.250000
v 0.437500 0.000000 0.125000
v 0.750000 0.000000 0.875000
v 0.750000 1.000000 0.875000
v 0.750000 1.000000 0.750000
v 0.875000 1.000000 0.750000
v 0.875000 0.000000 0.750000
v 0.875000 0.000000 0.875000
v 0.875000 1.000000 0.875000
v 0.750000 0.000000 0.750000
v 0.125000 0.000000 0.875000
v 0.125000 1.000000 0.875000
v 0.125000 1.000000 0.750000
v 0.250000 1.000000 0.750000
v 0.250000 0.000000 0.750000
v 0.250000 0.000000 0.875000
v 0.250000 1.000000 0.875000
v 0.125000 0.000000 0.750000
v 0.531250 0.937500 0.187500
v 0.468750 0.937500 0.187500
v 0.468750 0.125000 0.187500
v 0.468750 0.062500 0.187500
v 0.156250 0.875000 0.812500
v 0.531250 0.125000 0.187500
v 0.218750 0.937500 0.812500
v 0.218750 0.875000 0.812500
v 0.531250 0.125000 0.187500
v 0.843750 0.937500 0.812500
v 0.843750 0.875000 0.812500
v 0.468750 0.125000 0.187500
v 0.468750 0.062500 0.187500
v 0.781250 0.875000 0.812500
v 0.531250 0.062500 0.187500
v 0.781250 0.937500 0.812500
v 0.812500 0.125000 0.781250
v 0.187500 0.937500 0.781250
v 0.187500 0.937500 0.843750
v 0.187500 0.875000 0.843750
v 0.187500 0.875000 0.781250
v 0.812500 0.062500 0.781250
v 0.812500 0.125000 0.843750
v 0.812500 0.875000 0.781250
v 0.812500 0.875000 0.843750
v 0.187500 0.062500 0.843750
v 0.187500 0.125000 0.843750
v 0.812500 0.937500 0.843750
v 0.812500 0.937500 0.781250
v 0.187500 0.125000 0.781250
v 0.156250 0.937500 0.812500
v 0.531250 0.062500 0.187500
v 0.812500 0.062500 0.843750
v 0.187500 0.062500 0.781250
vt 0.937500 0.625000
vt 0.187500 0.625000
vt 0.187500 0.562500
vt 0.937500 0.562500
vt 0.125000 0.000000
vt 0.125000 1.000000
vt -0.000000 1.000000
vt 0.000000 0.000000
vt -0.000000 0.875000
vt 0.125000 0.875000
vn -0.894400 0.000000 -0.447200
vn 0.894400 0.000000 0.447200
vn 0.894400 0.000000 -0.447200
vn -0.894400 0.000000 0.447200
vn 0.000000 -0.609700 -0.792600
vn 0.000000 0.609700 0.792600
vn -1.000000 0.000000 0.000000
vn 0.000000 0.000000 -1.000000
vn 0.000000 0.000000 1.000000
vn 1.000000 0.000000 0.000000
vn 0.000000 -1.000000 0.000000
vn 0.000000 1.000000 0.000000
vn 0.000000 -0.609700 0.792600
vn 0.000000 0.609700 -0.792600
vn 0.792600 0.609700 0.000000
vn -0.792600 -0.609700 0.000000
vn 0.792600 -0.609700 0.000000
vn -0.792600 0.609700 0.000000
o Cube_Cube.001
usemtl texture
s off
f 1/1/1 2/2/1 3/3/1
f 4/2/2 5/3/2 6/4/2
f 7/2/3 8/3/3 9/4/3
f 10/1/4 11/2/4 12/3/4
f 11/3/5 10/4/5 9/1/5
f 13/4/6 14/1/6 12/2/6
f 15/5/7 16/6/7 17/7/7
f 17/6/8 18/7/8 19/8/8
f 20/5/9 21/6/9 16/7/9
f 18/8/10 21/5/10 20/6/10
f 22/9/11 19/10/11 20/6/11
f 21/7/12 18/9/12 17/10/12
f 23/5/7 24/6/7 25/7/7
f 25/6/8 26/7/8 27/8/8
f 28/5/9 29/6/9 24/7/9
f 26/8/10 29/5/10 28/6/10
f 30/9/11 27/10/11 28/6/11
f 29/7/12 26/9/12 25/10/12
f 31/5/7 32/6/7 33/7/7
f 33/6/8 34/7/8 35/8/8
f 36/5/9 37/6/9 32/7/9
f 34/6/10 37/7/10 36/8/10
f 38/9/11 35/10/11 36/6/11
f 37/7/12 34/9/12 33/10/12
f 5/2/5 2/3/5 1/4/5
f 4/3/6 39/4/6 40/1/6
f 41/2/1 42/3/1 43/4/1
f 44/3/2 45/4/2 46/1/2
f 47/3/3 48/4/3 49/1/3
f 50/2/4 51/3/4 52/4/4
f 52/1/13 51/2/13 53/3/13
f 47/2/14 50/3/14 54/4/14
f 46/4/13 43/1/13 42/2/13
f 45/1/14 44/2/14 41/3/14
f 55/3/15 56/4/15 57/1/15
f 58/4/16 59/1/16 60/2/16
f 61/3/9 57/4/9 58/1/9
f 62/4/17 63/1/17 64/2/17
f 55/2/8 60/3/8 59/4/8
f 65/3/18 66/4/18 67/1/18
f 68/3/8 67/4/8 62/1/8
f 65/2/9 64/3/9 63/4/9
f 40/4/1 1/1/1 3/3/1
f 39/1/2 4/2/2 6/4/2
f 13/1/3 7/2/3 9/4/3
f 14/4/4 10/1/4 12/3/4
f 8/2/5 11/3/5 9/1/5
f 7/3/6 13/4/6 12/2/6
f 22/8/7 15/5/7 17/7/7
f 22/5/8 17/6/8 19/8/8
f 15/8/9 20/5/9 16/7/9
f 19/7/10 18/8/10 20/6/10
f 15/7/11 22/9/11 20/6/11
f 16/6/12 21/7/12 17/10/12
f 30/8/7 23/5/7 25/7/7
f 30/5/8 25/6/8 27/8/8
f 23/8/9 28/5/9 24/7/9
f 27/7/10 26/8/10 28/6/10
f 23/7/11 30/9/11 28/6/11
f 24/6/12 29/7/12 25/10/12
f 38/8/7 31/5/7 33/7/7
f 38/5/8 33/6/8 35/8/8
f 31/8/9 36/5/9 32/7/9
f 35/5/10 34/6/10 36/8/10
f 31/7/11 38/9/11 36/6/11
f 32/6/12 37/7/12 33/10/12
f 6/1/5 5/2/5 1/4/5
f 3/2/6 4/3/6 40/1/6
f 69/1/1 41/2/1 43/4/1
f 70/2/2 44/3/2 46/1/2
f 53/2/3 47/3/3 49/1/3
f 54/1/4 50/2/4 52/4/4
f 49/4/13 52/1/13 53/3/13
f 48/1/14 47/2/14 54/4/14
f 70/3/13 46/4/13 42/2/13
f 69/4/14 45/1/14 41/3/14
f 61/2/15 55/3/15 57/1/15
f 71/3/16 58/4/16 60/2/16
f 71/2/9 61/3/9 58/1/9
f 72/3/17 62/4/17 64/2/17
f 56/1/8 55/2/8 59/4/8
f 68/2/18 65/3/18 67/1/18
f 72/2/8 68/3/8 62/1/8
f 66/1/9 65/2/9 63/4/9
