mtllib tape_recorder.mtl
v 0.000000 1.000000 0.000000
v 0.000000 0.000000 0.000000
v 0.000000 0.000000 1.000000
v 0.750000 1.000000 0.000000
v 0.750000 0.000000 0.000000
v 0.750000 1.000000 1.000000
v 0.750000 0.000000 1.000000
v 0.000000 1.000000 1.000000
v 0.875000 0.437500 0.312500
v 0.875000 0.562500 0.062500
v 0.875000 0.812500 0.187500
v 0.875000 0.437500 0.812500
v 0.875000 0.562500 0.562500
v 0.875000 0.812500 0.687500
v 0.750000 0.562500 0.562500
v 0.875000 0.437500 0.687500
v 0.750000 0.812500 0.687500
v 0.875000 0.687500 0.562500
v 0.750000 0.562500 0.937500
v 0.875000 0.562500 0.937500
v 0.875000 0.687500 0.937500
v 0.750000 0.812500 0.812500
v 0.875000 0.812500 0.812500
v 0.750000 0.437500 0.812500
v 0.750000 0.687500 0.562500
v 0.750000 0.687500 0.937500
v 0.750000 0.437500 0.687500
v 0.750000 0.562500 0.062500
v 0.875000 0.437500 0.187500
v 0.750000 0.812500 0.187500
v 0.875000 0.687500 0.062500
v 0.750000 0.562500 0.437500
v 0.875000 0.562500 0.437500
v 0.875000 0.687500 0.437500
v 0.750000 0.812500 0.312500
v 0.875000 0.812500 0.312500
v 0.750000 0.437500 0.312500
v 0.750000 0.687500 0.062500
v 0.750000 0.687500 0.437500
v 0.750000 0.437500 0.187500
v 0.750000 0.812500 0.312500
v 0.750000 0.812500 0.687500
v 0.875000 0.812500 0.687500
v 0.875000 0.812500 0.312500
vt 1.000000 0.500000
vt 1.000000 0.785714
vt 0.714286 0.785714
vt 0.500000 0.785714
vt 0.500000 0.500000
vt 0.714286 0.500000
vt 0.214286 0.785714
vt 0.214286 0.500000
vt -0.000000 0.785714
vt 0.000000 0.500000
vt 0.785714 0.785714
vt 0.785714 1.000000
vt 0.500000 1.000000
vt 0.214286 1.000000
vt 0.500000 0.357143
vt 0.571429 0.392857
vt 0.535714 0.464286
vt 0.357143 0.357143
vt 0.428571 0.392857
vt 0.392857 0.464286
vt 0.428571 0.500000
vt 0.428571 0.464286
vt 0.464286 0.464286
vt 0.285714 0.428571
vt 0.321429 0.428571
vt 0.321429 0.464286
vt 0.392857 0.500000
vt 0.285714 0.357143
vt 0.321429 0.357143
vt 0.464286 0.392857
vt 0.428571 0.357143
vt 0.321429 0.500000
vt 0.464286 0.500000
vt 0.535714 0.500000
vt 0.196429 0.464286
vt 0.196429 0.500000
vt 0.089286 0.500000
vt 0.500000 0.464286
vt 0.464286 0.428571
vt 0.535714 0.357143
vt 0.571429 0.428571
vt 0.357143 0.464286
vt 0.321429 0.392857
vt 0.392857 0.357143
vt 0.428571 0.428571
vt 0.285714 0.464286
vt 0.464286 0.357143
vt 0.089286 0.464286
vn -1.000000 0.000000 0.000000
vn 0.000000 0.000000 -1.000000
vn 1.000000 0.000000 0.000000
vn 0.000000 0.000000 1.000000
vn 0.000000 -1.000000 0.000000
vn 0.000000 1.000000 0.000000
vn 0.000000 -0.707100 -0.707100
vn 0.000000 0.707100 -0.707100
vn 0.000000 -0.707100 0.707100
vn 0.000000 0.707100 0.707100
o Cube_Cube.001
usemtl texture
s off
f 1/1/1 2/2/1 3/3/1
f 4/4/2 5/5/2 2/6/2
f 6/7/3 7/8/3 5/5/3
f 8/9/4 3/10/4 7/8/4
f 2/11/5 5/12/5 7/13/5
f 4/4/6 1/13/6 8/14/6
f 9/15/3 10/16/3 11/17/3
f 12/18/3 13/19/3 14/20/3
f 15/21/7 13/22/7 16/23/7
f 17/23/8 14/22/8 18/19/8
f 19/24/4 20/25/4 21/26/4
f 22/27/6 23/20/6 14/22/6
f 24/28/9 12/29/9 20/25/9
f 25/30/2 18/19/2 13/31/2
f 26/32/10 21/26/10 23/20/10
f 27/33/5 16/23/5 12/17/5
f 28/17/7 10/34/7 29/33/7
f 30/23/8 11/22/8 31/19/8
f 32/24/4 33/25/4 34/26/4
f 35/27/6 36/20/6 11/22/6
f 37/28/9 9/29/9 33/25/9
f 38/30/2 31/19/2 10/31/2
f 39/32/10 34/26/10 36/20/10
f 40/23/5 29/33/5 9/21/5
f 14/35/5 17/36/5 35/37/5
f 41/37/6 42/36/6 43/35/6
f 8/6/1 1/1/1 3/3/1
f 1/3/2 4/4/2 2/6/2
f 4/4/3 6/7/3 5/5/3
f 6/7/4 8/9/4 7/8/4
f 3/4/5 2/11/5 7/13/5
f 6/7/6 4/4/6 8/14/6
f 11/17/3 36/38/3 34/39/3
f 34/39/3 33/30/3 9/15/3
f 9/15/3 29/40/3 10/16/3
f 10/16/3 31/41/3 11/17/3
f 11/17/3 34/39/3 9/15/3
f 14/20/3 23/42/3 21/25/3
f 21/25/3 20/43/3 12/18/3
f 12/18/3 16/44/3 13/19/3
f 13/19/3 18/45/3 14/20/3
f 14/20/3 21/25/3 12/18/3
f 27/33/7 15/21/7 16/23/7
f 25/30/8 17/23/8 18/19/8
f 26/46/4 19/24/4 21/26/4
f 17/21/6 22/27/6 14/22/6
f 19/24/9 24/28/9 20/25/9
f 15/47/2 25/30/2 13/31/2
f 22/27/10 26/32/10 23/20/10
f 24/34/5 27/33/5 12/17/5
f 40/23/7 28/17/7 29/33/7
f 38/30/8 30/23/8 31/19/8
f 39/46/4 32/24/4 34/26/4
f 30/21/6 35/27/6 11/22/6
f 32/24/9 37/28/9 33/25/9
f 28/47/2 38/30/2 10/31/2
f 35/27/10 39/32/10 36/20/10
f 37/22/5 40/23/5 9/21/5
f 36/48/5 14/35/5 35/37/5
f 44/48/6 41/37/6 43/35/6
