mtllib toaster.mtl
v 0.593750 0.312500 0.625000
v 0.531250 0.062500 0.625000
v 0.531250 0.312500 0.625000
v 0.375000 0.000000 0.250000
v 0.625000 0.000000 0.750000
v 0.375000 0.000000 0.750000
v 0.375000 0.250000 0.250000
v 0.625000 0.312500 0.312500
v 0.625000 0.250000 0.250000
v 0.468750 0.312500 0.625000
v 0.406250 0.062500 0.625000
v 0.406250 0.312500 0.625000
v 0.625000 0.000000 0.250000
v 0.625000 0.312500 0.687500
v 0.375000 0.250000 0.750000
v 0.468750 0.312500 0.375000
v 0.531250 0.312500 0.375000
v 0.625000 0.250000 0.750000
v 0.375000 0.312500 0.687500
v 0.593750 0.312500 0.375000
v 0.375000 0.312500 0.312500
v 0.406250 0.312500 0.375000
v 0.593750 0.062500 0.625000
v 0.531250 0.062500 0.375000
v 0.468750 0.062500 0.625000
v 0.406250 0.062500 0.375000
v 0.593750 0.062500 0.375000
v 0.468750 0.062500 0.375000
v 0.406250 0.218750 0.187500
v 0.593750 0.156250 0.187500
v 0.406250 0.156250 0.187500
v 0.406250 0.218750 0.250000
v 0.406250 0.156250 0.250000
v 0.593750 0.156250 0.250000
v 0.593750 0.218750 0.187500
v 0.593750 0.218750 0.250000
vt 0.750000 0.812500
vt 0.812500 0.562500
vt 0.812500 0.812500
vt 0.500000 0.000000
vt 0.000000 0.250000
vt 0.000000 -0.000000
vt 0.500000 0.812500
vt 0.437500 0.562500
vt 0.500000 0.562500
vt 0.750000 0.812500
vt 0.812500 0.562500
vt 0.812500 0.812500
vt 0.500000 0.250000
vt 0.062500 0.562500
vt 0.750000 0.000000
vt 0.500000 0.250000
vt 0.500000 0.000000
vt 1.000000 0.000000
vt 0.750000 0.250000
vt 0.750000 0.000000
vt 0.375000 0.718750
vt 0.125000 0.656250
vt 0.375000 0.656250
vt -0.000000 0.562500
vt 0.062500 0.812500
vt -0.000000 0.812500
vt 0.125000 0.593750
vt 0.375000 0.593750
vt 0.125000 0.781250
vt 0.437500 0.812500
vt 0.500000 0.250000
vt 0.062500 0.562500
vt -0.000000 0.250000
vt 0.375000 0.781250
vt 0.500000 0.500000
vt 0.750000 0.562500
vt 0.500000 0.562500
vt 0.500000 0.500000
vt 0.750000 0.562500
vt 0.500000 0.562500
vt 0.750000 0.812500
vt 0.812500 0.562500
vt 0.812500 0.812500
vt 0.500000 0.812500
vt 0.750000 0.812500
vt 0.500000 0.812500
vt 0.500000 0.812500
vt 0.750000 0.562500
vt 0.812500 0.562500
vt 0.812500 0.812500
vt 0.500000 0.812500
vt 0.750000 0.562500
vt 0.750000 0.375000
vt 0.562500 0.312500
vt 0.750000 0.312500
vt 0.812500 0.375000
vt 0.812500 0.312500
vt 0.750000 0.250000
vt 0.562500 0.250000
vt 0.500000 0.312500
vt 0.562500 0.375000
vt 0.500000 0.375000
vt 0.562500 0.437500
vt 0.750000 0.437500
vt 0.500000 0.500000
vt 0.000000 0.500000
vt 0.750000 0.250000
vt 1.000000 0.250000
vt 0.125000 0.718750
vt 0.500000 0.500000
vt 0.437500 0.562500
vt -0.000000 0.500000
vt 0.750000 0.500000
vt 0.750000 0.500000
vt 0.500000 0.562500
vt 0.500000 0.562500
vn 0.000000 0.000000 -1.000000
vn 0.000000 -1.000000 0.000000
vn 0.000000 0.707100 -0.707100
vn 1.000000 0.000000 0.000000
vn 0.000000 0.000000 1.000000
vn 0.000000 1.000000 0.000000
vn 0.000000 0.707100 0.707100
vn -1.000000 0.000000 0.000000
o Plane
usemtl texture
s off
f 1/1/1 2/2/1 3/3/1
f 4/4/2 5/5/2 6/6/2
f 7/7/3 8/8/3 9/9/3
f 10/10/1 11/11/1 12/12/1
f 13/13/4 14/14/4 5/5/4
f 4/15/1 9/16/1 13/17/1
f 5/18/5 15/19/5 6/20/5
f 16/21/6 3/22/6 17/23/6
f 18/24/7 19/25/7 15/26/7
f 1/27/6 8/8/6 20/28/6
f 12/29/6 21/30/6 19/25/6
f 6/31/8 21/32/8 4/33/8
f 21/30/6 22/34/6 16/21/6
f 19/25/6 14/14/6 3/22/6
f 23/35/6 24/36/6 2/37/6
f 25/38/6 26/39/6 11/40/6
f 17/41/5 27/42/5 20/43/5
f 12/44/4 26/39/4 22/45/4
f 3/46/4 24/36/4 17/41/4
f 20/47/8 23/48/8 1/1/8
f 22/45/5 28/49/5 16/50/5
f 16/51/8 25/52/8 10/10/8
f 29/53/1 30/54/1 31/55/1
f 32/56/8 31/55/8 33/57/8
f 33/58/2 30/54/2 34/59/2
f 34/60/4 35/61/4 36/62/4
f 36/63/6 29/53/6 32/64/6
f 1/1/1 23/48/1 2/2/1
f 4/4/2 13/13/2 5/5/2
f 7/7/3 21/30/3 8/8/3
f 10/10/1 25/52/1 11/11/1
f 13/13/4 9/65/4 8/8/4
f 8/8/4 14/14/4 13/13/4
f 14/14/4 18/66/4 5/5/4
f 4/15/1 7/67/1 9/16/1
f 5/18/5 18/68/5 15/19/5
f 16/21/6 10/69/6 3/22/6
f 18/24/7 14/14/7 19/25/7
f 1/27/6 14/14/6 8/8/6
f 12/29/6 22/34/6 21/30/6
f 6/31/8 15/70/8 19/71/8
f 19/71/8 21/32/8 6/31/8
f 21/32/8 7/72/8 4/33/8
f 16/21/6 17/23/6 21/30/6
f 17/23/6 20/28/6 8/8/6
f 21/30/6 17/23/6 8/8/6
f 1/27/6 3/22/6 14/14/6
f 3/22/6 10/69/6 19/25/6
f 10/69/6 12/29/6 19/25/6
f 23/35/6 27/73/6 24/36/6
f 25/38/6 28/74/6 26/39/6
f 17/41/5 24/36/5 27/42/5
f 12/44/4 11/40/4 26/39/4
f 3/46/4 2/37/4 24/36/4
f 20/47/8 27/75/8 23/48/8
f 22/45/5 26/39/5 28/49/5
f 16/51/8 28/76/8 25/52/8
f 29/53/1 35/61/1 30/54/1
f 32/56/8 29/53/8 31/55/8
f 33/58/2 31/55/2 30/54/2
f 34/60/4 30/54/4 35/61/4
f 36/63/6 35/61/6 29/53/6
