mtllib crane_partitioner.mtl
v 1.000000 0.750000 0.000000
v 1.000000 0.000000 1.000000
v 1.000000 0.000000 0.000000
v 1.000000 0.750000 1.000000
v 0.000000 0.750000 0.000000
v 1.000000 0.000000 0.000000
v 0.000000 0.000000 0.000000
v 1.000000 0.750000 1.000000
v 0.000000 0.000000 1.000000
v 1.000000 0.000000 1.000000
v 0.000000 0.250000 0.125000
v 0.000000 0.250000 0.875000
v 0.000000 0.750000 1.000000
v 0.000000 0.625000 0.875000
v 0.000000 0.625000 0.125000
v 1.000000 0.750000 0.000000
v 0.500000 0.250000 0.875000
v 0.500000 0.625000 0.125000
v 0.500000 0.250000 0.125000
v 0.500000 0.625000 0.875000
v 0.000000 0.625000 0.125000
v 0.500000 0.625000 0.875000
v 0.000000 0.625000 0.875000
v 0.000000 0.250000 0.125000
v 0.500000 0.625000 0.125000
v 0.500000 0.250000 0.875000
v 0.000000 0.250000 0.875000
v 0.500000 0.250000 0.125000
v 0.000000 0.250000 0.875000
v 0.500000 0.250000 0.125000
v 0.000000 0.250000 0.125000
v 0.500000 0.250000 0.875000
v 0.000000 0.000000 0.000000
v 1.000000 0.000000 1.000000
v 0.000000 0.000000 1.000000
v 1.000000 0.750000 1.000000
v 0.000000 0.750000 0.000000
v 0.000000 0.750000 1.000000
v 1.000000 0.000000 0.000000
v 1.000000 0.750000 0.000000
vt 1.000000 0.750000
vt 0.000000 0.000000
vt 1.000000 0.000000
vt -0.000000 0.750000
vt 1.000000 0.750000
vt 0.000000 0.000000
vt 1.000000 0.000000
vt 1.000000 0.750000
vt 0.000000 0.000000
vt 1.000000 0.000000
vt 0.125000 0.250000
vt 1.000000 0.000000
vt 0.875000 0.250000
vt -0.000000 0.750000
vt 0.000000 0.000000
vt 1.000000 0.750000
vt 0.875000 0.625000
vt 0.125000 0.625000
vt -0.000000 0.750000
vt -0.000000 0.750000
vt 0.875000 0.250000
vt 0.125000 0.625000
vt 0.125000 0.250000
vt 0.875000 0.625000
vt 0.125000 1.000000
vt 0.875000 0.500000
vt 0.875000 1.000000
vt 0.312500 1.000000
vt 0.687500 0.500000
vt 0.687500 1.000000
vt 0.312500 1.000000
vt 0.687500 0.500000
vt 0.687500 1.000000
vt 0.125000 0.500000
vt 0.312500 0.500000
vt 0.312500 0.500000
vt 0.875000 0.000000
vt 0.125000 0.500000
vt 0.125000 0.000000
vt 0.875000 0.500000
vt 0.999900 0.000100
vt 0.000100 0.999900
vt 0.000100 0.000100
vt 0.000000 0.000000
vt 1.000000 1.000000
vt 0.000000 1.000000
vt 0.999900 0.999900
vt 1.000000 0.000000
vn 1.000000 0.000000 0.000000
vn 0.000000 0.000000 -1.000000
vn 0.000000 0.000000 1.000000
vn -1.000000 0.000000 0.000000
vn -1.000000 0.000000 0.000000
vn 0.000000 -1.000000 0.000000
vn 0.000000 0.000000 1.000000
vn 0.000000 0.000000 -1.000000
vn 0.000000 1.000000 0.000000
vn 0.000000 -1.000000 0.000000
vn 0.000000 1.000000 0.000000
o Back
usemtl back
s off
f 1/1/1 2/2/1 3/3/1
f 1/1/1 4/4/1 2/2/1
o Side
usemtl side
s off
f 5/5/2 6/6/2 7/7/2
f 8/8/3 9/9/3 10/10/3
f 11/11/4 9/12/4 12/13/4
f 11/11/4 5/14/4 7/15/4
f 12/13/4 13/16/4 14/17/4
f 14/17/4 5/14/4 15/18/4
f 5/5/2 16/19/2 6/6/2
f 8/8/3 13/20/3 9/9/3
f 11/11/4 7/15/4 9/12/4
f 11/11/4 15/18/4 5/14/4
f 12/13/4 9/12/4 13/16/4
f 14/17/4 13/16/4 5/14/4
o Inner
usemtl inner
s off
f 17/21/5 18/22/5 19/23/5
f 17/21/5 20/24/5 18/22/5
o InnerSide
usemtl innerside
s off
f 21/25/6 22/26/6 23/27/6
f 24/28/7 25/29/7 21/30/7
f 23/31/8 26/32/8 27/33/8
f 21/25/6 25/34/6 22/26/6
f 24/28/7 28/35/7 25/29/7
f 23/31/8 22/36/8 26/32/8
o Belt
usemtl belt
s off
f 29/37/9 30/38/9 31/39/9
f 29/37/9 32/40/9 30/38/9
o Top_Top.001
usemtl top
s off
f 33/41/10 34/42/10 35/43/10
f 36/44/11 37/45/11 38/46/11
f 33/41/10 39/47/10 34/42/10
f 36/44/11 40/48/11 37/45/11
