mtllib crane_splitter_right.mtl
v 1.000000 0.875000 1.000000
v 0.500000 1.000000 0.000000
v 0.500000 1.000000 1.000000
v 0.000000 1.000000 0.000000
v 0.000000 1.000000 1.000000
v 1.000000 0.875000 0.000000
v 0.000000 0.000000 0.000000
v 1.000000 0.000000 1.000000
v 0.000000 0.000000 1.000000
v 1.000000 0.000000 0.000000
v 1.000000 0.000000 0.000000
v 1.000000 0.875000 1.000000
v 1.000000 0.000000 1.000000
v 1.000000 0.875000 0.000000
v 0.000000 1.000000 0.000000
v 0.000000 0.250000 0.125000
v 0.000000 0.875000 0.125000
v 0.000000 0.250000 0.875000
v 0.000000 0.000000 0.000000
v 0.000000 0.000000 1.000000
v 0.000000 1.000000 1.000000
v 0.000000 0.875000 0.875000
v 0.500000 0.875000 0.875000
v 0.500000 0.250000 0.125000
v 0.500000 0.250000 0.875000
v 0.500000 0.875000 0.125000
v 0.000000 0.875000 0.875000
v 0.500000 0.250000 0.875000
v 0.000000 0.250000 0.875000
v 0.500000 0.875000 0.875000
v 0.000000 0.250000 0.125000
v 0.500000 0.875000 0.125000
v 0.000000 0.875000 0.125000
v 0.500000 0.250000 0.125000
v 0.000000 0.875000 0.125000
v 0.500000 0.875000 0.875000
v 0.000000 0.875000 0.875000
v 0.500000 0.875000 0.125000
v 0.000000 0.250000 0.875000
v 0.500000 0.250000 0.125000
v 0.000000 0.250000 0.125000
v 0.500000 0.250000 0.875000
v 0.000000 0.000000 0.000000
v 0.000000 1.000000 0.000000
v 0.500000 1.000000 0.000000
v 1.000000 0.875000 0.000000
v 1.000000 0.000000 0.000000
vt 0.000000 0.000000
vt 1.000000 0.500000
vt 0.000000 0.500000
vt 1.000000 1.000000
vt 0.000000 1.000000
vt 1.000000 0.000000
vt 0.000000 1.000000
vt 1.000000 0.000000
vt 1.000000 1.000000
vt 0.000000 0.000000
vt 1.000000 0.000000
vt 0.000000 0.875000
vt 0.000000 0.000000
vt 1.000000 0.875000
vt 0.000000 1.000000
vt 0.125000 0.250000
vt 0.125000 0.875000
vt 0.875000 0.250000
vt 0.000000 0.000000
vt 1.000000 0.000000
vt 1.000000 1.000000
vt 0.875000 0.875000
vt 0.875000 0.875000
vt 0.125000 0.250000
vt 0.875000 0.250000
vt 0.125000 0.875000
vt 0.187500 1.000000
vt 0.812500 0.500000
vt 0.812500 1.000000
vt 0.187500 0.500000
vt 0.187500 1.000000
vt 0.812500 0.500000
vt 0.812500 1.000000
vt 0.187500 0.500000
vt 0.125000 1.000000
vt 0.875000 0.500000
vt 0.875000 1.000000
vt 0.125000 0.500000
vt 0.875000 0.000000
vt 0.125000 0.500000
vt 0.125000 0.000000
vt 0.875000 0.500000
vt 1.000000 0.000000
vt 1.000000 1.000000
vt 0.500000 1.000000
vt 0.000000 0.875000
vt 0.000000 0.000000
vn 0.242500 0.970100 0.000000
vn 0.000000 1.000000 0.000000
vn 0.000000 -1.000000 0.000000
vn 1.000000 0.000000 0.000000
vn -1.000000 0.000000 0.000000
vn -1.000000 0.000000 0.000000
vn 0.000000 0.000000 -1.000000
vn 0.000000 0.000000 1.000000
vn 0.000000 -1.000000 0.000000
vn 0.000000 1.000000 0.000000
vn 0.000000 0.000000 -1.000000
o Top
usemtl top_right
s off
f 1/1/1 2/2/1 3/3/1
f 3/3/2 4/4/2 5/5/2
f 1/1/1 6/6/1 2/2/1
f 3/3/2 2/2/2 4/4/2
o Bottom
usemtl top_left
s off
f 7/7/3 8/8/3 9/9/3
f 7/7/3 10/10/3 8/8/3
o Back
usemtl back_right
s off
f 11/11/4 12/12/4 13/13/4
f 11/11/4 14/14/4 12/12/4
o Front
usemtl front_right
s off
f 15/15/5 16/16/5 17/17/5
f 18/18/5 19/19/5 20/20/5
f 21/21/5 18/18/5 20/20/5
f 15/15/5 22/22/5 21/21/5
f 15/15/5 19/19/5 16/16/5
f 18/18/5 16/16/5 19/19/5
f 21/21/5 22/22/5 18/18/5
f 15/15/5 17/17/5 22/22/5
o Inner
usemtl inner
s off
f 23/23/6 24/24/6 25/25/6
f 23/23/6 26/26/6 24/24/6
o InnerLeft
usemtl inner_side
s off
f 27/27/7 28/28/7 29/29/7
f 27/27/7 30/30/7 28/28/7
o InnerRight
usemtl inner_side
s off
f 31/31/8 32/32/8 33/33/8
f 31/31/8 34/34/8 32/32/8
o InnerTop
usemtl inner_side
s off
f 35/35/9 36/36/9 37/37/9
f 35/35/9 38/38/9 36/36/9
o InnerBottom
usemtl belt
s off
f 39/39/10 40/40/10 41/41/10
f 39/39/10 42/42/10 40/40/10
o Right
usemtl right
s off
f 43/43/11 44/44/11 45/45/11
f 46/46/11 47/47/11 45/45/11
f 47/47/11 43/43/11 45/45/11
