# Converted from Techne: C:/Projects/Hbm-s-Nuclear-Tech-GIT/src/main/java/com/hbm/render/model/ModelSatelliteReceiver.java
mtllib hbm_base.mtl
usemtl Material.001
v 0.875000 1.000000 0.125000
v 0.875000 0.000000 0.125000
v 0.125000 0.000000 0.125000
v 0.125000 1.000000 0.125000
v 0.875000 1.000000 0.875000
v 0.125000 1.000000 0.875000
v 0.125000 0.000000 0.875000
v 0.875000 0.000000 0.875000
v 0.875000 1.000000 0.125000
v 0.875000 1.000000 0.875000
v 0.875000 0.000000 0.875000
v 0.875000 0.000000 0.125000
v 0.125000 1.000000 0.125000
v 0.125000 0.000000 0.125000
v 0.125000 0.000000 0.875000
v 0.125000 1.000000 0.875000
v 0.875000 1.000000 0.125000
v 0.125000 1.000000 0.125000
v 0.125000 1.000000 0.875000
v 0.875000 1.000000 0.875000
v 0.875000 0.000000 0.125000
v 0.875000 0.000000 0.875000
v 0.125000 0.000000 0.875000
v 0.125000 0.000000 0.125000
v 0.251931 0.711076 0.009582
v 0.197240 0.228113 -0.107702
v -0.255914 0.228113 0.103607
v -0.201223 0.711076 0.220892
v 0.302958 0.678724 0.119011
v -0.150195 0.678724 0.330320
v -0.204886 0.195761 0.213035
v 0.248268 0.195761 0.001726
v 0.251931 0.711076 0.009582
v 0.302958 0.678724 0.119011
v 0.248268 0.195761 0.001726
v 0.197240 0.228113 -0.107702
v -0.201223 0.711076 0.220892
v -0.255914 0.228113 0.103607
v -0.204886 0.195761 0.213035
v -0.150195 0.678724 0.330320
v 0.251931 0.711076 0.009582
v -0.201223 0.711076 0.220892
v -0.150195 0.678724 0.330320
v 0.302958 0.678724 0.119011
v 0.197240 0.228113 -0.107702
v 0.248268 0.195761 0.001726
v -0.204886 0.195761 0.213035
v -0.255914 0.228113 0.103607
v 0.214577 0.864169 -0.070525
v 0.200904 0.743429 -0.099846
v -0.252250 0.743429 0.111463
v -0.238577 0.864169 0.140784
v 0.291117 0.815641 0.093618
v -0.162036 0.815641 0.304927
v -0.175709 0.694900 0.275606
v 0.277445 0.694900 0.064297
v 0.214577 0.864169 -0.070525
v 0.291117 0.815641 0.093618
v 0.277445 0.694900 0.064297
v 0.200904 0.743429 -0.099846
v -0.238577 0.864169 0.140784
v -0.252250 0.743429 0.111463
v -0.175709 0.694900 0.275606
v -0.162036 0.815641 0.304927
v 0.214577 0.864169 -0.070525
v -0.238577 0.864169 0.140784
v -0.162036 0.815641 0.304927
v 0.291117 0.815641 0.093618
v 0.200904 0.743429 -0.099846
v 0.277445 0.694900 0.064297
v -0.175709 0.694900 0.275606
v -0.252250 0.743429 0.111463
v 0.314192 0.743429 -0.152673
v 0.259502 0.260466 -0.269958
v 0.146213 0.260466 -0.217131
v 0.200904 0.743429 -0.099846
v 0.390733 0.694900 0.011469
v 0.277445 0.694900 0.064297
v 0.222754 0.211937 -0.052988
v 0.336042 0.211937 -0.105816
v 0.314192 0.743429 -0.152673
v 0.390733 0.694900 0.011469
v 0.336042 0.211937 -0.105816
v 0.259502 0.260466 -0.269958
v 0.200904 0.743429 -0.099846
v 0.146213 0.260466 -0.217131
v 0.222754 0.211937 -0.052988
v 0.277445 0.694900 0.064297
v 0.314192 0.743429 -0.152673
v 0.200904 0.743429 -0.099846
v 0.277445 0.694900 0.064297
v 0.390733 0.694900 0.011469
v 0.259502 0.260466 -0.269958
v 0.336042 0.211937 -0.105816
v 0.222754 0.211937 -0.052988
v 0.146213 0.260466 -0.217131
v -0.252250 0.743429 0.111463
v -0.306941 0.260466 -0.005822
v -0.420229 0.260466 0.047006
v -0.365538 0.743429 0.164291
v -0.175709 0.694900 0.275606
v -0.288998 0.694900 0.328433
v -0.343688 0.211937 0.211148
v -0.230400 0.211937 0.158321
v -0.252250 0.743429 0.111463
v -0.175709 0.694900 0.275606
v -0.230400 0.211937 0.158321
v -0.306941 0.260466 -0.005822
v -0.365538 0.743429 0.164291
v -0.420229 0.260466 0.047006
v -0.343688 0.211937 0.211148
v -0.288998 0.694900 0.328433
v -0.252250 0.743429 0.111463
v -0.365538 0.743429 0.164291
v -0.288998 0.694900 0.328433
v -0.175709 0.694900 0.275606
v -0.306941 0.260466 -0.005822
v -0.230400 0.211937 0.158321
v -0.343688 0.211937 0.211148
v -0.420229 0.260466 0.047006
v 0.146213 0.260466 -0.217131
v 0.132540 0.139725 -0.246452
v -0.320614 0.139725 -0.035143
v -0.306941 0.260466 -0.005822
v 0.222754 0.211937 -0.052988
v -0.230400 0.211937 0.158321
v -0.244073 0.091196 0.129000
v 0.209081 0.091196 -0.082310
v 0.146213 0.260466 -0.217131
v 0.222754 0.211937 -0.052988
v 0.209081 0.091196 -0.082310
v 0.132540 0.139725 -0.246452
v -0.306941 0.260466 -0.005822
v -0.320614 0.139725 -0.035143
v -0.244073 0.091196 0.129000
v -0.230400 0.211937 0.158321
v 0.146213 0.260466 -0.217131
v -0.306941 0.260466 -0.005822
v -0.230400 0.211937 0.158321
v 0.222754 0.211937 -0.052988
v 0.132540 0.139725 -0.246452
v 0.209081 0.091196 -0.082310
v -0.244073 0.091196 0.129000
v -0.320614 0.139725 -0.035143
v -0.015051 0.578494 -0.119301
v -0.028724 0.457753 -0.148622
v -0.142013 0.457753 -0.095795
v -0.128340 0.578494 -0.066474
v 0.061489 0.529965 0.044841
v -0.051799 0.529965 0.097669
v -0.065472 0.409224 0.068348
v 0.047817 0.409224 0.015520
v -0.015051 0.578494 -0.119301
v 0.061489 0.529965 0.044841
v 0.047817 0.409224 0.015520
v -0.028724 0.457753 -0.148622
v -0.128340 0.578494 -0.066474
v -0.142013 0.457753 -0.095795
v -0.065472 0.409224 0.068348
v -0.051799 0.529965 0.097669
v -0.015051 0.578494 -0.119301
v -0.128340 0.578494 -0.066474
v -0.051799 0.529965 0.097669
v 0.061489 0.529965 0.044841
v -0.028724 0.457753 -0.148622
v 0.047817 0.409224 0.015520
v -0.065472 0.409224 0.068348
v -0.142013 0.457753 -0.095795
v -0.123333 0.596837 -0.277567
v -0.130169 0.536467 -0.292227
v -0.186813 0.536467 -0.265814
v -0.179977 0.596837 -0.251153
v -0.046792 0.548309 -0.113424
v -0.103436 0.548309 -0.087011
v -0.110272 0.487938 -0.101671
v -0.053628 0.487938 -0.128085
v -0.123333 0.596837 -0.277567
v -0.046792 0.548309 -0.113424
v -0.053628 0.487938 -0.128085
v -0.130169 0.536467 -0.292227
v -0.179977 0.596837 -0.251153
v -0.186813 0.536467 -0.265814
v -0.110272 0.487938 -0.101671
v -0.103436 0.548309 -0.087011
v -0.123333 0.596837 -0.277567
v -0.179977 0.596837 -0.251153
v -0.103436 0.548309 -0.087011
v -0.046792 0.548309 -0.113424
v -0.130169 0.536467 -0.292227
v -0.053628 0.487938 -0.128085
v -0.110272 0.487938 -0.101671
v -0.186813 0.536467 -0.265814
v -0.142620 0.659375 -0.392872
v -0.156292 0.538634 -0.422193
v -0.269581 0.538634 -0.369365
v -0.255908 0.659375 -0.340044
v -0.091592 0.627022 -0.283443
v -0.204881 0.627022 -0.230616
v -0.218553 0.506282 -0.259937
v -0.105265 0.506282 -0.312765
v -0.142620 0.659375 -0.392872
v -0.091592 0.627022 -0.283443
v -0.105265 0.506282 -0.312765
v -0.156292 0.538634 -0.422193
v -0.255908 0.659375 -0.340044
v -0.269581 0.538634 -0.369365
v -0.218553 0.506282 -0.259937
v -0.204881 0.627022 -0.230616
v -0.142620 0.659375 -0.392872
v -0.255908 0.659375 -0.340044
v -0.204881 0.627022 -0.230616
v -0.091592 0.627022 -0.283443
v -0.156292 0.538634 -0.422193
v -0.105265 0.506282 -0.312765
v -0.218553 0.506282 -0.259937
v -0.269581 0.538634 -0.369365
vt 0.187500 0.562500
vt 0.187500 0.812500
vt 0.375000 0.812500
vt 0.375000 0.562500
vt 0.750000 0.562500
vt 0.562500 0.562500
vt 0.562500 0.812500
vt 0.750000 0.812500
vt 0.187500 0.562500
vt 0.000000 0.562500
vt 0.000000 0.812500
vt 0.187500 0.812500
vt 0.375000 0.562500
vt 0.375000 0.812500
vt 0.562500 0.812500
vt 0.562500 0.562500
vt 0.562500 1.000000
vt 0.375000 1.000000
vt 0.375000 0.812500
vt 0.562500 0.812500
vt 0.187500 1.000000
vt 0.187500 0.812500
vt 0.375000 0.812500
vt 0.375000 1.000000
vt 0.187500 0.406250
vt 0.187500 0.531250
vt 0.312500 0.531250
vt 0.312500 0.406250
vt 0.468750 0.406250
vt 0.343750 0.406250
vt 0.343750 0.531250
vt 0.468750 0.531250
vt 0.187500 0.406250
vt 0.156250 0.406250
vt 0.156250 0.531250
vt 0.187500 0.531250
vt 0.312500 0.406250
vt 0.312500 0.531250
vt 0.343750 0.531250
vt 0.343750 0.406250
vt 0.437500 0.562500
vt 0.312500 0.562500
vt 0.312500 0.531250
vt 0.437500 0.531250
vt 0.187500 0.562500
vt 0.187500 0.531250
vt 0.312500 0.531250
vt 0.312500 0.562500
vt 0.046875 0.312500
vt 0.046875 0.343750
vt 0.171875 0.343750
vt 0.171875 0.312500
vt 0.343750 0.312500
vt 0.218750 0.312500
vt 0.218750 0.343750
vt 0.343750 0.343750
vt 0.046875 0.312500
vt 0.000000 0.312500
vt 0.000000 0.343750
vt 0.046875 0.343750
vt 0.171875 0.312500
vt 0.171875 0.343750
vt 0.218750 0.343750
vt 0.218750 0.312500
vt 0.296875 0.390625
vt 0.171875 0.390625
vt 0.171875 0.343750
vt 0.296875 0.343750
vt 0.046875 0.390625
vt 0.046875 0.343750
vt 0.171875 0.343750
vt 0.171875 0.390625
vt 0.046875 0.390625
vt 0.046875 0.515625
vt 0.078125 0.515625
vt 0.078125 0.390625
vt 0.156250 0.390625
vt 0.125000 0.390625
vt 0.125000 0.515625
vt 0.156250 0.515625
vt 0.046875 0.390625
vt 0.000000 0.390625
vt 0.000000 0.515625
vt 0.046875 0.515625
vt 0.078125 0.390625
vt 0.078125 0.515625
vt 0.125000 0.515625
vt 0.125000 0.390625
vt 0.109375 0.562500
vt 0.078125 0.562500
vt 0.078125 0.515625
vt 0.109375 0.515625
vt 0.046875 0.562500
vt 0.046875 0.515625
vt 0.078125 0.515625
vt 0.078125 0.562500
vt 0.046875 0.390625
vt 0.046875 0.515625
vt 0.078125 0.515625
vt 0.078125 0.390625
vt 0.156250 0.390625
vt 0.125000 0.390625
vt 0.125000 0.515625
vt 0.156250 0.515625
vt 0.046875 0.390625
vt 0.000000 0.390625
vt 0.000000 0.515625
vt 0.046875 0.515625
vt 0.078125 0.390625
vt 0.078125 0.515625
vt 0.125000 0.515625
vt 0.125000 0.390625
vt 0.109375 0.562500
vt 0.078125 0.562500
vt 0.078125 0.515625
vt 0.109375 0.515625
vt 0.046875 0.562500
vt 0.046875 0.515625
vt 0.078125 0.515625
vt 0.078125 0.562500
vt 0.046875 0.312500
vt 0.046875 0.343750
vt 0.171875 0.343750
vt 0.171875 0.312500
vt 0.343750 0.312500
vt 0.218750 0.312500
vt 0.218750 0.343750
vt 0.343750 0.343750
vt 0.046875 0.312500
vt 0.000000 0.312500
vt 0.000000 0.343750
vt 0.046875 0.343750
vt 0.171875 0.312500
vt 0.171875 0.343750
vt 0.218750 0.343750
vt 0.218750 0.312500
vt 0.296875 0.390625
vt 0.171875 0.390625
vt 0.171875 0.343750
vt 0.296875 0.343750
vt 0.046875 0.390625
vt 0.046875 0.343750
vt 0.171875 0.343750
vt 0.171875 0.390625
vt 0.046875 0.234375
vt 0.046875 0.265625
vt 0.078125 0.265625
vt 0.078125 0.234375
vt 0.156250 0.234375
vt 0.125000 0.234375
vt 0.125000 0.265625
vt 0.156250 0.265625
vt 0.046875 0.234375
vt 0.000000 0.234375
vt 0.000000 0.265625
vt 0.046875 0.265625
vt 0.078125 0.234375
vt 0.078125 0.265625
vt 0.125000 0.265625
vt 0.125000 0.234375
vt 0.109375 0.312500
vt 0.078125 0.312500
vt 0.078125 0.265625
vt 0.109375 0.265625
vt 0.046875 0.312500
vt 0.046875 0.265625
vt 0.078125 0.265625
vt 0.078125 0.312500
vt 0.046875 0.171875
vt 0.046875 0.187500
vt 0.062500 0.187500
vt 0.062500 0.171875
vt 0.125000 0.171875
vt 0.109375 0.171875
vt 0.109375 0.187500
vt 0.125000 0.187500
vt 0.046875 0.171875
vt 0.000000 0.171875
vt 0.000000 0.187500
vt 0.046875 0.187500
vt 0.062500 0.171875
vt 0.062500 0.187500
vt 0.109375 0.187500
vt 0.109375 0.171875
vt 0.078125 0.234375
vt 0.062500 0.234375
vt 0.062500 0.187500
vt 0.078125 0.187500
vt 0.046875 0.234375
vt 0.046875 0.187500
vt 0.062500 0.187500
vt 0.062500 0.234375
vt 0.031250 0.109375
vt 0.031250 0.140625
vt 0.062500 0.140625
vt 0.062500 0.109375
vt 0.125000 0.109375
vt 0.093750 0.109375
vt 0.093750 0.140625
vt 0.125000 0.140625
vt 0.031250 0.109375
vt 0.000000 0.109375
vt 0.000000 0.140625
vt 0.031250 0.140625
vt 0.062500 0.109375
vt 0.062500 0.140625
vt 0.093750 0.140625
vt 0.093750 0.109375
vt 0.093750 0.171875
vt 0.062500 0.171875
vt 0.062500 0.140625
vt 0.093750 0.140625
vt 0.031250 0.171875
vt 0.031250 0.140625
vt 0.062500 0.140625
vt 0.062500 0.171875
f 1/1 2/2 3/3 4/4
f 5/5 6/6 7/7 8/8
f 9/9 10/10 11/11 12/12
f 13/13 14/14 15/15 16/16
f 17/17 18/18 19/19 20/20
f 21/21 22/22 23/23 24/24
f 25/25 26/26 27/27 28/28
f 29/29 30/30 31/31 32/32
f 33/33 34/34 35/35 36/36
f 37/37 38/38 39/39 40/40
f 41/41 42/42 43/43 44/44
f 45/45 46/46 47/47 48/48
f 49/49 50/50 51/51 52/52
f 53/53 54/54 55/55 56/56
f 57/57 58/58 59/59 60/60
f 61/61 62/62 63/63 64/64
f 65/65 66/66 67/67 68/68
f 69/69 70/70 71/71 72/72
f 73/73 74/74 75/75 76/76
f 77/77 78/78 79/79 80/80
f 81/81 82/82 83/83 84/84
f 85/85 86/86 87/87 88/88
f 89/89 90/90 91/91 92/92
f 93/93 94/94 95/95 96/96
f 97/97 98/98 99/99 100/100
f 101/101 102/102 103/103 104/104
f 105/105 106/106 107/107 108/108
f 109/109 110/110 111/111 112/112
f 113/113 114/114 115/115 116/116
f 117/117 118/118 119/119 120/120
f 121/121 122/122 123/123 124/124
f 125/125 126/126 127/127 128/128
f 129/129 130/130 131/131 132/132
f 133/133 134/134 135/135 136/136
f 137/137 138/138 139/139 140/140
f 141/141 142/142 143/143 144/144
f 145/145 146/146 147/147 148/148
f 149/149 150/150 151/151 152/152
f 153/153 154/154 155/155 156/156
f 157/157 158/158 159/159 160/160
f 161/161 162/162 163/163 164/164
f 165/165 166/166 167/167 168/168
f 169/169 170/170 171/171 172/172
f 173/173 174/174 175/175 176/176
f 177/177 178/178 179/179 180/180
f 181/181 182/182 183/183 184/184
f 185/185 186/186 187/187 188/188
f 189/189 190/190 191/191 192/192
f 193/193 194/194 195/195 196/196
f 197/197 198/198 199/199 200/200
f 201/201 202/202 203/203 204/204
f 205/205 206/206 207/207 208/208
f 209/209 210/210 211/211 212/212
f 213/213 214/214 215/215 216/216
