# Converted from Techne: C:/Projects/Hbm-s-Nuclear-Tech-GIT/src/main/java/com/hbm/render/model/ModelBroadcaster.java
mtllib hbm_base.mtl
usemtl Material.001
v 0.937500 0.625000 0.250000
v 0.937500 0.000000 0.250000
v 0.062500 0.000000 0.250000
v 0.062500 0.625000 0.250000
v 0.937500 0.625000 0.750000
v 0.062500 0.625000 0.750000
v 0.062500 0.000000 0.750000
v 0.937500 0.000000 0.750000
v 0.937500 0.625000 0.250000
v 0.937500 0.625000 0.750000
v 0.937500 0.000000 0.750000
v 0.937500 0.000000 0.250000
v 0.062500 0.625000 0.250000
v 0.062500 0.000000 0.250000
v 0.062500 0.000000 0.750000
v 0.062500 0.625000 0.750000
v 0.937500 0.625000 0.250000
v 0.062500 0.625000 0.250000
v 0.062500 0.625000 0.750000
v 0.937500 0.625000 0.750000
v 0.937500 0.000000 0.250000
v 0.937500 0.000000 0.750000
v 0.062500 0.000000 0.750000
v 0.062500 0.000000 0.250000
v 0.812500 0.812500 0.437500
v 0.812500 0.625000 0.437500
v 0.687500 0.625000 0.437500
v 0.687500 0.812500 0.437500
v 0.812500 0.812500 0.562500
v 0.687500 0.812500 0.562500
v 0.687500 0.625000 0.562500
v 0.812500 0.625000 0.562500
v 0.812500 0.812500 0.437500
v 0.812500 0.812500 0.562500
v 0.812500 0.625000 0.562500
v 0.812500 0.625000 0.437500
v 0.687500 0.812500 0.437500
v 0.687500 0.625000 0.437500
v 0.687500 0.625000 0.562500
v 0.687500 0.812500 0.562500
v 0.812500 0.812500 0.437500
v 0.687500 0.812500 0.437500
v 0.687500 0.812500 0.562500
v 0.812500 0.812500 0.562500
v 0.812500 0.625000 0.437500
v 0.812500 0.625000 0.562500
v 0.687500 0.625000 0.562500
v 0.687500 0.625000 0.437500
v 0.781250 1.500000 0.468750
v 0.781250 0.812500 0.468750
v 0.718750 0.812500 0.468750
v 0.718750 1.500000 0.468750
v 0.781250 1.500000 0.531250
v 0.718750 1.500000 0.531250
v 0.718750 0.812500 0.531250
v 0.781250 0.812500 0.531250
v 0.781250 1.500000 0.468750
v 0.781250 1.500000 0.531250
v 0.781250 0.812500 0.531250
v 0.781250 0.812500 0.468750
v 0.718750 1.500000 0.468750
v 0.718750 0.812500 0.468750
v 0.718750 0.812500 0.531250
v 0.718750 1.500000 0.531250
v 0.781250 1.500000 0.468750
v 0.718750 1.500000 0.468750
v 0.718750 1.500000 0.531250
v 0.781250 1.500000 0.531250
v 0.781250 0.812500 0.468750
v 0.781250 0.812500 0.531250
v 0.718750 0.812500 0.531250
v 0.718750 0.812500 0.468750
v 0.375000 0.750000 0.468750
v 0.375000 0.625000 0.468750
v 0.187500 0.625000 0.468750
v 0.187500 0.750000 0.468750
v 0.375000 0.750000 0.531250
v 0.187500 0.750000 0.531250
v 0.187500 0.625000 0.531250
v 0.375000 0.625000 0.531250
v 0.375000 0.750000 0.468750
v 0.375000 0.750000 0.531250
v 0.375000 0.625000 0.531250
v 0.375000 0.625000 0.468750
v 0.187500 0.750000 0.468750
v 0.187500 0.625000 0.468750
v 0.187500 0.625000 0.531250
v 0.187500 0.750000 0.531250
v 0.375000 0.750000 0.468750
v 0.187500 0.750000 0.468750
v 0.187500 0.750000 0.531250
v 0.375000 0.750000 0.531250
v 0.375000 0.625000 0.468750
v 0.375000 0.625000 0.531250
v 0.187500 0.625000 0.531250
v 0.187500 0.625000 0.468750
vt 0.125000 0.437500
vt 0.125000 0.750000
vt 0.343750 0.750000
vt 0.343750 0.437500
vt 0.687500 0.437500
vt 0.468750 0.437500
vt 0.468750 0.750000
vt 0.687500 0.750000
vt 0.125000 0.437500
vt 0.000000 0.437500
vt 0.000000 0.750000
vt 0.125000 0.750000
vt 0.343750 0.437500
vt 0.343750 0.750000
vt 0.468750 0.750000
vt 0.468750 0.437500
vt 0.562500 1.000000
vt 0.343750 1.000000
vt 0.343750 0.750000
vt 0.562500 0.750000
vt 0.125000 1.000000
vt 0.125000 0.750000
vt 0.343750 0.750000
vt 0.343750 1.000000
vt 0.093750 0.187500
vt 0.093750 0.281250
vt 0.125000 0.281250
vt 0.125000 0.187500
vt 0.187500 0.187500
vt 0.156250 0.187500
vt 0.156250 0.281250
vt 0.187500 0.281250
vt 0.093750 0.187500
vt 0.062500 0.187500
vt 0.062500 0.281250
vt 0.093750 0.281250
vt 0.125000 0.187500
vt 0.125000 0.281250
vt 0.156250 0.281250
vt 0.156250 0.187500
vt 0.156250 0.343750
vt 0.125000 0.343750
vt 0.125000 0.281250
vt 0.156250 0.281250
vt 0.093750 0.343750
vt 0.093750 0.281250
vt 0.125000 0.281250
vt 0.125000 0.343750
vt 0.015625 0.062500
vt 0.015625 0.406250
vt 0.031250 0.406250
vt 0.031250 0.062500
vt 0.062500 0.062500
vt 0.046875 0.062500
vt 0.046875 0.406250
vt 0.062500 0.406250
vt 0.015625 0.062500
vt 0.000000 0.062500
vt 0.000000 0.406250
vt 0.015625 0.406250
vt 0.031250 0.062500
vt 0.031250 0.406250
vt 0.046875 0.406250
vt 0.046875 0.062500
vt 0.046875 0.437500
vt 0.031250 0.437500
vt 0.031250 0.406250
vt 0.046875 0.406250
vt 0.015625 0.437500
vt 0.015625 0.406250
vt 0.031250 0.406250
vt 0.031250 0.437500
vt 0.078125 0.343750
vt 0.078125 0.406250
vt 0.125000 0.406250
vt 0.125000 0.343750
vt 0.187500 0.343750
vt 0.140625 0.343750
vt 0.140625 0.406250
vt 0.187500 0.406250
vt 0.078125 0.343750
vt 0.062500 0.343750
vt 0.062500 0.406250
vt 0.078125 0.406250
vt 0.125000 0.343750
vt 0.125000 0.406250
vt 0.140625 0.406250
vt 0.140625 0.343750
vt 0.171875 0.437500
vt 0.125000 0.437500
vt 0.125000 0.406250
vt 0.171875 0.406250
vt 0.078125 0.437500
vt 0.078125 0.406250
vt 0.125000 0.406250
vt 0.125000 0.437500
f 1/1 2/2 3/3 4/4
f 5/5 6/6 7/7 8/8
f 9/9 10/10 11/11 12/12
f 13/13 14/14 15/15 16/16
f 17/17 18/18 19/19 20/20
f 21/21 22/22 23/23 24/24
f 25/25 26/26 27/27 28/28
f 29/29 30/30 31/31 32/32
f 33/33 34/34 35/35 36/36
f 37/37 38/38 39/39 40/40
f 41/41 42/42 43/43 44/44
f 45/45 46/46 47/47 48/48
f 49/49 50/50 51/51 52/52
f 53/53 54/54 55/55 56/56
f 57/57 58/58 59/59 60/60
f 61/61 62/62 63/63 64/64
f 65/65 66/66 67/67 68/68
f 69/69 70/70 71/71 72/72
f 73/73 74/74 75/75 76/76
f 77/77 78/78 79/79 80/80
f 81/81 82/82 83/83 84/84
f 85/85 86/86 87/87 88/88
f 89/89 90/90 91/91 92/92
f 93/93 94/94 95/95 96/96
