# Exported from Wings 3D 2.4.1
mtllib silo_hatch.mtl
o Frame
#40 vertices, 80 faces
v -2.50000000 0.0000000e+0 2.50000000
v 2.50000000 0.0000000e+0 2.50000000
v -2.50000000 0.0000000e+0 -2.50000000
v 2.50000000 0.0000000e+0 -2.50000000
v -2.50000000 0.25000000 2.50000000
v 2.50000000 0.25000000 2.50000000
v -2.50000000 0.25000000 -2.50000000
v 2.50000000 0.25000000 -2.50000000
v -2.25000000 1.00000000 2.25000000
v 2.25000000 1.00000000 2.25000000
v -2.25000000 1.00000000 -2.25000000
v 2.25000000 1.00000000 -2.25000000
v -1.50000000 0.0000000e+0 1.50000000
v 1.50000000 0.0000000e+0 1.50000000
v -1.50000000 0.0000000e+0 -1.50000000
v 1.50000000 0.0000000e+0 -1.50000000
v -1.50000000 0.75000000 -1.50000000
v -1.50000000 0.75000000 1.50000000
v 1.50000000 0.75000000 1.50000000
v 1.50000000 0.75000000 -1.50000000
v -1.75000000 0.75000000 1.75000000
v 1.75000000 0.75000000 1.75000000
v -1.75000000 0.75000000 -1.75000000
v 1.75000000 0.75000000 -1.75000000
v -1.75000000 1.00000000 1.75000000
v 1.75000000 1.00000000 1.75000000
v -1.75000000 1.00000000 -1.75000000
v 1.75000000 1.00000000 -1.75000000
v -1.00000000 0.75000000 -1.75000000
v 1.00000000 0.75000000 -1.75000000
v 1.00000000 0.50000000 -1.50000000
v -1.00000000 0.50000000 -1.50000000
v -1.00000000 1.00000000 -1.75000000
v 1.00000000 1.00000000 -1.75000000
v -1.00000000 1.00000000 -2.00000000
v 1.00000000 1.00000000 -2.00000000
v -1.00000000 0.50000000 -2.00000000
v 1.00000000 0.50000000 -2.00000000
v -1.00000000 0.75000000 -1.50000000
v 1.00000000 0.75000000 -1.50000000
vt 0.0000000e+0 0.0000000e+0
vt -0.0000000e+0 0.47619000
vt -0.0000000e+0 0.50000000
vt 2.9412000e-2 0.57142900
vt 2.9412000e-2 1.00000000
vt 8.8235000e-2 0.61904800
vt 8.8235000e-2 0.85714300
vt 8.8235000e-2 0.88095200
vt 8.8235000e-2 0.95238100
vt 0.11764700 9.5238000e-2
vt 0.11764700 0.38095200
vt 0.11764700 0.76190500
vt 0.11764700 0.83333300
vt 0.11764700 0.90476200
vt 0.11764700 0.92857100
vt 0.14705900 0.88095200
vt 0.14705900 0.90476200
vt 0.17647100 0.80952400
vt 0.17647100 0.83333300
vt 0.17647100 0.85714300
vt 0.17647100 0.88095200
vt 0.17647100 0.92857100
vt 0.17647100 0.95238100
vt 0.17647100 0.97619000
vt 0.41176500 0.80952400
vt 0.41176500 0.83333300
vt 0.41176500 0.85714300
vt 0.41176500 0.88095200
vt 0.41176500 0.92857100
vt 0.41176500 0.95238100
vt 0.41176500 0.97619000
vt 0.44117600 0.88095200
vt 0.44117600 0.90476200
vt 0.47058800 9.5238000e-2
vt 0.47058800 0.38095200
vt 0.47058800 0.76190500
vt 0.47058800 0.83333300
vt 0.47058800 0.90476200
vt 0.47058800 0.92857100
vt 0.50000000 0.61904800
vt 0.50000000 0.85714300
vt 0.50000000 0.88095200
vt 0.50000000 0.95238100
vt 0.55882400 0.57142900
vt 0.55882400 1.00000000
vt 0.58823500 0.0000000e+0
vt 0.58823500 0.47619000
vt 0.58823500 0.50000000
vn 0.0000000e+0 0.0000000e+0 1.00000000
vn -1.00000000 0.0000000e+0 0.0000000e+0
vn 0.0000000e+0 -1.00000000 0.0000000e+0
vn 0.0000000e+0 -1.00000000 0.0000000e+0
vn -1.00000000 0.0000000e+0 0.0000000e+0
vn 0.0000000e+0 -1.00000000 0.0000000e+0
vn 0.0000000e+0 0.0000000e+0 1.00000000
vn 1.00000000 0.0000000e+0 0.0000000e+0
vn 0.0000000e+0 -1.00000000 0.0000000e+0
vn 0.0000000e+0 -1.00000000 0.0000000e+0
vn 0.0000000e+0 0.0000000e+0 1.00000000
vn 0.0000000e+0 -1.00000000 0.0000000e+0
vn -1.00000000 0.0000000e+0 0.0000000e+0
vn 0.0000000e+0 0.0000000e+0 -1.00000000
vn 0.0000000e+0 -1.00000000 0.0000000e+0
vn -0.0000000e+0 -1.00000000 0.0000000e+0
vn 0.0000000e+0 0.0000000e+0 -1.00000000
vn 0.0000000e+0 -1.00000000 0.0000000e+0
vn 1.00000000 0.0000000e+0 0.0000000e+0
vn 0.0000000e+0 0.0000000e+0 -1.00000000
vn 0.0000000e+0 -1.00000000 0.0000000e+0
vn -0.0000000e+0 -1.00000000 0.0000000e+0
vn 1.00000000 0.0000000e+0 0.0000000e+0
vn -0.0000000e+0 -1.00000000 0.0000000e+0
vn 0.0000000e+0 0.0000000e+0 1.00000000
vn -0.94868330 0.31622777 0.0000000e+0
vn 0.0000000e+0 0.31622777 0.94868330
vn 0.0000000e+0 0.0000000e+0 1.00000000
vn -1.00000000 0.0000000e+0 0.0000000e+0
vn -0.94868330 0.31622777 0.0000000e+0
vn 0.94868330 0.31622777 0.0000000e+0
vn 1.00000000 0.0000000e+0 0.0000000e+0
vn 0.0000000e+0 0.31622777 0.94868330
vn 0.0000000e+0 0.0000000e+0 1.00000000
vn 1.00000000 0.0000000e+0 0.0000000e+0
vn 0.0000000e+0 0.31622777 0.94868330
vn -1.00000000 0.0000000e+0 0.0000000e+0
vn -0.94868330 0.31622777 0.0000000e+0
vn 0.0000000e+0 0.31622777 -0.94868330
vn -1.00000000 0.0000000e+0 0.0000000e+0
vn 0.0000000e+0 0.0000000e+0 -1.00000000
vn 0.0000000e+0 0.31622777 -0.94868330
vn 0.94868330 0.31622777 0.0000000e+0
vn 0.0000000e+0 0.0000000e+0 -1.00000000
vn 0.0000000e+0 0.31622777 -0.94868330
vn 0.94868330 0.31622777 0.0000000e+0
vn 1.00000000 0.0000000e+0 0.0000000e+0
vn 0.0000000e+0 0.0000000e+0 -1.00000000
vn 0.0000000e+0 0.31622777 0.94868330
vn 0.0000000e+0 1.00000000 0.0000000e+0
vn 0.0000000e+0 1.00000000 0.0000000e+0
vn -0.94868330 0.31622777 0.0000000e+0
vn 0.0000000e+0 0.31622777 0.94868330
vn 0.0000000e+0 1.00000000 0.0000000e+0
vn 0.94868330 0.31622777 0.0000000e+0
vn 0.0000000e+0 1.00000000 0.0000000e+0
vn 0.0000000e+0 1.00000000 0.0000000e+0
vn 0.94868330 0.31622777 0.0000000e+0
vn 0.0000000e+0 0.31622777 0.94868330
vn 0.0000000e+0 1.00000000 0.0000000e+0
vn -0.94868330 0.31622777 0.0000000e+0
vn 0.0000000e+0 1.00000000 0.0000000e+0
vn -0.0000000e+0 1.00000000 0.0000000e+0
vn -0.94868330 0.31622777 0.0000000e+0
vn 0.0000000e+0 0.31622777 -0.94868330
vn 0.0000000e+0 1.00000000 0.0000000e+0
vn -0.0000000e+0 1.00000000 0.0000000e+0
vn -0.0000000e+0 1.00000000 0.0000000e+0
vn 0.0000000e+0 0.31622777 -0.94868330
vn 0.0000000e+0 1.00000000 0.0000000e+0
vn -0.0000000e+0 1.00000000 0.0000000e+0
vn 0.94868330 0.31622777 0.0000000e+0
vn 0.0000000e+0 0.31622777 -0.94868330
vn -0.0000000e+0 1.00000000 0.0000000e+0
vn 0.0000000e+0 -1.00000000 0.0000000e+0
vn 0.0000000e+0 0.0000000e+0 -1.00000000
vn 1.00000000 0.0000000e+0 0.0000000e+0
vn 0.0000000e+0 -1.00000000 0.0000000e+0
vn 0.0000000e+0 -1.00000000 0.0000000e+0
vn 1.00000000 0.0000000e+0 0.0000000e+0
vn 0.0000000e+0 -1.00000000 0.0000000e+0
vn 0.0000000e+0 0.0000000e+0 -1.00000000
vn -1.00000000 0.0000000e+0 0.0000000e+0
vn 0.0000000e+0 -1.00000000 0.0000000e+0
vn 0.0000000e+0 0.0000000e+0 -1.00000000
vn 0.0000000e+0 -1.00000000 0.0000000e+0
vn 0.0000000e+0 0.0000000e+0 1.00000000
vn 1.00000000 0.0000000e+0 0.0000000e+0
vn -0.0000000e+0 -1.00000000 0.0000000e+0
vn 0.0000000e+0 -0.0000000e+0 1.00000000
vn 0.0000000e+0 -1.00000000 0.0000000e+0
vn -0.0000000e+0 -1.00000000 0.0000000e+0
vn 0.0000000e+0 0.0000000e+0 1.00000000
vn -1.00000000 0.0000000e+0 0.0000000e+0
vn 0.0000000e+0 -1.00000000 0.0000000e+0
vn 0.0000000e+0 0.0000000e+0 1.00000000
vn 0.0000000e+0 0.0000000e+0 1.00000000
vn -1.00000000 0.0000000e+0 0.0000000e+0
vn 0.0000000e+0 -1.00000000 0.0000000e+0
vn -0.0000000e+0 -1.00000000 0.0000000e+0
vn 1.00000000 0.0000000e+0 0.0000000e+0
vn -0.0000000e+0 1.00000000 0.0000000e+0
vn 0.0000000e+0 1.00000000 0.0000000e+0
vn 0.0000000e+0 -0.0000000e+0 1.00000000
vn 0.0000000e+0 -0.0000000e+0 1.00000000
vn 1.00000000 0.0000000e+0 0.0000000e+0
vn -0.0000000e+0 1.00000000 0.0000000e+0
vn 0.0000000e+0 1.00000000 0.0000000e+0
vn 0.0000000e+0 0.0000000e+0 -1.00000000
vn 0.0000000e+0 1.00000000 0.0000000e+0
vn 0.0000000e+0 1.00000000 0.0000000e+0
vn 0.0000000e+0 0.0000000e+0 -1.00000000
vn 1.00000000 0.0000000e+0 0.0000000e+0
vn 0.0000000e+0 1.00000000 0.0000000e+0
vn -1.00000000 0.0000000e+0 0.0000000e+0
vn 0.0000000e+0 1.00000000 0.0000000e+0
vn 0.0000000e+0 1.00000000 0.0000000e+0
vn 0.0000000e+0 0.0000000e+0 -1.00000000
vn -1.00000000 0.0000000e+0 0.0000000e+0
vn 0.0000000e+0 1.00000000 0.0000000e+0
vn 0.0000000e+0 1.00000000 0.0000000e+0
vn -0.0000000e+0 1.00000000 0.0000000e+0
vn 0.0000000e+0 0.0000000e+0 1.00000000
vn 0.0000000e+0 0.0000000e+0 1.00000000
vn -1.00000000 0.0000000e+0 0.0000000e+0
vn -0.0000000e+0 1.00000000 0.0000000e+0
vn 0.0000000e+0 1.00000000 0.0000000e+0
vn 0.0000000e+0 0.0000000e+0 -1.00000000
vn 1.00000000 0.0000000e+0 0.0000000e+0
vn 0.0000000e+0 1.00000000 0.0000000e+0
vn 0.0000000e+0 1.00000000 0.0000000e+0
vn 0.0000000e+0 0.0000000e+0 -1.00000000
vn 0.0000000e+0 1.00000000 0.0000000e+0
vn 0.0000000e+0 0.0000000e+0 -1.00000000
vn -1.00000000 0.0000000e+0 0.0000000e+0
vn 0.0000000e+0 1.00000000 0.0000000e+0
vn 0.0000000e+0 1.00000000 0.0000000e+0
vn -1.00000000 0.0000000e+0 0.0000000e+0
vn 1.00000000 0.0000000e+0 0.0000000e+0
vn 0.0000000e+0 -0.0000000e+0 1.00000000
vn -0.0000000e+0 1.00000000 0.0000000e+0
vn 0.0000000e+0 1.00000000 0.0000000e+0
vn 1.00000000 0.0000000e+0 0.0000000e+0
vn 0.0000000e+0 -0.0000000e+0 1.00000000
vn 0.0000000e+0 1.00000000 0.0000000e+0
vn -1.00000000 0.0000000e+0 0.0000000e+0
vn 0.0000000e+0 0.0000000e+0 1.00000000
vn 0.0000000e+0 1.00000000 0.0000000e+0
vn 0.0000000e+0 0.0000000e+0 1.00000000
vn -0.0000000e+0 1.00000000 0.0000000e+0
vn 1.00000000 0.0000000e+0 0.0000000e+0
vn 0.0000000e+0 1.00000000 0.0000000e+0
vn 0.0000000e+0 0.0000000e+0 -1.00000000
vn 1.00000000 0.0000000e+0 0.0000000e+0
vn 0.0000000e+0 1.00000000 0.0000000e+0
vn 0.0000000e+0 1.00000000 0.0000000e+0
vn 0.0000000e+0 0.0000000e+0 -1.00000000
vn 0.0000000e+0 1.00000000 0.0000000e+0
vn 0.0000000e+0 0.0000000e+0 -1.00000000
vn -1.00000000 0.0000000e+0 0.0000000e+0
vn 0.0000000e+0 1.00000000 0.0000000e+0
vn 0.0000000e+0 1.00000000 0.0000000e+0
vn 1.00000000 0.0000000e+0 0.0000000e+0
vn 0.0000000e+0 1.00000000 0.0000000e+0
vn 0.0000000e+0 -0.0000000e+0 1.00000000
vn -0.0000000e+0 1.00000000 0.0000000e+0
vn -0.0000000e+0 1.00000000 0.0000000e+0
vn -1.00000000 0.0000000e+0 0.0000000e+0
vn 0.0000000e+0 1.00000000 0.0000000e+0
vn -1.00000000 0.0000000e+0 0.0000000e+0
vn 0.0000000e+0 1.00000000 0.0000000e+0
vn 0.0000000e+0 0.0000000e+0 1.00000000
vn -0.0000000e+0 1.00000000 0.0000000e+0
vn -0.0000000e+0 1.00000000 0.0000000e+0
vn -0.0000000e+0 1.00000000 0.0000000e+0
vn 1.00000000 0.0000000e+0 0.0000000e+0
vn 0.0000000e+0 -0.0000000e+0 1.00000000
vn -0.0000000e+0 1.00000000 0.0000000e+0
vn 1.00000000 0.0000000e+0 0.0000000e+0
vn 1.00000000 0.0000000e+0 0.0000000e+0
vn 1.00000000 0.0000000e+0 0.0000000e+0
vn 0.0000000e+0 0.0000000e+0 1.00000000
vn -0.0000000e+0 1.00000000 0.0000000e+0
vn -1.00000000 0.0000000e+0 0.0000000e+0
vn -0.0000000e+0 1.00000000 0.0000000e+0
vn -1.00000000 0.0000000e+0 0.0000000e+0
vn -1.00000000 0.0000000e+0 0.0000000e+0
vn -1.00000000 0.0000000e+0 0.0000000e+0
vn 0.0000000e+0 0.0000000e+0 1.00000000
vn 0.0000000e+0 0.0000000e+0 1.00000000
vn 0.0000000e+0 0.0000000e+0 1.00000000
vn -0.0000000e+0 1.00000000 0.0000000e+0
vn -1.00000000 0.0000000e+0 0.0000000e+0
vn -1.00000000 0.0000000e+0 0.0000000e+0
vn 0.0000000e+0 0.0000000e+0 1.00000000
vn -0.0000000e+0 1.00000000 0.0000000e+0
vn 0.0000000e+0 -0.0000000e+0 1.00000000
vn 0.0000000e+0 -0.0000000e+0 1.00000000
vn 0.0000000e+0 0.0000000e+0 1.00000000
vn -0.0000000e+0 1.00000000 0.0000000e+0
vn 1.00000000 0.0000000e+0 0.0000000e+0
vn 1.00000000 0.0000000e+0 0.0000000e+0
vn 1.00000000 0.0000000e+0 0.0000000e+0
vn 0.0000000e+0 -0.0000000e+0 1.00000000
vn 0.0000000e+0 -0.0000000e+0 1.00000000
vn -0.0000000e+0 1.00000000 0.0000000e+0
vn 0.0000000e+0 0.0000000e+0 1.00000000
vn 0.0000000e+0 0.0000000e+0 1.00000000
vn -0.0000000e+0 1.00000000 0.0000000e+0
vn -1.00000000 0.0000000e+0 0.0000000e+0
vn 0.0000000e+0 0.0000000e+0 1.00000000
vn 1.00000000 0.0000000e+0 0.0000000e+0
vn 1.00000000 0.0000000e+0 0.0000000e+0
vn -0.0000000e+0 1.00000000 0.0000000e+0
vn -0.0000000e+0 1.00000000 0.0000000e+0
vn -0.0000000e+0 1.00000000 0.0000000e+0
vn 0.0000000e+0 0.0000000e+0 1.00000000
vn -0.0000000e+0 1.00000000 0.0000000e+0
vn -1.00000000 0.0000000e+0 0.0000000e+0
vn 0.0000000e+0 0.0000000e+0 1.00000000
vn -0.0000000e+0 1.00000000 0.0000000e+0
vn -0.0000000e+0 1.00000000 0.0000000e+0
vn -0.0000000e+0 1.00000000 0.0000000e+0
vn -1.00000000 0.0000000e+0 0.0000000e+0
vn 0.0000000e+0 0.0000000e+0 1.00000000
vn -0.0000000e+0 1.00000000 0.0000000e+0
vn 0.0000000e+0 0.0000000e+0 1.00000000
vn 1.00000000 0.0000000e+0 0.0000000e+0
vn 1.00000000 0.0000000e+0 0.0000000e+0
vn -0.0000000e+0 1.00000000 0.0000000e+0
vn -1.00000000 0.0000000e+0 0.0000000e+0
vn 0.0000000e+0 0.0000000e+0 1.00000000
vn -0.0000000e+0 1.00000000 0.0000000e+0
vn -1.00000000 0.0000000e+0 0.0000000e+0
vn -0.0000000e+0 1.00000000 0.0000000e+0
vn 0.0000000e+0 -0.0000000e+0 1.00000000
vn 1.00000000 0.0000000e+0 0.0000000e+0
vn -0.0000000e+0 1.00000000 0.0000000e+0
vn 0.0000000e+0 0.0000000e+0 1.00000000
vn -1.00000000 0.0000000e+0 0.0000000e+0
g Frame_default
usemtl default
s 1
f 4/47/19 6/3/32 2/2/8
f 4/46/24 16/34/100 15/10/92
f 5/48/29 7/3/40 1/47/5
f 6/48/36 10/44/59 9/4/53
f 7/48/41 8/3/48 3/47/17
f 8/48/46 12/44/72 10/4/58
f 9/44/52 11/4/64 5/48/30
f 9/4/54 26/40/161 25/6/155
f 10/44/60 28/43/171 26/40/162
f 11/44/65 12/4/73 7/48/42
f 12/45/74 36/31/222 28/43/174
f 13/11/78 14/35/84 1/2/6
f 14/35/86 16/34/99 2/47/12
f 15/36/88 17/37/101 13/12/77
f 17/37/108 23/41/142 21/7/131
f 17/13/102 39/19/235 29/20/175
f 18/37/112 19/13/118 14/12/85
f 19/37/119 20/13/125 16/12/98
f 21/41/130 22/7/136 18/37/114
f 22/41/135 28/8/168 24/7/146
f 25/6/156 27/9/164 11/5/66
f 29/20/177 33/21/204 23/7/140
f 29/17/181 37/22/229 35/15/213
f 30/33/188 38/29/234 31/28/194
f 30/27/183 40/26/238 20/37/122
f 31/25/191 32/18/199 16/36/97
f 32/21/196 38/29/230 37/22/226
f 33/23/206 35/24/215 27/9/167
f 34/38/210 36/39/224 30/33/187
f 35/24/216 36/31/223 11/5/68
s 2
f 2/47/7 5/3/25 1/2/1
f 2/47/10 16/34/95 4/46/21
f 3/47/14 8/3/44 4/2/20
f 3/1/15 13/11/75 1/2/4
f 5/48/26 11/4/61 7/3/38
f 6/48/33 9/4/49 5/3/27
f 7/48/39 12/4/69 8/3/45
f 8/48/43 10/4/55 6/3/31
f 9/4/51 25/6/152 11/5/62
f 10/44/56 26/40/158 9/4/50
f 11/5/63 36/31/218 12/45/71
f 12/45/70 28/43/169 10/44/57
f 13/36/76 18/37/109 14/12/82
f 14/36/83 19/37/115 16/12/94
f 16/36/93 32/18/195 15/12/87
f 17/37/103 21/7/127 18/13/111
f 17/13/107 29/20/178 23/7/141
f 20/37/123 31/25/189 16/36/96
f 22/41/137 24/7/148 19/37/120
f 23/41/143 27/42/163 25/8/154
f 24/41/150 30/27/185 20/37/126
f 25/42/153 26/8/159 21/41/132
f 26/42/160 28/8/170 22/41/138
f 27/9/166 35/24/214 11/5/67
f 28/42/172 34/28/208 24/41/149
f 29/17/176 35/15/212 33/14/203
f 29/17/179 39/16/237 32/21/201
f 31/28/192 38/29/233 32/21/200
f 31/28/193 40/32/240 30/33/186
f 37/22/227 38/29/232 36/31/220
s 3
f 1/47/2 7/3/37 3/2/13
f 1/2/3 14/35/81 2/47/9
f 2/47/11 6/48/34 5/3/28
f 4/47/23 8/48/47 6/3/35
f 4/46/22 15/10/89 3/1/16
f 15/12/90 32/18/198 17/13/105
f 17/37/106 18/13/113 13/12/80
f 18/37/110 22/7/133 19/13/116
f 19/37/117 24/7/145 20/13/121
f 20/37/124 40/26/239 31/25/190
f 21/41/128 26/8/157 22/7/134
f 23/41/139 25/8/151 21/7/129
f 23/7/144 33/21/205 27/8/165
f 24/41/147 34/28/207 30/27/182
f 28/43/173 36/31/221 34/30/209
f 32/21/202 37/22/228 29/17/180
f 35/24/211 37/22/225 36/31/217
f 36/39/219 38/29/231 30/33/184
s 4
f 3/1/18 15/10/91 13/11/79
f 32/18/197 39/19/236 17/13/104
o Hatch
#24 vertices, 38 faces
v -1.75000000 0.75000000 1.75000000
v 1.75000000 0.75000000 1.75000000
v -1.75000000 0.75000000 -1.75000000
v 1.75000000 0.75000000 -1.75000000
v -1.75000000 1.00000000 -1.75000000
v -1.75000000 1.00000000 1.75000000
v 1.75000000 1.00000000 1.75000000
v 1.75000000 1.00000000 -1.75000000
v -1.50000000 0.75000000 -1.50000000
v -1.50000000 0.75000000 1.50000000
v 1.50000000 0.75000000 1.50000000
v 1.50000000 0.75000000 -1.50000000
v -1.50000000 0.50000000 -1.50000000
v -1.50000000 0.50000000 1.50000000
v 1.50000000 0.50000000 1.50000000
v 1.50000000 0.50000000 -1.50000000
v -1.00000000 0.75000000 -1.50000000
v 1.00000000 0.75000000 -1.50000000
v -1.00000000 0.75000000 -2.00000000
v 1.00000000 0.75000000 -2.00000000
v -1.00000000 0.50000000 -2.00000000
v -1.00000000 0.50000000 -1.50000000
v 1.00000000 0.50000000 -1.50000000
v 1.00000000 0.50000000 -2.00000000
vt 0.55882400 0.73809500
vt 0.55882400 0.76190500
vt 0.58823500 0.33333300
vt 0.58823500 0.35714300
vt 0.58823500 0.69047600
vt 0.61764700 -0.0000000e+0
vt 0.61764700 0.28571400
vt 0.61764700 0.30952400
vt 0.61764700 0.69047600
vt 0.61764700 0.73809500
vt 0.61764700 0.76190500
vt 0.61764700 0.80952400
vt 0.85294100 0.69047600
vt 0.85294100 0.73809500
vt 0.85294100 0.76190500
vt 0.85294100 0.80952400
vt 0.91176500 0.73809500
vt 0.91176500 0.76190500
vt 0.97058800 0.0000000e+0
vt 0.97058800 0.28571400
vt 0.97058800 0.30952400
vt 1.00000000 0.33333300
vt 1.00000000 0.35714300
vt 1.00000000 0.69047600
vn 0.0000000e+0 -1.00000000 0.0000000e+0
vn 0.0000000e+0 0.0000000e+0 1.00000000
vn -1.00000000 0.0000000e+0 0.0000000e+0
vn 0.0000000e+0 -1.00000000 0.0000000e+0
vn 0.0000000e+0 -1.00000000 0.0000000e+0
vn -1.00000000 0.0000000e+0 0.0000000e+0
vn 0.0000000e+0 -1.00000000 0.0000000e+0
vn 0.0000000e+0 0.0000000e+0 1.00000000
vn 1.00000000 0.0000000e+0 0.0000000e+0
vn 0.0000000e+0 -1.00000000 0.0000000e+0
vn 0.0000000e+0 0.0000000e+0 1.00000000
vn 0.0000000e+0 -1.00000000 0.0000000e+0
vn 0.0000000e+0 0.0000000e+0 -1.00000000
vn -1.00000000 0.0000000e+0 0.0000000e+0
vn -0.0000000e+0 -1.00000000 0.0000000e+0
vn 0.0000000e+0 -1.00000000 0.0000000e+0
vn 0.0000000e+0 0.0000000e+0 -1.00000000
vn 0.0000000e+0 -1.00000000 0.0000000e+0
vn 0.0000000e+0 0.0000000e+0 -1.00000000
vn 1.00000000 0.0000000e+0 0.0000000e+0
vn 0.0000000e+0 -1.00000000 0.0000000e+0
vn -0.0000000e+0 -1.00000000 0.0000000e+0
vn 1.00000000 0.0000000e+0 0.0000000e+0
vn -0.0000000e+0 -1.00000000 0.0000000e+0
vn 0.0000000e+0 1.00000000 0.0000000e+0
vn -1.00000000 0.0000000e+0 0.0000000e+0
vn 0.0000000e+0 1.00000000 0.0000000e+0
vn 0.0000000e+0 0.0000000e+0 -1.00000000
vn -1.00000000 0.0000000e+0 0.0000000e+0
vn 0.0000000e+0 1.00000000 0.0000000e+0
vn 0.0000000e+0 0.0000000e+0 1.00000000
vn 0.0000000e+0 0.0000000e+0 1.00000000
vn -1.00000000 0.0000000e+0 0.0000000e+0
vn 0.0000000e+0 1.00000000 0.0000000e+0
vn 1.00000000 0.0000000e+0 0.0000000e+0
vn 0.0000000e+0 1.00000000 0.0000000e+0
vn 0.0000000e+0 0.0000000e+0 1.00000000
vn 1.00000000 0.0000000e+0 0.0000000e+0
vn 0.0000000e+0 0.0000000e+0 -1.00000000
vn 0.0000000e+0 1.00000000 0.0000000e+0
vn 0.0000000e+0 0.0000000e+0 -1.00000000
vn 1.00000000 0.0000000e+0 0.0000000e+0
vn -0.0000000e+0 -1.00000000 0.0000000e+0
vn -1.00000000 0.0000000e+0 0.0000000e+0
vn 0.0000000e+0 0.0000000e+0 -1.00000000
vn -0.0000000e+0 -1.00000000 0.0000000e+0
vn 0.0000000e+0 -1.00000000 0.0000000e+0
vn -1.00000000 0.0000000e+0 0.0000000e+0
vn 0.0000000e+0 -1.00000000 0.0000000e+0
vn -1.00000000 0.0000000e+0 0.0000000e+0
vn 0.0000000e+0 0.0000000e+0 1.00000000
vn 0.0000000e+0 -1.00000000 0.0000000e+0
vn 0.0000000e+0 -1.00000000 0.0000000e+0
vn 0.0000000e+0 0.0000000e+0 1.00000000
vn 0.0000000e+0 -1.00000000 0.0000000e+0
vn 1.00000000 0.0000000e+0 0.0000000e+0
vn 0.0000000e+0 0.0000000e+0 1.00000000
vn 0.0000000e+0 -1.00000000 0.0000000e+0
vn 0.0000000e+0 -1.00000000 0.0000000e+0
vn 1.00000000 0.0000000e+0 0.0000000e+0
vn 0.0000000e+0 -1.00000000 0.0000000e+0
vn 1.00000000 0.0000000e+0 0.0000000e+0
vn 0.0000000e+0 0.0000000e+0 -1.00000000
vn 0.0000000e+0 -1.00000000 0.0000000e+0
vn -0.0000000e+0 -1.00000000 0.0000000e+0
vn 0.0000000e+0 0.0000000e+0 -1.00000000
vn 0.0000000e+0 0.0000000e+0 -1.00000000
vn 0.0000000e+0 -1.00000000 0.0000000e+0
vn -1.00000000 0.0000000e+0 0.0000000e+0
vn 0.0000000e+0 0.0000000e+0 -1.00000000
vn -1.00000000 0.0000000e+0 0.0000000e+0
vn 0.0000000e+0 -1.00000000 0.0000000e+0
vn -1.00000000 0.0000000e+0 0.0000000e+0
vn 0.0000000e+0 0.0000000e+0 1.00000000
vn 0.0000000e+0 -1.00000000 0.0000000e+0
vn 0.0000000e+0 0.0000000e+0 1.00000000
vn 1.00000000 0.0000000e+0 0.0000000e+0
vn 0.0000000e+0 0.0000000e+0 1.00000000
vn 0.0000000e+0 -1.00000000 0.0000000e+0
vn 1.00000000 0.0000000e+0 0.0000000e+0
vn 0.0000000e+0 -1.00000000 0.0000000e+0
vn 1.00000000 0.0000000e+0 0.0000000e+0
vn 0.0000000e+0 0.0000000e+0 -1.00000000
vn 0.0000000e+0 -1.00000000 0.0000000e+0
vn -0.0000000e+0 1.00000000 0.0000000e+0
vn -1.00000000 0.0000000e+0 0.0000000e+0
vn -0.0000000e+0 1.00000000 0.0000000e+0
vn 1.00000000 0.0000000e+0 0.0000000e+0
vn -0.0000000e+0 1.00000000 0.0000000e+0
vn 1.00000000 0.0000000e+0 0.0000000e+0
vn -0.0000000e+0 1.00000000 0.0000000e+0
vn 0.0000000e+0 0.0000000e+0 -1.00000000
vn -1.00000000 0.0000000e+0 0.0000000e+0
vn -1.00000000 0.0000000e+0 0.0000000e+0
vn -0.0000000e+0 1.00000000 0.0000000e+0
vn 1.00000000 0.0000000e+0 0.0000000e+0
vn 0.0000000e+0 0.0000000e+0 -1.00000000
vn -0.0000000e+0 1.00000000 0.0000000e+0
vn 0.0000000e+0 0.0000000e+0 -1.00000000
vn -0.0000000e+0 -1.00000000 0.0000000e+0
vn 0.0000000e+0 0.0000000e+0 -1.00000000
vn 0.0000000e+0 0.0000000e+0 -1.00000000
vn -1.00000000 0.0000000e+0 0.0000000e+0
vn -0.0000000e+0 -1.00000000 0.0000000e+0
vn -1.00000000 0.0000000e+0 0.0000000e+0
vn -0.0000000e+0 -1.00000000 0.0000000e+0
vn -1.00000000 0.0000000e+0 0.0000000e+0
vn -0.0000000e+0 -1.00000000 0.0000000e+0
vn 1.00000000 0.0000000e+0 0.0000000e+0
vn -0.0000000e+0 -1.00000000 0.0000000e+0
vn 1.00000000 0.0000000e+0 0.0000000e+0
vn -0.0000000e+0 -1.00000000 0.0000000e+0
vn 1.00000000 0.0000000e+0 0.0000000e+0
vn 0.0000000e+0 0.0000000e+0 -1.00000000
g Hatch_default
usemtl default
s 1
f 41/70/243 45/52/266 43/51/254
f 42/70/248 46/52/271 41/51/242
f 43/70/253 48/52/279 44/51/259
f 44/70/260 47/52/275 42/51/249
f 47/71/276 48/72/280 45/53/267
f 49/56/287 50/69/293 43/51/258
f 50/56/292 51/69/298 41/51/245
f 51/56/299 52/69/304 42/51/252
f 52/56/303 53/68/307 49/69/285
f 53/54/308 56/67/321 54/55/312
f 54/55/314 55/68/318 50/56/294
f 55/55/317 56/68/322 51/56/300
f 57/64/325 60/59/335 59/63/331
f 58/50/328 64/58/351 60/59/336
f 61/62/340 64/58/350 62/61/344
s 2
f 41/51/241 51/69/295 42/70/247
f 43/51/256 50/69/289 41/70/244
f 44/70/263 48/71/282 47/52/278
f 44/51/264 52/56/305 49/69/286
f 45/71/268 48/52/281 43/70/257
f 46/52/270 47/71/274 45/53/265
f 49/56/284 54/68/311 50/69/290
f 50/56/291 55/68/316 51/69/297
f 51/56/296 56/68/320 52/69/302
f 54/55/315 56/67/324 55/68/319
f 58/60/329 60/59/338 57/64/327
f 59/63/333 62/65/345 57/66/326
f 60/59/337 61/62/341 59/63/332
f 62/61/346 64/58/352 63/57/348
s 3
f 41/70/246 46/71/273 45/52/269
f 42/70/251 47/71/277 46/52/272
f 42/51/250 52/69/301 44/70/261
f 44/51/262 49/69/283 43/70/255
f 52/56/306 56/55/323 53/68/310
f 53/55/309 54/68/313 49/56/288
f 60/59/339 64/58/354 61/62/342
f 61/62/343 62/65/347 59/63/334
f 63/49/349 64/58/353 58/50/330
