# Converted from Techne: C:/Projects/Hbm-s-Nuclear-Tech-GIT/src/main/java/com/hbm/render/model/ModelSteelRoof.java
mtllib hbm_base.mtl
usemtl Material.001
v 1.000000 0.062500 0.000000
v 1.000000 0.000000 0.000000
v 0.000000 0.000000 0.000000
v 0.000000 0.062500 0.000000
v 1.000000 0.062500 1.000000
v 0.000000 0.062500 1.000000
v 0.000000 0.000000 1.000000
v 1.000000 0.000000 1.000000
v 1.000000 0.062500 0.000000
v 1.000000 0.062500 1.000000
v 1.000000 0.000000 1.000000
v 1.000000 0.000000 0.000000
v 0.000000 0.062500 0.000000
v 0.000000 0.000000 0.000000
v 0.000000 0.000000 1.000000
v 0.000000 0.062500 1.000000
v 1.000000 0.062500 0.000000
v 0.000000 0.062500 0.000000
v 0.000000 0.062500 1.000000
v 1.000000 0.062500 1.000000
v 1.000000 0.000000 0.000000
v 1.000000 0.000000 1.000000
v 0.000000 0.000000 1.000000
v 0.000000 0.000000 0.000000
v 0.687500 0.125000 0.000000
v 0.687500 0.062500 0.000000
v 0.625000 0.062500 0.000000
v 0.625000 0.125000 0.000000
v 0.687500 0.125000 1.000000
v 0.625000 0.125000 1.000000
v 0.625000 0.062500 1.000000
v 0.687500 0.062500 1.000000
v 0.687500 0.125000 0.000000
v 0.687500 0.125000 1.000000
v 0.687500 0.062500 1.000000
v 0.687500 0.062500 0.000000
v 0.625000 0.125000 0.000000
v 0.625000 0.062500 0.000000
v 0.625000 0.062500 1.000000
v 0.625000 0.125000 1.000000
v 0.687500 0.125000 0.000000
v 0.625000 0.125000 0.000000
v 0.625000 0.125000 1.000000
v 0.687500 0.125000 1.000000
v 0.687500 0.062500 0.000000
v 0.687500 0.062500 1.000000
v 0.625000 0.062500 1.000000
v 0.625000 0.062500 0.000000
v 1.000000 0.187500 0.625000
v 1.000000 0.062500 0.625000
v 0.000000 0.062500 0.625000
v 0.000000 0.187500 0.625000
v 1.000000 0.187500 0.750000
v 0.000000 0.187500 0.750000
v 0.000000 0.062500 0.750000
v 1.000000 0.062500 0.750000
v 1.000000 0.187500 0.625000
v 1.000000 0.187500 0.750000
v 1.000000 0.062500 0.750000
v 1.000000 0.062500 0.625000
v 0.000000 0.187500 0.625000
v 0.000000 0.062500 0.625000
v 0.000000 0.062500 0.750000
v 0.000000 0.187500 0.750000
v 1.000000 0.187500 0.625000
v 0.000000 0.187500 0.625000
v 0.000000 0.187500 0.750000
v 1.000000 0.187500 0.750000
v 1.000000 0.062500 0.625000
v 1.000000 0.062500 0.750000
v 0.000000 0.062500 0.750000
v 0.000000 0.062500 0.625000
vt 0.250000 0.468750
vt 0.250000 0.500000
vt 0.500000 0.500000
vt 0.500000 0.468750
vt 1.000000 0.468750
vt 0.750000 0.468750
vt 0.750000 0.500000
vt 1.000000 0.500000
vt 0.250000 0.468750
vt 0.000000 0.468750
vt 0.000000 0.500000
vt 0.250000 0.500000
vt 0.500000 0.468750
vt 0.500000 0.500000
vt 0.750000 0.500000
vt 0.750000 0.468750
vt 0.750000 1.000000
vt 0.500000 1.000000
vt 0.500000 0.500000
vt 0.750000 0.500000
vt 0.250000 1.000000
vt 0.250000 0.500000
vt 0.500000 0.500000
vt 0.500000 1.000000
vt 0.718750 0.000000
vt 0.718750 0.031250
vt 0.734375 0.031250
vt 0.734375 0.000000
vt 1.000000 0.000000
vt 0.984375 0.000000
vt 0.984375 0.031250
vt 1.000000 0.031250
vt 0.718750 0.000000
vt 0.468750 0.000000
vt 0.468750 0.031250
vt 0.718750 0.031250
vt 0.734375 0.000000
vt 0.734375 0.031250
vt 0.984375 0.031250
vt 0.984375 0.000000
vt 0.750000 0.531250
vt 0.734375 0.531250
vt 0.734375 0.031250
vt 0.750000 0.031250
vt 0.718750 0.531250
vt 0.718750 0.031250
vt 0.734375 0.031250
vt 0.734375 0.531250
vt 0.031250 0.343750
vt 0.031250 0.406250
vt 0.281250 0.406250
vt 0.281250 0.343750
vt 0.562500 0.343750
vt 0.312500 0.343750
vt 0.312500 0.406250
vt 0.562500 0.406250
vt 0.031250 0.343750
vt 0.000000 0.343750
vt 0.000000 0.406250
vt 0.031250 0.406250
vt 0.281250 0.343750
vt 0.281250 0.406250
vt 0.312500 0.406250
vt 0.312500 0.343750
vt 0.531250 0.468750
vt 0.281250 0.468750
vt 0.281250 0.406250
vt 0.531250 0.406250
vt 0.031250 0.468750
vt 0.031250 0.406250
vt 0.281250 0.406250
vt 0.281250 0.468750
f 1/1 2/2 3/3 4/4
f 5/5 6/6 7/7 8/8
f 9/9 10/10 11/11 12/12
f 13/13 14/14 15/15 16/16
f 17/17 18/18 19/19 20/20
f 21/21 22/22 23/23 24/24
f 25/25 26/26 27/27 28/28
f 29/29 30/30 31/31 32/32
f 33/33 34/34 35/35 36/36
f 37/37 38/38 39/39 40/40
f 41/41 42/42 43/43 44/44
f 45/45 46/46 47/47 48/48
f 49/49 50/50 51/51 52/52
f 53/53 54/54 55/55 56/56
f 57/57 58/58 59/59 60/60
f 61/61 62/62 63/63 64/64
f 65/65 66/66 67/67 68/68
f 69/69 70/70 71/71 72/72
