# Blender 4.5.9 LTS
# www.blender.org
mtllib steel_pole.mtl
o steel_pole_model
v -0.031250 0.875000 -0.312500
v 0.031250 0.875000 -0.312500
v 0.343750 0.062500 0.312500
v 0.281250 0.062500 0.312500
v 0.281250 0.125000 0.312500
v 0.343750 0.125000 0.312500
v 0.031250 0.937500 -0.312500
v -0.031250 0.937500 -0.312500
v -0.062500 -0.000000 -0.375000
v -0.062500 1.000000 -0.375000
v 0.062500 -0.000000 -0.375000
v 0.062500 1.000000 -0.375000
v -0.062500 -0.000000 -0.250000
v -0.062500 1.000000 -0.250000
v 0.062500 -0.000000 -0.250000
v 0.062500 1.000000 -0.250000
v 0.250000 0.000000 0.250000
v 0.250000 1.000000 0.250000
v 0.375000 0.000000 0.250000
v 0.375000 1.000000 0.250000
v 0.250000 0.000000 0.375000
v 0.250000 1.000000 0.375000
v 0.375000 0.000000 0.375000
v 0.375000 1.000000 0.375000
v -0.375000 0.000000 0.250000
v -0.375000 1.000000 0.250000
v -0.250000 0.000000 0.250000
v -0.250000 1.000000 0.250000
v -0.375000 0.000000 0.375000
v -0.375000 1.000000 0.375000
v -0.250000 0.000000 0.375000
v -0.250000 1.000000 0.375000
v -0.031250 0.875000 -0.312500
v 0.031250 0.875000 -0.312500
v -0.281250 0.062500 0.312500
v -0.343750 0.062500 0.312500
v -0.343750 0.125000 0.312500
v -0.281250 0.125000 0.312500
v 0.031250 0.937500 -0.312500
v -0.031250 0.937500 -0.312500
v -0.031250 0.062500 -0.312500
v 0.031250 0.062500 -0.312500
v 0.343750 0.875000 0.312500
v 0.281250 0.875000 0.312500
v 0.281250 0.937500 0.312500
v 0.343750 0.937500 0.312500
v 0.031250 0.125000 -0.312500
v -0.031250 0.125000 -0.312500
v -0.031250 0.062500 -0.312500
v 0.031250 0.062500 -0.312500
v -0.281250 0.875000 0.312500
v -0.343750 0.875000 0.312500
v -0.343750 0.937500 0.312500
v -0.281250 0.937500 0.312500
v 0.031250 0.125000 -0.312500
v -0.031250 0.125000 -0.312500
v 0.312500 0.125000 0.281250
v 0.312500 0.125000 0.343750
v -0.312500 0.937500 0.281250
v -0.312500 0.937500 0.343750
v 0.312500 0.062500 0.281250
v 0.312500 0.062500 0.343750
v -0.312500 0.875000 0.281250
v -0.312500 0.875000 0.343750
v -0.312500 0.125000 0.343750
v -0.312500 0.125000 0.281250
v 0.312500 0.937500 0.343750
v 0.312500 0.937500 0.281250
v -0.312500 0.062500 0.343750
v -0.312500 0.062500 0.281250
v 0.312500 0.875000 0.343750
v 0.312500 0.875000 0.281250
vn -0.8944 -0.0000 -0.4472
vn 0.8944 -0.0000 0.4472
vn 0.8944 -0.0000 -0.4472
vn -0.8944 -0.0000 0.4472
vn -0.0000 -0.6097 0.7926
vn -1.0000 -0.0000 -0.0000
vn 1.0000 -0.0000 -0.0000
vn -0.0000 -1.0000 -0.0000
vn -0.0000 -0.0000 -1.0000
vn 0.7926 0.6097 -0.0000
vn -0.0000 1.0000 -0.0000
vn 0.7926 -0.6097 -0.0000
vn -0.0000 -0.0000 1.0000
vn -0.7926 -0.6097 -0.0000
vn -0.0000 0.6097 -0.7926
vn -0.0000 -0.6097 -0.7926
vn -0.0000 0.6097 0.7926
vn -0.7926 0.6097 -0.0000
vt 0.937500 0.625000
vt 0.187500 0.625000
vt 0.187500 0.562500
vt 0.937500 0.562500
vt 0.000000 0.000000
vt 0.125000 0.000000
vt 0.125000 1.000000
vt -0.000000 1.000000
vt -0.000000 0.875000
vt 0.125000 0.875000
s 1
usemtl steel_pole
f 33/1/1 36/2/1 37/3/1
f 38/2/2 35/3/2 34/4/2
f 6/2/3 3/3/3 2/4/3
f 1/1/4 4/2/4 5/3/4
f 50/3/5 51/4/5 52/1/5 49/2/5
f 25/5/6 29/6/6 30/7/6 26/8/6
f 9/5/6 13/6/6 14/7/6 10/8/6
f 11/8/7 12/5/7 16/6/7 15/7/7
f 29/8/8 25/9/8 27/10/8 31/7/8
f 25/6/9 26/7/9 28/8/9 27/5/9
f 58/2/10 57/3/10 59/4/10 60/1/10
f 14/7/11 16/8/11 12/9/11 10/10/11
f 13/8/8 9/9/8 11/10/8 15/7/8
f 70/3/12 72/4/12 71/1/12 69/2/12
f 21/8/8 17/9/8 19/10/8 23/7/8
f 13/5/13 15/6/13 16/7/13 14/8/13
f 62/3/14 64/4/14 63/1/14 61/2/14
f 27/6/7 28/7/7 32/8/7 31/5/7
f 9/6/9 10/7/9 12/8/9 11/5/9
f 17/6/9 18/7/9 20/8/9 19/5/9
f 17/5/6 21/6/6 22/7/6 18/8/6
f 29/5/13 31/6/13 32/7/13 30/8/13
f 21/5/13 23/6/13 24/7/13 22/8/13
f 43/4/5 44/1/5 41/2/5 42/3/5
f 46/1/15 47/2/15 48/3/15 45/4/15
f 56/2/1 49/3/1 52/4/1
f 55/3/2 54/4/2 51/1/2
f 47/3/3 46/4/3 43/1/3
f 48/2/4 41/3/4 44/4/4
f 3/2/16 4/3/16 1/4/16 2/1/16
f 6/3/17 7/4/17 8/1/17 5/2/17
f 53/4/15 54/1/15 55/2/15 56/3/15
f 34/1/16 35/2/16 36/3/16 33/4/16
f 30/7/11 32/8/11 28/9/11 26/10/11
f 37/2/17 38/3/17 39/4/17 40/1/17
f 58/3/13 60/4/13 64/1/13
f 22/7/11 24/8/11 20/9/11 18/10/11
f 57/2/9 61/3/9 63/4/9
f 19/8/7 20/5/7 24/6/7 23/7/7
f 66/3/9 68/4/9 72/1/9
f 65/2/13 69/3/13 71/4/13
f 40/4/1 33/1/1 37/3/1
f 39/1/2 38/2/2 34/4/2
f 7/1/3 6/2/3 2/4/3
f 8/4/4 1/1/4 5/3/4
f 53/1/1 56/2/1 52/4/1
f 50/2/2 55/3/2 51/1/2
f 42/2/3 47/3/3 43/1/3
f 45/1/4 48/2/4 44/4/4
f 62/2/13 58/3/13 64/1/13
f 59/1/9 57/2/9 63/4/9
f 70/2/9 66/3/9 72/1/9
f 67/1/13 65/2/13 71/4/13
f 66/2/18 65/3/18 67/4/18 68/1/18
