mtllib boat_item.mtl
v 0.701149 0.483101 0.637931
v 0.701149 0.517583 0.603448
v 0.701149 0.517583 0.637931
v 0.816092 0.483101 0.442529
v 0.701149 0.368158 0.442529
v 0.701149 0.483101 0.442529
v 0.816092 0.483101 0.557471
v 0.816092 0.368158 0.442529
v 0.701149 0.483101 0.557471
v 0.816092 0.368158 0.557471
v 0.701149 0.368158 0.557471
v 0.701149 0.368158 0.660920
v 0.218391 0.368158 0.339080
v 0.218391 0.368158 0.660920
v 0.816092 0.368158 0.355172
v 0.701149 0.368158 0.339080
v 0.816092 0.368158 0.644828
v 0.908046 0.368158 0.395402
v 0.908046 0.368158 0.604598
v 0.977011 0.368158 0.451724
v 0.977011 0.368158 0.548276
v 1.000000 0.368158 0.500000
v 0.218391 0.253216 0.500000
v 0.218391 0.262411 0.556322
v 0.701149 0.329078 0.351149
v 0.218391 0.292296 0.387356
v 0.218391 0.329078 0.351149
v 0.701149 0.292296 0.387356
v 0.218391 0.262411 0.443678
v 0.701149 0.262411 0.443678
v 0.701149 0.253216 0.500000
v 0.701149 0.292296 0.612644
v 0.218391 0.292296 0.612644
v 0.701149 0.329078 0.648851
v 0.218391 0.329078 0.648851
v 0.816092 0.332551 0.633966
v 0.701149 0.262411 0.556322
v 0.816092 0.299448 0.601379
v 0.816092 0.272551 0.550690
v 0.816092 0.272551 0.449310
v 0.816092 0.299448 0.398621
v 0.816092 0.332551 0.366034
v 0.908046 0.341811 0.403247
v 0.908046 0.317903 0.426782
v 0.908046 0.298477 0.463391
v 0.816092 0.264276 0.500000
v 0.908046 0.298477 0.536609
v 0.908046 0.317903 0.573218
v 0.908046 0.341811 0.596753
v 0.977011 0.356843 0.544655
v 0.977011 0.345808 0.533793
v 0.908046 0.292500 0.500000
v 0.977011 0.336843 0.516897
v 0.977011 0.336843 0.483103
v 0.977011 0.345808 0.466207
v 0.977011 0.356843 0.455345
v 0.977011 0.334084 0.500000
v 0.241379 0.483101 0.408046
v 0.517241 0.368158 0.408046
v 0.241379 0.368158 0.408046
v 0.241379 0.368158 0.591954
v 0.241379 0.483101 0.591954
v 0.517241 0.483101 0.591954
v 0.517241 0.368158 0.591954
v 0.816092 0.483101 0.557471
v 0.701149 0.483101 0.442529
v 0.701149 0.483101 0.557471
v 0.218391 0.517583 0.637931
v 0.218391 0.483101 0.362069
v 0.218391 0.483101 0.637931
v 0.816092 0.483101 0.442529
v 0.701149 0.517583 0.442529
v 0.816092 0.517583 0.442529
v 0.816092 0.517583 0.557471
v 0.701149 0.517583 0.557471
v 0.701149 0.483101 0.362069
v 0.701149 0.483101 0.603448
v 0.816092 0.368158 0.603448
v 0.816092 0.402641 0.603448
v 0.816092 0.575055 0.557471
v 0.701149 0.586549 0.544612
v 0.701149 0.575055 0.557471
v 0.816092 0.586549 0.544612
v 0.701149 0.592296 0.529080
v 0.816092 0.592296 0.529080
v 0.701149 0.598043 0.500000
v 0.816092 0.598043 0.500000
v 0.701149 0.592296 0.470920
v 0.816092 0.586549 0.455388
v 0.701149 0.586549 0.455388
v 0.701149 0.575055 0.442529
v 0.816092 0.575055 0.442529
v 0.977011 0.402641 0.548276
v 0.908046 0.402641 0.604598
v 0.287363 0.609752 0.603450
v 0.701149 0.586549 0.637931
v 0.701156 0.609752 0.603450
v 0.695402 0.758963 0.500000
v 0.693719 0.368158 0.504064
v 0.695402 0.368158 0.500000
v 1.000000 0.402641 0.500000
v 0.287363 0.625844 0.555175
v 0.701156 0.625844 0.555175
v 0.693719 0.758963 0.504064
v 0.689655 0.368158 0.505747
v 0.816092 0.402641 0.644828
v 0.701149 0.402641 0.660920
v 0.701149 0.632526 0.500000
v 0.689655 0.758963 0.505747
v 0.685591 0.368158 0.504064
v 0.218391 0.402641 0.660920
v 0.701156 0.625844 0.444830
v 0.287363 0.609752 0.396554
v 0.287363 0.625844 0.444830
v 0.685591 0.758963 0.504064
v 0.683908 0.368158 0.500000
v 0.287356 0.632526 0.500000
v 0.683908 0.758963 0.500000
v 0.685591 0.368158 0.495936
v 0.287356 0.517583 0.637931
v 0.701149 0.586549 0.362069
v 0.287356 0.586549 0.362069
v 0.685591 0.758963 0.495936
v 0.689655 0.368158 0.494253
v 0.693719 0.758963 0.495936
v 0.693719 0.368158 0.495936
v 0.689655 0.758963 0.494253
v 0.287356 0.517583 0.362069
v 0.977011 0.402641 0.451724
v 0.908046 0.402641 0.395402
v 0.816092 0.402641 0.355172
v 0.701149 0.402641 0.339080
v 0.218391 0.402641 0.339080
v 0.816092 0.471606 0.455388
v 0.816092 0.477353 0.470920
v 0.954023 0.448618 0.500000
v 0.286207 0.667009 0.419540
v 0.285197 0.483101 0.421979
v 0.286207 0.483101 0.419540
v 0.816092 0.460112 0.442529
v 0.280320 0.667009 0.578021
v 0.282759 0.483101 0.577011
v 0.280320 0.483101 0.578021
v 0.285197 0.667009 0.421979
v 0.282759 0.483101 0.422989
v 0.816092 0.477353 0.529080
v 0.816092 0.483101 0.500000
v 0.279310 0.667009 0.580460
v 0.279310 0.483101 0.580460
v 0.282759 0.667009 0.422989
v 0.280320 0.483101 0.421979
v 0.816092 0.471606 0.544612
v 0.280320 0.667009 0.582898
v 0.280320 0.483101 0.582898
v 0.280320 0.667009 0.421979
v 0.279310 0.483101 0.419540
v 0.816092 0.460112 0.557471
v 0.282759 0.667009 0.583908
v 0.282759 0.483101 0.583908
v 0.279310 0.667009 0.419540
v 0.280320 0.483101 0.417102
v 0.282759 0.667009 0.577011
v 0.285197 0.483101 0.578021
v 0.285197 0.667009 0.582898
v 0.285197 0.483101 0.582898
v 0.280320 0.667009 0.417102
v 0.282759 0.483101 0.416092
v 0.285197 0.667009 0.417102
v 0.285197 0.483101 0.417102
v 0.282759 0.667009 0.416092
v 0.285197 0.667009 0.578021
v 0.286207 0.483101 0.580460
v 0.286207 0.667009 0.580460
v 0.816092 0.368158 0.557471
v 0.816092 0.368158 0.442529
v 0.954023 0.368158 0.500000
v 0.512644 0.460112 0.522989
v 0.517241 0.460112 0.477011
v 0.517241 0.460112 0.522989
v 0.512644 0.368158 0.477011
v 0.512644 0.460112 0.477011
v 0.517241 0.368158 0.477011
v 0.517241 0.368158 0.522989
v 0.517241 0.483101 0.408046
v 0.081430 0.356656 0.627023
v 0.218391 0.322181 0.626437
v 0.218391 0.356664 0.626437
v 0.218391 0.322181 0.373563
v 0.081430 0.356656 0.374149
v 0.218391 0.356664 0.373563
v 0.109195 0.339422 0.626437
v 0.107512 0.335359 0.373563
v 0.109195 0.339422 0.373563
v 0.107512 0.335359 0.626437
v 0.103448 0.333675 0.373563
v 0.103448 0.333675 0.626437
v 0.099384 0.335359 0.373563
v 0.099384 0.335359 0.626437
v 0.097701 0.339422 0.373563
v 0.097701 0.339422 0.626437
v 0.099384 0.343486 0.373563
v 0.099384 0.343486 0.626437
v 0.103448 0.345170 0.373563
v 0.107512 0.343486 0.626437
v 0.107512 0.343486 0.373563
v 0.103448 0.345170 0.626437
v 0.114104 0.372217 0.614943
v 0.075551 0.359691 0.614943
v 0.114104 0.306627 0.614943
v 0.092793 0.372217 0.385057
v 0.114104 0.372217 0.385057
v 0.114104 0.306627 0.385057
v 0.206897 0.339422 0.614943
v 0.137931 0.339422 0.385057
v 0.206897 0.339422 0.385057
v 0.131345 0.359691 0.385057
v 0.187140 0.400228 0.614943
v 0.187140 0.400228 0.385057
v 0.135416 0.437808 0.614943
v 0.135416 0.437808 0.385057
v 0.187140 0.278617 0.614943
v 0.131345 0.319154 0.385057
v 0.187140 0.278617 0.385057
v 0.135416 0.241037 0.614943
v 0.135416 0.241037 0.385057
v 0.071481 0.241037 0.614943
v 0.092793 0.306627 0.385057
v 0.071481 0.241037 0.385057
v 0.019757 0.278617 0.614943
v 0.075551 0.319154 0.385057
v 0.019757 0.278617 0.385057
v 0.000000 0.339422 0.614943
v 0.068966 0.339422 0.385057
v 0.000000 0.339422 0.385057
v 0.019757 0.400228 0.614943
v 0.075551 0.359691 0.385057
v 0.019757 0.400228 0.385057
v 0.071481 0.437808 0.614943
v 0.071481 0.437808 0.385057
v 0.701149 0.517583 0.603448
v 0.701149 0.483101 0.637931
v 0.701149 0.517583 0.637931
v 0.218391 0.483101 0.362069
v 0.218391 0.517583 0.637931
v 0.218391 0.483101 0.637931
v 0.701149 0.517583 0.442529
v 0.816092 0.483101 0.442529
v 0.816092 0.517583 0.442529
v 0.816092 0.517583 0.557471
v 0.816092 0.483101 0.557471
v 0.701149 0.517583 0.557471
v 0.701149 0.483101 0.557471
v 0.701149 0.483101 0.362069
v 0.701149 0.483101 0.442529
v 0.816092 0.368158 0.603448
v 0.701149 0.483101 0.603448
v 0.816092 0.402641 0.603448
v 0.701149 0.586549 0.544612
v 0.816092 0.575055 0.557471
v 0.701149 0.575055 0.557471
v 0.701149 0.592296 0.529080
v 0.816092 0.586549 0.544612
v 0.701149 0.598043 0.500000
v 0.816092 0.592296 0.529080
v 0.701149 0.592296 0.470920
v 0.816092 0.598043 0.500000
v 0.816092 0.586549 0.455388
v 0.701149 0.586549 0.455388
v 0.701149 0.575055 0.442529
v 0.816092 0.575055 0.442529
v 0.977011 0.402641 0.548276
v 0.908046 0.368158 0.604598
v 0.908046 0.402641 0.604598
v 0.287363 0.609752 0.603450
v 0.701149 0.586549 0.637931
v 0.287356 0.586549 0.637931
v 1.000000 0.402641 0.500000
v 0.977011 0.368158 0.548276
v 0.701156 0.609752 0.603450
v 0.287363 0.625844 0.555175
v 0.701156 0.625844 0.555175
v 0.816092 0.402641 0.644828
v 0.701149 0.368158 0.660920
v 0.701149 0.402641 0.660920
v 0.701149 0.632526 0.500000
v 0.218391 0.368158 0.660920
v 0.218391 0.402641 0.660920
v 0.287363 0.609752 0.396554
v 0.701156 0.625844 0.444830
v 0.287363 0.625844 0.444830
v 0.218391 0.368158 0.339080
v 0.287356 0.517583 0.637931
v 0.701149 0.586549 0.362069
v 0.287356 0.586549 0.362069
v 0.816092 0.368158 0.644828
v 0.287356 0.517583 0.362069
v 0.977011 0.402641 0.451724
v 1.000000 0.368158 0.500000
v 0.977011 0.368158 0.451724
v 0.908046 0.402641 0.395402
v 0.908046 0.368158 0.395402
v 0.816092 0.402641 0.355172
v 0.816092 0.368158 0.355172
v 0.701149 0.402641 0.339080
v 0.701149 0.368158 0.339080
v 0.218391 0.402641 0.339080
v 0.816092 0.471606 0.455388
v 0.954023 0.448618 0.500000
v 0.816092 0.477353 0.470920
v 0.816092 0.460112 0.442529
v 0.816092 0.477353 0.529080
v 0.816092 0.483101 0.500000
v 0.816092 0.471606 0.544612
v 0.816092 0.460112 0.557471
v 0.816092 0.368158 0.557471
v 0.954023 0.368158 0.500000
v 0.816092 0.368158 0.442529
v 0.218391 0.322181 0.626437
v 0.081430 0.356656 0.627023
v 0.218391 0.356664 0.626437
v 0.081430 0.356656 0.374149
v 0.218391 0.322181 0.373563
v 0.218391 0.356664 0.373563
v 0.092793 0.372217 0.614943
v 0.114104 0.372217 0.614943
v 0.114104 0.306627 0.614943
v 0.114104 0.372217 0.385057
v 0.075551 0.359691 0.385057
v 0.114104 0.306627 0.385057
v 0.137931 0.339422 0.385057
v 0.206897 0.339422 0.614943
v 0.206897 0.339422 0.385057
v 0.187140 0.400228 0.614943
v 0.131345 0.359691 0.385057
v 0.187140 0.400228 0.385057
v 0.135416 0.437808 0.614943
v 0.135416 0.437808 0.385057
v 0.131345 0.319154 0.385057
v 0.187140 0.278617 0.614943
v 0.187140 0.278617 0.385057
v 0.135416 0.241037 0.614943
v 0.135416 0.241037 0.385057
v 0.092793 0.306627 0.385057
v 0.071481 0.241037 0.614943
v 0.071481 0.241037 0.385057
v 0.075551 0.319154 0.385057
v 0.019757 0.278617 0.614943
v 0.019757 0.278617 0.385057
v 0.068966 0.339422 0.385057
v 0.000000 0.339422 0.614943
v 0.000000 0.339422 0.385057
v 0.019757 0.400228 0.614943
v 0.019757 0.400228 0.385057
v 0.092793 0.372217 0.385057
v 0.071481 0.437808 0.614943
v 0.071481 0.437808 0.385057
v 0.816092 0.368158 0.603448
v 0.701149 0.483101 0.557471
v 0.701149 0.483101 0.603448
v 0.287356 0.517583 0.362069
v 0.218391 0.517583 0.362069
v 0.287356 0.517583 0.637931
v 0.287356 0.517583 0.362069
v 0.701149 0.517583 0.362069
v 0.287356 0.517583 0.637931
v 0.218391 0.483101 0.362069
v 0.287356 0.517583 0.362069
v 0.218391 0.517583 0.362069
v 0.287356 0.517583 0.637931
v 0.218391 0.483101 0.637931
v 0.218391 0.517583 0.637931
v 0.287356 0.517583 0.362069
v 0.701149 0.483101 0.362069
v 0.701149 0.517583 0.362069
v 0.701149 0.483101 0.637931
v 0.287356 0.517583 0.637931
v 0.701149 0.517583 0.637931
v 0.693719 0.368158 0.504064
v 0.695402 0.758963 0.500000
v 0.695402 0.368158 0.500000
v 0.689655 0.368158 0.505747
v 0.693719 0.758963 0.504064
v 0.685591 0.368158 0.504064
v 0.689655 0.758963 0.505747
v 0.683908 0.368158 0.500000
v 0.685591 0.758963 0.504064
v 0.685591 0.368158 0.495936
v 0.683908 0.758963 0.500000
v 0.689655 0.368158 0.494253
v 0.685591 0.758963 0.495936
v 0.693719 0.758963 0.495936
v 0.693719 0.368158 0.495936
v 0.689655 0.758963 0.494253
v 0.285197 0.483101 0.421979
v 0.286207 0.667009 0.419540
v 0.286207 0.483101 0.419540
v 0.282759 0.483101 0.577011
v 0.280320 0.667009 0.578021
v 0.280320 0.483101 0.578021
v 0.282759 0.483101 0.422989
v 0.285197 0.667009 0.421979
v 0.279310 0.667009 0.580460
v 0.279310 0.483101 0.580460
v 0.280320 0.483101 0.421979
v 0.282759 0.667009 0.422989
v 0.280320 0.667009 0.582898
v 0.280320 0.483101 0.582898
v 0.279310 0.483101 0.419540
v 0.280320 0.667009 0.421979
v 0.282759 0.667009 0.583908
v 0.282759 0.483101 0.583908
v 0.280320 0.483101 0.417102
v 0.279310 0.667009 0.419540
v 0.285197 0.483101 0.578021
v 0.282759 0.667009 0.577011
v 0.285197 0.667009 0.582898
v 0.285197 0.483101 0.582898
v 0.282759 0.483101 0.416092
v 0.280320 0.667009 0.417102
v 0.285197 0.667009 0.417102
v 0.285197 0.483101 0.417102
v 0.282759 0.667009 0.416092
v 0.286207 0.483101 0.580460
v 0.285197 0.667009 0.578021
v 0.286207 0.667009 0.580460
v 0.218391 0.517583 0.362069
v 0.701149 0.517583 0.362069
v 0.816092 0.368158 0.557471
v 0.816092 0.592296 0.470920
v 0.287356 0.586549 0.637931
v 0.701156 0.609752 0.396554
v 0.512644 0.368158 0.522989
v 0.081430 0.322173 0.627023
v 0.081430 0.322173 0.374149
v 0.137931 0.339422 0.614943
v 0.131345 0.359691 0.614943
v 0.092793 0.372217 0.614943
v 0.068966 0.339422 0.614943
v 0.075551 0.319154 0.614943
v 0.092793 0.306627 0.614943
v 0.131345 0.319154 0.614943
v 0.816092 0.368158 0.557471
v 0.816092 0.592296 0.470920
v 0.287356 0.632526 0.500000
v 0.701156 0.609752 0.396554
v 0.081430 0.322173 0.627023
v 0.081430 0.322173 0.374149
v 0.131345 0.359691 0.614943
v 0.137931 0.339422 0.614943
v 0.131345 0.319154 0.614943
v 0.092793 0.306627 0.614943
v 0.075551 0.319154 0.614943
v 0.068966 0.339422 0.614943
v 0.075551 0.359691 0.614943
v 0.816092 0.368158 0.557471
v 0.287356 0.483101 0.362069
v 0.287356 0.483101 0.637931
v 0.287356 0.483101 0.362069
v 0.287356 0.483101 0.637931
v 0.287356 0.483101 0.362069
v 0.287356 0.483101 0.637931
v 0.287356 0.483101 0.362069
v 0.287356 0.483101 0.637931
vt 0.331104 0.767559
vt 0.351171 0.787625
vt 0.331104 0.787625
vt 0.528428 0.145485
vt 0.595318 0.212375
vt 0.528428 0.212375
vt 0.528428 0.080268
vt 0.595318 0.145485
vt 0.528428 0.013378
vt 0.595318 0.080268
vt 0.595318 0.280936
vt 0.528428 0.280936
vt 0.290970 0.290970
vt 0.013378 0.478261
vt 0.013378 0.290970
vt 0.357860 0.468227
vt 0.290970 0.478261
vt 0.357860 0.301003
vt 0.411371 0.444816
vt 0.411371 0.324415
vt 0.451505 0.413043
vt 0.451505 0.357860
vt 0.463211 0.384615
vt 0.590301 0.411371
vt 0.622074 0.418060
vt 0.683946 0.478261
vt 0.294314 0.040134
vt 0.015050 0.016722
vt 0.294314 0.016722
vt 0.015050 0.068562
vt 0.015050 0.041806
vt 0.294314 0.068562
vt 0.015050 0.105351
vt 0.294314 0.105351
vt 0.015050 0.138796
vt 0.294314 0.138796
vt 0.015050 0.172241
vt 0.294314 0.209030
vt 0.015050 0.209030
vt 0.294314 0.237458
vt 0.015050 0.237458
vt 0.015050 0.260870
vt 0.294314 0.260870
vt 0.360797 0.258918
vt 0.360788 0.237465
vt 0.360633 0.233493
vt 0.294314 0.172241
vt 0.360544 0.204539
vt 0.360506 0.169337
vt 0.360506 0.108087
vt 0.360544 0.072885
vt 0.360633 0.043931
vt 0.360798 0.018506
vt 0.418238 0.025297
vt 0.360788 0.039959
vt 0.416935 0.055172
vt 0.360633 0.070700
vt 0.416195 0.082236
vt 0.360544 0.105954
vt 0.415874 0.113688
vt 0.360506 0.137685
vt 0.360506 0.139739
vt 0.415874 0.163736
vt 0.360544 0.171470
vt 0.416195 0.195188
vt 0.360633 0.206725
vt 0.416936 0.222252
vt 0.418237 0.252127
vt 0.418189 0.236285
vt 0.468678 0.242712
vt 0.468743 0.235866
vt 0.416936 0.202919
vt 0.465249 0.207364
vt 0.416195 0.171305
vt 0.463070 0.182656
vt 0.415874 0.142360
vt 0.462122 0.156087
vt 0.462122 0.121337
vt 0.415874 0.135064
vt 0.463069 0.094768
vt 0.416195 0.106119
vt 0.465249 0.070060
vt 0.416935 0.074505
vt 0.468679 0.034712
vt 0.418189 0.041139
vt 0.498381 0.042909
vt 0.468743 0.041558
vt 0.465249 0.078983
vt 0.491716 0.083466
vt 0.463069 0.105791
vt 0.487481 0.105933
vt 0.462122 0.131203
vt 0.485596 0.128039
vt 0.462122 0.146221
vt 0.485596 0.149385
vt 0.463070 0.171633
vt 0.487482 0.171491
vt 0.465249 0.198441
vt 0.491717 0.193958
vt 0.498380 0.234515
vt 0.384615 0.712375
vt 0.545151 0.779264
vt 0.384615 0.779264
vt 0.627090 0.178930
vt 0.734114 0.112040
vt 0.734114 0.178930
vt 0.735786 0.779264
vt 0.575251 0.712375
vt 0.735786 0.712375
vt 0.362876 0.556856
vt 0.295987 0.623746
vt 0.295987 0.556856
vt 0.924749 0.177258
vt 0.764214 0.157191
vt 0.924749 0.157191
vt 0.722408 0.680602
vt 0.655518 0.660535
vt 0.722408 0.660535
vt 0.789298 0.660535
vt 0.789298 0.680602
vt 0.856187 0.660535
vt 0.856187 0.680602
vt 0.347826 0.948161
vt 0.301003 0.968227
vt 0.301003 0.948161
vt 0.015050 0.510033
vt 0.295987 0.533445
vt 0.807692 0.872910
vt 0.714047 0.899666
vt 0.714047 0.872910
vt 0.632107 0.523411
vt 0.698997 0.543478
vt 0.632107 0.543478
vt 0.938127 0.277592
vt 0.928094 0.210702
vt 0.938127 0.210702
vt 0.928094 0.277592
vt 0.918060 0.210702
vt 0.918060 0.277592
vt 0.901338 0.210702
vt 0.901338 0.277592
vt 0.884615 0.210702
vt 0.874582 0.277592
vt 0.874582 0.210702
vt 0.864549 0.210702
vt 0.864549 0.277592
vt 0.351171 0.702341
vt 0.284281 0.735786
vt 0.284281 0.702341
vt 0.284281 0.735786
vt 0.351171 0.702341
vt 0.351171 0.735786
vt 0.752508 0.262542
vt 0.802676 0.282609
vt 0.752508 0.282609
vt 0.384615 0.531773
vt 0.625418 0.508361
vt 0.625418 0.531773
vt 0.727425 0.622074
vt 0.724080 0.394649
vt 0.727425 0.394649
vt 0.802676 0.262542
vt 0.834448 0.282609
vt 0.384615 0.561873
vt 0.625418 0.561873
vt 0.724080 0.622074
vt 0.720736 0.394649
vt 0.627090 0.262542
vt 0.693980 0.282609
vt 0.627090 0.282609
vt 0.625418 0.593646
vt 0.720736 0.622074
vt 0.717391 0.394649
vt 0.384615 0.809365
vt 0.665552 0.829431
vt 0.384615 0.829431
vt 0.625418 0.625418
vt 0.384615 0.655518
vt 0.384615 0.625418
vt 0.717391 0.622074
vt 0.714047 0.394649
vt 0.571847 0.932819
vt 0.386288 0.913043
vt 0.571847 0.912947
vt 0.384615 0.593646
vt 0.740803 0.622074
vt 0.737458 0.394649
vt 0.740803 0.394649
vt 0.737458 0.381271
vt 0.496656 0.341137
vt 0.737458 0.341137
vt 0.625418 0.678930
vt 0.384615 0.678930
vt 0.737458 0.622074
vt 0.734114 0.394649
vt 0.730769 0.622074
vt 0.730769 0.394649
vt 0.734114 0.622074
vt 0.693980 0.262542
vt 0.737458 0.341137
vt 0.496656 0.381271
vt 0.496656 0.341137
vt 0.627090 0.262542
vt 0.658863 0.282609
vt 0.627090 0.282609
vt 0.709030 0.282609
vt 0.658863 0.262542
vt 0.709030 0.262542
vt 0.767559 0.282609
vt 0.767559 0.262542
vt 0.834448 0.282609
vt 0.834448 0.262542
vt 0.665552 0.829431
vt 0.384615 0.809365
vt 0.665552 0.809365
vt 0.881271 0.812709
vt 0.891304 0.812709
vt 0.906354 0.892977
vt 0.941472 0.511706
vt 0.939799 0.404682
vt 0.941472 0.404682
vt 0.872910 0.812709
vt 0.946488 0.511706
vt 0.944816 0.404682
vt 0.946488 0.404682
vt 0.939799 0.511706
vt 0.938127 0.404682
vt 0.921405 0.812709
vt 0.906354 0.812709
vt 0.948161 0.511706
vt 0.948161 0.404682
vt 0.938127 0.511706
vt 0.936455 0.404682
vt 0.931438 0.812709
vt 0.936455 0.511706
vt 0.934783 0.404682
vt 0.936455 0.404682
vt 0.936455 0.511706
vt 0.934783 0.404682
vt 0.939799 0.812709
vt 0.938127 0.511706
vt 0.938127 0.404682
vt 0.948161 0.511706
vt 0.946488 0.404682
vt 0.948161 0.404682
vt 0.944816 0.511706
vt 0.943144 0.404682
vt 0.939799 0.511706
vt 0.939799 0.404682
vt 0.946488 0.511706
vt 0.944816 0.404682
vt 0.943144 0.511706
vt 0.943144 0.404682
vt 0.944816 0.511706
vt 0.943144 0.511706
vt 0.941472 0.404682
vt 0.941472 0.511706
vt 0.886288 0.628763
vt 0.973244 0.678930
vt 0.886288 0.678930
vt 0.973244 0.628763
vt 0.886288 0.678930
vt 0.886288 0.628763
vt 0.933110 0.765886
vt 0.959866 0.769231
vt 0.933110 0.769231
vt 0.959866 0.712375
vt 0.959866 0.765886
vt 0.963211 0.712375
vt 0.929766 0.712375
vt 0.929766 0.765886
vt 0.732441 0.081940
vt 0.625418 0.015050
vt 0.732441 0.015050
vt 0.386288 0.984950
vt 0.466555 0.964883
vt 0.466555 0.984950
vt 0.466555 0.984950
vt 0.386288 0.964883
vt 0.466555 0.964883
vt 0.161242 0.963270
vt 0.015771 0.965810
vt 0.015771 0.963270
vt 0.161243 0.965810
vt 0.015771 0.968349
vt 0.161242 0.948035
vt 0.015770 0.950575
vt 0.015770 0.948035
vt 0.161242 0.950575
vt 0.015770 0.953114
vt 0.161242 0.953114
vt 0.015770 0.955653
vt 0.161242 0.955653
vt 0.015771 0.958192
vt 0.161242 0.960731
vt 0.015771 0.960731
vt 0.161242 0.958192
vt 0.966555 0.371237
vt 0.944816 0.377926
vt 0.944816 0.341137
vt 0.958194 0.341137
vt 0.966555 0.347826
vt 0.944816 0.377926
vt 0.904682 0.553512
vt 0.770903 0.593646
vt 0.770903 0.553512
vt 0.770903 0.553512
vt 0.904682 0.593646
vt 0.770903 0.593646
vt 0.904682 0.553512
vt 0.770903 0.593646
vt 0.770903 0.553512
vt 0.904682 0.553512
vt 0.770903 0.593646
vt 0.770903 0.553512
vt 0.904682 0.553512
vt 0.770903 0.593646
vt 0.770903 0.553512
vt 0.904682 0.553512
vt 0.770903 0.593646
vt 0.770903 0.553512
vt 0.904682 0.553512
vt 0.770903 0.593646
vt 0.770903 0.553512
vt 0.904682 0.553512
vt 0.770903 0.593646
vt 0.770903 0.553512
vt 0.904682 0.553512
vt 0.770903 0.593646
vt 0.770903 0.553512
vt 0.904682 0.553512
vt 0.770903 0.593646
vt 0.770903 0.553512
vt 0.351171 0.787625
vt 0.331104 0.767559
vt 0.331104 0.787625
vt 0.764214 0.157191
vt 0.924749 0.177258
vt 0.924749 0.157191
vt 0.655518 0.660535
vt 0.722408 0.680602
vt 0.722408 0.660535
vt 0.789298 0.660535
vt 0.789298 0.680602
vt 0.856187 0.660535
vt 0.856187 0.680602
vt 0.301003 0.968227
vt 0.347826 0.948161
vt 0.301003 0.948161
vt 0.295987 0.556856
vt 0.015050 0.510033
vt 0.015050 0.670569
vt 0.859532 0.953177
vt 0.953177 0.926421
vt 0.859532 0.926421
vt 0.698997 0.543478
vt 0.632107 0.523411
vt 0.632107 0.543478
vt 0.928094 0.210702
vt 0.938127 0.277592
vt 0.938127 0.210702
vt 0.918060 0.210702
vt 0.928094 0.277592
vt 0.901338 0.210702
vt 0.918060 0.277592
vt 0.884615 0.210702
vt 0.901338 0.277592
vt 0.874582 0.277592
vt 0.874582 0.210702
vt 0.864549 0.210702
vt 0.864549 0.277592
vt 0.284281 0.735786
vt 0.351171 0.702341
vt 0.284281 0.702341
vt 0.351171 0.702341
vt 0.284281 0.735786
vt 0.351171 0.735786
vt 0.802676 0.282609
vt 0.752508 0.262542
vt 0.752508 0.282609
vt 0.384615 0.531773
vt 0.625418 0.508361
vt 0.384615 0.508361
vt 0.834448 0.282609
vt 0.802676 0.262542
vt 0.625418 0.531773
vt 0.384615 0.561873
vt 0.625418 0.561873
vt 0.693980 0.282609
vt 0.627090 0.262542
vt 0.627090 0.282609
vt 0.625418 0.593646
vt 0.665552 0.829431
vt 0.384615 0.809365
vt 0.384615 0.829431
vt 0.384615 0.655518
vt 0.625418 0.625418
vt 0.384615 0.625418
vt 0.386380 0.912947
vt 0.571847 0.932819
vt 0.571847 0.912947
vt 0.496656 0.341137
vt 0.737458 0.381271
vt 0.737458 0.341137
vt 0.625418 0.678930
vt 0.384615 0.678930
vt 0.693980 0.262542
vt 0.496656 0.381271
vt 0.737458 0.341137
vt 0.496656 0.341137
vt 0.658863 0.282609
vt 0.627090 0.262542
vt 0.627090 0.282609
vt 0.658863 0.262542
vt 0.709030 0.282609
vt 0.709030 0.262542
vt 0.767559 0.282609
vt 0.767559 0.262542
vt 0.834448 0.282609
vt 0.834448 0.262542
vt 0.384615 0.809365
vt 0.665552 0.829431
vt 0.665552 0.809365
vt 0.881271 0.812709
vt 0.906354 0.892977
vt 0.891304 0.812709
vt 0.872910 0.812709
vt 0.921405 0.812709
vt 0.906354 0.812709
vt 0.931438 0.812709
vt 0.939799 0.812709
vt 0.886288 0.628763
vt 0.973244 0.678930
vt 0.973244 0.628763
vt 0.886288 0.678930
vt 0.973244 0.628763
vt 0.886288 0.628763
vt 0.466555 0.964883
vt 0.386288 0.984950
vt 0.466555 0.984950
vt 0.386288 0.964883
vt 0.466555 0.984950
vt 0.466555 0.964883
vt 0.958194 0.377926
vt 0.966555 0.371237
vt 0.944816 0.341137
vt 0.966555 0.347826
vt 0.944816 0.341137
vt 0.944816 0.377926
vt 0.770903 0.593646
vt 0.904682 0.553512
vt 0.770903 0.553512
vt 0.904682 0.593646
vt 0.770903 0.553512
vt 0.770903 0.593646
vt 0.770903 0.593646
vt 0.904682 0.553512
vt 0.770903 0.553512
vt 0.770903 0.593646
vt 0.904682 0.553512
vt 0.770903 0.553512
vt 0.770903 0.593646
vt 0.904682 0.553512
vt 0.770903 0.553512
vt 0.770903 0.593646
vt 0.904682 0.553512
vt 0.770903 0.553512
vt 0.770903 0.593646
vt 0.904682 0.553512
vt 0.770903 0.553512
vt 0.770903 0.593646
vt 0.904682 0.553512
vt 0.770903 0.553512
vt 0.770903 0.593646
vt 0.904682 0.553512
vt 0.770903 0.553512
vt 0.770903 0.593646
vt 0.904682 0.553512
vt 0.770903 0.553512
vt 0.953177 0.926421
vt 0.859532 0.953177
vt 0.859532 0.926421
vt 0.426421 0.881271
vt 0.386288 0.861204
vt 0.386288 0.881271
vt 0.386288 0.861204
vt 0.426421 0.881271
vt 0.386288 0.881271
vt 0.667224 0.861204
vt 0.426421 0.881271
vt 0.667224 0.881271
vt 0.426421 0.881271
vt 0.667224 0.861204
vt 0.667224 0.881271
vt 0.386288 0.861204
vt 0.426421 0.881271
vt 0.386288 0.881271
vt 0.426421 0.881271
vt 0.386288 0.861204
vt 0.386288 0.881271
vt 0.426421 0.881271
vt 0.667224 0.861204
vt 0.667224 0.881271
vt 0.667224 0.861204
vt 0.426421 0.881271
vt 0.667224 0.881271
vt 0.724080 0.394649
vt 0.727425 0.622074
vt 0.727425 0.394649
vt 0.720736 0.394649
vt 0.724080 0.622074
vt 0.717391 0.394649
vt 0.720736 0.622074
vt 0.714047 0.394649
vt 0.717391 0.622074
vt 0.737458 0.394649
vt 0.740803 0.622074
vt 0.740803 0.394649
vt 0.734114 0.394649
vt 0.737458 0.622074
vt 0.730769 0.622074
vt 0.730769 0.394649
vt 0.734114 0.622074
vt 0.939799 0.404682
vt 0.941472 0.511706
vt 0.941472 0.404682
vt 0.944816 0.404682
vt 0.946488 0.511706
vt 0.946488 0.404682
vt 0.938127 0.404682
vt 0.939799 0.511706
vt 0.948161 0.511706
vt 0.948161 0.404682
vt 0.936455 0.404682
vt 0.938127 0.511706
vt 0.934783 0.404682
vt 0.936455 0.511706
vt 0.936455 0.404682
vt 0.934783 0.404682
vt 0.936455 0.511706
vt 0.938127 0.511706
vt 0.938127 0.404682
vt 0.946488 0.404682
vt 0.948161 0.511706
vt 0.948161 0.404682
vt 0.943144 0.404682
vt 0.944816 0.511706
vt 0.939799 0.511706
vt 0.939799 0.404682
vt 0.944816 0.404682
vt 0.946488 0.511706
vt 0.943144 0.511706
vt 0.943144 0.404682
vt 0.944816 0.511706
vt 0.941472 0.404682
vt 0.943144 0.511706
vt 0.941472 0.511706
vt 0.351171 0.767559
vt 0.595318 0.013378
vt 0.677258 0.456522
vt 0.655518 0.434783
vt 0.496656 0.478261
vt 0.503344 0.456522
vt 0.525084 0.434783
vt 0.556856 0.418060
vt 0.545151 0.712375
vt 0.627090 0.112040
vt 0.575251 0.779264
vt 0.362876 0.623746
vt 0.764214 0.177258
vt 0.655518 0.680602
vt 0.347826 0.968227
vt 0.295987 0.670569
vt 0.015050 0.670569
vt 0.295987 0.510033
vt 0.807692 0.899666
vt 0.698997 0.523411
vt 0.884615 0.277592
vt 0.351171 0.735786
vt 0.284281 0.702341
vt 0.384615 0.508361
vt 0.834448 0.262542
vt 0.665552 0.809365
vt 0.625418 0.655518
vt 0.714047 0.622074
vt 0.386380 0.932819
vt 0.496656 0.381271
vt 0.737458 0.381271
vt 0.384615 0.829431
vt 0.934783 0.511706
vt 0.934783 0.511706
vt 0.973244 0.628763
vt 0.973244 0.678930
vt 0.933110 0.712375
vt 0.963211 0.765886
vt 0.625418 0.081940
vt 0.386288 0.964883
vt 0.386288 0.984950
vt 0.161243 0.968349
vt 0.966555 0.347826
vt 0.971572 0.359532
vt 0.958194 0.377926
vt 0.936455 0.371237
vt 0.931438 0.359532
vt 0.936455 0.347826
vt 0.958194 0.341137
vt 0.971572 0.359532
vt 0.966555 0.371237
vt 0.958194 0.377926
vt 0.936455 0.371237
vt 0.931438 0.359532
vt 0.936455 0.347826
vt 0.944816 0.341137
vt 0.904682 0.593646
vt 0.904682 0.553512
vt 0.904682 0.593646
vt 0.904682 0.593646
vt 0.904682 0.593646
vt 0.904682 0.593646
vt 0.904682 0.593646
vt 0.904682 0.593646
vt 0.904682 0.593646
vt 0.904682 0.593646
vt 0.351171 0.767559
vt 0.764214 0.177258
vt 0.655518 0.680602
vt 0.347826 0.968227
vt 0.295987 0.670569
vt 0.295987 0.623746
vt 0.295987 0.533445
vt 0.295987 0.510033
vt 0.953177 0.953177
vt 0.698997 0.523411
vt 0.884615 0.277592
vt 0.351171 0.735786
vt 0.284281 0.702341
vt 0.834448 0.262542
vt 0.384615 0.593646
vt 0.665552 0.809365
vt 0.625418 0.655518
vt 0.386380 0.932819
vt 0.496656 0.381271
vt 0.737458 0.381271
vt 0.384615 0.829431
vt 0.886288 0.678930
vt 0.973244 0.678930
vt 0.386288 0.964883
vt 0.386288 0.984950
vt 0.971572 0.359532
vt 0.966555 0.347826
vt 0.958194 0.341137
vt 0.936455 0.347826
vt 0.931438 0.359532
vt 0.936455 0.371237
vt 0.944816 0.377926
vt 0.966555 0.371237
vt 0.971572 0.359532
vt 0.958194 0.341137
vt 0.936455 0.347826
vt 0.931438 0.359532
vt 0.936455 0.371237
vt 0.958194 0.377926
vt 0.904682 0.593646
vt 0.904682 0.553512
vt 0.904682 0.593646
vt 0.904682 0.593646
vt 0.904682 0.593646
vt 0.904682 0.593646
vt 0.904682 0.593646
vt 0.904682 0.593646
vt 0.904682 0.593646
vt 0.904682 0.593646
vt 0.953177 0.953177
vt 0.426421 0.861204
vt 0.426421 0.861204
vt 0.426421 0.861204
vt 0.426421 0.861204
vt 0.426421 0.861204
vt 0.426421 0.861204
vt 0.426421 0.861204
vt 0.426421 0.861204
vt 0.714047 0.622074
vt 0.934783 0.511706
vt 0.934783 0.511706
vn 1.000000 0.000000 -0.000000
vn -0.000000 0.000000 -1.000000
vn 0.000000 0.000000 1.000000
vn -1.000000 0.000000 0.000000
vn 0.000000 1.000000 0.000000
vn -0.000000 -0.295100 -0.955500
vn -0.000000 -0.701500 -0.712700
vn -0.000000 -0.883300 -0.468700
vn -0.000000 -0.986900 -0.161100
vn 0.000000 -0.986900 0.161100
vn 0.000000 -0.883300 0.468700
vn 0.000000 -0.701500 0.712700
vn 0.000000 -0.295100 0.955500
vn 0.131500 -0.289200 0.948200
vn 0.112800 -0.697000 0.708100
vn 0.100400 -0.878900 0.466300
vn 0.094500 -0.982500 0.160400
vn 0.094500 -0.982500 -0.160400
vn 0.100400 -0.878900 -0.466300
vn 0.112800 -0.697000 -0.708100
vn 0.132600 -0.292500 -0.947000
vn 0.386000 -0.269200 -0.882300
vn 0.337900 -0.660300 -0.670700
vn 0.305500 -0.841100 -0.446300
vn 0.289900 -0.944500 -0.154200
vn 0.289900 -0.944500 0.154200
vn 0.305500 -0.841100 0.446300
vn 0.337900 -0.660300 0.670700
vn 0.384600 -0.263400 0.884700
vn 0.617900 -0.239600 0.748800
vn 0.568600 -0.577100 0.586200
vn 0.530200 -0.749000 0.397400
vn 0.511400 -0.848100 0.138500
vn 0.511400 -0.848100 -0.138500
vn 0.530200 -0.749000 -0.397400
vn 0.568600 -0.577100 -0.586200
vn 0.616400 -0.224700 -0.754700
vn 0.894400 -0.136300 -0.425900
vn 0.865700 -0.351100 -0.356700
vn 0.839900 -0.479400 -0.254400
vn 0.825500 -0.557000 -0.090900
vn 0.825500 -0.557000 0.090900
vn 0.839900 -0.479400 0.254400
vn 0.865700 -0.351100 0.356700
vn 0.894400 -0.136300 0.425900
vn 0.707100 0.707100 -0.000000
vn 0.000000 0.745600 0.666400
vn 0.000000 0.937900 0.347000
vn 0.000000 0.981000 0.193900
vn -0.000000 0.981000 -0.193900
vn -0.000000 0.937900 -0.347000
vn -0.000000 0.745600 -0.666400
vn 0.632500 0.000000 0.774500
vn 0.000000 0.829600 0.558300
vn 0.923900 0.000000 0.382700
vn 0.902900 0.000000 0.429900
vn 0.000000 0.948700 0.316200
vn 0.382700 0.000000 0.923900
vn 0.138600 0.000000 0.990300
vn 0.000000 0.992700 0.120200
vn -0.382700 0.000000 0.923900
vn -0.000000 0.948700 -0.316200
vn -0.923900 0.000000 0.382700
vn -0.000000 0.992700 -0.120200
vn -0.923900 0.000000 -0.382700
vn -0.000000 0.829700 -0.558200
vn -0.382700 0.000000 -0.923900
vn 0.923900 0.000000 -0.382700
vn 0.382700 0.000000 -0.923900
vn 0.400800 0.000000 0.916200
vn 0.902900 0.000000 -0.429900
vn 0.632500 0.000000 -0.774500
vn 0.400800 0.000000 -0.916200
vn 0.138600 0.000000 -0.990300
vn 0.259400 0.905800 -0.335200
vn 0.321700 0.705900 -0.631000
vn 0.238200 0.952800 0.188300
vn 0.259400 0.905800 0.335200
vn 0.321700 0.705900 0.631000
vn 0.238200 0.952800 -0.188300
vn 0.384600 0.000000 0.923100
vn 0.384600 0.000000 -0.923100
vn 0.000000 -1.000000 0.000000
vn 0.004300 0.000000 1.000000
vn -0.004300 0.000000 -1.000000
vn 0.923900 -0.382700 -0.000000
vn 0.382700 -0.923900 -0.000000
vn -0.382700 -0.923900 0.000000
vn -0.923900 -0.382700 0.000000
vn -0.923900 0.382700 0.000000
vn -0.382700 0.923900 0.000000
vn 0.923900 0.382700 -0.000000
vn 0.382700 0.923900 -0.000000
vn -0.587800 0.809000 0.000000
vn 0.951100 -0.309000 -0.000000
vn -0.587800 -0.809000 0.000000
vn -0.951100 -0.309000 0.000000
vn -0.951100 0.309000 0.000000
vn 0.587800 0.809000 -0.000000
vn 0.951100 0.309000 -0.000000
vn -0.707100 -0.707100 0.000000
vn -0.000000 -0.745600 -0.666400
vn -0.000000 -0.937900 -0.347000
vn -0.000000 -0.981000 -0.193900
vn 0.000000 -0.981000 0.193900
vn 0.000000 -0.937900 0.347000
vn 0.000000 -0.745600 0.666400
vn -0.632500 0.000000 -0.774500
vn -0.000000 -0.829600 -0.558300
vn -0.902900 0.000000 -0.429900
vn -0.000000 -0.948700 -0.316200
vn -0.138600 0.000000 -0.990300
vn -0.000000 -0.992700 -0.120200
vn 0.000000 -0.948700 0.316200
vn 0.000000 -0.992700 0.120200
vn 0.000000 -0.829700 0.558200
vn -0.400800 0.000000 -0.916200
vn -0.902900 0.000000 0.429900
vn -0.632500 0.000000 0.774500
vn -0.400800 0.000000 0.916200
vn -0.138600 0.000000 0.990300
vn -0.259400 -0.905800 0.335200
vn -0.321700 -0.705900 0.631000
vn -0.238200 -0.952800 -0.188300
vn -0.259400 -0.905800 -0.335200
vn -0.321700 -0.705900 -0.631000
vn -0.238200 -0.952800 0.188300
vn -0.384600 0.000000 -0.923100
vn -0.384600 0.000000 0.923100
vn 0.587800 -0.809000 -0.000000
vn 0.132600 -0.292500 0.947000
vn 0.131500 -0.289200 -0.948200
vn 0.384600 -0.263400 -0.884700
vn 0.386000 -0.269200 0.882300
vn 0.616400 -0.224700 0.754700
vn 0.617900 -0.239600 -0.748800
o Cube_Cube.001
usemtl texture
s off
f 1/1/1 2/2/1 3/3/1
f 4/4/2 5/5/2 6/6/2
f 7/7/1 8/8/1 4/4/1
f 9/9/3 10/10/3 7/7/3
f 6/6/4 11/11/4 9/12/4
f 12/13/5 13/14/5 14/15/5
f 12/13/5 15/16/5 16/17/5
f 17/18/5 18/19/5 15/16/5
f 19/20/5 20/21/5 18/19/5
f 20/21/5 21/22/5 22/23/5
f 23/24/4 24/25/4 14/26/4
f 25/27/6 13/28/6 16/29/6
f 25/27/7 26/30/7 27/31/7
f 28/32/8 29/33/8 26/30/8
f 30/34/9 23/35/9 29/33/9
f 31/36/10 24/37/10 23/35/10
f 24/37/11 32/38/11 33/39/11
f 33/39/12 34/40/12 35/41/12
f 14/42/13 34/40/13 12/43/13
f 17/44/14 34/40/14 36/45/14
f 32/38/15 36/46/15 34/40/15
f 37/47/16 38/48/16 32/38/16
f 31/36/17 39/49/17 37/47/17
f 40/50/18 31/36/18 30/34/18
f 41/51/19 30/34/19 28/32/19
f 42/52/20 28/32/20 25/27/20
f 15/53/21 25/27/21 16/29/21
f 18/54/22 42/55/22 15/53/22
f 43/56/23 41/57/23 42/52/23
f 44/58/24 40/59/24 41/51/24
f 45/60/25 46/61/25 40/50/25
f 46/62/26 47/63/26 39/49/26
f 39/64/27 48/65/27 38/48/27
f 38/66/28 49/67/28 36/46/28
f 19/68/29 36/45/29 49/69/29
f 21/70/30 49/69/30 50/71/30
f 48/72/31 50/73/31 49/67/31
f 47/74/32 51/75/32 48/65/32
f 52/76/33 53/77/33 47/63/33
f 54/78/34 52/79/34 45/60/34
f 55/80/35 45/81/35 44/58/35
f 56/82/36 44/83/36 43/56/36
f 20/84/37 43/85/37 18/54/37
f 20/84/38 22/86/38 56/87/38
f 55/88/39 56/82/39 22/89/39
f 54/90/40 55/80/40 22/91/40
f 57/92/41 54/78/41 22/93/41
f 53/77/42 57/94/42 22/95/42
f 53/96/43 22/97/43 51/75/43
f 51/98/44 22/99/44 50/73/44
f 22/100/45 21/70/45 50/71/45
f 58/101/2 59/102/2 60/103/2
f 58/104/4 61/105/4 62/106/4
f 63/107/3 61/108/3 64/109/3
f 65/110/5 66/111/5 67/112/5
f 68/113/4 69/114/4 70/115/4
f 71/116/2 72/117/2 73/118/2
f 71/116/1 74/119/1 65/120/1
f 65/120/3 75/121/3 67/122/3
f 76/123/1 72/124/1 66/125/1
f 70/126/5 77/127/5 67/112/5
f 78/128/46 67/129/46 77/130/46
f 77/131/3 79/132/3 2/133/3
f 80/134/47 81/135/47 82/136/47
f 83/137/48 84/138/48 81/135/48
f 85/139/49 86/140/49 84/138/49
f 87/141/50 88/142/50 86/140/50
f 88/142/51 89/143/51 90/144/51
f 91/145/52 89/143/52 92/146/52
f 74/147/3 82/148/3 75/149/3
f 72/150/2 92/151/2 73/152/2
f 19/153/53 93/154/53 94/155/53
f 95/156/54 96/157/54 97/158/54
f 98/159/55 99/160/55 100/161/55
f 21/162/56 101/163/56 93/154/56
f 102/164/57 97/158/57 103/165/57
f 104/166/58 105/167/58 99/160/58
f 12/168/59 106/169/59 107/170/59
f 108/171/60 102/164/60 103/165/60
f 109/172/61 110/173/61 105/167/61
f 14/174/3 107/175/3 111/176/3
f 112/177/62 113/178/62 114/179/62
f 115/180/63 116/181/63 110/173/63
f 111/182/4 13/183/4 14/184/4
f 108/171/64 114/179/64 117/185/64
f 118/186/65 119/187/65 116/188/65
f 96/189/3 120/190/3 3/191/3
f 113/178/66 121/192/66 122/193/66
f 123/194/67 124/195/67 119/187/67
f 125/196/68 100/161/68 126/197/68
f 127/198/69 126/197/69 124/195/69
f 17/199/70 94/155/70 106/169/70
f 121/200/2 128/201/2 122/202/2
f 22/203/71 129/204/71 101/205/71
f 130/206/72 20/207/72 18/208/72
f 131/209/73 18/208/73 15/210/73
f 132/211/74 15/210/74 16/212/74
f 133/213/2 16/214/2 13/215/2
f 134/216/75 135/217/75 136/218/75
f 137/219/55 138/220/55 139/221/55
f 134/216/76 136/218/76 140/222/76
f 141/223/67 142/224/67 143/225/67
f 144/226/58 145/227/58 138/220/58
f 146/228/77 136/218/77 147/229/77
f 148/230/65 143/225/65 149/231/65
f 150/232/61 151/233/61 145/227/61
f 152/234/78 136/218/78 146/228/78
f 153/235/63 149/236/63 154/237/63
f 155/238/63 156/239/63 151/233/63
f 152/234/79 157/240/79 136/218/79
f 158/241/61 154/237/61 159/242/61
f 160/243/65 161/244/65 156/245/65
f 162/246/69 163/247/69 142/224/69
f 164/248/58 159/242/58 165/249/58
f 166/250/67 167/251/67 161/244/67
f 168/252/68 139/221/68 169/253/68
f 170/254/69 169/253/69 167/251/69
f 147/229/80 136/218/80 135/217/80
f 171/255/68 172/256/68 163/247/68
f 173/257/55 165/249/55 172/256/55
f 174/258/81 136/259/81 157/260/81
f 175/261/82 136/262/82 176/263/82
f 177/264/83 178/265/83 179/266/83
f 177/264/1 180/267/1 181/268/1
f 182/269/3 181/268/3 180/267/3
f 183/270/2 177/264/2 179/271/2
f 184/272/1 64/273/1 59/274/1
f 185/275/84 186/276/84 187/277/84
f 188/278/85 189/279/85 190/280/85
f 191/281/86 192/282/86 193/283/86
f 194/284/87 195/285/87 192/282/87
f 196/286/88 197/287/88 195/288/88
f 198/289/89 199/290/89 197/287/89
f 200/291/90 201/292/90 199/290/90
f 202/293/91 203/294/91 201/292/91
f 204/295/92 193/283/92 205/296/92
f 206/297/93 205/296/93 203/294/93
f 207/298/3 208/299/3 209/300/3
f 210/301/2 211/302/2 212/303/2
f 213/304/83 214/305/83 215/306/83
f 216/307/94 217/308/94 218/309/94
f 219/310/95 211/311/95 220/312/95
f 221/313/96 222/314/96 223/315/96
f 224/316/97 212/317/97 225/318/97
f 226/319/98 227/320/98 228/321/98
f 229/322/94 230/323/94 231/324/94
f 232/325/5 233/326/5 234/327/5
f 235/328/99 236/329/99 237/330/99
f 238/331/100 210/332/100 239/333/100
f 240/334/4 241/335/4 242/336/4
f 243/337/1 244/338/1 245/339/1
f 246/340/3 247/341/3 248/342/3
f 249/343/4 247/341/4 250/344/4
f 251/345/2 250/344/2 252/346/2
f 246/347/4 253/348/4 254/349/4
f 252/350/83 245/351/83 243/352/83
f 252/353/101 255/354/101 256/355/101
f 257/356/2 256/357/2 240/358/2
f 258/359/102 259/360/102 260/361/102
f 261/362/103 262/363/103 258/359/103
f 263/364/104 264/365/104 261/362/104
f 265/366/105 266/367/105 263/364/105
f 267/368/106 265/366/106 268/369/106
f 267/368/107 269/370/107 270/371/107
f 260/372/2 249/373/2 251/374/2
f 270/375/3 246/376/3 248/377/3
f 271/378/108 272/379/108 273/380/108
f 274/381/109 275/382/109 276/383/109
f 277/384/110 278/385/110 271/378/110
f 279/386/111 280/387/111 281/388/111
f 282/389/112 283/390/112 284/391/112
f 280/387/113 285/392/113 281/388/113
f 284/393/2 286/394/2 287/395/2
f 288/396/114 289/397/114 290/398/114
f 291/399/1 287/400/1 286/401/1
f 285/392/115 290/398/115 289/397/115
f 292/402/2 275/403/2 242/404/2
f 293/405/116 288/396/116 294/406/116
f 273/380/117 295/407/117 282/389/117
f 296/408/3 293/409/3 294/410/3
f 297/411/118 298/412/118 277/413/118
f 299/414/119 300/415/119 301/416/119
f 301/416/120 302/417/120 303/418/120
f 303/418/121 304/419/121 305/420/121
f 305/421/3 306/422/3 291/423/3
f 307/424/122 308/425/122 309/426/122
f 307/424/123 310/427/123 308/425/123
f 311/428/124 312/429/124 308/425/124
f 313/430/125 311/428/125 308/425/125
f 313/430/126 308/425/126 314/431/126
f 312/429/127 309/426/127 308/425/127
f 315/432/128 308/433/128 316/434/128
f 308/435/129 317/436/129 316/437/129
f 318/438/85 319/439/85 320/440/85
f 321/441/84 322/442/84 323/443/84
f 324/444/2 325/445/2 326/446/2
f 327/447/3 328/448/3 329/449/3
f 330/450/5 331/451/5 332/452/5
f 333/453/130 334/454/130 335/455/130
f 327/456/98 336/457/98 337/458/98
f 338/459/99 339/460/99 340/461/99
f 329/462/100 341/463/100 342/464/100
f 343/465/95 344/466/95 345/467/95
f 346/468/130 347/469/130 348/470/130
f 349/471/83 350/472/83 351/473/83
f 328/474/96 352/475/96 353/476/96
f 354/477/97 355/478/97 356/479/97
f 357/480/46 358/481/46 359/482/46
f 360/483/2 243/484/2 361/485/2
f 245/486/3 362/487/3 244/488/3
f 253/489/2 363/490/2 364/491/2
f 365/492/3 241/493/3 242/494/3
f 366/495/3 367/496/3 368/497/3
f 369/498/2 370/499/2 371/500/2
f 372/501/3 373/502/3 374/503/3
f 375/504/2 376/505/2 377/506/2
f 378/507/65 379/508/65 380/509/65
f 381/510/67 382/511/67 378/507/67
f 383/512/69 384/513/69 381/510/69
f 385/514/68 386/515/68 383/512/68
f 387/516/55 388/517/55 385/518/55
f 389/519/58 390/520/58 387/516/58
f 380/509/63 391/521/63 392/522/63
f 392/522/61 393/523/61 389/519/61
f 394/524/65 395/525/65 396/526/65
f 397/527/58 398/528/58 399/529/58
f 400/530/67 401/531/67 394/524/67
f 399/529/55 402/532/55 403/533/55
f 404/534/69 405/535/69 400/530/69
f 403/536/68 406/537/68 407/538/68
f 408/539/68 409/540/68 404/534/68
f 407/538/69 410/541/69 411/542/69
f 412/543/55 413/544/55 408/545/55
f 414/546/61 415/547/61 397/527/61
f 411/542/67 416/548/67 417/549/67
f 418/550/58 419/551/58 412/543/58
f 396/526/63 420/552/63 421/553/63
f 421/553/61 422/554/61 418/550/61
f 423/555/63 424/556/63 414/546/63
f 417/549/65 425/557/65 423/555/65
f 1/1/1 77/558/1 2/2/1
f 4/4/2 8/8/2 5/5/2
f 7/7/1 10/10/1 8/8/1
f 9/9/3 11/559/3 10/10/3
f 6/6/4 5/5/4 11/11/4
f 12/13/5 16/17/5 13/14/5
f 12/13/5 17/18/5 15/16/5
f 17/18/5 19/20/5 18/19/5
f 19/20/5 21/22/5 20/21/5
f 35/560/4 14/26/4 33/561/4
f 14/26/4 13/562/4 23/24/4
f 33/561/4 14/26/4 24/25/4
f 13/562/4 27/563/4 26/564/4
f 26/564/4 29/565/4 13/562/4
f 29/565/4 23/24/4 13/562/4
f 25/27/6 27/31/6 13/28/6
f 25/27/7 28/32/7 26/30/7
f 28/32/8 30/34/8 29/33/8
f 30/34/9 31/36/9 23/35/9
f 31/36/10 37/47/10 24/37/10
f 24/37/11 37/47/11 32/38/11
f 33/39/12 32/38/12 34/40/12
f 14/42/13 35/41/13 34/40/13
f 17/44/131 12/43/131 34/40/131
f 32/38/15 38/66/15 36/46/15
f 37/47/16 39/64/16 38/48/16
f 31/36/17 46/62/17 39/49/17
f 40/50/18 46/61/18 31/36/18
f 41/51/19 40/59/19 30/34/19
f 42/52/20 41/57/20 28/32/20
f 15/53/132 42/55/132 25/27/132
f 18/54/133 43/85/133 42/55/133
f 43/56/23 44/83/23 41/57/23
f 44/58/24 45/81/24 40/59/24
f 45/60/25 52/79/25 46/61/25
f 46/62/26 52/76/26 47/63/26
f 39/64/27 47/74/27 48/65/27
f 38/66/28 48/72/28 49/67/28
f 19/68/134 17/44/134 36/45/134
f 21/70/135 19/68/135 49/69/135
f 48/72/31 51/98/31 50/73/31
f 47/74/32 53/96/32 51/75/32
f 52/76/33 57/94/33 53/77/33
f 54/78/34 57/92/34 52/79/34
f 55/80/35 54/90/35 45/81/35
f 56/82/36 55/88/36 44/83/36
f 20/84/136 56/87/136 43/85/136
f 58/101/2 184/566/2 59/102/2
f 58/104/4 60/567/4 61/105/4
f 63/107/3 62/568/3 61/108/3
f 65/110/5 71/569/5 66/111/5
f 68/113/4 426/570/4 69/114/4
f 71/116/2 66/571/2 72/117/2
f 71/116/1 73/118/1 74/119/1
f 65/120/3 74/119/3 75/121/3
f 76/123/1 427/572/1 72/124/1
f 67/112/5 66/111/5 70/126/5
f 66/111/5 76/573/5 69/574/5
f 70/126/5 66/111/5 69/574/5
f 70/126/5 1/575/5 77/127/5
f 78/128/46 428/576/46 67/129/46
f 77/131/3 78/577/3 79/132/3
f 80/134/47 83/137/47 81/135/47
f 83/137/48 85/139/48 84/138/48
f 85/139/49 87/141/49 86/140/49
f 87/141/50 429/578/50 88/142/50
f 88/142/51 429/578/51 89/143/51
f 91/145/52 90/144/52 89/143/52
f 74/147/3 80/579/3 82/148/3
f 72/150/2 91/580/2 92/151/2
f 19/153/53 21/162/53 93/154/53
f 95/156/54 430/581/54 96/157/54
f 98/159/55 104/166/55 99/160/55
f 21/162/56 22/582/56 101/163/56
f 102/164/57 95/156/57 97/158/57
f 104/166/58 109/172/58 105/167/58
f 12/168/59 17/199/59 106/169/59
f 108/171/60 117/185/60 102/164/60
f 109/172/61 115/180/61 110/173/61
f 14/174/3 12/583/3 107/175/3
f 112/177/62 431/584/62 113/178/62
f 115/180/63 118/585/63 116/181/63
f 111/182/4 133/586/4 13/183/4
f 108/171/64 112/177/64 114/179/64
f 118/186/65 123/194/65 119/187/65
f 96/189/3 430/587/3 120/190/3
f 113/178/66 431/584/66 121/192/66
f 123/194/67 127/198/67 124/195/67
f 125/196/68 98/159/68 100/161/68
f 127/198/69 125/196/69 126/197/69
f 17/199/70 19/153/70 94/155/70
f 121/200/2 427/588/2 128/201/2
f 22/203/71 20/207/71 129/204/71
f 130/206/72 129/204/72 20/207/72
f 131/209/73 130/206/73 18/208/73
f 132/211/74 131/209/74 15/210/74
f 133/213/2 132/589/2 16/214/2
f 137/219/55 144/226/55 138/220/55
f 141/223/67 162/246/67 142/224/67
f 144/226/58 150/232/58 145/227/58
f 148/230/65 141/223/65 143/225/65
f 150/232/61 155/238/61 151/233/61
f 153/235/63 148/590/63 149/236/63
f 155/238/63 160/591/63 156/239/63
f 158/241/61 153/235/61 154/237/61
f 160/243/65 166/250/65 161/244/65
f 162/246/69 171/255/69 163/247/69
f 164/248/58 158/241/58 159/242/58
f 166/250/67 170/254/67 167/251/67
f 168/252/68 137/219/68 139/221/68
f 170/254/69 168/252/69 169/253/69
f 171/255/68 173/257/68 172/256/68
f 173/257/55 164/248/55 165/249/55
f 174/258/81 176/592/81 136/259/81
f 175/261/82 140/593/82 136/262/82
f 177/264/83 181/268/83 178/265/83
f 177/264/1 432/594/1 180/267/1
f 182/269/3 178/595/3 181/268/3
f 183/270/2 432/594/2 177/264/2
f 184/272/1 63/596/1 64/273/1
f 185/275/84 433/597/84 186/276/84
f 188/278/85 434/598/85 189/279/85
f 191/281/86 194/284/86 192/282/86
f 194/284/87 196/599/87 195/285/87
f 196/286/88 198/289/88 197/287/88
f 198/289/89 200/291/89 199/290/89
f 200/291/90 202/293/90 201/292/90
f 202/293/91 206/297/91 203/294/91
f 204/295/92 191/281/92 193/283/92
f 206/297/93 204/295/93 205/296/93
f 435/600/3 436/601/3 207/298/3
f 207/298/3 437/602/3 208/299/3
f 208/299/3 438/603/3 439/604/3
f 439/604/3 440/605/3 208/299/3
f 440/605/3 209/300/3 208/299/3
f 209/300/3 441/606/3 435/600/3
f 435/600/3 207/298/3 209/300/3
f 211/302/2 216/607/2 214/608/2
f 214/608/2 222/609/2 211/302/2
f 222/609/2 212/303/2 211/302/2
f 212/303/2 227/610/2 230/611/2
f 230/611/2 233/612/2 212/303/2
f 233/612/2 236/613/2 212/303/2
f 236/613/2 210/301/2 212/303/2
f 213/304/83 435/614/83 214/305/83
f 216/307/94 436/615/94 217/308/94
f 219/310/95 207/616/95 211/311/95
f 221/313/96 441/617/96 222/314/96
f 224/316/97 209/618/97 212/317/97
f 226/319/98 440/619/98 227/320/98
f 229/322/94 439/620/94 230/323/94
f 232/325/5 438/621/5 233/326/5
f 235/328/99 208/622/99 236/329/99
f 238/331/100 437/623/100 210/332/100
f 240/334/4 256/624/4 241/335/4
f 243/337/1 361/625/1 244/338/1
f 246/340/3 254/626/3 247/341/3
f 249/343/4 248/342/4 247/341/4
f 251/345/2 249/343/2 250/344/2
f 246/347/4 364/627/4 253/348/4
f 253/628/83 254/629/83 243/352/83
f 254/629/83 252/350/83 243/352/83
f 256/630/83 241/631/83 245/351/83
f 252/350/83 256/630/83 245/351/83
f 252/353/101 442/632/101 255/354/101
f 257/356/2 255/633/2 256/357/2
f 258/359/102 262/363/102 259/360/102
f 261/362/103 264/365/103 262/363/103
f 263/364/104 266/367/104 264/365/104
f 265/366/105 443/634/105 266/367/105
f 267/368/106 443/634/106 265/366/106
f 267/368/107 268/369/107 269/370/107
f 260/372/2 259/635/2 249/373/2
f 270/375/3 269/636/3 246/376/3
f 271/378/108 278/385/108 272/379/108
f 274/381/109 279/386/109 275/382/109
f 277/384/110 298/637/110 278/385/110
f 279/386/111 274/381/111 280/387/111
f 282/389/112 295/407/112 283/390/112
f 280/387/113 444/638/113 285/392/113
f 284/393/2 283/639/2 286/394/2
f 288/396/114 445/640/114 289/397/114
f 291/399/1 306/641/1 287/400/1
f 285/392/115 444/638/115 290/398/115
f 292/402/2 276/642/2 275/403/2
f 293/405/116 445/640/116 288/396/116
f 273/380/117 272/379/117 295/407/117
f 296/408/3 364/643/3 293/409/3
f 297/411/118 299/414/118 298/412/118
f 299/414/119 297/411/119 300/415/119
f 301/416/120 300/415/120 302/417/120
f 303/418/121 302/417/121 304/419/121
f 305/421/3 304/644/3 306/422/3
f 315/432/128 314/645/128 308/433/128
f 308/435/129 310/646/129 317/436/129
f 318/438/85 446/647/85 319/439/85
f 321/441/84 447/648/84 322/442/84
f 325/445/2 448/649/2 449/650/2
f 449/650/2 450/651/2 325/445/2
f 450/651/2 326/446/2 325/445/2
f 326/446/2 451/652/2 452/653/2
f 452/653/2 453/654/2 326/446/2
f 453/654/2 454/655/2 326/446/2
f 454/655/2 324/444/2 326/446/2
f 330/656/3 334/657/3 327/447/3
f 327/447/3 354/658/3 328/448/3
f 328/448/3 349/659/3 346/660/3
f 346/660/3 343/661/3 328/448/3
f 343/661/3 329/449/3 328/448/3
f 329/449/3 338/662/3 330/656/3
f 330/656/3 327/447/3 329/449/3
f 330/450/5 449/663/5 331/451/5
f 333/453/130 448/664/130 334/454/130
f 327/456/98 325/665/98 336/457/98
f 338/459/99 450/666/99 339/460/99
f 329/462/100 326/667/100 341/463/100
f 343/465/95 451/668/95 344/466/95
f 346/468/130 452/669/130 347/469/130
f 349/471/83 453/670/83 350/472/83
f 328/474/96 454/671/96 352/475/96
f 354/477/97 324/672/97 355/478/97
f 357/480/46 455/673/46 358/481/46
f 360/483/2 456/674/2 243/484/2
f 245/486/3 457/675/3 362/487/3
f 253/489/2 458/676/2 363/490/2
f 365/492/3 459/677/3 241/493/3
f 366/495/3 460/678/3 367/496/3
f 369/498/2 461/679/2 370/499/2
f 372/501/3 462/680/3 373/502/3
f 375/504/2 463/681/2 376/505/2
f 378/507/65 382/511/65 379/508/65
f 381/510/67 384/513/67 382/511/67
f 383/512/69 386/515/69 384/513/69
f 385/514/68 388/682/68 386/515/68
f 387/516/55 390/520/55 388/517/55
f 389/519/58 393/523/58 390/520/58
f 380/509/63 379/508/63 391/521/63
f 392/522/61 391/521/61 393/523/61
f 394/524/65 401/531/65 395/525/65
f 397/527/58 415/547/58 398/528/58
f 400/530/67 405/535/67 401/531/67
f 399/529/55 398/528/55 402/532/55
f 404/534/69 409/540/69 405/535/69
f 403/536/68 402/683/68 406/537/68
f 408/539/68 413/684/68 409/540/68
f 407/538/69 406/537/69 410/541/69
f 412/543/55 419/551/55 413/544/55
f 414/546/61 424/556/61 415/547/61
f 411/542/67 410/541/67 416/548/67
f 418/550/58 422/554/58 419/551/58
f 396/526/63 395/525/63 420/552/63
f 421/553/61 420/552/61 422/554/61
f 423/555/63 425/557/63 424/556/63
f 417/549/65 416/548/65 425/557/65
