mtllib crane_splitter.mtl
v 1.000000 0.875000 1.500000
v 0.500000 1.000000 0.500000
v 0.500000 1.000000 1.500000
v 0.000000 1.000000 0.500000
v 0.000000 1.000000 1.500000
v 1.000000 0.875000 0.500000
v 0.000000 0.000000 0.500000
v 1.000000 0.000000 1.500000
v 0.000000 0.000000 1.500000
v 1.000000 0.000000 0.500000
v 1.000000 0.000000 0.500000
v 1.000000 0.875000 1.500000
v 1.000000 0.000000 1.500000
v 1.000000 0.875000 0.500000
v 0.000000 1.000000 0.500000
v 0.000000 0.250000 0.625000
v 0.000000 0.875000 0.625000
v 0.000000 0.250000 1.375000
v 0.000000 0.000000 0.500000
v 0.000000 0.000000 1.500000
v 0.000000 1.000000 1.500000
v 0.000000 0.875000 1.375000
v 0.500000 0.875000 1.375000
v 0.500000 0.250000 0.625000
v 0.500000 0.250000 1.375000
v 0.500000 0.875000 0.625000
v 0.000000 0.875000 1.375000
v 0.500000 0.250000 1.375000
v 0.000000 0.250000 1.375000
v 0.500000 0.875000 1.375000
v 0.000000 0.250000 0.625000
v 0.500000 0.875000 0.625000
v 0.000000 0.875000 0.625000
v 0.500000 0.250000 0.625000
v 0.000000 0.875000 0.625000
v 0.500000 0.875000 1.375000
v 0.000000 0.875000 1.375000
v 0.500000 0.875000 0.625000
v 0.000000 0.250000 1.375000
v 0.500000 0.250000 0.625000
v 0.000000 0.250000 0.625000
v 0.500000 0.250000 1.375000
v 1.000000 0.000000 1.500000
v 1.000000 0.875000 1.500000
v 0.500000 1.000000 1.500000
v 0.000000 1.000000 1.500000
v 0.000000 0.000000 1.500000
v 1.000000 0.875000 0.500000
v 0.500000 1.000000 -0.500000
v 0.500000 1.000000 0.500000
v 0.000000 1.000000 -0.500000
v 0.000000 1.000000 0.500000
v 1.000000 0.875000 -0.500000
v 0.000000 0.000000 -0.500000
v 1.000000 0.000000 0.500000
v 0.000000 0.000000 0.500000
v 1.000000 0.000000 -0.500000
v 1.000000 0.000000 -0.500000
v 1.000000 0.875000 0.500000
v 1.000000 0.000000 0.500000
v 1.000000 0.875000 -0.500000
v 0.000000 1.000000 -0.500000
v 0.000000 0.250000 -0.375000
v 0.000000 0.875000 -0.375000
v 0.000000 0.250000 0.375000
v 0.000000 0.000000 -0.500000
v 0.000000 0.000000 0.500000
v 0.000000 1.000000 0.500000
v 0.000000 0.875000 0.375000
v 0.500000 0.875000 0.375000
v 0.500000 0.250000 -0.375000
v 0.500000 0.250000 0.375000
v 0.500000 0.875000 -0.375000
v 0.000000 0.875000 0.375000
v 0.500000 0.250000 0.375000
v 0.000000 0.250000 0.375000
v 0.500000 0.875000 0.375000
v 0.000000 0.250000 -0.375000
v 0.500000 0.875000 -0.375000
v 0.000000 0.875000 -0.375000
v 0.500000 0.250000 -0.375000
v 0.000000 0.875000 -0.375000
v 0.500000 0.875000 0.375000
v 0.000000 0.875000 0.375000
v 0.500000 0.875000 -0.375000
v 0.000000 0.250000 0.375000
v 0.500000 0.250000 -0.375000
v 0.000000 0.250000 -0.375000
v 0.500000 0.250000 0.375000
v 0.000000 0.000000 -0.500000
v 0.000000 1.000000 -0.500000
v 0.500000 1.000000 -0.500000
v 1.000000 0.875000 -0.500000
v 1.000000 0.000000 -0.500000
vt 0.000000 0.000000
vt 1.000000 0.500000
vt 0.000000 0.500000
vt 1.000000 1.000000
vt 0.000000 1.000000
vt 1.000000 0.000000
vt 0.000000 1.000000
vt 1.000000 0.000000
vt 1.000000 1.000000
vt 0.000000 0.000000
vt 1.000000 0.000000
vt 0.000000 0.875000
vt 0.000000 0.000000
vt 1.000000 0.875000
vt 0.000000 1.000000
vt 0.125000 0.250000
vt 0.125000 0.875000
vt 0.875000 0.250000
vt 0.000000 0.000000
vt 1.000000 0.000000
vt 1.000000 1.000000
vt 0.875000 0.875000
vt 0.875000 0.875000
vt 0.125000 0.250000
vt 0.875000 0.250000
vt 0.125000 0.875000
vt 0.187500 1.000000
vt 0.812500 0.500000
vt 0.812500 1.000000
vt 0.187500 0.500000
vt 0.187500 1.000000
vt 0.812500 0.500000
vt 0.812500 1.000000
vt 0.187500 0.500000
vt 0.125000 1.000000
vt 0.875000 0.500000
vt 0.875000 1.000000
vt 0.125000 0.500000
vt 0.875000 0.000000
vt 0.125000 0.500000
vt 0.125000 0.000000
vt 0.875000 0.500000
vt 1.000000 0.000000
vt 1.000000 0.875000
vt 0.500000 1.000000
vt 0.000000 1.000000
vt 0.000000 0.000000
vt 0.000000 0.000000
vt 1.000000 0.500000
vt 0.000000 0.500000
vt 1.000000 1.000000
vt 0.000000 1.000000
vt 1.000000 0.000000
vt 0.000000 1.000000
vt 1.000000 0.000000
vt 1.000000 1.000000
vt 0.000000 0.000000
vt 1.000000 0.000000
vt 0.000000 0.875000
vt 0.000000 0.000000
vt 1.000000 0.875000
vt 0.000000 1.000000
vt 0.125000 0.250000
vt 0.125000 0.875000
vt 0.875000 0.250000
vt 0.000000 0.000000
vt 1.000000 0.000000
vt 1.000000 1.000000
vt 0.875000 0.875000
vt 0.875000 0.875000
vt 0.125000 0.250000
vt 0.875000 0.250000
vt 0.125000 0.875000
vt 0.187500 1.000000
vt 0.812500 0.500000
vt 0.812500 1.000000
vt 0.187500 0.500000
vt 0.187500 1.000000
vt 0.812500 0.500000
vt 0.812500 1.000000
vt 0.187500 0.500000
vt 0.125000 1.000000
vt 0.875000 0.500000
vt 0.875000 1.000000
vt 0.125000 0.500000
vt 0.875000 0.000000
vt 0.125000 0.500000
vt 0.125000 0.000000
vt 0.875000 0.500000
vt 1.000000 0.000000
vt 1.000000 1.000000
vt 0.500000 1.000000
vt 0.000000 0.875000
vt 0.000000 0.000000
vn 0.242500 0.970100 0.000000
vn 0.000000 1.000000 0.000000
vn 0.000000 -1.000000 0.000000
vn 1.000000 0.000000 0.000000
vn -1.000000 0.000000 0.000000
vn -1.000000 0.000000 0.000000
vn 0.000000 0.000000 -1.000000
vn 0.000000 0.000000 1.000000
vn 0.000000 -1.000000 0.000000
vn 0.000000 1.000000 0.000000
vn 0.000000 0.000000 1.000000
vn 0.242500 0.970100 0.000000
vn 0.000000 1.000000 0.000000
vn 0.000000 -1.000000 0.000000
vn 1.000000 0.000000 0.000000
vn -1.000000 0.000000 0.000000
vn -1.000000 0.000000 0.000000
vn 0.000000 0.000000 -1.000000
vn 0.000000 0.000000 1.000000
vn 0.000000 -1.000000 0.000000
vn 0.000000 1.000000 0.000000
vn 0.000000 0.000000 -1.000000
o Top
usemtl l_top_left
s off
f 1/1/1 2/2/1 3/3/1
f 3/3/2 4/4/2 5/5/2
f 1/1/1 6/6/1 2/2/1
f 3/3/2 2/2/2 4/4/2
o Bottom
usemtl l_top_right
s off
f 7/7/3 8/8/3 9/9/3
f 7/7/3 10/10/3 8/8/3
o Back
usemtl l_back_left
s off
f 11/11/4 12/12/4 13/13/4
f 11/11/4 14/14/4 12/12/4
o Front
usemtl l_front_left
s off
f 15/15/5 16/16/5 17/17/5
f 18/18/5 19/19/5 20/20/5
f 21/21/5 18/18/5 20/20/5
f 15/15/5 22/22/5 21/21/5
f 15/15/5 19/19/5 16/16/5
f 18/18/5 16/16/5 19/19/5
f 21/21/5 22/22/5 18/18/5
f 15/15/5 17/17/5 22/22/5
o Inner
usemtl l_inner
s off
f 23/23/6 24/24/6 25/25/6
f 23/23/6 26/26/6 24/24/6
o InnerLeft
usemtl l_inner_side
s off
f 27/27/7 28/28/7 29/29/7
f 27/27/7 30/30/7 28/28/7
o InnerRight
usemtl l_inner_side
s off
f 31/31/8 32/32/8 33/33/8
f 31/31/8 34/34/8 32/32/8
o InnerTop
usemtl l_inner_side
s off
f 35/35/9 36/36/9 37/37/9
f 35/35/9 38/38/9 36/36/9
o InnerBottom
usemtl l_belt
s off
f 39/39/10 40/40/10 41/41/10
f 39/39/10 42/42/10 40/40/10
o Left
usemtl l_left
s off
f 43/43/11 44/44/11 45/45/11
f 46/46/11 47/47/11 45/45/11
f 47/47/11 43/43/11 45/45/11
o Top
usemtl r_top_right
s off
f 48/48/12 49/49/12 50/50/12
f 50/50/13 51/51/13 52/52/13
f 48/48/12 53/53/12 49/49/12
f 50/50/13 49/49/13 51/51/13
o Bottom
usemtl r_top_left
s off
f 54/54/14 55/55/14 56/56/14
f 54/54/14 57/57/14 55/55/14
o Back
usemtl r_back_right
s off
f 58/58/15 59/59/15 60/60/15
f 58/58/15 61/61/15 59/59/15
o Front
usemtl r_front_right
s off
f 62/62/16 63/63/16 64/64/16
f 65/65/16 66/66/16 67/67/16
f 68/68/16 65/65/16 67/67/16
f 62/62/16 69/69/16 68/68/16
f 62/62/16 66/66/16 63/63/16
f 65/65/16 63/63/16 66/66/16
f 68/68/16 69/69/16 65/65/16
f 62/62/16 64/64/16 69/69/16
o Inner
usemtl r_inner
s off
f 70/70/17 71/71/17 72/72/17
f 70/70/17 73/73/17 71/71/17
o InnerLeft
usemtl r_inner_side
s off
f 74/74/18 75/75/18 76/76/18
f 74/74/18 77/77/18 75/75/18
o InnerRight
usemtl r_inner_side
s off
f 78/78/19 79/79/19 80/80/19
f 78/78/19 81/81/19 79/79/19
o InnerTop
usemtl r_inner_side
s off
f 82/82/20 83/83/20 84/84/20
f 82/82/20 85/85/20 83/83/20
o InnerBottom
usemtl r_belt
s off
f 86/86/21 87/87/21 88/88/21
f 86/86/21 89/89/21 87/87/21
o Right
usemtl r_right
s off
f 90/90/22 91/91/22 92/92/22
f 93/93/22 94/94/22 92/92/22
f 94/94/22 90/90/22 92/92/22
