mtllib dud_balefire_item.mtl
v 0.010417 0.395773 0.555698
v 0.010417 0.371316 0.500000
v 0.010417 0.386274 0.560684
v 0.072917 0.395773 0.555698
v 0.072917 0.371316 0.500000
v 0.072917 0.382045 0.500000
v 0.010417 0.427719 0.607466
v 0.010417 0.433813 0.598636
v 0.072917 0.433813 0.598636
v 0.072917 0.386274 0.560684
v 0.010417 0.486157 0.629629
v 0.010417 0.487451 0.618978
v 0.072917 0.487451 0.618978
v 0.072917 0.427719 0.607466
v 0.010417 0.544398 0.612064
v 0.010417 0.548202 0.622095
v 0.072917 0.544398 0.612064
v 0.072917 0.486157 0.629629
v 0.010417 0.599638 0.586591
v 0.010417 0.591608 0.579477
v 0.072917 0.599638 0.586591
v 0.072917 0.548202 0.622095
v 0.010417 0.628684 0.531250
v 0.010417 0.618267 0.528682
v 0.072917 0.618267 0.528682
v 0.072917 0.591608 0.579477
v 0.010417 0.628683 0.468750
v 0.010417 0.618267 0.471317
v 0.072917 0.628683 0.468750
v 0.072917 0.628684 0.531250
v 0.010417 0.599638 0.413409
v 0.010417 0.591608 0.420523
v 0.072917 0.618267 0.471317
v 0.072917 0.599638 0.413409
v 0.010417 0.548202 0.377905
v 0.010417 0.544397 0.387936
v 0.072917 0.544397 0.387936
v 0.072917 0.591608 0.420523
v 0.010417 0.487450 0.381022
v 0.010417 0.486157 0.370371
v 0.072917 0.487450 0.381022
v 0.072917 0.548202 0.377905
v 0.010417 0.433813 0.401364
v 0.010417 0.427719 0.392534
v 0.072917 0.433813 0.401364
v 0.072917 0.486157 0.370371
v 0.010417 0.386274 0.439316
v 0.010417 0.395773 0.444302
v 0.072917 0.386274 0.439316
v 0.072917 0.427719 0.392534
v 0.010417 0.382045 0.500000
v 0.072917 0.395773 0.444302
v 0.093750 0.395773 0.555698
v 0.093750 0.371316 0.500000
v 0.093750 0.386274 0.560684
v 0.156250 0.395773 0.555698
v 0.156250 0.371316 0.500000
v 0.156250 0.382045 0.500000
v 0.093750 0.433813 0.598636
v 0.093750 0.427719 0.607466
v 0.156250 0.427719 0.607466
v 0.156250 0.386274 0.560684
v 0.093750 0.487451 0.618978
v 0.093750 0.486157 0.629629
v 0.156250 0.487451 0.618978
v 0.156250 0.433813 0.598636
v 0.093750 0.544398 0.612064
v 0.093750 0.548202 0.622095
v 0.156250 0.544398 0.612064
v 0.156250 0.486157 0.629629
v 0.093750 0.599638 0.586591
v 0.093750 0.591608 0.579477
v 0.156250 0.599638 0.586591
v 0.156250 0.548202 0.622095
v 0.093750 0.628684 0.531250
v 0.093750 0.618267 0.528682
v 0.156250 0.618267 0.528682
v 0.156250 0.591608 0.579477
v 0.093750 0.628683 0.468750
v 0.093750 0.618267 0.471317
v 0.156250 0.628683 0.468750
v 0.156250 0.628684 0.531250
v 0.093750 0.599638 0.413409
v 0.093750 0.591608 0.420523
v 0.156250 0.618267 0.471317
v 0.156250 0.599638 0.413409
v 0.093750 0.548202 0.377905
v 0.093750 0.544397 0.387936
v 0.156250 0.544397 0.387936
v 0.156250 0.591608 0.420523
v 0.093750 0.487450 0.381022
v 0.093750 0.486157 0.370371
v 0.156250 0.486157 0.370371
v 0.156250 0.548202 0.377905
v 0.093750 0.433813 0.401364
v 0.093750 0.427719 0.392534
v 0.156250 0.433813 0.401364
v 0.156250 0.487450 0.381022
v 0.093750 0.386274 0.439316
v 0.093750 0.395773 0.444302
v 0.156250 0.386274 0.439316
v 0.156250 0.427719 0.392534
v 0.093750 0.382045 0.500000
v 0.156250 0.395773 0.444302
v 1.000000 0.509263 0.500000
v 0.989583 0.501897 0.507366
v 1.000000 0.501897 0.507366
v 0.989583 0.501897 0.492634
v 1.000000 0.494531 0.500000
v 0.989583 0.494531 0.500000
v 1.000000 0.501897 0.492634
v 0.989583 0.509263 0.500000
v 0.431248 0.613723 0.489583
v 0.402086 0.598405 0.489583
v 0.400406 0.608685 0.489583
v 0.400406 0.608685 0.510417
v 0.402086 0.598405 0.510417
v 0.431248 0.613723 0.510417
v 0.432927 0.603443 0.510417
v 0.431248 0.566831 0.591636
v 0.402086 0.559172 0.578369
v 0.400406 0.564312 0.587273
v 0.400406 0.546270 0.597689
v 0.402086 0.541130 0.588786
v 0.431248 0.548789 0.602052
v 0.432927 0.543649 0.593149
v 0.431248 0.455005 0.602052
v 0.402086 0.462664 0.588786
v 0.400406 0.457524 0.597689
v 0.400406 0.439482 0.587273
v 0.402086 0.444622 0.578369
v 0.431248 0.436963 0.591636
v 0.432927 0.442103 0.582733
v 0.431248 0.390071 0.510417
v 0.402086 0.405390 0.510417
v 0.400406 0.395109 0.510417
v 0.400406 0.395109 0.489583
v 0.402086 0.405390 0.489583
v 0.431248 0.390071 0.489583
v 0.432927 0.400352 0.489583
v 0.431248 0.436963 0.408364
v 0.402086 0.444622 0.421630
v 0.400406 0.439482 0.412727
v 0.400406 0.457524 0.402311
v 0.402086 0.462664 0.411214
v 0.431248 0.455005 0.397947
v 0.432927 0.460145 0.406851
v 0.431248 0.548789 0.397947
v 0.402086 0.541130 0.411214
v 0.400406 0.546270 0.402311
v 0.400406 0.564312 0.412727
v 0.402086 0.559172 0.421630
v 0.431248 0.566831 0.408364
v 0.432927 0.561691 0.417267
v 0.031250 0.458954 0.524793
v 0.031250 0.441527 0.500000
v 0.031250 0.452311 0.500000
v 0.031250 0.477104 0.542943
v 0.031250 0.449615 0.530185
v 0.031250 0.501897 0.560370
v 0.031250 0.471712 0.552282
v 0.031250 0.526690 0.542943
v 0.031250 0.501897 0.549586
v 0.031250 0.554180 0.530185
v 0.031250 0.532082 0.552282
v 0.031250 0.551483 0.500000
v 0.031250 0.544840 0.524793
v 0.031250 0.554179 0.469815
v 0.031250 0.562268 0.500000
v 0.031250 0.526690 0.457057
v 0.031250 0.544840 0.475207
v 0.031250 0.501897 0.450414
v 0.031250 0.532082 0.447718
v 0.031250 0.477104 0.457057
v 0.031250 0.501897 0.439630
v 0.031250 0.458954 0.475207
v 0.031250 0.471712 0.447718
v 0.031250 0.449615 0.469815
v 0.010417 0.458954 0.524793
v 0.010417 0.441527 0.500000
v 0.010417 0.449615 0.530185
v 0.010417 0.471712 0.552282
v 0.010417 0.477104 0.542943
v 0.010417 0.501897 0.560370
v 0.010417 0.501897 0.549586
v 0.010417 0.526690 0.542943
v 0.010417 0.532082 0.552282
v 0.010417 0.554180 0.530185
v 0.010417 0.544840 0.524793
v 0.010417 0.562268 0.500000
v 0.010417 0.551483 0.500000
v 0.010417 0.554179 0.469815
v 0.010417 0.544840 0.475207
v 0.010417 0.532082 0.447718
v 0.010417 0.526690 0.457057
v 0.010417 0.501897 0.439630
v 0.010417 0.501897 0.450414
v 0.010417 0.471712 0.447718
v 0.010417 0.477104 0.457057
v 0.010417 0.458954 0.475207
v 0.010417 0.449615 0.469815
v 0.010417 0.452311 0.500000
v 0.000000 0.406143 0.396880
v 0.291667 0.398777 0.404246
v 0.000000 0.398777 0.404246
v 0.000000 0.457703 0.463171
v 0.000000 0.465069 0.455806
v 0.291667 0.406143 0.396880
v 0.333333 0.465069 0.455806
v 0.333333 0.428240 0.433709
v 0.333333 0.457703 0.463171
v 0.333333 0.435606 0.426343
v 0.000000 0.605017 0.404246
v 0.291667 0.597651 0.396880
v 0.000000 0.597651 0.396880
v 0.000000 0.538726 0.455806
v 0.000000 0.546091 0.463171
v 0.291667 0.605017 0.404246
v 0.333333 0.546091 0.463171
v 0.333333 0.568189 0.426343
v 0.333333 0.538726 0.455806
v 0.333333 0.575554 0.433709
v 0.000000 0.597651 0.603120
v 0.291667 0.605017 0.595754
v 0.000000 0.605017 0.595754
v 0.000000 0.538726 0.544194
v 0.000000 0.546091 0.536828
v 0.291667 0.597651 0.603120
v 0.333333 0.538726 0.544194
v 0.333333 0.575554 0.566291
v 0.333333 0.546091 0.536828
v 0.000000 0.398777 0.595754
v 0.291667 0.406143 0.603120
v 0.000000 0.406143 0.603120
v 0.000000 0.465069 0.544194
v 0.000000 0.457703 0.536828
v 0.291667 0.398777 0.595754
v 0.333333 0.457703 0.536828
v 0.333333 0.435606 0.573657
v 0.333333 0.465069 0.544194
v 0.572917 0.392773 0.500000
v 0.572917 0.386274 0.560684
v 0.572917 0.405273 0.550712
v 0.593750 0.405273 0.550712
v 0.593750 0.371316 0.500000
v 0.593750 0.392773 0.500000
v 0.572917 0.427719 0.607466
v 0.572917 0.439908 0.589807
v 0.593750 0.427719 0.607466
v 0.593750 0.386274 0.560684
v 0.572917 0.486157 0.629629
v 0.572917 0.488744 0.608328
v 0.593750 0.488744 0.608328
v 0.593750 0.439908 0.589807
v 0.572917 0.548202 0.622095
v 0.572917 0.540593 0.602032
v 0.593750 0.540593 0.602032
v 0.593750 0.486157 0.629629
v 0.572917 0.599638 0.586591
v 0.572917 0.583578 0.572362
v 0.593750 0.599638 0.586591
v 0.593750 0.548202 0.622095
v 0.572917 0.607850 0.526115
v 0.572917 0.628684 0.531250
v 0.593750 0.607850 0.526115
v 0.593750 0.583578 0.572362
v 0.572917 0.628683 0.468750
v 0.572917 0.607850 0.473885
v 0.593750 0.607850 0.473885
v 0.593750 0.628684 0.531250
v 0.572917 0.599638 0.413409
v 0.572917 0.583578 0.427637
v 0.593750 0.583578 0.427637
v 0.593750 0.628683 0.468750
v 0.572917 0.548202 0.377905
v 0.572917 0.540593 0.397967
v 0.593750 0.540593 0.397967
v 0.593750 0.599638 0.413409
v 0.572917 0.486157 0.370371
v 0.572917 0.488744 0.391672
v 0.593750 0.486157 0.370371
v 0.593750 0.548202 0.377905
v 0.572917 0.427719 0.392534
v 0.572917 0.439908 0.410193
v 0.593750 0.439908 0.410193
v 0.593750 0.488744 0.391672
v 0.572917 0.405273 0.449288
v 0.572917 0.386274 0.439316
v 0.593750 0.405273 0.449288
v 0.593750 0.427719 0.392534
v 0.572917 0.371316 0.500000
v 0.593750 0.392773 0.500000
v 0.593750 0.386274 0.439316
v 0.593750 0.405273 0.449288
v 0.739583 0.392773 0.500000
v 0.739583 0.386274 0.560684
v 0.739583 0.405273 0.550712
v 0.760417 0.405273 0.550712
v 0.760417 0.371316 0.500000
v 0.760417 0.392773 0.500000
v 0.739583 0.427719 0.607466
v 0.739583 0.439908 0.589807
v 0.760417 0.427719 0.607466
v 0.760417 0.386274 0.560684
v 0.739583 0.486157 0.629629
v 0.739583 0.488744 0.608328
v 0.760417 0.488744 0.608328
v 0.760417 0.439908 0.589807
v 0.739583 0.548202 0.622095
v 0.739583 0.540593 0.602032
v 0.760417 0.540593 0.602032
v 0.760417 0.486157 0.629629
v 0.739583 0.599638 0.586591
v 0.739583 0.583578 0.572362
v 0.760417 0.599638 0.586591
v 0.760417 0.548202 0.622095
v 0.739583 0.607850 0.526115
v 0.739583 0.628684 0.531250
v 0.760417 0.607850 0.526115
v 0.760417 0.583578 0.572362
v 0.739583 0.628683 0.468750
v 0.739583 0.607850 0.473885
v 0.760417 0.607850 0.473885
v 0.760417 0.628684 0.531250
v 0.739583 0.599638 0.413409
v 0.739583 0.583578 0.427637
v 0.760417 0.583578 0.427637
v 0.760417 0.628683 0.468750
v 0.739583 0.548202 0.377905
v 0.739583 0.540593 0.397967
v 0.760417 0.540593 0.397967
v 0.760417 0.599638 0.413409
v 0.739583 0.486157 0.370371
v 0.739583 0.488744 0.391672
v 0.760417 0.486157 0.370371
v 0.760417 0.548202 0.377905
v 0.739583 0.427719 0.392534
v 0.739583 0.439908 0.410193
v 0.760417 0.439908 0.410193
v 0.760417 0.488744 0.391672
v 0.739583 0.405273 0.449288
v 0.739583 0.386274 0.439316
v 0.760417 0.405273 0.449288
v 0.760417 0.427719 0.392534
v 0.739583 0.371316 0.500000
v 0.760417 0.386274 0.439316
v 0.989583 0.522021 0.500000
v 0.989583 0.511959 0.517427
v 0.989583 0.491835 0.517427
v 0.166667 0.501897 0.560370
v 0.166667 0.554179 0.469815
v 0.166667 0.449615 0.469815
v 0.432927 0.603443 0.489583
v 0.432927 0.561691 0.582733
v 0.432927 0.460145 0.593149
v 0.432927 0.400352 0.510417
v 0.432927 0.442103 0.417267
v 0.432927 0.543649 0.406851
v 0.333333 0.568188 0.573657
v 0.333333 0.428240 0.566291
v 0.989583 0.484470 0.510062
v 0.989583 0.481774 0.500000
v 0.989583 0.484470 0.489938
v 0.989583 0.491835 0.482572
v 0.989583 0.501897 0.479876
v 0.989583 0.511959 0.482572
v 0.989583 0.519325 0.489938
v 0.989583 0.519325 0.510062
v 0.989583 0.501897 0.520123
v 0.166667 0.441527 0.500000
v 0.166667 0.449615 0.530185
v 0.166667 0.471712 0.552282
v 0.166667 0.532082 0.552282
v 0.166667 0.554180 0.530185
v 0.166667 0.562268 0.500000
v 0.166667 0.532082 0.447718
v 0.166667 0.501897 0.439630
v 0.166667 0.471712 0.447718
v 0.833333 0.381156 0.500000
v 0.500000 0.397333 0.560370
v 0.500000 0.381156 0.500000
v 0.833333 0.397333 0.560370
v 0.500000 0.441527 0.604564
v 0.833333 0.441527 0.604564
v 0.500000 0.501897 0.620741
v 0.833333 0.562268 0.604564
v 0.500000 0.562268 0.604564
v 0.500000 0.606462 0.560370
v 0.833333 0.606462 0.560370
v 0.500000 0.622638 0.500000
v 0.833333 0.606462 0.439630
v 0.500000 0.606462 0.439630
v 0.500000 0.562268 0.395435
v 0.833333 0.562268 0.395435
v 0.500000 0.501897 0.379259
v 0.833333 0.501897 0.379259
v 0.500000 0.441527 0.395435
v 0.833333 0.501897 0.620741
v 0.947917 0.542144 0.569710
v 0.833333 0.441527 0.395435
v 0.500000 0.397333 0.439630
v 0.833333 0.397333 0.439630
v 0.947917 0.571607 0.540247
v 0.979167 0.542144 0.500000
v 0.947917 0.582391 0.500000
v 0.947917 0.432187 0.459753
v 0.947917 0.421403 0.500000
v 0.947917 0.432187 0.540247
v 0.947917 0.501897 0.580494
v 0.947917 0.461650 0.569710
v 0.947917 0.461650 0.430290
v 0.947917 0.542144 0.430290
v 0.947917 0.501897 0.419506
v 0.947917 0.571607 0.459753
v 0.833333 0.622638 0.500000
v 0.979167 0.501897 0.459753
v 0.979167 0.481774 0.534855
v 0.979167 0.501897 0.540247
v 0.979167 0.481774 0.465145
v 0.979167 0.536752 0.479876
v 0.979167 0.522021 0.534855
v 0.979167 0.467042 0.479876
v 0.979167 0.467042 0.520123
v 0.979167 0.522021 0.465145
v 0.979167 0.536752 0.520123
v 0.979167 0.461650 0.500000
vt 0.673684 0.087500
vt 0.678947 0.012500
vt 0.678947 0.087500
vt 0.715789 0.087500
vt 0.710526 0.012500
vt 0.715789 0.012500
vt 0.678947 0.162500
vt 0.673684 0.162500
vt 0.715789 0.162500
vt 0.710526 0.087500
vt 0.678947 0.237500
vt 0.673684 0.237500
vt 0.715789 0.237500
vt 0.710526 0.162500
vt 0.673684 0.312500
vt 0.678947 0.312500
vt 0.715789 0.312500
vt 0.710526 0.237500
vt 0.678947 0.387500
vt 0.673684 0.387500
vt 0.710526 0.387500
vt 0.710526 0.312500
vt 0.678947 0.462500
vt 0.673684 0.462500
vt 0.715789 0.462500
vt 0.715789 0.387500
vt 0.678947 0.537500
vt 0.673684 0.537500
vt 0.710526 0.537500
vt 0.710526 0.462500
vt 0.678947 0.612500
vt 0.673684 0.612500
vt 0.715789 0.537500
vt 0.710526 0.612500
vt 0.678947 0.687500
vt 0.673684 0.687500
vt 0.715789 0.687500
vt 0.715789 0.612500
vt 0.673684 0.762500
vt 0.678947 0.762500
vt 0.715789 0.762500
vt 0.710526 0.687500
vt 0.673684 0.837500
vt 0.678947 0.837500
vt 0.715789 0.837500
vt 0.710526 0.762500
vt 0.678947 0.912500
vt 0.673684 0.912500
vt 0.710526 0.912500
vt 0.710526 0.837500
vt 0.678947 0.987500
vt 0.673684 0.987500
vt 0.715789 0.987500
vt 0.715789 0.912500
vt 0.589474 0.087500
vt 0.594737 0.012500
vt 0.594737 0.087500
vt 0.631579 0.087500
vt 0.626316 0.012500
vt 0.631579 0.012500
vt 0.589474 0.162500
vt 0.594737 0.162500
vt 0.626316 0.162500
vt 0.626316 0.087500
vt 0.589474 0.237500
vt 0.594737 0.237500
vt 0.631579 0.237500
vt 0.631579 0.162500
vt 0.589474 0.312500
vt 0.594737 0.312500
vt 0.631579 0.312500
vt 0.626316 0.237500
vt 0.594737 0.387500
vt 0.589474 0.387500
vt 0.626316 0.387500
vt 0.626316 0.312500
vt 0.594737 0.462500
vt 0.589474 0.462500
vt 0.631579 0.462500
vt 0.631579 0.387500
vt 0.594737 0.537500
vt 0.589474 0.537500
vt 0.626316 0.537500
vt 0.626316 0.462500
vt 0.594737 0.612500
vt 0.589474 0.612500
vt 0.631579 0.537500
vt 0.626316 0.612500
vt 0.594737 0.687500
vt 0.589474 0.687500
vt 0.631579 0.687500
vt 0.631579 0.612500
vt 0.589474 0.762500
vt 0.594737 0.762500
vt 0.626316 0.762500
vt 0.626316 0.687500
vt 0.589474 0.837500
vt 0.594737 0.837500
vt 0.631579 0.837500
vt 0.631579 0.762500
vt 0.594737 0.912500
vt 0.589474 0.912500
vt 0.626316 0.912500
vt 0.626316 0.837500
vt 0.594737 0.987500
vt 0.589474 0.987500
vt 0.631579 0.987500
vt 0.631579 0.912500
vt 0.478947 0.812500
vt 0.473684 0.800000
vt 0.478947 0.800000
vt 0.489474 0.812500
vt 0.484211 0.800000
vt 0.489474 0.800000
vt 0.484211 0.812500
vt 0.484211 0.787500
vt 0.478947 0.787500
vt 0.478947 0.825000
vt 0.484211 0.825000
vt 0.763158 0.387500
vt 0.778947 0.375000
vt 0.778947 0.387500
vt 0.784211 0.387500
vt 0.778947 0.412500
vt 0.778947 0.425000
vt 0.763158 0.412500
vt 0.757895 0.412500
vt 0.763158 0.325000
vt 0.778947 0.312500
vt 0.778947 0.325000
vt 0.784211 0.325000
vt 0.778947 0.350000
vt 0.778947 0.362500
vt 0.763158 0.350000
vt 0.757895 0.350000
vt 0.763158 0.262500
vt 0.778947 0.250000
vt 0.778947 0.262500
vt 0.784211 0.262500
vt 0.778947 0.287500
vt 0.778947 0.300000
vt 0.763158 0.287500
vt 0.757895 0.287500
vt 0.763158 0.200000
vt 0.778947 0.187500
vt 0.778947 0.200000
vt 0.784211 0.200000
vt 0.778947 0.225000
vt 0.778947 0.237500
vt 0.763158 0.225000
vt 0.757895 0.225000
vt 0.763158 0.137500
vt 0.778947 0.125000
vt 0.778947 0.137500
vt 0.784211 0.137500
vt 0.778947 0.162500
vt 0.778947 0.175000
vt 0.763158 0.162500
vt 0.757895 0.162500
vt 0.763158 0.450000
vt 0.778947 0.437500
vt 0.778947 0.450000
vt 0.784211 0.450000
vt 0.778947 0.475000
vt 0.778947 0.487500
vt 0.763158 0.475000
vt 0.757895 0.475000
vt 0.778947 0.575000
vt 0.773684 0.537500
vt 0.778947 0.537500
vt 0.778947 0.612500
vt 0.773684 0.575000
vt 0.773684 0.650000
vt 0.773684 0.612500
vt 0.778947 0.687500
vt 0.778947 0.650000
vt 0.773684 0.725000
vt 0.773684 0.687500
vt 0.778947 0.762500
vt 0.778947 0.725000
vt 0.773684 0.800000
vt 0.773684 0.762500
vt 0.778947 0.837500
vt 0.778947 0.800000
vt 0.778947 0.875000
vt 0.773684 0.837500
vt 0.778947 0.912500
vt 0.773684 0.875000
vt 0.778947 0.950000
vt 0.773684 0.912500
vt 0.778947 0.987500
vt 0.773684 0.950000
vt 0.757895 0.575000
vt 0.763158 0.537500
vt 0.763158 0.575000
vt 0.763158 0.612500
vt 0.757895 0.612500
vt 0.763158 0.650000
vt 0.757895 0.650000
vt 0.757895 0.687500
vt 0.763158 0.687500
vt 0.763158 0.725000
vt 0.757895 0.725000
vt 0.763158 0.762500
vt 0.757895 0.762500
vt 0.763158 0.800000
vt 0.757895 0.800000
vt 0.763158 0.837500
vt 0.757895 0.837500
vt 0.763158 0.875000
vt 0.757895 0.875000
vt 0.763158 0.912500
vt 0.757895 0.912500
vt 0.757895 0.950000
vt 0.763158 0.950000
vt 0.763158 0.987500
vt 0.757895 0.987500
vt 0.947368 0.975000
vt 0.952632 0.625000
vt 0.952632 0.975000
vt 0.905263 0.987500
vt 0.905263 0.975000
vt 0.947368 0.625000
vt 0.900000 0.975000
vt 0.905263 0.575000
vt 0.973684 0.575000
vt 0.994737 0.575000
vt 0.952632 0.550000
vt 0.905263 0.562500
vt 0.926316 0.575000
vt 0.847368 0.525000
vt 0.852632 0.175000
vt 0.852632 0.525000
vt 0.805263 0.537500
vt 0.805263 0.525000
vt 0.847368 0.175000
vt 0.800000 0.525000
vt 0.805263 0.125000
vt 0.873684 0.125000
vt 0.894737 0.125000
vt 0.852632 0.100000
vt 0.805263 0.112500
vt 0.826316 0.125000
vt 0.947368 0.525000
vt 0.952632 0.175000
vt 0.952632 0.525000
vt 0.905263 0.525000
vt 0.947368 0.537500
vt 0.905263 0.537500
vt 0.947368 0.175000
vt 0.900000 0.525000
vt 0.905263 0.125000
vt 0.973684 0.125000
vt 0.994737 0.125000
vt 0.952632 0.100000
vt 0.926316 0.112500
vt 0.905263 0.112500
vt 0.847368 0.975000
vt 0.852632 0.625000
vt 0.852632 0.975000
vt 0.805263 0.987500
vt 0.805263 0.975000
vt 0.847368 0.625000
vt 0.800000 0.975000
vt 0.805263 0.575000
vt 0.873684 0.575000
vt 0.894737 0.575000
vt 0.852632 0.550000
vt 0.826316 0.562500
vt 0.805263 0.562500
vt 0.584211 0.981250
vt 0.573684 0.912500
vt 0.584211 0.918750
vt 0.552632 0.918750
vt 0.563158 0.987500
vt 0.552632 0.981250
vt 0.584211 0.906250
vt 0.573684 0.837500
vt 0.584211 0.843750
vt 0.552632 0.906250
vt 0.563158 0.837500
vt 0.563158 0.912500
vt 0.584211 0.831250
vt 0.573684 0.762500
vt 0.584211 0.768750
vt 0.552632 0.768750
vt 0.552632 0.831250
vt 0.584211 0.756250
vt 0.573684 0.687500
vt 0.584211 0.693750
vt 0.552632 0.693750
vt 0.563158 0.762500
vt 0.552632 0.756250
vt 0.584211 0.681250
vt 0.573684 0.612500
vt 0.584211 0.618750
vt 0.552632 0.681250
vt 0.563158 0.612500
vt 0.563158 0.687500
vt 0.584211 0.543750
vt 0.573684 0.537500
vt 0.552632 0.543750
vt 0.552632 0.606250
vt 0.584211 0.531250
vt 0.573684 0.462500
vt 0.584211 0.468750
vt 0.552632 0.468750
vt 0.563158 0.537500
vt 0.552632 0.531250
vt 0.584211 0.456250
vt 0.573684 0.387500
vt 0.584211 0.393750
vt 0.552632 0.393750
vt 0.563158 0.462500
vt 0.552632 0.456250
vt 0.584211 0.381250
vt 0.573684 0.312500
vt 0.584211 0.318750
vt 0.552632 0.318750
vt 0.563158 0.387500
vt 0.552632 0.381250
vt 0.584211 0.306250
vt 0.573684 0.237500
vt 0.584211 0.243750
vt 0.552632 0.306250
vt 0.563158 0.237500
vt 0.563158 0.312500
vt 0.584211 0.231250
vt 0.573684 0.162500
vt 0.584211 0.168750
vt 0.552632 0.168750
vt 0.552632 0.231250
vt 0.584211 0.093750
vt 0.573684 0.087500
vt 0.552632 0.093750
vt 0.563158 0.162500
vt 0.552632 0.156250
vt 0.584211 0.018750
vt 0.573684 0.012500
vt 0.552632 0.018750
vt 0.563158 0.087500
vt 0.552632 0.081250
vt 0.547368 0.981250
vt 0.536842 0.912500
vt 0.547368 0.918750
vt 0.515789 0.918750
vt 0.526316 0.987500
vt 0.515789 0.981250
vt 0.547368 0.906250
vt 0.536842 0.837500
vt 0.547368 0.843750
vt 0.515789 0.906250
vt 0.526316 0.837500
vt 0.526316 0.912500
vt 0.547368 0.831250
vt 0.536842 0.762500
vt 0.547368 0.768750
vt 0.515789 0.768750
vt 0.515789 0.831250
vt 0.547368 0.756250
vt 0.536842 0.687500
vt 0.547368 0.693750
vt 0.515789 0.693750
vt 0.526316 0.762500
vt 0.515789 0.756250
vt 0.547368 0.681250
vt 0.536842 0.612500
vt 0.547368 0.618750
vt 0.515789 0.681250
vt 0.526316 0.612500
vt 0.526316 0.687500
vt 0.547368 0.543750
vt 0.536842 0.537500
vt 0.515789 0.543750
vt 0.515789 0.606250
vt 0.547368 0.531250
vt 0.536842 0.462500
vt 0.547368 0.468750
vt 0.515789 0.468750
vt 0.526316 0.537500
vt 0.515789 0.531250
vt 0.547368 0.456250
vt 0.536842 0.387500
vt 0.547368 0.393750
vt 0.515789 0.393750
vt 0.526316 0.462500
vt 0.515789 0.456250
vt 0.547368 0.381250
vt 0.536842 0.312500
vt 0.547368 0.318750
vt 0.515789 0.318750
vt 0.526316 0.387500
vt 0.515789 0.381250
vt 0.547368 0.306250
vt 0.536842 0.237500
vt 0.547368 0.243750
vt 0.515789 0.306250
vt 0.526316 0.237500
vt 0.526316 0.312500
vt 0.547368 0.231250
vt 0.536842 0.162500
vt 0.547368 0.168750
vt 0.515789 0.168750
vt 0.515789 0.231250
vt 0.547368 0.093750
vt 0.536842 0.087500
vt 0.515789 0.093750
vt 0.526316 0.162500
vt 0.515789 0.156250
vt 0.547368 0.018750
vt 0.536842 0.012500
vt 0.515789 0.018750
vt 0.526316 0.087500
vt 0.515789 0.081250
vt 0.457751 0.823904
vt 0.449054 0.811677
vt 0.449164 0.787676
vt 0.509386 0.912340
vt 0.463565 0.975124
vt 0.463582 0.849487
vt 0.673684 0.012500
vt 0.710526 0.987500
vt 0.589474 0.012500
vt 0.626316 0.987500
vt 0.473684 0.812500
vt 0.763158 0.375000
vt 0.784211 0.412500
vt 0.763158 0.425000
vt 0.757895 0.387500
vt 0.763158 0.312500
vt 0.784211 0.350000
vt 0.763158 0.362500
vt 0.757895 0.325000
vt 0.763158 0.250000
vt 0.784211 0.287500
vt 0.763158 0.300000
vt 0.757895 0.262500
vt 0.763158 0.187500
vt 0.784211 0.225000
vt 0.763158 0.237500
vt 0.757895 0.200000
vt 0.763158 0.125000
vt 0.784211 0.162500
vt 0.763158 0.175000
vt 0.757895 0.137500
vt 0.763158 0.437500
vt 0.784211 0.475000
vt 0.763158 0.487500
vt 0.757895 0.450000
vt 0.773684 0.987500
vt 0.757895 0.537500
vt 0.947368 0.987500
vt 0.900000 0.575000
vt 0.994737 0.975000
vt 0.947368 0.550000
vt 0.926316 0.562500
vt 0.847368 0.537500
vt 0.800000 0.125000
vt 0.894737 0.525000
vt 0.847368 0.100000
vt 0.826316 0.112500
vt 0.926316 0.125000
vt 0.900000 0.125000
vt 0.994737 0.525000
vt 0.947368 0.100000
vt 0.847368 0.987500
vt 0.826316 0.575000
vt 0.800000 0.575000
vt 0.894737 0.975000
vt 0.847368 0.550000
vt 0.573684 0.987500
vt 0.552632 0.843750
vt 0.552632 0.618750
vt 0.584211 0.606250
vt 0.552632 0.243750
vt 0.584211 0.156250
vt 0.584211 0.081250
vt 0.563158 0.012500
vt 0.536842 0.987500
vt 0.515789 0.843750
vt 0.515789 0.618750
vt 0.547368 0.606250
vt 0.515789 0.243750
vt 0.547368 0.156250
vt 0.547368 0.081250
vt 0.526316 0.012500
vt 0.452904 0.778987
vt 0.457971 0.775902
vt 0.463009 0.779249
vt 0.466668 0.788129
vt 0.467967 0.800165
vt 0.466558 0.812130
vt 0.462818 0.820819
vt 0.452713 0.820557
vt 0.447756 0.799641
vt 0.478854 0.839780
vt 0.494124 0.849510
vt 0.505299 0.876068
vt 0.505289 0.948605
vt 0.494107 0.975147
vt 0.478835 0.984854
vt 0.452389 0.948566
vt 0.448302 0.912294
vt 0.452399 0.876028
vt 0.752632 0.012500
vt 0.721053 0.087500
vt 0.721053 0.012500
vt 0.752632 0.162500
vt 0.752632 0.087500
vt 0.752632 0.237500
vt 0.721053 0.162500
vt 0.752632 0.312500
vt 0.721053 0.237500
vt 0.752632 0.387500
vt 0.721053 0.312500
vt 0.721053 0.462500
vt 0.721053 0.387500
vt 0.752632 0.537500
vt 0.752632 0.462500
vt 0.752632 0.612500
vt 0.721053 0.537500
vt 0.721053 0.687500
vt 0.721053 0.612500
vt 0.752632 0.762500
vt 0.752632 0.687500
vt 0.752632 0.837500
vt 0.721053 0.762500
vt 0.752632 0.912500
vt 0.721053 0.837500
vt 0.752632 0.987500
vt 0.721053 0.912500
vt 0.668421 0.012500
vt 0.636842 0.087500
vt 0.636842 0.012500
vt 0.668421 0.162500
vt 0.668421 0.087500
vt 0.636842 0.237500
vt 0.636842 0.162500
vt 0.668421 0.312500
vt 0.668421 0.237500
vt 0.668421 0.387500
vt 0.636842 0.312500
vt 0.636842 0.462500
vt 0.636842 0.387500
vt 0.668421 0.537500
vt 0.668421 0.462500
vt 0.668421 0.612500
vt 0.636842 0.537500
vt 0.636842 0.687500
vt 0.636842 0.612500
vt 0.668421 0.762500
vt 0.668421 0.687500
vt 0.668421 0.837500
vt 0.636842 0.762500
vt 0.668421 0.912500
vt 0.636842 0.837500
vt 0.668421 0.987500
vt 0.636842 0.912500
vt 0.794737 0.950000
vt 0.784211 0.912500
vt 0.794737 0.912500
vt 0.794737 0.987500
vt 0.784211 0.950000
vt 0.784211 0.875000
vt 0.794737 0.875000
vt 0.784211 0.837500
vt 0.794737 0.837500
vt 0.784211 0.800000
vt 0.794737 0.800000
vt 0.784211 0.762500
vt 0.794737 0.762500
vt 0.784211 0.725000
vt 0.794737 0.725000
vt 0.794737 0.687500
vt 0.784211 0.687500
vt 0.794737 0.650000
vt 0.784211 0.650000
vt 0.794737 0.612500
vt 0.784211 0.612500
vt 0.784211 0.575000
vt 0.794737 0.575000
vt 0.784211 0.537500
vt 0.794737 0.537500
vt 0.105263 0.987500
vt 0.273684 0.912500
vt 0.273684 0.987500
vt 0.105263 0.912500
vt 0.273684 0.837500
vt 0.105263 0.837500
vt 0.273684 0.762500
vt 0.105263 0.687500
vt 0.273684 0.687500
vt 0.273684 0.612500
vt 0.105263 0.612500
vt 0.273684 0.537500
vt 0.105263 0.462500
vt 0.273684 0.462500
vt 0.273684 0.387500
vt 0.105263 0.387500
vt 0.273684 0.312500
vt 0.105263 0.312500
vt 0.273684 0.237500
vt 0.105263 0.762500
vt 0.042105 0.700000
vt 0.105263 0.237500
vt 0.273684 0.162500
vt 0.105263 0.162500
vt 0.273684 0.087500
vt 0.442105 0.143750
vt 0.042105 0.600000
vt 0.015789 0.562500
vt 0.042105 0.550000
vt 0.105263 0.087500
vt 0.042105 0.150000
vt 0.042105 0.100000
vt 0.042105 0.925000
vt 0.042105 0.775000
vt 0.042105 0.175000
vt 0.042105 0.850000
vt 0.042105 0.250000
vt 0.042105 0.375000
vt 0.042105 0.325000
vt 0.042105 0.450000
vt 0.042105 0.400000
vt 0.042105 0.525000
vt 0.042105 0.475000
vt 0.105263 0.537500
vt 0.042105 0.625000
vt 0.015789 0.337500
vt 0.005263 0.356250
vt 0.005263 0.343750
vt 0.015789 0.812500
vt 0.015789 0.787500
vt 0.042105 0.300000
vt 0.015789 0.262500
vt 0.015789 0.487500
vt 0.042105 0.750000
vt 0.015789 0.712500
vt 0.042105 0.225000
vt 0.015789 0.187500
vt 0.042105 0.975000
vt 0.015789 0.937500
vt 0.015789 0.412500
vt 0.042105 0.675000
vt 0.015789 0.637500
vt 0.015789 0.112500
vt 0.015789 0.887500
vt 0.015789 0.862500
vt 0.015789 0.362500
vt 0.015789 0.587500
vt 0.005263 0.568750
vt 0.005263 0.806250
vt 0.005263 0.793750
vt 0.015789 0.287500
vt 0.005263 0.268750
vt 0.005263 0.506250
vt 0.005263 0.493750
vt 0.005263 0.731250
vt 0.005263 0.718750
vt 0.015789 0.212500
vt 0.005263 0.193750
vt 0.015789 0.962500
vt 0.005263 0.943750
vt 0.015789 0.437500
vt 0.005263 0.418750
vt 0.015789 0.662500
vt 0.005263 0.643750
vt 0.015789 0.137500
vt 0.005263 0.118750
vt 0.005263 0.881250
vt 0.005263 0.868750
vt 0.442105 0.968750
vt 0.442105 0.818750
vt 0.442105 0.218750
vt 0.442105 0.893750
vt 0.442105 0.293750
vt 0.442105 0.368750
vt 0.442105 0.443750
vt 0.442105 0.518750
vt 0.442105 0.593750
vt 0.442105 0.631250
vt 0.442105 0.668750
vt 0.442105 0.743750
vt 0.721053 0.987500
vt 0.636842 0.987500
vt 0.784211 0.987500
vt 0.442105 0.106250
vt 0.042105 0.825000
vt 0.042105 0.900000
vt 0.015789 0.512500
vt 0.015789 0.737500
vt 0.005263 0.581250
vt 0.005263 0.281250
vt 0.005263 0.206250
vt 0.005263 0.956250
vt 0.005263 0.431250
vt 0.005263 0.656250
vt 0.005263 0.131250
vt 0.442105 0.931250
vt 0.442105 0.781250
vt 0.442105 0.181250
vt 0.442105 0.856250
vt 0.442105 0.256250
vt 0.442105 0.331250
vt 0.442105 0.406250
vt 0.442105 0.481250
vt 0.442105 0.556250
vt 0.442105 0.706250
vn -1.000000 -0.000000 -0.000000
vn 1.000000 0.000000 0.000000
vn -0.000000 0.707100 0.707100
vn 0.000000 -0.707100 -0.707100
vn -0.000000 -0.707100 0.707100
vn 0.000000 0.707100 -0.707100
vn 0.000000 -0.000000 -1.000000
vn -0.986900 -0.161200 -0.000000
vn -0.000000 0.000000 1.000000
vn 0.986900 0.161200 0.000000
vn -0.161200 0.986900 -0.000000
vn 0.000000 0.866000 -0.500000
vn -0.986900 -0.080600 -0.139600
vn -0.000000 -0.866000 0.500000
vn 0.986900 0.080600 0.139600
vn -0.161200 0.493500 0.854700
vn -0.000000 0.866000 0.500000
vn -0.986900 0.080600 -0.139600
vn 0.000000 -0.866000 -0.500000
vn 0.986900 -0.080600 0.139600
vn -0.161200 -0.493500 0.854700
vn -0.986900 0.161200 -0.000000
vn 0.986900 -0.161200 0.000000
vn -0.161200 -0.986900 -0.000000
vn -0.986900 0.080600 0.139600
vn 0.986900 -0.080600 -0.139600
vn -0.161200 -0.493500 -0.854700
vn -0.986900 -0.080600 0.139600
vn 0.986900 0.080600 -0.139600
vn -0.161200 0.493500 -0.854700
vn 0.707100 -0.500000 -0.500000
vn 0.707100 0.500000 -0.500000
vn 0.707100 0.500000 0.500000
vn 0.707100 -0.500000 0.500000
vn 0.000000 -1.000000 0.000000
vn -0.000000 -0.885500 0.464700
vn -0.000000 -0.568100 0.823000
vn -0.000000 -0.120500 0.992700
vn -0.000000 0.354600 0.935000
vn -0.000000 0.748500 0.663100
vn -0.000000 0.970900 0.239300
vn 0.000000 0.970900 -0.239300
vn 0.000000 0.748500 -0.663100
vn 0.000000 0.354600 -0.935000
vn 0.000000 -0.120500 -0.992700
vn 0.000000 -0.568100 -0.823000
vn 0.000000 -0.885500 -0.464700
vn 0.000000 1.000000 0.000000
vn 0.000000 0.885500 -0.464700
vn 0.000000 0.568100 -0.823000
vn 0.000000 0.120500 -0.992700
vn 0.000000 -0.354600 -0.935000
vn 0.000000 -0.748500 -0.663100
vn 0.000000 -0.970900 -0.239300
vn -0.000000 -0.970900 0.239300
vn -0.000000 -0.748500 0.663100
vn -0.000000 -0.354600 0.935000
vn -0.000000 0.120500 0.992700
vn -0.000000 0.568100 0.823000
vn -0.000000 0.885500 0.464700
vn 0.000000 0.500000 -0.866000
vn -0.000000 -0.500000 0.866000
vn 0.000000 -0.500000 -0.866000
vn -0.000000 0.500000 0.866000
vn 0.163700 -0.986500 0.000000
vn -0.088200 -0.862700 0.498100
vn -0.088200 -0.996100 -0.000000
vn 0.163700 -0.854300 0.493300
vn -0.088200 -0.498100 0.862700
vn 0.163700 -0.493300 0.854300
vn -0.088200 0.000000 0.996100
vn 0.163700 0.493300 0.854300
vn -0.088200 0.498100 0.862700
vn -0.088200 0.862700 0.498100
vn 0.163700 0.854300 0.493300
vn -0.088200 0.996100 -0.000000
vn 0.163700 0.854300 -0.493300
vn -0.088200 0.862700 -0.498100
vn -0.088200 0.498100 -0.862700
vn 0.163700 0.493300 -0.854300
vn -0.088200 0.000000 -0.996100
vn 0.163700 0.000000 -0.986500
vn -0.088200 -0.498100 -0.862700
vn 0.163700 0.000000 0.986500
vn 0.563300 0.413100 0.715600
vn 0.163700 -0.493300 -0.854300
vn -0.088200 -0.862700 -0.498100
vn 0.163700 -0.854300 -0.493300
vn -0.178200 -0.852200 -0.492000
vn 0.563300 0.715600 0.413100
vn 0.835600 0.549300 0.000000
vn 0.563300 0.826300 0.000000
vn 0.563300 -0.715600 -0.413100
vn 0.563300 -0.826300 0.000000
vn 0.563300 -0.715600 0.413100
vn 0.563300 0.000000 0.826300
vn 0.563300 -0.413100 0.715600
vn 0.563300 -0.413100 -0.715600
vn 0.563300 0.413100 -0.715600
vn 0.563300 0.000000 -0.826300
vn 0.563300 0.715600 -0.413100
vn 0.163700 0.986500 0.000000
vn 0.835600 0.000000 -0.549300
vn 0.888100 0.229900 -0.398100
vn 0.888100 0.000000 -0.459700
vn 0.835600 -0.274700 0.475700
vn 0.835600 0.000000 0.549300
vn 0.835600 -0.274700 -0.475700
vn 0.835600 0.475700 -0.274700
vn 0.835600 0.274700 0.475700
vn 0.835600 -0.475700 -0.274700
vn 0.835600 -0.475700 0.274700
vn 0.835600 0.274700 -0.475700
vn 0.835600 0.475700 0.274700
vn 0.835600 -0.549300 0.000000
vn 0.888100 0.459700 0.000000
vn 0.888100 -0.229900 0.398100
vn 0.888100 0.000000 0.459700
vn 0.888100 -0.229900 -0.398100
vn 0.888100 0.398100 -0.229900
vn 0.888100 0.229900 0.398100
vn 0.888100 -0.398100 -0.229900
vn 0.888100 -0.398100 0.229800
vn 0.888100 0.398100 0.229900
vn 0.888100 -0.459700 0.000000
vn -0.178200 -0.984000 -0.000000
vn -0.178200 -0.492000 0.852200
vn -0.178200 -0.492000 -0.852200
vn -0.178200 -0.852200 0.492000
vn -0.178200 0.000000 -0.984000
vn -0.178200 0.492000 -0.852200
vn -0.178200 0.852200 -0.492000
vn -0.178200 0.984000 -0.000000
vn -0.178200 0.852200 0.492000
vn -0.178200 0.492000 0.852200
vn -0.178200 0.000000 0.984000
o Cylinder.002_Cylinder.003
usemtl texture
s off
f 1/1/1 2/2/1 3/3/1
f 4/4/2 5/5/2 6/6/2
f 1/1/1 7/7/1 8/8/1
f 9/9/2 10/10/2 4/4/2
f 8/8/1 11/11/1 12/12/1
f 13/13/2 14/14/2 9/9/2
f 15/15/1 11/11/1 16/16/1
f 17/17/2 18/18/2 13/13/2
f 15/15/1 19/19/1 20/20/1
f 17/17/2 21/21/2 22/22/2
f 20/20/1 23/23/1 24/24/1
f 25/25/2 21/21/2 26/26/2
f 24/24/1 27/27/1 28/28/1
f 25/25/2 29/29/2 30/30/2
f 28/28/1 31/31/1 32/32/1
f 33/33/2 34/34/2 29/29/2
f 32/32/1 35/35/1 36/36/1
f 37/37/2 34/34/2 38/38/2
f 39/39/1 35/35/1 40/40/1
f 41/41/2 42/42/2 37/37/2
f 43/43/1 40/40/1 44/44/1
f 45/45/2 46/46/2 41/41/2
f 43/43/1 47/47/1 48/48/1
f 45/45/2 49/49/2 50/50/2
f 48/48/1 2/51/1 51/52/1
f 6/53/2 49/49/2 52/54/2
f 53/55/1 54/56/1 55/57/1
f 56/58/2 57/59/2 58/60/2
f 59/61/1 55/57/1 60/62/1
f 56/58/2 61/63/2 62/64/2
f 63/65/1 60/62/1 64/66/1
f 65/67/2 61/63/2 66/68/2
f 67/69/1 64/66/1 68/70/1
f 69/71/2 70/72/2 65/67/2
f 67/69/1 71/73/1 72/74/1
f 69/71/2 73/75/2 74/76/2
f 72/74/1 75/77/1 76/78/1
f 77/79/2 73/75/2 78/80/2
f 76/78/1 79/81/1 80/82/1
f 77/79/2 81/83/2 82/84/2
f 80/82/1 83/85/1 84/86/1
f 85/87/2 86/88/2 81/83/2
f 84/86/1 87/89/1 88/90/1
f 89/91/2 86/88/2 90/92/2
f 91/93/1 87/89/1 92/94/1
f 89/91/2 93/95/2 94/96/2
f 95/97/1 92/94/1 96/98/1
f 97/99/2 93/95/2 98/100/2
f 95/97/1 99/101/1 100/102/1
f 97/99/2 101/103/2 102/104/2
f 100/102/1 54/105/1 103/106/1
f 58/107/2 101/103/2 104/108/2
f 105/109/3 106/110/3 107/111/3
f 108/112/4 109/113/4 110/114/4
f 111/115/2 107/111/2 109/113/2
f 110/116/5 107/111/5 106/117/5
f 112/118/6 111/115/6 108/119/6
f 113/120/7 114/121/7 115/122/7
f 114/123/8 116/124/8 115/122/8
f 117/125/9 118/126/9 116/124/9
f 119/127/10 113/120/10 118/126/10
f 115/122/11 118/126/11 113/120/11
f 120/128/12 121/129/12 122/130/12
f 121/131/13 123/132/13 122/130/13
f 124/133/14 125/134/14 123/132/14
f 126/135/15 120/128/15 125/134/15
f 123/132/16 120/128/16 122/130/16
f 127/136/17 128/137/17 129/138/17
f 128/139/18 130/140/18 129/138/18
f 131/141/19 132/142/19 130/140/19
f 133/143/20 127/136/20 132/142/20
f 129/138/21 132/142/21 127/136/21
f 134/144/9 135/145/9 136/146/9
f 135/147/22 137/148/22 136/146/22
f 138/149/7 139/150/7 137/148/7
f 140/151/23 134/144/23 139/150/23
f 136/146/24 139/150/24 134/144/24
f 141/152/14 142/153/14 143/154/14
f 142/155/25 144/156/25 143/154/25
f 145/157/12 146/158/12 144/156/12
f 147/159/26 141/152/26 146/158/26
f 143/154/27 146/158/27 141/152/27
f 148/160/19 149/161/19 150/162/19
f 149/163/28 151/164/28 150/162/28
f 152/165/17 153/166/17 151/164/17
f 154/167/29 148/160/29 153/166/29
f 151/164/30 148/160/30 150/162/30
f 155/168/2 156/169/2 157/170/2
f 158/171/2 159/172/2 155/168/2
f 158/171/2 160/173/2 161/174/2
f 162/175/2 160/173/2 163/176/2
f 162/175/2 164/177/2 165/178/2
f 166/179/2 164/177/2 167/180/2
f 166/179/2 168/181/2 169/182/2
f 170/183/2 168/181/2 171/184/2
f 172/185/2 173/186/2 170/183/2
f 174/187/2 175/188/2 172/185/2
f 176/189/2 177/190/2 174/187/2
f 157/191/2 178/192/2 176/189/2
f 179/193/1 180/194/1 181/195/1
f 179/193/1 182/196/1 183/197/1
f 183/197/1 184/198/1 185/199/1
f 186/200/1 184/198/1 187/201/1
f 186/200/1 188/202/1 189/203/1
f 189/203/1 190/204/1 191/205/1
f 191/205/1 192/206/1 193/207/1
f 193/207/1 194/208/1 195/209/1
f 195/209/1 196/210/1 197/211/1
f 197/211/1 198/212/1 199/213/1
f 200/214/1 198/212/1 201/215/1
f 200/214/1 180/216/1 202/217/1
f 203/218/4 204/219/4 205/220/4
f 203/218/1 206/221/1 207/222/1
f 208/223/6 203/218/6 207/222/6
f 206/224/3 209/225/3 207/222/3
f 204/219/5 210/226/5 211/227/5
f 208/223/31 210/228/31 204/219/31
f 211/229/2 212/230/2 209/225/2
f 213/231/6 214/232/6 215/233/6
f 213/231/1 216/234/1 217/235/1
f 218/236/3 213/231/3 217/235/3
f 216/237/5 219/238/5 217/235/5
f 214/232/4 220/239/4 221/240/4
f 218/236/32 220/241/32 214/232/32
f 221/242/2 222/243/2 219/238/2
f 223/244/3 224/245/3 225/246/3
f 226/247/1 225/248/1 227/249/1
f 228/250/5 223/244/5 226/247/5
f 227/251/4 229/252/4 226/247/4
f 224/245/6 230/253/6 231/254/6
f 228/250/33 230/255/33 224/245/33
f 230/256/2 229/252/2 231/257/2
f 232/258/5 233/259/5 234/260/5
f 232/258/1 235/261/1 236/262/1
f 237/263/4 232/258/4 236/262/4
f 235/264/6 238/265/6 236/262/6
f 233/259/3 239/266/3 240/267/3
f 237/263/34 239/268/34 233/259/34
f 239/269/2 238/265/2 240/270/2
f 241/271/1 242/272/1 243/273/1
f 244/274/2 245/275/2 246/276/2
f 243/277/1 247/278/1 248/279/1
f 244/280/2 249/281/2 250/282/2
f 248/283/1 251/284/1 252/285/1
f 253/286/2 249/281/2 254/287/2
f 252/288/1 255/289/1 256/290/1
f 257/291/2 258/292/2 253/293/2
f 256/294/1 259/295/1 260/296/1
f 257/297/2 261/298/2 262/299/2
f 263/300/1 259/295/1 264/301/1
f 265/302/2 261/298/2 266/303/2
f 263/304/1 267/305/1 268/306/1
f 269/307/2 270/308/2 265/309/2
f 268/310/1 271/311/1 272/312/1
f 273/313/2 274/314/2 269/315/2
f 272/316/1 275/317/1 276/318/1
f 277/319/2 278/320/2 273/321/2
f 276/322/1 279/323/1 280/324/1
f 277/325/2 281/326/2 282/327/2
f 280/328/1 283/329/1 284/330/1
f 285/331/2 281/326/2 286/332/2
f 287/333/1 283/329/1 288/334/1
f 289/335/2 290/336/2 285/337/2
f 241/338/1 288/334/1 291/339/1
f 292/340/2 293/341/2 294/342/2
f 295/343/1 296/344/1 297/345/1
f 298/346/2 299/347/2 300/348/2
f 297/349/1 301/350/1 302/351/1
f 298/352/2 303/353/2 304/354/2
f 302/355/1 305/356/1 306/357/1
f 307/358/2 303/353/2 308/359/2
f 306/360/1 309/361/1 310/362/1
f 311/363/2 312/364/2 307/365/2
f 310/366/1 313/367/1 314/368/1
f 311/369/2 315/370/2 316/371/2
f 317/372/1 313/367/1 318/373/1
f 319/374/2 315/370/2 320/375/2
f 317/376/1 321/377/1 322/378/1
f 323/379/2 324/380/2 319/381/2
f 322/382/1 325/383/1 326/384/1
f 327/385/2 328/386/2 323/387/2
f 326/388/1 329/389/1 330/390/1
f 331/391/2 332/392/2 327/393/2
f 330/394/1 333/395/1 334/396/1
f 331/397/2 335/398/2 336/399/2
f 334/400/1 337/401/1 338/402/1
f 339/403/2 335/398/2 340/404/2
f 341/405/1 337/401/1 342/406/1
f 343/407/2 344/408/2 339/409/2
f 295/410/1 342/406/1 345/411/1
f 300/412/2 346/413/2 343/414/2
f 347/415/2 348/416/2 349/417/2
f 350/418/1 351/419/1 352/420/1
f 1/1/1 51/421/1 2/2/1
f 4/4/2 10/10/2 5/5/2
f 1/1/1 3/3/1 7/7/1
f 9/9/2 14/14/2 10/10/2
f 8/8/1 7/7/1 11/11/1
f 13/13/2 18/18/2 14/14/2
f 15/15/1 12/12/1 11/11/1
f 17/17/2 22/22/2 18/18/2
f 15/15/1 16/16/1 19/19/1
f 17/17/2 26/26/2 21/21/2
f 20/20/1 19/19/1 23/23/1
f 25/25/2 30/30/2 21/21/2
f 24/24/1 23/23/1 27/27/1
f 25/25/2 33/33/2 29/29/2
f 28/28/1 27/27/1 31/31/1
f 33/33/2 38/38/2 34/34/2
f 32/32/1 31/31/1 35/35/1
f 37/37/2 42/42/2 34/34/2
f 39/39/1 36/36/1 35/35/1
f 41/41/2 46/46/2 42/42/2
f 43/43/1 39/39/1 40/40/1
f 45/45/2 50/50/2 46/46/2
f 43/43/1 44/44/1 47/47/1
f 45/45/2 52/54/2 49/49/2
f 48/48/1 47/47/1 2/51/1
f 6/53/2 5/422/2 49/49/2
f 53/55/1 103/423/1 54/56/1
f 56/58/2 62/64/2 57/59/2
f 59/61/1 53/55/1 55/57/1
f 56/58/2 66/68/2 61/63/2
f 63/65/1 59/61/1 60/62/1
f 65/67/2 70/72/2 61/63/2
f 67/69/1 63/65/1 64/66/1
f 69/71/2 74/76/2 70/72/2
f 67/69/1 68/70/1 71/73/1
f 69/71/2 78/80/2 73/75/2
f 72/74/1 71/73/1 75/77/1
f 77/79/2 82/84/2 73/75/2
f 76/78/1 75/77/1 79/81/1
f 77/79/2 85/87/2 81/83/2
f 80/82/1 79/81/1 83/85/1
f 85/87/2 90/92/2 86/88/2
f 84/86/1 83/85/1 87/89/1
f 89/91/2 94/96/2 86/88/2
f 91/93/1 88/90/1 87/89/1
f 89/91/2 98/100/2 93/95/2
f 95/97/1 91/93/1 92/94/1
f 97/99/2 102/104/2 93/95/2
f 95/97/1 96/98/1 99/101/1
f 97/99/2 104/108/2 101/103/2
f 100/102/1 99/101/1 54/105/1
f 58/107/2 57/424/2 101/103/2
f 105/109/3 112/425/3 106/110/3
f 108/112/4 111/115/4 109/113/4
f 111/115/2 105/109/2 107/111/2
f 110/116/5 109/113/5 107/111/5
f 112/118/6 105/109/6 111/115/6
f 113/120/7 353/426/7 114/121/7
f 114/123/8 117/427/8 116/124/8
f 117/125/9 119/428/9 118/126/9
f 119/127/10 353/429/10 113/120/10
f 115/122/11 116/124/11 118/126/11
f 120/128/12 354/430/12 121/129/12
f 121/131/13 124/431/13 123/132/13
f 124/133/14 126/432/14 125/134/14
f 126/135/15 354/433/15 120/128/15
f 123/132/16 125/134/16 120/128/16
f 127/136/17 355/434/17 128/137/17
f 128/139/18 131/435/18 130/140/18
f 131/141/19 133/436/19 132/142/19
f 133/143/20 355/437/20 127/136/20
f 129/138/21 130/140/21 132/142/21
f 134/144/9 356/438/9 135/145/9
f 135/147/22 138/439/22 137/148/22
f 138/149/7 140/440/7 139/150/7
f 140/151/23 356/441/23 134/144/23
f 136/146/24 137/148/24 139/150/24
f 141/152/14 357/442/14 142/153/14
f 142/155/25 145/443/25 144/156/25
f 145/157/12 147/444/12 146/158/12
f 147/159/26 357/445/26 141/152/26
f 143/154/27 144/156/27 146/158/27
f 148/160/19 358/446/19 149/161/19
f 149/163/28 152/447/28 151/164/28
f 152/165/17 154/448/17 153/166/17
f 154/167/29 358/449/29 148/160/29
f 151/164/30 153/166/30 148/160/30
f 155/168/2 159/172/2 156/169/2
f 158/171/2 161/174/2 159/172/2
f 158/171/2 163/176/2 160/173/2
f 162/175/2 165/178/2 160/173/2
f 162/175/2 167/180/2 164/177/2
f 166/179/2 169/182/2 164/177/2
f 166/179/2 171/184/2 168/181/2
f 170/183/2 173/186/2 168/181/2
f 172/185/2 175/188/2 173/186/2
f 174/187/2 177/190/2 175/188/2
f 176/189/2 178/192/2 177/190/2
f 157/191/2 156/450/2 178/192/2
f 179/193/1 202/451/1 180/194/1
f 179/193/1 181/195/1 182/196/1
f 183/197/1 182/196/1 184/198/1
f 186/200/1 185/199/1 184/198/1
f 186/200/1 187/201/1 188/202/1
f 189/203/1 188/202/1 190/204/1
f 191/205/1 190/204/1 192/206/1
f 193/207/1 192/206/1 194/208/1
f 195/209/1 194/208/1 196/210/1
f 197/211/1 196/210/1 198/212/1
f 200/214/1 199/213/1 198/212/1
f 200/214/1 201/215/1 180/216/1
f 203/218/4 208/223/4 204/219/4
f 203/218/1 205/452/1 206/221/1
f 207/222/6 209/225/6 208/223/6
f 209/225/6 212/230/6 208/223/6
f 206/224/3 211/453/3 209/225/3
f 211/227/5 206/454/5 204/219/5
f 206/454/5 205/220/5 204/219/5
f 208/223/31 212/455/31 210/228/31
f 211/229/2 210/456/2 212/230/2
f 213/231/6 218/236/6 214/232/6
f 213/231/1 215/457/1 216/234/1
f 217/235/3 219/238/3 218/236/3
f 219/238/3 222/243/3 218/236/3
f 216/237/5 221/458/5 219/238/5
f 221/240/4 216/459/4 214/232/4
f 216/459/4 215/233/4 214/232/4
f 218/236/32 222/460/32 220/241/32
f 221/242/2 220/461/2 222/243/2
f 223/244/3 228/250/3 224/245/3
f 226/247/1 223/244/1 225/248/1
f 226/247/5 229/252/5 228/250/5
f 229/252/5 359/462/5 228/250/5
f 227/251/4 231/463/4 229/252/4
f 231/254/6 227/464/6 224/245/6
f 227/464/6 225/246/6 224/245/6
f 228/250/33 359/465/33 230/255/33
f 230/256/2 359/462/2 229/252/2
f 232/258/5 237/263/5 233/259/5
f 232/258/1 234/466/1 235/261/1
f 236/262/4 238/265/4 237/263/4
f 238/265/4 360/467/4 237/263/4
f 235/264/6 240/468/6 238/265/6
f 240/267/3 235/469/3 233/259/3
f 235/469/3 234/260/3 233/259/3
f 237/263/34 360/470/34 239/268/34
f 239/269/2 360/467/2 238/265/2
f 241/271/1 291/471/1 242/272/1
f 244/274/2 250/282/2 245/275/2
f 243/277/1 242/272/1 247/278/1
f 244/280/2 254/472/2 249/281/2
f 248/283/1 247/278/1 251/284/1
f 253/286/2 258/292/2 249/281/2
f 252/288/1 251/284/1 255/289/1
f 257/291/2 262/299/2 258/292/2
f 256/294/1 255/289/1 259/295/1
f 257/297/2 266/473/2 261/298/2
f 263/300/1 260/474/1 259/295/1
f 265/302/2 270/308/2 261/298/2
f 263/304/1 264/301/1 267/305/1
f 269/307/2 274/314/2 270/308/2
f 268/310/1 267/305/1 271/311/1
f 273/313/2 278/320/2 274/314/2
f 272/316/1 271/311/1 275/317/1
f 277/319/2 282/327/2 278/320/2
f 276/322/1 275/317/1 279/323/1
f 277/325/2 286/475/2 281/326/2
f 280/328/1 279/323/1 283/329/1
f 285/331/2 290/336/2 281/326/2
f 287/333/1 284/476/1 283/329/1
f 289/335/2 293/341/2 290/336/2
f 241/338/1 287/477/1 288/334/1
f 292/340/2 245/478/2 293/341/2
f 295/343/1 345/479/1 296/344/1
f 298/346/2 304/354/2 299/347/2
f 297/349/1 296/344/1 301/350/1
f 298/352/2 308/480/2 303/353/2
f 302/355/1 301/350/1 305/356/1
f 307/358/2 312/364/2 303/353/2
f 306/360/1 305/356/1 309/361/1
f 311/363/2 316/371/2 312/364/2
f 310/366/1 309/361/1 313/367/1
f 311/369/2 320/481/2 315/370/2
f 317/372/1 314/482/1 313/367/1
f 319/374/2 324/380/2 315/370/2
f 317/376/1 318/373/1 321/377/1
f 323/379/2 328/386/2 324/380/2
f 322/382/1 321/377/1 325/383/1
f 327/385/2 332/392/2 328/386/2
f 326/388/1 325/383/1 329/389/1
f 331/391/2 336/399/2 332/392/2
f 330/394/1 329/389/1 333/395/1
f 331/397/2 340/483/2 335/398/2
f 334/400/1 333/395/1 337/401/1
f 339/403/2 344/408/2 335/398/2
f 341/405/1 338/484/1 337/401/1
f 343/407/2 346/413/2 344/408/2
f 295/410/1 341/485/1 342/406/1
f 300/412/2 299/486/2 346/413/2
f 349/417/2 361/487/2 362/488/2
f 362/488/2 363/489/2 349/417/2
f 363/489/2 364/490/2 349/417/2
f 364/490/2 365/491/2 366/492/2
f 366/492/2 367/493/2 347/415/2
f 347/415/2 368/494/2 348/416/2
f 348/416/2 369/495/2 349/417/2
f 364/490/2 366/492/2 349/417/2
f 366/492/2 347/415/2 349/417/2
f 352/420/1 370/496/1 350/418/1
f 370/496/1 371/497/1 350/418/1
f 371/497/1 372/498/1 350/418/1
f 350/418/1 373/499/1 374/500/1
f 374/500/1 375/501/1 351/419/1
f 351/419/1 376/502/1 352/420/1
f 376/502/1 377/503/1 352/420/1
f 377/503/1 378/504/1 352/420/1
f 350/418/1 374/500/1 351/419/1
f 2/2/35 10/10/36 3/3/36
f 10/10/36 7/7/37 3/3/36
f 7/7/37 18/18/38 11/11/38
f 11/11/38 22/22/39 16/16/39
f 22/22/39 19/19/40 16/16/39
f 19/19/40 30/30/41 23/23/41
f 30/30/41 27/27/42 23/23/41
f 29/29/42 31/31/43 27/27/42
f 34/34/43 35/35/44 31/31/43
f 42/42/44 40/40/45 35/35/44
f 46/46/45 44/44/46 40/40/45
f 50/50/46 47/47/47 44/44/46
f 49/49/47 2/51/35 47/47/47
f 51/505/48 4/506/49 6/507/48
f 8/508/50 4/506/49 1/509/49
f 12/510/51 9/511/50 8/508/50
f 15/512/52 13/513/51 12/510/51
f 20/514/53 17/515/52 15/512/52
f 20/514/53 25/516/54 26/517/53
f 28/518/55 25/516/54 24/519/54
f 32/520/56 33/521/55 28/518/55
f 32/520/56 37/522/57 38/523/56
f 39/524/58 37/522/57 36/525/57
f 43/526/59 41/527/58 39/524/58
f 48/528/60 45/529/59 43/526/59
f 51/530/48 52/531/60 48/528/60
f 54/56/35 62/64/36 55/57/36
f 62/64/36 60/62/37 55/57/36
f 60/62/37 70/72/38 64/66/38
f 64/66/38 74/76/39 68/70/39
f 74/76/39 71/73/40 68/70/39
f 71/73/40 82/84/41 75/77/41
f 82/84/41 79/81/42 75/77/41
f 81/83/42 83/85/43 79/81/42
f 86/88/43 87/89/44 83/85/43
f 94/96/44 92/94/45 87/89/44
f 93/95/45 96/98/46 92/94/45
f 102/104/46 99/101/47 96/98/46
f 101/103/47 54/105/35 99/101/47
f 103/532/48 56/533/49 58/534/48
f 59/535/50 56/533/49 53/536/49
f 59/535/50 65/537/51 66/538/50
f 67/539/52 65/537/51 63/540/51
f 72/541/53 69/542/52 67/539/52
f 72/541/53 77/543/54 78/544/53
f 80/545/55 77/543/54 76/546/54
f 84/547/56 85/548/55 80/545/55
f 84/547/56 89/549/57 90/550/56
f 91/551/58 89/549/57 88/552/57
f 95/553/59 98/554/58 91/551/58
f 100/555/60 97/556/59 95/553/59
f 103/557/48 104/558/60 100/555/60
f 155/559/12 183/560/61 158/561/61
f 157/562/48 179/563/12 155/559/12
f 160/173/9 182/196/62 161/174/62
f 177/190/63 196/210/7 175/188/7
f 168/181/12 190/204/48 169/182/48
f 160/173/9 187/201/64 184/198/9
f 178/192/19 198/212/63 177/190/63
f 159/172/14 180/194/35 156/169/35
f 173/186/61 192/206/12 168/181/12
f 164/177/17 187/201/64 165/178/64
f 156/450/35 201/215/19 178/192/19
f 159/172/14 182/196/62 181/195/14
f 175/188/7 194/208/61 173/186/61
f 169/182/48 188/202/17 164/177/17
f 158/561/61 185/564/7 163/565/7
f 163/565/7 186/566/63 162/567/63
f 162/567/63 189/568/19 167/569/19
f 167/569/19 191/570/35 166/571/35
f 166/571/35 193/572/14 171/573/14
f 170/574/62 193/572/14 195/575/62
f 172/576/9 195/575/62 197/577/9
f 174/578/64 197/577/9 199/579/64
f 174/578/64 200/580/17 176/581/17
f 176/581/17 202/582/48 157/583/48
f 245/275/35 242/272/36 291/471/35
f 250/282/36 247/278/37 242/272/36
f 249/281/37 251/284/38 247/278/37
f 258/292/38 255/289/39 251/284/38
f 262/299/39 259/295/40 255/289/39
f 261/298/40 264/301/41 259/295/40
f 270/308/41 267/305/42 264/301/41
f 274/314/42 271/311/43 267/305/42
f 278/320/43 275/317/44 271/311/43
f 282/327/44 279/323/45 275/317/44
f 281/326/45 283/329/46 279/323/45
f 290/336/46 288/334/47 283/329/46
f 293/341/47 291/339/35 288/334/47
f 299/347/35 296/344/36 345/479/35
f 304/354/36 301/350/37 296/344/36
f 303/353/37 305/356/38 301/350/37
f 312/364/38 309/361/39 305/356/38
f 316/371/39 313/367/40 309/361/39
f 315/370/40 318/373/41 313/367/40
f 324/380/41 321/377/42 318/373/41
f 328/386/42 325/383/43 321/377/42
f 332/392/43 329/389/44 325/383/43
f 336/399/44 333/395/45 329/389/44
f 335/398/45 337/401/46 333/395/45
f 344/408/46 342/406/47 337/401/46
f 346/413/47 345/411/35 342/406/47
f 379/584/65 380/585/66 381/586/67
f 382/587/68 383/588/69 380/585/66
f 384/589/70 385/590/71 383/588/69
f 385/590/71 386/591/72 387/592/73
f 386/591/72 388/593/74 387/592/73
f 389/594/75 390/595/76 388/593/74
f 390/595/76 391/596/77 392/597/78
f 391/596/77 393/598/79 392/597/78
f 394/599/80 395/600/81 393/598/79
f 396/601/82 397/602/83 395/600/81
f 398/603/84 399/604/85 386/591/72
f 400/605/86 401/606/87 397/602/83
f 402/607/88 381/608/67 401/606/87
f 381/608/67 352/609/89 401/606/87
f 403/610/90 404/611/91 405/612/92
f 379/613/65 406/614/93 407/615/94
f 379/584/65 408/616/95 382/587/68
f 384/589/70 409/617/96 398/603/84
f 400/605/86 406/618/93 402/607/88
f 382/587/68 410/619/97 384/589/70
f 396/601/82 411/620/98 400/605/86
f 396/601/82 412/621/99 413/622/100
f 394/599/80 414/623/101 412/624/99
f 391/596/77 405/625/92 414/626/101
f 415/627/102 403/610/90 405/612/92
f 386/591/72 403/628/90 389/594/75
f 416/629/103 366/630/104 365/631/105
f 409/617/96 417/632/106 418/633/107
f 413/634/100 419/635/108 411/620/98
f 405/625/92 420/636/109 414/626/101
f 409/637/96 421/638/110 399/604/85
f 411/639/98 422/640/111 406/618/93
f 407/641/94 423/642/112 408/616/95
f 414/623/101 424/643/113 412/624/99
f 399/644/85 425/645/114 403/628/90
f 406/614/93 426/646/115 407/615/94
f 410/619/97 423/647/112 417/648/106
f 413/622/100 424/649/113 416/629/103
f 425/650/114 347/651/116 404/611/91
f 418/633/107 349/652/117 369/653/118
f 416/654/103 364/655/119 419/635/108
f 420/636/109 347/656/116 367/657/120
f 421/638/110 369/658/118 348/659/121
f 419/660/108 363/661/122 422/640/111
f 426/662/115 361/663/123 423/642/112
f 420/664/109 366/665/104 424/643/113
f 421/666/110 368/667/124 425/645/114
f 422/668/111 362/669/125 426/646/115
f 417/648/106 361/670/123 349/671/117
f 380/585/66 370/672/126 381/586/67
f 385/590/71 372/673/127 383/588/69
f 401/606/87 378/674/128 397/602/83
f 383/588/69 371/675/129 380/585/66
f 397/602/83 377/676/130 395/600/81
f 395/600/81 376/677/131 393/598/79
f 393/598/79 351/678/132 392/597/78
f 392/597/78 375/679/133 390/595/76
f 390/595/76 374/680/134 388/593/74
f 387/592/73 374/681/134 373/682/135
f 387/592/73 350/683/136 385/590/71
f 2/2/35 5/5/35 10/10/36
f 10/10/36 14/14/37 7/7/37
f 7/7/37 14/14/37 18/18/38
f 11/11/38 18/18/38 22/22/39
f 22/22/39 21/21/40 19/19/40
f 19/19/40 21/21/40 30/30/41
f 30/30/41 29/29/42 27/27/42
f 29/29/42 34/34/43 31/31/43
f 34/34/43 42/42/44 35/35/44
f 42/42/44 46/46/45 40/40/45
f 46/46/45 50/50/46 44/44/46
f 50/50/46 49/49/47 47/47/47
f 49/49/47 5/422/35 2/51/35
f 51/505/48 1/509/49 4/506/49
f 8/508/50 9/511/50 4/506/49
f 12/510/51 13/513/51 9/511/50
f 15/512/52 17/515/52 13/513/51
f 20/514/53 26/517/53 17/515/52
f 20/514/53 24/519/54 25/516/54
f 28/518/55 33/521/55 25/516/54
f 32/520/56 38/523/56 33/521/55
f 32/520/56 36/525/57 37/522/57
f 39/524/58 41/527/58 37/522/57
f 43/526/59 45/529/59 41/527/58
f 48/528/60 52/531/60 45/529/59
f 51/530/48 6/684/48 52/531/60
f 54/56/35 57/59/35 62/64/36
f 62/64/36 61/63/37 60/62/37
f 60/62/37 61/63/37 70/72/38
f 64/66/38 70/72/38 74/76/39
f 74/76/39 73/75/40 71/73/40
f 71/73/40 73/75/40 82/84/41
f 82/84/41 81/83/42 79/81/42
f 81/83/42 86/88/43 83/85/43
f 86/88/43 94/96/44 87/89/44
f 94/96/44 93/95/45 92/94/45
f 93/95/45 102/104/46 96/98/46
f 102/104/46 101/103/47 99/101/47
f 101/103/47 57/424/35 54/105/35
f 103/532/48 53/536/49 56/533/49
f 59/535/50 66/538/50 56/533/49
f 59/535/50 63/540/51 65/537/51
f 67/539/52 69/542/52 65/537/51
f 72/541/53 78/544/53 69/542/52
f 72/541/53 76/546/54 77/543/54
f 80/545/55 85/548/55 77/543/54
f 84/547/56 90/550/56 85/548/55
f 84/547/56 88/552/57 89/549/57
f 91/551/58 98/554/58 89/549/57
f 95/553/59 97/556/59 98/554/58
f 100/555/60 104/558/60 97/556/59
f 103/557/48 58/685/48 104/558/60
f 155/559/12 179/563/12 183/560/61
f 157/562/48 202/686/48 179/563/12
f 160/173/9 184/198/9 182/196/62
f 177/190/63 198/212/63 196/210/7
f 168/181/12 192/206/12 190/204/48
f 160/173/9 165/178/64 187/201/64
f 178/192/19 201/215/19 198/212/63
f 159/172/14 181/195/14 180/194/35
f 173/186/61 194/208/61 192/206/12
f 164/177/17 188/202/17 187/201/64
f 156/450/35 180/216/35 201/215/19
f 159/172/14 161/174/62 182/196/62
f 175/188/7 196/210/7 194/208/61
f 169/182/48 190/204/48 188/202/17
f 158/561/61 183/560/61 185/564/7
f 163/565/7 185/564/7 186/566/63
f 162/567/63 186/566/63 189/568/19
f 167/569/19 189/568/19 191/570/35
f 166/571/35 191/570/35 193/572/14
f 170/574/62 171/573/14 193/572/14
f 172/576/9 170/574/62 195/575/62
f 174/578/64 172/576/9 197/577/9
f 174/578/64 199/579/64 200/580/17
f 176/581/17 200/580/17 202/582/48
f 245/275/35 250/282/36 242/272/36
f 250/282/36 249/281/37 247/278/37
f 249/281/37 258/292/38 251/284/38
f 258/292/38 262/299/39 255/289/39
f 262/299/39 261/298/40 259/295/40
f 261/298/40 270/308/41 264/301/41
f 270/308/41 274/314/42 267/305/42
f 274/314/42 278/320/43 271/311/43
f 278/320/43 282/327/44 275/317/44
f 282/327/44 281/326/45 279/323/45
f 281/326/45 290/336/46 283/329/46
f 290/336/46 293/341/47 288/334/47
f 293/341/47 245/478/35 291/339/35
f 299/347/35 304/354/36 296/344/36
f 304/354/36 303/353/37 301/350/37
f 303/353/37 312/364/38 305/356/38
f 312/364/38 316/371/39 309/361/39
f 316/371/39 315/370/40 313/367/40
f 315/370/40 324/380/41 318/373/41
f 324/380/41 328/386/42 321/377/42
f 328/386/42 332/392/43 325/383/43
f 332/392/43 336/399/44 329/389/44
f 336/399/44 335/398/45 333/395/45
f 335/398/45 344/408/46 337/401/46
f 344/408/46 346/413/47 342/406/47
f 346/413/47 299/486/35 345/411/35
f 379/584/65 382/587/68 380/585/66
f 382/587/68 384/589/70 383/588/69
f 384/589/70 398/603/84 385/590/71
f 385/590/71 398/603/84 386/591/72
f 386/591/72 389/594/75 388/593/74
f 389/594/75 415/627/102 390/595/76
f 390/595/76 415/627/102 391/596/77
f 391/596/77 394/599/80 393/598/79
f 394/599/80 396/601/82 395/600/81
f 396/601/82 400/605/86 397/602/83
f 398/603/84 409/637/96 399/604/85
f 400/605/86 402/607/88 401/606/87
f 402/607/88 379/613/65 381/608/67
f 381/608/67 370/687/126 352/609/89
f 403/610/90 425/650/114 404/611/91
f 379/613/65 402/607/88 406/614/93
f 379/584/65 407/641/94 408/616/95
f 384/589/70 410/688/97 409/617/96
f 400/605/86 411/639/98 406/618/93
f 382/587/68 408/689/95 410/619/97
f 396/601/82 413/634/100 411/620/98
f 396/601/82 394/599/80 412/621/99
f 394/599/80 391/596/77 414/623/101
f 391/596/77 415/627/102 405/625/92
f 415/627/102 389/594/75 403/610/90
f 386/591/72 399/644/85 403/628/90
f 416/629/103 424/649/113 366/630/104
f 409/617/96 410/688/97 417/632/106
f 413/634/100 416/654/103 419/635/108
f 405/625/92 404/690/91 420/636/109
f 409/637/96 418/691/107 421/638/110
f 411/639/98 419/660/108 422/640/111
f 407/641/94 426/662/115 423/642/112
f 414/623/101 420/664/109 424/643/113
f 399/644/85 421/666/110 425/645/114
f 406/614/93 422/668/111 426/646/115
f 410/619/97 408/689/95 423/647/112
f 413/622/100 412/621/99 424/649/113
f 425/650/114 368/692/124 347/651/116
f 418/633/107 417/632/106 349/652/117
f 416/654/103 365/693/105 364/655/119
f 420/636/109 404/690/91 347/656/116
f 421/638/110 418/691/107 369/658/118
f 419/660/108 364/694/119 363/661/122
f 426/662/115 362/695/125 361/663/123
f 420/664/109 367/696/120 366/665/104
f 421/666/110 348/697/121 368/667/124
f 422/668/111 363/698/122 362/669/125
f 417/648/106 423/647/112 361/670/123
f 380/585/66 371/699/129 370/672/126
f 385/590/71 350/700/136 372/673/127
f 401/606/87 352/701/89 378/674/128
f 383/588/69 372/702/127 371/675/129
f 397/602/83 378/703/128 377/676/130
f 395/600/81 377/704/130 376/677/131
f 393/598/79 376/705/131 351/678/132
f 392/597/78 351/706/132 375/679/133
f 390/595/76 375/707/133 374/680/134
f 387/592/73 388/593/74 374/681/134
f 387/592/73 373/708/135 350/683/136
