mtllib dud_conventional_item.mtl
v 0.783673 0.448752 0.448752
v 0.261225 0.448752 0.465078
v 0.261225 0.448752 0.448752
v 0.783673 0.465078 0.448752
v 0.261225 0.465078 0.448752
v 0.261225 0.465078 0.465078
v 0.783673 0.448752 0.465078
v 0.783673 0.465078 0.465078
v 0.783673 0.448752 0.551248
v 0.261225 0.465078 0.551248
v 0.261225 0.448752 0.551248
v 0.783673 0.448752 0.534922
v 0.261225 0.448752 0.534922
v 0.261225 0.465078 0.534922
v 0.783673 0.465078 0.551248
v 0.783673 0.465078 0.534922
v 0.783673 0.551248 0.551248
v 0.261225 0.551248 0.534922
v 0.261225 0.551248 0.551248
v 0.783673 0.534922 0.551248
v 0.261225 0.534922 0.551248
v 0.261225 0.534922 0.534922
v 0.783673 0.551248 0.534922
v 0.783673 0.534922 0.534922
v 0.783673 0.551248 0.448752
v 0.261225 0.534922 0.448752
v 0.261225 0.551248 0.448752
v 0.261225 0.551248 0.465078
v 0.261225 0.534922 0.465078
v 0.783673 0.534922 0.448752
v 0.783673 0.551248 0.465078
v 0.783673 0.534922 0.465078
v 0.008163 0.488456 0.471138
v 0.000000 0.482683 0.465366
v 0.000000 0.488456 0.471138
v 0.000000 0.465366 0.482683
v 0.008163 0.453822 0.482683
v 0.008163 0.465366 0.482683
v 0.000000 0.471139 0.488455
v 0.008163 0.471139 0.488455
v 0.000000 0.453822 0.482683
v 0.008163 0.407643 0.436505
v 0.008163 0.482683 0.453822
v 0.008163 0.482683 0.465366
v 0.000000 0.482683 0.453822
v 0.008163 0.436505 0.407643
v 0.000000 0.407643 0.436505
v 0.000000 0.436505 0.407643
v 0.008163 0.471139 0.511545
v 0.000000 0.465366 0.517317
v 0.000000 0.471139 0.511545
v 0.000000 0.482683 0.534634
v 0.008163 0.482683 0.546178
v 0.008163 0.482683 0.534634
v 0.000000 0.488455 0.528861
v 0.008163 0.488455 0.528861
v 0.000000 0.482683 0.546178
v 0.008163 0.436505 0.592357
v 0.008163 0.453822 0.517317
v 0.008163 0.465366 0.517317
v 0.000000 0.453822 0.517317
v 0.008163 0.407643 0.563495
v 0.000000 0.436505 0.592357
v 0.000000 0.407643 0.563495
v 0.008163 0.511544 0.528862
v 0.000000 0.517317 0.534634
v 0.000000 0.511544 0.528862
v 0.008163 0.534634 0.517317
v 0.000000 0.546178 0.517317
v 0.008163 0.546178 0.517317
v 0.000000 0.534634 0.517317
v 0.008163 0.528861 0.511545
v 0.000000 0.528861 0.511545
v 0.008163 0.517317 0.534634
v 0.008163 0.592357 0.563495
v 0.008163 0.517317 0.546178
v 0.000000 0.517317 0.546178
v 0.008163 0.563495 0.592357
v 0.000000 0.592357 0.563495
v 0.000000 0.563495 0.592357
v 0.008163 0.528861 0.488455
v 0.000000 0.534634 0.482683
v 0.000000 0.528861 0.488455
v 0.000000 0.517317 0.465366
v 0.008163 0.517317 0.453822
v 0.008163 0.517317 0.465366
v 0.000000 0.511545 0.471139
v 0.008163 0.511545 0.471139
v 0.000000 0.517317 0.453822
v 0.008163 0.563495 0.407643
v 0.008163 0.546178 0.482683
v 0.008163 0.534634 0.482683
v 0.000000 0.546178 0.482683
v 0.008163 0.592357 0.436505
v 0.000000 0.563495 0.407643
v 0.000000 0.592357 0.436505
v 0.479985 0.491837 0.379776
v 0.238383 0.491837 0.379776
v 0.238383 0.508163 0.379776
v 0.271036 0.508163 0.445082
v 0.479985 0.508163 0.379776
v 0.271036 0.491837 0.445082
v 0.261225 0.500000 0.445082
v 0.228572 0.500000 0.379776
v 0.489796 0.500000 0.379776
v 0.512638 0.508163 0.445082
v 0.522449 0.500000 0.445082
v 0.512638 0.491837 0.445082
v 0.238383 0.508163 0.620224
v 0.479985 0.491837 0.620224
v 0.479985 0.508163 0.620224
v 0.271036 0.508163 0.554918
v 0.512638 0.508163 0.554918
v 0.271036 0.491837 0.554918
v 0.238383 0.491837 0.620224
v 0.261225 0.500000 0.554918
v 0.228572 0.500000 0.620224
v 0.489796 0.500000 0.620224
v 0.522449 0.500000 0.554918
v 0.512638 0.491837 0.554918
v 1.000000 0.495918 0.524416
v 0.951020 0.504082 0.524416
v 0.951020 0.495918 0.524416
v 1.000000 0.504082 0.524416
v 0.951020 0.504082 0.516253
v 1.000000 0.504082 0.516253
v 0.951020 0.495918 0.516253
v 1.000000 0.495918 0.516253
v 0.951020 0.504082 0.475584
v 1.000000 0.495918 0.475584
v 0.951020 0.495918 0.475584
v 0.951020 0.504082 0.483747
v 1.000000 0.504082 0.475584
v 0.951020 0.495918 0.483747
v 1.000000 0.504082 0.483747
v 1.000000 0.495918 0.483747
v 0.848980 0.563081 0.500000
v 0.195918 0.554630 0.468460
v 0.195918 0.563081 0.500000
v 0.848980 0.554630 0.468460
v 0.195918 0.531540 0.445370
v 0.848980 0.531540 0.445370
v 0.195918 0.500000 0.436919
v 0.848980 0.500000 0.436919
v 0.195918 0.468460 0.445370
v 0.848980 0.468460 0.445370
v 0.195918 0.445370 0.468460
v 0.848980 0.445370 0.468460
v 0.195918 0.436919 0.500000
v 0.848980 0.436919 0.500000
v 0.195918 0.445370 0.531540
v 0.848980 0.445370 0.531540
v 0.195918 0.468460 0.554630
v 0.848980 0.468460 0.554630
v 0.195918 0.500000 0.563081
v 0.848980 0.500000 0.563081
v 0.195918 0.531540 0.554630
v 0.946939 0.484230 0.472685
v 0.848980 0.531540 0.554630
v 0.195918 0.554630 0.531541
v 0.848980 0.554630 0.531541
v 0.065306 0.527315 0.484230
v 0.065306 0.500000 0.468460
v 0.000000 0.515770 0.472685
v 0.065306 0.515770 0.472685
v 0.065306 0.500000 0.531540
v 0.065306 0.484230 0.527315
v 0.065306 0.472685 0.515770
v 0.065306 0.468460 0.500000
v 0.065306 0.472685 0.484230
v 0.065306 0.484230 0.472685
v 0.065306 0.527315 0.515770
v 0.065306 0.531540 0.500000
v 0.065306 0.515770 0.527315
v 0.000000 0.500000 0.468460
v 0.000000 0.472685 0.515770
v 0.000000 0.527315 0.515770
v 0.000000 0.500000 0.531540
v 0.000000 0.468460 0.500000
v 0.000000 0.515770 0.527315
v 0.000000 0.531540 0.500000
v 0.000000 0.484230 0.472685
v 0.000000 0.527315 0.484230
v 0.000000 0.484230 0.527315
v 0.000000 0.472685 0.484230
v 0.946939 0.468460 0.500000
v 0.946939 0.472685 0.484230
v 0.979592 0.500000 0.500000
v 0.946939 0.531540 0.500000
v 0.946939 0.527315 0.484230
v 0.946939 0.500000 0.468460
v 0.946939 0.527315 0.515770
v 0.946939 0.515770 0.472685
v 0.946939 0.515770 0.527315
v 0.946939 0.484230 0.527315
v 0.946939 0.500000 0.531540
v 0.946939 0.472685 0.515770
vt 0.382857 0.042857
vt 0.017143 0.071429
vt 0.017143 0.042857
vt 0.382857 0.014286
vt 0.017143 0.014286
vt 0.005714 0.014286
vt 0.005714 0.042857
vt 0.394286 0.042857
vt 0.394286 0.014286
vt 0.382857 0.114286
vt 0.017143 0.142857
vt 0.017143 0.114286
vt 0.382857 0.085714
vt 0.017143 0.085714
vt 0.005714 0.085714
vt 0.005714 0.114286
vt 0.394286 0.114286
vt 0.394286 0.085714
vt 0.382857 0.185714
vt 0.017143 0.214286
vt 0.017143 0.185714
vt 0.382857 0.157143
vt 0.017143 0.157143
vt 0.005714 0.157143
vt 0.005714 0.185714
vt 0.394286 0.185714
vt 0.394286 0.157143
vt 0.382857 0.257143
vt 0.017143 0.285714
vt 0.017143 0.257143
vt 0.017143 0.228571
vt 0.005714 0.228571
vt 0.005714 0.257143
vt 0.394286 0.257143
vt 0.382857 0.228571
vt 0.394286 0.228571
vt 0.691429 0.128571
vt 0.685714 0.142857
vt 0.685714 0.128571
vt 0.657143 0.142857
vt 0.651429 0.157143
vt 0.651429 0.142857
vt 0.657143 0.128571
vt 0.662857 0.142857
vt 0.680000 0.128571
vt 0.680000 0.142857
vt 0.645714 0.142857
vt 0.628571 0.128571
vt 0.645714 0.128571
vt 0.657143 0.157143
vt 0.651429 0.271429
vt 0.622857 0.157143
vt 0.628571 0.142857
vt 0.691429 0.142857
vt 0.685714 0.157143
vt 0.685714 0.285714
vt 0.657143 0.271429
vt 0.685714 0.271429
vt 0.622857 0.271429
vt 0.691429 0.157143
vt 0.617143 0.128571
vt 0.611429 0.142857
vt 0.611429 0.128571
vt 0.582857 0.142857
vt 0.577143 0.157143
vt 0.577143 0.142857
vt 0.582857 0.128571
vt 0.588571 0.142857
vt 0.605714 0.128571
vt 0.605714 0.142857
vt 0.571429 0.142857
vt 0.554286 0.128571
vt 0.571429 0.128571
vt 0.582857 0.157143
vt 0.577143 0.271429
vt 0.548571 0.157143
vt 0.554286 0.142857
vt 0.617143 0.142857
vt 0.611429 0.157143
vt 0.611429 0.285714
vt 0.582857 0.271429
vt 0.611429 0.271429
vt 0.548571 0.271429
vt 0.617143 0.157143
vt 0.542857 0.128571
vt 0.537143 0.142857
vt 0.537143 0.128571
vt 0.502857 0.142857
vt 0.508571 0.157143
vt 0.502857 0.157143
vt 0.508571 0.142857
vt 0.502857 0.128571
vt 0.508571 0.128571
vt 0.514286 0.142857
vt 0.531429 0.128571
vt 0.531429 0.142857
vt 0.480000 0.142857
vt 0.497143 0.128571
vt 0.497143 0.142857
vt 0.502857 0.271429
vt 0.474286 0.157143
vt 0.542857 0.142857
vt 0.537143 0.157143
vt 0.537143 0.285714
vt 0.508571 0.271429
vt 0.537143 0.271429
vt 0.474286 0.271429
vt 0.542857 0.271429
vt 0.468571 0.128571
vt 0.462857 0.142857
vt 0.462857 0.128571
vt 0.434286 0.142857
vt 0.428571 0.157143
vt 0.428571 0.142857
vt 0.434286 0.128571
vt 0.440000 0.142857
vt 0.457143 0.128571
vt 0.457143 0.142857
vt 0.422857 0.142857
vt 0.405714 0.128571
vt 0.422857 0.128571
vt 0.434286 0.157143
vt 0.428571 0.271429
vt 0.400000 0.157143
vt 0.405714 0.142857
vt 0.468571 0.157143
vt 0.462857 0.157143
vt 0.462857 0.285714
vt 0.434286 0.271429
vt 0.462857 0.271429
vt 0.400000 0.271429
vt 0.468571 0.271429
vt 0.862857 0.968548
vt 0.862857 0.545738
vt 0.874286 0.545738
vt 0.805714 0.557143
vt 0.760000 0.928571
vt 0.760000 0.500000
vt 0.857143 0.928571
vt 0.811429 0.557143
vt 0.857143 0.500000
vt 0.805714 0.471429
vt 0.760000 0.485714
vt 0.760000 0.471429
vt 0.760000 0.457143
vt 0.805714 0.457143
vt 0.857143 0.471429
vt 0.811429 0.485714
vt 0.811429 0.471429
vt 0.811429 0.457143
vt 0.857143 0.457143
vt 0.880000 0.545738
vt 0.891429 0.968548
vt 0.880000 0.968548
vt 0.948571 0.557143
vt 0.994286 0.928571
vt 0.948571 0.985714
vt 0.942857 0.557143
vt 0.897143 0.928571
vt 0.897143 0.500000
vt 0.994286 0.485714
vt 0.948571 0.471429
vt 0.994286 0.471429
vt 0.994286 0.457143
vt 0.942857 0.485714
vt 0.897143 0.471429
vt 0.942857 0.471429
vt 0.942857 0.457143
vt 0.714286 0.757143
vt 0.748571 0.771429
vt 0.748571 0.757143
vt 0.714286 0.771429
vt 0.748571 0.785714
vt 0.714286 0.728571
vt 0.748571 0.742857
vt 0.748571 0.728571
vt 0.714286 0.742857
vt 0.708571 0.757143
vt 0.708571 0.771429
vt 0.748571 0.814286
vt 0.714286 0.828571
vt 0.748571 0.828571
vt 0.748571 0.800000
vt 0.714286 0.814286
vt 0.748571 0.842857
vt 0.714286 0.857143
vt 0.748571 0.857143
vt 0.714286 0.842857
vt 0.708571 0.828571
vt 0.708571 0.814286
vt 0.382857 0.071429
vt 0.382857 0.142857
vt 0.382857 0.214286
vt 0.382857 0.285714
vt 0.651429 0.128571
vt 0.662857 0.128571
vt 0.657143 0.285714
vt 0.691429 0.271429
vt 0.577143 0.128571
vt 0.588571 0.128571
vt 0.582857 0.285714
vt 0.617143 0.271429
vt 0.514286 0.128571
vt 0.480000 0.128571
vt 0.542857 0.157143
vt 0.508571 0.285714
vt 0.468571 0.142857
vt 0.428571 0.128571
vt 0.440000 0.128571
vt 0.434286 0.285714
vt 0.868571 0.528571
vt 0.874286 0.968548
vt 0.868571 0.985714
vt 0.805714 0.985714
vt 0.811429 0.985714
vt 0.805714 0.485714
vt 0.857143 0.485714
vt 0.885714 0.528571
vt 0.891429 0.545738
vt 0.885714 0.985714
vt 0.994286 0.500000
vt 0.942857 0.985714
vt 0.948571 0.485714
vt 0.948571 0.457143
vt 0.897143 0.485714
vt 0.897143 0.457143
vt 0.714286 0.785714
vt 0.714286 0.800000
vt 0.102857 0.471429
vt 0.560000 0.414286
vt 0.560000 0.471429
vt 0.102857 0.414286
vt 0.560000 0.357143
vt 0.102857 0.357143
vt 0.560000 0.300000
vt 0.102857 0.985714
vt 0.560000 0.928571
vt 0.560000 0.985714
vt 0.102857 0.928571
vt 0.560000 0.871429
vt 0.102857 0.871429
vt 0.560000 0.814286
vt 0.102857 0.814286
vt 0.560000 0.757143
vt 0.102857 0.757143
vt 0.560000 0.700000
vt 0.102857 0.700000
vt 0.560000 0.642857
vt 0.102857 0.642857
vt 0.560000 0.585714
vt 0.034286 0.942857
vt 0.102857 0.585714
vt 0.560000 0.528571
vt 0.102857 0.528571
vt 0.651429 0.400000
vt 0.657143 0.642857
vt 0.702857 0.671429
vt 0.657143 0.671429
vt 0.651429 0.628571
vt 0.651429 0.685714
vt 0.651429 0.742857
vt 0.651429 0.800000
vt 0.651429 0.857143
vt 0.651429 0.914286
vt 0.651429 0.971429
vt 0.651429 0.514286
vt 0.651429 0.457143
vt 0.651429 0.342857
vt 0.651429 0.571429
vt 0.753847 0.928913
vt 0.720484 0.976662
vt 0.720625 0.880554
vt 0.657143 0.785714
vt 0.702857 0.814286
vt 0.657143 0.814286
vt 0.657143 0.871429
vt 0.702857 0.900000
vt 0.657143 0.900000
vt 0.657143 0.957143
vt 0.702857 0.985714
vt 0.657143 0.985714
vt 0.657143 0.757143
vt 0.702857 0.785714
vt 0.657143 0.700000
vt 0.702857 0.728571
vt 0.657143 0.728571
vt 0.657143 0.842857
vt 0.702857 0.871429
vt 0.657143 0.928571
vt 0.702857 0.957143
vt 0.702857 0.757143
vt 0.702857 0.700000
vt 0.702857 0.842857
vt 0.702857 0.928571
vt 0.034286 0.828571
vt 0.034286 0.857143
vt 0.005714 0.842857
vt 0.034286 0.485714
vt 0.034286 0.428571
vt 0.034286 0.314286
vt 0.102857 0.300000
vt 0.034286 0.542857
vt 0.034286 0.371429
vt 0.034286 0.600000
vt 0.034286 0.685714
vt 0.034286 0.657143
vt 0.034286 0.714286
vt 0.034286 0.771429
vt 0.034286 0.885714
vt 0.034286 0.342857
vt 0.005714 0.328571
vt 0.034286 0.628571
vt 0.005714 0.614286
vt 0.034286 0.800000
vt 0.005714 0.785714
vt 0.034286 0.971429
vt 0.005714 0.957143
vt 0.034286 0.571429
vt 0.005714 0.557143
vt 0.034286 0.457143
vt 0.005714 0.442857
vt 0.034286 0.742857
vt 0.005714 0.728571
vt 0.034286 0.914286
vt 0.005714 0.900000
vt 0.034286 0.514286
vt 0.005714 0.500000
vt 0.034286 0.400000
vt 0.005714 0.385714
vt 0.005714 0.671429
vt 0.651429 0.371429
vt 0.702857 0.642857
vt 0.651429 0.600000
vt 0.651429 0.657143
vt 0.651429 0.714286
vt 0.651429 0.771429
vt 0.651429 0.828571
vt 0.651429 0.885714
vt 0.651429 0.942857
vt 0.651429 0.485714
vt 0.651429 0.428571
vt 0.651429 0.314286
vt 0.651429 0.542857
vt 0.731734 0.873222
vt 0.742820 0.880758
vt 0.750915 0.901142
vt 0.750833 0.956630
vt 0.742679 0.976865
vt 0.731571 0.984197
vt 0.712390 0.956277
vt 0.709457 0.928506
vt 0.712471 0.900789
vn -0.000000 -1.000000 0.000000
vn 0.000000 -0.000000 -1.000000
vn -1.000000 0.000000 -0.000000
vn 1.000000 0.000000 0.000000
vn -0.000000 0.000000 1.000000
vn 0.000000 1.000000 -0.000000
vn 0.000000 0.707100 -0.707100
vn -0.000000 -0.707100 0.707100
vn 0.000000 -0.707100 -0.707100
vn -0.000000 0.707100 0.707100
vn -0.609200 0.732200 0.304600
vn -0.609200 -0.732200 0.304600
vn 0.609200 0.732200 -0.304600
vn 0.609200 -0.732200 -0.304600
vn -0.609200 0.732200 -0.304600
vn -0.609200 -0.732200 -0.304600
vn 0.609200 0.732200 0.304600
vn 0.609200 -0.732200 0.304600
vn 0.151300 0.988500 0.000000
vn -0.116000 0.860200 -0.496600
vn -0.116000 0.993200 -0.000000
vn 0.151300 0.856000 -0.494200
vn -0.116000 0.496600 -0.860200
vn 0.151300 0.494200 -0.856000
vn -0.116000 0.000000 -0.993200
vn 0.151300 0.000000 -0.988500
vn -0.116000 -0.496600 -0.860200
vn 0.151300 -0.494200 -0.856000
vn -0.116000 -0.860200 -0.496600
vn 0.151300 -0.856000 -0.494200
vn -0.116000 -0.993200 -0.000000
vn 0.151300 -0.988500 0.000000
vn -0.116000 -0.860200 0.496600
vn 0.151300 -0.856000 0.494200
vn -0.116000 -0.496600 0.860200
vn 0.151300 -0.494200 0.856000
vn -0.116000 0.000000 0.993200
vn 0.151300 0.000000 0.988500
vn -0.116000 0.496600 0.860200
vn 0.498100 -0.433500 -0.750900
vn 0.151300 0.494200 0.856000
vn -0.116000 0.860200 0.496600
vn 0.151300 0.856000 0.494200
vn -0.120500 0.859700 -0.496400
vn -0.120500 0.000000 -0.992700
vn -0.653200 0.378600 -0.655700
vn -0.120500 0.496400 -0.859700
vn -0.120500 0.000000 0.992700
vn -0.120500 -0.496400 0.859700
vn -0.120500 -0.859700 0.496300
vn -0.120500 -0.992700 -0.000000
vn -0.120500 -0.859700 -0.496400
vn -0.120500 -0.496400 -0.859700
vn -0.120500 0.859700 0.496400
vn -0.120500 0.992700 -0.000000
vn -0.120500 0.496400 0.859700
vn -0.653200 0.000000 -0.757100
vn -0.653200 -0.655700 0.378600
vn -0.653200 0.655700 0.378600
vn -0.653200 0.000000 0.757100
vn -0.653200 -0.757100 -0.000000
vn -0.653200 0.378600 0.655700
vn -0.653200 0.757100 -0.000000
vn -0.653200 -0.378600 -0.655700
vn -0.653200 0.655700 -0.378600
vn -0.653200 -0.378600 0.655700
vn -0.653200 -0.655700 -0.378600
vn 0.498100 -0.867100 0.000000
vn 0.498100 -0.750900 -0.433500
vn 0.498100 0.867100 0.000000
vn 0.498100 0.750900 -0.433500
vn 0.498100 0.000000 -0.867100
vn 0.498100 0.750900 0.433500
vn 0.498100 0.433500 -0.750900
vn 0.498100 0.433500 0.750900
vn 0.498100 -0.433500 0.750900
vn 0.498100 0.000000 0.867100
vn 0.498100 -0.750900 0.433500
o Cube.003_Cube.005
usemtl texture
s off
f 1/1/1 2/2/1 3/3/1
f 4/4/2 3/3/2 5/5/2
f 6/6/3 3/3/3 2/7/3
f 7/8/4 4/4/4 8/9/4
f 9/10/5 10/11/5 11/12/5
f 12/13/1 11/12/1 13/14/1
f 14/15/3 11/12/3 10/16/3
f 15/17/4 12/13/4 16/18/4
f 17/19/6 18/20/6 19/21/6
f 20/22/5 19/21/5 21/23/5
f 22/24/3 19/21/3 18/25/3
f 23/26/4 20/22/4 24/27/4
f 25/28/2 26/29/2 27/30/2
f 28/31/6 25/28/6 27/30/6
f 29/32/3 27/30/3 26/33/3
f 30/34/4 31/35/4 32/36/4
f 33/37/7 34/38/7 35/39/7
f 36/40/5 37/41/5 38/42/5
f 38/42/8 39/43/8 36/40/8
f 36/44/3 35/45/3 34/46/3
f 38/47/4 33/48/4 40/49/4
f 41/50/8 42/51/8 37/41/8
f 34/46/3 41/50/3 36/44/3
f 38/47/4 43/52/4 44/53/4
f 44/54/6 45/55/6 34/38/6
f 46/56/9 47/57/9 48/58/9
f 45/55/3 47/57/3 41/50/3
f 37/41/4 46/59/4 43/52/4
f 43/60/7 48/58/7 45/55/7
f 49/61/9 50/62/9 51/63/9
f 52/64/6 53/65/6 54/66/6
f 54/66/10 55/67/10 52/64/10
f 52/68/3 51/69/3 50/70/3
f 54/71/4 49/72/4 56/73/4
f 57/74/10 58/75/10 53/65/10
f 50/70/3 57/74/3 52/68/3
f 54/71/4 59/76/4 60/77/4
f 60/78/2 61/79/2 50/62/2
f 62/80/8 63/81/8 64/82/8
f 57/74/3 64/82/3 63/81/3
f 53/65/4 62/83/4 59/76/4
f 59/84/9 64/82/9 61/79/9
f 65/85/8 66/86/8 67/87/8
f 68/88/2 69/89/2 70/90/2
f 71/91/7 72/92/7 73/93/7
f 71/94/3 67/95/3 66/96/3
f 74/97/4 72/98/4 68/99/4
f 69/89/7 75/100/7 70/90/7
f 66/96/3 69/89/3 71/94/3
f 68/99/4 76/101/4 74/97/4
f 74/102/1 77/103/1 66/86/1
f 78/104/10 79/105/10 80/106/10
f 77/103/3 79/105/3 69/89/3
f 70/90/4 78/107/4 76/101/4
f 77/103/8 78/108/8 80/106/8
f 81/109/10 82/110/10 83/111/10
f 84/112/1 85/113/1 86/114/1
f 86/114/9 87/115/9 84/112/9
f 84/116/3 83/117/3 82/118/3
f 86/119/4 81/120/4 88/121/4
f 89/122/9 90/123/9 85/113/9
f 82/118/3 89/122/3 84/116/3
f 86/119/4 91/124/4 92/125/4
f 82/110/5 91/126/5 93/127/5
f 94/128/7 95/129/7 96/130/7
f 93/127/3 95/129/3 89/122/3
f 85/113/4 94/131/4 91/124/4
f 93/127/10 94/132/10 96/130/10
f 97/133/2 98/134/2 99/135/2
f 100/136/6 101/137/6 99/138/6
f 97/139/1 102/140/1 98/141/1
f 103/142/11 99/143/11 104/144/11
f 103/142/12 98/145/12 102/146/12
f 105/147/13 106/148/13 107/149/13
f 105/147/14 108/150/14 97/151/14
f 109/152/5 110/153/5 111/154/5
f 112/155/6 111/156/6 113/157/6
f 114/158/1 110/159/1 115/160/1
f 109/161/15 116/162/15 117/163/15
f 116/162/16 115/164/16 117/163/16
f 113/165/17 118/166/17 119/167/17
f 118/166/18 120/168/18 119/167/18
f 121/169/5 122/170/5 123/171/5
f 124/172/6 125/173/6 122/170/6
f 126/174/2 127/175/2 125/176/2
f 128/177/1 123/171/1 127/175/1
f 124/172/4 128/178/4 126/179/4
f 129/180/2 130/181/2 131/182/2
f 132/183/6 133/184/6 129/180/6
f 134/185/5 135/186/5 132/187/5
f 131/182/1 136/188/1 134/185/1
f 136/189/4 133/184/4 135/190/4
f 1/1/1 7/191/1 2/2/1
f 4/4/2 1/1/2 3/3/2
f 6/6/3 5/5/3 3/3/3
f 7/8/4 1/1/4 4/4/4
f 9/10/5 15/192/5 10/11/5
f 12/13/1 9/10/1 11/12/1
f 14/15/3 13/14/3 11/12/3
f 15/17/4 9/10/4 12/13/4
f 17/19/6 23/193/6 18/20/6
f 20/22/5 17/19/5 19/21/5
f 22/24/3 21/23/3 19/21/3
f 23/26/4 17/19/4 20/22/4
f 25/28/2 30/194/2 26/29/2
f 28/31/6 31/35/6 25/28/6
f 29/32/3 28/31/3 27/30/3
f 30/34/4 25/28/4 31/35/4
f 33/37/7 44/54/7 34/38/7
f 36/40/5 41/50/5 37/41/5
f 38/42/8 40/195/8 39/43/8
f 36/44/3 39/196/3 35/45/3
f 38/47/4 44/53/4 33/48/4
f 41/50/8 47/57/8 42/51/8
f 34/46/3 45/55/3 41/50/3
f 38/47/4 37/41/4 43/52/4
f 44/54/6 43/60/6 45/55/6
f 46/56/9 42/197/9 47/57/9
f 45/55/3 48/58/3 47/57/3
f 37/41/4 42/51/4 46/59/4
f 43/60/7 46/198/7 48/58/7
f 49/61/9 60/78/9 50/62/9
f 52/64/6 57/74/6 53/65/6
f 54/66/10 56/199/10 55/67/10
f 52/68/3 55/200/3 51/69/3
f 54/71/4 60/77/4 49/72/4
f 57/74/10 63/81/10 58/75/10
f 50/70/3 61/79/3 57/74/3
f 54/71/4 53/65/4 59/76/4
f 60/78/2 59/84/2 61/79/2
f 62/80/8 58/201/8 63/81/8
f 57/74/3 61/79/3 64/82/3
f 53/65/4 58/75/4 62/83/4
f 59/84/9 62/202/9 64/82/9
f 65/85/8 74/102/8 66/86/8
f 68/88/2 71/91/2 69/89/2
f 71/91/7 68/88/7 72/92/7
f 71/94/3 73/203/3 67/95/3
f 74/97/4 65/204/4 72/98/4
f 69/89/7 79/105/7 75/100/7
f 66/96/3 77/103/3 69/89/3
f 68/99/4 70/90/4 76/101/4
f 74/102/1 76/205/1 77/103/1
f 78/104/10 75/206/10 79/105/10
f 77/103/3 80/106/3 79/105/3
f 70/90/4 75/100/4 78/107/4
f 77/103/8 76/205/8 78/108/8
f 81/109/10 92/207/10 82/110/10
f 84/112/1 89/122/1 85/113/1
f 86/114/9 88/208/9 87/115/9
f 84/116/3 87/209/3 83/117/3
f 86/119/4 92/125/4 81/120/4
f 89/122/9 95/129/9 90/123/9
f 82/118/3 93/127/3 89/122/3
f 86/119/4 85/113/4 91/124/4
f 82/110/5 92/207/5 91/126/5
f 94/128/7 90/210/7 95/129/7
f 93/127/3 96/130/3 95/129/3
f 85/113/4 90/123/4 94/131/4
f 93/127/10 91/126/10 94/132/10
f 98/134/2 104/211/2 99/135/2
f 99/135/2 101/212/2 97/133/2
f 101/212/2 105/213/2 97/133/2
f 100/136/6 106/214/6 101/137/6
f 97/139/1 108/215/1 102/140/1
f 103/142/11 100/216/11 99/143/11
f 103/142/12 104/144/12 98/145/12
f 105/147/13 101/217/13 106/148/13
f 105/147/14 107/149/14 108/150/14
f 109/152/5 117/218/5 115/219/5
f 115/219/5 110/153/5 109/152/5
f 110/153/5 118/220/5 111/154/5
f 112/155/6 109/221/6 111/156/6
f 114/158/1 120/222/1 110/159/1
f 109/161/15 112/223/15 116/162/15
f 116/162/16 114/224/16 115/164/16
f 113/165/17 111/225/17 118/166/17
f 118/166/18 110/226/18 120/168/18
f 121/169/5 124/172/5 122/170/5
f 124/172/6 126/227/6 125/173/6
f 126/174/2 128/177/2 127/175/2
f 128/177/1 121/169/1 123/171/1
f 124/172/4 121/169/4 128/178/4
f 129/180/2 133/184/2 130/181/2
f 132/183/6 135/228/6 133/184/6
f 134/185/5 136/188/5 135/186/5
f 131/182/1 130/181/1 136/188/1
f 136/189/4 130/181/4 133/184/4
f 137/229/19 138/230/20 139/231/21
f 140/232/22 141/233/23 138/230/20
f 142/234/24 143/235/25 141/233/23
f 144/236/26 145/237/27 143/238/25
f 146/239/28 147/240/29 145/237/27
f 148/241/30 149/242/31 147/240/29
f 150/243/32 151/244/33 149/242/31
f 152/245/34 153/246/35 151/244/33
f 154/247/36 155/248/37 153/246/35
f 156/249/38 157/250/39 155/248/37
f 144/236/26 158/251/40 146/239/28
f 159/252/41 160/253/42 157/250/39
f 161/254/43 139/231/21 160/253/42
f 141/233/23 162/255/44 138/230/20
f 163/256/45 164/257/46 165/258/47
f 157/250/39 166/259/48 155/248/37
f 155/248/37 167/260/49 153/246/35
f 153/246/35 168/261/50 151/244/33
f 151/244/33 169/262/51 149/242/31
f 149/242/31 170/263/52 147/240/29
f 147/240/29 171/264/53 145/237/27
f 145/237/27 163/265/45 143/238/25
f 139/231/21 172/266/54 160/253/42
f 138/230/20 173/267/55 139/231/21
f 143/235/25 165/268/47 141/233/23
f 160/253/42 174/269/56 157/250/39
f 175/270/57 176/271/58 177/272/59
f 174/273/56 178/274/60 166/275/48
f 168/276/50 179/277/61 169/278/51
f 171/279/53 175/280/57 163/281/45
f 172/282/54 180/283/62 174/273/56
f 162/284/44 181/285/63 173/286/55
f 167/287/49 176/288/58 168/276/50
f 170/289/52 182/290/64 171/279/53
f 173/286/55 177/291/59 172/282/54
f 165/258/47 183/292/65 162/284/44
f 166/275/48 184/293/66 167/287/49
f 169/278/51 185/294/67 170/289/52
f 186/295/68 187/296/69 188/297/4
f 161/254/43 189/298/70 137/229/19
f 137/229/19 190/299/71 140/232/22
f 142/234/24 191/300/72 144/301/26
f 159/252/41 192/302/73 161/254/43
f 140/232/22 193/303/74 142/234/24
f 156/249/38 194/304/75 159/252/41
f 156/249/38 195/305/76 196/306/77
f 152/245/34 195/307/76 154/247/36
f 150/243/32 197/308/78 152/245/34
f 148/241/30 186/295/68 150/243/32
f 146/239/28 187/309/69 148/241/30
f 191/300/72 193/310/74 188/311/4
f 194/304/75 196/312/77 188/313/4
f 197/308/78 186/314/68 188/315/4
f 158/251/40 191/316/72 188/317/4
f 192/302/73 194/318/75 188/319/4
f 190/299/71 189/320/70 188/321/4
f 195/307/76 197/322/78 188/323/4
f 187/309/69 158/324/40 188/325/4
f 189/298/70 192/326/73 188/327/4
f 193/303/74 190/328/71 188/329/4
f 196/306/77 195/305/76 188/330/4
f 137/229/19 140/232/22 138/230/20
f 140/232/22 142/234/24 141/233/23
f 142/234/24 144/301/26 143/235/25
f 144/236/26 146/239/28 145/237/27
f 146/239/28 148/241/30 147/240/29
f 148/241/30 150/243/32 149/242/31
f 150/243/32 152/245/34 151/244/33
f 152/245/34 154/247/36 153/246/35
f 154/247/36 156/249/38 155/248/37
f 156/249/38 159/252/41 157/250/39
f 144/236/26 191/316/72 158/251/40
f 159/252/41 161/254/43 160/253/42
f 161/254/43 137/229/19 139/231/21
f 141/233/23 165/331/47 162/255/44
f 163/256/45 175/332/57 164/257/46
f 157/250/39 174/333/56 166/259/48
f 155/248/37 166/334/48 167/260/49
f 153/246/35 167/335/49 168/261/50
f 151/244/33 168/336/50 169/262/51
f 149/242/31 169/337/51 170/263/52
f 147/240/29 170/338/52 171/264/53
f 145/237/27 171/339/53 163/265/45
f 139/231/21 173/340/55 172/266/54
f 138/230/20 162/341/44 173/267/55
f 143/235/25 163/342/45 165/268/47
f 160/253/42 172/343/54 174/269/56
f 177/272/59 181/344/63 175/270/57
f 181/344/63 183/345/65 175/270/57
f 183/345/65 164/346/46 175/270/57
f 175/270/57 182/347/64 185/348/67
f 185/348/67 179/349/61 175/270/57
f 179/349/61 176/271/58 175/270/57
f 176/271/58 184/350/66 178/351/60
f 178/351/60 180/352/62 177/272/59
f 176/271/58 178/351/60 177/272/59
f 174/273/56 180/283/62 178/274/60
f 168/276/50 176/288/58 179/277/61
f 171/279/53 182/290/64 175/280/57
f 172/282/54 177/291/59 180/283/62
f 162/284/44 183/292/65 181/285/63
f 167/287/49 184/293/66 176/288/58
f 170/289/52 185/294/67 182/290/64
f 173/286/55 181/285/63 177/291/59
f 165/258/47 164/257/46 183/292/65
f 166/275/48 178/274/60 184/293/66
f 169/278/51 179/277/61 185/294/67
f 161/254/43 192/326/73 189/298/70
f 137/229/19 189/320/70 190/299/71
f 142/234/24 193/310/74 191/300/72
f 159/252/41 194/318/75 192/302/73
f 140/232/22 190/328/71 193/303/74
f 156/249/38 196/312/77 194/304/75
f 156/249/38 154/247/36 195/305/76
f 152/245/34 197/322/78 195/307/76
f 150/243/32 186/314/68 197/308/78
f 148/241/30 187/296/69 186/295/68
f 146/239/28 158/324/40 187/309/69
