mtllib dud_nuke_item.mtl
v 0.114583 0.505208 0.442708
v 0.114583 0.494792 0.463542
v 0.114583 0.494792 0.442708
v 0.114583 0.505208 0.463542
v 0.083333 0.505208 0.432292
v 0.062500 0.505208 0.432292
v 0.083333 0.494792 0.432292
v 0.062500 0.494792 0.432292
v 0.052083 0.505208 0.463542
v 0.052083 0.494792 0.442708
v 0.052083 0.494792 0.463542
v 0.052083 0.505208 0.442708
v 0.114583 0.494792 0.536458
v 0.114583 0.505208 0.557292
v 0.114583 0.494792 0.557292
v 0.052083 0.505208 0.536458
v 0.052083 0.505208 0.557292
v 0.083333 0.505208 0.567708
v 0.083333 0.494792 0.567708
v 0.062500 0.505208 0.567708
v 0.062500 0.494792 0.567708
v 0.052083 0.494792 0.557292
v 0.052083 0.494792 0.536458
v 0.682292 0.616242 0.505208
v 0.651042 0.595409 0.505208
v 0.682292 0.595409 0.505208
v 0.651042 0.616242 0.505208
v 0.651042 0.595409 0.494792
v 0.651042 0.616242 0.494792
v 0.682292 0.595409 0.494792
v 0.682292 0.616242 0.494792
v 0.671875 0.626659 0.505208
v 0.671875 0.626659 0.494792
v 0.682292 0.553611 0.603273
v 0.651042 0.543194 0.585231
v 0.682292 0.543194 0.585231
v 0.651042 0.562632 0.598065
v 0.651042 0.552215 0.580022
v 0.682292 0.552215 0.580022
v 0.651042 0.553611 0.603273
v 0.671875 0.558819 0.612294
v 0.682292 0.562632 0.598065
v 0.671875 0.567840 0.607086
v 0.682292 0.437368 0.598065
v 0.651042 0.447785 0.580022
v 0.682292 0.447785 0.580022
v 0.651042 0.446389 0.603273
v 0.651042 0.456806 0.585231
v 0.682292 0.446389 0.603273
v 0.682292 0.456806 0.585231
v 0.651042 0.437368 0.598065
v 0.671875 0.432160 0.607086
v 0.671875 0.441181 0.612294
v 0.682292 0.383758 0.494792
v 0.651042 0.404591 0.494792
v 0.682292 0.404591 0.494792
v 0.651042 0.383758 0.494792
v 0.651042 0.404591 0.505208
v 0.682292 0.383758 0.505208
v 0.682292 0.404591 0.505208
v 0.671875 0.373341 0.494792
v 0.671875 0.373341 0.505208
v 0.651042 0.383758 0.505208
v 0.682292 0.446389 0.396727
v 0.651042 0.456806 0.414769
v 0.682292 0.456806 0.414769
v 0.651042 0.446389 0.396727
v 0.651042 0.447785 0.419978
v 0.651042 0.437368 0.401935
v 0.682292 0.447785 0.419978
v 0.682292 0.437368 0.401935
v 0.671875 0.441181 0.387706
v 0.671875 0.432160 0.392914
v 0.682292 0.552215 0.419978
v 0.651042 0.562632 0.401935
v 0.651042 0.552215 0.419978
v 0.651042 0.543194 0.414769
v 0.682292 0.553611 0.396727
v 0.682292 0.543194 0.414769
v 0.682292 0.562632 0.401935
v 0.671875 0.567840 0.392914
v 0.671875 0.558819 0.387706
v 0.651042 0.553611 0.396727
v 0.031250 0.595754 0.603120
v 0.135417 0.603120 0.595754
v 0.031250 0.603120 0.595754
v 0.145833 0.595754 0.588388
v 0.145833 0.529463 0.522097
v 0.020833 0.588388 0.595754
v 0.020833 0.522097 0.529463
v 0.020833 0.529463 0.522097
v 0.020833 0.595754 0.588388
v 0.135417 0.595754 0.603120
v 0.145833 0.588388 0.595754
v 0.145833 0.522097 0.529463
v 0.031250 0.396880 0.595754
v 0.135417 0.404246 0.603120
v 0.031250 0.404246 0.603120
v 0.145833 0.411612 0.595754
v 0.145833 0.477903 0.529463
v 0.020833 0.404246 0.588388
v 0.020833 0.470537 0.522097
v 0.020833 0.477903 0.529463
v 0.020833 0.411612 0.595754
v 0.135417 0.396880 0.595754
v 0.145833 0.470537 0.522097
v 0.031250 0.404246 0.396880
v 0.135417 0.396880 0.404246
v 0.031250 0.396880 0.404246
v 0.145834 0.404246 0.411612
v 0.145834 0.470537 0.477903
v 0.020834 0.411612 0.404246
v 0.020834 0.477903 0.470537
v 0.020834 0.404246 0.411612
v 0.020834 0.470537 0.477903
v 0.145834 0.411612 0.404246
v 0.145834 0.477903 0.470537
v 0.031250 0.595754 0.396880
v 0.135417 0.603120 0.404246
v 0.135417 0.595754 0.396880
v 0.145834 0.588388 0.404246
v 0.145834 0.522097 0.470537
v 0.031250 0.603120 0.404246
v 0.020834 0.595754 0.411612
v 0.020834 0.529463 0.477903
v 0.020834 0.588388 0.404246
v 0.020834 0.522097 0.470537
v 0.145834 0.595754 0.411612
v 0.145834 0.529463 0.477903
v 1.000000 0.550309 0.587137
v 1.000000 0.399383 0.500000
v 1.000000 0.550309 0.412863
v 0.000000 0.500000 0.540247
v 0.000000 0.534855 0.520123
v 0.000000 0.500000 0.459753
v 0.114583 0.505208 0.536458
v 0.145833 0.404246 0.588388
v 0.135417 0.404246 0.396880
v 1.000000 0.587137 0.449691
v 1.000000 0.600617 0.500000
v 1.000000 0.587137 0.550309
v 1.000000 0.500000 0.600617
v 1.000000 0.449691 0.587137
v 1.000000 0.412863 0.550309
v 1.000000 0.412863 0.449691
v 1.000000 0.449691 0.412863
v 1.000000 0.500000 0.399383
v 0.000000 0.540247 0.500000
v 0.000000 0.534855 0.479876
v 0.000000 0.520123 0.465145
v 0.000000 0.479876 0.465145
v 0.000000 0.465145 0.479876
v 0.000000 0.459753 0.500000
v 0.000000 0.465145 0.520123
v 0.000000 0.479876 0.534855
v 0.000000 0.520123 0.534855
v 0.500000 0.587137 0.449691
v 0.500000 0.600617 0.500000
v 0.500000 0.550309 0.412863
v 0.500000 0.500000 0.399383
v 0.500000 0.449691 0.412863
v 0.500000 0.412863 0.449691
v 0.500000 0.399383 0.500000
v 0.500000 0.412863 0.550309
v 0.500000 0.449691 0.587137
v 0.500000 0.500000 0.600617
v 0.500000 0.550309 0.587137
v 0.500000 0.587137 0.550309
vt 0.731034 0.370968
vt 0.724138 0.338710
vt 0.724138 0.370968
vt 0.731034 0.338710
vt 0.751724 0.387097
vt 0.765517 0.387097
vt 0.751724 0.403226
vt 0.765517 0.403226
vt 0.772414 0.338710
vt 0.779310 0.370968
vt 0.779310 0.338710
vt 0.779310 0.387097
vt 0.772414 0.370968
vt 0.772414 0.387097
vt 0.731034 0.419355
vt 0.703448 0.387097
vt 0.731034 0.435484
vt 0.724138 0.467742
vt 0.731034 0.467742
vt 0.682759 0.435484
vt 0.682759 0.467742
vt 0.703448 0.483871
vt 0.703448 0.500000
vt 0.689655 0.483871
vt 0.689655 0.500000
vt 0.675862 0.467742
vt 0.675862 0.435484
vt 0.675862 0.483871
vt 0.682759 0.483871
vt 0.724138 0.516129
vt 0.751724 0.483871
vt 0.765517 0.483871
vt 0.772414 0.467742
vt 0.724138 0.209677
vt 0.703448 0.177419
vt 0.724138 0.177419
vt 0.703448 0.209677
vt 0.696552 0.177419
vt 0.696552 0.209677
vt 0.675862 0.177419
vt 0.731034 0.209677
vt 0.731034 0.177419
vt 0.717241 0.225806
vt 0.724138 0.225806
vt 0.696552 0.241935
vt 0.675862 0.209677
vt 0.682759 0.225806
vt 0.786207 0.290323
vt 0.765517 0.258065
vt 0.786207 0.258065
vt 0.758621 0.290323
vt 0.758621 0.258065
vt 0.737931 0.258065
vt 0.793103 0.258065
vt 0.765517 0.290323
vt 0.779310 0.306452
vt 0.793103 0.290323
vt 0.786207 0.306452
vt 0.758621 0.322581
vt 0.737931 0.290323
vt 0.744828 0.306452
vt 0.786207 0.209677
vt 0.765517 0.177419
vt 0.786207 0.177419
vt 0.758621 0.209677
vt 0.758621 0.177419
vt 0.737931 0.209677
vt 0.737931 0.177419
vt 0.793103 0.209677
vt 0.793103 0.177419
vt 0.765517 0.209677
vt 0.779310 0.225806
vt 0.786207 0.225806
vt 0.765517 0.241935
vt 0.758621 0.241935
vt 0.744828 0.225806
vt 0.724138 0.129032
vt 0.703448 0.096774
vt 0.724138 0.096774
vt 0.703448 0.129032
vt 0.696552 0.096774
vt 0.675862 0.129032
vt 0.675862 0.096774
vt 0.731034 0.129032
vt 0.731034 0.096774
vt 0.717241 0.145161
vt 0.731034 0.145161
vt 0.724138 0.145161
vt 0.696552 0.161290
vt 0.696552 0.129032
vt 0.682759 0.145161
vt 0.786207 0.129032
vt 0.765517 0.096774
vt 0.786207 0.096774
vt 0.765517 0.129032
vt 0.758621 0.096774
vt 0.758621 0.129032
vt 0.737931 0.096774
vt 0.793103 0.129032
vt 0.793103 0.096774
vt 0.779310 0.145161
vt 0.793103 0.145161
vt 0.786207 0.145161
vt 0.758621 0.161290
vt 0.737931 0.129032
vt 0.744828 0.145161
vt 0.724138 0.258065
vt 0.703448 0.290323
vt 0.703448 0.258065
vt 0.696552 0.258065
vt 0.675862 0.290323
vt 0.675862 0.258065
vt 0.731034 0.290323
vt 0.731034 0.258065
vt 0.724138 0.290323
vt 0.717241 0.306452
vt 0.731034 0.306452
vt 0.724138 0.306452
vt 0.696552 0.322581
vt 0.696552 0.290323
vt 0.682759 0.306452
vt 0.917241 0.774194
vt 0.986207 0.790323
vt 0.917241 0.790323
vt 0.827586 0.774194
vt 0.820690 0.758065
vt 0.820690 0.612903
vt 0.910345 0.758065
vt 0.910345 0.612903
vt 0.903448 0.612903
vt 0.910345 0.774194
vt 0.903448 0.758065
vt 0.813793 0.774194
vt 0.820690 0.774194
vt 0.813793 0.758065
vt 0.813793 0.612903
vt 0.917241 0.580645
vt 0.986207 0.596774
vt 0.917241 0.596774
vt 0.827586 0.580645
vt 0.820690 0.564516
vt 0.820690 0.419355
vt 0.910345 0.564516
vt 0.910345 0.419355
vt 0.903448 0.419355
vt 0.910345 0.580645
vt 0.903448 0.564516
vt 0.813793 0.580645
vt 0.820690 0.580645
vt 0.813793 0.419355
vt 0.917241 0.387097
vt 0.986207 0.403226
vt 0.917241 0.403226
vt 0.827586 0.387097
vt 0.820690 0.370968
vt 0.820690 0.225806
vt 0.910345 0.370968
vt 0.910345 0.225806
vt 0.903448 0.370968
vt 0.903448 0.225806
vt 0.903448 0.387097
vt 0.910345 0.387097
vt 0.820690 0.387097
vt 0.813793 0.370968
vt 0.813793 0.225806
vt 0.917241 0.983871
vt 0.986207 0.967742
vt 0.986207 0.983871
vt 0.827586 0.967742
vt 0.820690 0.951613
vt 0.820690 0.806452
vt 0.917241 0.967742
vt 0.910345 0.951613
vt 0.910345 0.806452
vt 0.903448 0.951613
vt 0.903448 0.806452
vt 0.903448 0.967742
vt 0.910345 0.967742
vt 0.820690 0.967742
vt 0.813793 0.951613
vt 0.813793 0.806452
vt 0.687135 0.905981
vt 0.742256 0.683307
vt 0.797152 0.906284
vt 0.729378 0.596377
vt 0.716764 0.648801
vt 0.677939 0.597702
vt 0.724138 0.419355
vt 0.682759 0.338710
vt 0.682759 0.370968
vt 0.689655 0.387097
vt 0.724138 0.435484
vt 0.731034 0.516129
vt 0.772414 0.435484
vt 0.731034 0.225806
vt 0.703448 0.241935
vt 0.793103 0.306452
vt 0.765517 0.322581
vt 0.793103 0.225806
vt 0.703448 0.161290
vt 0.765517 0.161290
vt 0.703448 0.322581
vt 0.986207 0.774194
vt 0.896552 0.774194
vt 0.993103 0.612903
vt 0.993103 0.758065
vt 0.903448 0.774194
vt 0.986207 0.580645
vt 0.896552 0.580645
vt 0.993103 0.419355
vt 0.993103 0.564516
vt 0.903448 0.580645
vt 0.813793 0.564516
vt 0.986207 0.387097
vt 0.896552 0.387097
vt 0.993103 0.225806
vt 0.993103 0.370968
vt 0.813793 0.387097
vt 0.896552 0.967742
vt 0.993103 0.806452
vt 0.993103 0.951613
vt 0.813793 0.967742
vt 0.773875 0.960593
vt 0.742106 0.980407
vt 0.710357 0.960418
vt 0.678663 0.831683
vt 0.687210 0.757431
vt 0.710486 0.703122
vt 0.774005 0.703296
vt 0.797226 0.757733
vt 0.805699 0.832032
vt 0.703942 0.657191
vt 0.691044 0.649463
vt 0.681527 0.627689
vt 0.681243 0.567538
vt 0.690554 0.545279
vt 0.703375 0.536889
vt 0.716273 0.544617
vt 0.725791 0.566391
vt 0.726074 0.626541
vt 0.006897 0.500000
vt 0.337931 0.419355
vt 0.337931 0.500000
vt 0.006897 0.338710
vt 0.337931 0.338710
vt 0.337931 0.258065
vt 0.006897 0.258065
vt 0.337931 0.177419
vt 0.006897 0.177419
vt 0.337931 0.096774
vt 0.006897 0.096774
vt 0.337931 0.016129
vt 0.006897 0.983871
vt 0.337931 0.903226
vt 0.337931 0.983871
vt 0.006897 0.903226
vt 0.337931 0.822581
vt 0.006897 0.822581
vt 0.337931 0.741935
vt 0.006897 0.741935
vt 0.337931 0.661290
vt 0.006897 0.661290
vt 0.337931 0.580645
vt 0.006897 0.580645
vt 0.668966 0.967742
vt 0.668966 0.048387
vt 0.668966 0.080645
vt 0.668966 0.161290
vt 0.668966 0.241935
vt 0.668966 0.564516
vt 0.668966 0.451613
vt 0.668966 0.483871
vt 0.668966 0.322581
vt 0.668966 0.612903
vt 0.668966 0.645161
vt 0.668966 0.403226
vt 0.668966 0.693548
vt 0.668966 0.725806
vt 0.668966 0.806452
vt 0.668966 0.887097
vt 0.006897 0.419355
vt 0.006897 0.016129
vt 0.668966 0.935484
vt 0.668966 0.129032
vt 0.668966 0.209677
vt 0.668966 0.532258
vt 0.668966 0.290323
vt 0.668966 0.370968
vt 0.668966 0.774194
vt 0.668966 0.854839
vn 1.000000 0.000000 0.000000
vn 0.000000 1.000000 -0.000000
vn 0.000000 0.000000 -1.000000
vn -1.000000 0.000000 -0.000000
vn -0.707100 0.000000 -0.707100
vn 0.316200 0.000000 -0.948700
vn 0.000000 -1.000000 0.000000
vn -0.000000 0.000000 1.000000
vn -0.707100 0.000000 0.707100
vn 0.316200 0.000000 0.948700
vn 0.707100 0.707100 0.000000
vn -0.447200 0.894400 -0.000000
vn -0.000000 -0.866000 0.500000
vn 0.000000 0.866000 -0.500000
vn 0.707100 0.353600 0.612400
vn -0.447200 0.447200 0.774600
vn 0.000000 -0.866000 -0.500000
vn -0.000000 0.866000 0.500000
vn 0.707100 -0.353600 0.612400
vn -0.447200 -0.447200 0.774600
vn 0.707100 -0.707100 0.000000
vn -0.447200 -0.894400 -0.000000
vn 0.707100 -0.353600 -0.612400
vn -0.447200 -0.447200 -0.774600
vn 0.707100 0.353600 -0.612400
vn -0.447200 0.447200 -0.774600
vn -0.000000 0.707100 0.707100
vn 0.000000 0.707100 -0.707100
vn -0.000000 -0.707100 0.707100
vn -0.707100 0.500000 0.500000
vn 0.707100 0.500000 0.500000
vn 0.000000 -0.707100 -0.707100
vn -0.707100 -0.500000 0.500000
vn 0.707100 -0.500000 0.500000
vn -0.707100 -0.500000 -0.500000
vn 0.707100 -0.500000 -0.500000
vn -0.707100 0.500000 -0.500000
vn 0.707100 0.500000 -0.500000
vn 0.653200 0.757100 0.000000
vn -0.059500 0.864500 -0.499100
vn -0.059500 0.998200 -0.000000
vn 0.653200 0.378600 -0.655700
vn -0.059500 0.499100 -0.864500
vn -0.059500 0.000000 -0.998200
vn 0.653200 0.000000 -0.757100
vn -0.059500 -0.499100 -0.864500
vn 0.653200 -0.378600 -0.655700
vn -0.059500 -0.864500 -0.499100
vn 0.653200 -0.655700 -0.378600
vn -0.059500 -0.998200 -0.000000
vn 0.653200 -0.757100 0.000000
vn -0.059500 -0.864500 0.499100
vn 0.653200 -0.655700 0.378600
vn -0.059500 -0.499100 0.864500
vn 0.653200 -0.378600 0.655700
vn -0.059500 0.000000 0.998200
vn 0.653200 0.000000 0.757100
vn -0.059500 0.499100 0.864500
vn 0.653200 0.378600 0.655700
vn -0.059500 0.864500 0.499100
vn 0.653200 0.655700 0.378600
vn -0.697200 -0.716900 -0.000000
vn -0.697200 -0.620800 -0.358400
vn -0.697200 -0.358400 -0.620800
vn -0.697200 0.000000 -0.716900
vn -0.697200 0.620800 0.358400
vn -0.697200 0.620800 -0.358400
vn -0.697200 0.716900 -0.000000
vn -0.697200 0.358400 -0.620800
vn -0.697200 0.358400 0.620800
vn -0.697200 0.000000 0.716900
vn -0.697200 -0.358400 0.620800
vn -0.697200 -0.620800 0.358400
vn 0.653200 0.655700 -0.378600
o Cube.001_Cube.002
usemtl texture
s off
f 1/1/1 2/2/1 3/3/1
f 4/4/2 1/1/2 5/5/2
f 6/6/3 7/7/3 8/8/3
f 9/9/4 10/10/4 11/11/4
f 8/12/5 12/13/5 6/14/5
f 3/3/6 5/15/6 1/1/6
f 7/16/7 3/3/7 2/2/7
f 13/17/1 14/18/1 15/19/1
f 16/20/2 17/21/2 18/22/2
f 19/23/8 20/24/8 21/25/8
f 22/26/4 16/20/4 23/27/4
f 17/21/9 21/28/9 20/29/9
f 18/30/10 15/19/10 14/18/10
f 19/31/7 21/32/7 22/33/7
f 24/34/8 25/35/8 26/36/8
f 27/37/4 28/38/4 25/35/4
f 29/39/3 30/40/3 28/38/3
f 31/41/1 26/36/1 30/42/1
f 27/37/8 24/34/8 32/43/8
f 31/41/11 32/44/11 24/34/11
f 27/37/12 33/45/12 29/39/12
f 31/46/3 29/39/3 33/47/3
f 34/48/13 35/49/13 36/50/13
f 35/49/4 37/51/4 38/52/4
f 37/51/14 39/53/14 38/52/14
f 39/54/1 34/48/1 36/50/1
f 40/55/13 34/48/13 41/56/13
f 42/57/15 41/58/15 34/48/15
f 40/55/16 43/59/16 37/51/16
f 42/60/14 37/51/14 43/61/14
f 44/62/17 45/63/17 46/64/17
f 45/63/4 47/65/4 48/66/4
f 48/66/18 49/67/18 50/68/18
f 49/69/1 46/64/1 50/70/1
f 51/71/17 44/62/17 52/72/17
f 49/69/19 52/73/19 44/62/19
f 47/65/20 52/74/20 53/75/20
f 49/67/18 47/65/18 53/76/18
f 54/77/3 55/78/3 56/79/3
f 57/80/4 58/81/4 55/78/4
f 58/81/8 59/82/8 60/83/8
f 59/84/1 56/79/1 60/85/1
f 57/80/3 54/77/3 61/86/3
f 54/77/21 62/87/21 61/88/21
f 57/80/22 62/89/22 63/90/22
f 59/82/8 63/90/8 62/91/8
f 64/92/14 65/93/14 66/94/14
f 67/95/4 68/96/4 65/93/4
f 69/97/13 70/98/13 68/96/13
f 71/99/1 66/94/1 70/100/1
f 67/95/14 64/92/14 72/101/14
f 64/92/23 73/102/23 72/103/23
f 67/95/24 73/104/24 69/97/24
f 71/105/13 69/97/13 73/106/13
f 74/107/18 75/108/18 76/109/18
f 75/108/4 77/110/4 76/109/4
f 77/110/17 78/111/17 79/112/17
f 78/113/1 74/107/1 79/114/1
f 75/108/18 80/115/18 81/116/18
f 80/115/25 82/117/25 81/118/25
f 75/108/26 82/119/26 83/120/26
f 78/111/17 83/120/17 82/121/17
f 84/122/27 85/123/27 86/124/27
f 85/125/28 87/126/28 88/127/28
f 84/122/29 89/128/29 90/129/29
f 89/128/4 91/130/4 90/129/4
f 84/131/30 92/132/30 89/128/30
f 93/133/31 87/126/31 85/134/31
f 88/127/1 94/135/1 95/136/1
f 96/137/29 97/138/29 98/139/29
f 97/140/27 99/141/27 100/142/27
f 96/137/32 101/143/32 102/144/32
f 101/143/4 103/145/4 102/144/4
f 96/146/33 104/147/33 101/143/33
f 105/148/34 99/141/34 97/149/34
f 99/141/1 106/150/1 100/142/1
f 107/151/32 108/152/32 109/153/32
f 108/154/29 110/155/29 111/156/29
f 107/151/28 112/157/28 113/158/28
f 113/158/4 114/159/4 115/160/4
f 109/161/35 112/157/35 107/162/35
f 108/163/36 116/164/36 110/155/36
f 111/156/1 116/164/1 117/165/1
f 118/166/28 119/167/28 120/168/28
f 120/169/32 121/170/32 122/171/32
f 123/172/27 124/173/27 125/174/27
f 125/174/4 126/175/4 127/176/4
f 118/177/37 124/173/37 123/178/37
f 120/179/38 128/180/38 121/170/38
f 121/170/1 129/181/1 122/171/1
f 130/182/1 131/183/1 132/184/1
f 133/185/4 134/186/4 135/187/4
f 1/1/1 4/4/1 2/2/1
f 5/5/2 6/6/2 12/13/2
f 12/13/2 9/9/2 5/5/2
f 9/9/2 4/4/2 5/5/2
f 6/6/3 5/5/3 7/7/3
f 9/9/4 12/13/4 10/10/4
f 8/12/5 10/10/5 12/13/5
f 3/3/6 7/188/6 5/15/6
f 2/2/7 11/189/7 7/16/7
f 11/189/7 10/190/7 7/16/7
f 10/190/7 8/191/7 7/16/7
f 13/17/1 136/192/1 14/18/1
f 17/21/2 20/24/2 18/22/2
f 18/22/2 14/18/2 136/192/2
f 136/192/2 16/20/2 18/22/2
f 19/23/8 18/22/8 20/24/8
f 22/26/4 17/21/4 16/20/4
f 17/21/9 22/26/9 21/28/9
f 18/30/10 19/193/10 15/19/10
f 22/33/7 23/194/7 19/31/7
f 23/194/7 13/17/7 19/31/7
f 13/17/7 15/19/7 19/31/7
f 24/34/8 27/37/8 25/35/8
f 27/37/4 29/39/4 28/38/4
f 29/39/3 31/46/3 30/40/3
f 31/41/1 24/34/1 26/36/1
f 31/41/11 33/195/11 32/44/11
f 27/37/12 32/196/12 33/45/12
f 34/48/13 40/55/13 35/49/13
f 35/49/4 40/55/4 37/51/4
f 37/51/14 42/60/14 39/53/14
f 39/54/1 42/57/1 34/48/1
f 42/57/15 43/197/15 41/58/15
f 40/55/16 41/198/16 43/59/16
f 44/62/17 51/71/17 45/63/17
f 45/63/4 51/71/4 47/65/4
f 48/66/18 47/65/18 49/67/18
f 49/69/1 44/62/1 46/64/1
f 49/69/19 53/199/19 52/73/19
f 47/65/20 51/71/20 52/74/20
f 54/77/3 57/80/3 55/78/3
f 57/80/4 63/90/4 58/81/4
f 58/81/8 63/90/8 59/82/8
f 59/84/1 54/77/1 56/79/1
f 54/77/21 59/84/21 62/87/21
f 57/80/22 61/200/22 62/89/22
f 64/92/14 67/95/14 65/93/14
f 67/95/4 69/97/4 68/96/4
f 69/97/13 71/105/13 70/98/13
f 71/99/1 64/92/1 66/94/1
f 64/92/23 71/99/23 73/102/23
f 67/95/24 72/201/24 73/104/24
f 74/107/18 80/115/18 75/108/18
f 75/108/4 83/120/4 77/110/4
f 77/110/17 83/120/17 78/111/17
f 78/113/1 80/115/1 74/107/1
f 80/115/25 78/113/25 82/117/25
f 75/108/26 81/202/26 82/119/26
f 84/122/27 93/203/27 85/123/27
f 88/127/28 91/130/28 86/204/28
f 91/130/28 92/132/28 86/204/28
f 86/204/28 85/125/28 88/127/28
f 90/129/29 95/205/29 93/203/29
f 95/205/29 94/206/29 93/203/29
f 93/203/29 84/122/29 90/129/29
f 89/128/4 92/132/4 91/130/4
f 84/131/30 86/207/30 92/132/30
f 93/133/31 94/135/31 87/126/31
f 88/127/1 87/126/1 94/135/1
f 96/137/29 105/208/29 97/138/29
f 100/142/27 103/145/27 98/209/27
f 103/145/27 104/147/27 98/209/27
f 98/209/27 97/140/27 100/142/27
f 102/144/32 106/210/32 105/208/32
f 106/210/32 137/211/32 105/208/32
f 105/208/32 96/137/32 102/144/32
f 101/143/4 104/147/4 103/145/4
f 96/146/33 98/212/33 104/147/33
f 105/148/34 137/213/34 99/141/34
f 99/141/1 137/213/1 106/150/1
f 107/151/32 138/214/32 108/152/32
f 111/156/29 115/160/29 109/215/29
f 115/160/29 114/159/29 109/215/29
f 109/215/29 108/154/29 111/156/29
f 113/158/28 117/216/28 138/214/28
f 117/216/28 116/217/28 138/214/28
f 138/214/28 107/151/28 113/158/28
f 113/158/4 112/157/4 114/159/4
f 109/161/35 114/159/35 112/157/35
f 108/163/36 138/218/36 116/164/36
f 111/156/1 110/155/1 116/164/1
f 118/166/28 123/172/28 119/167/28
f 122/171/32 127/176/32 118/219/32
f 127/176/32 126/175/32 118/219/32
f 118/219/32 120/169/32 122/171/32
f 125/174/27 129/220/27 119/167/27
f 129/220/27 128/221/27 119/167/27
f 119/167/27 123/172/27 125/174/27
f 125/174/4 124/173/4 126/175/4
f 118/177/37 126/175/37 124/173/37
f 120/179/38 119/222/38 128/180/38
f 121/170/1 128/180/1 129/181/1
f 132/184/1 139/223/1 140/224/1
f 140/224/1 141/225/1 130/182/1
f 130/182/1 142/226/1 131/183/1
f 142/226/1 143/227/1 131/183/1
f 143/227/1 144/228/1 131/183/1
f 131/183/1 145/229/1 146/230/1
f 146/230/1 147/231/1 132/184/1
f 132/184/1 140/224/1 130/182/1
f 131/183/1 146/230/1 132/184/1
f 134/186/4 148/232/4 149/233/4
f 149/233/4 150/234/4 135/187/4
f 135/187/4 151/235/4 152/236/4
f 152/236/4 153/237/4 135/187/4
f 153/237/4 154/238/4 135/187/4
f 154/238/4 155/239/4 133/185/4
f 133/185/4 156/240/4 134/186/4
f 134/186/4 149/233/4 135/187/4
f 154/238/4 133/185/4 135/187/4
f 140/241/39 157/242/40 158/243/41
f 157/242/40 132/244/42 159/245/43
f 132/244/42 160/246/44 159/245/43
f 147/247/45 161/248/46 160/246/44
f 146/249/47 162/250/48 161/248/46
f 145/251/49 163/252/50 162/250/48
f 131/253/51 164/254/52 163/255/50
f 144/256/53 165/257/54 164/254/52
f 143/258/55 166/259/56 165/257/54
f 142/260/57 167/261/58 166/259/56
f 130/262/59 168/263/60 167/261/58
f 141/264/61 158/243/41 168/263/60
f 164/254/52 153/265/62 163/255/50
f 162/250/48 153/266/62 152/267/63
f 162/250/48 151/268/64 161/248/46
f 161/248/46 135/269/65 160/246/44
f 158/243/41 134/270/66 168/263/60
f 158/243/41 149/271/67 148/272/68
f 160/246/44 150/273/69 159/245/43
f 167/261/58 134/274/66 156/275/70
f 159/245/43 149/276/67 157/242/40
f 166/259/56 156/277/70 133/278/71
f 166/259/56 155/279/72 165/257/54
f 165/257/54 154/280/73 164/254/52
f 140/241/39 139/281/74 157/242/40
f 157/242/40 139/281/74 132/244/42
f 132/244/42 147/247/45 160/246/44
f 147/247/45 146/249/47 161/248/46
f 146/249/47 145/251/49 162/250/48
f 145/251/49 131/282/51 163/252/50
f 131/253/51 144/256/53 164/254/52
f 144/256/53 143/258/55 165/257/54
f 143/258/55 142/260/57 166/259/56
f 142/260/57 130/262/59 167/261/58
f 130/262/59 141/264/61 168/263/60
f 141/264/61 140/241/39 158/243/41
f 164/254/52 154/283/73 153/265/62
f 162/250/48 163/252/50 153/266/62
f 162/250/48 152/284/63 151/268/64
f 161/248/46 151/285/64 135/269/65
f 158/243/41 148/286/68 134/270/66
f 158/243/41 157/242/40 149/271/67
f 160/246/44 135/287/65 150/273/69
f 167/261/58 168/263/60 134/274/66
f 159/245/43 150/288/69 149/276/67
f 166/259/56 167/261/58 156/277/70
f 166/259/56 133/289/71 155/279/72
f 165/257/54 155/290/72 154/280/73
