mtllib dud_salted_item.mtl
v 0.159091 0.355365 0.347329
v 0.022727 0.415629 0.383488
v 0.159091 0.403576 0.395541
v 0.022727 0.335276 0.367417
v 0.022727 0.383488 0.415629
v 0.159091 0.395541 0.403576
v 0.159091 0.347329 0.355364
v 0.022727 0.367417 0.335276
v 0.147727 0.403576 0.363400
v 0.136364 0.419647 0.379470
v 0.147727 0.419647 0.379470
v 0.136364 0.363400 0.403576
v 0.136364 0.379470 0.419647
v 0.147727 0.379470 0.419647
v 0.136364 0.403576 0.363400
v 0.147727 0.363400 0.403576
v 0.125000 0.403576 0.363400
v 0.113637 0.419647 0.379470
v 0.125000 0.419647 0.379470
v 0.113637 0.403576 0.363400
v 0.113637 0.379470 0.419647
v 0.125000 0.363400 0.403576
v 0.125000 0.379470 0.419647
v 0.113637 0.363400 0.403576
v 0.159091 0.347329 0.644635
v 0.022728 0.383488 0.584371
v 0.159091 0.395541 0.596424
v 0.022727 0.335276 0.632583
v 0.022728 0.415629 0.616512
v 0.159091 0.355365 0.652671
v 0.159091 0.403576 0.604459
v 0.022728 0.367417 0.664724
v 0.147728 0.363400 0.596424
v 0.136364 0.379470 0.580353
v 0.147728 0.379470 0.580353
v 0.136364 0.363400 0.596424
v 0.136364 0.419647 0.620530
v 0.147728 0.403576 0.636600
v 0.147728 0.419647 0.620530
v 0.136364 0.403576 0.636600
v 0.125000 0.363400 0.596424
v 0.113637 0.379470 0.580353
v 0.125000 0.379470 0.580353
v 0.113637 0.363400 0.596424
v 0.113637 0.419647 0.620530
v 0.125000 0.403576 0.636600
v 0.125000 0.419647 0.620530
v 0.113637 0.403576 0.636600
v 0.159091 0.644635 0.652671
v 0.022728 0.584371 0.616512
v 0.159091 0.596424 0.604459
v 0.022728 0.632583 0.664724
v 0.022728 0.616512 0.584371
v 0.022728 0.664724 0.632583
v 0.159091 0.604459 0.596424
v 0.159091 0.652671 0.644635
v 0.147728 0.596424 0.636600
v 0.136364 0.580353 0.620530
v 0.147728 0.580353 0.620530
v 0.136364 0.596424 0.636600
v 0.136364 0.620530 0.580353
v 0.136364 0.636600 0.596424
v 0.147728 0.620530 0.580353
v 0.147728 0.636600 0.596424
v 0.125000 0.596424 0.636600
v 0.113637 0.580353 0.620530
v 0.125000 0.580353 0.620530
v 0.113637 0.596424 0.636600
v 0.113637 0.620530 0.580353
v 0.113637 0.636600 0.596424
v 0.125000 0.620530 0.580353
v 0.125000 0.636600 0.596424
v 0.159091 0.652671 0.355364
v 0.022728 0.616512 0.415629
v 0.159091 0.604459 0.403576
v 0.022728 0.632583 0.335276
v 0.022728 0.584371 0.383488
v 0.159091 0.596424 0.395541
v 0.159091 0.644635 0.347329
v 0.022728 0.664724 0.367417
v 0.147728 0.636600 0.403576
v 0.136364 0.620530 0.419647
v 0.147728 0.620530 0.419647
v 0.136364 0.636600 0.403576
v 0.136364 0.580353 0.379470
v 0.136364 0.596424 0.363400
v 0.147728 0.580353 0.379470
v 0.147728 0.596424 0.363400
v 0.125001 0.636600 0.403576
v 0.113637 0.620530 0.419647
v 0.125001 0.620530 0.419647
v 0.113637 0.636600 0.403576
v 0.113637 0.580353 0.379470
v 0.125001 0.596424 0.363400
v 0.125001 0.580353 0.379470
v 0.113637 0.596424 0.363400
v 0.988636 0.383779 0.505682
v 0.965909 0.383779 0.494318
v 0.988636 0.383779 0.494318
v 0.965909 0.395143 0.505682
v 0.988636 0.395143 0.494318
v 0.965909 0.395143 0.494318
v 0.988636 0.395143 0.505682
v 0.965909 0.383779 0.505682
v 0.988636 0.446810 0.603491
v 0.965909 0.436969 0.597809
v 0.988636 0.436969 0.597809
v 0.965909 0.452492 0.593650
v 0.988636 0.442651 0.587968
v 0.965909 0.442651 0.587968
v 0.988636 0.452492 0.593650
v 0.965909 0.446810 0.603491
v 0.988636 0.563031 0.597809
v 0.965909 0.553189 0.603491
v 0.988636 0.553189 0.603491
v 0.965909 0.557349 0.587968
v 0.988636 0.547508 0.593650
v 0.965909 0.547508 0.593650
v 0.988636 0.557349 0.587968
v 0.965909 0.563031 0.597809
v 0.988636 0.616220 0.494318
v 0.965909 0.616220 0.505682
v 0.988636 0.616220 0.505682
v 0.965909 0.604857 0.494318
v 0.988636 0.604857 0.505682
v 0.965909 0.604857 0.505682
v 0.988636 0.604857 0.494318
v 0.988636 0.553190 0.396509
v 0.965909 0.563031 0.402191
v 0.988636 0.563031 0.402191
v 0.965909 0.547508 0.406350
v 0.988636 0.557349 0.412032
v 0.965909 0.557349 0.412032
v 0.988636 0.547508 0.406350
v 0.965909 0.553190 0.396509
v 0.988636 0.436969 0.402191
v 0.965909 0.446810 0.396509
v 0.988636 0.446810 0.396509
v 0.965909 0.442651 0.412032
v 0.988636 0.452492 0.406350
v 0.965909 0.452492 0.406350
v 0.988636 0.442651 0.412032
v 0.000000 0.369859 0.500000
v 0.000000 0.366918 0.576835
v 0.000000 0.387295 0.565071
v 0.000000 0.423165 0.633082
v 0.000000 0.434929 0.612705
v 0.000000 0.500000 0.630141
v 0.000000 0.500000 0.653670
v 0.000000 0.576835 0.633082
v 0.000000 0.565071 0.612705
v 0.000000 0.633082 0.576835
v 0.000000 0.612706 0.565071
v 0.000000 0.653670 0.500000
v 0.000000 0.630141 0.500000
v 0.000000 0.612706 0.434929
v 0.000000 0.633082 0.423165
v 0.000000 0.576835 0.366918
v 0.000000 0.565071 0.387295
v 0.000000 0.500000 0.346330
v 0.000000 0.500000 0.369859
v 0.000000 0.434929 0.387294
v 0.000000 0.423165 0.366918
v 0.000000 0.366918 0.423165
v 0.000000 0.387295 0.434929
v 0.000000 0.346330 0.500000
v 0.090909 0.500000 0.630141
v 0.090909 0.612706 0.434929
v 0.090909 0.387295 0.434929
v 0.454545 0.369859 0.500000
v 0.454545 0.366918 0.576835
v 0.454545 0.346330 0.500000
v 0.454545 0.434929 0.612705
v 0.454545 0.387294 0.565071
v 0.454545 0.500000 0.630141
v 0.454545 0.423165 0.633082
v 0.454545 0.565071 0.612705
v 0.454545 0.500000 0.653670
v 0.454545 0.612705 0.565071
v 0.454545 0.576835 0.633082
v 0.454545 0.653670 0.500000
v 0.454545 0.633082 0.576835
v 0.454545 0.612705 0.434929
v 0.454545 0.630141 0.500000
v 0.454545 0.565071 0.387295
v 0.454545 0.633082 0.423165
v 0.454545 0.500000 0.369859
v 0.454545 0.576835 0.366918
v 0.454545 0.423165 0.366918
v 0.454545 0.500000 0.346330
v 0.454545 0.434929 0.387294
v 0.454545 0.366918 0.423165
v 0.454545 0.387295 0.434929
v 0.431818 0.369859 0.500000
v 0.431818 0.366918 0.576835
v 0.431818 0.387294 0.565071
v 0.431818 0.423165 0.633082
v 0.431818 0.434929 0.612705
v 0.431818 0.500000 0.653670
v 0.431818 0.500000 0.630141
v 0.431818 0.576835 0.633082
v 0.431818 0.565071 0.612705
v 0.431818 0.612705 0.565071
v 0.431818 0.633082 0.576835
v 0.431818 0.653670 0.500000
v 0.431818 0.630141 0.500000
v 0.431818 0.612705 0.434929
v 0.431818 0.633082 0.423165
v 0.431818 0.576835 0.366918
v 0.431818 0.565071 0.387295
v 0.431818 0.500000 0.346330
v 0.431818 0.500000 0.369859
v 0.431818 0.423165 0.366918
v 0.431818 0.434929 0.387294
v 0.431818 0.366918 0.423165
v 0.431818 0.387295 0.434929
v 0.431818 0.346330 0.500000
v 0.818182 0.369859 0.500000
v 0.818182 0.366918 0.576835
v 0.818182 0.346330 0.500000
v 0.818182 0.434929 0.612705
v 0.818182 0.387294 0.565071
v 0.818182 0.500000 0.630141
v 0.818182 0.423165 0.633082
v 0.818182 0.576835 0.633082
v 0.818182 0.500000 0.653670
v 0.818182 0.612705 0.565071
v 0.818182 0.565071 0.612705
v 0.818182 0.653670 0.500000
v 0.818182 0.633082 0.576835
v 0.818182 0.612705 0.434929
v 0.818182 0.630141 0.500000
v 0.818182 0.565071 0.387295
v 0.818182 0.633082 0.423165
v 0.818182 0.500000 0.346330
v 0.818182 0.576835 0.366918
v 0.818182 0.434929 0.387294
v 0.818182 0.500000 0.369859
v 0.818182 0.366918 0.423165
v 0.818182 0.423165 0.366918
v 0.818182 0.387294 0.434929
v 0.795455 0.369859 0.500000
v 0.795455 0.366918 0.576835
v 0.795455 0.387294 0.565071
v 0.795455 0.423165 0.633082
v 0.795455 0.434929 0.612705
v 0.795455 0.500000 0.653670
v 0.795455 0.500000 0.630141
v 0.795455 0.576835 0.633082
v 0.795455 0.565071 0.612705
v 0.795455 0.612705 0.565071
v 0.795455 0.633082 0.576835
v 0.795455 0.653670 0.500000
v 0.795455 0.630141 0.500000
v 0.795455 0.633082 0.423165
v 0.795455 0.612705 0.434929
v 0.795455 0.576835 0.366918
v 0.795455 0.565071 0.387295
v 0.795455 0.500000 0.346330
v 0.795455 0.500000 0.369859
v 0.795455 0.423165 0.366918
v 0.795455 0.434929 0.387294
v 0.795455 0.366918 0.423165
v 0.795455 0.387294 0.434929
v 0.795455 0.346330 0.500000
v 0.181818 0.369859 0.500000
v 0.181818 0.366918 0.576835
v 0.181818 0.346330 0.500000
v 0.181818 0.434929 0.612705
v 0.181818 0.387295 0.565071
v 0.181818 0.500000 0.630141
v 0.181818 0.423165 0.633082
v 0.181818 0.565071 0.612705
v 0.181818 0.500000 0.653670
v 0.181818 0.612706 0.565071
v 0.181818 0.576835 0.633082
v 0.181818 0.653670 0.500000
v 0.181818 0.633082 0.576835
v 0.181818 0.612706 0.434929
v 0.181818 0.630141 0.500000
v 0.181818 0.565071 0.387295
v 0.181818 0.633082 0.423165
v 0.181818 0.500000 0.369859
v 0.181818 0.576835 0.366918
v 0.181818 0.423165 0.366918
v 0.181818 0.500000 0.346330
v 0.181818 0.434929 0.387294
v 0.181818 0.366918 0.423165
v 0.181818 0.387295 0.434929
v 0.965909 0.616220 0.494318
v 0.965909 0.436969 0.402191
v 0.090909 0.369859 0.500000
v 0.090909 0.387295 0.565071
v 0.090909 0.434929 0.612705
v 0.090909 0.565071 0.612705
v 0.090909 0.612706 0.565071
v 0.090909 0.630141 0.500000
v 0.090909 0.565071 0.387295
v 0.090909 0.500000 0.369859
v 0.090909 0.434929 0.387294
v 0.954545 0.368283 0.500000
v 0.181818 0.385929 0.565859
v 0.181818 0.368283 0.500000
v 0.954545 0.385929 0.565859
v 0.181818 0.434141 0.614071
v 0.954545 0.434141 0.614071
v 0.181818 0.500000 0.631717
v 0.954545 0.500000 0.631717
v 0.181818 0.565859 0.614071
v 0.954545 0.614070 0.565859
v 0.181818 0.614071 0.565859
v 0.181818 0.631717 0.500000
v 0.954545 0.614070 0.434141
v 0.181818 0.614071 0.434141
v 0.181818 0.565859 0.385929
v 0.954545 0.565859 0.385929
v 0.181818 0.500000 0.368283
v 0.954545 0.500000 0.368283
v 0.181818 0.434141 0.385929
v 1.000000 0.587811 0.500000
v 0.954545 0.631717 0.500000
v 0.954545 0.434141 0.385929
v 0.181818 0.385929 0.434141
v 0.954545 0.385929 0.434141
v 0.954545 0.565859 0.614071
v 1.000000 0.576047 0.543906
v 1.000000 0.543906 0.576047
v 1.000000 0.423953 0.456094
v 1.000000 0.412188 0.500000
v 1.000000 0.423953 0.543906
v 1.000000 0.500000 0.587811
v 1.000000 0.456094 0.423953
v 1.000000 0.456094 0.576047
v 1.000000 0.500000 0.412189
v 1.000000 0.543906 0.423953
v 1.000000 0.576047 0.456094
vt 0.909091 0.720930
vt 0.973262 0.790698
vt 0.909091 0.790698
vt 0.994652 0.604651
vt 0.973262 0.674419
vt 0.973262 0.604651
vt 0.909091 0.604651
vt 0.903743 0.720930
vt 0.903743 0.790698
vt 0.973262 0.720930
vt 0.909091 0.691860
vt 0.898396 0.686046
vt 0.893048 0.662791
vt 0.898396 0.662791
vt 0.866310 0.686046
vt 0.866310 0.662791
vt 0.860963 0.697674
vt 0.866310 0.720930
vt 0.860963 0.720930
vt 0.893048 0.697674
vt 0.893048 0.720930
vt 0.893048 0.686046
vt 0.866310 0.697674
vt 0.898396 0.755814
vt 0.893048 0.732558
vt 0.898396 0.732558
vt 0.893048 0.755814
vt 0.866310 0.732558
vt 0.860963 0.790698
vt 0.866310 0.767442
vt 0.866310 0.790698
vt 0.893048 0.790698
vt 0.866310 0.755814
vt 0.909091 0.523256
vt 0.973262 0.593023
vt 0.909091 0.593023
vt 0.994652 0.476744
vt 0.973262 0.406977
vt 0.994652 0.406977
vt 0.909091 0.476744
vt 0.909091 0.406977
vt 0.903743 0.523256
vt 0.903743 0.593023
vt 0.973262 0.523256
vt 0.909091 0.494186
vt 0.973262 0.476744
vt 0.898396 0.488372
vt 0.893048 0.465116
vt 0.898396 0.465116
vt 0.893048 0.488372
vt 0.866310 0.465116
vt 0.860963 0.523256
vt 0.866310 0.500000
vt 0.866310 0.523256
vt 0.893048 0.523256
vt 0.866310 0.488372
vt 0.898396 0.558140
vt 0.893048 0.534884
vt 0.898396 0.534884
vt 0.893048 0.558140
vt 0.866310 0.534884
vt 0.860963 0.593023
vt 0.866310 0.569767
vt 0.866310 0.593023
vt 0.893048 0.569767
vt 0.893048 0.593023
vt 0.866310 0.558140
vt 0.909091 0.325581
vt 0.973262 0.395349
vt 0.909091 0.395349
vt 0.994652 0.279070
vt 0.973262 0.209302
vt 0.994652 0.209302
vt 0.973262 0.279070
vt 0.909091 0.209302
vt 0.903743 0.325581
vt 0.903743 0.395349
vt 0.973262 0.325581
vt 0.909091 0.296512
vt 0.898396 0.290698
vt 0.893048 0.267442
vt 0.898396 0.267442
vt 0.893048 0.290698
vt 0.866310 0.267442
vt 0.860963 0.302326
vt 0.866310 0.325581
vt 0.860963 0.325581
vt 0.866310 0.302326
vt 0.893048 0.325581
vt 0.866310 0.290698
vt 0.898396 0.360465
vt 0.893048 0.337209
vt 0.898396 0.337209
vt 0.893048 0.360465
vt 0.866310 0.337209
vt 0.860963 0.372093
vt 0.866310 0.395349
vt 0.860963 0.395349
vt 0.893048 0.372093
vt 0.893048 0.395349
vt 0.866310 0.372093
vt 0.866310 0.360465
vt 0.909091 0.918605
vt 0.973262 0.988372
vt 0.909091 0.988372
vt 0.994652 0.802326
vt 0.973262 0.872093
vt 0.973262 0.802326
vt 0.909091 0.802326
vt 0.903743 0.918605
vt 0.903743 0.988372
vt 0.973262 0.918605
vt 0.909091 0.889535
vt 0.898396 0.883721
vt 0.893048 0.860465
vt 0.898396 0.860465
vt 0.893048 0.883721
vt 0.866310 0.860465
vt 0.860963 0.895349
vt 0.866310 0.918605
vt 0.860963 0.918605
vt 0.866310 0.895349
vt 0.893048 0.918605
vt 0.866310 0.883721
vt 0.898396 0.953488
vt 0.893048 0.930233
vt 0.898396 0.930233
vt 0.893048 0.953488
vt 0.866310 0.930233
vt 0.860963 0.988372
vt 0.866310 0.965116
vt 0.866310 0.988372
vt 0.893048 0.965116
vt 0.893048 0.988372
vt 0.866310 0.953488
vt 0.834225 0.639535
vt 0.839572 0.616279
vt 0.839572 0.639535
vt 0.850267 0.616279
vt 0.844920 0.639535
vt 0.844920 0.616279
vt 0.834225 0.651163
vt 0.839572 0.651163
vt 0.834225 0.616279
vt 0.828877 0.639535
vt 0.828877 0.616279
vt 0.834225 0.593023
vt 0.839572 0.569767
vt 0.839572 0.593023
vt 0.850267 0.569767
vt 0.844920 0.593023
vt 0.844920 0.569767
vt 0.834225 0.604651
vt 0.839572 0.604651
vt 0.834225 0.569767
vt 0.828877 0.593023
vt 0.828877 0.569767
vt 0.834225 0.546512
vt 0.839572 0.523256
vt 0.839572 0.546512
vt 0.850267 0.523256
vt 0.844920 0.546512
vt 0.844920 0.523256
vt 0.834225 0.558140
vt 0.839572 0.558140
vt 0.834225 0.523256
vt 0.828877 0.546512
vt 0.828877 0.523256
vt 0.834225 0.500000
vt 0.839572 0.476744
vt 0.839572 0.500000
vt 0.850267 0.476744
vt 0.844920 0.500000
vt 0.844920 0.476744
vt 0.834225 0.511628
vt 0.839572 0.511628
vt 0.828877 0.476744
vt 0.828877 0.500000
vt 0.834225 0.453488
vt 0.839572 0.430233
vt 0.839572 0.453488
vt 0.850267 0.430233
vt 0.844920 0.453488
vt 0.844920 0.430233
vt 0.834225 0.465116
vt 0.839572 0.465116
vt 0.834225 0.430233
vt 0.828877 0.453488
vt 0.828877 0.430233
vt 0.834225 0.686047
vt 0.839572 0.662791
vt 0.839572 0.686047
vt 0.850267 0.662791
vt 0.844920 0.686047
vt 0.844920 0.662791
vt 0.834225 0.697674
vt 0.839572 0.697674
vt 0.828877 0.662791
vt 0.828877 0.686047
vt 0.679144 0.982558
vt 0.668449 0.906977
vt 0.679144 0.912791
vt 0.679144 0.901163
vt 0.668449 0.825581
vt 0.679144 0.831395
vt 0.679144 0.750000
vt 0.668449 0.744186
vt 0.679144 0.738372
vt 0.668449 0.662791
vt 0.679144 0.668605
vt 0.679144 0.656977
vt 0.668449 0.581395
vt 0.679144 0.587209
vt 0.679144 0.575581
vt 0.668449 0.500000
vt 0.679144 0.505814
vt 0.679144 0.424419
vt 0.668449 0.418605
vt 0.679144 0.412791
vt 0.668449 0.337209
vt 0.679144 0.343023
vt 0.679144 0.331395
vt 0.668449 0.255814
vt 0.679144 0.261628
vt 0.679144 0.180233
vt 0.668449 0.174419
vt 0.679144 0.168605
vt 0.668449 0.093023
vt 0.679144 0.098837
vt 0.679144 0.087209
vt 0.668449 0.011628
vt 0.679144 0.017442
vt 0.854372 0.855140
vt 0.763956 0.968649
vt 0.763956 0.741632
vt 0.534759 0.982558
vt 0.545455 0.906977
vt 0.545455 0.988372
vt 0.534759 0.831395
vt 0.534759 0.901163
vt 0.534759 0.750000
vt 0.545455 0.825581
vt 0.534759 0.819767
vt 0.534759 0.668605
vt 0.545455 0.744186
vt 0.534759 0.738372
vt 0.534759 0.587209
vt 0.545455 0.662791
vt 0.534759 0.656977
vt 0.534759 0.575581
vt 0.545455 0.500000
vt 0.545455 0.581395
vt 0.534759 0.424419
vt 0.534759 0.494186
vt 0.534759 0.343023
vt 0.545455 0.418605
vt 0.534759 0.412791
vt 0.534759 0.261628
vt 0.545455 0.337209
vt 0.534759 0.331395
vt 0.534759 0.250000
vt 0.545455 0.174419
vt 0.545455 0.255814
vt 0.534759 0.168605
vt 0.545455 0.093023
vt 0.534759 0.017442
vt 0.534759 0.087209
vt 0.566845 0.982558
vt 0.556150 0.906977
vt 0.566845 0.912791
vt 0.566845 0.901163
vt 0.556150 0.825581
vt 0.566845 0.831395
vt 0.566845 0.819767
vt 0.556150 0.744186
vt 0.566845 0.750000
vt 0.566845 0.738372
vt 0.556150 0.662791
vt 0.566845 0.668605
vt 0.566845 0.587209
vt 0.556150 0.581395
vt 0.566845 0.575581
vt 0.556150 0.500000
vt 0.566845 0.505814
vt 0.566845 0.424419
vt 0.556150 0.418605
vt 0.566845 0.412791
vt 0.556150 0.337209
vt 0.566845 0.343023
vt 0.566845 0.331395
vt 0.556150 0.255814
vt 0.566845 0.261628
vt 0.566845 0.250000
vt 0.556150 0.174419
vt 0.566845 0.180233
vt 0.566845 0.168605
vt 0.556150 0.093023
vt 0.566845 0.098837
vt 0.566845 0.017442
vt 0.556150 0.011628
vt 0.497326 0.982558
vt 0.508021 0.906977
vt 0.508021 0.988372
vt 0.497326 0.831395
vt 0.497326 0.901163
vt 0.497326 0.750000
vt 0.508021 0.825581
vt 0.497326 0.819767
vt 0.497326 0.738372
vt 0.508021 0.662791
vt 0.508021 0.744186
vt 0.497326 0.587209
vt 0.497326 0.656977
vt 0.497326 0.575581
vt 0.508021 0.500000
vt 0.508021 0.581395
vt 0.497326 0.424419
vt 0.497326 0.494186
vt 0.497326 0.343023
vt 0.508021 0.418605
vt 0.497326 0.412791
vt 0.497326 0.331395
vt 0.508021 0.255814
vt 0.508021 0.337209
vt 0.497326 0.180233
vt 0.497326 0.250000
vt 0.497326 0.168605
vt 0.508021 0.093023
vt 0.508021 0.174419
vt 0.497326 0.087209
vt 0.508021 0.011628
vt 0.529412 0.982558
vt 0.518717 0.906977
vt 0.529412 0.912791
vt 0.529412 0.901163
vt 0.518717 0.825581
vt 0.529412 0.831395
vt 0.529412 0.819767
vt 0.518717 0.744186
vt 0.529412 0.750000
vt 0.529412 0.738372
vt 0.518717 0.662791
vt 0.529412 0.668605
vt 0.529412 0.587209
vt 0.518717 0.581395
vt 0.529412 0.575581
vt 0.518717 0.500000
vt 0.529412 0.505814
vt 0.529412 0.494186
vt 0.518717 0.418605
vt 0.529412 0.424419
vt 0.529412 0.412791
vt 0.518717 0.337209
vt 0.529412 0.343023
vt 0.529412 0.331395
vt 0.518717 0.255814
vt 0.529412 0.261628
vt 0.529412 0.250000
vt 0.518717 0.174419
vt 0.529412 0.180233
vt 0.529412 0.168605
vt 0.518717 0.093023
vt 0.529412 0.098837
vt 0.529412 0.017442
vt 0.518717 0.011628
vt 0.572192 0.982558
vt 0.582888 0.906977
vt 0.582888 0.988372
vt 0.572192 0.831395
vt 0.572192 0.901163
vt 0.572192 0.750000
vt 0.582888 0.825581
vt 0.572192 0.819767
vt 0.572192 0.668605
vt 0.582888 0.744186
vt 0.572192 0.738372
vt 0.572192 0.587209
vt 0.582888 0.662791
vt 0.572192 0.656977
vt 0.572192 0.575581
vt 0.582888 0.500000
vt 0.582888 0.581395
vt 0.572192 0.424419
vt 0.572192 0.494186
vt 0.572192 0.343023
vt 0.582888 0.418605
vt 0.572192 0.412791
vt 0.572192 0.261628
vt 0.582888 0.337209
vt 0.572192 0.331395
vt 0.572192 0.250000
vt 0.582888 0.174419
vt 0.582888 0.255814
vt 0.572192 0.168605
vt 0.582888 0.093023
vt 0.572192 0.087209
vt 0.582888 0.011628
vt 0.994652 0.674419
vt 0.909091 0.674419
vt 0.909091 0.703488
vt 0.860963 0.767442
vt 0.893048 0.767442
vt 0.909091 0.505814
vt 0.860963 0.500000
vt 0.893048 0.500000
vt 0.860963 0.569767
vt 0.909091 0.279070
vt 0.909091 0.308140
vt 0.893048 0.302326
vt 0.994652 0.872093
vt 0.909091 0.872093
vt 0.909091 0.901163
vt 0.893048 0.895349
vt 0.860963 0.965116
vt 0.850267 0.639535
vt 0.850267 0.593023
vt 0.850267 0.546512
vt 0.834225 0.476744
vt 0.850267 0.500000
vt 0.850267 0.453488
vt 0.834225 0.662791
vt 0.850267 0.686047
vt 0.668449 0.988372
vt 0.679144 0.819767
vt 0.679144 0.494186
vt 0.679144 0.250000
vt 0.794095 0.724072
vt 0.824233 0.741632
vt 0.846296 0.789606
vt 0.846296 0.920674
vt 0.824233 0.968649
vt 0.794095 0.986208
vt 0.741893 0.920674
vt 0.733817 0.855140
vt 0.741893 0.789606
vt 0.534759 0.912791
vt 0.534759 0.505814
vt 0.534759 0.180233
vt 0.534759 0.098837
vt 0.545455 0.011628
vt 0.556150 0.988372
vt 0.566845 0.656977
vt 0.566845 0.494186
vt 0.566845 0.087209
vt 0.497326 0.912791
vt 0.497326 0.668605
vt 0.497326 0.505814
vt 0.497326 0.261628
vt 0.497326 0.098837
vt 0.497326 0.017442
vt 0.518717 0.988372
vt 0.529412 0.656977
vt 0.529412 0.087209
vt 0.572192 0.912791
vt 0.572192 0.505814
vt 0.572192 0.180233
vt 0.572192 0.098837
vt 0.572192 0.017442
vt 0.037433 0.988372
vt 0.401070 0.918605
vt 0.401070 0.988372
vt 0.037433 0.918605
vt 0.401070 0.848837
vt 0.037433 0.848837
vt 0.401070 0.779070
vt 0.037433 0.779070
vt 0.401070 0.709302
vt 0.037433 0.639535
vt 0.401070 0.639535
vt 0.401070 0.569767
vt 0.037433 0.500000
vt 0.401070 0.500000
vt 0.401070 0.430233
vt 0.037433 0.430233
vt 0.401070 0.360465
vt 0.037433 0.360465
vt 0.401070 0.290698
vt 0.005348 0.581395
vt 0.037433 0.569767
vt 0.037433 0.290698
vt 0.401070 0.220930
vt 0.037433 0.220930
vt 0.401070 0.151163
vt 0.037433 0.709302
vt 0.005348 0.651163
vt 0.005348 0.720930
vt 0.037433 0.151163
vt 0.005348 0.209302
vt 0.005348 0.162791
vt 0.005348 0.930233
vt 0.005348 0.790698
vt 0.005348 0.279070
vt 0.005348 0.232558
vt 0.005348 0.860465
vt 0.005348 0.302326
vt 0.005348 0.372093
vt 0.005348 0.441860
vt 0.005348 0.511628
vt 0.449231 0.987503
vt 0.412805 0.941775
vt 0.412805 0.850318
vt 0.684492 0.639535
vt 0.727273 0.709302
vt 0.684492 0.709302
vt 0.684492 0.220930
vt 0.727273 0.151163
vt 0.727273 0.220930
vt 0.684492 0.848837
vt 0.727273 0.918605
vt 0.684492 0.918605
vt 0.684492 0.360465
vt 0.727273 0.430233
vt 0.684492 0.430233
vt 0.684492 0.569767
vt 0.727273 0.639535
vt 0.684492 0.779070
vt 0.727273 0.848837
vt 0.684492 0.290698
vt 0.727273 0.360465
vt 0.684492 0.500000
vt 0.727273 0.569767
vt 0.727273 0.779070
vt 0.727273 0.290698
vt 0.727273 0.988372
vt 0.684492 0.988372
vt 0.727273 0.500000
vt 0.005348 0.627907
vt 0.005348 0.697674
vt 0.005348 0.767442
vt 0.005348 0.976744
vt 0.005348 0.837209
vt 0.005348 0.906977
vt 0.005348 0.348837
vt 0.005348 0.418605
vt 0.005348 0.488372
vt 0.005348 0.558140
vt 0.428200 0.816843
vt 0.449230 0.804590
vt 0.470261 0.816843
vt 0.485656 0.850318
vt 0.491291 0.896047
vt 0.485656 0.941775
vt 0.470261 0.975250
vt 0.428200 0.975250
vt 0.407170 0.896046
vt 0.684492 0.151163
vn 0.124000 0.701600 -0.701600
vn -1.000000 0.000000 -0.000000
vn 0.124000 -0.701600 0.701600
vn 1.000000 0.000000 0.000000
vn 0.000000 -0.707100 -0.707100
vn 0.000000 0.707100 -0.707100
vn -0.000000 -0.707100 0.707100
vn 0.124000 -0.701600 -0.701600
vn 0.124000 0.701600 0.701600
vn -0.000000 0.707100 0.707100
vn 0.000000 -1.000000 -0.000000
vn 0.000000 1.000000 0.000000
vn 0.000000 0.000000 -1.000000
vn -0.000000 0.000000 1.000000
vn -0.000000 -0.500000 0.866000
vn 0.000000 0.500000 -0.866000
vn 0.000000 -0.866000 -0.500000
vn -0.000000 0.866000 0.500000
vn -0.000000 0.500000 0.866000
vn 0.000000 -0.500000 -0.866000
vn -0.000000 -0.866000 0.500000
vn 0.000000 0.866000 -0.500000
vn 0.694700 0.622900 0.359600
vn 0.694700 0.719300 0.000000
vn 0.694700 0.359600 0.622900
vn 0.694700 0.000000 0.719300
vn 0.694700 -0.719300 0.000000
vn 0.694700 -0.622900 -0.359600
vn 0.694700 -0.622900 0.359600
vn 0.694700 -0.359600 0.622900
vn 0.694700 -0.359600 -0.622900
vn 0.694700 0.000000 -0.719300
vn 0.694700 0.359600 -0.622900
vn 0.694700 0.622900 -0.359600
o Cylinder.002
usemtl texture
s off
f 1/1/1 2/2/1 3/3/1
f 2/4/2 4/5/2 5/6/2
f 4/5/3 6/7/3 5/6/3
f 7/8/4 3/3/4 6/9/4
f 8/10/5 7/11/5 4/5/5
f 9/12/6 10/13/6 11/14/6
f 10/13/2 12/15/2 13/16/2
f 12/17/7 14/18/7 13/19/7
f 14/18/4 9/20/4 11/21/4
f 15/22/5 16/23/5 12/15/5
f 17/24/6 18/25/6 19/26/6
f 20/27/2 21/28/2 18/25/2
f 21/29/7 22/30/7 23/31/7
f 22/30/4 19/32/4 23/31/4
f 20/27/5 22/30/5 24/33/5
f 25/34/8 26/35/8 27/36/8
f 28/37/2 29/38/2 26/39/2
f 29/38/9 30/40/9 31/41/9
f 30/42/4 27/36/4 31/43/4
f 28/44/7 30/45/7 32/46/7
f 33/47/5 34/48/5 35/49/5
f 36/50/2 37/51/2 34/48/2
f 37/52/10 38/53/10 39/54/10
f 38/53/4 35/55/4 39/54/4
f 36/50/7 38/53/7 40/56/7
f 41/57/5 42/58/5 43/59/5
f 44/60/2 45/61/2 42/58/2
f 45/62/10 46/63/10 47/64/10
f 47/64/4 41/65/4 43/66/4
f 44/60/7 46/63/7 48/67/7
f 49/68/3 50/69/3 51/70/3
f 52/71/2 53/72/2 50/73/2
f 54/74/1 55/75/1 53/72/1
f 56/76/4 51/70/4 55/77/4
f 52/78/10 56/79/10 54/74/10
f 57/80/7 58/81/7 59/82/7
f 60/83/2 61/84/2 58/81/2
f 62/85/6 63/86/6 61/87/6
f 64/88/4 59/89/4 63/86/4
f 60/83/10 64/88/10 62/90/10
f 65/91/7 66/92/7 67/93/7
f 68/94/2 69/95/2 66/92/2
f 70/96/6 71/97/6 69/98/6
f 71/97/4 65/99/4 67/100/4
f 68/94/10 72/101/10 70/102/10
f 73/103/9 74/104/9 75/105/9
f 74/106/2 76/107/2 77/108/2
f 76/107/8 78/109/8 77/108/8
f 79/110/4 75/105/4 78/111/4
f 80/112/6 79/113/6 76/107/6
f 81/114/10 82/115/10 83/116/10
f 84/117/2 85/118/2 82/115/2
f 86/119/5 87/120/5 85/121/5
f 88/122/4 83/123/4 87/120/4
f 84/117/6 88/122/6 86/124/6
f 89/125/10 90/126/10 91/127/10
f 92/128/2 93/129/2 90/126/2
f 93/130/5 94/131/5 95/132/5
f 95/132/4 89/133/4 91/134/4
f 92/128/6 94/131/6 96/135/6
f 97/136/11 98/137/11 99/138/11
f 100/139/12 101/140/12 102/141/12
f 103/142/4 99/138/4 101/143/4
f 102/141/13 99/138/13 98/137/13
f 104/144/14 103/145/14 100/146/14
f 105/147/15 106/148/15 107/149/15
f 108/150/16 109/151/16 110/152/16
f 111/153/4 107/149/4 109/154/4
f 110/152/17 107/149/17 106/148/17
f 112/155/18 111/156/18 108/157/18
f 113/158/19 114/159/19 115/160/19
f 116/161/20 117/162/20 118/163/20
f 119/164/4 115/160/4 117/165/4
f 118/163/21 115/160/21 114/159/21
f 120/166/22 119/167/22 116/168/22
f 121/169/12 122/170/12 123/171/12
f 124/172/11 125/173/11 126/174/11
f 127/175/4 123/171/4 125/176/4
f 122/170/14 125/173/14 123/171/14
f 124/177/13 121/169/13 127/178/13
f 128/179/16 129/180/16 130/181/16
f 131/182/15 132/183/15 133/184/15
f 134/185/4 130/181/4 132/186/4
f 133/184/18 130/181/18 129/180/18
f 135/187/17 134/188/17 131/189/17
f 136/190/20 137/191/20 138/192/20
f 139/193/19 140/194/19 141/195/19
f 142/196/4 138/192/4 140/197/4
f 141/195/22 138/192/22 137/191/22
f 139/198/21 136/190/21 142/199/21
f 143/200/2 144/201/2 145/202/2
f 145/203/2 146/204/2 147/205/2
f 148/206/2 146/204/2 149/207/2
f 148/208/2 150/209/2 151/210/2
f 151/211/2 152/212/2 153/213/2
f 153/214/2 154/215/2 155/216/2
f 156/217/2 154/215/2 157/218/2
f 156/219/2 158/220/2 159/221/2
f 159/222/2 160/223/2 161/224/2
f 162/225/2 160/223/2 163/226/2
f 162/227/2 164/228/2 165/229/2
f 165/230/2 166/231/2 143/232/2
f 167/233/2 168/234/2 169/235/2
f 170/236/4 171/237/4 172/238/4
f 173/239/4 171/237/4 174/240/4
f 175/241/4 176/242/4 173/243/4
f 177/244/4 178/245/4 175/246/4
f 179/247/4 180/248/4 177/249/4
f 179/250/4 181/251/4 182/252/4
f 183/253/4 181/251/4 184/254/4
f 185/255/4 186/256/4 183/257/4
f 187/258/4 188/259/4 185/260/4
f 187/261/4 189/262/4 190/263/4
f 191/264/4 192/265/4 189/262/4
f 170/266/4 192/265/4 193/267/4
f 194/268/2 195/269/2 196/270/2
f 196/271/2 197/272/2 198/273/2
f 198/274/2 199/275/2 200/276/2
f 200/277/2 201/278/2 202/279/2
f 203/280/2 201/278/2 204/281/2
f 203/282/2 205/283/2 206/284/2
f 207/285/2 205/283/2 208/286/2
f 207/287/2 209/288/2 210/289/2
f 210/290/2 211/291/2 212/292/2
f 212/293/2 213/294/2 214/295/2
f 214/296/2 215/297/2 216/298/2
f 194/299/2 215/297/2 217/300/2
f 218/301/4 219/302/4 220/303/4
f 221/304/4 219/302/4 222/305/4
f 223/306/4 224/307/4 221/308/4
f 223/309/4 225/310/4 226/311/4
f 227/312/4 225/310/4 228/313/4
f 227/314/4 229/315/4 230/316/4
f 231/317/4 229/315/4 232/318/4
f 233/319/4 234/320/4 231/321/4
f 233/322/4 235/323/4 236/324/4
f 237/325/4 235/323/4 238/326/4
f 237/327/4 239/328/4 240/329/4
f 241/330/4 220/331/4 239/328/4
f 242/332/2 243/333/2 244/334/2
f 244/335/2 245/336/2 246/337/2
f 246/338/2 247/339/2 248/340/2
f 248/341/2 249/342/2 250/343/2
f 251/344/2 249/342/2 252/345/2
f 251/346/2 253/347/2 254/348/2
f 254/349/2 255/350/2 256/351/2
f 256/352/2 257/353/2 258/354/2
f 258/355/2 259/356/2 260/357/2
f 260/358/2 261/359/2 262/360/2
f 262/361/2 263/362/2 264/363/2
f 242/364/2 263/362/2 265/365/2
f 266/366/4 267/367/4 268/368/4
f 269/369/4 267/367/4 270/370/4
f 271/371/4 272/372/4 269/373/4
f 273/374/4 274/375/4 271/376/4
f 275/377/4 276/378/4 273/379/4
f 275/380/4 277/381/4 278/382/4
f 279/383/4 277/381/4 280/384/4
f 281/385/4 282/386/4 279/387/4
f 283/388/4 284/389/4 281/390/4
f 283/391/4 285/392/4 286/393/4
f 287/394/4 288/395/4 285/392/4
f 289/396/4 268/397/4 288/395/4
f 1/1/1 8/10/1 2/2/1
f 2/4/2 8/398/2 4/5/2
f 4/5/3 7/399/3 6/7/3
f 7/8/4 1/1/4 3/3/4
f 8/10/5 1/400/5 7/11/5
f 9/12/6 15/22/6 10/13/6
f 10/13/2 15/22/2 12/15/2
f 12/17/7 16/23/7 14/18/7
f 14/18/4 16/23/4 9/20/4
f 15/22/5 9/20/5 16/23/5
f 17/24/6 20/27/6 18/25/6
f 20/27/2 24/33/2 21/28/2
f 21/29/7 24/401/7 22/30/7
f 22/30/4 17/402/4 19/32/4
f 20/27/5 17/402/5 22/30/5
f 25/34/8 28/44/8 26/35/8
f 28/37/2 32/46/2 29/38/2
f 29/38/9 32/46/9 30/40/9
f 30/42/4 25/34/4 27/36/4
f 28/44/7 25/403/7 30/45/7
f 33/47/5 36/50/5 34/48/5
f 36/50/2 40/56/2 37/51/2
f 37/52/10 40/404/10 38/53/10
f 38/53/4 33/405/4 35/55/4
f 36/50/7 33/405/7 38/53/7
f 41/57/5 44/60/5 42/58/5
f 44/60/2 48/67/2 45/61/2
f 45/62/10 48/406/10 46/63/10
f 47/64/4 46/63/4 41/65/4
f 44/60/7 41/65/7 46/63/7
f 49/68/3 52/78/3 50/69/3
f 52/71/2 54/74/2 53/72/2
f 54/74/1 56/407/1 55/75/1
f 56/76/4 49/68/4 51/70/4
f 52/78/10 49/408/10 56/79/10
f 57/80/7 60/83/7 58/81/7
f 60/83/2 62/90/2 61/84/2
f 62/85/6 64/88/6 63/86/6
f 64/88/4 57/409/4 59/89/4
f 60/83/10 57/409/10 64/88/10
f 65/91/7 68/94/7 66/92/7
f 68/94/2 70/102/2 69/95/2
f 70/96/6 72/101/6 71/97/6
f 71/97/4 72/101/4 65/99/4
f 68/94/10 65/99/10 72/101/10
f 73/103/9 80/112/9 74/104/9
f 74/106/2 80/410/2 76/107/2
f 76/107/8 79/411/8 78/109/8
f 79/110/4 73/103/4 75/105/4
f 80/112/6 73/412/6 79/113/6
f 81/114/10 84/117/10 82/115/10
f 84/117/2 86/124/2 85/118/2
f 86/119/5 88/122/5 87/120/5
f 88/122/4 81/413/4 83/123/4
f 84/117/6 81/413/6 88/122/6
f 89/125/10 92/128/10 90/126/10
f 92/128/2 96/135/2 93/129/2
f 93/130/5 96/414/5 94/131/5
f 95/132/4 94/131/4 89/133/4
f 92/128/6 89/133/6 94/131/6
f 97/136/11 104/144/11 98/137/11
f 100/139/12 103/415/12 101/140/12
f 103/142/4 97/136/4 99/138/4
f 102/141/13 101/140/13 99/138/13
f 104/144/14 97/136/14 103/145/14
f 105/147/15 112/155/15 106/148/15
f 108/150/16 111/416/16 109/151/16
f 111/153/4 105/147/4 107/149/4
f 110/152/17 109/151/17 107/149/17
f 112/155/18 105/147/18 111/156/18
f 113/158/19 120/166/19 114/159/19
f 116/161/20 119/417/20 117/162/20
f 119/164/4 113/158/4 115/160/4
f 118/163/21 117/162/21 115/160/21
f 120/166/22 113/158/22 119/167/22
f 121/169/12 290/418/12 122/170/12
f 124/172/11 127/419/11 125/173/11
f 127/175/4 121/169/4 123/171/4
f 122/170/14 126/174/14 125/173/14
f 124/177/13 290/418/13 121/169/13
f 128/179/16 135/187/16 129/180/16
f 131/182/15 134/420/15 132/183/15
f 134/185/4 128/179/4 130/181/4
f 133/184/18 132/183/18 130/181/18
f 135/187/17 128/179/17 134/188/17
f 136/190/20 291/421/20 137/191/20
f 139/193/19 142/422/19 140/194/19
f 142/196/4 136/190/4 138/192/4
f 141/195/22 140/194/22 138/192/22
f 139/198/21 291/421/21 136/190/21
f 143/200/2 166/423/2 144/201/2
f 145/203/2 144/201/2 146/204/2
f 148/206/2 147/424/2 146/204/2
f 148/208/2 149/207/2 150/209/2
f 151/211/2 150/209/2 152/212/2
f 153/214/2 152/212/2 154/215/2
f 156/217/2 155/425/2 154/215/2
f 156/219/2 157/218/2 158/220/2
f 159/222/2 158/220/2 160/223/2
f 162/225/2 161/426/2 160/223/2
f 162/227/2 163/226/2 164/228/2
f 165/230/2 164/228/2 166/231/2
f 169/235/2 292/427/2 293/428/2
f 293/428/2 294/429/2 167/233/2
f 167/233/2 295/430/2 168/234/2
f 295/430/2 296/431/2 168/234/2
f 296/431/2 297/432/2 168/234/2
f 168/234/2 298/433/2 169/235/2
f 298/433/2 299/434/2 169/235/2
f 299/434/2 300/435/2 169/235/2
f 169/235/2 293/428/2 167/233/2
f 170/236/4 174/436/4 171/237/4
f 173/239/4 176/242/4 171/237/4
f 175/241/4 178/245/4 176/242/4
f 177/244/4 180/248/4 178/245/4
f 179/247/4 182/252/4 180/248/4
f 179/250/4 184/437/4 181/251/4
f 183/253/4 186/256/4 181/251/4
f 185/255/4 188/259/4 186/256/4
f 187/258/4 190/263/4 188/259/4
f 187/261/4 191/438/4 189/262/4
f 191/264/4 193/439/4 192/265/4
f 170/266/4 172/440/4 192/265/4
f 194/268/2 217/441/2 195/269/2
f 196/271/2 195/269/2 197/272/2
f 198/274/2 197/272/2 199/275/2
f 200/277/2 199/275/2 201/278/2
f 203/280/2 202/442/2 201/278/2
f 203/282/2 204/281/2 205/283/2
f 207/285/2 206/443/2 205/283/2
f 207/287/2 208/286/2 209/288/2
f 210/290/2 209/288/2 211/291/2
f 212/293/2 211/291/2 213/294/2
f 214/296/2 213/294/2 215/297/2
f 194/299/2 216/444/2 215/297/2
f 218/301/4 222/445/4 219/302/4
f 221/304/4 224/307/4 219/302/4
f 223/306/4 226/311/4 224/307/4
f 223/309/4 228/446/4 225/310/4
f 227/312/4 230/316/4 225/310/4
f 227/314/4 232/447/4 229/315/4
f 231/317/4 234/320/4 229/315/4
f 233/319/4 236/324/4 234/320/4
f 233/322/4 238/448/4 235/323/4
f 237/325/4 240/329/4 235/323/4
f 237/327/4 241/449/4 239/328/4
f 241/330/4 218/450/4 220/331/4
f 242/332/2 265/451/2 243/333/2
f 244/335/2 243/333/2 245/336/2
f 246/338/2 245/336/2 247/339/2
f 248/341/2 247/339/2 249/342/2
f 251/344/2 250/452/2 249/342/2
f 251/346/2 252/345/2 253/347/2
f 254/349/2 253/347/2 255/350/2
f 256/352/2 255/350/2 257/353/2
f 258/355/2 257/353/2 259/356/2
f 260/358/2 259/356/2 261/359/2
f 262/361/2 261/359/2 263/362/2
f 242/364/2 264/453/2 263/362/2
f 266/366/4 270/454/4 267/367/4
f 269/369/4 272/372/4 267/367/4
f 271/371/4 274/375/4 272/372/4
f 273/374/4 276/378/4 274/375/4
f 275/377/4 278/382/4 276/378/4
f 275/380/4 280/455/4 277/381/4
f 279/383/4 282/386/4 277/381/4
f 281/385/4 284/389/4 282/386/4
f 283/388/4 286/393/4 284/389/4
f 283/391/4 287/456/4 285/392/4
f 287/394/4 289/457/4 288/395/4
f 289/396/4 266/458/4 268/397/4
f 301/459/11 302/460/21 303/461/11
f 304/462/21 305/463/15 302/460/21
f 306/464/15 307/465/14 305/463/15
f 308/466/14 309/467/19 307/465/14
f 309/467/19 310/468/18 311/469/18
f 310/468/18 312/470/12 311/469/18
f 312/470/12 313/471/22 314/472/22
f 313/471/22 315/473/16 314/472/22
f 316/474/16 317/475/13 315/473/16
f 318/476/13 319/477/20 317/475/13
f 310/468/23 320/478/24 321/479/24
f 322/480/20 323/481/17 319/477/20
f 324/482/17 303/483/11 323/481/17
f 325/484/25 326/485/23 310/468/23
f 308/466/26 327/486/25 325/484/25
f 301/487/27 328/488/28 329/489/27
f 301/459/27 330/490/29 304/462/29
f 306/464/30 331/491/26 308/466/26
f 324/482/28 332/492/31 328/493/28
f 304/462/29 333/494/30 306/464/30
f 318/476/32 332/495/31 322/480/31
f 316/474/33 334/496/32 318/476/32
f 313/471/34 335/497/33 316/474/33
f 321/479/24 336/498/34 313/471/34
f 320/499/4 327/500/4 333/501/4
f 190/263/13 209/288/16 188/259/16
f 181/251/12 204/281/18 182/252/18
f 176/242/15 199/275/14 197/272/15
f 189/262/20 211/291/13 190/263/13
f 186/256/22 205/283/12 181/251/12
f 178/245/14 201/278/19 199/275/14
f 192/265/17 213/294/20 189/262/20
f 172/238/11 195/269/21 217/441/11
f 188/259/16 208/286/22 186/256/22
f 180/248/19 204/281/18 201/278/19
f 192/265/17 217/300/11 215/297/17
f 171/237/21 197/272/15 195/269/21
f 235/323/13 257/353/16 236/324/16
f 229/315/12 252/345/18 230/316/18
f 224/307/15 247/339/14 245/336/15
f 240/329/20 259/356/13 235/323/13
f 234/320/22 253/347/12 229/315/12
f 226/311/14 249/342/19 247/339/14
f 239/328/17 261/359/20 240/329/20
f 220/303/11 243/333/21 265/451/11
f 236/324/16 255/350/22 234/320/22
f 230/316/18 249/342/19 225/310/19
f 220/331/11 263/362/17 239/328/17
f 219/302/21 245/336/15 243/333/21
f 153/502/17 295/503/20 151/504/20
f 286/393/13 158/220/16 284/389/16
f 277/381/12 152/212/18 278/382/18
f 274/375/14 146/204/15 272/372/15
f 285/392/20 160/223/13 286/393/13
f 282/386/22 154/215/12 277/381/12
f 276/378/19 149/207/14 274/375/14
f 288/395/17 163/226/20 285/392/20
f 267/367/21 166/423/11 268/368/11
f 284/389/16 157/218/22 282/386/22
f 278/382/18 150/209/19 276/378/19
f 288/395/17 166/231/11 164/228/17
f 267/367/21 146/204/15 144/201/21
f 165/505/18 292/506/12 169/507/18
f 147/508/16 293/509/22 145/510/22
f 161/511/14 298/512/15 159/513/15
f 155/514/11 296/515/17 153/502/17
f 148/516/13 294/517/16 147/508/16
f 162/518/19 299/519/14 161/511/14
f 156/520/21 297/521/11 155/514/11
f 148/516/13 295/503/20 167/522/13
f 162/518/19 169/507/18 300/523/19
f 145/510/22 292/524/12 143/525/12
f 159/513/15 168/526/21 156/520/21
f 301/459/11 304/462/21 302/460/21
f 304/462/21 306/464/15 305/463/15
f 306/464/15 308/466/14 307/465/14
f 308/466/14 325/484/19 309/467/19
f 309/467/19 325/484/19 310/468/18
f 310/468/18 321/479/12 312/470/12
f 312/470/12 321/479/12 313/471/22
f 313/471/22 316/474/16 315/473/16
f 316/474/16 318/476/13 317/475/13
f 318/476/13 322/480/20 319/477/20
f 310/468/23 326/527/23 320/478/24
f 322/480/20 324/482/17 323/481/17
f 324/482/17 301/487/11 303/483/11
f 325/484/25 327/528/25 326/485/23
f 308/466/26 331/529/26 327/486/25
f 301/487/27 324/482/28 328/488/28
f 301/459/27 329/530/27 330/490/29
f 306/464/30 333/531/30 331/491/26
f 324/482/28 322/480/31 332/492/31
f 304/462/29 330/532/29 333/494/30
f 318/476/32 334/533/32 332/495/31
f 316/474/33 335/534/33 334/496/32
f 313/471/34 336/535/34 335/497/33
f 321/479/24 320/536/24 336/498/34
f 333/501/4 330/537/4 329/538/4
f 329/538/4 328/539/4 333/501/4
f 328/539/4 332/540/4 333/501/4
f 332/540/4 334/541/4 335/542/4
f 335/542/4 336/543/4 320/499/4
f 320/499/4 326/544/4 327/500/4
f 327/500/4 331/545/4 333/501/4
f 332/540/4 335/542/4 333/501/4
f 335/542/4 320/499/4 333/501/4
f 190/263/13 211/291/13 209/288/16
f 181/251/12 205/283/12 204/281/18
f 176/242/15 178/245/14 199/275/14
f 189/262/20 213/294/20 211/291/13
f 186/256/22 208/286/22 205/283/12
f 178/245/14 180/248/19 201/278/19
f 192/265/17 215/297/17 213/294/20
f 172/238/11 171/237/21 195/269/21
f 188/259/16 209/288/16 208/286/22
f 180/248/19 182/252/18 204/281/18
f 192/265/17 172/440/11 217/300/11
f 171/237/21 176/242/15 197/272/15
f 235/323/13 259/356/13 257/353/16
f 229/315/12 253/347/12 252/345/18
f 224/307/15 226/311/14 247/339/14
f 240/329/20 261/359/20 259/356/13
f 234/320/22 255/350/22 253/347/12
f 226/311/14 225/310/19 249/342/19
f 239/328/17 263/362/17 261/359/20
f 220/303/11 219/302/21 243/333/21
f 236/324/16 257/353/16 255/350/22
f 230/316/18 252/345/18 249/342/19
f 220/331/11 265/365/11 263/362/17
f 219/302/21 224/307/15 245/336/15
f 153/502/17 296/515/17 295/503/20
f 286/393/13 160/223/13 158/220/16
f 277/381/12 154/215/12 152/212/18
f 274/375/14 149/207/14 146/204/15
f 285/392/20 163/226/20 160/223/13
f 282/386/22 157/218/22 154/215/12
f 276/378/19 150/209/19 149/207/14
f 288/395/17 164/228/17 163/226/20
f 267/367/21 144/201/21 166/423/11
f 284/389/16 158/220/16 157/218/22
f 278/382/18 152/212/18 150/209/19
f 288/395/17 268/397/11 166/231/11
f 267/367/21 272/372/15 146/204/15
f 165/505/18 143/546/12 292/506/12
f 147/508/16 294/517/16 293/509/22
f 161/511/14 299/519/14 298/512/15
f 155/514/11 297/521/11 296/515/17
f 148/516/13 167/522/13 294/517/16
f 162/518/19 300/523/19 299/519/14
f 156/520/21 168/526/21 297/521/11
f 148/516/13 151/504/20 295/503/20
f 162/518/19 165/505/18 169/507/18
f 145/510/22 293/509/22 292/524/12
f 159/513/15 298/512/15 168/526/21
