mtllib file_cabinet_item.mtl
v 0.812500 1.000000 0.140625
v 0.812500 0.000000 0.890625
v 0.812500 0.000000 0.140625
v 0.812500 1.000000 0.890625
v 0.187500 0.000000 0.890625
v 0.187500 1.000000 0.890625
v 0.187500 0.000000 0.140625
v 0.250000 0.937500 0.828125
v 0.750000 0.531250 0.828125
v 0.250000 0.531250 0.828125
v 0.187500 1.000000 0.140625
v 0.750000 0.062500 0.140625
v 0.187500 0.000000 0.140625
v 0.250000 0.062500 0.140625
v 0.250000 0.937500 0.140625
v 0.812500 1.000000 0.140625
v 0.750000 0.937500 0.140625
v 0.812500 0.500000 0.140625
v 0.750000 0.531250 0.140625
v 0.187500 0.500000 0.140625
v 0.250000 0.468750 0.140625
v 0.187500 1.000000 0.140625
v 0.750000 0.468750 0.140625
v 0.250000 0.531250 0.140625
v 0.250000 0.468750 0.828125
v 0.750000 0.062500 0.828125
v 0.250000 0.062500 0.828125
v 0.812500 0.000000 0.140625
v 0.750000 0.937500 0.828125
v 0.750000 0.468750 0.828125
v 0.250000 0.062500 0.203125
v 0.750000 0.062500 0.140625
v 0.750000 0.062500 0.203125
v 0.750000 0.468750 0.203125
v 0.250000 0.468750 0.140625
v 0.250000 0.468750 0.203125
v 0.250000 0.062500 0.828125
v 0.750000 0.062500 0.828125
v 0.250000 0.265625 0.203125
v 0.281250 0.265625 0.796875
v 0.281250 0.265625 0.203125
v 0.250000 0.062500 0.140625
v 0.750000 0.265625 0.203125
v 0.750000 0.468750 0.140625
v 0.250000 0.265625 0.828125
v 0.750000 0.265625 0.828125
v 0.718750 0.265625 0.796875
v 0.718750 0.265625 0.203125
v 0.281250 0.093750 0.203125
v 0.718750 0.093750 0.796875
v 0.718750 0.093750 0.203125
v 0.281250 0.093750 0.796875
v 0.421875 0.203125 0.109375
v 0.453125 0.171875 0.109375
v 0.421875 0.171875 0.109375
v 0.421875 0.171875 0.140625
v 0.453125 0.171875 0.140625
v 0.421875 0.203125 0.140625
v 0.453125 0.203125 0.140625
v 0.453125 0.203125 0.125000
v 0.546875 0.203125 0.109375
v 0.578125 0.171875 0.109375
v 0.546875 0.171875 0.109375
v 0.578125 0.171875 0.140625
v 0.578125 0.203125 0.109375
v 0.578125 0.203125 0.140625
v 0.546875 0.171875 0.140625
v 0.546875 0.203125 0.140625
v 0.546875 0.171875 0.125000
v 0.546875 0.203125 0.125000
v 0.453125 0.171875 0.125000
v 0.453125 0.203125 0.109375
v 0.250000 0.531250 0.203125
v 0.750000 0.531250 0.140625
v 0.750000 0.531250 0.203125
v 0.750000 0.937500 0.203125
v 0.250000 0.937500 0.140625
v 0.250000 0.937500 0.203125
v 0.250000 0.531250 0.828125
v 0.750000 0.531250 0.828125
v 0.250000 0.734375 0.203125
v 0.281250 0.734375 0.796875
v 0.281250 0.734375 0.203125
v 0.250000 0.531250 0.140625
v 0.750000 0.734375 0.203125
v 0.750000 0.937500 0.140625
v 0.250000 0.734375 0.828125
v 0.750000 0.734375 0.828125
v 0.718750 0.734375 0.796875
v 0.718750 0.734375 0.203125
v 0.281250 0.562500 0.203125
v 0.718750 0.562500 0.796875
v 0.718750 0.562500 0.203125
v 0.281250 0.562500 0.796875
v 0.421875 0.671875 0.109375
v 0.453125 0.640625 0.109375
v 0.421875 0.640625 0.109375
v 0.421875 0.640625 0.140625
v 0.453125 0.640625 0.140625
v 0.421875 0.671875 0.140625
v 0.453125 0.671875 0.140625
v 0.453125 0.671875 0.125000
v 0.546875 0.671875 0.109375
v 0.578125 0.640625 0.109375
v 0.546875 0.640625 0.109375
v 0.578125 0.640625 0.140625
v 0.578125 0.671875 0.109375
v 0.578125 0.671875 0.140625
v 0.546875 0.640625 0.140625
v 0.546875 0.671875 0.140625
v 0.546875 0.640625 0.125000
v 0.546875 0.671875 0.125000
v 0.453125 0.640625 0.125000
v 0.453125 0.671875 0.109375
vt 0.484375 0.640625
vt 0.234375 0.828125
vt 0.234375 0.640625
vt 0.484375 0.828125
vt 0.234375 0.984375
vt 0.640625 0.828125
vt 0.890625 0.640625
vt 0.890625 0.828125
vt 1.000000 0.703125
vt 0.890625 0.828125
vt 0.890625 0.703125
vt 0.078125 0.828125
vt 0.640625 0.640625
vt 0.765625 0.625000
vt 0.750000 0.484375
vt 0.765625 0.500000
vt 0.984375 0.500000
vt 1.000000 0.640625
vt 0.984375 0.625000
vt 0.875000 0.640625
vt 0.882812 0.625000
vt 0.875000 0.484375
vt 0.867188 0.500000
vt 1.000000 0.484375
vt 0.867188 0.625000
vt 0.875000 0.625000
vt 0.890625 0.500000
vt 0.890625 0.625000
vt 1.000000 0.703125
vt 0.890625 0.828125
vt 0.890625 0.703125
vt 0.750000 0.640625
vt 0.882812 0.500000
vt 0.656250 0.828125
vt 0.531250 1.000000
vt 0.531250 0.828125
vt 1.000000 0.828125
vt 0.890625 1.000000
vt 0.765625 0.828125
vt 0.656250 1.000000
vt 0.765625 1.000000
vt 0.765625 1.000000
vt 0.765625 0.828125
vt 0.656250 1.000000
vt 0.656250 0.828125
vt 1.000000 0.828125
vt 0.890625 1.000000
vt 0.531250 1.000000
vt 0.531250 0.828125
vt 0.484375 0.984375
vt 0.078125 0.640625
vt 0.875000 0.500000
vt 1.000000 1.000000
vt 1.000000 1.000000
vt 0.750000 0.625000
vt 0.734375 0.500000
vt 0.750000 0.500000
vt 0.609375 0.500000
vt 0.625000 0.625000
vt 0.609375 0.625000
vt 0.078125 0.515625
vt 0.234375 0.640625
vt 0.078125 0.640625
vt 0.027344 0.359375
vt 0.019531 0.507812
vt 0.019531 0.359375
vt 0.625000 0.640625
vt 0.679688 0.640625
vt 0.734375 0.625000
vt 0.734375 0.640625
vt 0.679688 0.484375
vt 0.734375 0.484375
vt 0.625000 0.500000
vt 0.625000 0.484375
vt 0.078125 0.359375
vt 0.027344 0.515625
vt 0.027344 0.640625
vt 0.027344 0.796875
vt 0.019531 0.523438
vt 0.562500 0.500000
vt 0.019531 0.648438
vt 0.019531 0.796875
vt 0.277344 0.375000
vt 0.234375 0.218750
vt 0.277344 0.218750
vt 0.085938 0.375000
vt 0.234375 0.484375
vt 0.085938 0.484375
vt 0.277344 0.640625
vt 0.277344 0.484375
vt 0.234375 0.109375
vt 0.277344 0.109375
vt 0.234375 0.375000
vt 0.101562 0.992188
vt 0.093750 0.984375
vt 0.101562 0.984375
vt 0.109375 0.984375
vt 0.101562 0.976562
vt 0.109375 0.976562
vt 0.109375 0.992188
vt 0.109375 1.000000
vt 0.093750 0.972656
vt 0.097656 0.980469
vt 0.097656 0.972656
vt 0.062500 0.992188
vt 0.054688 0.984375
vt 0.062500 0.984375
vt 0.046875 0.984375
vt 0.054688 0.992188
vt 0.046875 0.992188
vt 0.054688 0.976562
vt 0.046875 0.976562
vt 0.046875 1.000000
vt 0.062500 0.980469
vt 0.058594 0.972656
vt 0.058594 0.980469
vt 0.062500 0.972656
vt 0.093750 0.980469
vt 0.093750 0.992188
vt 0.093750 0.968750
vt 0.484375 0.640625
vt 0.281250 0.390625
vt 0.484375 0.390625
vt 0.234375 0.515625
vt 0.078125 0.796875
vt 0.019531 0.632812
vt 0.562500 0.625000
vt 0.234375 0.640625
vt 0.101562 1.000000
vt 0.054688 1.000000
vt 0.062500 0.968750
vt 0.281250 0.640625
vt 0.750000 0.625000
vt 0.734375 0.500000
vt 0.750000 0.500000
vt 0.609375 0.500000
vt 0.625000 0.625000
vt 0.609375 0.625000
vt 0.078125 0.515625
vt 0.234375 0.640625
vt 0.078125 0.640625
vt 0.027344 0.359375
vt 0.019531 0.507812
vt 0.019531 0.359375
vt 0.625000 0.640625
vt 0.679688 0.640625
vt 0.734375 0.625000
vt 0.734375 0.640625
vt 0.679688 0.484375
vt 0.734375 0.484375
vt 0.625000 0.500000
vt 0.625000 0.484375
vt 0.078125 0.359375
vt 0.027344 0.515625
vt 0.027344 0.640625
vt 0.027344 0.796875
vt 0.019531 0.523438
vt 0.562500 0.500000
vt 0.019531 0.648438
vt 0.019531 0.796875
vt 0.277344 0.375000
vt 0.234375 0.218750
vt 0.277344 0.218750
vt 0.085938 0.375000
vt 0.234375 0.484375
vt 0.085938 0.484375
vt 0.277344 0.640625
vt 0.277344 0.484375
vt 0.234375 0.109375
vt 0.277344 0.109375
vt 0.234375 0.375000
vt 0.101562 0.992188
vt 0.093750 0.984375
vt 0.101562 0.984375
vt 0.109375 0.984375
vt 0.101562 0.976562
vt 0.109375 0.976562
vt 0.109375 0.992188
vt 0.109375 1.000000
vt 0.093750 0.972656
vt 0.097656 0.980469
vt 0.097656 0.972656
vt 0.062500 0.992188
vt 0.054688 0.984375
vt 0.062500 0.984375
vt 0.046875 0.984375
vt 0.054688 0.992188
vt 0.046875 0.992188
vt 0.054688 0.976562
vt 0.046875 0.976562
vt 0.046875 1.000000
vt 0.062500 0.980469
vt 0.058594 0.972656
vt 0.058594 0.980469
vt 0.062500 0.972656
vt 0.093750 0.980469
vt 0.093750 0.992188
vt 0.093750 0.968750
vt 0.484375 0.390625
vt 0.281250 0.140625
vt 0.484375 0.140625
vt 0.234375 0.515625
vt 0.078125 0.796875
vt 0.019531 0.632812
vt 0.562500 0.625000
vt 0.234375 0.640625
vt 0.101562 1.000000
vt 0.054688 1.000000
vt 0.062500 0.968750
vt 0.281250 0.390625
vn 1.000000 -0.000000 0.000000
vn -0.000000 -0.000000 1.000000
vn -1.000000 -0.000000 -0.000000
vn 0.000000 -0.000000 -1.000000
vn 0.000000 -1.000000 0.000000
vn 0.000000 1.000000 0.000000
vn 0.000000 -1.000000 0.000000
vn 0.000000 1.000000 0.000000
vn -1.000000 -0.000000 -0.000000
vn 1.000000 -0.000000 0.000000
vn -0.000000 -0.000000 1.000000
vn 0.000000 -0.000000 -1.000000
vn 0.000000 -1.000000 0.000000
vn 0.000000 1.000000 0.000000
vn -1.000000 -0.000000 -0.000000
vn 1.000000 -0.000000 0.000000
vn -0.000000 -0.000000 1.000000
vn 0.000000 -0.000000 -1.000000
o Cabinet
usemtl texture
s off
f 1/1/1 2/2/1 3/3/1
f 4/4/2 5/5/2 2/2/2
f 6/6/3 7/7/3 5/8/3
f 8/9/4 9/10/4 10/11/4
f 5/12/5 3/3/5 2/2/5
f 4/4/6 11/13/6 6/6/6
f 12/14/4 13/15/4 14/16/4
f 15/17/4 16/18/4 17/19/4
f 17/19/4 18/20/4 19/21/4
f 14/16/4 20/22/4 21/23/4
f 15/17/4 20/22/4 22/24/4
f 23/25/4 19/21/4 18/20/4
f 24/26/4 23/27/4 21/28/4
f 25/29/4 26/30/4 27/31/4
f 12/14/4 18/20/4 28/32/4
f 24/33/4 21/23/4 20/22/4
f 8/34/5 17/35/5 29/36/5
f 29/37/3 19/38/3 9/10/3
f 10/39/1 15/40/1 8/34/1
f 9/10/6 24/41/6 10/39/6
f 26/30/6 14/42/6 27/43/6
f 27/43/1 21/44/1 25/45/1
f 30/46/3 12/47/3 26/30/3
f 25/45/5 23/48/5 30/49/5
f 1/1/1 4/4/1 2/2/1
f 4/4/2 6/50/2 5/5/2
f 6/6/3 11/13/3 7/7/3
f 8/9/4 29/37/4 9/10/4
f 5/12/5 7/51/5 3/3/5
f 4/4/6 1/1/6 11/13/6
f 12/14/4 28/32/4 13/15/4
f 15/17/4 22/24/4 16/18/4
f 17/19/4 16/18/4 18/20/4
f 14/16/4 13/15/4 20/22/4
f 15/17/4 24/33/4 20/22/4
f 24/26/4 19/52/4 23/27/4
f 25/29/4 30/46/4 26/30/4
f 12/14/4 23/25/4 18/20/4
f 8/34/5 15/40/5 17/35/5
f 29/37/3 17/53/3 19/38/3
f 10/39/1 24/41/1 15/40/1
f 9/10/6 19/38/6 24/41/6
f 26/30/6 12/47/6 14/42/6
f 27/43/1 14/42/1 21/44/1
f 30/46/3 23/54/3 12/47/3
f 25/45/5 21/44/5 23/48/5
o LowerDrawer
usemtl texture
s off
f 31/55/7 32/56/7 33/57/7
f 34/58/8 35/59/8 36/60/8
f 37/61/7 33/62/7 38/63/7
f 39/64/8 40/65/8 41/66/8
f 36/67/9 35/59/9 39/68/9
f 42/69/9 39/68/9 35/59/9
f 31/70/9 39/68/9 42/69/9
f 32/56/10 43/71/10 33/72/10
f 44/73/10 43/71/10 32/56/10
f 34/74/10 43/71/10 44/73/10
f 37/61/9 39/64/9 31/75/9
f 45/76/11 38/63/11 46/77/11
f 38/63/10 43/78/10 46/77/10
f 46/77/8 40/79/8 45/76/8
f 36/60/11 43/80/11 34/58/11
f 47/81/8 43/78/8 48/82/8
f 40/83/10 49/84/10 41/85/10
f 49/86/8 50/87/8 51/88/8
f 48/89/9 50/87/9 47/90/9
f 41/85/11 51/91/11 48/92/11
f 47/90/12 52/93/12 40/83/12
f 53/94/12 54/95/12 55/96/12
f 56/97/7 54/98/7 57/99/7
f 58/100/9 55/96/9 56/97/9
f 59/101/8 53/94/8 58/100/8
f 60/102/9 57/103/9 59/104/9
f 61/105/12 62/106/12 63/107/12
f 64/108/10 65/109/10 66/110/10
f 63/111/7 64/108/7 67/112/7
f 65/109/8 68/113/8 66/110/8
f 69/114/10 68/115/10 67/116/10
f 69/114/12 60/102/12 70/117/12
f 63/107/8 71/118/8 69/114/8
f 72/119/12 63/107/12 54/95/12
f 70/117/8 72/120/8 60/102/8
f 42/121/12 44/122/12 32/123/12
f 31/55/7 42/69/7 32/56/7
f 34/58/8 44/73/8 35/59/8
f 37/61/7 31/124/7 33/62/7
f 39/64/8 45/76/8 40/65/8
f 37/61/9 45/76/9 39/64/9
f 45/76/11 37/61/11 38/63/11
f 38/63/10 33/125/10 43/78/10
f 46/77/8 47/126/8 40/79/8
f 36/60/11 39/127/11 43/80/11
f 47/81/8 46/77/8 43/78/8
f 40/83/10 52/93/10 49/84/10
f 49/86/8 52/93/8 50/87/8
f 48/89/9 51/128/9 50/87/9
f 41/85/11 49/84/11 51/91/11
f 47/90/12 50/87/12 52/93/12
f 53/94/12 72/119/12 54/95/12
f 56/97/7 55/96/7 54/98/7
f 58/100/9 53/94/9 55/96/9
f 59/101/8 72/129/8 53/94/8
f 60/102/9 71/118/9 57/103/9
f 61/105/12 65/109/12 62/106/12
f 64/108/10 62/106/10 65/109/10
f 63/111/7 62/106/7 64/108/7
f 65/109/8 61/130/8 68/113/8
f 69/114/10 70/117/10 68/115/10
f 69/114/12 71/118/12 60/102/12
f 63/107/8 54/95/8 71/118/8
f 72/119/12 61/105/12 63/107/12
f 70/117/8 61/131/8 72/120/8
f 42/121/12 35/132/12 44/122/12
o UpperDrawer
usemtl texture
s off
f 73/133/13 74/134/13 75/135/13
f 76/136/14 77/137/14 78/138/14
f 79/139/13 75/140/13 80/141/13
f 81/142/14 82/143/14 83/144/14
f 78/145/15 77/137/15 81/146/15
f 84/147/15 81/146/15 77/137/15
f 73/148/15 81/146/15 84/147/15
f 74/134/16 85/149/16 75/150/16
f 86/151/16 85/149/16 74/134/16
f 76/152/16 85/149/16 86/151/16
f 79/139/15 81/142/15 73/153/15
f 87/154/17 80/141/17 88/155/17
f 80/141/16 85/156/16 88/155/16
f 88/155/14 82/157/14 87/154/14
f 78/138/17 85/158/17 76/136/17
f 89/159/14 85/156/14 90/160/14
f 82/161/16 91/162/16 83/163/16
f 91/164/14 92/165/14 93/166/14
f 90/167/15 92/165/15 89/168/15
f 83/163/17 93/169/17 90/170/17
f 89/168/18 94/171/18 82/161/18
f 95/172/18 96/173/18 97/174/18
f 98/175/13 96/176/13 99/177/13
f 100/178/15 97/174/15 98/175/15
f 101/179/14 95/172/14 100/178/14
f 102/180/15 99/181/15 101/182/15
f 103/183/18 104/184/18 105/185/18
f 106/186/16 107/187/16 108/188/16
f 105/189/13 106/186/13 109/190/13
f 107/187/14 110/191/14 108/188/14
f 111/192/16 110/193/16 109/194/16
f 111/192/18 102/180/18 112/195/18
f 105/185/14 113/196/14 111/192/14
f 114/197/18 105/185/18 96/173/18
f 112/195/14 114/198/14 102/180/14
f 84/199/18 86/200/18 74/201/18
f 73/133/13 84/147/13 74/134/13
f 76/136/14 86/151/14 77/137/14
f 79/139/13 73/202/13 75/140/13
f 81/142/14 87/154/14 82/143/14
f 79/139/15 87/154/15 81/142/15
f 87/154/17 79/139/17 80/141/17
f 80/141/16 75/203/16 85/156/16
f 88/155/14 89/204/14 82/157/14
f 78/138/17 81/205/17 85/158/17
f 89/159/14 88/155/14 85/156/14
f 82/161/16 94/171/16 91/162/16
f 91/164/14 94/171/14 92/165/14
f 90/167/15 93/206/15 92/165/15
f 83/163/17 91/162/17 93/169/17
f 89/168/18 92/165/18 94/171/18
f 95/172/18 114/197/18 96/173/18
f 98/175/13 97/174/13 96/176/13
f 100/178/15 95/172/15 97/174/15
f 101/179/14 114/207/14 95/172/14
f 102/180/15 113/196/15 99/181/15
f 103/183/18 107/187/18 104/184/18
f 106/186/16 104/184/16 107/187/16
f 105/189/13 104/184/13 106/186/13
f 107/187/14 103/208/14 110/191/14
f 111/192/16 112/195/16 110/193/16
f 111/192/18 113/196/18 102/180/18
f 105/185/14 96/173/14 113/196/14
f 114/197/18 103/183/18 105/185/18
f 112/195/14 103/209/14 114/198/14
f 84/199/18 77/210/18 86/200/18
