mtllib floodlight_item.mtl
o Floodlight
v 0.887260 0.420753 -0.562500
v 0.856010 0.366627 0.187500
v 0.887260 0.420753 0.187500
v 0.856010 0.366627 0.187500
v 0.206490 0.741627 -0.562500
v 0.206490 0.741627 0.187500
v 0.237740 0.795753 0.187500
v 0.206490 0.741627 -0.562500
v 0.237740 0.795753 -0.562500
v 0.237740 0.795753 -0.562500
v 0.856010 0.366627 -0.562500
v 0.887260 0.420753 -0.562500
v 0.887260 0.420753 0.187500
v 0.206490 0.741627 0.187500
v 0.237740 0.795753 0.187500
v 0.887260 0.420753 1.562500
v 0.206490 0.741627 1.562500
v 0.237740 0.795753 1.562500
v 0.237740 0.795753 0.812500
v 0.856010 0.366627 0.812500
v 0.887260 0.420753 0.812500
v 0.237740 0.795753 1.562500
v 0.206490 0.741627 0.812500
v 0.237740 0.795753 0.812500
v 0.856010 0.366627 1.562500
v 0.206490 0.741627 0.812500
v 0.206490 0.741627 1.562500
v 0.887260 0.420753 0.812500
v 0.856010 0.366627 1.562500
v 0.887260 0.420753 1.562500
v 0.887260 0.420753 -0.562500
v 0.856010 0.366627 -0.562500
v 0.856010 0.366627 0.187500
v 0.856010 0.366627 0.187500
v 0.856010 0.366627 -0.562500
v 0.206490 0.741627 -0.562500
v 0.237740 0.795753 0.187500
v 0.206490 0.741627 0.187500
v 0.206490 0.741627 -0.562500
v 0.237740 0.795753 -0.562500
v 0.206490 0.741627 -0.562500
v 0.856010 0.366627 -0.562500
v 0.887260 0.420753 0.187500
v 0.856010 0.366627 0.187500
v 0.206490 0.741627 0.187500
v 0.887260 0.420753 1.562500
v 0.856010 0.366627 1.562500
v 0.206490 0.741627 1.562500
v 0.237740 0.795753 0.812500
v 0.206490 0.741627 0.812500
v 0.856010 0.366627 0.812500
v 0.237740 0.795753 1.562500
v 0.206490 0.741627 1.562500
v 0.206490 0.741627 0.812500
v 0.856010 0.366627 1.562500
v 0.856010 0.366627 0.812500
v 0.206490 0.741627 0.812500
v 0.887260 0.420753 0.812500
v 0.856010 0.366627 0.812500
v 0.856010 0.366627 1.562500
v 0.870513 0.141747 0.312500
v 0.529006 0.050240 -0.437500
v 0.870513 0.141747 -0.687500
v 0.870513 0.141747 -0.687500
v 0.995513 0.358253 0.312500
v 0.870513 0.141747 0.312500
v 0.004487 0.641747 0.312500
v 0.129487 0.858253 -0.687500
v 0.004487 0.641747 -0.687500
v 0.004487 0.641747 -0.687500
v 0.995513 0.358253 -0.687500
v 0.870513 0.141747 -0.687500
v 0.870513 0.141747 0.312500
v 0.129487 0.858253 0.312500
v 0.004487 0.641747 0.312500
v 0.095994 0.300240 -0.437500
v 0.529006 0.050240 0.062500
v 0.095994 0.300240 0.062500
v 0.004487 0.641747 0.312500
v 0.095994 0.300240 -0.437500
v 0.095994 0.300240 0.062500
v 0.870513 0.141747 -0.687500
v 0.095994 0.300240 -0.437500
v 0.004487 0.641747 -0.687500
v 0.004487 0.641747 0.312500
v 0.529006 0.050240 0.062500
v 0.870513 0.141747 0.312500
v 0.237740 0.795753 -0.562500
v 0.129487 0.858253 0.312500
v 0.237740 0.795753 0.187500
v 0.237740 0.795753 0.187500
v 0.995513 0.358253 0.312500
v 0.887260 0.420753 0.187500
v 0.887260 0.420753 0.187500
v 0.995513 0.358253 -0.687500
v 0.887260 0.420753 -0.562500
v 0.887260 0.420753 -0.562500
v 0.129487 0.858253 -0.687500
v 0.237740 0.795753 -0.562500
v 0.237740 0.795753 1.562500
v 0.300240 0.904006 0.812500
v 0.237740 0.795753 0.812500
v 0.887260 0.420753 0.812500
v 0.949760 0.529006 1.562500
v 0.887260 0.420753 1.562500
v 0.887260 0.420753 1.562500
v 0.300240 0.904006 1.562500
v 0.237740 0.795753 1.562500
v 0.237740 0.795753 0.812500
v 0.949760 0.529006 0.812500
v 0.887260 0.420753 0.812500
v 0.949760 0.529006 1.562500
v 0.300240 0.904006 0.812500
v 0.300240 0.904006 1.562500
v 0.887260 0.420753 0.812500
v 0.129487 0.858253 0.687500
v 0.237740 0.795753 0.812500
v 0.887260 0.420753 1.562500
v 0.995513 0.358253 0.687500
v 0.887260 0.420753 0.812500
v 0.237740 0.795753 1.562500
v 0.995513 0.358253 1.687500
v 0.887260 0.420753 1.562500
v 0.237740 0.795753 0.812500
v 0.129487 0.858253 1.687500
v 0.237740 0.795753 1.562500
v 0.004487 0.641747 1.687500
v 0.529006 0.050240 1.437500
v 0.870513 0.141747 1.687500
v 0.870513 0.141747 0.687500
v 0.095994 0.300240 0.937500
v 0.004487 0.641747 0.687500
v 0.004487 0.641747 0.687500
v 0.095994 0.300240 1.437500
v 0.004487 0.641747 1.687500
v 0.095994 0.300240 0.937500
v 0.529006 0.050240 1.437500
v 0.095994 0.300240 1.437500
v 0.870513 0.141747 1.687500
v 0.129487 0.858253 1.687500
v 0.004487 0.641747 1.687500
v 0.949760 0.529006 0.187500
v 0.300240 0.904006 -0.562500
v 0.300240 0.904006 0.187500
v 0.004487 0.641747 0.687500
v 0.995513 0.358253 0.687500
v 0.870513 0.141747 0.687500
v 0.004487 0.641747 1.687500
v 0.129487 0.858253 0.687500
v 0.004487 0.641747 0.687500
v 0.870513 0.141747 0.687500
v 0.995513 0.358253 1.687500
v 0.870513 0.141747 1.687500
v 0.237740 0.795753 -0.562500
v 0.949760 0.529006 -0.562500
v 0.887260 0.420753 -0.562500
v 0.887260 0.420753 0.187500
v 0.300240 0.904006 0.187500
v 0.237740 0.795753 0.187500
v 0.870513 0.141747 0.687500
v 0.529006 0.050240 1.437500
v 0.529006 0.050240 0.937500
v 0.887260 0.420753 -0.562500
v 0.949760 0.529006 0.187500
v 0.887260 0.420753 0.187500
v 0.237740 0.795753 0.187500
v 0.300240 0.904006 -0.562500
v 0.237740 0.795753 -0.562500
v 0.870513 0.141747 0.312500
v 0.529006 0.050240 0.062500
v 0.529006 0.050240 -0.437500
v 0.870513 0.141747 -0.687500
v 0.995513 0.358253 -0.687500
v 0.995513 0.358253 0.312500
v 0.004487 0.641747 0.312500
v 0.129487 0.858253 0.312500
v 0.129487 0.858253 -0.687500
v 0.004487 0.641747 -0.687500
v 0.129487 0.858253 -0.687500
v 0.995513 0.358253 -0.687500
v 0.870513 0.141747 0.312500
v 0.995513 0.358253 0.312500
v 0.129487 0.858253 0.312500
v 0.095994 0.300240 -0.437500
v 0.529006 0.050240 -0.437500
v 0.529006 0.050240 0.062500
v 0.004487 0.641747 0.312500
v 0.004487 0.641747 -0.687500
v 0.095994 0.300240 -0.437500
v 0.870513 0.141747 -0.687500
v 0.529006 0.050240 -0.437500
v 0.095994 0.300240 -0.437500
v 0.004487 0.641747 0.312500
v 0.095994 0.300240 0.062500
v 0.529006 0.050240 0.062500
v 0.237740 0.795753 -0.562500
v 0.129487 0.858253 -0.687500
v 0.129487 0.858253 0.312500
v 0.237740 0.795753 0.187500
v 0.129487 0.858253 0.312500
v 0.995513 0.358253 0.312500
v 0.887260 0.420753 0.187500
v 0.995513 0.358253 0.312500
v 0.995513 0.358253 -0.687500
v 0.887260 0.420753 -0.562500
v 0.995513 0.358253 -0.687500
v 0.129487 0.858253 -0.687500
v 0.237740 0.795753 1.562500
v 0.300240 0.904006 1.562500
v 0.300240 0.904006 0.812500
v 0.887260 0.420753 0.812500
v 0.949760 0.529006 0.812500
v 0.949760 0.529006 1.562500
v 0.887260 0.420753 1.562500
v 0.949760 0.529006 1.562500
v 0.300240 0.904006 1.562500
v 0.237740 0.795753 0.812500
v 0.300240 0.904006 0.812500
v 0.949760 0.529006 0.812500
v 0.949760 0.529006 1.562500
v 0.949760 0.529006 0.812500
v 0.300240 0.904006 0.812500
v 0.887260 0.420753 0.812500
v 0.995513 0.358253 0.687500
v 0.129487 0.858253 0.687500
v 0.887260 0.420753 1.562500
v 0.995513 0.358253 1.687500
v 0.995513 0.358253 0.687500
v 0.237740 0.795753 1.562500
v 0.129487 0.858253 1.687500
v 0.995513 0.358253 1.687500
v 0.237740 0.795753 0.812500
v 0.129487 0.858253 0.687500
v 0.129487 0.858253 1.687500
v 0.004487 0.641747 1.687500
v 0.095994 0.300240 1.437500
v 0.529006 0.050240 1.437500
v 0.870513 0.141747 0.687500
v 0.529006 0.050240 0.937500
v 0.095994 0.300240 0.937500
v 0.004487 0.641747 0.687500
v 0.095994 0.300240 0.937500
v 0.095994 0.300240 1.437500
v 0.095994 0.300240 0.937500
v 0.529006 0.050240 0.937500
v 0.529006 0.050240 1.437500
v 0.870513 0.141747 1.687500
v 0.995513 0.358253 1.687500
v 0.129487 0.858253 1.687500
v 0.949760 0.529006 0.187500
v 0.949760 0.529006 -0.562500
v 0.300240 0.904006 -0.562500
v 0.004487 0.641747 0.687500
v 0.129487 0.858253 0.687500
v 0.995513 0.358253 0.687500
v 0.004487 0.641747 1.687500
v 0.129487 0.858253 1.687500
v 0.129487 0.858253 0.687500
v 0.870513 0.141747 0.687500
v 0.995513 0.358253 0.687500
v 0.995513 0.358253 1.687500
v 0.237740 0.795753 -0.562500
v 0.300240 0.904006 -0.562500
v 0.949760 0.529006 -0.562500
v 0.887260 0.420753 0.187500
v 0.949760 0.529006 0.187500
v 0.300240 0.904006 0.187500
v 0.870513 0.141747 0.687500
v 0.870513 0.141747 1.687500
v 0.529006 0.050240 1.437500
v 0.887260 0.420753 -0.562500
v 0.949760 0.529006 -0.562500
v 0.949760 0.529006 0.187500
v 0.237740 0.795753 0.187500
v 0.300240 0.904006 0.187500
v 0.300240 0.904006 -0.562500
v 0.000000 0.000000 0.312500
v 1.000000 0.000000 0.687500
v 0.000000 0.000000 0.687500
v 0.125000 0.500000 0.312500
v 0.625000 0.750000 0.312500
v 0.875000 0.500000 0.312500
v 0.000000 0.000000 0.687500
v 0.125000 0.500000 0.312500
v 0.000000 0.000000 0.312500
v 0.000000 0.000000 0.312500
v 0.875000 0.500000 0.312500
v 1.000000 0.000000 0.312500
v 1.000000 0.000000 0.687500
v 0.125000 0.500000 0.687500
v 0.000000 0.000000 0.687500
v 1.000000 0.000000 0.312500
v 0.875000 0.500000 0.687500
v 1.000000 0.000000 0.687500
v 0.625000 0.750000 0.687500
v 0.375000 0.750000 0.312500
v 0.375000 0.750000 0.687500
v 0.875000 0.500000 0.687500
v 0.375000 0.750000 0.687500
v 0.125000 0.500000 0.687500
v 0.875000 0.500000 0.312500
v 0.625000 0.750000 0.687500
v 0.875000 0.500000 0.687500
v 0.125000 0.500000 0.687500
v 0.375000 0.750000 0.312500
v 0.125000 0.500000 0.312500
v 0.000000 0.000000 0.312500
v 1.000000 0.000000 0.312500
v 1.000000 0.000000 0.687500
v 0.125000 0.500000 0.312500
v 0.375000 0.750000 0.312500
v 0.625000 0.750000 0.312500
v 0.000000 0.000000 0.687500
v 0.125000 0.500000 0.687500
v 0.125000 0.500000 0.312500
v 0.000000 0.000000 0.312500
v 0.125000 0.500000 0.312500
v 0.875000 0.500000 0.312500
v 1.000000 0.000000 0.687500
v 0.875000 0.500000 0.687500
v 0.125000 0.500000 0.687500
v 1.000000 0.000000 0.312500
v 0.875000 0.500000 0.312500
v 0.875000 0.500000 0.687500
v 0.625000 0.750000 0.687500
v 0.625000 0.750000 0.312500
v 0.375000 0.750000 0.312500
v 0.875000 0.500000 0.687500
v 0.625000 0.750000 0.687500
v 0.375000 0.750000 0.687500
v 0.875000 0.500000 0.312500
v 0.625000 0.750000 0.312500
v 0.625000 0.750000 0.687500
v 0.125000 0.500000 0.687500
v 0.375000 0.750000 0.687500
v 0.375000 0.750000 0.312500
vt 0.666667 0.695652
vt 0.444444 0.717391
vt 0.444444 0.695652
vt 0.444444 0.717391
vt 0.666667 0.978261
vt 0.444444 0.978261
vt 0.444444 1.000000
vt 0.666667 0.978261
vt 0.666667 1.000000
vt 0.685185 0.978261
vt 0.666667 0.717391
vt 0.685185 0.717391
vt 0.425926 0.717391
vt 0.444444 0.978261
vt 0.425926 0.978261
vt 0.425926 0.717391
vt 0.444444 0.978261
vt 0.425926 0.978261
vt 0.685185 0.978261
vt 0.666667 0.717391
vt 0.685185 0.717391
vt 0.444444 1.000000
vt 0.666667 0.978261
vt 0.666667 1.000000
vt 0.444444 0.717391
vt 0.666667 0.978261
vt 0.444444 0.978261
vt 0.666667 0.695652
vt 0.444444 0.717391
vt 0.444444 0.695652
vt 0.666667 0.695652
vt 0.666667 0.717391
vt 0.444444 0.717391
vt 0.444444 0.717391
vt 0.666667 0.717391
vt 0.666667 0.978261
vt 0.444444 1.000000
vt 0.444444 0.978261
vt 0.666667 0.978261
vt 0.685185 0.978261
vt 0.666667 0.978261
vt 0.666667 0.717391
vt 0.425926 0.717391
vt 0.444444 0.717391
vt 0.444444 0.978261
vt 0.425926 0.717391
vt 0.444444 0.717391
vt 0.444444 0.978261
vt 0.685185 0.978261
vt 0.666667 0.978261
vt 0.666667 0.717391
vt 0.444444 1.000000
vt 0.444444 0.978261
vt 0.666667 0.978261
vt 0.444444 0.717391
vt 0.666667 0.717391
vt 0.666667 0.978261
vt 0.666667 0.695652
vt 0.666667 0.717391
vt 0.444444 0.717391
vt 0.407407 0.260870
vt 0.629630 0.173913
vt 0.703704 0.260870
vt 0.703704 0.260870
vt 0.407407 0.347826
vt 0.407407 0.260870
vt 0.703704 0.260870
vt 0.407407 0.347826
vt 0.407407 0.260870
vt 0.703704 0.260870
vt 0.407407 0.347826
vt 0.407407 0.260870
vt 0.703704 0.260870
vt 0.407407 0.347826
vt 0.407407 0.260870
vt 0.629630 0.000000
vt 0.481481 0.173913
vt 0.481481 0.000000
vt 0.703704 0.260870
vt 0.481481 0.173913
vt 0.629630 0.173913
vt 0.407407 0.260870
vt 0.629630 0.173913
vt 0.703704 0.260870
vt 0.407407 0.260870
vt 0.629630 0.173913
vt 0.703704 0.260870
vt 0.666667 0.652174
vt 0.407407 0.695652
vt 0.444444 0.652174
vt 0.444444 0.652174
vt 0.407407 0.347826
vt 0.444444 0.391304
vt 0.444444 0.391304
vt 0.703704 0.347826
vt 0.666667 0.391304
vt 0.666667 0.391304
vt 0.703704 0.695652
vt 0.666667 0.652174
vt 0.740741 0.347826
vt 0.962963 0.304348
vt 0.962963 0.347826
vt 0.962963 0.000000
vt 0.740741 0.043478
vt 0.740741 0.000000
vt 0.703704 0.043478
vt 0.740741 0.304348
vt 0.703704 0.304348
vt 1.000000 0.304348
vt 0.962963 0.043478
vt 1.000000 0.043478
vt 0.740741 0.043478
vt 0.962963 0.304348
vt 0.740741 0.304348
vt 0.666667 0.391304
vt 0.703704 0.695652
vt 0.666667 0.652174
vt 0.444444 0.391304
vt 0.703704 0.347826
vt 0.666667 0.391304
vt 0.444444 0.652174
vt 0.407407 0.347826
vt 0.444444 0.391304
vt 0.666667 0.652174
vt 0.407407 0.695652
vt 0.444444 0.652174
vt 0.407407 0.260870
vt 0.629630 0.173913
vt 0.703704 0.260870
vt 0.407407 0.260870
vt 0.629630 0.173913
vt 0.703704 0.260870
vt 0.407407 0.260870
vt 0.629630 0.173913
vt 0.703704 0.260870
vt 0.629630 0.000000
vt 0.481481 0.173913
vt 0.481481 0.000000
vt 0.703704 0.260870
vt 0.407407 0.347826
vt 0.407407 0.260870
vt 0.740741 0.043478
vt 0.962963 0.304348
vt 0.740741 0.304348
vt 0.703704 0.260870
vt 0.407407 0.347826
vt 0.407407 0.260870
vt 0.703704 0.260870
vt 0.407407 0.347826
vt 0.407407 0.260870
vt 0.703704 0.260870
vt 0.407407 0.347826
vt 0.407407 0.260870
vt 1.000000 0.304348
vt 0.962963 0.043478
vt 1.000000 0.043478
vt 0.703704 0.043478
vt 0.740741 0.304348
vt 0.703704 0.304348
vt 0.703704 0.260870
vt 0.481481 0.173913
vt 0.629630 0.173913
vt 0.962963 0.000000
vt 0.740741 0.043478
vt 0.740741 0.000000
vt 0.740741 0.347826
vt 0.962963 0.304348
vt 0.962963 0.347826
vt 0.407407 0.260870
vt 0.481481 0.173913
vt 0.629630 0.173913
vt 0.703704 0.260870
vt 0.703704 0.347826
vt 0.407407 0.347826
vt 0.703704 0.260870
vt 0.703704 0.347826
vt 0.407407 0.347826
vt 0.703704 0.260870
vt 0.703704 0.347826
vt 0.407407 0.347826
vt 0.703704 0.260870
vt 0.703704 0.347826
vt 0.407407 0.347826
vt 0.629630 0.000000
vt 0.629630 0.173913
vt 0.481481 0.173913
vt 0.703704 0.260870
vt 0.407407 0.260870
vt 0.481481 0.173913
vt 0.407407 0.260870
vt 0.481481 0.173913
vt 0.629630 0.173913
vt 0.407407 0.260870
vt 0.481481 0.173913
vt 0.629630 0.173913
vt 0.666667 0.652174
vt 0.703704 0.695652
vt 0.407407 0.695652
vt 0.444444 0.652174
vt 0.407407 0.695652
vt 0.407407 0.347826
vt 0.444444 0.391304
vt 0.407407 0.347826
vt 0.703704 0.347826
vt 0.666667 0.391304
vt 0.703704 0.347826
vt 0.703704 0.695652
vt 0.740741 0.347826
vt 0.740741 0.304348
vt 0.962963 0.304348
vt 0.962963 0.000000
vt 0.962963 0.043478
vt 0.740741 0.043478
vt 0.703704 0.043478
vt 0.740741 0.043478
vt 0.740741 0.304348
vt 1.000000 0.304348
vt 0.962963 0.304348
vt 0.962963 0.043478
vt 0.740741 0.043478
vt 0.962963 0.043478
vt 0.962963 0.304348
vt 0.666667 0.391304
vt 0.703704 0.347826
vt 0.703704 0.695652
vt 0.444444 0.391304
vt 0.407407 0.347826
vt 0.703704 0.347826
vt 0.444444 0.652174
vt 0.407407 0.695652
vt 0.407407 0.347826
vt 0.666667 0.652174
vt 0.703704 0.695652
vt 0.407407 0.695652
vt 0.407407 0.260870
vt 0.481481 0.173913
vt 0.629630 0.173913
vt 0.407407 0.260870
vt 0.481481 0.173913
vt 0.629630 0.173913
vt 0.407407 0.260870
vt 0.481481 0.173913
vt 0.629630 0.173913
vt 0.629630 0.000000
vt 0.629630 0.173913
vt 0.481481 0.173913
vt 0.703704 0.260870
vt 0.703704 0.347826
vt 0.407407 0.347826
vt 0.740741 0.043478
vt 0.962963 0.043478
vt 0.962963 0.304348
vt 0.703704 0.260870
vt 0.703704 0.347826
vt 0.407407 0.347826
vt 0.703704 0.260870
vt 0.703704 0.347826
vt 0.407407 0.347826
vt 0.703704 0.260870
vt 0.703704 0.347826
vt 0.407407 0.347826
vt 1.000000 0.304348
vt 0.962963 0.304348
vt 0.962963 0.043478
vt 0.703704 0.043478
vt 0.740741 0.043478
vt 0.740741 0.304348
vt 0.703704 0.260870
vt 0.407407 0.260870
vt 0.481481 0.173913
vt 0.962963 0.000000
vt 0.962963 0.043478
vt 0.740741 0.043478
vt 0.740741 0.347826
vt 0.740741 0.304348
vt 0.962963 0.304348
vt 0.111111 0.260870
vt -0.000000 0.608696
vt -0.000000 0.260870
vt 0.259259 0.304348
vt 0.333333 0.478261
vt 0.259259 0.565217
vt -0.000000 0.260870
vt 0.111111 0.086957
vt 0.111111 0.260870
vt 0.111111 0.260870
vt 0.259259 0.565217
vt 0.111111 0.608696
vt 0.111111 0.260870
vt 0.259259 0.565217
vt 0.111111 0.608696
vt 0.111111 0.608696
vt 0.000000 0.782609
vt -0.000000 0.608696
vt -0.000000 0.869565
vt 0.111111 0.956522
vt -0.000000 0.956522
vt 0.259259 0.304348
vt 0.333333 0.478261
vt 0.259259 0.565217
vt 0.111111 0.782609
vt -0.000000 0.869565
vt 0.000000 0.782609
vt -0.000000 0.086957
vt 0.111111 -0.000000
vt 0.111111 0.086957
vt 0.111111 0.260870
vt 0.111111 0.608696
vt -0.000000 0.608696
vt 0.259259 0.304348
vt 0.333333 0.391304
vt 0.333333 0.478261
vt -0.000000 0.260870
vt -0.000000 0.086957
vt 0.111111 0.086957
vt 0.111111 0.260870
vt 0.259259 0.304348
vt 0.259259 0.565217
vt 0.111111 0.260870
vt 0.259259 0.304348
vt 0.259259 0.565217
vt 0.111111 0.608696
vt 0.111111 0.782609
vt 0.000000 0.782609
vt -0.000000 0.869565
vt 0.111111 0.869565
vt 0.111111 0.956522
vt 0.259259 0.304348
vt 0.333333 0.391304
vt 0.333333 0.478261
vt 0.111111 0.782609
vt 0.111111 0.869565
vt -0.000000 0.869565
vt -0.000000 0.086957
vt 0.000000 -0.000000
vt 0.111111 -0.000000
vn -0.866025 0.500000 0.000000
vn -0.866025 0.500000 0.000000
vn -0.866025 0.500000 0.000000
vn 0.500000 0.866025 0.000000
vn 0.500000 0.866025 0.000000
vn 0.500000 0.866025 0.000000
vn 0.866025 -0.500000 0.000000
vn 0.866025 -0.500000 0.000000
vn 0.866025 -0.500000 0.000000
vn 0.000000 0.000000 1.000000
vn 0.000000 0.000000 1.000000
vn 0.000000 0.000000 1.000000
vn 0.000000 0.000000 -1.000000
vn 0.000000 0.000000 -1.000000
vn 0.000000 0.000000 -1.000000
vn 0.000000 0.000000 -1.000000
vn 0.000000 0.000000 -1.000000
vn 0.000000 0.000000 -1.000000
vn 0.000000 0.000000 1.000000
vn 0.000000 0.000000 1.000000
vn 0.000000 0.000000 1.000000
vn 0.866025 -0.500000 0.000000
vn 0.866025 -0.500000 0.000000
vn 0.866025 -0.500000 0.000000
vn 0.500000 0.866025 0.000000
vn 0.500000 0.866025 0.000000
vn 0.500000 0.866025 0.000000
vn -0.866025 0.500000 0.000000
vn -0.866025 0.500000 0.000000
vn -0.866025 0.500000 0.000000
vn -0.866025 0.500000 0.000000
vn -0.866025 0.500000 0.000000
vn -0.866025 0.500000 0.000000
vn 0.500000 0.866025 0.000000
vn 0.500000 0.866025 0.000000
vn 0.500000 0.866025 0.000000
vn 0.866025 -0.500000 0.000000
vn 0.866025 -0.500000 0.000000
vn 0.866025 -0.500000 0.000000
vn 0.000000 0.000000 1.000000
vn 0.000000 0.000000 1.000000
vn 0.000000 0.000000 1.000000
vn 0.000000 0.000000 -1.000000
vn 0.000000 0.000000 -1.000000
vn 0.000000 0.000000 -1.000000
vn 0.000000 0.000000 -1.000000
vn 0.000000 0.000000 -1.000000
vn 0.000000 0.000000 -1.000000
vn 0.000000 0.000000 1.000000
vn 0.000000 0.000000 1.000000
vn 0.000000 0.000000 1.000000
vn 0.866025 -0.500000 0.000000
vn 0.866025 -0.500000 0.000000
vn 0.866025 -0.500000 0.000000
vn 0.500000 0.866025 0.000000
vn 0.500000 0.866025 0.000000
vn 0.500000 0.866025 0.000000
vn -0.866025 0.500000 0.000000
vn -0.866025 0.500000 0.000000
vn -0.866025 0.500000 0.000000
vn 0.258817 -0.965917 0.000000
vn 0.258817 -0.965917 0.000000
vn 0.258817 -0.965917 0.000000
vn 0.866025 -0.500000 0.000000
vn 0.866025 -0.500000 0.000000
vn 0.866025 -0.500000 0.000000
vn -0.866025 0.500000 0.000000
vn -0.866025 0.500000 0.000000
vn -0.866025 0.500000 0.000000
vn 0.000000 0.000000 -1.000000
vn 0.000000 0.000000 -1.000000
vn 0.000000 0.000000 -1.000000
vn 0.000000 0.000000 1.000000
vn 0.000000 0.000000 1.000000
vn 0.000000 0.000000 1.000000
vn -0.500000 -0.866025 0.000000
vn -0.500000 -0.866025 0.000000
vn -0.500000 -0.866025 0.000000
vn -0.965917 -0.258817 0.000000
vn -0.965917 -0.258817 0.000000
vn -0.965917 -0.258817 0.000000
vn -0.353550 -0.612367 -0.707100
vn -0.353550 -0.612367 -0.707100
vn -0.353550 -0.612367 -0.707100
vn -0.353550 -0.612367 0.707100
vn -0.353550 -0.612367 0.707100
vn -0.353550 -0.612367 0.707100
vn 0.500000 0.866025 0.000000
vn 0.500000 0.866025 0.000000
vn 0.500000 0.866025 0.000000
vn 0.500000 0.866025 0.000000
vn 0.500000 0.866025 0.000000
vn 0.500000 0.866025 0.000000
vn 0.500000 0.866025 0.000000
vn 0.500000 0.866025 0.000000
vn 0.500000 0.866025 0.000000
vn 0.500000 0.866025 0.000000
vn 0.500000 0.866025 0.000000
vn 0.500000 0.866025 0.000000
vn -0.866025 0.500000 0.000000
vn -0.866025 0.500000 0.000000
vn -0.866025 0.500000 0.000000
vn 0.866025 -0.500000 0.000000
vn 0.866025 -0.500000 0.000000
vn 0.866025 -0.500000 0.000000
vn 0.000000 0.000000 1.000000
vn 0.000000 0.000000 1.000000
vn 0.000000 0.000000 1.000000
vn 0.000000 0.000000 -1.000000
vn 0.000000 0.000000 -1.000000
vn 0.000000 0.000000 -1.000000
vn 0.500000 0.866025 0.000000
vn 0.500000 0.866025 0.000000
vn 0.500000 0.866025 0.000000
vn 0.500000 0.866025 0.000000
vn 0.500000 0.866025 0.000000
vn 0.500000 0.866025 0.000000
vn 0.500000 0.866025 0.000000
vn 0.500000 0.866025 0.000000
vn 0.500000 0.866025 0.000000
vn 0.500000 0.866025 0.000000
vn 0.500000 0.866025 0.000000
vn 0.500000 0.866025 0.000000
vn 0.500000 0.866025 0.000000
vn 0.500000 0.866025 0.000000
vn 0.500000 0.866025 0.000000
vn -0.353550 -0.612367 0.707100
vn -0.353550 -0.612367 0.707100
vn -0.353550 -0.612367 0.707100
vn -0.353550 -0.612367 -0.707100
vn -0.353550 -0.612367 -0.707100
vn -0.353550 -0.612367 -0.707100
vn -0.965917 -0.258817 0.000000
vn -0.965917 -0.258817 0.000000
vn -0.965917 -0.258817 0.000000
vn -0.500000 -0.866025 0.000000
vn -0.500000 -0.866025 0.000000
vn -0.500000 -0.866025 0.000000
vn 0.000000 0.000000 1.000000
vn 0.000000 0.000000 1.000000
vn 0.000000 0.000000 1.000000
vn 0.500000 0.866025 0.000000
vn 0.500000 0.866025 0.000000
vn 0.500000 0.866025 0.000000
vn 0.000000 0.000000 -1.000000
vn 0.000000 0.000000 -1.000000
vn 0.000000 0.000000 -1.000000
vn -0.866025 0.500000 0.000000
vn -0.866025 0.500000 0.000000
vn -0.866025 0.500000 0.000000
vn 0.866025 -0.500000 0.000000
vn 0.866025 -0.500000 0.000000
vn 0.866025 -0.500000 0.000000
vn 0.000000 0.000000 -1.000000
vn 0.000000 0.000000 -1.000000
vn 0.000000 0.000000 -1.000000
vn 0.000000 0.000000 1.000000
vn 0.000000 0.000000 1.000000
vn 0.000000 0.000000 1.000000
vn 0.258817 -0.965917 0.000000
vn 0.258817 -0.965917 0.000000
vn 0.258817 -0.965917 0.000000
vn 0.866025 -0.500000 0.000000
vn 0.866025 -0.500000 0.000000
vn 0.866025 -0.500000 0.000000
vn -0.866025 0.500000 0.000000
vn -0.866025 0.500000 0.000000
vn -0.866025 0.500000 0.000000
vn 0.258817 -0.965917 0.000000
vn 0.258817 -0.965917 0.000000
vn 0.258817 -0.965917 0.000000
vn 0.866025 -0.500000 0.000000
vn 0.866025 -0.500000 0.000000
vn 0.866025 -0.500000 0.000000
vn -0.866025 0.500000 0.000000
vn -0.866025 0.500000 0.000000
vn -0.866025 0.500000 0.000000
vn 0.000000 0.000000 -1.000000
vn 0.000000 0.000000 -1.000000
vn 0.000000 0.000000 -1.000000
vn 0.000000 0.000000 1.000000
vn 0.000000 0.000000 1.000000
vn 0.000000 0.000000 1.000000
vn -0.500000 -0.866025 0.000000
vn -0.500000 -0.866025 0.000000
vn -0.500000 -0.866025 0.000000
vn -0.965917 -0.258817 0.000000
vn -0.965917 -0.258817 0.000000
vn -0.965917 -0.258817 0.000000
vn -0.353550 -0.612367 -0.707100
vn -0.353550 -0.612367 -0.707100
vn -0.353550 -0.612367 -0.707100
vn -0.353550 -0.612367 0.707100
vn -0.353550 -0.612367 0.707100
vn -0.353550 -0.612367 0.707100
vn 0.500000 0.866025 0.000000
vn 0.500000 0.866025 0.000000
vn 0.500000 0.866025 0.000000
vn 0.500000 0.866025 0.000000
vn 0.500000 0.866025 0.000000
vn 0.500000 0.866025 0.000000
vn 0.500000 0.866025 0.000000
vn 0.500000 0.866025 0.000000
vn 0.500000 0.866025 0.000000
vn 0.500000 0.866025 0.000000
vn 0.500000 0.866025 0.000000
vn 0.500000 0.866025 0.000000
vn -0.866025 0.500000 0.000000
vn -0.866025 0.500000 0.000000
vn -0.866025 0.500000 0.000000
vn 0.866025 -0.500000 0.000000
vn 0.866025 -0.500000 0.000000
vn 0.866025 -0.500000 0.000000
vn 0.000000 0.000000 1.000000
vn 0.000000 0.000000 1.000000
vn 0.000000 0.000000 1.000000
vn 0.000000 0.000000 -1.000000
vn 0.000000 0.000000 -1.000000
vn 0.000000 0.000000 -1.000000
vn 0.500000 0.866025 0.000000
vn 0.500000 0.866025 0.000000
vn 0.500000 0.866025 0.000000
vn 0.500000 0.866025 0.000000
vn 0.500000 0.866025 0.000000
vn 0.500000 0.866025 0.000000
vn 0.500000 0.866025 0.000000
vn 0.500000 0.866025 0.000000
vn 0.500000 0.866025 0.000000
vn 0.500000 0.866025 0.000000
vn 0.500000 0.866025 0.000000
vn 0.500000 0.866025 0.000000
vn 0.500000 0.866025 0.000000
vn 0.500000 0.866025 0.000000
vn 0.500000 0.866025 0.000000
vn -0.353550 -0.612367 0.707100
vn -0.353550 -0.612367 0.707100
vn -0.353550 -0.612367 0.707100
vn -0.353550 -0.612367 -0.707100
vn -0.353550 -0.612367 -0.707100
vn -0.353550 -0.612367 -0.707100
vn -0.965917 -0.258817 0.000000
vn -0.965917 -0.258817 0.000000
vn -0.965917 -0.258817 0.000000
vn -0.500000 -0.866025 0.000000
vn -0.500000 -0.866025 0.000000
vn -0.500000 -0.866025 0.000000
vn 0.000000 0.000000 1.000000
vn 0.000000 0.000000 1.000000
vn 0.000000 0.000000 1.000000
vn 0.500000 0.866025 0.000000
vn 0.500000 0.866025 0.000000
vn 0.500000 0.866025 0.000000
vn 0.000000 0.000000 -1.000000
vn 0.000000 0.000000 -1.000000
vn 0.000000 0.000000 -1.000000
vn -0.866025 0.500000 0.000000
vn -0.866025 0.500000 0.000000
vn -0.866025 0.500000 0.000000
vn 0.866025 -0.500000 0.000000
vn 0.866025 -0.500000 0.000000
vn 0.866025 -0.500000 0.000000
vn 0.000000 0.000000 -1.000000
vn 0.000000 0.000000 -1.000000
vn 0.000000 0.000000 -1.000000
vn 0.000000 0.000000 1.000000
vn 0.000000 0.000000 1.000000
vn 0.000000 0.000000 1.000000
vn 0.258817 -0.965917 0.000000
vn 0.258817 -0.965917 0.000000
vn 0.258817 -0.965917 0.000000
vn 0.866025 -0.500000 0.000000
vn 0.866025 -0.500000 0.000000
vn 0.866025 -0.500000 0.000000
vn -0.866025 0.500000 0.000000
vn -0.866025 0.500000 0.000000
vn -0.866025 0.500000 0.000000
vn 0.000000 -1.000000 0.000000
vn 0.000000 -1.000000 0.000000
vn 0.000000 -1.000000 0.000000
vn 0.000000 0.000000 -1.000000
vn 0.000000 0.000000 -1.000000
vn 0.000000 0.000000 -1.000000
vn -0.970100 0.242500 0.000000
vn -0.970100 0.242500 0.000000
vn -0.970100 0.242500 0.000000
vn 0.000000 0.000000 -1.000000
vn 0.000000 0.000000 -1.000000
vn 0.000000 0.000000 -1.000000
vn 0.000000 0.000000 1.000000
vn 0.000000 0.000000 1.000000
vn 0.000000 0.000000 1.000000
vn 0.970100 0.242500 0.000000
vn 0.970100 0.242500 0.000000
vn 0.970100 0.242500 0.000000
vn 0.000000 1.000000 0.000000
vn 0.000000 1.000000 0.000000
vn 0.000000 1.000000 0.000000
vn 0.000000 0.000000 1.000000
vn 0.000000 0.000000 1.000000
vn 0.000000 0.000000 1.000000
vn 0.707100 0.707100 0.000000
vn 0.707100 0.707100 0.000000
vn 0.707100 0.707100 0.000000
vn -0.707100 0.707100 0.000000
vn -0.707100 0.707100 0.000000
vn -0.707100 0.707100 0.000000
vn 0.000000 -1.000000 0.000000
vn 0.000000 -1.000000 0.000000
vn 0.000000 -1.000000 0.000000
vn 0.000000 0.000000 -1.000000
vn 0.000000 0.000000 -1.000000
vn 0.000000 0.000000 -1.000000
vn -0.970100 0.242500 0.000000
vn -0.970100 0.242500 0.000000
vn -0.970100 0.242500 0.000000
vn 0.000000 0.000000 -1.000000
vn 0.000000 0.000000 -1.000000
vn 0.000000 0.000000 -1.000000
vn 0.000000 0.000000 1.000000
vn 0.000000 0.000000 1.000000
vn 0.000000 0.000000 1.000000
vn 0.970100 0.242500 0.000000
vn 0.970100 0.242500 0.000000
vn 0.970100 0.242500 0.000000
vn 0.000000 1.000000 0.000000
vn 0.000000 1.000000 0.000000
vn 0.000000 1.000000 0.000000
vn 0.000000 0.000000 1.000000
vn 0.000000 0.000000 1.000000
vn 0.000000 0.000000 1.000000
vn 0.707100 0.707100 0.000000
vn 0.707100 0.707100 0.000000
vn 0.707100 0.707100 0.000000
vn -0.707100 0.707100 0.000000
vn -0.707100 0.707100 0.000000
vn -0.707100 0.707100 0.000000
usemtl fl
s off
f 1/1/1 2/2/2 3/3/3
f 4/4/4 5/5/5 6/6/6
f 7/7/7 8/8/8 9/9/9
f 10/10/10 11/11/11 12/12/12
f 13/13/13 14/14/14 15/15/15
f 16/16/16 17/17/17 18/18/18
f 19/19/19 20/20/20 21/21/21
f 22/22/22 23/23/23 24/24/24
f 25/25/25 26/26/26 27/27/27
f 28/28/28 29/29/29 30/30/30
f 31/31/31 32/32/32 33/33/33
f 34/34/34 35/35/35 36/36/36
f 37/37/37 38/38/38 39/39/39
f 40/40/40 41/41/41 42/42/42
f 43/43/43 44/44/44 45/45/45
f 46/46/46 47/47/47 48/48/48
f 49/49/49 50/50/50 51/51/51
f 52/52/52 53/53/53 54/54/54
f 55/55/55 56/56/56 57/57/57
f 58/58/58 59/59/59 60/60/60
f 61/61/61 62/62/62 63/63/63
f 64/64/64 65/65/65 66/66/66
f 67/67/67 68/68/68 69/69/69
f 70/70/70 71/71/71 72/72/72
f 73/73/73 74/74/74 75/75/75
f 76/76/76 77/77/77 78/78/78
f 79/79/79 80/80/80 81/81/81
f 82/82/82 83/83/83 84/84/84
f 85/85/85 86/86/86 87/87/87
f 88/88/88 89/89/89 90/90/90
f 91/91/91 92/92/92 93/93/93
f 94/94/94 95/95/95 96/96/96
f 97/97/97 98/98/98 99/99/99
f 100/100/100 101/101/101 102/102/102
f 103/103/103 104/104/104 105/105/105
f 106/106/106 107/107/107 108/108/108
f 109/109/109 110/110/110 111/111/111
f 112/112/112 113/113/113 114/114/114
f 115/115/115 116/116/116 117/117/117
f 118/118/118 119/119/119 120/120/120
f 121/121/121 122/122/122 123/123/123
f 124/124/124 125/125/125 126/126/126
f 127/127/127 128/128/128 129/129/129
f 130/130/130 131/131/131 132/132/132
f 133/133/133 134/134/134 135/135/135
f 136/136/136 137/137/137 138/138/138
f 139/139/139 140/140/140 141/141/141
f 142/142/142 143/143/143 144/144/144
f 145/145/145 146/146/146 147/147/147
f 148/148/148 149/149/149 150/150/150
f 151/151/151 152/152/152 153/153/153
f 154/154/154 155/155/155 156/156/156
f 157/157/157 158/158/158 159/159/159
f 160/160/160 161/161/161 162/162/162
f 163/163/163 164/164/164 165/165/165
f 166/166/166 167/167/167 168/168/168
f 169/169/169 170/170/170 171/171/171
f 172/172/172 173/173/173 174/174/174
f 175/175/175 176/176/176 177/177/177
f 178/178/178 179/179/179 180/180/180
f 181/181/181 182/182/182 183/183/183
f 184/184/184 185/185/185 186/186/186
f 187/187/187 188/188/188 189/189/189
f 190/190/190 191/191/191 192/192/192
f 193/193/193 194/194/194 195/195/195
f 196/196/196 197/197/197 198/198/198
f 199/199/199 200/200/200 201/201/201
f 202/202/202 203/203/203 204/204/204
f 205/205/205 206/206/206 207/207/207
f 208/208/208 209/209/209 210/210/210
f 211/211/211 212/212/212 213/213/213
f 214/214/214 215/215/215 216/216/216
f 217/217/217 218/218/218 219/219/219
f 220/220/220 221/221/221 222/222/222
f 223/223/223 224/224/224 225/225/225
f 226/226/226 227/227/227 228/228/228
f 229/229/229 230/230/230 231/231/231
f 232/232/232 233/233/233 234/234/234
f 235/235/235 236/236/236 237/237/237
f 238/238/238 239/239/239 240/240/240
f 241/241/241 242/242/242 243/243/243
f 244/244/244 245/245/245 246/246/246
f 247/247/247 248/248/248 249/249/249
f 250/250/250 251/251/251 252/252/252
f 253/253/253 254/254/254 255/255/255
f 256/256/256 257/257/257 258/258/258
f 259/259/259 260/260/260 261/261/261
f 262/262/262 263/263/263 264/264/264
f 265/265/265 266/266/266 267/267/267
f 268/268/268 269/269/269 270/270/270
f 271/271/271 272/272/272 273/273/273
f 274/274/274 275/275/275 276/276/276
f 277/277/277 278/278/278 279/279/279
f 280/280/280 281/281/281 282/282/282
f 283/283/283 284/284/284 285/285/285
f 286/286/286 287/287/287 288/288/288
f 289/289/289 290/290/290 291/291/291
f 292/292/292 293/293/293 294/294/294
f 295/295/295 296/296/296 297/297/297
f 298/298/298 299/299/299 300/300/300
f 301/301/301 302/302/302 303/303/303
f 304/304/304 305/305/305 306/306/306
f 307/307/307 308/308/308 309/309/309
f 310/310/310 311/311/311 312/312/312
f 313/313/313 314/314/314 315/315/315
f 316/316/316 317/317/317 318/318/318
f 319/319/319 320/320/320 321/321/321
f 322/322/322 323/323/323 324/324/324
f 325/325/325 326/326/326 327/327/327
f 328/328/328 329/329/329 330/330/330
f 331/331/331 332/332/332 333/333/333
f 334/334/334 335/335/335 336/336/336
