mtllib lamp_demon_item.mtl
v 0.234835 0.500000 0.765165
v 0.240159 0.500000 0.607629
v 0.153545 0.500000 0.643506
v 0.125000 0.500000 0.500000
v 0.153545 0.500000 0.356494
v 0.218750 0.500000 0.500000
v 0.240159 0.500000 0.392370
v 0.301126 0.500000 0.301126
v 0.234835 0.500000 0.234835
v 0.607630 0.500000 0.240159
v 0.632583 0.500000 0.367417
v 0.698874 0.500000 0.301126
v 0.356494 0.500000 0.153545
v 0.759841 0.500000 0.392370
v 0.765165 0.500000 0.234835
v 0.846455 0.500000 0.356494
v 0.875000 0.500000 0.500000
v 0.392370 0.500000 0.240159
v 0.500000 0.500000 0.125000
v 0.759841 0.500000 0.607630
v 0.846455 0.500000 0.643506
v 0.765165 0.500000 0.765165
v 0.698874 0.500000 0.698874
v 0.643506 0.500000 0.153545
v 0.607630 0.500000 0.759841
v 0.643506 0.500000 0.846455
v 0.500000 0.500000 0.875000
v 0.356494 0.500000 0.846454
v 0.500000 0.500000 0.781250
v 0.392370 0.500000 0.759841
v 0.301126 0.500000 0.698873
v 0.875000 0.625000 0.500000
v 0.759841 0.625000 0.392370
v 0.846455 0.625000 0.356494
v 0.765165 0.625000 0.234835
v 0.698874 0.625000 0.301126
v 0.643506 0.625000 0.153545
v 0.500000 0.625000 0.125000
v 0.607630 0.625000 0.240159
v 0.500000 0.625000 0.218750
v 0.392370 0.625000 0.240159
v 0.356494 0.625000 0.153545
v 0.301126 0.625000 0.301126
v 0.234835 0.625000 0.234835
v 0.153545 0.625000 0.356494
v 0.218750 0.625000 0.500000
v 0.125000 0.625000 0.500000
v 0.240159 0.625000 0.607629
v 0.153545 0.625000 0.643506
v 0.234835 0.625000 0.765165
v 0.301126 0.625000 0.698873
v 0.392370 0.625000 0.759841
v 0.356494 0.625000 0.846454
v 0.500000 0.625000 0.875000
v 0.607630 0.625000 0.759841
v 0.643506 0.625000 0.846455
v 0.765165 0.625000 0.765165
v 0.698874 0.625000 0.698874
v 0.759841 0.625000 0.607630
v 0.846455 0.625000 0.643506
v 0.781250 0.625000 0.500000
v 0.765165 0.250000 0.323223
v 0.676777 0.000000 0.234835
v 0.765165 0.000000 0.323223
v 0.676777 0.250000 0.234835
v 0.765165 0.000000 0.146447
v 0.765165 0.250000 0.146447
v 0.853553 0.000000 0.234835
v 0.853553 0.250000 0.234835
v 0.632583 0.312500 0.279029
v 0.720971 0.437500 0.367417
v 0.720971 0.312500 0.367417
v 0.632583 0.437500 0.279029
v 0.234835 0.250000 0.676777
v 0.323223 0.000000 0.765165
v 0.234835 0.000000 0.676777
v 0.323223 0.250000 0.765165
v 0.234835 0.000000 0.853553
v 0.234835 0.250000 0.853553
v 0.146447 0.000000 0.765165
v 0.146447 0.250000 0.765165
v 0.367417 0.312500 0.720971
v 0.367417 0.437500 0.720971
v 0.279029 0.437500 0.632583
v 0.323223 0.250000 0.234835
v 0.234835 0.000000 0.323223
v 0.323223 0.000000 0.234835
v 0.234835 0.250000 0.323223
v 0.146447 0.000000 0.234835
v 0.146447 0.250000 0.234835
v 0.234835 0.000000 0.146447
v 0.234835 0.250000 0.146447
v 0.279029 0.312500 0.367417
v 0.367417 0.437500 0.279029
v 0.279029 0.437500 0.367417
v 0.676777 0.250000 0.765165
v 0.765165 0.000000 0.676777
v 0.676777 0.000000 0.765165
v 0.765165 0.250000 0.676777
v 0.853553 0.000000 0.765165
v 0.853553 0.250000 0.765165
v 0.765165 0.000000 0.853553
v 0.765165 0.250000 0.853553
v 0.632583 0.312500 0.720971
v 0.720971 0.312500 0.632583
v 0.720971 0.437500 0.632583
v 0.632583 0.437500 0.720971
v 0.698874 0.625000 0.743068
v 0.610485 0.500000 0.654680
v 0.698874 0.500000 0.743068
v 0.610485 0.625000 0.654680
v 0.654680 0.500000 0.610485
v 0.654680 0.625000 0.610485
v 0.743068 0.500000 0.698874
v 0.743068 0.625000 0.698874
v 0.301126 0.625000 0.256932
v 0.389515 0.500000 0.345320
v 0.301126 0.500000 0.256932
v 0.389515 0.625000 0.345320
v 0.345320 0.500000 0.389515
v 0.345320 0.625000 0.389515
v 0.256932 0.500000 0.301126
v 0.256932 0.625000 0.301126
v 0.743068 0.625000 0.301126
v 0.654680 0.500000 0.389515
v 0.743068 0.500000 0.301126
v 0.654680 0.625000 0.389515
v 0.610485 0.500000 0.345320
v 0.610485 0.625000 0.345320
v 0.698874 0.500000 0.256932
v 0.698874 0.625000 0.256932
v 0.256932 0.625000 0.698874
v 0.345320 0.500000 0.610485
v 0.256932 0.500000 0.698874
v 0.345320 0.625000 0.610485
v 0.389515 0.500000 0.654680
v 0.389515 0.625000 0.654680
v 0.301126 0.500000 0.743068
v 0.301126 0.625000 0.743068
v 0.687500 0.500000 0.500000
v 0.781250 0.500000 0.500000
v 0.660041 0.500000 0.566291
v 0.632583 0.500000 0.632582
v 0.566291 0.500000 0.660041
v 0.500000 0.500000 0.687500
v 0.433709 0.500000 0.660041
v 0.632583 0.625000 0.632582
v 0.500000 0.625000 0.687500
v 0.500000 0.625000 0.781250
v 0.367418 0.625000 0.632582
v 0.312500 0.625000 0.500000
v 0.240159 0.625000 0.392370
v 0.500000 0.500000 0.312500
v 0.500000 0.500000 0.218750
v 0.367418 0.500000 0.367417
v 0.312500 0.500000 0.500000
v 0.339959 0.500000 0.433709
v 0.367418 0.500000 0.632582
v 0.339959 0.500000 0.566291
v 0.687500 0.625000 0.500000
v 0.660041 0.625000 0.433709
v 0.632583 0.625000 0.367417
v 0.566291 0.625000 0.339959
v 0.500000 0.625000 0.312500
v 0.433709 0.625000 0.339959
v 0.367418 0.625000 0.367417
v 0.566291 0.500000 0.339959
v 0.660041 0.500000 0.433709
v 0.279029 0.312500 0.632583
v 0.367417 0.312500 0.279029
v 0.660041 0.625000 0.566291
v 0.566291 0.625000 0.660041
v 0.433709 0.625000 0.660041
v 0.339959 0.625000 0.566291
v 0.339959 0.625000 0.433709
v 0.433709 0.500000 0.339959
v 0.500000 0.125000 0.500000
v 0.500000 0.153545 0.356494
v 0.554917 0.153545 0.367417
v 0.500000 0.234835 0.234835
v 0.632583 0.356494 0.179917
v 0.601474 0.234835 0.255019
v 0.500000 0.500000 0.125000
v 0.500000 0.356494 0.153545
v 0.601474 0.153545 0.398526
v 0.643506 0.500000 0.153545
v 0.744981 0.356494 0.255019
v 0.687500 0.234835 0.312500
v 0.765165 0.500000 0.234835
v 0.820082 0.356494 0.367417
v 0.632582 0.153545 0.445082
v 0.744980 0.234835 0.398526
v 0.643506 0.153545 0.500000
v 0.846455 0.356494 0.500000
v 0.765165 0.234835 0.500000
v 0.875000 0.500000 0.500000
v 0.632582 0.153545 0.554917
v 0.820082 0.356494 0.632582
v 0.744980 0.234835 0.601474
v 0.687500 0.234835 0.687500
v 0.601474 0.153545 0.601474
v 0.846455 0.500000 0.643506
v 0.744980 0.356494 0.744980
v 0.554917 0.153545 0.632582
v 0.601474 0.234835 0.744980
v 0.765165 0.500000 0.765165
v 0.632582 0.356494 0.820082
v 0.500000 0.153545 0.643506
v 0.500000 0.234835 0.765165
v 0.643506 0.500000 0.846455
v 0.500000 0.356494 0.846455
v 0.398526 0.234835 0.744980
v 0.445082 0.153545 0.632582
v 0.500000 0.500000 0.875000
v 0.367417 0.356494 0.820082
v 0.398526 0.153545 0.601474
v 0.356494 0.500000 0.846454
v 0.255019 0.356494 0.744980
v 0.312500 0.234835 0.687500
v 0.367418 0.153545 0.554917
v 0.255020 0.234835 0.601474
v 0.234835 0.500000 0.765165
v 0.179918 0.356494 0.632582
v 0.234835 0.234835 0.500000
v 0.356494 0.153545 0.500000
v 0.153545 0.500000 0.643506
v 0.153545 0.356494 0.500000
v 0.367418 0.153545 0.445082
v 0.125000 0.500000 0.500000
v 0.179918 0.356494 0.367417
v 0.255020 0.234835 0.398526
v 0.153545 0.500000 0.356494
v 0.255020 0.356494 0.255019
v 0.398526 0.153545 0.398526
v 0.312500 0.234835 0.312500
v 0.445083 0.153545 0.367417
v 0.398526 0.234835 0.255019
v 0.234835 0.500000 0.234835
v 0.367418 0.356494 0.179917
v 0.356494 0.500000 0.153545
v 0.500000 0.625000 0.125000
v 0.632583 0.768506 0.179917
v 0.643506 0.625000 0.153545
v 0.500000 0.971455 0.356494
v 0.601474 0.890165 0.255019
v 0.500000 0.890165 0.234835
v 0.500000 0.768506 0.153545
v 0.500000 1.000000 0.500000
v 0.554917 0.971455 0.367417
v 0.744981 0.768506 0.255019
v 0.601474 0.971455 0.398526
v 0.765165 0.625000 0.234835
v 0.687500 0.890165 0.312500
v 0.820082 0.768506 0.367417
v 0.632582 0.971455 0.445082
v 0.846455 0.625000 0.356494
v 0.744980 0.890165 0.398526
v 0.875000 0.625000 0.500000
v 0.765165 0.890165 0.500000
v 0.846455 0.768506 0.500000
v 0.643506 0.971455 0.500000
v 0.846455 0.625000 0.643506
v 0.744980 0.890165 0.601474
v 0.820082 0.768506 0.632582
v 0.632582 0.971455 0.554917
v 0.687500 0.890165 0.687500
v 0.744980 0.768506 0.744980
v 0.601474 0.971455 0.601474
v 0.765165 0.625000 0.765165
v 0.601474 0.890165 0.744980
v 0.632582 0.768506 0.820082
v 0.554917 0.971455 0.632582
v 0.643506 0.625000 0.846455
v 0.500000 0.625000 0.875000
v 0.500000 0.890165 0.765165
v 0.500000 0.768506 0.846455
v 0.500000 0.971455 0.643506
v 0.398526 0.890165 0.744980
v 0.367417 0.768506 0.820082
v 0.445083 0.971455 0.632582
v 0.356494 0.625000 0.846454
v 0.255019 0.768506 0.744980
v 0.398526 0.971455 0.601474
v 0.234835 0.625000 0.765165
v 0.312500 0.890165 0.687500
v 0.367418 0.971455 0.554917
v 0.179918 0.768506 0.632582
v 0.153545 0.625000 0.643506
v 0.255020 0.890165 0.601474
v 0.153545 0.768506 0.500000
v 0.125000 0.625000 0.500000
v 0.234835 0.890165 0.500000
v 0.356494 0.971455 0.500000
v 0.179918 0.768506 0.367417
v 0.367418 0.971455 0.445082
v 0.153545 0.625000 0.356494
v 0.255020 0.890165 0.398526
v 0.255020 0.768506 0.255019
v 0.398526 0.971455 0.398526
v 0.234835 0.625000 0.234835
v 0.312500 0.890165 0.312500
v 0.367418 0.768506 0.179917
v 0.356494 0.625000 0.153545
v 0.398526 0.890165 0.255019
v 0.445083 0.971455 0.367417
v 0.614820 0.593750 0.385180
v 0.632583 0.500000 0.367417
v 0.566291 0.500000 0.339959
v 0.500000 0.662380 0.406250
v 0.500000 0.593750 0.337620
v 0.662380 0.593750 0.500000
v 0.687500 0.500000 0.500000
v 0.660041 0.500000 0.433709
v 0.593750 0.662380 0.500000
v 0.614820 0.593750 0.614820
v 0.632583 0.500000 0.632582
v 0.660041 0.500000 0.566291
v 0.500000 0.662380 0.593750
v 0.500000 0.593750 0.662380
v 0.500000 0.500000 0.687500
v 0.566291 0.500000 0.660041
v 0.385180 0.593750 0.614820
v 0.367418 0.500000 0.632582
v 0.433709 0.500000 0.660041
v 0.433709 0.662380 0.566291
v 0.337620 0.593750 0.500000
v 0.312500 0.500000 0.500000
v 0.339959 0.500000 0.566291
v 0.406250 0.662380 0.500000
v 0.385180 0.593750 0.385180
v 0.367418 0.500000 0.367417
v 0.339959 0.500000 0.433709
v 0.433709 0.662380 0.433709
v 0.500000 0.500000 0.312500
v 0.433709 0.500000 0.339959
v 0.566291 0.625000 0.339959
v 0.614820 0.718750 0.385180
v 0.500000 0.718750 0.337620
v 0.500000 0.787380 0.406250
v 0.660041 0.625000 0.433709
v 0.662380 0.718750 0.500000
v 0.593750 0.787380 0.500000
v 0.566291 0.787380 0.433709
v 0.614820 0.718750 0.614820
v 0.660041 0.625000 0.566291
v 0.500000 0.787380 0.593750
v 0.566291 0.787380 0.566291
v 0.566291 0.625000 0.660041
v 0.500000 0.718750 0.662380
v 0.385180 0.718750 0.614820
v 0.433709 0.625000 0.660041
v 0.337620 0.718750 0.500000
v 0.433709 0.787380 0.566291
v 0.339959 0.625000 0.566291
v 0.385180 0.718750 0.385180
v 0.406250 0.787380 0.500000
v 0.339959 0.625000 0.433709
v 0.433709 0.787380 0.433709
v 0.433709 0.625000 0.339959
v 0.500000 0.812500 0.500000
v 0.500000 0.687500 0.500000
v 0.566291 0.662380 0.566291
v 0.566291 0.662380 0.433709
v 0.846455 0.500000 0.356494
v 0.500000 0.625000 0.312500
v 0.632583 0.625000 0.367417
v 0.687500 0.625000 0.500000
v 0.632583 0.625000 0.632582
v 0.500000 0.625000 0.687500
v 0.367418 0.625000 0.632582
v 0.312500 0.625000 0.500000
v 0.367418 0.625000 0.367417
vt 0.700000 0.555556
vt 0.750000 0.444444
vt 0.750000 0.555556
vt 0.800000 0.555556
vt 0.050000 0.555556
vt 0.000000 0.444444
vt 0.050000 0.444444
vt 0.100000 0.444444
vt 0.100000 0.555556
vt 0.250000 0.444444
vt 0.275000 0.333333
vt 0.300000 0.444444
vt 0.150000 0.555556
vt 0.300000 0.333333
vt 0.350000 0.444444
vt 0.300000 0.555556
vt 0.350000 0.555556
vt 0.400000 0.555556
vt 0.150000 0.444444
vt 0.200000 0.555556
vt 0.450000 0.444444
vt 0.450000 0.555556
vt 0.500000 0.555556
vt 0.500000 0.444444
vt 0.250000 0.555556
vt 0.550000 0.444444
vt 0.550000 0.555556
vt 0.600000 0.555556
vt 0.650000 0.555556
vt 0.600000 0.444444
vt 0.650000 0.444444
vt 0.700000 0.444444
vt 0.400000 0.555556
vt 0.450000 0.444444
vt 0.450000 0.555556
vt 0.500000 0.555556
vt 0.500000 0.444444
vt 0.550000 0.555556
vt 0.600000 0.555556
vt 0.550000 0.444444
vt 0.600000 0.444444
vt 0.650000 0.444444
vt 0.650000 0.555556
vt 0.700000 0.444444
vt 0.700000 0.555556
vt 0.750000 0.555556
vt 0.800000 0.444444
vt 0.800000 0.555556
vt 0.000000 0.555556
vt 0.050000 0.444444
vt 0.050000 0.555556
vt 0.100000 0.555556
vt 0.100000 0.444444
vt 0.150000 0.444444
vt 0.150000 0.555556
vt 0.200000 0.555556
vt 0.250000 0.444444
vt 0.250000 0.555556
vt 0.300000 0.555556
vt 0.300000 0.444444
vt 0.350000 0.444444
vt 0.350000 0.555556
vt 0.400000 0.444444
vt 1.000000 0.444444
vt 0.950000 0.222222
vt 1.000000 0.222222
vt 0.950000 0.444444
vt 0.900000 0.222222
vt 0.900000 0.444444
vt 0.850000 0.222222
vt 0.850000 0.444444
vt 0.800000 0.222222
vt 0.850000 0.111111
vt 0.900000 0.111111
vt 1.000000 0.500000
vt 0.950000 0.611111
vt 0.950000 0.500000
vt 0.850000 0.666667
vt 0.800000 0.611111
vt 0.800000 0.500000
vt 0.900000 0.666667
vt 1.000000 0.444444
vt 0.950000 0.222222
vt 1.000000 0.222222
vt 0.950000 0.444444
vt 0.900000 0.222222
vt 0.900000 0.444444
vt 0.850000 0.222222
vt 0.850000 0.444444
vt 0.800000 0.222222
vt 0.900000 0.111111
vt 0.850000 0.111111
vt 1.000000 0.500000
vt 0.950000 0.611111
vt 0.950000 0.500000
vt 0.900000 0.666667
vt 0.850000 0.666667
vt 0.800000 0.500000
vt 1.000000 0.444444
vt 0.950000 0.222222
vt 1.000000 0.222222
vt 0.950000 0.444444
vt 0.900000 0.222222
vt 0.900000 0.444444
vt 0.850000 0.222222
vt 0.850000 0.444444
vt 0.800000 0.222222
vt 0.850000 0.111111
vt 0.900000 0.111111
vt 1.000000 0.500000
vt 0.950000 0.611111
vt 0.950000 0.500000
vt 0.850000 0.666667
vt 0.800000 0.500000
vt 0.900000 0.666667
vt 1.000000 0.444444
vt 0.950000 0.222222
vt 1.000000 0.222222
vt 0.950000 0.444444
vt 0.900000 0.222222
vt 0.900000 0.444444
vt 0.850000 0.222222
vt 0.850000 0.444444
vt 0.800000 0.222222
vt 0.900000 0.111111
vt 0.850000 0.111111
vt 0.950000 0.500000
vt 1.000000 0.611111
vt 0.950000 0.611111
vt 0.900000 0.666667
vt 0.850000 0.666667
vt 0.800000 0.500000
vt 0.950000 0.111111
vt 0.900000 0.000000
vt 0.950000 0.000000
vt 0.900000 0.111111
vt 0.875000 0.000000
vt 0.875000 0.111111
vt 0.825000 0.000000
vt 0.825000 0.111111
vt 0.800000 0.000000
vt 0.950000 0.111111
vt 0.900000 0.000000
vt 0.950000 0.000000
vt 0.900000 0.111111
vt 0.875000 0.000000
vt 0.875000 0.111111
vt 0.825000 0.000000
vt 0.825000 0.111111
vt 0.800000 0.000000
vt 0.950000 0.111111
vt 0.900000 0.000000
vt 0.950000 0.000000
vt 0.900000 0.111111
vt 0.875000 0.000000
vt 0.875000 0.111111
vt 0.825000 0.000000
vt 0.825000 0.111111
vt 0.800000 0.000000
vt 0.950000 0.111111
vt 0.900000 0.000000
vt 0.950000 0.000000
vt 0.900000 0.111111
vt 0.875000 0.000000
vt 0.875000 0.111111
vt 0.825000 0.000000
vt 0.825000 0.111111
vt 0.800000 0.000000
vt 0.375000 0.333333
vt 0.400000 0.444444
vt 0.400000 0.333333
vt 0.425000 0.333333
vt 0.475000 0.333333
vt 0.500000 0.333333
vt 0.525000 0.333333
vt 0.575000 0.333333
vt 0.600000 0.333333
vt 0.625000 0.333333
vt 0.300000 0.333333
vt 0.275000 0.333333
vt 0.200000 0.333333
vt 0.200000 0.444444
vt 0.175000 0.333333
vt 0.100000 0.333333
vt 0.075000 0.333333
vt -0.000000 0.333333
vt 0.000000 0.444444
vt 0.750000 0.444444
vt 0.775000 0.333333
vt 0.200000 0.333333
vt 0.200000 0.444444
vt 0.175000 0.333333
vt 0.100000 0.333333
vt 0.075000 0.333333
vt -0.000000 0.333333
vt 0.025000 0.333333
vt 0.775000 0.333333
vt 0.800000 0.444444
vt 0.700000 0.333333
vt 0.725000 0.333333
vt 0.675000 0.333333
vt 0.375000 0.333333
vt 0.400000 0.333333
vt 0.425000 0.333333
vt 0.475000 0.333333
vt 0.500000 0.333333
vt 0.525000 0.333333
vt 0.575000 0.333333
vt 0.600000 0.333333
vt 0.625000 0.333333
vt 0.675000 0.333333
vt 0.700000 0.333333
vt 0.000000 0.555556
vt 0.250000 0.333333
vt 0.325000 0.333333
vt 0.800000 0.444444
vt 1.000000 0.611111
vt 0.800000 0.444444
vt 1.000000 0.611111
vt 0.800000 0.611111
vt 0.800000 0.444444
vt 1.000000 0.611111
vt 0.800000 0.611111
vt 0.800000 0.444444
vt 1.000000 0.500000
vt 0.800000 0.611111
vt 0.800000 0.111111
vt 0.800000 0.111111
vt 0.800000 0.111111
vt 0.800000 0.111111
vt 0.350000 0.333333
vt 0.450000 0.333333
vt 0.550000 0.333333
vt 0.325000 0.333333
vt 0.250000 0.333333
vt 0.225000 0.333333
vt 0.150000 0.333333
vt 0.125000 0.333333
vt 0.050000 0.333333
vt 0.025000 0.333333
vt 0.750000 0.333333
vt 0.225000 0.333333
vt 0.150000 0.333333
vt 0.125000 0.333333
vt 0.050000 0.333333
vt 0.750000 0.333333
vt 0.650000 0.333333
vt 0.350000 0.333333
vt 0.450000 0.333333
vt 0.550000 0.333333
vt 0.650000 0.333333
vt 0.725000 0.333333
vt 0.225000 1.000000
vt 0.200000 0.888889
vt 0.225000 0.888889
vt 0.200000 0.777778
vt 0.250000 0.666667
vt 0.250000 0.777778
vt 0.200000 0.555556
vt 0.200000 0.666667
vt 0.275000 0.888889
vt 0.250000 0.888889
vt 0.250000 0.555556
vt 0.300000 0.666667
vt 0.275000 1.000000
vt 0.300000 0.777778
vt 0.300000 0.555556
vt 0.350000 0.666667
vt 0.325000 1.000000
vt 0.300000 0.888889
vt 0.325000 0.888889
vt 0.350000 0.777778
vt 0.375000 1.000000
vt 0.350000 0.888889
vt 0.375000 0.888889
vt 0.400000 0.666667
vt 0.400000 0.777778
vt 0.400000 0.555556
vt 0.425000 0.888889
vt 0.400000 0.888889
vt 0.450000 0.666667
vt 0.425000 1.000000
vt 0.450000 0.777778
vt 0.450000 0.888889
vt 0.500000 0.777778
vt 0.475000 0.888889
vt 0.450000 0.555556
vt 0.500000 0.666667
vt 0.475000 1.000000
vt 0.525000 1.000000
vt 0.500000 0.888889
vt 0.525000 0.888889
vt 0.550000 0.777778
vt 0.500000 0.555556
vt 0.550000 0.666667
vt 0.575000 1.000000
vt 0.550000 0.888889
vt 0.575000 0.888889
vt 0.600000 0.777778
vt 0.550000 0.555556
vt 0.600000 0.666667
vt 0.600000 0.888889
vt 0.650000 0.777778
vt 0.625000 0.888889
vt 0.600000 0.555556
vt 0.650000 0.666667
vt 0.625000 1.000000
vt 0.675000 0.888889
vt 0.650000 0.888889
vt 0.650000 0.555556
vt 0.700000 0.666667
vt 0.675000 1.000000
vt 0.700000 0.777778
vt 0.725000 1.000000
vt 0.700000 0.888889
vt 0.725000 0.888889
vt 0.750000 0.777778
vt 0.700000 0.555556
vt 0.750000 0.666667
vt 0.800000 0.777778
vt 0.750000 0.888889
vt 0.775000 0.888889
vt 0.750000 0.555556
vt 0.800000 0.666667
vt 0.775000 1.000000
vt -0.000000 0.777778
vt 0.025000 0.888889
vt -0.000000 0.888889
vt 0.000000 0.555556
vt 0.050000 0.666667
vt 0.000000 0.666667
vt 0.025000 1.000000
vt 0.050000 0.777778
vt 0.050000 0.555556
vt 0.100000 0.666667
vt 0.075000 1.000000
vt 0.050000 0.888889
vt 0.075000 0.888889
vt 0.100000 0.777778
vt 0.125000 1.000000
vt 0.100000 0.888889
vt 0.125000 0.888889
vt 0.150000 0.777778
vt 0.100000 0.555556
vt 0.150000 0.666667
vt 0.175000 0.888889
vt 0.150000 0.888889
vt 0.150000 0.555556
vt 0.175000 1.000000
vt 0.600000 0.555556
vt 0.550000 0.666667
vt 0.550000 0.555556
vt 0.575000 0.888889
vt 0.550000 0.777778
vt 0.600000 0.777778
vt 0.600000 0.666667
vt 0.575000 1.000000
vt 0.550000 0.888889
vt 0.500000 0.666667
vt 0.525000 0.888889
vt 0.525000 1.000000
vt 0.500000 0.888889
vt 0.500000 0.555556
vt 0.500000 0.777778
vt 0.450000 0.666667
vt 0.475000 0.888889
vt 0.475000 1.000000
vt 0.450000 0.888889
vt 0.450000 0.555556
vt 0.450000 0.777778
vt 0.400000 0.555556
vt 0.425000 0.888889
vt 0.400000 0.777778
vt 0.400000 0.666667
vt 0.425000 1.000000
vt 0.400000 0.888889
vt 0.350000 0.555556
vt 0.375000 0.888889
vt 0.350000 0.777778
vt 0.350000 0.666667
vt 0.375000 1.000000
vt 0.350000 0.888889
vt 0.300000 0.777778
vt 0.300000 0.666667
vt 0.325000 0.888889
vt 0.325000 1.000000
vt 0.300000 0.888889
vt 0.300000 0.555556
vt 0.250000 0.777778
vt 0.250000 0.666667
vt 0.275000 0.888889
vt 0.275000 1.000000
vt 0.250000 0.888889
vt 0.250000 0.555556
vt 0.200000 0.555556
vt 0.225000 0.888889
vt 0.200000 0.777778
vt 0.200000 0.666667
vt 0.225000 1.000000
vt 0.200000 0.888889
vt 0.175000 0.888889
vt 0.150000 0.777778
vt 0.150000 0.666667
vt 0.175000 1.000000
vt 0.150000 0.888889
vt 0.150000 0.555556
vt 0.100000 0.666667
vt 0.125000 0.888889
vt 0.125000 1.000000
vt 0.100000 0.888889
vt 0.100000 0.555556
vt 0.100000 0.777778
vt 0.075000 0.888889
vt 0.075000 1.000000
vt 0.050000 0.888889
vt 0.050000 0.666667
vt 0.050000 0.555556
vt 0.050000 0.777778
vt 0.000000 0.666667
vt 0.000000 0.555556
vt 0.025000 0.888889
vt 0.000000 0.777778
vt 0.025000 1.000000
vt -0.000000 0.888889
vt 0.800000 0.777778
vt 0.750000 0.666667
vt 0.800000 0.666667
vt 0.775000 0.888889
vt 0.775000 1.000000
vt 0.750000 0.888889
vt 0.800000 0.555556
vt 0.750000 0.555556
vt 0.750000 0.777778
vt 0.700000 0.666667
vt 0.725000 0.888889
vt 0.725000 1.000000
vt 0.700000 0.888889
vt 0.700000 0.555556
vt 0.700000 0.777778
vt 0.650000 0.666667
vt 0.650000 0.555556
vt 0.675000 0.888889
vt 0.650000 0.777778
vt 0.675000 1.000000
vt 0.650000 0.888889
vt 0.625000 0.888889
vt 0.625000 1.000000
vt 0.600000 0.888889
vt 0.550000 0.222222
vt 0.550000 0.333333
vt 0.525000 0.333333
vt 0.525000 0.111111
vt 0.500000 0.222222
vt 0.600000 0.222222
vt 0.600000 0.333333
vt 0.575000 0.333333
vt 0.600000 0.111111
vt 0.625000 0.111111
vt 0.650000 0.222222
vt 0.650000 0.333333
vt 0.625000 0.333333
vt 0.700000 0.111111
vt 0.700000 0.222222
vt 0.700000 0.333333
vt 0.675000 0.333333
vt 0.725000 0.111111
vt 0.750000 0.222222
vt 0.750000 0.333333
vt 0.725000 0.333333
vt 0.775000 0.111111
vt 0.800000 0.222222
vt 0.800000 0.333333
vt 0.775000 0.333333
vt 0.425000 0.111111
vt 0.450000 0.222222
vt 0.400000 0.222222
vt 0.450000 0.333333
vt 0.425000 0.333333
vt 0.475000 0.111111
vt 0.500000 0.333333
vt 0.475000 0.333333
vt 0.275000 0.333333
vt 0.250000 0.222222
vt 0.300000 0.222222
vt 0.300000 0.111111
vt 0.225000 0.333333
vt 0.200000 0.222222
vt 0.225000 0.111111
vt 0.250000 0.111111
vt 0.150000 0.222222
vt 0.200000 0.111111
vt 0.175000 0.333333
vt 0.125000 0.111111
vt 0.150000 0.111111
vt 0.125000 0.333333
vt 0.100000 0.222222
vt 0.050000 0.222222
vt 0.100000 0.111111
vt 0.075000 0.333333
vt 0.000000 0.222222
vt 0.050000 0.111111
vt 0.025000 0.333333
vt 0.350000 0.222222
vt 0.400000 0.111111
vt 0.400000 0.222222
vt 0.375000 0.333333
vt 0.350000 0.111111
vt 0.325000 0.333333
vt 0.375000 0.111111
vt 0.375000 -0.000000
vt 0.025000 0.111111
vt 0.025000 0.000000
vt 0.075000 0.111111
vt 0.075000 0.000000
vt 0.125000 0.000000
vt 0.325000 0.111111
vt 0.325000 0.000000
vt 0.275000 0.111111
vt 0.275000 0.000000
vt 0.225000 0.000000
vt 0.175000 0.111111
vt 0.175000 0.000000
vt 0.625000 -0.000000
vt 0.650000 0.111111
vt 0.575000 0.111111
vt 0.575000 -0.000000
vt 0.675000 0.111111
vt 0.675000 0.000000
vt 0.750000 0.111111
vt 0.725000 -0.000000
vt 0.800000 0.111111
vt 0.775000 -0.000000
vt 0.450000 0.111111
vt 0.425000 -0.000000
vt 0.500000 0.111111
vt 0.475000 -0.000000
vt 0.525000 0.000000
vt 0.550000 0.111111
vt 0.350000 0.555556
vt 0.800000 0.555556
vt 0.400000 0.333333
vt 0.300000 0.333333
vt 0.250000 0.333333
vt 0.200000 0.333333
vt 0.150000 0.333333
vt 0.100000 0.333333
vt 0.050000 0.333333
vt -0.000000 0.333333
vt 0.400000 0.333333
vt 0.350000 0.333333
vn 0.000000 1.000000 0.000000
vn 0.000000 -1.000000 0.000000
vn -0.707100 0.000000 0.707100
vn -0.707100 0.000000 -0.707100
vn 0.707100 0.000000 -0.707100
vn 0.707100 0.000000 0.707100
vn -0.500000 -0.707100 0.500000
vn 0.500000 0.707100 -0.500000
vn 0.500000 -0.707100 -0.500000
vn -0.500000 0.707100 0.500000
vn 0.500000 -0.707100 0.500000
vn -0.500000 0.707100 -0.500000
vn -0.500000 -0.707100 -0.500000
vn 0.500000 0.707100 0.500000
vn 0.000000 -0.915200 -0.403100
vn 0.154200 -0.915200 -0.372400
vn 0.000000 -0.695200 -0.718800
vn 0.354800 -0.374300 -0.856700
vn 0.275100 -0.695200 -0.664100
vn 0.000000 -0.195100 -0.980800
vn 0.000000 -0.374300 -0.927300
vn 0.285000 -0.915200 -0.285000
vn 0.375300 -0.195100 -0.906100
vn 0.655700 -0.374300 -0.655700
vn 0.508300 -0.695200 -0.508300
vn 0.693500 -0.195100 -0.693500
vn 0.856700 -0.374300 -0.354800
vn 0.372400 -0.915200 -0.154200
vn 0.664100 -0.695200 -0.275100
vn 0.403100 -0.915200 0.000000
vn 0.927300 -0.374300 0.000000
vn 0.718800 -0.695200 0.000000
vn 0.980800 -0.195100 0.000000
vn 0.372400 -0.915200 0.154200
vn 0.856700 -0.374300 0.354800
vn 0.664100 -0.695200 0.275100
vn 0.508300 -0.695200 0.508300
vn 0.285000 -0.915200 0.285000
vn 0.906100 -0.195100 0.375300
vn 0.655700 -0.374300 0.655700
vn 0.154200 -0.915200 0.372400
vn 0.275100 -0.695200 0.664100
vn 0.693500 -0.195100 0.693500
vn 0.354800 -0.374300 0.856700
vn 0.000000 -0.915200 0.403100
vn 0.000000 -0.695200 0.718800
vn 0.375300 -0.195100 0.906100
vn 0.000000 -0.374300 0.927300
vn -0.275100 -0.695200 0.664100
vn -0.154200 -0.915200 0.372400
vn 0.000000 -0.195100 0.980800
vn -0.354800 -0.374300 0.856700
vn -0.285000 -0.915200 0.285000
vn -0.375300 -0.195100 0.906100
vn -0.655700 -0.374300 0.655700
vn -0.508300 -0.695200 0.508300
vn -0.372400 -0.915200 0.154200
vn -0.664100 -0.695200 0.275100
vn -0.693500 -0.195100 0.693500
vn -0.856700 -0.374300 0.354800
vn -0.718800 -0.695200 0.000000
vn -0.403100 -0.915200 0.000000
vn -0.906100 -0.195100 0.375300
vn -0.927300 -0.374300 0.000000
vn -0.372400 -0.915200 -0.154200
vn -0.980800 -0.195100 0.000000
vn -0.856700 -0.374300 -0.354800
vn -0.664100 -0.695200 -0.275100
vn -0.906100 -0.195100 -0.375300
vn -0.655700 -0.374300 -0.655700
vn -0.285000 -0.915200 -0.285000
vn -0.508300 -0.695200 -0.508300
vn -0.154200 -0.915200 -0.372400
vn -0.275100 -0.695200 -0.664100
vn -0.693500 -0.195100 -0.693500
vn -0.354800 -0.374300 -0.856700
vn -0.375300 -0.195100 -0.906100
vn 0.000000 0.195100 -0.980800
vn 0.354800 0.374300 -0.856700
vn 0.375300 0.195100 -0.906100
vn 0.000000 0.915200 -0.403100
vn 0.275100 0.695200 -0.664100
vn 0.000000 0.695200 -0.718800
vn 0.000000 0.374300 -0.927300
vn 0.154200 0.915200 -0.372400
vn 0.655700 0.374300 -0.655700
vn 0.285000 0.915200 -0.285000
vn 0.693500 0.195100 -0.693500
vn 0.508300 0.695200 -0.508300
vn 0.856700 0.374300 -0.354800
vn 0.372400 0.915200 -0.154200
vn 0.906100 0.195100 -0.375300
vn 0.664100 0.695200 -0.275100
vn 0.980800 0.195100 0.000000
vn 0.718800 0.695200 0.000000
vn 0.927300 0.374300 0.000000
vn 0.403100 0.915200 0.000000
vn 0.906100 0.195100 0.375300
vn 0.664100 0.695200 0.275100
vn 0.856700 0.374300 0.354800
vn 0.372400 0.915200 0.154200
vn 0.508300 0.695200 0.508300
vn 0.655700 0.374300 0.655700
vn 0.285000 0.915200 0.285000
vn 0.693500 0.195100 0.693500
vn 0.275100 0.695200 0.664100
vn 0.354800 0.374300 0.856700
vn 0.154200 0.915200 0.372400
vn 0.375300 0.195100 0.906100
vn 0.000000 0.195100 0.980800
vn 0.000000 0.695200 0.718800
vn 0.000000 0.374300 0.927300
vn 0.000000 0.915200 0.403100
vn -0.275100 0.695200 0.664100
vn -0.354800 0.374300 0.856700
vn -0.154200 0.915200 0.372400
vn -0.375300 0.195100 0.906100
vn -0.655700 0.374300 0.655700
vn -0.285000 0.915200 0.285000
vn -0.693500 0.195100 0.693500
vn -0.508300 0.695200 0.508300
vn -0.372400 0.915200 0.154200
vn -0.856700 0.374300 0.354800
vn -0.906100 0.195100 0.375300
vn -0.664100 0.695200 0.275100
vn -0.927300 0.374300 0.000000
vn -0.980800 0.195100 0.000000
vn -0.718800 0.695200 0.000000
vn -0.403100 0.915200 0.000000
vn -0.856700 0.374300 -0.354800
vn -0.372400 0.915200 -0.154200
vn -0.906100 0.195100 -0.375300
vn -0.664100 0.695200 -0.275100
vn -0.655700 0.374300 -0.655700
vn -0.285000 0.915200 -0.285000
vn -0.693500 0.195100 -0.693500
vn -0.508300 0.695200 -0.508300
vn -0.354800 0.374300 -0.856700
vn -0.375300 0.195100 -0.906100
vn -0.275100 0.695200 -0.664100
vn -0.154200 0.915200 -0.372400
vn 0.622500 0.474400 -0.622500
vn 0.683000 0.258800 -0.683000
vn 0.371400 0.240300 -0.896800
vn 0.000000 0.838300 -0.545200
vn 0.000000 0.474400 -0.880300
vn 0.880300 0.474400 0.000000
vn 0.965900 0.258800 0.000000
vn 0.896800 0.240300 -0.371400
vn 0.545200 0.838300 0.000000
vn 0.622500 0.474400 0.622500
vn 0.683000 0.258800 0.683000
vn 0.896800 0.240300 0.371400
vn 0.000000 0.838300 0.545200
vn 0.000000 0.474400 0.880300
vn 0.000000 0.258800 0.965900
vn 0.371400 0.240300 0.896800
vn -0.622500 0.474400 0.622500
vn -0.683000 0.258800 0.683000
vn -0.371400 0.240300 0.896800
vn -0.385500 0.838300 0.385500
vn -0.880300 0.474400 0.000000
vn -0.965900 0.258800 0.000000
vn -0.896800 0.240300 0.371400
vn -0.545200 0.838300 0.000000
vn -0.622500 0.474400 -0.622500
vn -0.683000 0.258800 -0.683000
vn -0.896800 0.240300 -0.371400
vn -0.385500 0.838300 -0.385500
vn 0.000000 0.258800 -0.965900
vn -0.371400 0.240300 -0.896800
vn -0.371400 -0.240300 0.896800
vn -0.622500 -0.474400 0.622500
vn 0.000000 -0.474400 0.880300
vn 0.000000 -0.838300 0.545200
vn -0.896800 -0.240300 0.371400
vn -0.880300 -0.474400 0.000000
vn -0.545200 -0.838300 0.000000
vn -0.385500 -0.838300 0.385500
vn -0.622500 -0.474400 -0.622500
vn -0.896800 -0.240300 -0.371400
vn 0.000000 -0.838300 -0.545200
vn -0.385500 -0.838300 -0.385500
vn -0.371400 -0.240300 -0.896800
vn 0.000000 -0.474400 -0.880300
vn 0.622500 -0.474400 -0.622500
vn 0.371400 -0.240300 -0.896800
vn 0.880300 -0.474400 0.000000
vn 0.385500 -0.838300 -0.385500
vn 0.896800 -0.240300 -0.371400
vn 0.622500 -0.474400 0.622500
vn 0.545200 -0.838300 0.000000
vn 0.896800 -0.240300 0.371400
vn 0.385500 -0.838300 0.385500
vn 0.371400 -0.240300 0.896800
vn 0.385500 0.838300 0.385500
vn 0.385500 0.838300 -0.385500
vn 0.906100 -0.195100 -0.375300
vn 0.000000 -0.258800 0.965900
vn -0.683000 -0.258800 0.683000
vn -0.965900 -0.258800 0.000000
vn -0.683000 -0.258800 -0.683000
vn 0.000000 -0.258800 -0.965900
vn 0.683000 -0.258800 -0.683000
vn 0.965900 -0.258800 0.000000
vn 0.683000 -0.258800 0.683000
o Sphere
usemtl texture
s off
f 1/1/1 2/2/1 3/3/1
f 2/2/1 4/4/1 3/3/1
f 5/5/1 6/6/1 7/7/1
f 5/5/1 8/8/1 9/9/1
f 10/10/1 11/11/1 12/12/1
f 8/8/1 13/13/1 9/9/1
f 11/14/1 14/15/1 12/12/1
f 15/16/1 14/15/1 16/17/1
f 14/15/1 17/18/1 16/17/1
f 18/19/1 19/20/1 13/13/1
f 17/18/1 20/21/1 21/22/1
f 22/23/1 20/21/1 23/24/1
f 19/20/1 10/10/1 24/25/1
f 22/23/1 25/26/1 26/27/1
f 25/26/1 27/28/1 26/27/1
f 15/16/1 10/10/1 12/12/1
f 28/29/1 29/30/1 30/31/1
f 1/1/1 30/31/1 31/32/1
f 32/33/2 33/34/2 34/35/2
f 33/34/2 35/36/2 34/35/2
f 36/37/2 37/38/2 35/36/2
f 38/39/2 39/40/2 40/41/2
f 38/39/2 41/42/2 42/43/2
f 42/43/2 43/44/2 44/45/2
f 43/44/2 45/46/2 44/45/2
f 45/46/2 46/47/2 47/48/2
f 47/49/2 48/50/2 49/51/2
f 50/52/2 48/50/2 51/53/2
f 50/52/2 52/54/2 53/55/2
f 52/54/2 54/56/2 53/55/2
f 54/56/2 55/57/2 56/58/2
f 57/59/2 55/57/2 58/60/2
f 57/59/2 59/61/2 60/62/2
f 32/33/2 59/61/2 61/63/2
f 62/64/3 63/65/3 64/66/3
f 65/67/4 66/68/4 63/65/4
f 67/69/5 68/70/5 66/68/5
f 69/71/6 64/72/6 68/70/6
f 66/68/2 64/73/2 63/74/2
f 62/75/7 70/76/7 65/77/7
f 67/69/8 71/78/8 69/71/8
f 69/71/6 72/79/6 62/80/6
f 65/77/4 73/81/4 67/69/4
f 74/82/5 75/83/5 76/84/5
f 77/85/6 78/86/6 75/83/6
f 79/87/3 80/88/3 78/86/3
f 81/89/4 76/90/4 80/88/4
f 75/91/2 80/88/2 76/92/2
f 74/93/9 82/94/9 77/95/9
f 81/89/10 83/96/10 84/97/10
f 84/97/4 74/98/4 81/89/4
f 77/95/6 83/96/6 79/87/6
f 85/99/6 86/100/6 87/101/6
f 88/102/3 89/103/3 86/100/3
f 90/104/4 91/105/4 89/103/4
f 92/106/5 87/107/5 91/105/5
f 89/103/2 87/108/2 86/109/2
f 85/110/11 93/111/11 88/112/11
f 90/104/12 94/113/12 92/106/12
f 94/113/5 85/114/5 92/106/5
f 90/104/3 93/111/3 95/115/3
f 96/116/4 97/117/4 98/118/4
f 99/119/5 100/120/5 97/117/5
f 101/121/6 102/122/6 100/120/6
f 103/123/3 98/124/3 102/122/3
f 97/125/2 102/122/2 98/126/2
f 99/127/13 104/128/13 105/129/13
f 103/123/14 106/130/14 107/131/14
f 107/131/3 96/132/3 103/123/3
f 99/127/5 106/130/5 101/121/5
f 108/133/3 109/134/3 110/135/3
f 111/136/4 112/137/4 109/134/4
f 113/138/5 114/139/5 112/137/5
f 115/140/6 110/141/6 114/139/6
f 116/142/5 117/143/5 118/144/5
f 119/145/6 120/146/6 117/143/6
f 121/147/3 122/148/3 120/146/3
f 123/149/4 118/150/4 122/148/4
f 124/151/6 125/152/6 126/153/6
f 127/154/3 128/155/3 125/152/3
f 129/156/4 130/157/4 128/155/4
f 131/158/5 126/159/5 130/157/5
f 132/160/4 133/161/4 134/162/4
f 135/163/5 136/164/5 133/161/5
f 137/165/6 138/166/6 136/164/6
f 139/167/3 134/168/3 138/166/3
f 14/15/1 140/169/1 141/170/1
f 20/21/1 140/171/1 142/172/1
f 20/21/1 143/173/1 23/24/1
f 25/26/1 143/174/1 144/175/1
f 25/26/1 145/176/1 29/30/1
f 30/31/1 145/177/1 146/178/1
f 147/179/2 59/61/2 58/60/2
f 55/57/2 147/180/2 58/60/2
f 148/181/2 55/57/2 149/182/2
f 52/54/2 148/183/2 149/182/2
f 150/184/2 52/54/2 51/53/2
f 48/50/2 150/185/2 51/53/2
f 151/186/2 48/50/2 46/187/2
f 152/188/2 151/189/2 46/47/2
f 153/190/1 10/10/1 154/191/1
f 18/19/1 153/192/1 154/191/1
f 155/193/1 18/19/1 8/8/1
f 7/7/1 155/194/1 8/8/1
f 7/7/1 156/195/1 157/196/1
f 2/2/1 156/197/1 6/198/1
f 2/2/1 158/199/1 159/200/1
f 30/31/1 158/201/1 31/32/1
f 59/61/2 160/202/2 61/63/2
f 33/34/2 160/203/2 161/204/2
f 33/34/2 162/205/2 36/37/2
f 39/40/2 162/206/2 163/207/2
f 39/40/2 164/208/2 40/41/2
f 41/42/2 164/209/2 165/210/2
f 41/42/2 166/211/2 43/44/2
f 166/212/2 152/188/2 43/44/2
f 1/1/1 31/32/1 2/2/1
f 2/2/1 6/198/1 4/4/1
f 5/5/1 4/213/1 6/6/1
f 5/5/1 7/7/1 8/8/1
f 10/10/1 167/214/1 11/11/1
f 8/8/1 18/19/1 13/13/1
f 11/14/1 168/215/1 14/15/1
f 15/16/1 12/12/1 14/15/1
f 14/15/1 141/170/1 17/18/1
f 18/19/1 154/191/1 19/20/1
f 17/18/1 141/170/1 20/21/1
f 22/23/1 21/22/1 20/21/1
f 19/20/1 154/191/1 10/10/1
f 22/23/1 23/24/1 25/26/1
f 25/26/1 29/30/1 27/28/1
f 15/16/1 24/25/1 10/10/1
f 28/29/1 27/28/1 29/30/1
f 1/1/1 28/29/1 30/31/1
f 32/33/2 61/63/2 33/34/2
f 33/34/2 36/37/2 35/36/2
f 36/37/2 39/40/2 37/38/2
f 38/39/2 37/38/2 39/40/2
f 38/39/2 40/41/2 41/42/2
f 42/43/2 41/42/2 43/44/2
f 43/44/2 152/188/2 45/46/2
f 45/46/2 152/188/2 46/47/2
f 47/49/2 46/187/2 48/50/2
f 50/52/2 49/51/2 48/50/2
f 50/52/2 51/53/2 52/54/2
f 52/54/2 149/182/2 54/56/2
f 54/56/2 149/182/2 55/57/2
f 57/59/2 56/58/2 55/57/2
f 57/59/2 58/60/2 59/61/2
f 32/33/2 60/62/2 59/61/2
f 62/64/3 65/67/3 63/65/3
f 65/67/4 67/69/4 66/68/4
f 67/69/5 69/71/5 68/70/5
f 69/71/6 62/216/6 64/72/6
f 66/68/2 68/70/2 64/73/2
f 62/75/7 72/217/7 70/76/7
f 67/69/8 73/81/8 71/78/8
f 69/71/6 71/78/6 72/79/6
f 65/77/4 70/76/4 73/81/4
f 74/82/5 77/85/5 75/83/5
f 77/85/6 79/87/6 78/86/6
f 79/87/3 81/89/3 80/88/3
f 81/89/4 74/218/4 76/90/4
f 75/91/2 78/86/2 80/88/2
f 74/93/9 169/219/9 82/94/9
f 81/89/10 79/87/10 83/96/10
f 84/97/4 169/220/4 74/98/4
f 77/95/6 82/94/6 83/96/6
f 85/99/6 88/102/6 86/100/6
f 88/102/3 90/104/3 89/103/3
f 90/104/4 92/106/4 91/105/4
f 92/106/5 85/221/5 87/107/5
f 89/103/2 91/105/2 87/108/2
f 85/110/11 170/222/11 93/111/11
f 90/104/12 95/115/12 94/113/12
f 94/113/5 170/223/5 85/114/5
f 90/104/3 88/112/3 93/111/3
f 96/116/4 99/119/4 97/117/4
f 99/119/5 101/121/5 100/120/5
f 101/121/6 103/123/6 102/122/6
f 103/123/3 96/224/3 98/124/3
f 97/125/2 100/120/2 102/122/2
f 99/127/13 96/225/13 104/128/13
f 103/123/14 101/121/14 106/130/14
f 107/131/3 104/226/3 96/132/3
f 99/127/5 105/129/5 106/130/5
f 108/133/3 111/136/3 109/134/3
f 111/136/4 113/138/4 112/137/4
f 113/138/5 115/140/5 114/139/5
f 115/140/6 108/227/6 110/141/6
f 116/142/5 119/145/5 117/143/5
f 119/145/6 121/147/6 120/146/6
f 121/147/3 123/149/3 122/148/3
f 123/149/4 116/228/4 118/150/4
f 124/151/6 127/154/6 125/152/6
f 127/154/3 129/156/3 128/155/3
f 129/156/4 131/158/4 130/157/4
f 131/158/5 124/229/5 126/159/5
f 132/160/4 135/163/4 133/161/4
f 135/163/5 137/165/5 136/164/5
f 137/165/6 139/167/6 138/166/6
f 139/167/3 132/230/3 134/168/3
f 14/15/1 168/231/1 140/169/1
f 20/21/1 141/170/1 140/171/1
f 20/21/1 142/232/1 143/173/1
f 25/26/1 23/24/1 143/174/1
f 25/26/1 144/233/1 145/176/1
f 30/31/1 29/30/1 145/177/1
f 147/179/2 171/234/2 59/61/2
f 55/57/2 172/235/2 147/180/2
f 148/181/2 172/236/2 55/57/2
f 52/54/2 173/237/2 148/183/2
f 150/184/2 173/238/2 52/54/2
f 48/50/2 174/239/2 150/185/2
f 151/186/2 174/240/2 48/50/2
f 152/188/2 175/241/2 151/189/2
f 153/190/1 167/242/1 10/10/1
f 18/19/1 176/243/1 153/192/1
f 155/193/1 176/244/1 18/19/1
f 7/7/1 157/245/1 155/194/1
f 7/7/1 6/6/1 156/195/1
f 2/2/1 159/246/1 156/197/1
f 2/2/1 31/32/1 158/199/1
f 30/31/1 146/247/1 158/201/1
f 59/61/2 171/248/2 160/202/2
f 33/34/2 61/63/2 160/203/2
f 33/34/2 161/249/2 162/205/2
f 39/40/2 36/37/2 162/206/2
f 39/40/2 163/250/2 164/208/2
f 41/42/2 40/41/2 164/209/2
f 41/42/2 165/251/2 166/211/2
f 166/212/2 175/252/2 152/188/2
f 177/253/2 178/254/15 179/255/16
f 180/256/17 181/257/18 182/258/19
f 180/256/17 179/255/16 178/254/15
f 183/259/20 181/257/18 184/260/21
f 182/258/19 185/261/22 179/262/16
f 186/263/23 187/264/24 181/257/18
f 177/265/2 179/262/16 185/261/22
f 182/258/19 187/264/24 188/266/25
f 189/267/26 190/268/27 187/264/24
f 177/269/2 185/270/22 191/271/28
f 187/264/24 192/272/29 188/266/25
f 188/266/25 191/271/28 185/270/22
f 177/273/2 191/274/28 193/275/30
f 192/272/29 194/276/31 195/277/32
f 192/272/29 193/275/30 191/274/28
f 190/268/27 196/278/33 194/276/31
f 195/277/32 197/279/34 193/280/30
f 196/278/33 198/281/35 194/276/31
f 177/282/2 193/280/30 197/279/34
f 194/276/31 199/283/36 195/277/32
f 197/284/34 200/285/37 201/286/38
f 202/287/39 203/288/40 198/281/35
f 177/289/2 197/284/34 201/286/38
f 198/281/35 200/285/37 199/283/36
f 177/290/2 201/291/38 204/292/41
f 203/288/40 205/293/42 200/285/37
f 201/291/38 205/293/42 204/292/41
f 206/294/43 207/295/44 203/288/40
f 177/296/2 204/297/41 208/298/45
f 207/295/44 209/299/46 205/293/42
f 204/297/41 209/299/46 208/298/45
f 210/300/47 211/301/48 207/295/44
f 208/302/45 212/303/49 213/304/50
f 214/305/51 215/306/52 211/301/48
f 177/307/2 208/302/45 213/304/50
f 211/301/48 212/303/49 209/299/46
f 212/303/49 216/308/53 213/309/50
f 217/310/54 218/311/55 215/306/52
f 177/312/2 213/309/50 216/308/53
f 215/306/52 219/313/56 212/303/49
f 177/314/2 216/315/53 220/316/57
f 218/311/55 221/317/58 219/313/56
f 216/315/53 221/317/58 220/316/57
f 222/318/59 223/319/60 218/311/55
f 223/319/60 224/320/61 221/317/58
f 220/321/57 224/320/61 225/322/62
f 226/323/63 227/324/64 223/319/60
f 177/325/2 220/321/57 225/322/62
f 224/326/61 228/327/65 225/328/62
f 229/329/66 230/330/67 227/331/64
f 177/332/2 225/328/62 228/327/65
f 224/326/61 230/330/67 231/333/68
f 232/334/69 233/335/70 230/330/67
f 177/336/2 228/337/65 234/338/71
f 230/330/67 235/339/72 231/333/68
f 228/337/65 235/339/72 234/338/71
f 177/340/2 234/341/71 236/342/73
f 233/335/70 237/343/74 235/339/72
f 234/341/71 237/343/74 236/342/73
f 238/344/75 239/345/76 233/335/70
f 237/343/74 178/346/15 236/347/73
f 240/348/77 184/260/21 239/345/76
f 177/349/2 236/347/73 178/346/15
f 237/343/74 184/260/21 180/256/17
f 241/350/78 242/351/79 243/352/80
f 244/353/81 245/354/82 246/355/83
f 246/355/83 242/351/79 247/356/84
f 244/353/81 248/357/1 249/358/85
f 245/354/82 250/359/86 242/351/79
f 249/360/85 248/361/1 251/362/87
f 242/351/79 252/363/88 243/352/80
f 249/360/85 253/364/89 245/354/82
f 253/364/89 254/365/90 250/359/86
f 251/366/87 248/367/1 255/368/91
f 250/359/86 256/369/92 252/363/88
f 253/364/89 255/368/91 257/370/93
f 254/365/90 258/371/94 256/369/92
f 255/372/91 259/373/95 257/370/93
f 254/365/90 259/373/95 260/374/96
f 255/372/91 248/375/1 261/376/97
f 260/374/96 262/377/98 258/371/94
f 261/378/97 263/379/99 259/373/95
f 259/373/95 264/380/100 260/374/96
f 261/378/97 248/381/1 265/382/101
f 264/380/100 266/383/102 267/384/103
f 265/385/101 248/386/1 268/387/104
f 262/377/98 267/384/103 269/388/105
f 265/385/101 266/383/102 263/379/99
f 267/384/103 270/389/106 271/390/107
f 268/391/104 248/392/1 272/393/108
f 269/388/105 271/390/107 273/394/109
f 266/383/102 272/393/108 270/389/106
f 271/390/107 274/395/110 273/394/109
f 272/396/108 275/397/111 270/389/106
f 270/389/106 276/398/112 271/390/107
f 272/396/108 248/399/1 277/400/113
f 277/401/113 278/402/114 275/397/111
f 275/397/111 279/403/115 276/398/112
f 277/401/113 248/404/1 280/405/116
f 274/395/110 279/403/115 281/406/117
f 278/402/114 282/407/118 279/403/115
f 280/408/116 248/409/1 283/410/119
f 281/406/117 282/407/118 284/411/120
f 280/408/116 285/412/121 278/402/114
f 283/413/119 248/414/1 286/415/122
f 284/411/120 287/416/123 288/417/124
f 285/412/121 286/415/122 289/418/125
f 285/412/121 287/416/123 282/407/118
f 288/417/124 290/419/126 291/420/127
f 286/421/122 292/422/128 289/418/125
f 289/418/125 290/419/126 287/416/123
f 286/421/122 248/423/1 293/424/129
f 292/425/128 294/426/130 290/427/126
f 293/428/129 248/429/1 295/430/131
f 291/431/127 294/426/130 296/432/132
f 293/428/129 297/433/133 292/425/128
f 297/433/133 298/434/134 294/426/130
f 295/435/131 248/436/1 299/437/135
f 296/432/132 298/434/134 300/438/136
f 297/433/133 299/437/135 301/439/137
f 300/438/136 302/440/138 303/441/139
f 299/442/135 304/443/140 301/439/137
f 301/439/137 302/440/138 298/434/134
f 299/442/135 248/444/1 305/445/141
f 303/441/139 247/356/84 241/350/78
f 305/446/141 246/355/83 304/443/140
f 304/443/140 247/356/84 302/440/138
f 305/446/141 248/447/1 244/448/81
f 306/449/142 307/450/143 308/451/144
f 309/452/145 306/449/142 310/453/146
f 311/454/147 312/455/148 313/456/149
f 306/449/142 314/457/150 311/454/147
f 314/458/150 315/459/151 311/454/147
f 315/459/151 316/460/152 317/461/153
f 315/459/151 318/462/154 319/463/155
f 319/463/155 320/464/156 321/465/157
f 318/466/154 322/467/158 319/463/155
f 322/467/158 323/468/159 324/469/160
f 325/470/161 326/471/162 322/467/158
f 326/471/162 327/472/163 328/473/164
f 329/474/165 330/475/166 326/476/162
f 330/475/166 331/477/167 332/478/168
f 333/479/169 310/453/146 330/475/166
f 310/453/146 334/480/170 335/481/171
f 336/482/172 337/483/173 338/484/174
f 337/483/173 339/485/175 338/484/174
f 340/486/176 341/487/177 337/483/173
f 337/483/173 342/488/178 343/489/179
f 344/490/180 342/491/178 341/487/177
f 345/492/181 344/490/180 341/487/177
f 344/490/180 346/493/182 347/494/183
f 348/495/184 349/496/185 344/490/180
f 350/497/186 346/498/182 349/496/185
f 351/499/187 350/497/186 349/496/185
f 352/500/188 353/501/189 350/497/186
f 354/502/190 352/500/188 350/497/186
f 355/503/191 356/504/192 352/505/188
f 357/506/193 355/503/191 352/505/188
f 338/484/174 358/507/194 355/503/191
f 359/508/195 338/484/174 355/503/191
f 358/509/194 360/510/2 356/504/192
f 356/511/192 360/512/2 353/501/189
f 353/513/189 360/514/2 346/498/182
f 346/493/182 360/515/2 347/494/183
f 339/516/175 360/517/2 358/507/194
f 339/485/175 343/518/179 360/519/2
f 343/489/179 342/488/178 360/520/2
f 342/491/178 347/521/183 360/522/2
f 314/458/150 361/523/1 362/524/196
f 363/525/197 361/526/1 314/457/150
f 362/527/196 361/528/1 318/462/154
f 325/529/161 318/466/154 361/530/1
f 329/531/165 325/470/161 361/532/1
f 333/533/169 329/474/165 361/534/1
f 309/535/145 333/479/169 361/536/1
f 309/452/145 361/537/1 363/538/197
f 180/256/17 184/260/21 181/257/18
f 180/256/17 182/258/19 179/255/16
f 183/259/20 186/263/23 181/257/18
f 182/258/19 188/266/25 185/261/22
f 186/263/23 189/267/26 187/264/24
f 182/258/19 181/257/18 187/264/24
f 189/267/26 364/539/198 190/268/27
f 187/264/24 190/268/27 192/272/29
f 188/266/25 192/272/29 191/271/28
f 192/272/29 190/268/27 194/276/31
f 192/272/29 195/277/32 193/275/30
f 190/268/27 364/539/198 196/278/33
f 195/277/32 199/283/36 197/279/34
f 196/278/33 202/287/39 198/281/35
f 194/276/31 198/281/35 199/283/36
f 197/284/34 199/283/36 200/285/37
f 202/287/39 206/294/43 203/288/40
f 198/281/35 203/288/40 200/285/37
f 203/288/40 207/295/44 205/293/42
f 201/291/38 200/285/37 205/293/42
f 206/294/43 210/300/47 207/295/44
f 207/295/44 211/301/48 209/299/46
f 204/297/41 205/293/42 209/299/46
f 210/300/47 214/305/51 211/301/48
f 208/302/45 209/299/46 212/303/49
f 214/305/51 217/310/54 215/306/52
f 211/301/48 215/306/52 212/303/49
f 212/303/49 219/313/56 216/308/53
f 217/310/54 222/318/59 218/311/55
f 215/306/52 218/311/55 219/313/56
f 218/311/55 223/319/60 221/317/58
f 216/315/53 219/313/56 221/317/58
f 222/318/59 226/323/63 223/319/60
f 223/319/60 227/324/64 224/320/61
f 220/321/57 221/317/58 224/320/61
f 226/323/63 229/540/66 227/324/64
f 224/326/61 231/333/68 228/327/65
f 229/329/66 232/334/69 230/330/67
f 224/326/61 227/331/64 230/330/67
f 232/334/69 238/344/75 233/335/70
f 230/330/67 233/335/70 235/339/72
f 228/337/65 231/333/68 235/339/72
f 233/335/70 239/345/76 237/343/74
f 234/341/71 235/339/72 237/343/74
f 238/344/75 240/348/77 239/345/76
f 237/343/74 180/256/17 178/346/15
f 240/348/77 183/259/20 184/260/21
f 237/343/74 239/345/76 184/260/21
f 241/350/78 247/356/84 242/351/79
f 244/353/81 249/358/85 245/354/82
f 246/355/83 245/354/82 242/351/79
f 245/354/82 253/364/89 250/359/86
f 242/351/79 250/359/86 252/363/88
f 249/360/85 251/362/87 253/364/89
f 253/364/89 257/370/93 254/365/90
f 250/359/86 254/365/90 256/369/92
f 253/364/89 251/366/87 255/368/91
f 254/365/90 260/374/96 258/371/94
f 255/372/91 261/376/97 259/373/95
f 254/365/90 257/370/93 259/373/95
f 260/374/96 264/380/100 262/377/98
f 261/378/97 265/382/101 263/379/99
f 259/373/95 263/379/99 264/380/100
f 264/380/100 263/379/99 266/383/102
f 262/377/98 264/380/100 267/384/103
f 265/385/101 268/387/104 266/383/102
f 267/384/103 266/383/102 270/389/106
f 269/388/105 267/384/103 271/390/107
f 266/383/102 268/391/104 272/393/108
f 271/390/107 276/398/112 274/395/110
f 272/396/108 277/400/113 275/397/111
f 270/389/106 275/397/111 276/398/112
f 277/401/113 280/405/116 278/402/114
f 275/397/111 278/402/114 279/403/115
f 274/395/110 276/398/112 279/403/115
f 278/402/114 285/412/121 282/407/118
f 281/406/117 279/403/115 282/407/118
f 280/408/116 283/410/119 285/412/121
f 284/411/120 282/407/118 287/416/123
f 285/412/121 283/413/119 286/415/122
f 285/412/121 289/418/125 287/416/123
f 288/417/124 287/416/123 290/419/126
f 286/421/122 293/424/129 292/422/128
f 289/418/125 292/422/128 290/419/126
f 292/425/128 297/433/133 294/426/130
f 291/431/127 290/427/126 294/426/130
f 293/428/129 295/430/131 297/433/133
f 297/433/133 301/439/137 298/434/134
f 296/432/132 294/426/130 298/434/134
f 297/433/133 295/435/131 299/437/135
f 300/438/136 298/434/134 302/440/138
f 299/442/135 305/445/141 304/443/140
f 301/439/137 304/443/140 302/440/138
f 303/441/139 302/440/138 247/356/84
f 305/446/141 244/448/81 246/355/83
f 304/443/140 246/355/83 247/356/84
f 308/451/144 334/480/170 310/453/146
f 310/453/146 306/449/142 308/451/144
f 309/452/145 363/538/197 306/449/142
f 313/456/149 307/450/143 306/449/142
f 306/449/142 311/454/147 313/456/149
f 306/449/142 363/525/197 314/457/150
f 314/458/150 362/524/196 315/459/151
f 317/461/153 312/455/148 311/454/147
f 311/454/147 315/459/151 317/461/153
f 315/459/151 362/527/196 318/462/154
f 321/465/157 316/460/152 315/459/151
f 315/459/151 319/463/155 321/465/157
f 318/466/154 325/529/161 322/467/158
f 324/469/160 320/464/156 319/463/155
f 319/463/155 322/467/158 324/469/160
f 325/470/161 329/531/165 326/471/162
f 328/473/164 323/468/159 322/467/158
f 322/467/158 326/471/162 328/473/164
f 329/474/165 333/533/169 330/475/166
f 332/478/168 327/541/163 326/476/162
f 326/476/162 330/475/166 332/478/168
f 333/479/169 309/535/145 310/453/146
f 335/481/171 331/477/167 330/475/166
f 330/475/166 310/453/146 335/481/171
f 338/484/174 365/542/199 336/482/172
f 336/482/172 366/543/200 337/483/173
f 337/483/173 343/518/179 339/485/175
f 337/483/173 366/543/200 340/486/176
f 340/486/176 367/544/201 341/487/177
f 337/483/173 341/487/177 342/488/178
f 344/490/180 347/521/183 342/491/178
f 341/487/177 367/544/201 345/492/181
f 345/492/181 368/545/202 344/490/180
f 344/490/180 349/496/185 346/493/182
f 344/490/180 368/545/202 348/495/184
f 348/495/184 369/546/203 349/496/185
f 350/497/186 353/513/189 346/498/182
f 349/496/185 369/546/203 351/499/187
f 351/499/187 370/547/204 350/497/186
f 352/500/188 356/511/192 353/501/189
f 350/497/186 370/547/204 354/502/190
f 354/502/190 371/548/205 352/500/188
f 355/503/191 358/509/194 356/504/192
f 352/505/188 371/549/205 357/506/193
f 357/506/193 372/550/206 355/503/191
f 338/484/174 339/516/175 358/507/194
f 355/503/191 372/550/206 359/508/195
f 359/508/195 365/542/199 338/484/174
