# Blender 4.5.0
# www.blender.org
mtllib meteorite_blade.mtl
o blade
v 0.094979 -0.276107 -0.000970
v 0.094979 1.124258 -0.000970
v -0.000357 1.235310 -0.000970
v 0.041336 -0.276107 0.038109
v 0.041336 1.099478 0.038109
v -0.000357 1.154861 0.038109
v -0.095693 -0.276107 -0.000970
v -0.095693 1.124258 -0.000970
v -0.042050 -0.276107 0.038109
v -0.042050 1.099478 0.038109
v 0.041336 -0.276107 -0.040050
v 0.041336 1.099478 -0.040050
v -0.000357 1.154861 -0.040050
v -0.042050 -0.276107 -0.040050
v -0.042050 1.099478 -0.040050
vn -0.0000 -0.0000 1.0000
vn -0.0001 -0.0981 0.9952
vn 0.6701 0.2525 0.6980
vn 0.4518 0.3720 0.8109
vn 0.5888 -0.0000 0.8083
vn 0.4543 -0.1647 0.8755
vn -0.3914 0.4464 0.8047
vn -0.6701 0.2525 0.6980
vn -0.4518 0.3720 0.8109
vn -0.5888 -0.0000 0.8083
vn -0.0000 -0.0000 -1.0000
vn 0.6702 0.2525 -0.6980
vn -0.0000 -0.0981 -0.9952
vn 0.4518 0.3720 -0.8109
vn 0.5888 -0.0000 -0.8083
vn 0.3914 0.4464 -0.8047
vn -0.4543 -0.1647 -0.8755
vn -0.6701 0.2525 -0.6980
vn -0.4518 0.3720 -0.8109
vn -0.5888 -0.0000 -0.8083
vt 0.955620 0.905363
vt 0.900767 0.000464
vt 0.955620 0.000464
vt 0.598463 0.430127
vt 0.527525 0.413395
vt 0.571360 0.457231
vt 0.999279 0.000464
vt 0.900767 0.905363
vt 0.928194 0.941795
vt 0.615196 0.501066
vt 0.857108 0.000464
vt 0.857108 0.921664
vt 0.813449 0.000464
vt 0.758595 0.905363
vt 0.758595 0.000464
vt 0.544257 0.484334
vt 0.714936 0.000464
vt 0.714936 0.921664
vt 0.813449 0.905363
vt 0.786022 0.941796
vt 0.570650 0.392230
vt 0.999279 0.921664
vt 0.636361 0.457940
vt 0.506359 0.456521
vt 0.572070 0.522231
s 1
usemtl UV2
f 5/1/1 9/2/1 4/3/1
f 6/4/2 2/5/3 3/6/4
f 1/7/5 5/1/6 4/3/5
f 10/8/7 5/1/6 6/9/2
f 8/10/8 6/4/2 3/6/9
f 7/11/10 10/8/7 8/12/8
f 14/13/11 12/14/11 11/15/11
f 2/5/12 13/16/13 3/6/14
f 1/17/15 12/14/16 2/18/12
f 15/19/17 13/20/13 12/14/16
f 13/16/13 8/10/18 3/6/19
f 7/11/20 15/19/17 14/13/20
f 5/1/1 10/8/1 9/2/1
f 6/4/2 5/21/6 2/5/3
f 1/7/5 2/22/3 5/1/6
f 8/10/8 10/23/7 6/4/2
f 7/11/10 9/2/10 10/8/7
f 14/13/11 15/19/11 12/14/11
f 2/5/12 12/24/16 13/16/13
f 1/17/15 11/15/15 12/14/16
f 13/16/13 15/25/17 8/10/18
f 7/11/20 8/12/18 15/19/17
o Cube.001
v -0.088815 -0.940132 0.045088
v -0.000357 -0.851674 0.045088
v 0.088100 -0.940132 0.045088
v -0.044586 -0.984361 0.045088
v -0.088815 -1.028589 0.045088
v -0.000357 -0.940132 0.045088
v -0.000357 -1.117047 0.045088
v 0.088100 -1.028589 0.045088
v 0.043872 -0.984361 0.045088
v -0.000357 -0.987396 0.045088
v -0.039991 -1.027030 0.045088
v -0.000357 -1.066664 0.045088
v 0.039277 -1.027030 0.045088
v -0.088815 -0.940132 -0.047030
v -0.000357 -0.851674 -0.047030
v 0.088100 -0.940132 -0.047030
v -0.044586 -0.984361 -0.047030
v -0.088815 -1.028589 -0.047030
v -0.000357 -0.940132 -0.047030
v -0.000357 -1.117047 -0.047030
v 0.088100 -1.028589 -0.047030
v 0.043872 -0.984361 -0.047030
v -0.000357 -0.987396 -0.047030
v -0.039991 -1.027030 -0.047030
v -0.000357 -1.066664 -0.047030
v 0.039277 -1.027030 -0.047030
vn -0.0000 -0.0000 1.0000
vn 0.7071 0.7071 -0.0000
vn -0.7071 0.7071 -0.0000
vn 0.7071 -0.7071 -0.0000
vn -0.7071 -0.7071 -0.0000
vn -0.0000 -0.0000 -1.0000
vt 0.314185 0.142785
vt 0.271531 0.100132
vt 0.314185 0.057478
vt 0.228176 0.315143
vt 0.286289 0.350503
vt 0.228176 0.350503
vt 0.271531 0.057478
vt 0.228877 0.142785
vt 0.228877 0.100132
vt 0.248741 0.077341
vt 0.210518 0.077341
vt 0.186224 0.100132
vt 0.210518 0.039119
vt 0.271531 0.014824
vt 0.186224 0.014824
vt 0.248740 0.039119
vt 0.228176 0.421223
vt 0.286289 0.456583
vt 0.228176 0.456583
vt 0.286289 0.385863
vt 0.228176 0.385863
vt 0.286289 0.421223
vt 0.137730 0.221437
vt 0.090443 0.285653
vt 0.090443 0.221437
vt 0.313916 0.285154
vt 0.228967 0.285154
vt 0.271441 0.242679
vt 0.090443 0.381978
vt 0.137730 0.349870
vt 0.137730 0.381978
vt 0.137730 0.189329
vt 0.090443 0.349870
vt 0.137730 0.285653
vt 0.090443 0.478302
vt 0.137730 0.414086
vt 0.137730 0.478302
vt 0.090443 0.157221
vt 0.137730 0.093005
vt 0.137730 0.157221
vt 0.090443 0.414086
vt 0.090443 0.189329
vt 0.228967 0.242679
vt 0.271441 0.200204
vt 0.313916 0.200204
vt 0.248746 0.219984
vt 0.248746 0.181922
vt 0.271441 0.157730
vt 0.210684 0.181922
vt 0.186492 0.157730
vt 0.186492 0.242679
vt 0.210684 0.219984
vt 0.286289 0.315143
vt 0.090443 0.093005
s 1
usemtl UV2
f 17/26/21 21/27/21 18/28/21
f 27/29/22 39/30/22 26/31/22
f 21/27/21 24/32/21 18/28/21
f 21/27/21 16/33/21 19/34/21
f 17/26/21 16/33/21 21/27/21
f 24/32/21 21/27/21 25/35/21
f 21/27/21 19/34/21 25/35/21
f 19/34/21 26/36/21 25/35/21
f 20/37/21 27/38/21 26/36/21
f 23/39/21 27/38/21 22/40/21
f 24/32/21 28/41/21 23/39/21
f 28/42/23 40/43/23 27/44/23
f 26/31/24 38/45/24 25/46/24
f 25/46/25 41/47/25 28/42/25
f 16/48/23 30/49/23 29/50/23
f 30/51/26 31/52/26 34/53/26
f 37/54/24 18/55/24 24/56/24
f 29/50/25 19/57/25 16/48/25
f 31/58/22 17/59/22 18/55/22
f 35/60/24 23/61/24 22/62/24
f 33/63/25 22/64/25 20/65/25
f 36/66/22 24/56/22 23/61/22
f 20/65/23 32/67/23 33/63/23
f 34/53/26 31/52/26 37/68/26
f 34/53/26 32/69/26 29/70/26
f 30/51/26 34/53/26 29/70/26
f 37/68/26 38/71/26 34/53/26
f 34/53/26 38/71/26 32/69/26
f 32/69/26 39/72/26 33/73/26
f 33/73/26 40/74/26 35/75/26
f 40/74/26 36/76/26 35/75/26
f 41/77/26 37/68/26 36/76/26
f 27/29/22 40/78/22 39/30/22
f 19/34/21 20/37/21 26/36/21
f 20/37/21 22/40/21 27/38/21
f 23/39/21 28/41/21 27/38/21
f 24/32/21 25/35/21 28/41/21
f 28/42/23 41/47/23 40/43/23
f 26/31/24 39/30/24 38/45/24
f 25/46/25 38/45/25 41/47/25
f 16/48/23 17/59/23 30/49/23
f 37/54/24 31/58/24 18/55/24
f 29/50/25 32/67/25 19/57/25
f 31/58/22 30/49/22 17/59/22
f 35/60/24 36/66/24 23/61/24
f 33/63/25 35/79/25 22/64/25
f 36/66/22 37/54/22 24/56/22
f 20/65/23 19/57/23 32/67/23
f 32/69/26 38/71/26 39/72/26
f 33/73/26 39/72/26 40/74/26
f 40/74/26 41/77/26 36/76/26
f 41/77/26 38/71/26 37/68/26
o handle
v 0.059968 -0.930150 0.030908
v 0.059968 -0.414411 0.030908
v -0.000357 -0.167369 0.059025
v 0.155091 -0.322817 0.059025
v 0.063496 -0.414411 0.059025
v -0.155805 -0.322817 0.059025
v -0.064210 -0.414411 0.059025
v -0.000357 -0.250290 0.059059
v -0.074336 -0.324269 0.059034
v -0.036927 -0.361679 0.059016
v 0.036212 -0.361679 0.059016
v 0.073622 -0.324269 0.059034
v -0.074336 -0.324269 0.041207
v -0.000357 -0.250290 0.041232
v 0.073622 -0.324269 0.041207
v -0.036927 -0.361679 0.041189
v 0.036212 -0.361679 0.041189
v -0.060682 -0.414411 0.030908
v -0.060682 -0.930150 0.030908
v 0.059968 -0.930150 -0.032849
v 0.059968 -0.414411 -0.032849
v -0.000357 -0.167369 -0.060965
v 0.155091 -0.322817 -0.060965
v 0.063496 -0.414411 -0.060965
v -0.155805 -0.322817 -0.060965
v -0.064210 -0.414411 -0.060965
v -0.000357 -0.250290 -0.061000
v -0.074336 -0.324269 -0.060975
v -0.036927 -0.361679 -0.060957
v 0.036212 -0.361679 -0.060957
v 0.073622 -0.324269 -0.060975
v -0.074336 -0.324269 -0.043148
v -0.000357 -0.250290 -0.043173
v 0.073622 -0.324269 -0.043148
v -0.036927 -0.361679 -0.043130
v 0.036212 -0.361679 -0.043130
v -0.060682 -0.414411 -0.032849
v -0.060682 -0.930150 -0.032849
v -0.000357 -0.324269 -0.043148
v -0.000357 -0.324269 0.041207
vn -0.6787 -0.7229 0.1298
vn -1.0000 -0.0000 -0.0000
vn 0.1298 -0.7229 0.6787
vn 0.0001 -0.0000 1.0000
vn -0.0002 0.0001 1.0000
vn 0.0002 0.0001 1.0000
vn 0.7071 0.7071 -0.0000
vn -0.0002 -0.0000 1.0000
vn -0.0000 -0.0002 1.0000
vn -0.0000 0.0004 1.0000
vn 0.6787 -0.7229 -0.1298
vn -0.0000 -1.0000 -0.0000
vn -0.0001 -0.0000 1.0000
vn 0.0002 -0.0000 1.0000
vn -0.0000 -0.0003 -1.0000
vn -0.0000 -0.0004 -1.0000
vn 0.7071 -0.7071 -0.0000
vn -0.7071 0.7071 -0.0000
vn -0.0000 1.0000 -0.0000
vn -0.7071 -0.7071 -0.0000
vn -0.0000 -0.0000 -1.0000
vn -0.5397 -0.5757 -0.6143
vn 1.0000 -0.0000 -0.0000
vn -0.0000 -0.0002 -1.0000
vn -0.0002 -0.0000 -1.0000
vn -0.0000 0.0004 -1.0000
vn 0.0001 -0.0000 -1.0000
vn -0.0001 -0.0000 -1.0000
vn 0.0002 -0.0000 -1.0000
vn -0.0000 -0.0005 -1.0000
vn -0.0000 -0.0000 1.0000
vn -0.0000 -0.0005 1.0000
vn -0.0000 -0.0004 1.0000
vn -0.0000 -0.0003 1.0000
vt 0.508191 0.371236
vt 0.463102 0.006500
vt 0.463102 0.371236
vt 0.610107 0.714784
vt 0.627486 0.770595
vt 0.600834 0.743943
vt 0.471035 0.823891
vt 0.457460 0.783563
vt 0.471048 0.783564
vt 0.543351 0.714784
vt 0.573568 0.797861
vt 0.543351 0.828078
vt 0.573568 0.743943
vt 0.407123 0.657169
vt 0.426658 0.743446
vt 0.407123 0.740995
vt 0.656645 0.761322
vt 0.627486 0.797861
vt 0.656645 0.828078
vt 0.656660 0.656703
vt 0.628516 0.628559
vt 0.656660 0.600416
vt 0.457479 0.703815
vt 0.471067 0.703815
vt 0.471035 0.879641
vt 0.457460 0.919968
vt 0.457446 0.879641
vt 0.457446 0.823891
vt 0.471048 0.919968
vt 0.457479 0.999717
vt 0.628393 0.006664
vt 0.543086 0.371318
vt 0.628393 0.371318
vt 0.708994 0.006509
vt 0.663905 0.371246
vt 0.708994 0.371246
vt 0.343291 0.564719
vt 0.426658 0.411980
vt 0.426658 0.564719
vt 0.343291 0.654718
vt 0.426658 0.654718
vt 0.426658 0.986184
vt 0.343291 0.833445
vt 0.426658 0.833445
vt 0.343291 0.743446
vt 0.471065 0.919946
vt 0.484640 0.879619
vt 0.484653 0.919946
vt 0.574292 0.939945
vt 0.655402 0.969447
vt 0.544789 0.969447
vt 0.626934 0.939945
vt 0.655402 0.904271
vt 0.362826 0.657169
vt 0.600912 0.887303
vt 0.626934 0.913325
vt 0.609966 0.858834
vt 0.574292 0.887303
vt 0.544789 0.858834
vt 0.600372 0.656703
vt 0.600372 0.628240
vt 0.471084 0.999694
vt 0.484672 0.999694
vt 0.484640 0.823868
vt 0.471065 0.783542
vt 0.484653 0.783542
vt 0.471051 0.879619
vt 0.471084 0.703793
vt 0.484672 0.703793
vt 0.428571 0.371346
vt 0.343159 0.006238
vt 0.343159 0.371346
vt 0.628196 0.600416
vt 0.542535 0.600288
vt 0.542856 0.628570
vt 0.514573 0.628249
vt 0.514573 0.656853
vt 0.571139 0.600288
vt 0.571139 0.656853
vt 0.508191 0.006500
vt 0.471067 0.999717
vt 0.543086 0.006664
vt 0.663905 0.006509
vt 0.343291 0.411980
vt 0.343291 0.986184
vt 0.362826 0.740995
vt 0.471051 0.823868
vt 0.428571 0.006238
s 1
usemtl UV2
f 78/80/27 60/81/28 59/82/29
f 48/83/30 52/84/31 51/85/32
f 51/86/33 54/87/33 50/88/33
f 47/89/34 49/90/35 44/91/36
f 48/83/30 50/92/35 47/89/34
f 43/93/37 48/94/38 59/95/29
f 46/96/39 53/97/35 52/84/31
f 45/98/40 49/90/35 53/97/35
f 74/99/41 80/100/42 73/101/42
f 50/88/43 55/102/43 49/103/43
f 52/104/44 56/105/44 58/106/44
f 52/104/45 57/107/45 51/86/45
f 53/108/46 55/109/46 56/105/46
f 61/110/47 78/111/27 62/112/48
f 42/113/49 62/114/48 43/115/37
f 64/116/33 44/117/33 45/118/33
f 65/119/43 45/118/43 46/120/43
f 44/121/44 66/122/44 47/123/44
f 47/123/46 67/124/46 48/94/46
f 73/125/33 70/126/33 69/127/33
f 68/128/50 66/129/51 63/130/52
f 69/131/50 67/132/53 66/129/51
f 62/133/48 67/124/38 65/119/38
f 71/134/53 67/132/53 70/135/54
f 65/136/54 72/137/50 64/138/55
f 64/138/55 68/128/50 63/130/52
f 75/139/42 77/140/56 80/100/42
f 74/141/43 69/127/43 68/142/43
f 71/143/44 75/144/44 72/145/44
f 76/146/45 71/143/45 70/126/45
f 72/145/46 74/147/46 68/148/46
f 59/149/29 42/150/57 43/151/37
f 67/124/38 59/95/29 48/94/38
f 43/93/37 65/119/38 46/120/38
f 75/139/42 80/100/42 74/99/41
f 76/152/56 73/101/42 80/100/42
f 80/100/42 77/140/56 76/152/56
f 58/153/58 81/154/59 57/155/58
f 54/156/59 57/155/58 81/154/59
f 58/153/58 56/157/59 81/154/59
f 55/158/60 81/154/59 56/157/59
f 54/156/59 81/154/59 55/158/60
f 78/80/27 79/159/28 60/81/28
f 48/83/30 46/96/39 52/84/31
f 51/86/33 57/107/33 54/87/33
f 47/89/34 50/92/35 49/90/35
f 48/83/30 51/85/32 50/92/35
f 43/93/37 46/120/38 48/94/38
f 46/96/39 45/98/40 53/97/35
f 45/98/40 44/91/36 49/90/35
f 50/88/43 54/87/43 55/102/43
f 52/104/44 53/108/44 56/105/44
f 52/104/45 58/106/45 57/107/45
f 53/108/46 49/160/46 55/109/46
f 61/110/47 79/161/47 78/111/27
f 42/113/49 61/162/49 62/114/48
f 64/116/33 63/163/33 44/117/33
f 65/119/43 64/116/43 45/118/43
f 44/121/44 63/164/44 66/122/44
f 47/123/46 66/122/46 67/124/46
f 73/125/33 76/146/33 70/126/33
f 68/128/50 69/131/50 66/129/51
f 69/131/50 70/135/54 67/132/53
f 62/133/48 78/165/27 67/124/38
f 71/134/53 65/136/54 67/132/53
f 65/136/54 71/134/53 72/137/50
f 64/138/55 72/137/50 68/128/50
f 74/141/43 73/125/43 69/127/43
f 71/143/44 77/166/44 75/144/44
f 76/146/45 77/166/45 71/143/45
f 72/145/46 75/144/46 74/147/46
f 59/149/29 60/167/57 42/150/57
f 67/124/38 78/165/27 59/95/29
f 43/93/37 62/133/48 65/119/38
o hilt
v 0.071924 -0.405984 -0.053354
v 0.122876 -0.456937 -0.042318
v 0.155071 -0.322837 -0.053230
v 0.206069 -0.373744 -0.042318
v 0.206069 -0.541256 -0.042318
v 0.122876 -0.618914 -0.030353
v 0.071924 -0.405984 0.051413
v 0.122876 -0.456937 0.040377
v 0.155071 -0.322837 0.051289
v 0.206069 -0.373744 0.040377
v 0.206069 -0.541256 0.040377
v 0.122876 -0.618914 0.028412
v -0.072612 -0.239624 -0.053354
v -0.147244 -0.164992 -0.042318
v -0.155805 -0.322817 -0.053354
v -0.230437 -0.248185 -0.042318
v -0.230437 -0.080673 -0.042318
v -0.147244 -0.003015 -0.030353
v -0.072612 -0.239624 0.051413
v -0.147244 -0.164992 0.040377
v -0.155805 -0.322817 0.051413
v -0.230437 -0.248185 0.040377
v -0.230437 -0.080673 0.040377
v -0.147244 -0.003015 0.028412
vn 0.1065 -0.1060 -0.9886
vn 0.1071 -0.1062 -0.9886
vn 0.1078 -0.1063 -0.9885
vn -0.0247 -0.0244 -0.9994
vn -0.0495 -0.0489 -0.9976
vn -0.0745 -0.0735 -0.9945
vn 0.7065 0.7077 -0.0000
vn 0.1065 -0.1060 0.9886
vn 0.1071 -0.1062 0.9886
vn 0.1059 -0.1059 0.9887
vn -0.7071 -0.7071 -0.0000
vn -0.0247 -0.0244 0.9994
vn -0.0495 -0.0489 0.9976
vn -0.0000 -0.0000 1.0000
vn -1.0000 -0.0000 -0.0000
vn 0.6824 -0.7310 -0.0000
vn 1.0000 -0.0000 -0.0000
vn -0.0735 0.0735 -0.9946
vn 0.7071 0.7071 -0.0000
vn 0.0247 0.0244 -0.9994
vn 0.0495 0.0489 -0.9976
vn 0.0745 0.0735 -0.9945
vn -0.6824 0.7310 -0.0000
vn -0.0735 0.0735 0.9946
vn 0.0247 0.0244 0.9994
vn 0.0495 0.0489 0.9976
vn 0.1059 -0.1059 -0.9887
vn -0.0000 -0.0000 -1.0000
vn 0.1078 -0.1063 0.9885
vn -0.0745 -0.0735 0.9945
vn 0.0745 0.0735 0.9945
vt 0.264060 0.537462
vt 0.285041 0.627529
vt 0.319557 0.593129
vt 0.229334 0.683801
vt 0.285157 0.736102
vt 0.006755 0.488073
vt 0.070751 0.438809
vt 0.078212 0.488073
vt 0.149649 0.536483
vt 0.170996 0.627310
vt 0.114872 0.571218
vt 0.014216 0.135743
vt 0.078296 0.086479
vt 0.070751 0.135743
vt 0.114904 0.684193
vt 0.022395 0.246481
vt 0.062571 0.246481
vt 0.070751 0.324287
vt 0.014216 0.438809
vt 0.071603 0.589966
vt 0.007522 0.517808
vt 0.079148 0.517808
vt 0.229275 0.829211
vt 0.335742 0.834945
vt 0.279888 0.778832
vt 0.071603 0.893032
vt 0.007523 0.965190
vt 0.015068 0.893032
vt 0.285128 0.885324
vt 0.229013 0.941935
vt 0.285174 0.994621
vt 0.063423 0.782294
vt 0.023248 0.782294
vt 0.071603 0.704488
vt 0.015068 0.589966
vt 0.165877 0.778049
vt 0.171001 0.885020
vt 0.114974 0.828585
vt 0.114563 0.941809
vt 0.229522 0.571823
vt 0.205751 0.592535
vt 0.006670 0.086479
vt 0.171328 0.736849
vt 0.014216 0.324287
vt 0.079148 0.965190
vt 0.015068 0.704488
vt 0.221905 0.834485
vt 0.170905 0.994802
s 1
usemtl UV2
f 84/168/61 83/169/62 82/170/63
f 83/169/64 86/171/65 87/172/66
f 90/173/67 85/174/67 84/175/67
f 90/176/68 89/177/69 91/178/70
f 89/179/71 82/180/71 83/181/71
f 89/177/72 92/182/73 91/178/74
f 93/183/75 83/181/75 87/184/75
f 86/185/76 93/183/76 87/184/76
f 91/186/77 86/185/77 85/174/77
f 103/187/71 96/188/71 102/189/71
f 97/190/78 94/191/78 96/192/78
f 101/193/79 94/194/79 95/195/79
f 95/196/80 98/197/81 99/198/82
f 105/199/77 95/195/77 99/200/77
f 99/200/83 104/201/83 105/199/83
f 104/201/75 97/202/75 103/187/75
f 102/203/84 101/204/84 103/205/84
f 101/204/85 104/206/86 103/205/74
f 84/168/61 85/207/87 83/169/62
f 83/169/64 85/207/88 86/171/65
f 90/173/67 91/186/67 85/174/67
f 90/176/68 88/208/89 89/177/69
f 89/179/71 88/209/71 82/180/71
f 89/177/72 93/210/90 92/182/73
f 93/183/75 89/179/75 83/181/75
f 86/185/76 92/211/76 93/183/76
f 91/186/77 92/211/77 86/185/77
f 103/187/71 97/202/71 96/188/71
f 97/190/78 95/196/78 94/191/78
f 101/193/79 100/212/79 94/194/79
f 95/196/80 97/190/88 98/197/81
f 105/199/77 101/193/77 95/195/77
f 99/200/83 98/213/83 104/201/83
f 104/201/75 98/213/75 97/202/75
f 102/203/84 100/214/84 101/204/84
f 101/204/85 105/215/91 104/206/86
