# Blender 4.5.6 LTS
# www.blender.org
mtllib meteorite_blade.mtl
o handle
v 0.059968 -0.930150 0.030908
v 0.059968 -0.414411 0.030908
v -0.000357 -0.167369 0.059025
v 0.155091 -0.322817 0.059025
v 0.063496 -0.414411 0.059025
v -0.155805 -0.322817 0.059025
v -0.064210 -0.414411 0.059025
v -0.000357 -0.250290 0.059059
v -0.074336 -0.324269 0.059034
v -0.036927 -0.361679 0.059016
v 0.036212 -0.361679 0.059016
v 0.073622 -0.324269 0.059034
v -0.074336 -0.324269 0.041207
v -0.000357 -0.250290 0.041232
v 0.073622 -0.324269 0.041207
v -0.036927 -0.361679 0.041189
v 0.036212 -0.361679 0.041189
v -0.060682 -0.414411 0.030908
v -0.060682 -0.930150 0.030908
v 0.059968 -0.930150 -0.032849
v 0.059968 -0.414411 -0.032849
v -0.000357 -0.167369 -0.060965
v 0.155091 -0.322817 -0.060965
v 0.063496 -0.414411 -0.060965
v -0.155805 -0.322817 -0.060965
v -0.064210 -0.414411 -0.060965
v -0.000357 -0.250290 -0.061000
v -0.074336 -0.324269 -0.060975
v -0.036927 -0.361679 -0.060957
v 0.036212 -0.361679 -0.060957
v 0.073622 -0.324269 -0.060975
v -0.074336 -0.324269 -0.043148
v -0.000357 -0.250290 -0.043173
v 0.073622 -0.324269 -0.043148
v -0.036927 -0.361679 -0.043130
v 0.036212 -0.361679 -0.043130
v -0.060682 -0.414411 -0.032849
v -0.060682 -0.930150 -0.032849
v -0.000357 -0.324269 -0.043148
v -0.000357 -0.324269 0.041207
vn 1.0000 -0.0000 -0.0000
vn -0.0000 0.0002 1.0000
vn 0.7071 0.7071 -0.0000
vn -0.0003 0.0002 1.0000
vn -0.0000 -0.0001 1.0000
vn -0.0000 -1.0000 -0.0000
vn 0.0003 0.0002 1.0000
vn -0.0000 -0.0003 -1.0000
vn 0.7071 -0.7071 -0.0000
vn -0.7071 0.7071 -0.0000
vn -0.0000 1.0000 -0.0000
vn -0.7071 -0.7071 -0.0000
vn -0.0000 -0.0000 1.0000
vn -1.0000 -0.0000 -0.0000
vn -0.0003 0.0002 -1.0000
vn -0.0000 -0.0001 -1.0000
vn -0.0000 0.0002 -1.0000
vn 0.0003 0.0002 -1.0000
vn -0.0000 -0.0005 -1.0000
vn -0.0000 -0.0000 -1.0000
vn -0.0000 -0.0005 1.0000
vn -0.0000 -0.0003 1.0000
vt 0.463102 0.371236
vt 0.463102 0.006500
vt 0.508191 0.006500
vt 0.508191 0.371236
vt 0.600834 0.743943
vt 0.610107 0.714784
vt 0.656645 0.761322
vt 0.627486 0.770595
vt 0.471048 0.783564
vt 0.471035 0.823891
vt 0.457446 0.823891
vt 0.457460 0.783563
vt 0.543351 0.828078
vt 0.543351 0.714784
vt 0.573568 0.743943
vt 0.573568 0.797861
vt 0.407123 0.740995
vt 0.407123 0.657169
vt 0.426658 0.654718
vt 0.426658 0.743446
vt 0.656645 0.828078
vt 0.627486 0.797861
vt 0.656660 0.656703
vt 0.628516 0.628559
vt 0.656660 0.600416
vt 0.471067 0.703815
vt 0.457479 0.703815
vt 0.471035 0.879641
vt 0.471048 0.919968
vt 0.457460 0.919968
vt 0.457446 0.879641
vt 0.471067 0.999717
vt 0.457479 0.999717
vt 0.628393 0.371318
vt 0.543086 0.371318
vt 0.543086 0.006664
vt 0.628393 0.006664
vt 0.708994 0.371246
vt 0.663905 0.371246
vt 0.663905 0.006509
vt 0.708994 0.006509
vt 0.426658 0.564719
vt 0.343291 0.564719
vt 0.343291 0.411980
vt 0.426658 0.411980
vt 0.343291 0.654718
vt 0.426658 0.833445
vt 0.426658 0.986184
vt 0.343291 0.986184
vt 0.343291 0.833445
vt 0.343291 0.743446
vt 0.484653 0.919946
vt 0.471065 0.919946
vt 0.471051 0.879619
vt 0.484640 0.879619
vt 0.544789 0.969447
vt 0.574292 0.939945
vt 0.626934 0.939945
vt 0.655402 0.969447
vt 0.626934 0.913325
vt 0.655402 0.904271
vt 0.362826 0.657169
vt 0.362826 0.740995
vt 0.600912 0.887303
vt 0.609966 0.858834
vt 0.574292 0.887303
vt 0.544789 0.858834
vt 0.600372 0.656703
vt 0.600372 0.628240
vt 0.484672 0.999694
vt 0.471084 0.999694
vt 0.484640 0.823868
vt 0.471051 0.823868
vt 0.471065 0.783542
vt 0.484653 0.783542
vt 0.471084 0.703793
vt 0.484672 0.703793
vt 0.343159 0.371346
vt 0.343159 0.006238
vt 0.428571 0.006238
vt 0.428571 0.371346
vt 0.628196 0.600416
vt 0.542535 0.600288
vt 0.542856 0.628570
vt 0.514573 0.628249
vt 0.514573 0.656853
vt 0.571139 0.600288
vt 0.571139 0.656853
s 0
usemtl UV2
f 18/1/1 19/2/1 38/3/1 37/4/1
f 10/5/2 7/6/2 5/7/2 11/8/2
f 9/9/3 10/10/3 16/11/3 13/12/3
f 3/13/4 6/14/4 9/15/4 8/16/4
f 6/14/5 7/6/5 10/5/5 9/15/5
f 18/17/6 2/18/6 5/19/6 7/20/6
f 5/7/5 4/21/5 12/22/5 11/8/5
f 4/21/7 3/13/7 8/16/7 12/22/7
f 33/23/8 39/24/8 32/25/8
f 8/26/9 9/9/9 13/12/9 14/27/9
f 11/28/10 12/29/10 15/30/10 17/31/10
f 10/10/11 11/28/11 17/31/11 16/11/11
f 12/29/12 8/32/12 14/33/12 15/30/12
f 21/34/13 37/35/13 38/36/13 20/37/13
f 2/38/14 21/39/14 20/40/14 1/41/14
f 4/42/3 23/43/3 22/44/3 3/45/3
f 5/19/9 24/46/9 23/43/9 4/42/9
f 6/47/10 3/48/10 22/49/10 25/50/10
f 7/20/12 6/47/12 25/50/12 26/51/12
f 28/52/3 32/53/3 35/54/3 29/55/3
f 22/56/15 27/57/15 28/58/15 25/59/15
f 25/59/16 28/58/16 29/60/16 26/61/16
f 24/46/6 21/62/6 37/63/6 26/51/6
f 29/60/17 30/64/17 24/65/17 26/61/17
f 24/65/16 30/64/16 31/66/16 23/67/16
f 23/67/18 31/66/18 27/57/18 22/56/18
f 34/68/19 36/69/19 39/24/19
f 27/70/9 33/71/9 32/53/9 28/52/9
f 30/72/10 36/73/10 34/74/10 31/75/10
f 29/55/11 35/54/11 36/73/11 30/72/11
f 31/75/12 34/74/12 33/76/12 27/77/12
f 2/78/20 1/79/20 19/80/20 18/81/20
f 7/20/6 26/51/6 37/63/6 18/17/6
f 5/19/6 2/18/6 21/62/6 24/46/6
f 34/68/8 39/24/8 33/23/8
f 35/82/19 32/25/19 39/24/19
f 39/24/19 36/69/19 35/82/19
f 17/83/21 40/84/21 16/85/21
f 13/86/21 16/85/21 40/84/21
f 17/83/21 15/87/21 40/84/21
f 14/88/22 40/84/22 15/87/22
f 13/86/22 40/84/22 14/88/22
o hilt
v 0.071924 -0.405984 -0.053354
v 0.122876 -0.456937 -0.042318
v 0.155071 -0.322837 -0.053230
v 0.206069 -0.373744 -0.042318
v 0.206069 -0.541256 -0.042318
v 0.122876 -0.618914 -0.030353
v 0.071924 -0.405984 0.051413
v 0.122876 -0.456937 0.040377
v 0.155071 -0.322837 0.051289
v 0.206069 -0.373744 0.040377
v 0.206069 -0.541256 0.040377
v 0.122876 -0.618914 0.028412
v -0.072612 -0.239624 -0.053354
v -0.147244 -0.164992 -0.042318
v -0.155805 -0.322817 -0.053354
v -0.230437 -0.248185 -0.042318
v -0.230437 -0.080673 -0.042318
v -0.147244 -0.003015 -0.030353
v -0.072612 -0.239624 0.051413
v -0.147244 -0.164992 0.040377
v -0.155805 -0.322817 0.051413
v -0.230437 -0.248185 0.040377
v -0.230437 -0.080673 0.040377
v -0.147244 -0.003015 0.028412
vn 0.1068 -0.1061 -0.9886
vn -0.0368 -0.0363 -0.9987
vn 0.7065 0.7077 -0.0000
vn 0.1068 -0.1061 0.9886
vn -0.7071 -0.7071 -0.0000
vn -0.0368 -0.0363 0.9987
vn -1.0000 -0.0000 -0.0000
vn 0.6824 -0.7310 -0.0000
vn 1.0000 -0.0000 -0.0000
vn -0.0735 0.0735 -0.9946
vn 0.7071 0.7071 -0.0000
vn 0.0368 0.0363 -0.9987
vn -0.6824 0.7310 -0.0000
vn -0.0735 0.0735 0.9946
vn 0.0368 0.0363 0.9987
vt 0.264060 0.537462
vt 0.229522 0.571823
vt 0.285041 0.627529
vt 0.319557 0.593129
vt 0.229334 0.683801
vt 0.285157 0.736102
vt 0.078212 0.488073
vt 0.006755 0.488073
vt 0.014216 0.438809
vt 0.070751 0.438809
vt 0.149649 0.536483
vt 0.205751 0.592535
vt 0.170996 0.627310
vt 0.114872 0.571218
vt 0.070751 0.135743
vt 0.014216 0.135743
vt 0.006670 0.086479
vt 0.078296 0.086479
vt 0.171328 0.736849
vt 0.114904 0.684193
vt 0.062571 0.246481
vt 0.022395 0.246481
vt 0.070751 0.324287
vt 0.014216 0.324287
vt 0.079148 0.517808
vt 0.071603 0.589966
vt 0.015068 0.589966
vt 0.007522 0.517808
vt 0.279888 0.778832
vt 0.229275 0.829211
vt 0.285128 0.885324
vt 0.335742 0.834945
vt 0.071603 0.893032
vt 0.079148 0.965190
vt 0.007523 0.965190
vt 0.015068 0.893032
vt 0.229013 0.941935
vt 0.285174 0.994621
vt 0.063423 0.782294
vt 0.023248 0.782294
vt 0.015068 0.704488
vt 0.071603 0.704488
vt 0.165877 0.778049
vt 0.221905 0.834485
vt 0.171001 0.885020
vt 0.114974 0.828585
vt 0.170905 0.994802
vt 0.114563 0.941809
s 0
usemtl UV2
f 43/89/23 44/90/23 42/91/23 41/92/23
f 42/91/24 44/90/24 45/93/24 46/94/24
f 43/95/25 49/96/25 50/97/25 44/98/25
f 49/99/26 47/100/26 48/101/26 50/102/26
f 42/103/27 48/104/27 47/105/27 41/106/27
f 48/101/28 52/107/28 51/108/28 50/102/28
f 46/109/29 52/110/29 48/104/29 42/103/29
f 46/109/30 45/111/30 51/112/30 52/110/30
f 44/98/31 50/97/31 51/112/31 45/111/31
f 61/113/27 62/114/27 56/115/27 55/116/27
f 55/117/32 56/118/32 54/119/32 53/120/32
f 60/121/33 59/122/33 53/123/33 54/124/33
f 54/119/34 56/118/34 57/125/34 58/126/34
f 64/127/31 60/121/31 54/124/31 58/128/31
f 64/127/35 58/128/35 57/129/35 63/130/35
f 62/114/29 63/130/29 57/129/29 56/115/29
f 61/131/36 59/132/36 60/133/36 62/134/36
f 60/133/37 64/135/37 63/136/37 62/134/37
o blade
v 0.094979 -0.276107 -0.000970
v 0.094979 1.124258 -0.000970
v -0.000357 1.235310 -0.000970
v 0.041336 -0.276107 0.038109
v 0.041336 1.099478 0.038109
v -0.000357 1.154861 0.038109
v -0.095693 -0.276107 -0.000970
v -0.095693 1.124258 -0.000970
v -0.042050 -0.276107 0.038109
v -0.042050 1.099478 0.038109
v 0.041336 -0.276107 -0.040050
v 0.041336 1.099478 -0.040050
v -0.000357 1.154861 -0.040050
v -0.042050 -0.276107 -0.040050
v -0.042050 1.099478 -0.040050
vn -0.0000 -0.0000 1.0000
vn -0.4518 -0.3720 -0.8109
vn 0.5888 -0.0000 0.8083
vn 0.4518 -0.3720 -0.8109
vn -0.5888 -0.0000 0.8083
vn -0.0000 -0.0000 -1.0000
vn -0.4518 -0.3720 0.8109
vn 0.5888 -0.0000 -0.8083
vn 0.4518 -0.3720 0.8109
vn -0.5888 -0.0000 -0.8083
vt 0.955620 0.000464
vt 0.955620 0.905363
vt 0.900767 0.905363
vt 0.900767 0.000464
vt 0.571360 0.457231
vt 0.527525 0.413395
vt 0.570650 0.392230
vt 0.598463 0.430127
vt 0.999279 0.000464
vt 0.999279 0.921664
vt 0.928194 0.941795
vt 0.636361 0.457940
vt 0.615196 0.501066
vt 0.857108 0.000464
vt 0.857108 0.921664
vt 0.758595 0.000464
vt 0.813449 0.000464
vt 0.813449 0.905363
vt 0.758595 0.905363
vt 0.544257 0.484334
vt 0.506359 0.456521
vt 0.714936 0.000464
vt 0.714936 0.921664
vt 0.786022 0.941796
vt 0.572070 0.522231
s 0
usemtl UV2
f 68/137/38 69/138/38 74/139/38 73/140/38
f 67/141/39 66/142/39 69/143/39 70/144/39
f 65/145/40 66/146/40 69/138/40 68/137/40
f 74/139/38 69/138/38 70/147/38
f 67/141/41 70/144/41 74/148/41 72/149/41
f 71/150/42 73/140/42 74/139/42 72/151/42
f 75/152/43 78/153/43 79/154/43 76/155/43
f 67/141/44 77/156/44 76/157/44 66/142/44
f 65/158/45 75/152/45 76/155/45 66/159/45
f 79/154/43 77/160/43 76/155/43
f 67/141/46 72/149/46 79/161/46 77/156/46
f 71/150/47 72/151/47 79/154/47 78/153/47
o Cube.001
v -0.088815 -0.940132 0.045088
v -0.000357 -0.851674 0.045088
v 0.088100 -0.940132 0.045088
v -0.044586 -0.984361 0.045088
v -0.088815 -1.028589 0.045088
v -0.000357 -0.940132 0.045088
v -0.000357 -1.117047 0.045088
v 0.088100 -1.028589 0.045088
v 0.043872 -0.984361 0.045088
v -0.000357 -0.987396 0.045088
v -0.039991 -1.027030 0.045088
v -0.000357 -1.066664 0.045088
v 0.039277 -1.027030 0.045088
v -0.088815 -0.940132 -0.047030
v -0.000357 -0.851674 -0.047030
v 0.088100 -0.940132 -0.047030
v -0.044586 -0.984361 -0.047030
v -0.088815 -1.028589 -0.047030
v -0.000357 -0.940132 -0.047030
v -0.000357 -1.117047 -0.047030
v 0.088100 -1.028589 -0.047030
v 0.043872 -0.984361 -0.047030
v -0.000357 -0.987396 -0.047030
v -0.039991 -1.027030 -0.047030
v -0.000357 -1.066664 -0.047030
v 0.039277 -1.027030 -0.047030
vn -0.0000 -0.0000 1.0000
vn 0.7071 0.7071 -0.0000
vn -0.7071 0.7071 -0.0000
vn 0.7071 -0.7071 -0.0000
vn -0.7071 -0.7071 -0.0000
vn -0.0000 -0.0000 -1.0000
vt 0.314185 0.142785
vt 0.271531 0.100132
vt 0.314185 0.057478
vt 0.228176 0.350503
vt 0.228176 0.315143
vt 0.286289 0.315143
vt 0.286289 0.350503
vt 0.271531 0.057478
vt 0.228877 0.142785
vt 0.228877 0.100132
vt 0.248741 0.077341
vt 0.186224 0.100132
vt 0.210518 0.077341
vt 0.186224 0.014824
vt 0.210518 0.039119
vt 0.271531 0.014824
vt 0.248740 0.039119
vt 0.228176 0.456583
vt 0.228176 0.421223
vt 0.286289 0.421223
vt 0.286289 0.456583
vt 0.228176 0.385863
vt 0.286289 0.385863
vt 0.090443 0.221437
vt 0.137730 0.221437
vt 0.137730 0.285653
vt 0.090443 0.285653
vt 0.313916 0.285154
vt 0.228967 0.285154
vt 0.271441 0.242679
vt 0.137730 0.381978
vt 0.090443 0.381978
vt 0.090443 0.349870
vt 0.137730 0.349870
vt 0.090443 0.189329
vt 0.137730 0.189329
vt 0.137730 0.478302
vt 0.090443 0.478302
vt 0.090443 0.414086
vt 0.137730 0.414086
vt 0.137730 0.157221
vt 0.090443 0.157221
vt 0.090443 0.093005
vt 0.137730 0.093005
vt 0.228967 0.242679
vt 0.271441 0.200204
vt 0.313916 0.200204
vt 0.248746 0.219984
vt 0.248746 0.181922
vt 0.271441 0.157730
vt 0.210684 0.181922
vt 0.186492 0.157730
vt 0.210684 0.219984
vt 0.186492 0.242679
s 0
usemtl UV2
f 81/162/48 85/163/48 82/164/48
f 90/165/49 91/166/49 104/167/49 103/168/49
f 85/163/48 88/169/48 82/164/48
f 85/163/48 80/170/48 83/171/48
f 81/162/48 80/170/48 85/163/48
f 88/169/48 85/163/48 89/172/48
f 85/163/48 83/171/48 89/172/48
f 83/171/48 84/173/48 90/174/48 89/172/48
f 84/173/48 86/175/48 91/176/48 90/174/48
f 86/175/48 87/177/48 92/178/48 91/176/48
f 87/177/48 88/169/48 89/172/48 92/178/48
f 91/179/50 92/180/50 105/181/50 104/182/50
f 89/183/51 90/165/51 103/168/51 102/184/51
f 92/180/52 89/183/52 102/184/52 105/181/52
f 93/185/50 80/186/50 81/187/50 94/188/50
f 94/189/53 95/190/53 98/191/53
f 88/192/51 101/193/51 95/194/51 82/195/51
f 80/186/52 93/185/52 96/196/52 83/197/52
f 82/195/49 95/194/49 94/188/49 81/187/49
f 86/198/51 99/199/51 100/200/51 87/201/51
f 84/202/52 97/203/52 99/204/52 86/205/52
f 87/201/49 100/200/49 101/193/49 88/192/49
f 97/203/50 84/202/50 83/197/50 96/196/50
f 98/191/53 95/190/53 101/206/53
f 98/191/53 96/207/53 93/208/53
f 94/189/53 98/191/53 93/208/53
f 101/206/53 102/209/53 98/191/53
f 98/191/53 102/209/53 96/207/53
f 96/207/53 102/209/53 103/210/53 97/211/53
f 97/211/53 103/210/53 104/212/53 99/213/53
f 99/213/53 104/212/53 105/214/53 100/215/53
f 100/215/53 105/214/53 102/209/53 101/206/53
