mtllib pipe_anchor_item.mtl
v 0.750000 0.916667 0.833333
v 0.250000 0.416667 0.833333
v 0.750000 0.416667 0.833333
v 0.833333 0.916667 0.250000
v 0.833333 0.416667 0.750000
v 0.833333 0.416667 0.250000
v 0.250000 1.000000 0.250000
v 0.750000 1.000000 0.750000
v 0.750000 1.000000 0.250000
v 0.166667 0.916667 0.750000
v 0.166667 0.416667 0.250000
v 0.166667 0.416667 0.750000
v 0.250000 0.916667 0.166667
v 0.750000 0.416667 0.166667
v 0.250000 0.416667 0.166667
v 0.250000 0.333333 0.750000
v 0.250000 0.916667 0.833333
v 0.250000 1.000000 0.750000
v 0.250000 0.333333 0.250000
v 0.166667 0.916667 0.250000
v 0.750000 0.333333 0.750000
v 0.833333 0.916667 0.750000
v 0.750000 0.333333 0.250000
v 0.750000 0.916667 0.166667
v 0.750000 0.000000 0.250000
v 0.750000 0.083333 0.750000
v 0.750000 0.000000 0.750000
v 0.250000 0.000000 0.750000
v 0.250000 0.083333 0.250000
v 0.250000 0.000000 0.250000
v 0.250000 0.083333 0.750000
v 0.750000 0.083333 0.250000
v 0.666667 0.083333 0.333333
v 0.666667 0.333333 0.666667
v 0.666667 0.083333 0.666667
v 0.333333 0.083333 0.333333
v 0.333333 0.083333 0.666667
v 0.333333 0.333333 0.333333
v 0.666667 0.333333 0.333333
v 0.333333 0.333333 0.666667
vt 0.937500 0.937500
vt 0.562500 0.562500
vt 0.937500 0.562500
vt 0.937500 0.937500
vt 0.562500 0.562500
vt 0.937500 0.562500
vt 0.937500 0.937500
vt 0.562500 0.562500
vt 0.937500 0.562500
vt 0.937500 0.937500
vt 0.562500 0.562500
vt 0.937500 0.562500
vt 0.937500 0.937500
vt 0.562500 0.562500
vt 0.937500 0.562500
vt 0.937500 0.937500
vt 1.000000 0.937500
vt 0.937500 1.000000
vt 1.000000 0.937500
vt 0.937500 1.000000
vt 0.937500 0.937500
vt 1.000000 0.937500
vt 0.937500 1.000000
vt 0.937500 1.000000
vt 1.000000 0.937500
vt 0.937500 0.937500
vt 1.000000 0.937500
vt 0.937500 1.000000
vt 0.937500 1.000000
vt 1.000000 0.937500
vt 0.937500 0.937500
vt 1.000000 0.937500
vt 0.937500 1.000000
vt 0.937500 1.000000
vt 1.000000 0.937500
vt 0.562500 1.000000
vt 0.562500 0.937500
vt 1.000000 0.562500
vt 0.562500 1.000000
vt 0.562500 1.000000
vt 0.562500 0.937500
vt 0.562500 1.000000
vt 0.562500 1.000000
vt 0.562500 0.937500
vt 0.562500 1.000000
vt 0.562500 1.000000
vt 0.562500 0.937500
vt 0.562500 1.000000
vt 0.562500 0.562500
vt 0.937500 0.562500
vt 0.375000 0.375000
vt 0.000000 0.437500
vt 0.000000 0.375000
vt 0.375000 0.375000
vt -0.000000 0.437500
vt -0.000000 0.375000
vt 0.375000 0.375000
vt 0.000000 0.437500
vt 0.000000 0.375000
vt 0.375000 0.375000
vt -0.000000 0.437500
vt -0.000000 0.375000
vt 0.312500 0.500000
vt 0.375000 0.437500
vt 0.000000 -0.000000
vt 0.375000 -0.000000
vt 0.062500 0.687500
vt 0.062500 0.500000
vt 0.312500 0.500000
vt 0.375000 0.437500
vt 0.312500 0.500000
vt 0.375000 0.437500
vt 0.312500 0.500000
vt 0.375000 0.437500
vt 0.062500 0.687500
vt 0.062500 0.500000
vt 0.062500 0.687500
vt 0.062500 0.500000
vt 0.062500 0.687500
vt 0.062500 0.500000
vt 0.562500 0.937500
vt 0.562500 0.937500
vt 0.562500 0.937500
vt 0.562500 0.937500
vt 0.562500 0.937500
vt 1.000000 0.562500
vt 1.000000 0.562500
vt 1.000000 0.562500
vt 0.312500 0.687500
vt 0.312500 0.687500
vt 0.312500 0.687500
vt 0.312500 0.687500
vn 0.000000 -0.000000 1.000000
vn 1.000000 0.000000 0.000000
vn 0.000000 1.000000 0.000000
vn -1.000000 -0.000000 0.000000
vn 0.000000 0.000000 -1.000000
vn -0.577400 -0.577400 0.577400
vn -0.577400 0.577400 0.577400
vn -0.577400 -0.577400 -0.577400
vn -0.577400 0.577400 -0.577400
vn 0.577400 -0.577400 0.577400
vn 0.577400 0.577400 0.577400
vn 0.577400 -0.577400 -0.577400
vn 0.577400 0.577400 -0.577400
vn -0.707100 -0.707100 0.000000
vn -0.707100 -0.000000 0.707100
vn -0.707100 0.707100 0.000000
vn -0.707100 0.000000 -0.707100
vn 0.000000 -0.707100 -0.707100
vn 0.000000 0.707100 -0.707100
vn 0.707100 0.000000 -0.707100
vn 0.707100 -0.707100 0.000000
vn 0.707100 0.707100 0.000000
vn 0.707100 -0.000000 0.707100
vn 0.000000 -0.707100 0.707100
vn 0.000000 0.707100 0.707100
vn 0.000000 -1.000000 -0.000000
o Anchor
usemtl texture
s off
f 1/1/1 2/2/1 3/3/1
f 4/4/2 5/5/2 6/6/2
f 7/7/3 8/8/3 9/9/3
f 10/10/4 11/11/4 12/12/4
f 13/13/5 14/14/5 15/15/5
f 16/16/6 2/17/6 12/18/6
f 17/19/7 18/20/7 10/10/7
f 19/21/8 11/22/8 15/23/8
f 7/24/9 13/13/9 20/25/9
f 21/26/10 5/27/10 3/28/10
f 8/29/11 1/1/11 22/30/11
f 23/31/12 14/32/12 6/33/12
f 9/34/13 4/4/13 24/35/13
f 16/16/14 11/36/14 19/37/14
f 17/19/15 12/12/15 2/38/15
f 7/39/16 10/10/16 18/20/16
f 15/15/17 20/25/17 13/13/17
f 19/21/18 14/40/18 23/41/18
f 9/42/19 13/13/19 7/24/19
f 6/6/20 24/35/20 4/4/20
f 23/31/21 5/43/21 21/44/21
f 8/45/22 4/4/22 9/34/22
f 3/3/23 22/30/23 1/1/23
f 21/26/24 2/46/24 16/47/24
f 18/48/25 1/1/25 8/29/25
f 23/31/26 16/49/26 19/50/26
f 25/51/2 26/52/2 27/53/2
f 28/54/4 29/55/4 30/56/4
f 27/57/1 31/58/1 28/59/1
f 30/60/5 32/61/5 25/62/5
f 33/63/3 26/52/3 32/64/3
f 25/51/26 28/65/26 30/66/26
f 33/63/2 34/67/2 35/68/2
f 36/69/3 32/61/3 29/70/3
f 37/71/3 29/55/3 31/72/3
f 35/73/3 31/58/3 26/74/3
f 37/71/4 38/75/4 36/76/4
f 36/69/5 39/77/5 33/78/5
f 35/73/1 40/79/1 37/80/1
f 1/1/1 17/81/1 2/2/1
f 4/4/2 22/82/2 5/5/2
f 7/7/3 18/83/3 8/8/3
f 10/10/4 20/84/4 11/11/4
f 13/13/5 24/85/5 14/14/5
f 16/16/14 12/18/14 11/36/14
f 17/19/15 10/10/15 12/12/15
f 7/39/16 20/84/16 10/10/16
f 15/15/17 11/86/17 20/25/17
f 19/21/18 15/23/18 14/40/18
f 9/42/19 24/85/19 13/13/19
f 6/6/20 14/87/20 24/35/20
f 23/31/21 6/33/21 5/43/21
f 8/45/22 22/82/22 4/4/22
f 3/3/23 5/88/23 22/30/23
f 21/26/24 3/28/24 2/46/24
f 18/48/25 17/81/25 1/1/25
f 23/31/26 21/44/26 16/49/26
f 25/51/2 32/64/2 26/52/2
f 28/54/4 31/72/4 29/55/4
f 27/57/1 26/74/1 31/58/1
f 30/60/5 29/70/5 32/61/5
f 33/63/3 35/68/3 26/52/3
f 25/51/26 27/53/26 28/65/26
f 33/63/2 39/89/2 34/67/2
f 36/69/3 33/78/3 32/61/3
f 37/71/3 36/76/3 29/55/3
f 35/73/3 37/80/3 31/58/3
f 37/71/4 40/90/4 38/75/4
f 36/69/5 38/91/5 39/77/5
f 35/73/1 34/92/1 40/79/1
