mtllib vending_machine_item.mtl
v 0.750000 0.000000 0.250000
v 0.250000 0.000000 0.750000
v 0.250000 0.000000 0.250000
v 0.250000 1.000000 0.750000
v 0.750000 1.000000 0.250000
v 0.250000 1.000000 0.250000
v 0.625000 0.250000 0.750000
v 0.750000 0.000000 0.750000
v 0.750000 1.000000 0.750000
v 0.625000 0.125000 0.750000
v 0.375000 0.125000 0.687500
v 0.625000 0.250000 0.687500
v 0.375000 0.250000 0.687500
v 0.625000 0.125000 0.687500
v 0.375000 0.125000 0.750000
v 0.375000 0.250000 0.750000
vt 0.375000 0.000000
vt 0.250000 0.216216
vt 0.250000 0.000000
vt 0.250000 0.648649
vt 0.375000 0.864865
vt 0.250000 0.864865
vt 0.343750 0.324324
vt 0.375000 0.216216
vt 0.375000 0.648649
vt 0.125000 0.216216
vt 0.000000 0.648649
vt 0.000000 0.216216
vt 0.500000 0.216216
vt 0.125000 0.648649
vt 0.343750 0.270270
vt 0.171875 0.027027
vt 0.234375 0.081081
vt 0.171875 0.081081
vt 0.250000 0.081081
vt 0.234375 0.027027
vt 0.250000 0.027027
vt 0.156250 0.027027
vt 0.156250 0.081081
vt 0.234375 0.000000
vt 0.171875 0.000000
vt 0.171875 0.108108
vt 0.234375 0.108108
vt 0.281250 0.324324
vt 0.500000 0.648649
vt 0.281250 0.270270
vn 0.000000 -1.000000 0.000000
vn 0.000000 1.000000 0.000000
vn 0.000000 0.000000 1.000000
vn -0.000000 0.000000 -1.000000
vn 1.000000 0.000000 -0.000000
vn -1.000000 0.000000 0.000000
o Soda
usemtl texture
s off
f 1/1/1 2/2/1 3/3/1
f 4/4/2 5/5/2 6/6/2
f 7/7/3 8/8/3 9/9/3
f 3/10/4 5/11/4 1/12/4
f 1/13/5 9/9/5 8/8/5
f 2/2/6 6/14/6 3/10/6
f 10/15/3 2/2/3 8/8/3
f 11/16/3 12/17/3 13/18/3
f 7/19/6 14/20/6 10/21/6
f 15/22/5 13/18/5 16/23/5
f 10/24/2 11/16/2 15/25/2
f 16/26/1 12/17/1 7/27/1
f 16/28/3 9/9/3 4/4/3
f 2/2/3 16/28/3 4/4/3
f 1/1/1 8/8/1 2/2/1
f 4/4/2 9/9/2 5/5/2
f 7/7/3 10/15/3 8/8/3
f 3/10/4 6/14/4 5/11/4
f 1/13/5 5/29/5 9/9/5
f 2/2/6 4/4/6 6/14/6
f 10/15/3 15/30/3 2/2/3
f 11/16/3 14/20/3 12/17/3
f 7/19/6 12/17/6 14/20/6
f 15/22/5 11/16/5 13/18/5
f 10/24/2 14/20/2 11/16/2
f 16/26/1 13/18/1 12/17/1
f 16/28/3 7/7/3 9/9/3
f 2/2/3 15/30/3 16/28/3
