mtllib vending_machine_snacks_item.mtl
v 0.750000 0.000000 0.250000
v 0.250000 0.000000 0.750000
v 0.250000 0.000000 0.250000
v 0.250000 1.000000 0.750000
v 0.750000 1.000000 0.250000
v 0.250000 1.000000 0.250000
v 0.625000 0.312500 0.750000
v 0.312500 0.312500 0.625000
v 0.312500 0.312500 0.750000
v 0.750000 1.000000 0.750000
v 0.750000 0.000000 0.750000
v 0.312500 0.875000 0.625000
v 0.312500 0.875000 0.750000
v 0.343750 0.125000 0.687500
v 0.593750 0.250000 0.687500
v 0.343750 0.250000 0.687500
v 0.593750 0.250000 0.750000
v 0.593750 0.125000 0.687500
v 0.593750 0.125000 0.750000
v 0.343750 0.125000 0.750000
v 0.343750 0.250000 0.750000
v 0.625000 0.875000 0.750000
v 0.625000 0.312500 0.625000
v 0.625000 0.875000 0.625000
v 0.312500 0.312500 0.750000
v 0.625000 0.875000 0.750000
v 0.312500 0.875000 0.750000
v 0.625000 0.312500 0.750000
vt 0.875000 -0.000000
vt 0.750000 0.216216
vt 0.750000 -0.000000
vt 0.750000 0.648649
vt 0.875000 0.864865
vt 0.750000 0.864865
vt 0.718750 0.648649
vt 0.640625 0.702703
vt 0.640625 0.648649
vt 0.625000 0.216216
vt 0.500000 0.648649
vt 0.500000 0.216216
vt 1.000000 0.216216
vt 0.875000 0.648649
vt 0.875000 0.216216
vt 0.625000 0.648649
vt 0.609375 0.702703
vt 0.640625 0.945946
vt 0.609375 0.945946
vt 0.671875 0.027027
vt 0.734375 0.081081
vt 0.671875 0.081081
vt 0.750000 0.081081
vt 0.734375 0.027027
vt 0.750000 0.027027
vt 0.656250 0.027027
vt 0.656250 0.081081
vt 0.734375 0.000000
vt 0.671875 0.000000
vt 0.671875 0.108108
vt 0.734375 0.108108
vt 0.750000 0.945946
vt 0.718750 0.702703
vt 0.750000 0.702703
vt 0.718750 0.945946
vt 0.843750 0.351351
vt 0.773438 0.324324
vt 0.835938 0.324324
vt 0.640625 1.000000
vt 0.718750 1.000000
vt 0.835938 0.270270
vt 0.773438 0.270270
vt 0.765625 0.351351
vt 0.843750 0.594595
vt 0.765625 0.351351
vt 0.843750 0.594595
vt 0.765625 0.594595
vt 1.000000 0.648649
vt 0.765625 0.594595
vt 0.843750 0.351351
vn 0.000000 -1.000000 0.000000
vn 0.000000 1.000000 0.000000
vn -0.000000 0.000000 -1.000000
vn 1.000000 0.000000 -0.000000
vn -1.000000 0.000000 0.000000
vn 0.000000 0.000000 1.000000
o Obamna
usemtl texture
s off
f 1/1/1 2/2/1 3/3/1
f 4/4/2 5/5/2 6/6/2
f 7/7/2 8/8/2 9/9/2
f 3/10/3 5/11/3 1/12/3
f 1/13/4 10/14/4 11/15/4
f 2/2/5 6/16/5 3/10/5
f 9/17/4 12/18/4 13/19/4
f 14/20/6 15/21/6 16/22/6
f 17/23/5 18/24/5 19/25/5
f 20/26/4 16/22/4 21/27/4
f 19/28/2 14/20/2 20/29/2
f 21/30/1 15/21/1 17/31/1
f 22/32/5 23/33/5 7/34/5
f 8/8/6 24/35/6 12/18/6
f 7/36/6 21/37/6 17/38/6
f 13/39/1 24/35/1 22/40/1
f 19/41/6 2/2/6 11/15/6
f 20/42/6 21/37/6 9/43/6
f 17/38/6 19/41/6 11/15/6
f 4/4/6 22/44/6 10/14/6
f 25/45/6 26/46/6 27/47/6
f 1/1/1 11/15/1 2/2/1
f 4/4/2 10/14/2 5/5/2
f 7/7/2 23/33/2 8/8/2
f 3/10/3 6/16/3 5/11/3
f 1/13/4 5/48/4 10/14/4
f 2/2/5 4/4/5 6/16/5
f 9/17/4 8/8/4 12/18/4
f 14/20/6 18/24/6 15/21/6
f 17/23/5 15/21/5 18/24/5
f 20/26/4 14/20/4 16/22/4
f 19/28/2 18/24/2 14/20/2
f 21/30/1 16/22/1 15/21/1
f 22/32/5 24/35/5 23/33/5
f 8/8/6 23/33/6 24/35/6
f 7/36/6 9/43/6 21/37/6
f 13/39/1 12/18/1 24/35/1
f 19/41/6 20/42/6 2/2/6
f 13/49/6 4/4/6 9/43/6
f 4/4/6 2/2/6 9/43/6
f 2/2/6 20/42/6 9/43/6
f 11/15/6 10/14/6 7/36/6
f 10/14/6 22/44/6 7/36/6
f 7/36/6 17/38/6 11/15/6
f 4/4/6 13/49/6 22/44/6
f 25/45/6 28/50/6 26/46/6
