# HBM-Modernized hazmat suit - transformed from Blockbench export
mtllib hazmat.mtl
v 4.550000 -8.550000 4.550000
v 4.550000 -8.550000 -4.550000
v 4.550000 0.550000 4.550000
v 4.550000 0.550000 -4.550000
v -4.550000 -8.550000 -4.550000
v -4.550000 -8.550000 4.550000
v -4.550000 0.550000 -4.550000
v -4.550000 0.550000 4.550000
v 1.000000 -5.000000 4.750000
v 1.000000 -5.000000 3.000000
v 1.000000 -4.000000 4.750000
v 1.000000 -4.000000 3.000000
v 0.000000 -5.000000 3.000000
v 0.000000 -5.000000 4.750000
v 0.000000 -4.000000 3.000000
v 0.000000 -4.000000 4.750000
v 0.000000 -4.000000 4.650000
v 0.000000 -4.000000 3.000000
v 0.000000 -3.000000 4.650000
v 0.000000 -3.000000 3.000000
v -1.000000 -4.000000 3.000000
v -1.000000 -4.000000 4.650000
v -1.000000 -3.000000 3.000000
v -1.000000 -3.000000 4.650000
v 2.100000 -3.192503 -4.651627
v 2.100000 -1.507205 -6.065760
v 2.100000 -1.778370 -2.966329
v 2.100000 -0.093072 -4.380462
v -2.100000 -1.507205 -6.065760
v -2.100000 -3.192503 -4.651627
v -2.100000 -0.093072 -4.380462
v -2.100000 -1.778370 -2.966329
v 1.850000 -2.600000 -4.150000
v 1.850000 -2.600000 -6.350000
v 1.850000 -0.400000 -4.150000
v 1.850000 -0.400000 -6.350000
v -1.850000 -2.600000 -6.350000
v -1.850000 -2.600000 -4.150000
v -1.850000 -0.400000 -6.350000
v -1.850000 -0.400000 -4.150000
v 1.100000 -3.350000 -3.450000
v 1.100000 -3.350000 -5.650000
v 1.100000 -1.150000 -3.450000
v 1.100000 -1.150000 -5.650000
v -1.100000 -3.350000 -5.650000
v -1.100000 -3.350000 -3.450000
v -1.100000 -1.150000 -5.650000
v -1.100000 -1.150000 -3.450000
v 0.850000 -4.089285 -3.394422
v 0.850000 -4.777577 -4.377405
v 0.850000 -2.287151 -4.656290
v 0.850000 -2.975442 -5.639273
v -0.850000 -4.777577 -4.377405
v -0.850000 -4.089285 -3.394422
v -0.850000 -2.975442 -5.639273
v -0.850000 -2.287151 -4.656290
v 2.200000 -2.190456 -5.681949
v 2.200000 -1.277047 -7.115714
v 2.200000 -0.756690 -4.768539
v 2.200000 0.156719 -6.202305
v -1.600000 -1.277047 -7.115714
v -1.600000 -2.190456 -5.681949
v -1.600000 0.156719 -6.202305
v -1.600000 -0.756690 -4.768539
v 3.100000 -6.350000 -4.400000
v 3.100000 -6.350000 -4.850000
v 3.100000 -5.150000 -4.400000
v 3.100000 -5.150000 -4.850000
v -3.100000 -6.350000 -4.850000
v -3.100000 -6.350000 -4.400000
v -3.100000 -5.150000 -4.850000
v -3.100000 -5.150000 -4.400000
v 3.100000 -2.850000 -4.400000
v 3.100000 -2.850000 -4.850000
v 3.100000 -1.650000 -4.400000
v 3.100000 -1.650000 -4.850000
v -3.100000 -2.850000 -4.850000
v -3.100000 -2.850000 -4.400000
v -3.100000 -1.650000 -4.850000
v -3.100000 -1.650000 -4.400000
v 4.350000 -5.100000 -4.400000
v 4.350000 -5.100000 -4.850000
v 4.350000 -2.900000 -4.400000
v 4.350000 -2.900000 -4.850000
v 3.150000 -5.100000 -4.850000
v 3.150000 -5.100000 -4.400000
v 3.150000 -2.900000 -4.850000
v 3.150000 -2.900000 -4.400000
v -3.150000 -5.100000 -4.400000
v -3.150000 -5.100000 -4.850000
v -3.150000 -2.900000 -4.400000
v -3.150000 -2.900000 -4.850000
v -4.350000 -5.100000 -4.850000
v -4.350000 -5.100000 -4.400000
v -4.350000 -2.900000 -4.850000
v -4.350000 -2.900000 -4.400000
v 2.926072 -2.651589 -5.497202
v 5.126072 -2.651589 -5.497202
v 2.926072 -0.849454 -4.235334
v 5.126072 -0.849454 -4.235334
v 5.126072 -1.102932 -7.708913
v 2.926072 -1.102932 -7.708913
v 5.126072 0.699202 -6.447045
v 2.926072 0.699202 -6.447045
v 2.925032 -2.712983 -5.845385
v 5.125032 -2.712983 -5.845385
v 2.925032 -0.501272 -4.296728
v 5.125032 -0.501272 -4.296728
v 5.125032 -1.451114 -7.647519
v 2.925032 -1.451114 -7.647519
v 5.125032 0.760596 -6.098863
v 2.925032 0.760596 -6.098863
v 3.050000 -2.190456 -5.681949
v 3.050000 -1.277047 -7.115714
v 3.050000 -0.756690 -4.768539
v 3.050000 0.156719 -6.202305
v 2.200000 -1.277047 -7.115714
v 2.200000 -2.190456 -5.681949
v 2.200000 0.156719 -6.202305
v 2.200000 -0.756690 -4.768539
v 4.300000 -0.300000 2.300000
v 4.300000 -0.300000 -2.300000
v 4.300000 12.300000 2.300000
v 4.300000 12.300000 -2.300000
v -4.300000 -0.300000 -2.300000
v -4.300000 -0.300000 2.300000
v -4.300000 12.300000 -2.300000
v -4.300000 12.300000 2.300000
v 2.150000 1.850000 6.575000
v 2.150000 1.850000 2.275000
v 2.150000 11.150000 6.575000
v 2.150000 11.150000 2.275000
v -2.150000 1.850000 2.275000
v -2.150000 1.850000 6.575000
v -2.150000 11.150000 2.275000
v -2.150000 11.150000 6.575000
v 1.150000 0.850000 5.575000
v 1.150000 0.850000 3.275000
v 1.150000 2.150000 5.575000
v 1.150000 2.150000 3.275000
v -1.150000 0.850000 3.275000
v -1.150000 0.850000 5.575000
v -1.150000 2.150000 3.275000
v -1.150000 2.150000 5.575000
v 8.300000 -0.300000 2.300000
v 8.300000 -0.300000 -2.300000
v 8.300000 12.300000 2.300000
v 8.300000 12.300000 -2.300000
v 3.700000 -0.300000 -2.300000
v 3.700000 -0.300000 2.300000
v 3.700000 12.300000 -2.300000
v 3.700000 12.300000 2.300000
v -3.700000 -0.300000 2.300000
v -3.700000 -0.300000 -2.300000
v -3.700000 12.300000 2.300000
v -3.700000 12.300000 -2.300000
v -8.300000 -0.300000 -2.300000
v -8.300000 -0.300000 2.300000
v -8.300000 12.300000 -2.300000
v -8.300000 12.300000 2.300000
v 0.450000 11.550000 2.450000
v 0.450000 11.550000 -2.450000
v 0.450000 24.450000 2.450000
v 0.450000 24.450000 -2.450000
v -4.450000 11.550000 -2.450000
v -4.450000 11.550000 2.450000
v -4.450000 24.450000 -2.450000
v -4.450000 24.450000 2.450000
v 0.450000 11.550000 2.450000
v 0.450000 11.550000 -2.450000
v 0.450000 24.450000 2.450000
v 0.450000 24.450000 -2.450000
v -4.450000 11.550000 -2.450000
v -4.450000 11.550000 2.450000
v -4.450000 24.450000 -2.450000
v -4.450000 24.450000 2.450000
v 4.450000 11.550000 2.450000
v 4.450000 11.550000 -2.450000
v 4.450000 24.450000 2.450000
v 4.450000 24.450000 -2.450000
v -0.450000 11.550000 -2.450000
v -0.450000 11.550000 2.450000
v -0.450000 24.450000 -2.450000
v -0.450000 24.450000 2.450000
v 4.450000 11.550000 2.450000
v 4.450000 11.550000 -2.450000
v 4.450000 24.450000 2.450000
v 4.450000 24.450000 -2.450000
v -0.450000 11.550000 -2.450000
v -0.450000 11.550000 2.450000
v -0.450000 24.450000 -2.450000
v -0.450000 24.450000 2.450000
vt 0.125 0.875
vt 0.25 0.875
vt 0.25 0.75
vt 0.125 0.75
vt 0 0.875
vt 0.125 0.875
vt 0.125 0.75
vt 0 0.75
vt 0.375 0.875
vt 0.5 0.875
vt 0.5 0.75
vt 0.375 0.75
vt 0.25 0.875
vt 0.375 0.875
vt 0.375 0.75
vt 0.25 0.75
vt 0.25 0.875
vt 0.125 0.875
vt 0.125 1
vt 0.25 1
vt 0.375 1
vt 0.25 1
vt 0.25 0.875
vt 0.375 0.875
vt 0.421875 0.8125
vt 0.4375 0.8125
vt 0.4375 0.796875
vt 0.421875 0.796875
vt 0.40625 0.8125
vt 0.421875 0.8125
vt 0.421875 0.796875
vt 0.40625 0.796875
vt 0.421875 0.8125
vt 0.4375 0.8125
vt 0.4375 0.796875
vt 0.421875 0.796875
vt 0.40625 0.8125
vt 0.421875 0.8125
vt 0.421875 0.796875
vt 0.40625 0.796875
vt 0.4375 0.8125
vt 0.421875 0.8125
vt 0.421875 0.828125
vt 0.4375 0.828125
vt 0.453125 0.828125
vt 0.4375 0.828125
vt 0.4375 0.8125
vt 0.453125 0.8125
vt 0.421875 0.8125
vt 0.4375 0.8125
vt 0.4375 0.796875
vt 0.421875 0.796875
vt 0.40625 0.8125
vt 0.421875 0.8125
vt 0.421875 0.796875
vt 0.40625 0.796875
vt 0.40625 0.8125
vt 0.421875 0.8125
vt 0.421875 0.796875
vt 0.40625 0.796875
vt 0.421875 0.8125
vt 0.4375 0.8125
vt 0.4375 0.796875
vt 0.421875 0.796875
vt 0.4375 0.8125
vt 0.421875 0.8125
vt 0.421875 0.828125
vt 0.4375 0.828125
vt 0.453125 0.828125
vt 0.4375 0.828125
vt 0.4375 0.8125
vt 0.453125 0.8125
vt 0.703125 0.546875
vt 0.765625 0.546875
vt 0.765625 0.515625
vt 0.703125 0.515625
vt 0.671875 0.546875
vt 0.703125 0.546875
vt 0.703125 0.515625
vt 0.671875 0.515625
vt 0.796875 0.546875
vt 0.859375 0.546875
vt 0.859375 0.515625
vt 0.796875 0.515625
vt 0.765625 0.546875
vt 0.796875 0.546875
vt 0.796875 0.515625
vt 0.765625 0.515625
vt 0.765625 0.546875
vt 0.703125 0.546875
vt 0.703125 0.578125
vt 0.765625 0.578125
vt 0.828125 0.578125
vt 0.765625 0.578125
vt 0.765625 0.546875
vt 0.828125 0.546875
vt 0.703125 0.5625
vt 0.75 0.5625
vt 0.75 0.53125
vt 0.703125 0.53125
vt 0.671875 0.5625
vt 0.703125 0.5625
vt 0.703125 0.53125
vt 0.671875 0.53125
vt 0.78125 0.5625
vt 0.828125 0.5625
vt 0.828125 0.53125
vt 0.78125 0.53125
vt 0.75 0.5625
vt 0.78125 0.5625
vt 0.78125 0.53125
vt 0.75 0.53125
vt 0.75 0.5625
vt 0.703125 0.5625
vt 0.703125 0.59375
vt 0.75 0.59375
vt 0.796875 0.59375
vt 0.75 0.59375
vt 0.75 0.5625
vt 0.796875 0.5625
vt 0.0625 0.546875
vt 0.09375 0.546875
vt 0.09375 0.515625
vt 0.0625 0.515625
vt 0.03125 0.546875
vt 0.0625 0.546875
vt 0.0625 0.515625
vt 0.03125 0.515625
vt 0.125 0.546875
vt 0.15625 0.546875
vt 0.15625 0.515625
vt 0.125 0.515625
vt 0.09375 0.546875
vt 0.125 0.546875
vt 0.125 0.515625
vt 0.09375 0.515625
vt 0.09375 0.546875
vt 0.0625 0.546875
vt 0.0625 0.578125
vt 0.09375 0.578125
vt 0.125 0.578125
vt 0.09375 0.578125
vt 0.09375 0.546875
vt 0.125 0.546875
vt 0.546875 0.59375
vt 0.5625 0.59375
vt 0.5625 0.5625
vt 0.546875 0.5625
vt 0.53125 0.59375
vt 0.546875 0.59375
vt 0.546875 0.5625
vt 0.53125 0.5625
vt 0.578125 0.59375
vt 0.59375 0.59375
vt 0.59375 0.5625
vt 0.578125 0.5625
vt 0.5625 0.59375
vt 0.578125 0.59375
vt 0.578125 0.5625
vt 0.5625 0.5625
vt 0.5625 0.59375
vt 0.546875 0.59375
vt 0.546875 0.609375
vt 0.5625 0.609375
vt 0.578125 0.609375
vt 0.5625 0.609375
vt 0.5625 0.59375
vt 0.578125 0.59375
vt 0.71875 0.546875
vt 0.765625 0.546875
vt 0.765625 0.53125
vt 0.71875 0.53125
vt 0.703125 0.546875
vt 0.71875 0.546875
vt 0.71875 0.53125
vt 0.703125 0.53125
vt 0.78125 0.546875
vt 0.828125 0.546875
vt 0.828125 0.53125
vt 0.78125 0.53125
vt 0.765625 0.546875
vt 0.78125 0.546875
vt 0.78125 0.53125
vt 0.765625 0.53125
vt 0.765625 0.546875
vt 0.71875 0.546875
vt 0.71875 0.5625
vt 0.765625 0.5625
vt 0.8125 0.5625
vt 0.765625 0.5625
vt 0.765625 0.546875
vt 0.8125 0.546875
vt 0.671875 0.421875
vt 0.765625 0.421875
vt 0.765625 0.40625
vt 0.671875 0.40625
vt 0.671875 0.421875
vt 0.671875 0.421875
vt 0.671875 0.40625
vt 0.671875 0.40625
vt 0.765625 0.421875
vt 0.859375 0.421875
vt 0.859375 0.40625
vt 0.765625 0.40625
vt 0.765625 0.421875
vt 0.765625 0.421875
vt 0.765625 0.40625
vt 0.765625 0.40625
vt 0.765625 0.421875
vt 0.671875 0.421875
vt 0.671875 0.421875
vt 0.765625 0.421875
vt 0.859375 0.421875
vt 0.765625 0.421875
vt 0.765625 0.421875
vt 0.859375 0.421875
vt 0.671875 0.421875
vt 0.765625 0.421875
vt 0.765625 0.40625
vt 0.671875 0.40625
vt 0.671875 0.421875
vt 0.671875 0.421875
vt 0.671875 0.40625
vt 0.671875 0.40625
vt 0.765625 0.421875
vt 0.859375 0.421875
vt 0.859375 0.40625
vt 0.765625 0.40625
vt 0.765625 0.421875
vt 0.765625 0.421875
vt 0.765625 0.40625
vt 0.765625 0.40625
vt 0.765625 0.421875
vt 0.671875 0.421875
vt 0.671875 0.421875
vt 0.765625 0.421875
vt 0.859375 0.421875
vt 0.765625 0.421875
vt 0.765625 0.421875
vt 0.859375 0.421875
vt 0.71875 0.421875
vt 0.734375 0.421875
vt 0.734375 0.390625
vt 0.71875 0.390625
vt 0.71875 0.421875
vt 0.71875 0.421875
vt 0.71875 0.390625
vt 0.71875 0.390625
vt 0.734375 0.421875
vt 0.75 0.421875
vt 0.75 0.390625
vt 0.734375 0.390625
vt 0.734375 0.421875
vt 0.734375 0.421875
vt 0.734375 0.390625
vt 0.734375 0.390625
vt 0.734375 0.421875
vt 0.71875 0.421875
vt 0.71875 0.421875
vt 0.734375 0.421875
vt 0.75 0.421875
vt 0.734375 0.421875
vt 0.734375 0.421875
vt 0.75 0.421875
vt 0.71875 0.421875
vt 0.734375 0.421875
vt 0.734375 0.390625
vt 0.71875 0.390625
vt 0.71875 0.421875
vt 0.71875 0.421875
vt 0.71875 0.390625
vt 0.71875 0.390625
vt 0.734375 0.421875
vt 0.75 0.421875
vt 0.75 0.390625
vt 0.734375 0.390625
vt 0.734375 0.421875
vt 0.734375 0.421875
vt 0.734375 0.390625
vt 0.734375 0.390625
vt 0.734375 0.421875
vt 0.71875 0.421875
vt 0.71875 0.421875
vt 0.734375 0.421875
vt 0.75 0.421875
vt 0.734375 0.421875
vt 0.734375 0.421875
vt 0.75 0.421875
vt 0.625 0.96875
vt 0.59375 0.96875
vt 0.59375 0.9375
vt 0.625 0.9375
vt 0.65625 0.96875
vt 0.625 0.96875
vt 0.625 0.9375
vt 0.65625 0.9375
vt 0.6875 0.96875
vt 0.65625 0.96875
vt 0.65625 0.9375
vt 0.6875 0.9375
vt 0.59375 0.96875
vt 0.5625 0.96875
vt 0.5625 0.9375
vt 0.59375 0.9375
vt 0.59375 0.96875
vt 0.625 0.96875
vt 0.625 1
vt 0.59375 1
vt 0.625 1
vt 0.65625 1
vt 0.65625 0.96875
vt 0.625 0.96875
vt 0.625 0.90625
vt 0.59375 0.90625
vt 0.59375 0.875
vt 0.625 0.875
vt 0.65625 0.90625
vt 0.625 0.90625
vt 0.625 0.875
vt 0.65625 0.875
vt 0.6875 0.90625
vt 0.65625 0.90625
vt 0.65625 0.875
vt 0.6875 0.875
vt 0.59375 0.90625
vt 0.5625 0.90625
vt 0.5625 0.875
vt 0.59375 0.875
vt 0.59375 0.90625
vt 0.625 0.90625
vt 0.625 0.9375
vt 0.59375 0.9375
vt 0.625 0.9375
vt 0.65625 0.9375
vt 0.65625 0.90625
vt 0.625 0.90625
vt 0.578125 0.578125
vt 0.578125 0.578125
vt 0.578125 0.5625
vt 0.578125 0.5625
vt 0.5625 0.578125
vt 0.578125 0.578125
vt 0.578125 0.5625
vt 0.5625 0.5625
vt 0.59375 0.578125
vt 0.59375 0.578125
vt 0.59375 0.5625
vt 0.59375 0.5625
vt 0.578125 0.578125
vt 0.59375 0.578125
vt 0.59375 0.5625
vt 0.578125 0.5625
vt 0.578125 0.578125
vt 0.578125 0.578125
vt 0.578125 0.59375
vt 0.578125 0.59375
vt 0.578125 0.59375
vt 0.578125 0.59375
vt 0.578125 0.578125
vt 0.578125 0.578125
vt 0.3125 0.6875
vt 0.4375 0.6875
vt 0.4375 0.5
vt 0.3125 0.5
vt 0.25 0.6875
vt 0.3125 0.6875
vt 0.3125 0.5
vt 0.25 0.5
vt 0.5 0.6875
vt 0.625 0.6875
vt 0.625 0.5
vt 0.5 0.5
vt 0.4375 0.6875
vt 0.5 0.6875
vt 0.5 0.5
vt 0.4375 0.5
vt 0.4375 0.6875
vt 0.3125 0.6875
vt 0.3125 0.75
vt 0.4375 0.75
vt 0.5625 0.75
vt 0.4375 0.75
vt 0.4375 0.6875
vt 0.5625 0.6875
vt 0.53125 0.65625
vt 0.59375 0.65625
vt 0.59375 0.515625
vt 0.53125 0.515625
vt 0.53125 0.65625
vt 0.59375 0.65625
vt 0.59375 0.515625
vt 0.53125 0.515625
vt 0.53125 0.65625
vt 0.59375 0.65625
vt 0.59375 0.515625
vt 0.53125 0.515625
vt 0.53125 0.65625
vt 0.59375 0.65625
vt 0.59375 0.515625
vt 0.53125 0.515625
vt 0.59375 0.546875
vt 0.53125 0.546875
vt 0.53125 0.609375
vt 0.59375 0.609375
vt 0.59375 0.625
vt 0.53125 0.625
vt 0.53125 0.5625
vt 0.59375 0.5625
vt 0.53125 0.578125
vt 0.5625 0.578125
vt 0.5625 0.5625
vt 0.53125 0.5625
vt 0.53125 0.5625
vt 0.5625 0.5625
vt 0.5625 0.546875
vt 0.53125 0.546875
vt 0.5625 0.5625
vt 0.59375 0.5625
vt 0.59375 0.546875
vt 0.5625 0.546875
vt 0.5625 0.578125
vt 0.59375 0.578125
vt 0.59375 0.5625
vt 0.5625 0.5625
vt 0.5625 0.578125
vt 0.53125 0.578125
vt 0.53125 0.609375
vt 0.5625 0.609375
vt 0.59375 0.609375
vt 0.5625 0.609375
vt 0.5625 0.578125
vt 0.59375 0.578125
vt 0.6875 0.6875
vt 0.75 0.6875
vt 0.75 0.5
vt 0.6875 0.5
vt 0.625 0.6875
vt 0.6875 0.6875
vt 0.6875 0.5
vt 0.625 0.5
vt 0.8125 0.6875
vt 0.875 0.6875
vt 0.875 0.5
vt 0.8125 0.5
vt 0.75 0.6875
vt 0.8125 0.6875
vt 0.8125 0.5
vt 0.75 0.5
vt 0.75 0.6875
vt 0.6875 0.6875
vt 0.6875 0.75
vt 0.75 0.75
vt 0.8125 0.75
vt 0.75 0.75
vt 0.75 0.6875
vt 0.8125 0.6875
vt 0.6875 0.6875
vt 0.75 0.6875
vt 0.75 0.5
vt 0.6875 0.5
vt 0.625 0.6875
vt 0.6875 0.6875
vt 0.6875 0.5
vt 0.625 0.5
vt 0.8125 0.6875
vt 0.875 0.6875
vt 0.875 0.5
vt 0.8125 0.5
vt 0.75 0.6875
vt 0.8125 0.6875
vt 0.8125 0.5
vt 0.75 0.5
vt 0.75 0.6875
vt 0.6875 0.6875
vt 0.6875 0.75
vt 0.75 0.75
vt 0.8125 0.75
vt 0.75 0.75
vt 0.75 0.6875
vt 0.8125 0.6875
vt 0.0625 0.1875
vt 0.125 0.1875
vt 0.125 0
vt 0.0625 0
vt 0 0.1875
vt 0.0625 0.1875
vt 0.0625 0
vt 0 0
vt 0.1875 0.1875
vt 0.25 0.1875
vt 0.25 0
vt 0.1875 0
vt 0.125 0.1875
vt 0.1875 0.1875
vt 0.1875 0
vt 0.125 0
vt 0.125 0.1875
vt 0.0625 0.1875
vt 0.0625 0.25
vt 0.125 0.25
vt 0.1875 0.25
vt 0.125 0.25
vt 0.125 0.1875
vt 0.1875 0.1875
vt 0.0625 0.6875
vt 0.125 0.6875
vt 0.125 0.5
vt 0.0625 0.5
vt 0 0.6875
vt 0.0625 0.6875
vt 0.0625 0.5
vt 0 0.5
vt 0.1875 0.6875
vt 0.25 0.6875
vt 0.25 0.5
vt 0.1875 0.5
vt 0.125 0.6875
vt 0.1875 0.6875
vt 0.1875 0.5
vt 0.125 0.5
vt 0.125 0.6875
vt 0.0625 0.6875
vt 0.0625 0.75
vt 0.125 0.75
vt 0.1875 0.75
vt 0.125 0.75
vt 0.125 0.6875
vt 0.1875 0.6875
vt 0.0625 0.1875
vt 0.125 0.1875
vt 0.125 0
vt 0.0625 0
vt 0 0.1875
vt 0.0625 0.1875
vt 0.0625 0
vt 0 0
vt 0.1875 0.1875
vt 0.25 0.1875
vt 0.25 0
vt 0.1875 0
vt 0.125 0.1875
vt 0.1875 0.1875
vt 0.1875 0
vt 0.125 0
vt 0.125 0.1875
vt 0.0625 0.1875
vt 0.0625 0.25
vt 0.125 0.25
vt 0.1875 0.25
vt 0.125 0.25
vt 0.125 0.1875
vt 0.1875 0.1875
vt 0.0625 0.6875
vt 0.125 0.6875
vt 0.125 0.5
vt 0.0625 0.5
vt 0 0.6875
vt 0.0625 0.6875
vt 0.0625 0.5
vt 0 0.5
vt 0.1875 0.6875
vt 0.25 0.6875
vt 0.25 0.5
vt 0.1875 0.5
vt 0.125 0.6875
vt 0.1875 0.6875
vt 0.1875 0.5
vt 0.125 0.5
vt 0.125 0.6875
vt 0.0625 0.6875
vt 0.0625 0.75
vt 0.125 0.75
vt 0.1875 0.75
vt 0.125 0.75
vt 0.125 0.6875
vt 0.1875 0.6875
vn 0.0 0.0 -1.0
vn 1.0 0.0 0.0
vn 0.0 0.0 1.0
vn -1.0 0.0 0.0
vn 0.0 1.0 0.0
vn 0.0 -1.0 0.0
vn 0.0 0.0 -1.0
vn 1.0 0.0 0.0
vn 0.0 0.0 1.0
vn -1.0 0.0 0.0
vn 0.0 1.0 0.0
vn 0.0 -1.0 0.0
vn 0.0 0.0 -1.0
vn 1.0 0.0 0.0
vn 0.0 0.0 1.0
vn -1.0 0.0 0.0
vn 0.0 1.0 0.0
vn 0.0 -1.0 0.0
vn 0.0 -0.766044443118978 -0.6427876096865393
vn 1.0 0.0 0.0
vn 0.0 0.766044443118978 0.6427876096865393
vn -1.0 0.0 0.0
vn 0.0 0.6427876096865393 -0.766044443118978
vn 0.0 -0.6427876096865393 0.766044443118978
vn 0.0 0.0 -1.0
vn 1.0 0.0 0.0
vn 0.0 0.0 1.0
vn -1.0 0.0 0.0
vn 0.0 1.0 0.0
vn 0.0 -1.0 0.0
vn 0.0 0.0 -1.0
vn 1.0 0.0 0.0
vn 0.0 0.0 1.0
vn -1.0 0.0 0.0
vn 0.0 1.0 0.0
vn 0.0 -1.0 0.0
vn 0.0 0.573576436351046 -0.8191520442889918
vn 1.0 0.0 0.0
vn 0.0 -0.573576436351046 0.8191520442889918
vn -1.0 0.0 0.0
vn 0.0 0.8191520442889918 0.573576436351046
vn 0.0 -0.8191520442889918 -0.573576436351046
vn 0.0 -0.5372996083468239 -0.8433914458128857
vn 1.0 0.0 0.0
vn 0.0 0.5372996083468239 0.8433914458128857
vn -1.0 0.0 0.0
vn 0.0 0.8433914458128857 -0.5372996083468239
vn 0.0 -0.8433914458128857 0.5372996083468239
vn 0.0 0.0 -1.0
vn 1.0 0.0 0.0
vn 0.0 0.0 1.0
vn -1.0 0.0 0.0
vn 0.0 1.0 0.0
vn 0.0 -1.0 0.0
vn 0.0 0.0 -1.0
vn 1.0 0.0 0.0
vn 0.0 0.0 1.0
vn -1.0 0.0 0.0
vn 0.0 1.0 0.0
vn 0.0 -1.0 0.0
vn 0.0 0.0 -1.0
vn 1.0 0.0 0.0
vn 0.0 0.0 1.0
vn -1.0 0.0 0.0
vn 0.0 1.0 0.0
vn 0.0 -1.0 0.0
vn 0.0 0.0 -1.0
vn 1.0 0.0 0.0
vn 0.0 0.0 1.0
vn -1.0 0.0 0.0
vn 0.0 1.0 0.0
vn 0.0 -1.0 0.0
vn 1.0 -1.8207703590017463e-17 -1.2278403432480933e-16
vn 1.6825610733672961e-16 0.5735764363510462 0.819152044288992
vn -1.0 1.8207703590017463e-17 1.2278403432480933e-16
vn -1.6825610733672961e-16 -0.5735764363510462 -0.819152044288992
vn -5.004759189098632e-17 0.8191520442889919 -0.573576436351046
vn 5.004759189098632e-17 -0.8191520442889919 0.573576436351046
vn 1.0 -1.8207703590017463e-17 -1.2278403432480933e-16
vn 1.6825610733672961e-16 0.5735764363510462 0.819152044288992
vn -1.0 1.8207703590017463e-17 1.2278403432480933e-16
vn -1.6825610733672961e-16 -0.5735764363510462 -0.819152044288992
vn -5.004759189098632e-17 0.8191520442889919 -0.573576436351046
vn 5.004759189098632e-17 -0.8191520442889919 0.573576436351046
vn 0.0 -0.5372996083468239 -0.8433914458128857
vn 1.0 0.0 0.0
vn 0.0 0.5372996083468239 0.8433914458128857
vn -1.0 0.0 0.0
vn 0.0 0.8433914458128857 -0.5372996083468239
vn 0.0 -0.8433914458128857 0.5372996083468239
vn 0.0 0.0 -1.0
vn 1.0 0.0 0.0
vn 0.0 0.0 1.0
vn -1.0 0.0 0.0
vn 0.0 1.0 0.0
vn 0.0 -1.0 0.0
vn 0.0 0.0 -1.0
vn 1.0 0.0 0.0
vn 0.0 0.0 1.0
vn -1.0 0.0 0.0
vn 0.0 1.0 0.0
vn 0.0 -1.0 0.0
vn 0.0 0.0 -1.0
vn 1.0 0.0 0.0
vn 0.0 0.0 1.0
vn -1.0 0.0 0.0
vn 0.0 1.0 0.0
vn 0.0 -1.0 0.0
vn 0.0 0.0 -1.0
vn 1.0 0.0 0.0
vn 0.0 0.0 1.0
vn -1.0 0.0 0.0
vn 0.0 1.0 0.0
vn 0.0 -1.0 0.0
vn 0.0 0.0 -1.0
vn 1.0 0.0 0.0
vn 0.0 0.0 1.0
vn -1.0 0.0 0.0
vn 0.0 1.0 0.0
vn 0.0 -1.0 0.0
vn 0.0 0.0 -1.0
vn 1.0 0.0 0.0
vn 0.0 0.0 1.0
vn -1.0 0.0 0.0
vn 0.0 1.0 0.0
vn 0.0 -1.0 0.0
vn 0.0 0.0 -1.0
vn 1.0 0.0 0.0
vn 0.0 0.0 1.0
vn -1.0 0.0 0.0
vn 0.0 1.0 0.0
vn 0.0 -1.0 0.0
vn 0.0 0.0 -1.0
vn 1.0 0.0 0.0
vn 0.0 0.0 1.0
vn -1.0 0.0 0.0
vn 0.0 1.0 0.0
vn 0.0 -1.0 0.0
vn 0.0 0.0 -1.0
vn 1.0 0.0 0.0
vn 0.0 0.0 1.0
vn -1.0 0.0 0.0
vn 0.0 1.0 0.0
vn 0.0 -1.0 0.0
o Helmet
usemtl default
f 2/1/1 5/2/1 7/3/1 4/4/1
f 1/5/2 2/6/2 4/7/2 3/8/2
f 6/9/3 1/10/3 3/11/3 8/12/3
f 5/13/4 6/14/4 8/15/4 7/16/4
f 6/20/5 1/19/5 2/18/5 5/17/5
f 7/24/6 4/23/6 3/22/6 8/21/6
f 10/25/7 13/26/7 15/27/7 12/28/7
f 9/29/8 10/30/8 12/31/8 11/32/8
f 14/33/9 9/34/9 11/35/9 16/36/9
f 13/37/10 14/38/10 16/39/10 15/40/10
f 14/44/11 9/43/11 10/42/11 13/41/11
f 15/48/12 12/47/12 11/46/12 16/45/12
f 18/49/13 21/50/13 23/51/13 20/52/13
f 17/53/14 18/54/14 20/55/14 19/56/14
f 22/57/15 17/58/15 19/59/15 24/60/15
f 21/61/16 22/62/16 24/63/16 23/64/16
f 22/68/17 17/67/17 18/66/17 21/65/17
f 23/72/18 20/71/18 19/70/18 24/69/18
f 28/76/19 31/75/19 29/74/19 26/73/19
f 25/77/20 26/78/20 28/79/20 27/80/20
f 32/84/21 27/83/21 25/82/21 30/81/21
f 29/85/22 30/86/22 32/87/22 31/88/22
f 29/89/23 26/90/23 25/91/23 30/92/23
f 32/93/24 27/94/24 28/95/24 31/96/24
f 34/97/25 37/98/25 39/99/25 36/100/25
f 33/101/26 34/102/26 36/103/26 35/104/26
f 38/105/27 33/106/27 35/107/27 40/108/27
f 37/109/28 38/110/28 40/111/28 39/112/28
f 38/116/29 33/115/29 34/114/29 37/113/29
f 39/120/30 36/119/30 35/118/30 40/117/30
f 42/121/31 45/122/31 47/123/31 44/124/31
f 41/125/32 42/126/32 44/127/32 43/128/32
f 46/129/33 41/130/33 43/131/33 48/132/33
f 45/133/34 46/134/34 48/135/34 47/136/34
f 46/140/35 41/139/35 42/138/35 45/137/35
f 47/144/36 44/143/36 43/142/36 48/141/36
f 50/145/37 53/146/37 55/147/37 52/148/37
f 49/149/38 50/150/38 52/151/38 51/152/38
f 54/153/39 49/154/39 51/155/39 56/156/39
f 53/157/40 54/158/40 56/159/40 55/160/40
f 54/164/41 49/163/41 50/162/41 53/161/41
f 55/168/42 52/167/42 51/166/42 56/165/42
f 58/169/43 61/170/43 63/171/43 60/172/43
f 57/173/44 58/174/44 60/175/44 59/176/44
f 62/177/45 57/178/45 59/179/45 64/180/45
f 61/181/46 62/182/46 64/183/46 63/184/46
f 62/188/47 57/187/47 58/186/47 61/185/47
f 63/192/48 60/191/48 59/190/48 64/189/48
f 66/193/49 69/194/49 71/195/49 68/196/49
f 65/197/50 66/198/50 68/199/50 67/200/50
f 70/201/51 65/202/51 67/203/51 72/204/51
f 69/205/52 70/206/52 72/207/52 71/208/52
f 70/212/53 65/211/53 66/210/53 69/209/53
f 71/216/54 68/215/54 67/214/54 72/213/54
f 74/217/55 77/218/55 79/219/55 76/220/55
f 73/221/56 74/222/56 76/223/56 75/224/56
f 78/225/57 73/226/57 75/227/57 80/228/57
f 77/229/58 78/230/58 80/231/58 79/232/58
f 78/236/59 73/235/59 74/234/59 77/233/59
f 79/240/60 76/239/60 75/238/60 80/237/60
f 82/241/61 85/242/61 87/243/61 84/244/61
f 81/245/62 82/246/62 84/247/62 83/248/62
f 86/249/63 81/250/63 83/251/63 88/252/63
f 85/253/64 86/254/64 88/255/64 87/256/64
f 86/260/65 81/259/65 82/258/65 85/257/65
f 87/264/66 84/263/66 83/262/66 88/261/66
f 90/265/67 93/266/67 95/267/67 92/268/67
f 89/269/68 90/270/68 92/271/68 91/272/68
f 94/273/69 89/274/69 91/275/69 96/276/69
f 93/277/70 94/278/70 96/279/70 95/280/70
f 94/284/71 89/283/71 90/282/71 93/281/71
f 95/288/72 92/287/72 91/286/72 96/285/72
f 114/337/85 117/338/85 119/339/85 116/340/85
f 113/341/86 114/342/86 116/343/86 115/344/86
f 118/345/87 113/346/87 115/347/87 120/348/87
f 117/349/88 118/350/88 120/351/88 119/352/88
f 118/356/89 113/355/89 114/354/89 117/353/89
f 119/360/90 116/359/90 115/358/90 120/357/90
o Filter
usemtl default
f 98/289/73 101/290/73 103/291/73 100/292/73
f 97/293/74 98/294/74 100/295/74 99/296/74
f 102/297/75 97/298/75 99/299/75 104/300/75
f 101/301/76 102/302/76 104/303/76 103/304/76
f 102/308/77 97/307/77 98/306/77 101/305/77
f 103/312/78 100/311/78 99/310/78 104/309/78
o Chest
usemtl default
f 122/361/91 125/362/91 127/363/91 124/364/91
f 121/365/92 122/366/92 124/367/92 123/368/92
f 126/369/93 121/370/93 123/371/93 128/372/93
f 125/373/94 126/374/94 128/375/94 127/376/94
f 126/380/95 121/379/95 122/378/95 125/377/95
f 127/384/96 124/383/96 123/382/96 128/381/96
f 130/385/97 133/386/97 135/387/97 132/388/97
f 129/389/98 130/390/98 132/391/98 131/392/98
f 134/393/99 129/394/99 131/395/99 136/396/99
f 133/397/100 134/398/100 136/399/100 135/400/100
f 134/404/101 129/403/101 130/402/101 133/401/101
f 135/408/102 132/407/102 131/406/102 136/405/102
f 138/409/103 141/410/103 143/411/103 140/412/103
f 137/413/104 138/414/104 140/415/104 139/416/104
f 142/417/105 137/418/105 139/419/105 144/420/105
f 141/421/106 142/422/106 144/423/106 143/424/106
f 142/428/107 137/427/107 138/426/107 141/425/107
f 143/432/108 140/431/108 139/430/108 144/429/108
o LeftArm
usemtl default
f 146/433/109 149/434/109 151/435/109 148/436/109
f 145/437/110 146/438/110 148/439/110 147/440/110
f 150/441/111 145/442/111 147/443/111 152/444/111
f 149/445/112 150/446/112 152/447/112 151/448/112
f 150/452/113 145/451/113 146/450/113 149/449/113
f 151/456/114 148/455/114 147/454/114 152/453/114
o RightArm
usemtl default
f 154/457/115 157/458/115 159/459/115 156/460/115
f 153/461/116 154/462/116 156/463/116 155/464/116
f 158/465/117 153/466/117 155/467/117 160/468/117
f 157/469/118 158/470/118 160/471/118 159/472/118
f 158/476/119 153/475/119 154/474/119 157/473/119
f 159/480/120 156/479/120 155/478/120 160/477/120
o RightLeg
usemtl default
f 162/481/121 165/482/121 167/483/121 164/484/121
f 161/485/122 162/486/122 164/487/122 163/488/122
f 166/489/123 161/490/123 163/491/123 168/492/123
f 165/493/124 166/494/124 168/495/124 167/496/124
f 166/500/125 161/499/125 162/498/125 165/497/125
f 167/504/126 164/503/126 163/502/126 168/501/126
o RightBoot
usemtl default
f 170/505/127 173/506/127 175/507/127 172/508/127
f 169/509/128 170/510/128 172/511/128 171/512/128
f 174/513/129 169/514/129 171/515/129 176/516/129
f 173/517/130 174/518/130 176/519/130 175/520/130
f 174/524/131 169/523/131 170/522/131 173/521/131
f 175/528/132 172/527/132 171/526/132 176/525/132
o LeftLeg
usemtl default
f 178/529/133 181/530/133 183/531/133 180/532/133
f 177/533/134 178/534/134 180/535/134 179/536/134
f 182/537/135 177/538/135 179/539/135 184/540/135
f 181/541/136 182/542/136 184/543/136 183/544/136
f 182/548/137 177/547/137 178/546/137 181/545/137
f 183/552/138 180/551/138 179/550/138 184/549/138
o LeftBoot
usemtl default
f 186/553/139 189/554/139 191/555/139 188/556/139
f 185/557/140 186/558/140 188/559/140 187/560/140
f 190/561/141 185/562/141 187/563/141 192/564/141
f 189/565/142 190/566/142 192/567/142 191/568/142
f 190/572/143 185/571/143 186/570/143 189/569/143
f 191/576/144 188/575/144 187/574/144 192/573/144
