mtllib charge_dynamite_west.mtl
v 1.000000 0.625000 0.937500
v 1.000000 0.375000 0.062500
v 1.000000 0.625000 0.062500
v 0.750000 0.375000 0.062500
v 0.750000 0.625000 0.937500
v 0.750000 0.625000 0.062500
v 1.000000 0.375000 0.937500
v 0.750000 0.375000 0.937500
v 1.000000 0.312500 0.937500
v 1.000000 0.062500 0.062500
v 1.000000 0.312500 0.062500
v 0.750000 0.062500 0.062500
v 0.750000 0.312500 0.937500
v 0.750000 0.312500 0.062500
v 1.000000 0.062500 0.937500
v 0.750000 0.062500 0.937500
v 1.000000 0.937500 0.937500
v 1.000000 0.687500 0.062500
v 1.000000 0.937500 0.062500
v 0.750000 0.687500 0.062500
v 0.750000 0.937500 0.937500
v 0.750000 0.937500 0.062500
v 1.000000 0.687500 0.937500
v 0.750000 0.687500 0.937500
v 0.812500 0.750000 0.750000
v 0.812500 0.250000 0.250000
v 0.812500 0.750000 0.250000
v 0.687500 0.250000 0.250000
v 0.687500 0.750000 0.750000
v 0.687500 0.750000 0.250000
v 0.687500 0.250000 0.750000
v 0.812500 0.250000 0.750000
vt 0.875000 0.000000
vt -0.000000 0.250000
vt -0.000000 0.000000
vt -0.000000 0.000000
vt 0.875000 0.250000
vt -0.000000 0.250000
vt 0.875000 -0.000000
vt -0.000000 0.250000
vt -0.000000 -0.000000
vt -0.000000 0.250000
vt 0.875000 0.000000
vt 0.875000 0.250000
vt 0.250000 0.250000
vt 0.000000 0.500000
vt 0.000000 0.250000
vt 0.250000 0.250000
vt -0.000000 0.500000
vt 0.875000 0.000000
vt -0.000000 0.250000
vt -0.000000 0.000000
vt -0.000000 0.000000
vt 0.875000 0.250000
vt -0.000000 0.250000
vt 0.875000 -0.000000
vt -0.000000 0.250000
vt -0.000000 -0.000000
vt -0.000000 0.250000
vt 0.875000 0.000000
vt 0.875000 0.250000
vt 0.250000 0.250000
vt 0.000000 0.500000
vt 0.000000 0.250000
vt 0.250000 0.250000
vt -0.000000 0.500000
vt 0.875000 0.000000
vt -0.000000 0.250000
vt -0.000000 0.000000
vt -0.000000 0.000000
vt 0.875000 0.250000
vt -0.000000 0.250000
vt 0.875000 -0.000000
vt -0.000000 0.250000
vt -0.000000 -0.000000
vt -0.000000 0.250000
vt 0.875000 0.000000
vt 0.875000 0.250000
vt 0.250000 0.250000
vt 0.000000 0.500000
vt 0.000000 0.250000
vt 0.250000 0.250000
vt -0.000000 0.500000
vt 0.250000 0.875000
vt 0.750000 0.375000
vt 0.750000 0.875000
vt 0.250000 0.375000
vt 0.750000 0.875000
vt 0.250000 0.875000
vt 0.750000 0.250000
vt 0.250000 0.375000
vt 0.250000 0.250000
vt 0.750000 0.250000
vt 0.250000 0.375000
vt 0.250000 0.250000
vt 0.750000 0.250000
vt 0.250000 0.250000
vt 0.750000 0.250000
vt 0.250000 0.375000
vt 0.250000 0.250000
vt 0.875000 0.250000
vt 0.875000 0.000000
vt 0.875000 0.250000
vt -0.000000 0.000000
vt 0.250000 0.500000
vt 0.250000 0.500000
vt 0.875000 0.250000
vt 0.875000 0.000000
vt 0.875000 0.250000
vt -0.000000 0.000000
vt 0.250000 0.500000
vt 0.250000 0.500000
vt 0.875000 0.250000
vt 0.875000 0.000000
vt 0.875000 0.250000
vt -0.000000 0.000000
vt 0.250000 0.500000
vt 0.250000 0.500000
vt 0.250000 0.375000
vt 0.750000 0.375000
vt 0.750000 0.375000
vt 0.750000 0.375000
vt 0.750000 0.375000
vn 1.000000 -0.000000 0.000000
vn -1.000000 0.000000 -0.000000
vn -0.000000 -1.000000 -0.000000
vn 0.000000 1.000000 0.000000
vn -0.000000 0.000000 1.000000
vn 0.000000 0.000000 -1.000000
o Plane
usemtl texture
s off
f 1/1/1 2/2/1 3/3/1
f 4/4/2 5/5/2 6/6/2
f 7/7/3 4/8/3 2/9/3
f 3/10/4 5/11/4 1/12/4
f 1/13/5 8/14/5 7/15/5
f 2/16/6 6/17/6 3/10/6
f 9/18/1 10/19/1 11/20/1
f 12/21/2 13/22/2 14/23/2
f 15/24/3 12/25/3 10/26/3
f 11/27/4 13/28/4 9/29/4
f 9/30/5 16/31/5 15/32/5
f 10/33/6 14/34/6 11/27/6
f 17/35/1 18/36/1 19/37/1
f 20/38/2 21/39/2 22/40/2
f 23/41/3 20/42/3 18/43/3
f 19/44/4 21/45/4 17/46/4
f 17/47/5 24/48/5 23/49/5
f 18/50/6 22/51/6 19/44/6
f 25/52/1 26/53/1 27/54/1
f 28/55/2 29/56/2 30/57/2
f 25/58/5 31/59/5 32/60/5
f 26/61/6 30/62/6 27/63/6
f 32/64/3 28/55/3 26/65/3
f 27/66/4 29/67/4 25/68/4
f 1/1/1 7/69/1 2/2/1
f 4/4/2 8/70/2 5/5/2
f 7/7/3 8/71/3 4/8/3
f 3/10/4 6/72/4 5/11/4
f 1/13/5 5/73/5 8/14/5
f 2/16/6 4/74/6 6/17/6
f 9/18/1 15/75/1 10/19/1
f 12/21/2 16/76/2 13/22/2
f 15/24/3 16/77/3 12/25/3
f 11/27/4 14/78/4 13/28/4
f 9/30/5 13/79/5 16/31/5
f 10/33/6 12/80/6 14/34/6
f 17/35/1 23/81/1 18/36/1
f 20/38/2 24/82/2 21/39/2
f 23/41/3 24/83/3 20/42/3
f 19/44/4 22/84/4 21/45/4
f 17/47/5 21/85/5 24/48/5
f 18/50/6 20/86/6 22/51/6
f 25/52/1 32/87/1 26/53/1
f 28/55/2 31/88/2 29/56/2
f 25/58/5 29/89/5 31/59/5
f 26/61/6 28/90/6 30/62/6
f 32/64/3 31/88/3 28/55/3
f 27/66/4 30/91/4 29/67/4
