mtllib charge_c4_up.mtl
v 0.968750 0.250000 0.968750
v 0.531250 0.250000 0.031250
v 0.531250 0.250000 0.968750
v 0.531250 0.000000 0.031250
v 0.968750 0.000000 0.968750
v 0.531250 0.000000 0.968750
v 0.968750 0.250000 0.031250
v 0.968750 0.000000 0.031250
v 0.468750 0.250000 0.968750
v 0.031250 0.250000 0.031250
v 0.031250 0.250000 0.968750
v 0.031250 0.000000 0.031250
v 0.468750 0.000000 0.968750
v 0.031250 0.000000 0.968750
v 0.468750 0.250000 0.031250
v 0.468750 0.000000 0.031250
v 0.250000 0.187500 0.250000
v 0.750000 0.187500 0.750000
v 0.250000 0.187500 0.750000
v 0.750000 0.312500 0.750000
v 0.250000 0.312500 0.250000
v 0.250000 0.312500 0.750000
v 0.750000 0.312500 0.250000
v 0.750000 0.187500 0.250000
vt -0.000000 -0.000000
vt 0.937500 0.437500
vt -0.000000 0.437500
vt 0.937500 0.000000
vt -0.000000 0.437500
vt 0.000000 -0.000000
vt 0.000000 0.437500
vt 0.250000 0.875000
vt 0.000000 0.875000
vt 0.937500 0.187500
vt -0.000000 0.437500
vt -0.000000 0.187500
vt 0.250000 0.875000
vt 0.000000 0.875000
vt 0.937500 0.187500
vt -0.000000 0.437500
vt -0.000000 0.187500
vt -0.000000 -0.000000
vt 0.937500 0.437500
vt -0.000000 0.437500
vt 0.937500 0.000000
vt -0.000000 0.437500
vt 0.000000 -0.000000
vt 0.000000 0.437500
vt 0.250000 0.875000
vt 0.000000 0.875000
vt 0.937500 0.187500
vt -0.000000 0.437500
vt -0.000000 0.187500
vt 0.250000 0.875000
vt 0.000000 0.875000
vt 0.937500 0.187500
vt -0.000000 0.437500
vt -0.000000 0.187500
vt 0.937500 0.000000
vt 0.937500 0.437500
vt 0.250000 0.437500
vt 0.937500 0.437500
vt 0.250000 0.437500
vt 0.937500 0.437500
vt 0.937500 0.000000
vt 0.937500 0.437500
vt 0.250000 0.437500
vt 0.937500 0.437500
vt 0.250000 0.437500
vt 0.937500 0.437500
vt 0.375000 1.000000
vt 0.875000 0.500000
vt 0.875000 1.000000
vt 0.375000 0.500000
vt 0.875000 1.000000
vt 0.375000 1.000000
vt 1.000000 1.000000
vt 0.875000 0.500000
vt 1.000000 0.500000
vt 1.000000 1.000000
vt 0.875000 0.500000
vt 1.000000 0.500000
vt 1.000000 1.000000
vt 0.875000 0.500000
vt 1.000000 0.500000
vt 1.000000 1.000000
vt 0.875000 0.500000
vt 1.000000 0.500000
vt 0.375000 0.500000
vt 0.875000 1.000000
vt 0.875000 1.000000
vt 0.875000 1.000000
vn 0.000000 1.000000 0.000000
vn 0.000000 -1.000000 -0.000000
vn 0.000000 0.000000 -1.000000
vn 1.000000 0.000000 0.000000
vn 0.000000 -0.000000 1.000000
vn -1.000000 0.000000 0.000000
o Plane
usemtl texture
s off
f 1/1/1 2/2/1 3/3/1
f 4/4/2 5/5/2 6/6/2
f 4/7/3 7/8/3 8/9/3
f 8/10/4 1/11/4 5/12/4
f 5/5/5 3/13/5 6/14/5
f 6/15/6 2/16/6 4/17/6
f 9/18/1 10/19/1 11/20/1
f 12/21/2 13/22/2 14/23/2
f 12/24/3 15/25/3 16/26/3
f 16/27/4 9/28/4 13/29/4
f 13/22/5 11/30/5 14/31/5
f 14/32/6 10/33/6 12/34/6
f 1/1/1 7/35/1 2/2/1
f 4/4/2 8/36/2 5/5/2
f 4/7/3 2/37/3 7/8/3
f 8/10/4 7/38/4 1/11/4
f 5/5/5 1/39/5 3/13/5
f 6/15/6 3/40/6 2/16/6
f 9/18/1 15/41/1 10/19/1
f 12/21/2 16/42/2 13/22/2
f 12/24/3 10/43/3 15/25/3
f 16/27/4 15/44/4 9/28/4
f 13/22/5 9/45/5 11/30/5
f 14/32/6 11/46/6 10/33/6
f 17/47/2 18/48/2 19/49/2
f 20/50/1 21/51/1 22/52/1
f 17/53/3 23/54/3 24/55/3
f 18/56/5 22/57/5 19/58/5
f 24/59/4 20/60/4 18/61/4
f 19/62/6 21/63/6 17/64/6
f 17/47/2 24/65/2 18/48/2
f 20/50/1 23/54/1 21/51/1
f 17/53/3 21/51/3 23/54/3
f 18/56/5 20/66/5 22/57/5
f 24/59/4 23/67/4 20/60/4
f 19/62/6 22/68/6 21/63/6
