mtllib det_cord_posz.mtl
v 0.593750 0.656250 0.000000
v 0.656250 0.406250 0.000000
v 0.406250 0.343750 0.000000
v 0.343750 0.406250 0.000000
v 0.343750 0.593750 0.343750
v 0.343750 0.593750 0.000000
v 0.406250 0.656250 0.343750
v 0.406250 0.656250 0.000000
v 0.593750 0.656250 0.343750
v 0.656250 0.593750 0.000000
v 0.656250 0.593750 0.343750
v 0.656250 0.406250 0.343750
v 0.593750 0.343750 0.000000
v 0.406250 0.343750 0.343750
v 0.343750 0.406250 0.343750
v 0.593750 0.343750 0.343750
vt 0.562500 0.250000
vt 0.312500 0.312500
vt 0.250000 0.062500
vt 0.250000 -0.000000
vt 0.062500 0.343750
vt 0.062500 -0.000000
vt 0.000000 0.343750
vt -0.000000 -0.000000
vt 0.250000 0.000000
vt 0.062500 0.343750
vt 0.062500 0.000000
vt -0.000000 0.000000
vt 0.250000 0.343750
vt 0.062500 0.000000
vt 0.250000 0.000000
vt 0.062500 0.343750
vt -0.000000 0.000000
vt 0.250000 0.000000
vt 0.062500 0.343750
vt 0.062500 0.000000
vt 0.000000 0.343750
vt -0.000000 0.000000
vt 0.312500 0.000000
vt 0.500000 0.000000
vt 0.562500 0.062500
vt 0.500000 0.312500
vt 0.250000 0.250000
vt 0.250000 0.343750
vt 0.250000 0.343750
vt 0.000000 0.343750
vt 0.000000 0.343750
vt 0.250000 0.343750
vn 0.000000 0.000000 -1.000000
vn -1.000000 0.000000 0.000000
vn -0.707100 0.707100 0.000000
vn 0.000000 1.000000 0.000000
vn 0.707100 0.707100 -0.000000
vn 1.000000 0.000000 0.000000
vn 0.707100 -0.707100 -0.000000
vn 0.000000 -1.000000 0.000000
vn -0.707100 -0.707100 -0.000000
o posZ
usemtl texture
s off
f 1/1/1 2/2/1 3/3/1
f 4/4/2 5/5/2 6/6/2
f 6/6/3 7/7/3 8/8/3
f 8/9/4 9/10/4 1/11/4
f 9/10/5 10/12/5 1/11/5
f 11/13/6 2/14/6 10/15/6
f 12/16/7 13/17/7 2/14/7
f 13/18/8 14/19/8 3/20/8
f 3/20/9 15/21/9 4/22/9
f 3/3/1 4/23/1 1/1/1
f 4/23/1 6/24/1 1/1/1
f 6/24/1 8/25/1 1/1/1
f 1/1/1 10/26/1 2/2/1
f 2/2/1 13/27/1 3/3/1
f 4/4/2 15/28/2 5/5/2
f 6/6/3 5/5/3 7/7/3
f 8/9/4 7/29/4 9/10/4
f 9/10/5 11/30/5 10/12/5
f 11/13/6 12/16/6 2/14/6
f 12/16/7 16/31/7 13/17/7
f 13/18/8 16/32/8 14/19/8
f 3/20/9 14/19/9 15/21/9
