mtllib det_cord_posy.mtl
v 0.406250 1.000000 0.656250
v 0.656250 1.000000 0.593750
v 0.593750 1.000000 0.343750
v 0.343750 1.000000 0.406250
v 0.343750 0.656250 0.593750
v 0.343750 1.000000 0.593750
v 0.406250 0.656250 0.343750
v 0.406250 1.000000 0.343750
v 0.656250 1.000000 0.406250
v 0.593750 0.656250 0.343750
v 0.656250 0.656250 0.593750
v 0.593750 0.656250 0.656250
v 0.593750 1.000000 0.656250
v 0.406250 0.656250 0.656250
v 0.343750 0.656250 0.406250
v 0.656250 0.656250 0.406250
vt 0.500000 0.312500
vt 0.250000 0.250000
vt 0.312500 0.000000
vt 0.062500 1.000000
vt 0.250000 0.656250
vt 0.250000 1.000000
vt 0.000000 0.656250
vt 0.000000 1.000000
vt 0.062500 1.000000
vt 0.250000 0.656250
vt 0.250000 1.000000
vt -0.000000 1.000000
vt 0.062500 0.656250
vt 0.062500 0.656250
vt 0.250000 1.000000
vt 0.062500 1.000000
vt 0.000000 0.656250
vt -0.000000 1.000000
vt 0.062500 1.000000
vt 0.250000 0.656250
vt 0.250000 1.000000
vt 0.000000 1.000000
vt 0.062500 0.656250
vt 0.500000 0.000000
vt 0.562500 0.062500
vt 0.562500 0.250000
vt 0.312500 0.312500
vt 0.250000 0.062500
vt 0.062500 0.656250
vt 0.000000 0.656250
vt 0.250000 0.656250
vt 0.000000 0.656250
vn 0.000000 1.000000 0.000000
vn -1.000000 0.000000 0.000000
vn -0.707100 0.000000 -0.707100
vn 0.000000 0.000000 -1.000000
vn 0.707100 0.000000 -0.707100
vn 1.000000 0.000000 0.000000
vn 0.707100 0.000000 0.707100
vn 0.000000 0.000000 1.000000
vn -0.707100 0.000000 0.707100
o posY
usemtl texture
s off
f 1/1/1 2/2/1 3/3/1
f 4/4/2 5/5/2 6/6/2
f 7/7/3 4/4/3 8/8/3
f 3/9/4 7/10/4 8/11/4
f 9/12/5 10/13/5 3/9/5
f 11/14/6 9/15/6 2/16/6
f 12/17/7 2/16/7 13/18/7
f 1/19/8 12/20/8 13/21/8
f 6/22/9 14/23/9 1/19/9
f 3/3/1 8/24/1 1/1/1
f 8/24/1 4/25/1 1/1/1
f 4/25/1 6/26/1 1/1/1
f 1/1/1 13/27/1 2/2/1
f 2/2/1 9/28/1 3/3/1
f 4/4/2 15/29/2 5/5/2
f 7/7/3 15/29/3 4/4/3
f 3/9/4 10/13/4 7/10/4
f 9/12/5 16/30/5 10/13/5
f 11/14/6 16/31/6 9/15/6
f 12/17/7 11/14/7 2/16/7
f 1/19/8 14/23/8 12/20/8
f 6/22/9 5/32/9 14/23/9
