mtllib det_cord_cx.mtl
v 1.000000 0.593750 0.343750
v 0.000000 0.406250 0.343750
v 0.000000 0.593750 0.343750
v 1.000000 0.343750 0.406250
v 1.000000 0.406250 0.343750
v 1.000000 0.343750 0.593750
v 0.000000 0.343750 0.406250
v 0.000000 0.406250 0.656250
v 1.000000 0.406250 0.656250
v 0.000000 0.593750 0.656250
v 1.000000 0.593750 0.656250
v 0.000000 0.656250 0.593750
v 1.000000 0.656250 0.406250
v 1.000000 0.656250 0.593750
v 0.000000 0.656250 0.406250
v 0.000000 0.343750 0.593750
vt 0.250000 1.000000
vt 0.062500 0.000000
vt 0.250000 0.000000
vt -0.000000 1.000000
vt 0.062500 1.000000
vt 0.062500 1.000000
vt 0.250000 0.000000
vt 0.250000 1.000000
vt -0.000000 0.000000
vt -0.000000 1.000000
vt 0.250000 1.000000
vt 0.062500 0.000000
vt 0.250000 0.000000
vt 0.062500 1.000000
vt -0.000000 0.000000
vt 0.062500 1.000000
vt 0.250000 0.000000
vt 0.250000 1.000000
vt 0.062500 0.000000
vt -0.000000 1.000000
vt -0.000000 0.000000
vt 0.562500 0.250000
vt 0.312500 0.312500
vt 0.250000 0.062500
vt 0.562500 0.062500
vt 0.500000 0.312500
vt 0.250000 0.250000
vt -0.000000 0.000000
vt 0.062500 0.000000
vt -0.000000 1.000000
vt 0.312500 0.000000
vt 0.500000 0.000000
vt 0.562500 0.062500
vt 0.500000 0.312500
vt 0.250000 0.250000
vt 0.250000 0.062500
vt 0.312500 0.000000
vt 0.500000 0.000000
vt 0.562500 0.250000
vt 0.312500 0.312500
vn 0.000000 0.000000 -1.000000
vn 0.000000 -0.707100 -0.707100
vn 0.000000 -1.000000 0.000000
vn 0.000000 -0.707100 0.707100
vn 0.000000 0.000000 1.000000
vn -0.000000 0.707100 0.707100
vn -0.000000 1.000000 0.000000
vn -0.000000 0.707100 -0.707100
vn 1.000000 0.000000 0.000000
vn -1.000000 0.000000 0.000000
o CX
usemtl texture
s off
f 1/1/1 2/2/1 3/3/1
f 4/4/2 2/2/2 5/5/2
f 6/6/3 7/7/3 4/8/3
f 8/9/4 6/6/4 9/10/4
f 9/11/5 10/12/5 8/13/5
f 11/14/6 12/15/6 10/12/6
f 13/16/7 12/17/7 14/18/7
f 15/19/8 1/20/8 3/21/8
f 1/22/9 14/23/9 9/24/9
f 8/25/10 12/26/10 3/27/10
f 1/1/1 5/5/1 2/2/1
f 4/4/2 7/28/2 2/2/2
f 6/6/3 16/29/3 7/7/3
f 8/9/4 16/29/4 6/6/4
f 9/11/5 11/14/5 10/12/5
f 11/14/6 14/30/6 12/15/6
f 13/16/7 15/19/7 12/17/7
f 15/19/8 13/16/8 1/20/8
f 9/24/9 6/31/9 4/32/9
f 4/32/9 5/33/9 1/22/9
f 1/22/9 13/34/9 14/23/9
f 14/23/9 11/35/9 9/24/9
f 9/24/9 4/32/9 1/22/9
f 3/27/10 2/36/10 7/37/10
f 7/37/10 16/38/10 8/25/10
f 8/25/10 10/39/10 12/26/10
f 12/26/10 15/40/10 3/27/10
f 3/27/10 7/37/10 8/25/10
