mtllib det_cord_posx.mtl
v 1.000000 0.343750 0.406250
v 1.000000 0.406250 0.343750
v 1.000000 0.593750 0.656250
v 1.000000 0.656250 0.406250
v 0.656250 0.656250 0.593750
v 1.000000 0.656250 0.593750
v 1.000000 0.593750 0.343750
v 0.656250 0.656250 0.406250
v 0.656250 0.593750 0.343750
v 0.656250 0.406250 0.343750
v 0.656250 0.343750 0.593750
v 1.000000 0.343750 0.593750
v 0.656250 0.406250 0.656250
v 1.000000 0.406250 0.656250
v 0.656250 0.593750 0.656250
v 0.656250 0.343750 0.406250
vt 0.250000 0.062500
vt 0.312500 0.000000
vt 0.500000 0.312500
vt 0.062500 1.000000
vt 0.250000 0.656250
vt 0.250000 1.000000
vt 0.000000 1.000000
vt 0.062500 0.656250
vt 0.062500 1.000000
vt 0.250000 0.656250
vt 0.250000 1.000000
vt -0.000000 1.000000
vt 0.062500 0.656250
vt 0.062500 0.656250
vt 0.250000 1.000000
vt 0.062500 1.000000
vt 0.000000 0.656250
vt -0.000000 1.000000
vt 0.062500 1.000000
vt 0.250000 0.656250
vt 0.250000 1.000000
vt 0.000000 0.656250
vt 0.062500 0.656250
vt 0.500000 0.000000
vt 0.562500 0.062500
vt 0.562500 0.250000
vt 0.312500 0.312500
vt 0.250000 0.250000
vt 0.000000 0.656250
vt 0.000000 0.656250
vt 0.250000 0.656250
vt 0.000000 1.000000
vn 1.000000 0.000000 0.000000
vn 0.000000 1.000000 0.000000
vn 0.000000 0.707100 -0.707100
vn -0.000000 0.000000 -1.000000
vn 0.000000 -0.707100 -0.707100
vn 0.000000 -1.000000 0.000000
vn 0.000000 -0.707100 0.707100
vn 0.000000 0.000000 1.000000
vn 0.000000 0.707100 0.707100
o posX
usemtl texture
s off
f 1/1/1 2/2/1 3/3/1
f 4/4/2 5/5/2 6/6/2
f 7/7/3 8/8/3 4/4/3
f 2/9/4 9/10/4 7/11/4
f 1/12/5 10/13/5 2/9/5
f 11/14/6 1/15/6 12/16/6
f 13/17/7 12/16/7 14/18/7
f 3/19/8 13/20/8 14/21/8
f 3/19/9 5/22/9 15/23/9
f 2/2/1 7/24/1 3/3/1
f 7/24/1 4/25/1 3/3/1
f 4/25/1 6/26/1 3/3/1
f 3/3/1 14/27/1 12/28/1
f 12/28/1 1/1/1 3/3/1
f 4/4/2 8/8/2 5/5/2
f 7/7/3 9/29/3 8/8/3
f 2/9/4 10/13/4 9/10/4
f 1/12/5 16/30/5 10/13/5
f 11/14/6 16/31/6 1/15/6
f 13/17/7 11/14/7 12/16/7
f 3/19/8 15/23/8 13/20/8
f 3/19/9 6/32/9 5/22/9
