mtllib det_cord_negz.mtl
v 0.593750 0.656250 1.000000
v 0.343750 0.593750 1.000000
v 0.406250 0.343750 1.000000
v 0.343750 0.406250 0.656250
v 0.343750 0.406250 1.000000
v 0.406250 0.656250 0.656250
v 0.406250 0.656250 1.000000
v 0.656250 0.593750 1.000000
v 0.593750 0.656250 0.656250
v 0.656250 0.406250 0.656250
v 0.656250 0.406250 1.000000
v 0.593750 0.343750 0.656250
v 0.593750 0.343750 1.000000
v 0.406250 0.343750 0.656250
v 0.343750 0.593750 0.656250
v 0.656250 0.593750 0.656250
vt 0.312500 0.000000
vt 0.562500 0.062500
vt 0.500000 0.312500
vt 0.062500 1.000000
vt 0.250000 0.656250
vt 0.250000 1.000000
vt 0.000000 0.656250
vt 0.000000 1.000000
vt 0.062500 1.000000
vt 0.250000 0.656250
vt 0.250000 1.000000
vt -0.000000 1.000000
vt 0.062500 0.656250
vt 0.062500 0.656250
vt 0.250000 1.000000
vt 0.062500 1.000000
vt 0.000000 0.656250
vt -0.000000 1.000000
vt 0.062500 1.000000
vt 0.250000 0.656250
vt 0.250000 1.000000
vt 0.000000 1.000000
vt 0.062500 0.656250
vt 0.500000 0.000000
vt 0.562500 0.250000
vt 0.312500 0.312500
vt 0.250000 0.250000
vt 0.250000 0.062500
vt 0.062500 0.656250
vt 0.000000 0.656250
vt 0.250000 0.656250
vt 0.000000 0.656250
vn 0.000000 0.000000 1.000000
vn -1.000000 0.000000 0.000000
vn -0.707100 0.707100 0.000000
vn 0.000000 1.000000 -0.000000
vn 0.707100 0.707100 0.000000
vn 1.000000 0.000000 0.000000
vn 0.707100 -0.707100 0.000000
vn 0.000000 -1.000000 0.000000
vn -0.707100 -0.707100 0.000000
o negZ
usemtl texture
s off
f 1/1/1 2/2/1 3/3/1
f 2/4/2 4/5/2 5/6/2
f 6/7/3 2/4/3 7/8/3
f 1/9/4 6/10/4 7/11/4
f 8/12/5 9/13/5 1/9/5
f 10/14/6 8/15/6 11/16/6
f 12/17/7 11/16/7 13/18/7
f 3/19/8 12/20/8 13/21/8
f 5/22/9 14/23/9 3/19/9
f 1/1/1 7/24/1 2/2/1
f 2/2/1 5/25/1 3/3/1
f 3/3/1 13/26/1 11/27/1
f 11/27/1 8/28/1 3/3/1
f 8/28/1 1/1/1 3/3/1
f 2/4/2 15/29/2 4/5/2
f 6/7/3 15/29/3 2/4/3
f 1/9/4 9/13/4 6/10/4
f 8/12/5 16/30/5 9/13/5
f 10/14/6 16/31/6 8/15/6
f 12/17/7 10/14/7 11/16/7
f 3/19/8 14/23/8 12/20/8
f 5/22/9 4/32/9 14/23/9
