mtllib det_cord_negx.mtl
v 0.000000 0.406250 0.656250
v 0.000000 0.593750 0.656250
v 0.000000 0.406250 0.343750
v 0.000000 0.656250 0.593750
v 0.343750 0.656250 0.406250
v 0.000000 0.656250 0.406250
v 0.343750 0.593750 0.343750
v 0.000000 0.593750 0.343750
v 0.343750 0.406250 0.343750
v 0.343750 0.343750 0.406250
v 0.000000 0.343750 0.406250
v 0.000000 0.343750 0.593750
v 0.343750 0.343750 0.593750
v 0.343750 0.593750 0.656250
v 0.343750 0.656250 0.593750
v 0.343750 0.406250 0.656250
vt 0.250000 0.250000
vt 0.250000 0.062500
vt 0.562500 0.250000
vt 0.250000 -0.000000
vt 0.062500 0.343750
vt 0.062500 -0.000000
vt 0.000000 0.343750
vt -0.000000 -0.000000
vt 0.250000 0.000000
vt 0.062500 0.343750
vt 0.062500 0.000000
vt 0.000000 0.343750
vt -0.000000 0.000000
vt 0.250000 0.343750
vt 0.062500 0.000000
vt 0.250000 0.000000
vt 0.062500 0.343750
vt -0.000000 0.000000
vt 0.250000 0.000000
vt 0.062500 0.343750
vt 0.062500 0.000000
vt 0.000000 0.343750
vt -0.000000 0.000000
vt 0.312500 0.000000
vt 0.500000 0.000000
vt 0.562500 0.062500
vt 0.500000 0.312500
vt 0.312500 0.312500
vt 0.250000 0.343750
vt 0.250000 0.343750
vt 0.000000 0.343750
vt 0.250000 0.343750
vn -1.000000 0.000000 0.000000
vn 0.000000 1.000000 0.000000
vn 0.000000 0.707100 -0.707100
vn 0.000000 0.000000 -1.000000
vn 0.000000 -0.707100 -0.707100
vn 0.000000 -1.000000 0.000000
vn 0.000000 -0.707100 0.707100
vn 0.000000 0.000000 1.000000
vn 0.000000 0.707100 0.707100
o negX
usemtl texture
s off
f 1/1/1 2/2/1 3/3/1
f 4/4/2 5/5/2 6/6/2
f 6/6/3 7/7/3 8/8/3
f 8/9/4 9/10/4 3/11/4
f 3/11/5 10/12/5 11/13/5
f 10/14/6 12/15/6 11/16/6
f 13/17/7 1/18/7 12/15/7
f 1/19/8 14/20/8 2/21/8
f 2/21/9 15/22/9 4/23/9
f 2/2/1 4/24/1 3/3/1
f 4/24/1 6/25/1 3/3/1
f 6/25/1 8/26/1 3/3/1
f 3/3/1 11/27/1 12/28/1
f 12/28/1 1/1/1 3/3/1
f 4/4/2 15/29/2 5/5/2
f 6/6/3 5/5/3 7/7/3
f 8/9/4 7/30/4 9/10/4
f 3/11/5 9/10/5 10/12/5
f 10/14/6 13/17/6 12/15/6
f 13/17/7 16/31/7 1/18/7
f 1/19/8 16/32/8 14/20/8
f 2/21/9 14/20/9 15/22/9
