mtllib det_cord_negy.mtl
v 0.406250 0.000000 0.656250
v 0.343750 0.000000 0.406250
v 0.593750 0.000000 0.343750
v 0.343750 0.000000 0.593750
v 0.343750 0.343750 0.406250
v 0.406250 0.343750 0.343750
v 0.406250 0.000000 0.343750
v 0.593750 0.343750 0.343750
v 0.656250 0.000000 0.406250
v 0.656250 0.343750 0.406250
v 0.656250 0.000000 0.593750
v 0.656250 0.343750 0.593750
v 0.593750 0.000000 0.656250
v 0.406250 0.343750 0.656250
v 0.343750 0.343750 0.593750
v 0.593750 0.343750 0.656250
vt 0.250000 0.062500
vt 0.500000 0.000000
vt 0.562500 0.250000
vt 0.250000 -0.000000
vt 0.062500 0.343750
vt 0.062500 -0.000000
vt 0.000000 0.343750
vt -0.000000 -0.000000
vt 0.250000 0.000000
vt 0.062500 0.343750
vt 0.062500 0.000000
vt -0.000000 0.000000
vt 0.250000 0.343750
vt 0.062500 0.000000
vt 0.250000 0.000000
vt 0.062500 0.343750
vt -0.000000 0.000000
vt 0.250000 0.000000
vt 0.062500 0.343750
vt 0.062500 0.000000
vt 0.000000 0.343750
vt -0.000000 0.000000
vt 0.312500 0.000000
vt 0.562500 0.062500
vt 0.500000 0.312500
vt 0.312500 0.312500
vt 0.250000 0.250000
vt 0.250000 0.343750
vt 0.250000 0.343750
vt 0.000000 0.343750
vt 0.000000 0.343750
vt 0.250000 0.343750
vn 0.000000 -1.000000 0.000000
vn -1.000000 0.000000 0.000000
vn -0.707100 0.000000 -0.707100
vn 0.000000 0.000000 -1.000000
vn 0.707100 -0.000000 -0.707100
vn 1.000000 0.000000 0.000000
vn 0.707100 0.000000 0.707100
vn 0.000000 0.000000 1.000000
vn -0.707100 0.000000 0.707100
o negY
usemtl texture
s off
f 1/1/1 2/2/1 3/3/1
f 4/4/2 5/5/2 2/6/2
f 2/6/3 6/7/3 7/8/3
f 7/9/4 8/10/4 3/11/4
f 8/10/5 9/12/5 3/11/5
f 10/13/6 11/14/6 9/15/6
f 12/16/7 13/17/7 11/14/7
f 13/18/8 14/19/8 1/20/8
f 1/20/9 15/21/9 4/22/9
f 1/1/1 4/23/1 2/2/1
f 2/2/1 7/24/1 3/3/1
f 3/3/1 9/25/1 11/26/1
f 11/26/1 13/27/1 3/3/1
f 13/27/1 1/1/1 3/3/1
f 4/4/2 15/28/2 5/5/2
f 2/6/3 5/5/3 6/7/3
f 7/9/4 6/29/4 8/10/4
f 8/10/5 10/30/5 9/12/5
f 10/13/6 12/16/6 11/14/6
f 12/16/7 16/31/7 13/17/7
f 13/18/8 16/32/8 14/19/8
f 1/20/9 14/19/9 15/21/9
